<svg xmlns="http://www.w3.org/2000/svg" viewBox="0 0 1366 768"><defs><style>.cls-1{fill:#002855;}</style></defs><g id="Layer_2" data-name="Layer 2"><path class="cls-1" d="M222.46,339.79a10.92,10.92,0,0,1-10.92,11.13,11.06,11.06,0,0,1-10.93-11.13v-4.25a10.88,10.88,0,0,1,10.93-10.92,10.75,10.75,0,0,1,10.92,10.92Zm0,36.62v78.91a10.75,10.75,0,0,1-10.92,10.93,10.89,10.89,0,0,1-10.93-10.93V376.41a10.81,10.81,0,0,1,10.93-11.13C217.81,365.28,222.46,369.94,222.46,376.41Z"/><path class="cls-1" d="M244.76,393.61c0-40.67,33.58-73,74.66-73a74.85,74.85,0,0,1,46.13,15.78,11.65,11.65,0,0,1,2.22,16.39,11.77,11.77,0,0,1-16.39,1.82,52.52,52.52,0,0,0-32-10.92c-14.57,0-27.32,5.46-36.42,14.77a47.94,47.94,0,0,0,0,70c9.1,9.31,21.85,14.77,36.42,14.77a55.79,55.79,0,0,0,27.72-7.69V407.77H318.2a11.66,11.66,0,0,1-11.53-11.53,11.36,11.36,0,0,1,11.53-11.33h40.27a11.41,11.41,0,0,1,11.73,11.33V441a17,17,0,0,1-.61,3.44c-.2.4-.2.6-.4,1v.2a9.66,9.66,0,0,1-3.84,4.86,74.71,74.71,0,0,1-45.93,15.78C278.34,466.25,244.76,434.08,244.76,393.61Z"/><path class="cls-1" d="M560.81,455.12V335.74a11,11,0,0,1,11.13-11.12h23.88a70.82,70.82,0,0,1,0,141.63H571.94A11.1,11.1,0,0,1,560.81,455.12Zm22.46-11.33h12.55a48.36,48.36,0,0,0,0-96.72H583.27Z"/><path class="cls-1" d="M693.82,455.12V335.74A11,11,0,0,1,705,324.62h23.88a70.82,70.82,0,0,1,0,141.63H705A11.1,11.1,0,0,1,693.82,455.12Zm22.46-11.33h12.55a48.36,48.36,0,0,0,0-96.72H716.28Z"/><path class="cls-1" d="M891.62,432.86H842.45l-9.91,26.31A11.35,11.35,0,0,1,822,466.25a11.68,11.68,0,0,1-3.85-.61,11.48,11.48,0,0,1-6.67-14.57L856.21,331.9a11.32,11.32,0,0,1,10.73-7.08,11.13,11.13,0,0,1,10.72,7.08l44.71,119.17a11.48,11.48,0,0,1-6.67,14.57,11.32,11.32,0,0,1-14.17-6.47Zm-8.3-22.25-16.38-43.5-16.39,43.5Z"/><path class="cls-1" d="M1035.43,449.45a11.17,11.17,0,0,1-7.08,14.17,18,18,0,0,1-4.45.6h-.2a14.71,14.71,0,0,1-7.89-2.22,20,20,0,0,1-6.48-7.08c-2.83-5.87-4.25-13.15-4.25-24.28a17.09,17.09,0,0,0-2.42-8.7c-1.22-2.23-3.64-4.25-6.07-5.87a38.77,38.77,0,0,0-11.33-4.86H961.38v43.91a11.27,11.27,0,0,1-11.33,11.13,11.1,11.1,0,0,1-11.13-11.13V335.74a11,11,0,0,1,11.13-11.12h36.22a43.26,43.26,0,0,1,27.51,76.68,31.19,31.19,0,0,1,7.09,7.49,38.34,38.34,0,0,1,6.67,21.85,51.51,51.51,0,0,0,.81,11.94A10.86,10.86,0,0,1,1035.43,449.45Zm-28.32-81.33a20.86,20.86,0,0,0-20.84-21.05H961.38v41.68h24.89A20.76,20.76,0,0,0,1007.11,368.12Z"/><path class="cls-1" d="M1059.77,455.12V335.74a11,11,0,0,1,11.13-11.12h23.88a70.82,70.82,0,0,1,0,141.63H1070.9A11.1,11.1,0,0,1,1059.77,455.12Zm22.46-11.33h12.55a48.36,48.36,0,0,0,0-96.72h-12.55Z"/><path class="cls-1" d="M474.51,312.88v71.75a10.75,10.75,0,0,1-10.92,10.92,10.88,10.88,0,0,1-10.93-10.92V312.88a10.81,10.81,0,0,1,10.93-11.13C469.86,301.75,474.51,306.41,474.51,312.88Z"/><path class="cls-1" d="M512.86,342.22a65.58,65.58,0,0,0-30-19l-.23-.06v24.56A46.22,46.22,0,0,1,496.47,358a52.39,52.39,0,0,1,13.76,35.41,51.48,51.48,0,0,1-13.76,35.2c-8.49,9.11-19.82,14.57-32,14.57a44.23,44.23,0,0,1-32.78-14.57c-8.5-8.7-13.76-21.44-13.76-35.2A51.46,51.46,0,0,1,431.73,358a46.08,46.08,0,0,1,12.15-9.35l.71-.35V323.57l-.54.16a67.61,67.61,0,0,0-29.12,18.49,75.43,75.43,0,0,0,0,102.38,68.32,68.32,0,0,0,49.58,21.65,66.26,66.26,0,0,0,48.35-21.65,74.32,74.32,0,0,0,0-102.38Z"/></g></svg>