<svg id="Layer_2" data-name="Layer 2" xmlns="http://www.w3.org/2000/svg" viewBox="0 0 964.78 164.5"><path d="M21.85,38A10.92,10.92,0,0,1,10.93,49.17,11.06,11.06,0,0,1,0,38V33.79A10.89,10.89,0,0,1,10.93,22.86,10.75,10.75,0,0,1,21.85,33.79Zm0,36.62v78.91A10.75,10.75,0,0,1,10.93,164.5,10.89,10.89,0,0,1,0,153.57V74.66A10.81,10.81,0,0,1,10.93,63.53C17.2,63.53,21.85,68.19,21.85,74.66Z"/><path d="M44.15,91.86c0-40.67,33.58-73,74.66-73A74.85,74.85,0,0,1,164.94,34.6,11.64,11.64,0,0,1,167.16,51a11.78,11.78,0,0,1-16.39,1.82,52.52,52.52,0,0,0-32-10.93c-14.57,0-27.32,5.47-36.42,14.77a47.95,47.95,0,0,0,0,70c9.1,9.31,21.85,14.77,36.42,14.77a55.79,55.79,0,0,0,27.72-7.69V106H117.59a11.66,11.66,0,0,1-11.53-11.53,11.35,11.35,0,0,1,11.53-11.33h40.27a11.4,11.4,0,0,1,11.73,11.33V139.2a16.74,16.74,0,0,1-.61,3.44c-.2.41-.2.61-.4,1v.2a9.59,9.59,0,0,1-3.84,4.85,74.65,74.65,0,0,1-45.93,15.79C77.73,164.5,44.15,132.33,44.15,91.86Z"/><path d="M360.2,153.37V34a11,11,0,0,1,11.13-11.13h23.88a70.82,70.82,0,0,1,0,141.64H371.33A11.1,11.1,0,0,1,360.2,153.37ZM382.66,142h12.55a48.36,48.36,0,0,0,0-96.72H382.66Z"/><path d="M493.21,153.37V34a11,11,0,0,1,11.13-11.13h23.88a70.82,70.82,0,0,1,0,141.64H504.34A11.1,11.1,0,0,1,493.21,153.37ZM515.67,142h12.55a48.36,48.36,0,0,0,0-96.72H515.67Z"/><path d="M691,131.11H641.84l-9.91,26.31a11.35,11.35,0,0,1-10.52,7.08,12,12,0,0,1-3.85-.61,11.48,11.48,0,0,1-6.67-14.57L655.6,30.15a11.31,11.31,0,0,1,10.73-7.08,11.12,11.12,0,0,1,10.72,7.08l44.71,119.17a11.48,11.48,0,0,1-6.67,14.57,11.07,11.07,0,0,1-3.85.61,10.89,10.89,0,0,1-10.32-7.08Zm-8.3-22.26-16.38-43.5-16.39,43.5Z"/><path d="M834.82,147.7a11.17,11.17,0,0,1-7.08,14.17,18,18,0,0,1-4.45.6h-.2a14.71,14.71,0,0,1-7.89-2.22,20,20,0,0,1-6.48-7.08c-2.83-5.87-4.25-13.16-4.25-24.28a17.09,17.09,0,0,0-2.42-8.7c-1.22-2.23-3.64-4.25-6.07-5.87a38.77,38.77,0,0,0-11.33-4.86H760.77v43.91a11.27,11.27,0,0,1-11.33,11.13,11.1,11.1,0,0,1-11.13-11.13V34a11,11,0,0,1,11.13-11.13h36.22a43.27,43.27,0,0,1,27.51,76.69,31.32,31.32,0,0,1,7.09,7.48,38.39,38.39,0,0,1,6.67,21.86,51.34,51.34,0,0,0,.81,11.93A10.88,10.88,0,0,1,834.82,147.7ZM806.5,66.37a20.86,20.86,0,0,0-20.84-21.05H760.77V87h24.89A20.76,20.76,0,0,0,806.5,66.37Z"/><path d="M859.16,153.37V34a11,11,0,0,1,11.13-11.13h23.88a70.82,70.82,0,0,1,0,141.64H870.29A11.1,11.1,0,0,1,859.16,153.37ZM881.62,142h12.55a48.36,48.36,0,0,0,0-96.72H881.62Z"/><path d="M273.9,11.13V82.88A10.75,10.75,0,0,1,263,93.8a10.88,10.88,0,0,1-10.93-10.92V11.13A10.8,10.8,0,0,1,263,0C269.25,0,273.9,4.65,273.9,11.13Z"/><path d="M312.25,40.47a65.45,65.45,0,0,0-30-19l-.23-.07V46a46.06,46.06,0,0,1,13.88,10.24,52.39,52.39,0,0,1,13.76,35.41,51.48,51.48,0,0,1-13.76,35.2c-8.49,9.11-19.82,14.57-32,14.57a44.23,44.23,0,0,1-32.78-14.57c-8.5-8.7-13.76-21.44-13.76-35.2a51.46,51.46,0,0,1,13.76-35.41,45.87,45.87,0,0,1,12.15-9.35l.71-.35V21.82l-.54.16a67.52,67.52,0,0,0-29.12,18.49,74,74,0,0,0-20,51.19,73.62,73.62,0,0,0,20,51.19A68.32,68.32,0,0,0,263.9,164.5a66.26,66.26,0,0,0,48.35-21.65,74.32,74.32,0,0,0,0-102.38Z"/></svg>