<svg id="Layer_1" data-name="Layer 1" xmlns="http://www.w3.org/2000/svg" viewBox="0 0 160.8 161.4"><defs><style>.cls-1{fill:#0f2d52;}.cls-2,.cls-3{fill:#fff;}.cls-2{stroke:#fff;stroke-miterlimit:10;}</style></defs><polygon class="cls-1" points="120.1 111.4 120.1 111.33 124.1 111.33 120.1 111.4"/><path class="cls-1" d="M80.4,161.4a79.56,79.56,0,0,1-31.3-6.3,81,81,0,0,1-25.6-17.3A78.43,78.43,0,0,1,6.3,112.1a81.4,81.4,0,0,1,0-62.8A84,84,0,0,1,23.5,23.6,81,81,0,0,1,49.1,6.3a80.9,80.9,0,0,1,62.6,0,81,81,0,0,1,25.6,17.3,78.43,78.43,0,0,1,17.2,25.7,81.4,81.4,0,0,1,0,62.8,84,84,0,0,1-17.2,25.7,79.91,79.91,0,0,1-56.9,23.6"/><path class="cls-1" d="M80.4,159.4a77.79,77.79,0,0,1-30.52-6.14,79.18,79.18,0,0,1-25-16.87,76.78,76.78,0,0,1-16.76-25,79.41,79.41,0,0,1,0-61.26A82.28,82.28,0,0,1,24.93,25a78.94,78.94,0,0,1,25-16.86,78.9,78.9,0,0,1,61,0,79.18,79.18,0,0,1,25,16.87,76.78,76.78,0,0,1,16.76,25.05,79.41,79.41,0,0,1,0,61.26,82.45,82.45,0,0,1-16.79,25.09,78,78,0,0,1-55.47,23Z"/><path class="cls-2" d="M29.5,108.2a34.75,34.75,0,0,1-9.7-14.6,30.7,30.7,0,0,1-.4-17.5,40,40,0,0,1,7.8-15.2v-.1l.1-.2a60.85,60.85,0,0,1,9.5-8.8,77.72,77.72,0,0,1,10.9-7,87.54,87.54,0,0,1,11.8-5.1,63.21,63.21,0,0,1,6.2-1.8c1.5-.4,3-.7,4.6-1a22.73,22.73,0,0,1,1.8-8.5,18,18,0,0,1,3.4-5.2,15.07,15.07,0,0,1,2.3-2.1c.4-.3.9-.6,1.3-.9.2-.1.5-.3.7-.4a3,3,0,0,0,.8-.4l2.8-1.1.1,3c.1,2.8.1,5.6.2,8.4.2-.4.5-.8.7-1.2,1-1.7,2-3.5,2.9-5.2l1.1-2.2.9,2.1a18.69,18.69,0,0,1,1.3,8.7,14.28,14.28,0,0,1-.9,4.2A17.33,17.33,0,0,1,87.9,40a20.28,20.28,0,0,0,1.2-4,19.34,19.34,0,0,0,.3-4.1,19.13,19.13,0,0,0-1-5.4c-.5,1.1-.9,2.2-1.5,3.3-.5.9-.9,1.9-1.5,2.8-.3.5-.6.9-.9,1.4a6.16,6.16,0,0,1-1.4,1.4L80.9,37l-.3-2.8c-.3-3-.5-5.9-.8-8.9a9,9,0,0,0-.9,1,16.35,16.35,0,0,0-2.4,4,20.7,20.7,0,0,0-1.1,9.6L76.9,57,71,41.9l-4,.9a55.75,55.75,0,0,0-5.8,1.8A91.43,91.43,0,0,0,50,49.3a84.63,84.63,0,0,0-10.4,6.3,75.88,75.88,0,0,0-9.2,7.8,3.51,3.51,0,0,0-.5.8c-.2.4-.4.7-.6,1.1a24.43,24.43,0,0,0-1,2.4,23.57,23.57,0,0,0-1.2,5.1,29.7,29.7,0,0,0,.5,10.7,38.94,38.94,0,0,0,4.1,10.2,46.64,46.64,0,0,0,3,4.7c1.1,1.5,2.3,3,3.5,4.5-1.4-1.3-2.8-2.6-4.1-4s-2.5-2.9-3.7-4.4A38.94,38.94,0,0,1,25,84.2a30.94,30.94,0,0,1-1.5-11.8c.1-.8.2-1.5.3-2.3a46.94,46.94,0,0,0-1.4,6.5,34.88,34.88,0,0,0,1.3,15.8A38.74,38.74,0,0,0,31.8,106a72.47,72.47,0,0,0,12.5,10.8A40.24,40.24,0,0,1,29.5,108.2ZM46.1,81.5a21.34,21.34,0,0,0,2,4A30.51,30.51,0,0,0,51,89.1c1.1,1.2,2.3,2.4,3.5,3.7a42.3,42.3,0,0,1,3.3,4.1,28.79,28.79,0,0,1,4.2,9.5,53.39,53.39,0,0,0-6.4-7.7c-2.3-2.3-4.9-4.1-7.6-6.4a24.2,24.2,0,0,1-3.8-4,23.86,23.86,0,0,1-2.8-4.9,25.25,25.25,0,0,1-2.1-10.9,22.27,22.27,0,0,1,3.5-10.7,27.87,27.87,0,0,1,7.6-7.7,34,34,0,0,1,4.5-2.8,40.2,40.2,0,0,1,4.7-2.2,43,43,0,0,1,9.9-2.8,82.94,82.94,0,0,0-8.8,4.9c-1.4.9-2.8,1.8-4.1,2.8s-2.6,2-3.8,3.1a31.07,31.07,0,0,0-6,7.2,18.24,18.24,0,0,0-2.5,8.5A23,23,0,0,0,46.1,81.5Zm23.8,66.2q-.6-3.45-1.5-6.9c-.5-2-1.1-4.1-1.8-6.1s-1.4-3.9-2.2-5.9a64.6,64.6,0,0,0-13.3-20.6,59.25,59.25,0,0,0-4.5-4.1,23.21,23.21,0,0,1-2.5-2.1c-.8-.7-1.7-1.5-2.5-2.3a34.35,34.35,0,0,1-7.5-11.3A26.85,26.85,0,0,1,32.3,75a21.11,21.11,0,0,1,5.4-11.9,25.93,25.93,0,0,0-2.6,12.1,28.43,28.43,0,0,0,3,11.5,37,37,0,0,0,7,9.6,20.89,20.89,0,0,0,2.2,2c.8.6,1.5,1.3,2.4,2a42.41,42.41,0,0,1,4.9,4.6,58.11,58.11,0,0,1,13.1,22.8,48.49,48.49,0,0,1,1.6,6.3,47.24,47.24,0,0,1,1,6.4c.2,2.2.4,4.3.4,6.5v1C70.6,147.8,70.2,147.8,69.9,147.7Zm5.2-13.3c-1.1-3.7-1.9-7.3-3.1-10.6s-2.6-6.5-4-10c-.7-1.7-1.4-3.5-2-5.4-.1-.5-.3-.9-.4-1.4s-.2-1-.3-1.6a11.45,11.45,0,0,1-.1-3.2,13.83,13.83,0,0,1,5.7-10.3,20,20,0,0,0-1.7,10.3,15.54,15.54,0,0,0,.5,2.3c.1.4.3.8.4,1.1a6.12,6.12,0,0,0,.5,1.2c.7,1.6,1.4,3.3,2.1,5A40.8,40.8,0,0,1,76,122.9,31.69,31.69,0,0,1,75.1,134.4Zm5-34.9a14.19,14.19,0,0,1-4.6-2.3,16.27,16.27,0,0,1-3.3-3.7,18.35,18.35,0,0,1-2.6-9,50.61,50.61,0,0,0,5,7.2,13.57,13.57,0,0,0,6.5,4.2,17.94,17.94,0,0,0,8,.1,57.34,57.34,0,0,0,8.5-2.4,19.49,19.49,0,0,1-7.7,5.2A15.49,15.49,0,0,1,80.1,99.5ZM140,97.2a2.09,2.09,0,0,1-.4.6l-.3.5c-.2.3-.3.5-.5.8a3,3,0,0,0-.4.8,14,14,0,0,0-1.3,3.4,11.63,11.63,0,0,0-.4,1.8l-.2,1.1c0,.2-.1.4-.1.7a3.74,3.74,0,0,1-.4,1.1c-.1.2-.2.3-.3.5a1.4,1.4,0,0,1-.4.4,1.87,1.87,0,0,0-.4.3l-.5.3-1,.5a17.38,17.38,0,0,0-1.9,1,52.23,52.23,0,0,1-8.1,3.1,8.6,8.6,0,0,1-2.4.4,4.1,4.1,0,0,1-1.8-.2h-.1l-.2-.1h-.1l-.1-.1c-.1,0-.3-.2-.4-.2a3.17,3.17,0,0,1-.6-.5,8.7,8.7,0,0,1-1.5-2c-.4-.6-.7-1.3-1.1-1.9a16.18,16.18,0,0,0-1-1.8,4.23,4.23,0,0,0-.5-.7,1.87,1.87,0,0,0-.3-.4h0l-.5-.1-1-.2-2.1-.5c-2.7-.7-5.5-1.4-8.1-2.3-1.3-.5-2.6-1-3.9-1.6a11.81,11.81,0,0,1-3.5-2.3,11.93,11.93,0,0,0,3.8,1.7c1.3.4,2.7.7,4,1,2.7.5,5.4,1,8.2,1.3l2,.2,1,.1h.6a.37.37,0,0,1,.3.1.76.76,0,0,1,.5.2,4.22,4.22,0,0,1,1.2,1c.3.3.5.6.8.9l1.2,1.8a11.46,11.46,0,0,0,2.3,2.8.31.31,0,0,0,.2.1h0l.1.1h0c-.2-.1.1,0,.3-.1a9.36,9.36,0,0,0,1.6-.4,42.8,42.8,0,0,0,7.2-3.4,16.18,16.18,0,0,0,1.8-1l.8-.5v-.1l.1-1a22.31,22.31,0,0,1,.4-2.3,20.24,20.24,0,0,1,1.6-4.5,9.25,9.25,0,0,0,.5-1c.2-.3.4-.7.6-1l.2-.4c.1-.1.1-.2.2-.3s.1-.4.2-.5a.85.85,0,0,0,0-.7,2.51,2.51,0,0,0-.5-.8,9.21,9.21,0,0,0-2.6-1.9l-.4-.2-.3-.1-.2-.1-.1-.1h-.1l-.2-.1a3.61,3.61,0,0,1-.5-.4l-.2-.2-.4-.4L128.9,88l-3-2.9-6-5.8-3-2.9L114,73.5c-2-1.9-4.1-3.8-6-5.8s-4-4-5.8-6.1A37.47,37.47,0,0,1,99.5,58a13.39,13.39,0,0,1-.6-1.2c-.1-.2-.1-.2-.1-.3l-.1-.3-.1-.5c-.2-.6-.3-1.2-.6-1.9A20.1,20.1,0,0,0,87.2,42.4a19.93,19.93,0,0,1,13.2,10.4c.3.7.6,1.4.9,2l.2.5a3933732386813.91,3933732386813.91,0,0,0,.2.4,6.13,6.13,0,0,0,.4.6,34,34,0,0,0,2.6,2.9c1.9,1.9,4,3.7,6.1,5.5l6.4,5.4,6.2,5.7,6.1,5.7,3,2.9,1.5,1.4.4.3.1.1.1.1.5.3a12.7,12.7,0,0,1,4.1,3.1,7.49,7.49,0,0,1,1.5,2.8,6.53,6.53,0,0,1,0,3.4A5.39,5.39,0,0,0,140,97.2Z"/><path class="cls-2" d="M73.88,123.12c-.73-2.27-1.64-4.4-2.6-6.66-.47-1.1-1-2.23-1.42-3.4-.58-1.4-1.3-3.22-1.92-5.17-.07-.29-.15-.56-.24-.82a3.5,3.5,0,0,1-.14-.46c-.09-.48-.19-1-.29-1.54a9.82,9.82,0,0,1-.08-2.69s0,0,0-.08,0,.09,0,.14a17.09,17.09,0,0,0,.57,2.61,7.23,7.23,0,0,0,.32.93c0,.08.06.14.09.21a7.53,7.53,0,0,0,.6,1.46c.68,1.55,1.36,3.2,2,4.85l0,.11A38.39,38.39,0,0,1,74,123.15c0,.16,0,.32,0,.47Zm-10.4-1a63.35,63.35,0,0,0-10.95-15.3,60.74,60.74,0,0,0-4.67-4.25,21.84,21.84,0,0,1-2.34-2l-.1-.1c-.77-.66-1.65-1.45-2.41-2.2A32.49,32.49,0,0,1,36,87.65a28.09,28.09,0,0,1-1.11-3.48,27.83,27.83,0,0,0,1.48,3.44,38.84,38.84,0,0,0,7.37,10.1A21.3,21.3,0,0,0,46.1,99.9c.38.28.73.59,1.09.91s.82.71,1.28,1.07a41.51,41.51,0,0,1,4.63,4.34A54.43,54.43,0,0,1,63.48,122.1ZM125,111.52a54.27,54.27,0,0,0,5.46-2.75,18.41,18.41,0,0,0,2-1.11l1.69-1V105.5l.09-.9,0-.2a16,16,0,0,1,.32-1.81A18.2,18.2,0,0,1,136,98.44a3,3,0,0,0,.15-.27,6,6,0,0,0,.33-.67c.09-.13.17-.27.25-.41s.15-.27.22-.38l.07-.1.17-.35a.41.41,0,0,0,.07-.11l.07-.06.15-.29.12-.28,0,0,.15-.44a2.88,2.88,0,0,0-.11-2.24,4.33,4.33,0,0,0-.82-1.25,11,11,0,0,0-3.11-2.31l-.59-.29-.14,0-.4-.4h-.31l-.51-.51-1.54-1.45L118.29,75l-2.88-2.87-1.53-1.45c-1.49-1.4-3-2.85-4.43-4.32-.34-.33-.67-.67-1-1l1.06.91,6.41,5.41,6.14,5.64L128.14,83l3,2.88,1.6,1.5.38.28.27.27.78.47.07,0A10.81,10.81,0,0,1,137.69,91a5.58,5.58,0,0,1,1.08,2,4.53,4.53,0,0,1,.07,2,7.61,7.61,0,0,0-.67,1.31l0,.06-.17.17-.08.16-.3.5c-.07.1-.16.25-.25.4l-.2.32a4.82,4.82,0,0,0-.57,1.1,15.71,15.71,0,0,0-1.39,3.65,13.85,13.85,0,0,0-.45,2L134.5,106v0a4.39,4.39,0,0,0-.08.5s0,.08,0,.13a.65.65,0,0,1-.09.27l0,.06,0,.07a1.91,1.91,0,0,1-.14.21,4.43,4.43,0,0,0-.37.28l-.26.15-.93.47-.44.21a14.6,14.6,0,0,0-1.54.82A58.72,58.72,0,0,1,125,111.52ZM23.13,96.5A30.67,30.67,0,0,1,21.7,93a25.82,25.82,0,0,1-1-4.12A31.13,31.13,0,0,0,21.81,93,34,34,0,0,0,23.13,96.5Zm28.55-3.77c-.78-.62-1.58-1.26-2.38-2a22.35,22.35,0,0,1-3.49-3.66,21.8,21.8,0,0,1-2.56-4.48,23.17,23.17,0,0,1-2-10,20.08,20.08,0,0,1,3.18-9.73,25.35,25.35,0,0,1,6.14-6.47,31.61,31.61,0,0,0-5.55,6.89,20.28,20.28,0,0,0-2.77,9.43,25,25,0,0,0,2,9.53,23,23,0,0,0,2.19,4.35,31.26,31.26,0,0,0,3.09,3.84c.56.62,1.16,1.24,1.77,1.88ZM23.79,69.94a37.87,37.87,0,0,1,5-7.77l.45-.56v-.15A59.52,59.52,0,0,1,38,53.39a74.41,74.41,0,0,1,10.61-6.82,85.71,85.71,0,0,1,11.53-5,60.1,60.1,0,0,1,6-1.74c1.44-.39,2.84-.67,4.51-1l1.57-.3L72.3,37a20.39,20.39,0,0,1,1.63-7.76,15.92,15.92,0,0,1,3-4.65,14.16,14.16,0,0,1,2-1.86c.17-.13.37-.26.56-.39l.61-.42.45-.26h0l-2.26,2.27a11.86,11.86,0,0,0-1.06,1.17,18.51,18.51,0,0,0-2.67,4.45,22.46,22.46,0,0,0-1.25,10.57l.28,3.21-1.46-3.73L70.55,40l-2,.45-2,.45a61.32,61.32,0,0,0-6,1.87,94.15,94.15,0,0,0-11.4,4.79A89.1,89.1,0,0,0,38.42,54,80,80,0,0,0,29,62a5,5,0,0,0-.9,1.34c-.08.17-.17.32-.25.46s-.23.41-.35.65A23.87,23.87,0,0,0,26.43,67a27.61,27.61,0,0,0-.94,3.29ZM82.52,33.26c-.11-1.13-.21-2.25-.3-3.38l2.16.47a11,11,0,0,1-.64,1.14l-.45.7c-.15.22-.29.43-.43.66Zm-1.11-12,.09-.06s0,1,0,1.39Z"/><path class="cls-3" d="M80.4,5C38.8,5,4.9,39,4.9,80.7s33.9,75.7,75.5,75.7,75.5-34,75.5-75.7A75.54,75.54,0,0,0,80.4,5m0,156.4a79.56,79.56,0,0,1-31.3-6.3,81,81,0,0,1-25.6-17.3A78.43,78.43,0,0,1,6.3,112.1a81.4,81.4,0,0,1,0-62.8A84,84,0,0,1,23.5,23.6,81,81,0,0,1,49.1,6.3a80.9,80.9,0,0,1,62.6,0,81,81,0,0,1,25.6,17.3,78.43,78.43,0,0,1,17.2,25.7,81.4,81.4,0,0,1,0,62.8,84,84,0,0,1-17.2,25.7,79.91,79.91,0,0,1-56.9,23.6"/></svg>