<?xml version="1.0" standalone="no"?>
<!DOCTYPE svg PUBLIC "-//W3C//DTD SVG 20010904//EN"
 "http://www.w3.org/TR/2001/REC-SVG-20010904/DTD/svg10.dtd">
<svg version="1.0" xmlns="http://www.w3.org/2000/svg"
 width="700.000000pt" height="700.000000pt" viewBox="0 0 700.000000 700.000000"
 preserveAspectRatio="xMidYMid meet">
<metadata>
Created by potrace 1.14, written by Peter Selinger 2001-2017
</metadata>
<g transform="translate(0.000000,700.000000) scale(0.100000,-0.100000)"
fill="#000000" stroke="none">
<path d="M3230 6773 c-454 -35 -948 -189 -1355 -421 -803 -459 -1392 -1256
-1585 -2147 -238 -1103 94 -2231 891 -3025 516 -515 1160 -832 1899 -937 178
-25 662 -25 840 0 1127 159 2058 835 2544 1847 218 455 319 899 319 1410 0
231 -9 347 -44 555 -242 1443 -1433 2555 -2901 2710 -134 14 -476 18 -608 8z
m429 -818 c2 -189 -5 -191 113 33 l77 146 31 -68 c71 -158 96 -287 86 -434
-10 -147 -94 -378 -134 -370 -21 4 -20 23 9 113 18 58 22 94 22 210 0 77 -4
153 -9 168 -9 27 -12 24 -62 -75 -69 -136 -112 -191 -205 -262 -43 -32 -80
-57 -82 -55 -2 2 -13 110 -25 239 -12 129 -22 239 -24 244 -4 16 -84 -112
-105 -168 -30 -81 -51 -197 -51 -284 0 -43 18 -282 40 -532 22 -249 39 -454
37 -456 -2 -2 -52 121 -112 274 -59 152 -114 292 -122 310 l-13 32 -123 -61
c-482 -240 -818 -515 -966 -791 -120 -221 -115 -484 13 -752 53 -113 114 -194
268 -356 65 -70 146 -162 179 -206 102 -135 205 -368 235 -530 6 -36 2 -33
-61 56 -144 202 -279 343 -495 517 -202 163 -289 261 -368 419 -89 175 -127
349 -119 534 11 235 91 424 266 628 205 238 672 475 1046 532 39 6 82 13 96
16 l27 5 -25 63 -25 63 -87 -19 c-259 -57 -657 -211 -913 -354 -331 -185 -693
-467 -767 -597 -71 -125 -121 -340 -121 -517 0 -325 143 -678 412 -1022 71
-90 75 -98 59 -112 -16 -14 -26 -7 -127 97 -203 205 -292 328 -394 539 -66
136 -104 258 -124 391 -8 48 -16 90 -19 93 -10 11 -20 -192 -13 -290 24 -370
174 -692 462 -995 147 -155 331 -309 527 -440 42 -28 77 -53 77 -56 0 -7 -222
71 -300 105 -268 117 -546 338 -703 557 -108 151 -195 338 -238 513 -21 85
-24 117 -23 305 0 205 1 213 32 329 110 405 333 738 682 1017 434 346 901 573
1415 689 l119 27 13 85 c33 233 111 396 255 534 84 81 141 119 251 163 l92 38
6 -61 c4 -34 7 -133 8 -221z m240 -803 c164 -59 334 -188 429 -329 23 -35 63
-106 88 -160 42 -91 53 -105 172 -223 70 -70 215 -200 322 -290 194 -163 532
-470 807 -731 86 -82 170 -152 209 -175 88 -51 165 -128 199 -199 23 -47 28
-70 28 -129 0 -69 -2 -74 -65 -183 -67 -116 -99 -200 -119 -318 -22 -128 -41
-151 -186 -224 -175 -87 -392 -165 -491 -177 -122 -13 -182 26 -269 175 -106
181 -75 157 -271 207 -303 77 -474 138 -587 209 -64 41 -81 61 -66 78 9 11 21
9 68 -14 99 -49 319 -99 582 -134 63 -8 134 -15 158 -15 83 0 137 -39 216
-155 73 -108 106 -145 133 -145 41 0 201 67 341 142 l131 71 7 56 c12 98 54
223 111 329 43 82 52 106 44 121 -14 28 -82 78 -136 102 -52 24 -51 23 -733
684 -618 598 -703 696 -756 872 -67 221 -208 397 -402 505 -40 22 -73 41 -73
43 0 12 14 35 20 35 5 0 45 -13 89 -28z m-2223 -869 c-169 -339 -167 -695 8
-1040 101 -201 228 -354 439 -530 83 -70 186 -163 230 -207 308 -314 538 -726
652 -1171 57 -224 95 -508 95 -717 0 -76 -1 -80 -17 -66 -10 9 -27 18 -38 20
-15 2 -22 15 -28 48 -5 25 -29 127 -53 227 -97 397 -250 763 -438 1047 -157
236 -308 405 -521 581 -153 126 -294 269 -368 373 -120 167 -207 368 -243 557
-24 132 -15 367 19 486 30 107 83 217 140 295 41 56 155 184 163 184 2 0 -16
-39 -40 -87z m1516 -1154 c78 -103 128 -153 201 -200 96 -62 179 -84 322 -83
136 0 269 28 490 103 l120 41 -75 -76 c-277 -281 -654 -351 -935 -173 -70 44
-151 127 -192 198 l-26 43 -18 -45 c-51 -129 -62 -350 -24 -462 10 -27 55
-138 100 -245 158 -371 204 -589 176 -834 -12 -108 -50 -286 -61 -286 -4 0
-33 93 -64 208 -65 234 -100 332 -244 687 -122 303 -145 385 -145 515 1 177
57 314 178 438 l74 75 -25 86 c-17 57 -27 122 -31 191 l-5 105 63 -105 c35
-58 90 -139 121 -181z"/>
</g>
</svg>
