<?xml version="1.0" encoding="utf-8"?>
<!-- Generator: Adobe Illustrator 25.2.3, SVG Export Plug-In . SVG Version: 6.00 Build 0)  -->
<svg version="1.1" id="Capa_1" xmlns="http://www.w3.org/2000/svg" xmlns:xlink="http://www.w3.org/1999/xlink" x="0px" y="0px"
	 width="30.9px" height="31px" viewBox="0 0 30.9 31" style="enable-background:new 0 0 30.9 31;" xml:space="preserve">
<style type="text/css">
	.st0{fill:#FFFFFF;}
</style>
<path class="st0" d="M20.4,19.6L20.4,19.6L20.4,19.6z"/>
<path class="st0" d="M20.4,19.6L20.4,19.6L20.4,19.6z"/>
<path class="st0" d="M15.4,0.9c-8,0-14.5,6.6-14.5,14.6s6.5,14.6,14.5,14.6s14.5-6.5,14.5-14.6C29.9,7.5,23.4,0.9,15.4,0.9 M15.4,31
	c-2.1,0-4.1-0.4-6-1.2c-1.8-0.8-3.5-1.9-4.9-3.3S2,23.4,1.2,21.6c-0.8-1.9-1.2-3.9-1.2-6s0.4-4.1,1.2-6C1.9,7.6,3,6,4.5,4.5
	c1.4-1.4,3-2.5,4.9-3.3s3.9-1.2,6-1.2s4.1,0.4,6,1.2s3.5,1.9,5,3.3c1.4,1.4,2.5,3.1,3.3,4.9c0.8,1.9,1.2,3.9,1.2,6s-0.4,4.1-1.2,6
	c-0.8,1.8-1.9,3.5-3.3,4.9s-3.1,2.5-4.9,3.3C19.5,30.6,17.5,31,15.4,31"/>
<path class="st0" d="M20.4,19.6L20.4,19.6L20.4,19.6z"/>
<path class="st0" d="M15.4,2.4c-7.2,0-13,5.8-13,13.1s5.8,13.1,13,13.1s13-5.8,13-13.1S22.6,2.4,15.4,2.4 M5.6,20.8
	C4.8,20,4.1,19.1,3.8,18c-0.4-1.1-0.4-2.3-0.1-3.4s0.8-2.1,1.5-2.9l0,0l0,0C5.8,11,6.4,10.5,7,10c0.7-0.5,1.4-1,2.1-1.3
	c0.7-0.4,1.5-0.7,2.3-1c0.4-0.1,0.8-0.2,1.2-0.4c0.3-0.1,0.6-0.1,0.9-0.2c0-0.5,0.1-1.1,0.3-1.6c0.2-0.4,0.4-0.7,0.7-1
	c0.1-0.1,0.3-0.3,0.4-0.4C15,4,15.1,4,15.2,3.9l0.1-0.1c0.1,0,0.1,0,0.2-0.1L16,3.5v0.6c0,0.5,0,1.1,0,1.6c0-0.1,0.1-0.1,0.1-0.2
	c0.2-0.3,0.4-0.7,0.5-1l0.2-0.4L17,4.5c0.3,0.5,0.4,1.1,0.4,1.6c0,0.3-0.1,0.6-0.2,0.8c-0.1,0.3-0.2,0.5-0.3,0.7
	c0.1-0.2,0.2-0.5,0.2-0.8s0.1-0.5,0.1-0.8c0-0.4-0.1-0.7-0.2-1c-0.1,0.2-0.2,0.4-0.3,0.6c-0.1,0.2-0.2,0.4-0.3,0.5
	c-0.1,0.1-0.1,0.2-0.2,0.3s-0.1,0.2-0.3,0.3L15.5,7l-0.1-0.4c0-0.6-0.1-1.2-0.1-1.7c-0.1,0-0.1,0.1-0.2,0.1
	c-0.2,0.2-0.4,0.5-0.5,0.8c-0.2,0.6-0.2,1.2-0.1,1.9l0.3,3.3l-1.2-3c-0.3,0.1-0.5,0.1-0.8,0.2c-0.4,0.1-0.7,0.2-1.1,0.3
	C11,8.7,10.2,9,9.5,9.4c-0.7,0.4-1.4,0.8-2,1.2c-0.6,0.4-1.2,1-1.8,1.5c0,0-0.1,0.1-0.1,0.2c0,0.1-0.1,0.1-0.1,0.2
	c0,0.2,0,0.4-0.1,0.5c-0.1,0.3-0.2,0.7-0.2,1c-0.1,0.7-0.1,1.4,0.1,2.1s0.4,1.3,0.8,2c0.2,0.3,0.4,0.6,0.6,0.9s0.4,0.6,0.7,0.9
	c-0.3-0.2-0.5-0.5-0.8-0.8c-0.2-0.3-0.5-0.6-0.7-0.9c-0.4-0.6-0.8-1.3-1-2s-0.3-1.5-0.3-2.3c0-0.1,0-0.3,0.1-0.4
	c-0.1,0.4-0.2,0.8-0.3,1.2c-0.2,1-0.1,2.1,0.2,3c0.3,1,0.9,1.8,1.6,2.6c0.7,0.8,1.5,1.5,2.4,2.1C7.4,22.1,6.4,21.5,5.6,20.8
	 M8.8,15.6c0.1,0.3,0.2,0.5,0.4,0.8c0.2,0.2,0.3,0.5,0.6,0.7c0.2,0.2,0.4,0.5,0.7,0.7c0.2,0.2,0.4,0.5,0.6,0.8
	c0.4,0.6,0.7,1.2,0.8,1.8c-0.4-0.5-0.8-1-1.2-1.5c-0.4-0.4-0.9-0.8-1.5-1.2c-0.3-0.2-0.5-0.5-0.7-0.8C8.3,16.6,8.1,16.3,8,16
	c-0.3-0.6-0.4-1.4-0.4-2.1c0-0.7,0.3-1.5,0.7-2c0.4-0.6,0.9-1.1,1.5-1.5c0.3-0.2,0.6-0.4,0.9-0.5c0.3-0.2,0.6-0.3,0.9-0.4
	c0.6-0.2,1.3-0.4,1.9-0.5c-0.6,0.3-1.2,0.6-1.7,0.9c-0.3,0.2-0.5,0.3-0.8,0.5c-0.3,0.2-0.5,0.4-0.7,0.6c-0.5,0.4-0.9,0.9-1.1,1.4
	c-0.3,0.5-0.5,1.1-0.5,1.6C8.5,14.5,8.6,15.1,8.8,15.6 M13.4,28.4c-0.1-0.4-0.2-0.9-0.3-1.3s-0.2-0.8-0.3-1.2
	c-0.1-0.4-0.3-0.8-0.4-1.1c-0.6-1.5-1.5-2.8-2.6-4c-0.3-0.3-0.6-0.5-0.9-0.8c-0.1-0.1-0.3-0.3-0.5-0.4c-0.2-0.1-0.3-0.3-0.5-0.4
	c-0.6-0.6-1.1-1.4-1.4-2.2c-0.3-0.8-0.5-1.7-0.3-2.6c0.1-0.9,0.5-1.7,1-2.3c-0.4,0.7-0.5,1.5-0.5,2.3c0,0.8,0.2,1.5,0.6,2.2
	c0.3,0.7,0.8,1.3,1.4,1.8c0.1,0.1,0.3,0.3,0.4,0.4c0.1,0.1,0.3,0.2,0.5,0.4c0.3,0.3,0.6,0.6,0.9,0.9c1.2,1.2,2,2.8,2.5,4.4
	c0.1,0.4,0.2,0.8,0.3,1.2c0.1,0.4,0.2,0.8,0.2,1.2c0,0.4,0.1,0.8,0.1,1.2c0,0.1,0,0.1,0,0.2C13.5,28.4,13.4,28.4,13.4,28.4
	 M14.4,25.8c-0.2-0.7-0.4-1.4-0.6-2c-0.2-0.7-0.5-1.3-0.8-1.9c-0.1-0.3-0.3-0.7-0.4-1c0-0.1-0.1-0.2-0.1-0.3c0-0.1,0-0.2-0.1-0.3
	c0-0.2,0-0.4,0-0.6c0.1-0.8,0.5-1.6,1.1-2c-0.3,0.7-0.4,1.4-0.3,2c0,0.2,0.1,0.3,0.1,0.5c0,0.1,0,0.1,0.1,0.2c0,0.1,0.1,0.2,0.1,0.2
	c0.1,0.3,0.3,0.6,0.4,1c0.3,0.7,0.5,1.4,0.6,2.1C14.6,24.4,14.6,25.1,14.4,25.8 M15.3,19.1c-0.3-0.1-0.6-0.2-0.9-0.4
	c-0.3-0.2-0.5-0.5-0.6-0.7c-0.3-0.5-0.5-1.1-0.5-1.7c0.3,0.5,0.6,1,1,1.4s0.8,0.7,1.3,0.8c0.5,0.1,1,0.1,1.5,0s1.1-0.3,1.6-0.5
	c-0.4,0.4-0.9,0.8-1.5,1C16.7,19.2,16,19.3,15.3,19.1 M26.9,18.7c0,0,0,0.1-0.1,0.1l-0.1,0.1c0,0.1-0.1,0.1-0.1,0.2
	s-0.1,0.1-0.1,0.2c-0.1,0.2-0.2,0.4-0.3,0.6c0,0.1-0.1,0.2-0.1,0.4v0.2v0.1c0,0.1,0,0.1-0.1,0.2c0,0,0,0.1-0.1,0.1L25.8,21
	c-0.1,0-0.1,0-0.1,0.1l0.1-0.1l-0.2,0.1c-0.1,0.1-0.2,0.1-0.4,0.2c-0.5,0.2-1,0.4-1.6,0.6c-0.1,0-0.3,0.1-0.5,0.1
	c-0.1,0-0.2,0-0.3,0l0,0l0,0l0,0l0,0h-0.1l-0.1-0.1c-0.1-0.1-0.2-0.3-0.3-0.4c-0.1-0.1-0.1-0.2-0.2-0.4C22,21,22,20.9,21.9,20.8
	c0-0.1-0.1-0.1-0.1-0.1l-0.1-0.1l0,0l0,0l0,0h-0.1h-0.2L21,20.5c-0.5-0.1-1-0.3-1.6-0.4c-0.3-0.1-0.5-0.2-0.8-0.3
	c-0.2-0.1-0.5-0.3-0.7-0.4c0.2,0.2,0.5,0.2,0.7,0.3c0.3,0.1,0.5,0.1,0.8,0.2c0.5,0.1,1,0.2,1.6,0.3h0.4h0.2h0.1l0,0c0,0,0,0,0.1,0
	h0.1c0.1,0.1,0.2,0.1,0.2,0.2c0.1,0.1,0.1,0.1,0.1,0.2c0.1,0.1,0.2,0.2,0.2,0.3c0.1,0.2,0.3,0.4,0.4,0.5l0,0l0,0l0,0l0,0l0,0
	c0,0,0,0,0.1,0s0.2,0,0.3-0.1c0.5-0.2,0.9-0.4,1.4-0.6c0.1-0.1,0.2-0.1,0.3-0.2l0.2-0.1l0,0v-0.2c0-0.1,0-0.3,0.1-0.4
	c0.1-0.3,0.2-0.6,0.3-0.9c0-0.1,0.1-0.1,0.1-0.2s0.1-0.1,0.1-0.2v-0.1c0,0,0,0,0-0.1v-0.1c0-0.1,0-0.1,0-0.1s0-0.1-0.1-0.2
	s-0.3-0.3-0.5-0.4H25l0,0l0,0l0,0l0,0l0,0c-0.1-0.1-0.1-0.1-0.1-0.1l0,0l-0.1-0.1L24.5,17l-0.6-0.6l-1.1-1.1l-0.4-0.6l-0.6-0.6
	c-0.4-0.4-0.8-0.7-1.2-1.1c-0.4-0.4-0.8-0.8-1.1-1.2c-0.2-0.2-0.4-0.4-0.5-0.7c0-0.1-0.1-0.1-0.1-0.2c0,0,0,0,0-0.1v-0.1v-0.1
	c0-0.1-0.1-0.2-0.1-0.4c-0.3-0.9-1.1-1.7-2.1-2.2c1,0.2,2,1,2.5,2c0.1,0.1,0.1,0.3,0.2,0.4v0.1l0,0l0,0c0,0,0,0.1,0.1,0.1
	c0.1,0.2,0.3,0.4,0.5,0.6c0.4,0.4,0.8,0.7,1.2,1.1l1.2,1l1.2,1.1l1.2,1.1l0.6,0.5l0.3,0.3l0.1,0.1l0,0l0,0h0.1
	c0.3,0.1,0.5,0.3,0.8,0.6c0.1,0.1,0.2,0.3,0.3,0.5c0.1,0.2,0.1,0.5,0,0.6C26.9,18.5,26.9,18.6,26.9,18.7"/>
</svg>
