<?xml version="1.0" encoding="utf-8"?>
<!-- Generator: Adobe Illustrator 25.2.1, SVG Export Plug-In . SVG Version: 6.00 Build 0)  -->
<svg version="1.1" id="Capa_1" xmlns="http://www.w3.org/2000/svg" xmlns:xlink="http://www.w3.org/1999/xlink" x="0px" y="0px"
	 width="140px" height="35px" viewBox="0 0 140 35" style="enable-background:new 0 0 140 35;" xml:space="preserve">
<style type="text/css">
	.st0{fill:#FFFFFF;}
</style>
<g>
	<path class="st0" d="M21,21.6C21,21.6,21,21.6,21,21.6L21,21.6z"/>
	<path class="st0" d="M21,21.6L21,21.6L21,21.6z"/>
	<path class="st0" d="M16,2.9C8,2.9,1.5,9.5,1.5,17.5c0,8,6.5,14.6,14.5,14.6c8,0,14.5-6.5,14.5-14.6C30.5,9.5,24,2.9,16,2.9 M16,33
		c-2.1,0-4.1-0.4-6-1.2c-1.8-0.8-3.5-1.9-4.9-3.3c-1.4-1.4-2.5-3.1-3.3-4.9c-0.8-1.9-1.2-3.9-1.2-6s0.4-4.1,1.2-6
		C2.5,9.6,3.6,8,5.1,6.5C6.5,5.1,8.1,4,10,3.2C11.9,2.4,13.9,2,16,2c2.1,0,4.1,0.4,6,1.2C23.9,4,25.5,5.1,27,6.5
		c1.4,1.4,2.5,3.1,3.3,4.9c0.8,1.9,1.2,3.9,1.2,6s-0.4,4.1-1.2,6c-0.8,1.8-1.9,3.5-3.3,4.9c-1.4,1.4-3.1,2.5-4.9,3.3
		C20.1,32.6,18.1,33,16,33"/>
	<path class="st0" d="M35.1,30.1v-3.4c0-0.2,0.1-0.3,0.3-0.3h0h0h1.9c0.2,0,0.3,0.1,0.3,0.3c0,0.2-0.1,0.3-0.3,0.3h-1.5v1h1.3
		c0.2,0,0.3,0.1,0.3,0.3c0,0.2-0.1,0.3-0.3,0.3h-1.3v1.4c0,0.2-0.1,0.3-0.3,0.3C35.3,30.4,35.1,30.2,35.1,30.1"/>
	<path class="st0" d="M41.3,28.3c0-0.4-0.2-0.8-0.4-1c-0.2-0.3-0.6-0.4-0.9-0.4c-0.4,0-0.7,0.1-0.9,0.4c-0.2,0.3-0.4,0.6-0.4,1
		c0,0.4,0.1,0.8,0.4,1c0.2,0.3,0.6,0.4,0.9,0.4c0.3,0,0.7-0.2,0.9-0.4C41.1,29.1,41.3,28.7,41.3,28.3 M41.4,26.9
		c0.4,0.4,0.6,0.9,0.6,1.5c0,0.6-0.2,1.1-0.6,1.5c-0.3,0.4-0.8,0.6-1.4,0.6c-0.5,0-1.1-0.2-1.4-0.6c-0.4-0.4-0.6-0.9-0.6-1.5
		c0-0.6,0.2-1.1,0.6-1.5c0.3-0.4,0.9-0.6,1.4-0.6C40.5,26.2,41,26.5,41.4,26.9"/>
	<path class="st0" d="M44.5,27.6c0-0.3-0.3-0.6-0.6-0.6h-0.7v1.2h0.7C44.2,28.2,44.5,27.9,44.5,27.6 M45.3,29.9
		c0.1,0.2,0,0.3-0.2,0.4c0,0-0.1,0-0.1,0h0c-0.1,0-0.1,0-0.2-0.1c-0.1,0-0.1-0.1-0.2-0.2c-0.1-0.2-0.1-0.4-0.1-0.7
		c0-0.1,0-0.2-0.1-0.2c0-0.1-0.1-0.1-0.2-0.2c-0.1-0.1-0.3-0.1-0.3-0.1h-0.7v1.2c0,0.2-0.1,0.3-0.3,0.3c-0.2,0-0.3-0.1-0.3-0.3v-3.4
		c0-0.2,0.1-0.3,0.3-0.3h0h1c0.7,0,1.2,0.6,1.2,1.2c0,0.4-0.2,0.7-0.4,0.9c0.1,0.1,0.1,0.1,0.2,0.2c0.1,0.2,0.2,0.4,0.2,0.6
		c0,0.2,0,0.3,0,0.3C45.2,29.7,45.2,29.8,45.3,29.9"/>
	<path class="st0" d="M47.3,30.1v-3.4c0-0.2,0.1-0.3,0.3-0.3h0h0h1.9c0.2,0,0.3,0.1,0.3,0.3c0,0.2-0.1,0.3-0.3,0.3H48v1h1.3
		c0.2,0,0.3,0.1,0.3,0.3c0,0.2-0.1,0.3-0.3,0.3H48v1.1h1.5c0.2,0,0.3,0.1,0.3,0.3c0,0.2-0.1,0.3-0.3,0.3h-1.9c0,0,0,0,0,0l0,0
		C47.5,30.4,47.3,30.2,47.3,30.1"/>
	<path class="st0" d="M52.2,28.8l-0.5-1.2l-0.5,1.2H52.2z M52.5,29.4h-1.4l-0.3,0.7c-0.1,0.1-0.2,0.2-0.3,0.2c0,0-0.1,0-0.1,0
		c-0.2-0.1-0.2-0.2-0.2-0.4l1.3-3.4c0.1-0.1,0.2-0.2,0.3-0.2c0.1,0,0.3,0.1,0.3,0.2l1.3,3.4c0.1,0.2,0,0.3-0.2,0.4c0,0-0.1,0-0.1,0
		c-0.1,0-0.2-0.1-0.3-0.2L52.5,29.4z"/>
	<path class="st0" d="M55.7,27.6c0-0.3-0.3-0.6-0.6-0.6h-0.7v1.2h0.7C55.4,28.2,55.7,27.9,55.7,27.6 M56.5,29.9
		c0.1,0.2,0,0.3-0.2,0.4c0,0-0.1,0-0.1,0h0c-0.1,0-0.1,0-0.2-0.1c-0.1,0-0.1-0.1-0.2-0.2c-0.1-0.2-0.1-0.4-0.1-0.7
		c0-0.1,0-0.2-0.1-0.2c0-0.1-0.1-0.1-0.2-0.2c-0.1-0.1-0.3-0.1-0.3-0.1h-0.7v1.2c0,0.2-0.1,0.3-0.3,0.3c-0.2,0-0.3-0.1-0.3-0.3v-3.4
		c0-0.2,0.1-0.3,0.3-0.3h0h1c0.7,0,1.2,0.6,1.2,1.2c0,0.4-0.2,0.7-0.4,0.9c0.1,0.1,0.1,0.1,0.2,0.2c0.1,0.2,0.2,0.4,0.2,0.6
		c0,0.2,0,0.3,0,0.3C56.4,29.7,56.5,29.8,56.5,29.9"/>
	<path class="st0" d="M57.1,30.1v-3.4c0-0.2,0.1-0.3,0.3-0.3c0.2,0,0.3,0.1,0.3,0.3v3.1h1.5c0.2,0,0.3,0.1,0.3,0.3
		c0,0.2-0.1,0.3-0.3,0.3h-1.9h0h0C57.3,30.4,57.1,30.2,57.1,30.1"/>
	<path class="st0" d="M62.1,26.9l-1.2,1.6v1.5c0,0.2-0.1,0.3-0.3,0.3c-0.2,0-0.3-0.1-0.3-0.3v-1.5l-1.2-1.6
		c-0.1-0.1-0.1-0.3,0.1-0.4c0.1-0.1,0.3-0.1,0.4,0.1l1,1.3l1-1.3c0.1-0.1,0.3-0.2,0.4-0.1C62.2,26.6,62.2,26.8,62.1,26.9"/>
	<path class="st0" d="M63.7,28.3c0-1.1,1-2.1,2.1-2.1c0.5,0,1,0.2,1.3,0.4c0.1,0.1,0.2,0.3,0.1,0.5c-0.1,0.1-0.3,0.2-0.5,0.1
		c-0.3-0.2-0.6-0.3-0.9-0.3c-0.4,0-0.8,0.2-1,0.4c-0.3,0.3-0.4,0.6-0.4,1c0,0.4,0.2,0.7,0.4,1c0.3,0.3,0.6,0.4,1,0.4
		c0.4,0,0.7-0.1,0.9-0.3c0.1-0.1,0.3-0.1,0.5,0.1c0.1,0.1,0.1,0.3-0.1,0.5c-0.4,0.3-0.8,0.4-1.3,0.4C64.7,30.4,63.8,29.4,63.7,28.3"
		/>
	<path class="st0" d="M68,30.1v-3.4c0-0.2,0.1-0.3,0.3-0.3c0.2,0,0.3,0.1,0.3,0.3V28h1.5v-1.4c0-0.2,0.1-0.3,0.3-0.3
		c0.2,0,0.3,0.1,0.3,0.3v3.4c0,0.2-0.1,0.3-0.3,0.3c-0.2,0-0.3-0.1-0.3-0.3v-1.4h-1.5v1.4c0,0.2-0.1,0.3-0.3,0.3
		C68.2,30.4,68,30.2,68,30.1"/>
	<path class="st0" d="M71.6,26.7c0-0.2,0.1-0.3,0.3-0.3c0.2,0,0.3,0.1,0.3,0.3v3.4c0,0.2-0.1,0.3-0.3,0.3c-0.2,0-0.3-0.1-0.3-0.3
		V26.7z"/>
	<path class="st0" d="M73,30.1v-3.4c0-0.2,0.1-0.3,0.3-0.3c0.2,0,0.3,0.1,0.3,0.3v3.1h1.5c0.2,0,0.3,0.1,0.3,0.3
		c0,0.2-0.1,0.3-0.3,0.3h-1.9h0h0C73.1,30.4,73,30.2,73,30.1"/>
	<path class="st0" d="M76.6,29.7h0.4c0.8,0,1.4-0.6,1.4-1.4c0-0.8-0.6-1.4-1.4-1.4h-0.4V29.7z M75.9,30.1v-3.4
		c0-0.2,0.1-0.3,0.3-0.3h0.7c1.1,0,2,0.9,2,2c0,1.1-0.9,2-2,2h-0.7C76.1,30.4,75.9,30.2,75.9,30.1"/>
	<path class="st0" d="M79.5,30.1v-3.4c0-0.2,0.1-0.3,0.3-0.3c0.2,0,0.3,0.1,0.3,0.3V28h1.5v-1.4c0-0.2,0.1-0.3,0.3-0.3
		c0.2,0,0.3,0.1,0.3,0.3v3.4c0,0.2-0.1,0.3-0.3,0.3c-0.2,0-0.3-0.1-0.3-0.3v-1.4h-1.5v1.4c0,0.2-0.1,0.3-0.3,0.3
		C79.6,30.4,79.5,30.2,79.5,30.1"/>
	<path class="st0" d="M86.1,28.3c0-0.4-0.2-0.8-0.4-1c-0.2-0.3-0.6-0.4-0.9-0.4c-0.4,0-0.7,0.1-0.9,0.4c-0.2,0.3-0.4,0.6-0.4,1
		c0,0.4,0.1,0.8,0.4,1c0.2,0.3,0.6,0.4,0.9,0.4c0.3,0,0.7-0.2,0.9-0.4C86,29.1,86.1,28.7,86.1,28.3 M86.2,26.9
		c0.4,0.4,0.6,0.9,0.6,1.5c0,0.6-0.2,1.1-0.6,1.5c-0.3,0.4-0.8,0.6-1.4,0.6c-0.5,0-1.1-0.2-1.4-0.6c-0.4-0.4-0.6-0.9-0.6-1.5
		c0-0.6,0.2-1.1,0.6-1.5c0.3-0.4,0.9-0.6,1.4-0.6C85.4,26.2,85.9,26.5,86.2,26.9"/>
	<path class="st0" d="M90.7,28.3c0-0.4-0.2-0.8-0.4-1c-0.2-0.3-0.6-0.4-0.9-0.4c-0.4,0-0.7,0.1-0.9,0.4c-0.2,0.3-0.4,0.6-0.4,1
		c0,0.4,0.1,0.8,0.4,1c0.2,0.3,0.6,0.4,0.9,0.4c0.3,0,0.7-0.2,0.9-0.4C90.5,29.1,90.7,28.7,90.7,28.3 M90.7,26.9
		c0.4,0.4,0.6,0.9,0.6,1.5c0,0.6-0.2,1.1-0.6,1.5c-0.3,0.4-0.8,0.6-1.4,0.6c-0.5,0-1.1-0.2-1.4-0.6c-0.4-0.4-0.6-0.9-0.6-1.5
		c0-0.6,0.2-1.1,0.6-1.5c0.3-0.4,0.9-0.6,1.4-0.6C89.9,26.2,90.4,26.5,90.7,26.9"/>
	<path class="st0" d="M92.6,29.7H93c0.8,0,1.4-0.6,1.4-1.4c0-0.8-0.6-1.4-1.4-1.4h-0.4V29.7z M92,30.1v-3.4c0-0.2,0.1-0.3,0.3-0.3
		H93c1.1,0,2,0.9,2,2c0,1.1-0.9,2-2,2h-0.7C92.1,30.4,92,30.2,92,30.1"/>
	<path class="st0" d="M97.9,29.7h0.4c0.8,0,1.4-0.6,1.4-1.4c0-0.8-0.6-1.4-1.4-1.4h-0.4V29.7z M97.2,30.1v-3.4
		c0-0.2,0.1-0.3,0.3-0.3h0.7c1.1,0,2,0.9,2,2c0,1.1-0.9,2-2,2h-0.7C97.4,30.4,97.2,30.2,97.2,30.1"/>
	<path class="st0" d="M100.8,30.1v-3.4c0-0.2,0.1-0.3,0.3-0.3h0h0h1.9c0.2,0,0.3,0.1,0.3,0.3c0,0.2-0.1,0.3-0.3,0.3h-1.6v1h1.3
		c0.2,0,0.3,0.1,0.3,0.3c0,0.2-0.1,0.3-0.3,0.3h-1.3v1.1h1.6c0.2,0,0.3,0.1,0.3,0.3c0,0.2-0.1,0.3-0.3,0.3h-1.9c0,0,0,0,0,0l0,0
		C100.9,30.4,100.8,30.2,100.8,30.1"/>
	<path class="st0" d="M105.2,30.3C105.2,30.3,105.2,30.3,105.2,30.3C105.1,30.3,105.1,30.3,105.2,30.3
		C105.1,30.3,105.1,30.2,105.2,30.3C105.1,30.2,105.1,30.2,105.2,30.3c-0.1-0.1-0.1-0.1-0.1-0.1l-1.4-3.3c-0.1-0.2,0-0.3,0.2-0.4
		c0.2-0.1,0.3,0,0.4,0.2l1.1,2.7l1.1-2.7c0.1-0.2,0.3-0.2,0.4-0.2c0.2,0.1,0.2,0.3,0.2,0.4l-1.4,3.3c0,0,0,0,0,0c0,0,0,0,0,0
		c0,0,0,0,0,0c0,0,0,0,0,0c0,0,0,0,0,0l0,0c0,0,0,0,0,0c0,0,0,0,0,0c0,0,0,0,0,0h0c0,0,0,0-0.1,0c0,0,0,0-0.1,0h0
		C105.3,30.4,105.3,30.4,105.2,30.3C105.2,30.3,105.2,30.3,105.2,30.3L105.2,30.3C105.2,30.3,105.2,30.3,105.2,30.3L105.2,30.3z"/>
	<path class="st0" d="M107.7,30.1v-3.4c0-0.2,0.1-0.3,0.3-0.3h0h0h1.9c0.2,0,0.3,0.1,0.3,0.3c0,0.2-0.1,0.3-0.3,0.3h-1.5v1h1.3
		c0.2,0,0.3,0.1,0.3,0.3c0,0.2-0.1,0.3-0.3,0.3h-1.3v1.1h1.5c0.2,0,0.3,0.1,0.3,0.3c0,0.2-0.1,0.3-0.3,0.3H108c0,0,0,0,0,0l0,0
		C107.8,30.4,107.7,30.2,107.7,30.1"/>
	<path class="st0" d="M110.8,30.1v-3.4c0-0.2,0.1-0.3,0.3-0.3s0.3,0.1,0.3,0.3v3.1h1.5c0.2,0,0.3,0.1,0.3,0.3c0,0.2-0.1,0.3-0.3,0.3
		h-1.9h0h0C110.9,30.4,110.8,30.2,110.8,30.1"/>
	<path class="st0" d="M116.6,28.3c0-0.4-0.2-0.8-0.4-1c-0.2-0.3-0.6-0.4-0.9-0.4c-0.4,0-0.7,0.1-0.9,0.4c-0.2,0.3-0.4,0.6-0.4,1
		c0,0.4,0.1,0.8,0.4,1c0.2,0.3,0.6,0.4,0.9,0.4c0.3,0,0.7-0.2,0.9-0.4C116.4,29.1,116.6,28.7,116.6,28.3 M116.7,26.9
		c0.4,0.4,0.6,0.9,0.6,1.5c0,0.6-0.2,1.1-0.6,1.5c-0.3,0.4-0.8,0.6-1.4,0.6c-0.5,0-1.1-0.2-1.4-0.6c-0.4-0.4-0.6-0.9-0.6-1.5
		c0-0.6,0.2-1.1,0.6-1.5c0.3-0.4,0.9-0.6,1.4-0.6C115.8,26.2,116.3,26.5,116.7,26.9"/>
	<path class="st0" d="M118.5,28.2h0.7c0.3,0,0.6-0.3,0.6-0.6c0-0.3-0.3-0.6-0.6-0.6h-0.7V28.2z M119.2,28.8h-0.7v1.2
		c0,0.2-0.1,0.3-0.3,0.3c-0.2,0-0.3-0.1-0.3-0.3v-3.4c0-0.2,0.1-0.3,0.3-0.3h0h1c0.7,0,1.2,0.6,1.2,1.2
		C120.4,28.3,119.9,28.8,119.2,28.8"/>
	<path class="st0" d="M124.3,26.7v3.4c0,0.2-0.1,0.3-0.3,0.3c-0.2,0-0.3-0.1-0.3-0.3v-2.4l-0.8,1.1c-0.1,0.1-0.2,0.1-0.3,0.1h0h0
		c-0.1,0-0.2,0-0.3-0.1l-0.8-1.1v2.4c0,0.2-0.1,0.3-0.3,0.3c-0.2,0-0.3-0.1-0.3-0.3v-3.4c0-0.2,0.1-0.3,0.3-0.3h0
		c0.1,0,0.2,0,0.3,0.1l1.1,1.6l1.1-1.6c0.1-0.1,0.2-0.1,0.3-0.1h0C124.2,26.4,124.3,26.5,124.3,26.7"/>
	<path class="st0" d="M125.1,30.1v-3.4c0-0.2,0.1-0.3,0.3-0.3h0h0h1.9c0.2,0,0.3,0.1,0.3,0.3c0,0.2-0.1,0.3-0.3,0.3h-1.5v1h1.3
		c0.2,0,0.3,0.1,0.3,0.3c0,0.2-0.1,0.3-0.3,0.3h-1.3v1.1h1.5c0.2,0,0.3,0.1,0.3,0.3c0,0.2-0.1,0.3-0.3,0.3h-1.9c0,0,0,0,0,0l0,0
		C125.3,30.4,125.1,30.2,125.1,30.1"/>
	<path class="st0" d="M128.9,30.1c0,0.2-0.1,0.3-0.3,0.3c-0.2,0-0.3-0.1-0.3-0.3v-3.3v0c0-0.1,0-0.2,0.1-0.3
		c0.1-0.1,0.3-0.1,0.4,0.1l1.8,2.6v-2.4c0-0.2,0.1-0.3,0.3-0.3c0.2,0,0.3,0.1,0.3,0.3v3.3c0,0.2-0.1,0.3-0.3,0.3
		c-0.1,0-0.2,0-0.2-0.1c0,0,0,0,0,0l-1.8-2.5V30.1z"/>
	<path class="st0" d="M134.8,27h-0.9v3.1c0,0.2-0.1,0.3-0.3,0.3c-0.2,0-0.3-0.1-0.3-0.3V27h-0.9c-0.2,0-0.3-0.1-0.3-0.3
		c0-0.2,0.1-0.3,0.3-0.3h2.4c0.2,0,0.3,0.1,0.3,0.3C135.1,26.8,134.9,27,134.8,27"/>
	<path class="st0" d="M37.6,5.3h-0.9v3.1c0,0.2-0.1,0.3-0.3,0.3c-0.2,0-0.3-0.1-0.3-0.3V5.3h-0.9c-0.2,0-0.3-0.1-0.3-0.3
		c0-0.2,0.1-0.3,0.3-0.3h2.4c0.2,0,0.3,0.1,0.3,0.3C37.9,5.1,37.8,5.3,37.6,5.3"/>
	<path class="st0" d="M38.6,8.3V4.9c0-0.2,0.1-0.3,0.3-0.3c0.2,0,0.3,0.1,0.3,0.3v1.4h1.5V4.9c0-0.2,0.1-0.3,0.3-0.3
		c0.2,0,0.3,0.1,0.3,0.3v3.4c0,0.2-0.1,0.3-0.3,0.3c-0.2,0-0.3-0.1-0.3-0.3V7h-1.5v1.4c0,0.2-0.1,0.3-0.3,0.3
		C38.7,8.6,38.6,8.5,38.6,8.3"/>
	<path class="st0" d="M42.3,8.3V4.9c0-0.2,0.1-0.3,0.3-0.3h0h0h1.9c0.2,0,0.3,0.1,0.3,0.3c0,0.2-0.1,0.3-0.3,0.3H43v1h1.3
		c0.2,0,0.3,0.1,0.3,0.3c0,0.2-0.1,0.3-0.3,0.3H43V8h1.5c0.2,0,0.3,0.1,0.3,0.3c0,0.2-0.1,0.3-0.3,0.3h-1.9c0,0,0,0,0,0l0,0
		C42.5,8.6,42.3,8.5,42.3,8.3"/>
	<path class="st0" d="M35.3,17.5c0-2.3,1.9-4.1,4.1-4.1c1,0,1.9,0.3,2.6,0.9c0.3,0.2,0.3,0.6,0.1,0.9c-0.2,0.3-0.6,0.3-0.9,0.1
		c-0.5-0.4-1.1-0.6-1.8-0.6c-0.8,0-1.5,0.3-2,0.8c-0.5,0.5-0.8,1.2-0.8,2c0,0.7,0.3,1.4,0.8,1.9c0.5,0.5,1.2,0.8,2,0.8
		c0.6,0,1.1-0.2,1.5-0.4v-1.5h-1.6c-0.3,0-0.6-0.3-0.6-0.6c0-0.4,0.3-0.6,0.6-0.6h2.2h0h0c0.4,0,0.7,0.3,0.7,0.6v2.5
		c0,0.1,0,0.1,0,0.2c0,0,0,0,0,0.1v0c0,0.1-0.1,0.2-0.2,0.3c-0.7,0.6-1.6,0.9-2.6,0.9C37.2,21.6,35.3,19.8,35.3,17.5"/>
	<path class="st0" d="M49.9,17.5c0-0.8-0.3-1.5-0.8-2c-0.5-0.5-1.1-0.8-1.8-0.8c-0.7,0-1.3,0.3-1.8,0.8c-0.5,0.5-0.8,1.2-0.8,2
		s0.3,1.5,0.8,2c0.5,0.5,1.1,0.8,1.8,0.8c0.7,0,1.3-0.3,1.8-0.8C49.6,19,49.9,18.3,49.9,17.5 M50,14.6c0.7,0.7,1.1,1.7,1.1,2.9
		c0,1.1-0.4,2.1-1.1,2.9c-0.7,0.7-1.7,1.2-2.7,1.2c-1.1,0-2.1-0.5-2.8-1.2c-0.7-0.7-1.1-1.7-1.1-2.9c0-1.1,0.4-2.1,1.1-2.9
		c0.7-0.7,1.7-1.2,2.8-1.2C48.4,13.4,49.4,13.9,50,14.6"/>
	<path class="st0" d="M53.7,20.3h0.7c1.5,0,2.7-1.2,2.7-2.7c0-1.5-1.2-2.7-2.7-2.7h-0.7V20.3z M52.5,20.9v-6.7
		c0-0.3,0.3-0.6,0.6-0.6h1.3c2.2,0,3.9,1.8,3.9,3.9c0,2.2-1.8,4-3.9,4h-1.3C52.7,21.6,52.5,21.3,52.5,20.9"/>
	<path class="st0" d="M60.9,20.3h0.7c1.5,0,2.7-1.2,2.7-2.7c0-1.5-1.2-2.7-2.7-2.7h-0.7V20.3z M59.7,20.9v-6.7
		c0-0.3,0.3-0.6,0.6-0.6h1.3c2.2,0,3.9,1.8,3.9,3.9c0,2.2-1.8,4-3.9,4h-1.3C59.9,21.6,59.7,21.3,59.7,20.9"/>
	<path class="st0" d="M70,18.5L69.1,16l-0.9,2.4H70z M70.5,19.7h-2.7l-0.6,1.5c-0.1,0.2-0.3,0.4-0.6,0.4c-0.1,0-0.1,0-0.2,0
		c-0.3-0.1-0.5-0.5-0.4-0.8l2.5-6.6c0.1-0.2,0.3-0.4,0.6-0.4c0.3,0,0.5,0.1,0.6,0.4l2.5,6.6c0.1,0.3,0,0.7-0.4,0.8
		c-0.1,0-0.1,0-0.2,0c-0.2,0-0.5-0.1-0.6-0.4L70.5,19.7z"/>
	<path class="st0" d="M77,16.1c0-0.7-0.5-1.2-1.2-1.2h-1.4v2.3h1.4C76.5,17.2,77,16.7,77,16.1 M78.6,20.6c0.1,0.3-0.1,0.7-0.4,0.8
		c0,0-0.1,0-0.2,0h0c-0.1,0-0.3,0-0.4-0.1c-0.1-0.1-0.3-0.2-0.4-0.4c-0.2-0.3-0.2-0.7-0.2-1.4c0-0.2-0.1-0.4-0.1-0.5
		c-0.1-0.1-0.2-0.2-0.3-0.3c-0.2-0.2-0.5-0.2-0.6-0.3h-1.3v2.4c0,0.3-0.3,0.6-0.6,0.6c-0.3,0-0.6-0.3-0.6-0.6v-6.7
		c0-0.3,0.3-0.6,0.6-0.6h0h2c1.3,0,2.4,1.1,2.4,2.4c0,0.7-0.3,1.4-0.9,1.8c0.1,0.1,0.3,0.2,0.4,0.4c0.2,0.3,0.4,0.7,0.4,1.2
		c0,0.3,0,0.6,0,0.7C78.4,20.3,78.5,20.4,78.6,20.6"/>
	<path class="st0" d="M81.1,20.3h0.7c1.5,0,2.7-1.2,2.7-2.7c0-1.5-1.2-2.7-2.7-2.7h-0.7V20.3z M79.8,20.9v-6.7
		c0-0.3,0.3-0.6,0.6-0.6h1.3c2.2,0,3.9,1.8,3.9,3.9c0,2.2-1.8,4-3.9,4h-1.3C80.1,21.6,79.8,21.3,79.8,20.9"/>
	<path class="st0" d="M89.9,19.6c0.2-0.2,0.6-0.3,0.8-0.1c0.5,0.4,1.3,0.9,2.1,0.9c0.6,0,1.1-0.2,1.4-0.4c0.3-0.2,0.5-0.5,0.5-0.8
		c0-0.1,0-0.2-0.1-0.4c-0.1-0.1-0.2-0.2-0.3-0.3c-0.3-0.2-0.9-0.4-1.5-0.5h0c-0.5-0.1-1-0.2-1.5-0.4c-0.4-0.2-0.8-0.5-1-0.9
		C90.1,16.3,90,16,90,15.7c0-0.7,0.4-1.3,0.9-1.6c0.5-0.4,1.2-0.6,1.9-0.6c1.1,0,1.9,0.5,2.5,0.9c0.3,0.2,0.3,0.5,0.2,0.8
		c-0.2,0.3-0.5,0.3-0.8,0.2c-0.6-0.4-1.1-0.7-1.8-0.7c-0.5,0-1,0.2-1.3,0.4c-0.3,0.2-0.4,0.5-0.4,0.7c0,0.1,0,0.2,0.1,0.3
		c0.1,0.1,0.2,0.2,0.3,0.3c0.3,0.2,0.8,0.4,1.4,0.5h0c0.6,0.1,1.1,0.3,1.6,0.5c0.5,0.2,0.9,0.5,1.1,0.9c0.2,0.3,0.3,0.6,0.3,1
		c0,0.7-0.4,1.3-1,1.7c-0.6,0.4-1.3,0.6-2.1,0.6c-1.2,0-2.2-0.6-2.9-1.1C89.8,20.2,89.7,19.8,89.9,19.6"/>
	<path class="st0" d="M96.8,17.5c0-2.2,1.9-4,4.1-4.1c1,0,1.9,0.3,2.6,0.9c0.3,0.2,0.3,0.6,0.1,0.9c-0.2,0.3-0.6,0.3-0.9,0.1
		c-0.5-0.4-1.1-0.6-1.8-0.6c-0.8,0-1.5,0.3-2,0.8c-0.5,0.5-0.8,1.2-0.8,2c0,0.8,0.3,1.5,0.8,2c0.5,0.5,1.2,0.8,2,0.8
		c0.7,0,1.3-0.2,1.8-0.6c0.3-0.2,0.7-0.1,0.9,0.1c0.2,0.3,0.2,0.7-0.1,0.9c-0.7,0.6-1.6,0.9-2.6,0.9C98.7,21.6,96.8,19.7,96.8,17.5"
		/>
	<path class="st0" d="M105.3,20.9v-6.7c0-0.3,0.3-0.6,0.6-0.6c0.3,0,0.6,0.3,0.6,0.6V17h2.9v-2.7c0-0.3,0.3-0.6,0.6-0.6
		c0.3,0,0.6,0.3,0.6,0.6v6.7c0,0.3-0.3,0.6-0.6,0.6c-0.3,0-0.6-0.3-0.6-0.6v-2.7h-2.9v2.7c0,0.3-0.3,0.6-0.6,0.6
		C105.5,21.6,105.3,21.3,105.3,20.9"/>
	<path class="st0" d="M118.4,17.5c0-0.8-0.3-1.5-0.8-2c-0.5-0.5-1.1-0.8-1.8-0.8c-0.7,0-1.3,0.3-1.8,0.8c-0.5,0.5-0.8,1.2-0.8,2
		s0.3,1.5,0.8,2c0.5,0.5,1.1,0.8,1.8,0.8c0.7,0,1.3-0.3,1.8-0.8C118.1,19,118.4,18.3,118.4,17.5 M118.5,14.6
		c0.7,0.7,1.1,1.7,1.1,2.9c0,1.1-0.4,2.1-1.1,2.9c-0.7,0.7-1.7,1.2-2.7,1.2c-1.1,0-2.1-0.5-2.8-1.2c-0.7-0.7-1.1-1.7-1.1-2.9
		c0-1.1,0.4-2.1,1.1-2.9c0.7-0.7,1.7-1.2,2.8-1.2C116.9,13.4,117.9,13.9,118.5,14.6"/>
	<path class="st0" d="M127.3,17.5c0-0.8-0.3-1.5-0.8-2c-0.5-0.5-1.1-0.8-1.8-0.8c-0.7,0-1.3,0.3-1.8,0.8c-0.5,0.5-0.8,1.2-0.8,2
		s0.3,1.5,0.8,2c0.5,0.5,1.1,0.8,1.8,0.8c0.7,0,1.3-0.3,1.8-0.8C127,19,127.3,18.3,127.3,17.5 M127.4,14.6c0.7,0.7,1.1,1.7,1.1,2.9
		c0,1.1-0.4,2.1-1.1,2.9c-0.7,0.7-1.7,1.2-2.7,1.2c-1.1,0-2.1-0.5-2.8-1.2c-0.7-0.7-1.1-1.7-1.1-2.9c0-1.1,0.4-2.1,1.1-2.9
		c0.7-0.7,1.7-1.2,2.8-1.2C125.8,13.4,126.8,13.9,127.4,14.6"/>
	<path class="st0" d="M130.2,20.9v-6.7c0-0.3,0.3-0.6,0.6-0.6c0.3,0,0.6,0.3,0.6,0.6v6h3c0.3,0,0.6,0.3,0.6,0.6
		c0,0.3-0.3,0.6-0.6,0.6h-3.6h0h0C130.4,21.6,130.2,21.3,130.2,20.9"/>
	<rect x="34.8" y="10.6" class="st0" width="100.2" height="0.9"/>
	<rect x="34.8" y="23.5" class="st0" width="100.2" height="0.9"/>
	<path class="st0" d="M21,21.6C21,21.6,21,21.6,21,21.6L21,21.6z"/>
	<path class="st0" d="M16,4.4c-7.2,0-13,5.8-13,13.1s5.8,13.1,13,13.1c7.2,0,13-5.8,13-13.1S23.2,4.4,16,4.4 M6.2,22.8
		C5.4,22,4.7,21.1,4.4,20C4,18.9,4,17.7,4.3,16.6c0.3-1.1,0.8-2.1,1.5-2.9l0,0l0,0C6.4,13,7,12.5,7.6,12c0.7-0.5,1.4-1,2.1-1.3
		c0.7-0.4,1.5-0.7,2.3-1c0.4-0.1,0.8-0.2,1.2-0.4c0.3-0.1,0.6-0.1,0.9-0.2c0-0.5,0.1-1.1,0.3-1.6c0.2-0.4,0.4-0.7,0.7-1
		c0.1-0.1,0.3-0.3,0.4-0.4C15.6,6,15.7,6,15.8,5.9c0,0,0.1-0.1,0.1-0.1c0.1,0,0.1,0,0.2-0.1l0.5-0.2l0,0.6c0,0.5,0,1.1,0,1.6
		c0-0.1,0.1-0.1,0.1-0.2c0.2-0.3,0.4-0.7,0.5-1l0.2-0.4l0.2,0.4C17.9,7,18,7.6,18,8.1c0,0.3-0.1,0.6-0.2,0.8
		c-0.1,0.3-0.2,0.5-0.3,0.7c0.1-0.2,0.2-0.5,0.2-0.8c0-0.3,0.1-0.5,0.1-0.8c0-0.4-0.1-0.7-0.2-1c-0.1,0.2-0.2,0.4-0.3,0.6
		c-0.1,0.2-0.2,0.4-0.3,0.5c-0.1,0.1-0.1,0.2-0.2,0.3c-0.1,0.1-0.1,0.2-0.3,0.3l-0.4,0.3L16,8.6C16,8,15.9,7.4,15.9,6.9
		C15.8,6.9,15.8,7,15.7,7c-0.2,0.2-0.4,0.5-0.5,0.8C15,8.4,15,9,15.1,9.7l0.3,3.3L14.2,10c-0.3,0.1-0.5,0.1-0.8,0.2
		c-0.4,0.1-0.7,0.2-1.1,0.3c-0.7,0.2-1.5,0.5-2.2,0.9c-0.7,0.4-1.4,0.8-2,1.2c-0.6,0.4-1.2,1-1.8,1.5c0,0-0.1,0.1-0.1,0.2
		c0,0.1-0.1,0.1-0.1,0.2C6.1,14.7,6.1,14.9,6,15c-0.1,0.3-0.2,0.7-0.2,1c-0.1,0.7-0.1,1.4,0.1,2.1c0.2,0.7,0.4,1.3,0.8,2
		c0.2,0.3,0.4,0.6,0.6,0.9c0.2,0.3,0.4,0.6,0.7,0.9c-0.3-0.2-0.5-0.5-0.8-0.8c-0.2-0.3-0.5-0.6-0.7-0.9c-0.4-0.6-0.8-1.3-1-2
		c-0.2-0.7-0.3-1.5-0.3-2.3c0-0.1,0-0.3,0.1-0.4c-0.1,0.4-0.2,0.8-0.3,1.2c-0.2,1-0.1,2.1,0.2,3c0.3,1,0.9,1.8,1.6,2.6
		c0.7,0.8,1.5,1.5,2.4,2.1C8,24.1,7,23.5,6.2,22.8 M9.4,17.6c0.1,0.3,0.2,0.5,0.4,0.8c0.2,0.2,0.3,0.5,0.6,0.7
		c0.2,0.2,0.4,0.5,0.7,0.7c0.2,0.2,0.4,0.5,0.6,0.8c0.4,0.6,0.7,1.2,0.8,1.8c-0.4-0.5-0.8-1-1.2-1.5c-0.4-0.4-0.9-0.8-1.5-1.2
		c-0.3-0.2-0.5-0.5-0.7-0.8c-0.2-0.3-0.4-0.6-0.5-0.9c-0.3-0.6-0.4-1.4-0.4-2.1c0-0.7,0.3-1.5,0.7-2c0.4-0.6,0.9-1.1,1.5-1.5
		c0.3-0.2,0.6-0.4,0.9-0.5c0.3-0.2,0.6-0.3,0.9-0.4c0.6-0.2,1.3-0.4,1.9-0.5c-0.6,0.3-1.2,0.6-1.7,0.9c-0.3,0.2-0.5,0.3-0.8,0.5
		c-0.3,0.2-0.5,0.4-0.7,0.6c-0.5,0.4-0.9,0.9-1.1,1.4c-0.3,0.5-0.5,1.1-0.5,1.6C9.1,16.5,9.2,17.1,9.4,17.6 M14,30.4
		c-0.1-0.4-0.2-0.9-0.3-1.3c-0.1-0.4-0.2-0.8-0.3-1.2c-0.1-0.4-0.3-0.8-0.4-1.1c-0.6-1.5-1.5-2.8-2.6-4c-0.3-0.3-0.6-0.5-0.9-0.8
		c-0.1-0.1-0.3-0.3-0.5-0.4c-0.2-0.1-0.3-0.3-0.5-0.4c-0.6-0.6-1.1-1.4-1.4-2.2c-0.3-0.8-0.5-1.7-0.3-2.6c0.1-0.9,0.5-1.7,1-2.3
		c-0.4,0.7-0.5,1.5-0.5,2.3c0,0.8,0.2,1.5,0.6,2.2c0.3,0.7,0.8,1.3,1.4,1.8c0.1,0.1,0.3,0.3,0.4,0.4c0.1,0.1,0.3,0.2,0.5,0.4
		c0.3,0.3,0.6,0.6,0.9,0.9c1.2,1.2,2,2.8,2.5,4.4c0.1,0.4,0.2,0.8,0.3,1.2c0.1,0.4,0.2,0.8,0.2,1.2c0,0.4,0.1,0.8,0.1,1.2
		c0,0.1,0,0.1,0,0.2C14.1,30.4,14,30.4,14,30.4 M15,27.8c-0.2-0.7-0.4-1.4-0.6-2c-0.2-0.7-0.5-1.3-0.8-1.9c-0.1-0.3-0.3-0.7-0.4-1
		c0-0.1-0.1-0.2-0.1-0.3c0-0.1,0-0.2-0.1-0.3c0-0.2,0-0.4,0-0.6c0.1-0.8,0.5-1.6,1.1-2c-0.3,0.7-0.4,1.4-0.3,2
		c0,0.2,0.1,0.3,0.1,0.5c0,0.1,0,0.1,0.1,0.2c0,0.1,0.1,0.2,0.1,0.2c0.1,0.3,0.3,0.6,0.4,1c0.3,0.7,0.5,1.4,0.6,2.1
		C15.2,26.4,15.2,27.1,15,27.8 M15.9,21.1c-0.3-0.1-0.6-0.2-0.9-0.4c-0.3-0.2-0.5-0.5-0.6-0.7c-0.3-0.5-0.5-1.1-0.5-1.7
		c0.3,0.5,0.6,1,1,1.4c0.4,0.4,0.8,0.7,1.3,0.8c0.5,0.1,1,0.1,1.5,0c0.5-0.1,1.1-0.3,1.6-0.5c-0.4,0.4-0.9,0.8-1.5,1
		C17.3,21.2,16.6,21.3,15.9,21.1 M27.5,20.7c0,0,0,0.1-0.1,0.1l-0.1,0.1c0,0.1-0.1,0.1-0.1,0.2c0,0.1-0.1,0.1-0.1,0.2
		c-0.1,0.2-0.2,0.4-0.3,0.6c0,0.1-0.1,0.2-0.1,0.4l0,0.2c0,0,0,0.1,0,0.1c0,0.1,0,0.1-0.1,0.2c0,0,0,0.1-0.1,0.1
		c0,0-0.1,0.1-0.1,0.1c-0.1,0-0.1,0-0.1,0.1L26.4,23l-0.2,0.1c-0.1,0.1-0.2,0.1-0.4,0.2c-0.5,0.2-1,0.4-1.6,0.6
		c-0.1,0-0.3,0.1-0.5,0.1c-0.1,0-0.2,0-0.3,0l0,0l0,0l0,0l0,0c0,0-0.1,0-0.1,0c0,0-0.1-0.1-0.1-0.1c-0.1-0.1-0.2-0.3-0.3-0.4
		c-0.1-0.1-0.1-0.2-0.2-0.4c-0.1-0.1-0.1-0.2-0.2-0.3c0-0.1-0.1-0.1-0.1-0.1c0,0-0.1-0.1-0.1-0.1c0,0,0,0,0,0c0,0,0,0,0,0l0,0
		l-0.1,0l-0.2,0l-0.4-0.1c-0.5-0.1-1-0.3-1.6-0.4c-0.3-0.1-0.5-0.2-0.8-0.3c-0.2-0.1-0.5-0.3-0.7-0.4c0.2,0.2,0.5,0.2,0.7,0.3
		c0.3,0.1,0.5,0.1,0.8,0.2c0.5,0.1,1,0.2,1.6,0.3l0.4,0l0.2,0l0.1,0l0,0c0,0,0,0,0.1,0c0,0,0.1,0,0.1,0c0.1,0.1,0.2,0.1,0.2,0.2
		c0.1,0.1,0.1,0.1,0.1,0.2c0.1,0.1,0.2,0.2,0.2,0.3c0.1,0.2,0.3,0.4,0.4,0.5c0,0,0,0,0,0c0,0,0,0,0,0l0,0l0,0l0,0c0,0,0,0,0.1,0
		c0.1,0,0.2,0,0.3-0.1c0.5-0.2,0.9-0.4,1.4-0.6c0.1-0.1,0.2-0.1,0.3-0.2l0.2-0.1l0,0l0-0.2c0-0.1,0-0.3,0.1-0.4
		c0.1-0.3,0.2-0.6,0.3-0.9c0-0.1,0.1-0.1,0.1-0.2c0-0.1,0.1-0.1,0.1-0.2l0-0.1c0,0,0,0,0-0.1c0,0,0-0.1,0-0.1c0-0.1,0-0.1,0-0.1
		c0,0,0-0.1-0.1-0.2c-0.1-0.1-0.3-0.3-0.5-0.4l-0.1,0l0,0l0,0l0,0l0,0l0,0c-0.1-0.1-0.1-0.1-0.1-0.1l0,0l-0.1-0.1l-0.3-0.3l-0.6-0.6
		l-1.1-1.1L23,16.7l-0.6-0.6c-0.4-0.4-0.8-0.7-1.2-1.1c-0.4-0.4-0.8-0.8-1.1-1.2c-0.2-0.2-0.4-0.4-0.5-0.7c0-0.1-0.1-0.1-0.1-0.2
		c0,0,0,0,0-0.1l0-0.1l0-0.1c0-0.1-0.1-0.2-0.1-0.4c-0.3-0.9-1.1-1.7-2.1-2.2c1,0.2,2,1,2.5,2c0.1,0.1,0.1,0.3,0.2,0.4l0,0.1
		c0,0,0,0,0,0c0,0,0,0,0,0c0,0,0,0.1,0.1,0.1c0.1,0.2,0.3,0.4,0.5,0.6c0.4,0.4,0.8,0.7,1.2,1.1l1.2,1l1.2,1.1l1.2,1.1l0.6,0.5
		l0.3,0.3l0.1,0.1l0,0l0,0l0.1,0c0.3,0.1,0.5,0.3,0.8,0.6c0.1,0.1,0.2,0.3,0.3,0.5c0.1,0.2,0.1,0.5,0,0.6
		C27.5,20.5,27.5,20.6,27.5,20.7"/>
	<path class="st0" d="M139.4,12.2c0,0.8-0.7,1.5-1.6,1.5c-0.9,0-1.6-0.7-1.6-1.5c0-0.8,0.7-1.5,1.6-1.5
		C138.7,10.7,139.4,11.3,139.4,12.2 M136.7,12.2c0,0.7,0.5,1.2,1.2,1.2c0.7,0,1.2-0.5,1.2-1.2c0-0.7-0.5-1.2-1.2-1.2
		C137.2,11,136.7,11.5,136.7,12.2 M137.6,13h-0.4v-1.5c0.1,0,0.3,0,0.6,0c0.3,0,0.4,0,0.5,0.1c0.1,0.1,0.2,0.2,0.2,0.3
		c0,0.2-0.1,0.3-0.3,0.4v0c0.1,0,0.2,0.2,0.3,0.4c0,0.2,0.1,0.3,0.1,0.4h-0.4c0-0.1-0.1-0.2-0.1-0.4c0-0.2-0.1-0.2-0.3-0.2h-0.2V13z
		 M137.6,12.1h0.2c0.2,0,0.4-0.1,0.4-0.2c0-0.1-0.1-0.2-0.3-0.2c-0.1,0-0.2,0-0.2,0V12.1z"/>
</g>
</svg>
