<?xml version="1.0" encoding="utf-8"?>
<!-- Generator: Adobe Illustrator 27.1.1, SVG Export Plug-In . SVG Version: 6.00 Build 0)  -->
<svg version="1.1" id="Capa_1" xmlns="http://www.w3.org/2000/svg" xmlns:xlink="http://www.w3.org/1999/xlink" x="0px" y="0px"
	 width="22.4px" height="22.8px" viewBox="0 0 22.4 22.8" style="enable-background:new 0 0 22.4 22.8;" xml:space="preserve">
<style type="text/css">
	.st0{fill:#0077CF;}
</style>
<g>
	<path class="st0" d="M5.1,9.5L5.1,9.5C4.9,9.4,4.7,9.4,4.5,9.4C4.3,9.4,4.1,9.5,4,9.7L0,21.9l0,0c0,0.2,0,0.4,0.2,0.6
		c0,0.2,0.3,0.2,0.4,0.2h0.2l11.9-4.3l0,0c0.1-0.1,0.2-0.2,0.3-0.4c0.1-0.2,0-0.5-0.1-0.6L5.1,9.5z M11.4,17.6l-9.9,3.6l3.3-10.1
		L11.4,17.6z"/>
	<path class="st0" d="M6.4,3c0,0,0.1,0.1,0.2,0.2c0.3,0.3,1.1,1,1.1,2C7.8,6,7.4,6.7,6.6,7.6c-0.2,0.2-0.2,0.6,0,0.9
		C6.7,8.6,6.9,8.6,7,8.6c0.1,0,0.3-0.1,0.4-0.2C8.5,7.3,9,6.2,8.9,5c-0.2-1.7-1.5-2.8-1.8-3l0,0C6.8,1.9,6.5,2,6.3,2.3
		C6.2,2.4,6.1,2.5,6.1,2.7C6.2,2.8,6.3,3,6.4,3z"/>
	<path class="st0" d="M17.3,12.3c-1.3-0.1-2.5,0.5-3.7,1.9c-0.2,0.2-0.2,0.6,0,0.8c0.2,0.2,0.6,0.2,0.8,0c0.9-1,1.9-1.5,2.7-1.4
		c1.3,0.1,2.1,1.5,2.2,1.6c0,0.2,0.2,0.4,0.5,0.4c0.1,0,0.1,0,0.2-0.1c0,0,0.1,0,0.1,0h0l0,0c0.2-0.2,0.3-0.6,0.2-0.8
		C20.3,14.3,19.2,12.5,17.3,12.3z"/>
	<path class="st0" d="M11.8,1.1c0,0,1.7,1,1.9,2.5c0.1,0.8-0.2,1.5-0.9,2.2L8.9,9.7c-0.2,0.2-0.2,0.6-0.1,0.8l0,0
		c0.1,0.1,0.4,0.1,0.5,0.1c0.2,0,0.4,0,0.4-0.2l3.8-3.8c0.9-0.9,1.4-2,1.3-3.2c-0.1-0.8-0.5-2.1-2.3-3.4c0,0-0.1,0-0.1-0.1l0,0
		C12.3,0,12.1,0,11.9,0c-0.2,0-0.3,0.1-0.4,0.3C11.4,0.6,11.5,1,11.8,1.1z"/>
	<path class="st0" d="M22.3,5.7c-0.1-0.3-0.8-1.2-2-1.4c-1-0.1-1.9,0.3-2.9,1.3l-6.6,6.6c-0.2,0.2-0.2,0.6,0,0.8
		c0.1,0.1,0.4,0.1,0.5,0.1s0.3,0,0.5-0.1l6.5-6.6c0.7-0.7,1.3-1,1.8-0.9c0.7,0.1,1.2,0.8,1.2,0.8c0.2,0.3,0.6,0.4,0.8,0.2
		C22.4,6.3,22.5,5.9,22.3,5.7z"/>
</g>
</svg>
