<?xml version="1.0" encoding="utf-8"?>
<!-- Generator: Adobe Illustrator 27.5.0, SVG Export Plug-In . SVG Version: 6.00 Build 0)  -->
<svg version="1.1" id="Capa_1" xmlns="http://www.w3.org/2000/svg" xmlns:xlink="http://www.w3.org/1999/xlink" x="0px" y="0px"
	 width="23.7px" height="24px" viewBox="0 0 23.7 24" style="enable-background:new 0 0 23.7 24;" xml:space="preserve">
<style type="text/css">
	.st0{fill:#FFFFFF;}
	.st1{fill:#0F2D52;}
	.st2{fill:#EA2C38;}
</style>
<path class="st0" d="M21.5,3.6H2.2C1.4,3.6,0.8,4.2,0.8,5v16.8c0,0.8,0.6,1.4,1.4,1.4h19.2c0.8,0,1.4-0.6,1.4-1.4V5
	C22.9,4.2,22.3,3.6,21.5,3.6z"/>
<g>
	<g>
		<rect x="4" y="18.2" class="st1" width="2.6" height="2.6"/>
		<rect x="8.4" y="18.2" class="st1" width="2.6" height="2.6"/>
		<rect x="12.7" y="18.2" class="st1" width="2.6" height="2.6"/>
		<rect x="17" y="18.2" class="st1" width="2.6" height="2.6"/>
	</g>
	<g>
		<rect x="4" y="13.8" class="st1" width="2.6" height="2.6"/>
		<rect x="8.4" y="13.8" class="st1" width="2.6" height="2.6"/>
		<rect x="12.7" y="13.8" class="st1" width="2.6" height="2.6"/>
		<rect x="17" y="13.8" class="st1" width="2.6" height="2.6"/>
	</g>
	<g>
		<rect x="8.4" y="9.4" class="st1" width="2.6" height="2.6"/>
		<rect x="12.7" y="9.4" class="st1" width="2.6" height="2.6"/>
		<rect x="17" y="9.4" class="st1" width="2.6" height="2.6"/>
	</g>
</g>
<path class="st2" d="M22.9,7.7V5c0-0.8-0.6-1.4-1.4-1.4H2.2C1.4,3.6,0.8,4.2,0.8,5v2.7H22.9z"/>
<path class="st1" d="M21.5,2.8h-0.3V1.5c0-0.8-0.5-1.3-1.1-1.3h-0.3c-0.6,0-1.1,0.6-1.1,1.3v1.4h-2.8V1.5c0-0.8-0.5-1.3-1.1-1.3
	h-0.3c-0.6,0-1.1,0.6-1.1,1.3v1.4h-2.8V1.5c0-0.8-0.5-1.3-1.1-1.3H9c-0.6,0-1.1,0.6-1.1,1.3v1.4H5.1V1.5c0-0.8-0.5-1.3-1.1-1.3H3.7
	c-0.6,0-1.1,0.6-1.1,1.3v1.4H2.2c-1.2,0-2.1,1-2.1,2.1v2.7v14.1c0,1.2,1,2.1,2.1,2.1h19.2c1.2,0,2.1-1,2.1-2.1V7.7V5
	C23.6,3.8,22.6,2.8,21.5,2.8z M1.5,5c0-0.4,0.3-0.7,0.7-0.7h0.4C2.8,4.7,3.2,5,3.7,5H4c0.4,0,0.8-0.3,1-0.8h3C8.2,4.7,8.6,5,9,5h0.3
	c0.4,0,0.8-0.3,1-0.8h3c0.2,0.4,0.6,0.8,1,0.8h0.3c0.4,0,0.8-0.3,1-0.8h3c0.2,0.4,0.6,0.8,1,0.8h0.3c0.4,0,0.8-0.3,1-0.8h0.4
	c0.4,0,0.7,0.3,0.7,0.7v2H1.5V5z M21.5,22.5H2.2c-0.4,0-0.7-0.3-0.7-0.7V8.4h20.7v13.4C22.2,22.2,21.9,22.5,21.5,22.5z"/>
</svg>
