<?xml version="1.0" encoding="utf-8"?>
<!-- Generator: Adobe Illustrator 25.2.1, SVG Export Plug-In . SVG Version: 6.00 Build 0)  -->
<svg version="1.1" id="Layer_1" xmlns="http://www.w3.org/2000/svg" xmlns:xlink="http://www.w3.org/1999/xlink" x="0px" y="0px"
	 width="122.1px" height="146.6px" viewBox="0 0 122.1 146.6" style="enable-background:new 0 0 122.1 146.6;" xml:space="preserve"
	>
<style type="text/css">
	.st0{fill:#F7942D;}
	.st1{fill:#F4C8A0;}
	.st2{fill:#ECC19C;}
	.st3{fill:#4A3222;}
	.st4{fill:#0F2D52;}
</style>
<path class="st0" d="M74,64.8c0,0-3,15.9,3.6,18.8s29.6,5.2,35.5,13.6s4.9,45.4,4.9,45.4H4.1c0,0-1-37,4.9-45.4s29.3-10.7,35.9-13.6
	s3.6-18.8,3.6-18.8H74z"/>
<path class="st1" d="M45.1,83.5c0,0,1.8,14.5,15.9,14.5s16.4-14.5,16.4-14.5c-3.5-5.3-1.8-18.7-1.8-18.7H47
	C47,64.8,49.2,78.2,45.1,83.5z"/>
<path class="st2" d="M90.7,40.6C90.3,20.9,77.3,6.4,61.3,6.4c-15.9,0-28.9,14.5-29.4,34.1l1.8,14.3c4.3,14.5,15,25.8,27.6,25.8
	s23.3-11.2,27.5-25.7L90.7,40.6z"/>
<path class="st3" d="M53.2,5.8C49.6,5.2,32.7,8,31.9,33.7l1.6,13.2l2.6-0.9c0,0,1.7-15.2,3.6-15.9c1.9-0.7,6.8,1.2,16.5-6.7
	C68.1,33.8,80.6,33.3,82.4,34c1.9,0.7,3.6,12,3.6,12l2.6,0.9l2-10.8C90.7,6.8,76.4,0.3,53.2,5.8z"/>
<path class="st4" d="M116.4,94.9c-5-7.1-17.8-10.1-28.2-12.5c-3.1-0.7-6.1-1.4-7.9-2.1c-0.3-0.8-0.6-1.8-0.7-3
	c5.8-5,10.5-12.4,13.1-21.4c0.1-0.2,0.1-0.4,0.1-0.6l1.9-14.3c0-0.2,0-0.4,0-0.6c0-1.2-0.1-2.3-0.2-3.5l0-0.2c0-0.2,0.1-0.5,0.1-0.7
	c0.1-14.9-3.5-25-10.7-30.8c-7-5.6-17.1-6.7-30.9-3.6c-3-0.2-8.7,0.7-14.1,5.2c-4.7,3.9-10.4,11.6-10.9,26.6c0,0.2,0,0.4,0,0.6
	l0.3,2.1c-0.1,1.4-0.2,2.7-0.3,4.1c0,0.2,0,0.4,0,0.6l1.8,14.3c0,0.2,0.1,0.4,0.1,0.6c2.7,9,7.4,16.5,13.3,21.5
	c-0.2,1.1-0.5,2.1-0.8,2.8c-1.9,0.7-5,1.4-8.2,2.1c-10.5,2.4-23.5,5.4-28.5,12.5c-6.3,9-5.8,41.4-5.6,47.8c0.1,2.2,1.8,3.9,4,3.9
	H118c2.2,0,3.9-1.7,4-3.9C122.2,136.3,122.7,103.9,116.4,94.9z M61.3,10.4c11.4,0,20.7,8.4,24,20.7c-0.6-0.5-1.1-0.7-1.5-0.9
	c-0.8-0.3-1.6-0.4-3-0.6c-4.3-0.5-13.2-1.7-22-9.3c-0.8-0.7-1.7-1-2.6-1c-0.9,0-1.8,0.3-2.5,0.9c-6.5,5.3-10.2,5.5-12.4,5.6
	c-0.7,0-1.4,0.1-2.2,0.2C43.4,16.6,51.6,10.4,61.3,10.4z M37.6,54l-0.5-4.1l0.3-0.1c1.5-0.5,2.5-1.8,2.7-3.3
	c0.5-4.6,1.4-10,2.1-12.6c2.8-0.2,7.3-0.7,13.9-5.4c9.8,7.4,19.4,8.6,23.7,9.1c0.1,0,0.1,0,0.2,0c0.6,1.8,1.5,5.5,2,8.9
	c0.2,1.5,1.2,2.7,2.6,3.2l0.7,0.2l-0.5,4c-4,13.5-13.4,22.5-23.6,22.5C51.2,76.6,41.7,67.5,37.6,54z M72.9,85c-1.1,3.3-4.1,9-11.9,9
	c-7.7,0-10.5-5.7-11.5-8.9c0.7-0.8,1.3-1.6,1.7-2.6c3.2,1.4,6.6,2.1,10,2.1c3.4,0,6.8-0.7,10-2C71.7,83.4,72.2,84.3,72.9,85z
	 M114.1,138.6H8c-0.1-14.7,1-34.5,4.2-39.1c3.2-4.6,15.5-7.4,23.7-9.3c2.4-0.6,4.5-1,6.3-1.5C44.6,94.8,50.1,102,61,102
	c10.9,0,16.7-7.3,19.1-13.4c1.8,0.5,3.9,1,6.3,1.5c8.1,1.9,20.2,4.7,23.5,9.3C113.1,104.1,114.2,123.9,114.1,138.6z"/>
</svg>
