<?xml version="1.0" encoding="utf-8"?>
<!-- Generator: Adobe Illustrator 25.2.1, SVG Export Plug-In . SVG Version: 6.00 Build 0)  -->
<svg version="1.1" id="Layer_1" xmlns="http://www.w3.org/2000/svg" xmlns:xlink="http://www.w3.org/1999/xlink" x="0px" y="0px"
	 width="125.5px" height="168.8px" viewBox="0 0 125.5 168.8" style="enable-background:new 0 0 125.5 168.8;" xml:space="preserve"
	>
<style type="text/css">
	.st0{fill:#007EC4;}
	.st1{fill:#E2F3F9;}
	.st2{fill:#384877;}
	.st3{fill:#0F2D52;}
</style>
<path class="st0" d="M110.5,164.8H14.9c-6,0-10.9-4.9-10.9-10.9V26.5c0-6,4.9-10.9,10.9-10.9h95.6c6,0,10.9,4.9,10.9,10.9v127.4
	C121.5,159.9,116.6,164.8,110.5,164.8z"/>
<path class="st1" d="M98,145H27.4c-3.1,0-5.6-2.5-5.6-5.6V40.8c0-3.1,2.5-5.6,5.6-5.6H98c3.1,0,5.6,2.5,5.6,5.6v98.7
	C103.6,142.5,101.1,145,98,145z"/>
<path class="st2" d="M77,20.3c0.1-0.5,0.1-1,0.1-1.5C77.1,10.6,70.5,4,62.3,4s-14.8,6.6-14.8,14.8c0,0.5,0,1,0.1,1.5
	c-13.3,2.4-22.7,8-22.7,14.5h74.9C99.7,28.4,90.4,22.8,77,20.3z"/>
<path class="st3" d="M110.5,11.6H79.7C76.8,4.8,70.1,0,62.3,0c-7.8,0-14.5,4.8-17.4,11.6h-30C6.7,11.6,0,18.3,0,26.5v127.4
	c0,8.2,6.7,14.9,14.9,14.9h95.6c4.1,0,7.9-1.6,10.7-4.5c2.8-2.8,4.3-6.6,4.2-10.4V26.5C125.4,18.3,118.7,11.6,110.5,11.6z
	 M50.9,22.5c0.6-0.9,0.8-2,0.6-3c0-0.1,0-0.5,0-0.7c0-6,4.8-10.8,10.8-10.8s10.8,4.8,10.8,10.8c0,0.3,0,0.6,0,0.7
	c-0.2,1,0,2.1,0.6,3c0.6,0.9,1.5,1.5,2.6,1.7c8.1,1.5,13.8,4,16.9,6.6H31.4c3-2.5,8.8-5.1,16.9-6.6C49.4,24,50.3,23.4,50.9,22.5z
	 M99.6,40.8v98.7c0,0.8-0.7,1.5-1.6,1.5H27.4c-0.9,0-1.6-0.7-1.6-1.6V40.8c0-0.9,0.7-1.6,1.6-1.6H98C98.9,39.2,99.6,39.9,99.6,40.8z
	 M115.5,158.7c-1.3,1.3-3.1,2.1-5,2.1H14.9c-3.8,0-6.9-3.1-6.9-6.9V26.5c0-3.8,3.1-6.9,6.9-6.9h20.4C26.7,23,21.6,28,21,33.7
	c-1.9,1.8-3.2,4.3-3.2,7.1v98.6c0,5.3,4.3,9.6,9.6,9.6H98c5.3,0,9.6-4.3,9.6-9.5V40.8c0-3.2-1.6-6-4-7.8c-0.9-5.5-6-10.2-14.3-13.4
	h21.2c3.8,0,6.9,3.1,6.9,6.9l0,127.5C117.4,155.8,116.8,157.4,115.5,158.7z"/>
<path class="st3" d="M37.8,60.8c-2.2,0-4-1.8-4-4c0-2.2,1.8-4,4-4l49.3-0.1c0,0,0,0,0,0c2.2,0,4,1.8,4,4c0,2.2-1.8,4-4,4L37.8,60.8
	C37.8,60.8,37.8,60.8,37.8,60.8z"/>
<path class="st3" d="M38.2,82.2c-2.2,0-4-1.8-4-4c0-2.2,1.8-4,4-4l49.4-0.1c0,0,0,0,0,0c2.2,0,4,1.8,4,4c0,2.2-1.8,4-4,4L38.2,82.2
	C38.2,82.2,38.2,82.2,38.2,82.2z"/>
<path class="st3" d="M37.8,103.8c-2.2,0-4-1.8-4-4c0-2.2,1.8-4,4-4l49.3-0.1c0,0,0,0,0,0c2.2,0,4,1.8,4,4c0,2.2-1.8,4-4,4
	L37.8,103.8C37.8,103.8,37.8,103.8,37.8,103.8z"/>
<path class="st3" d="M38.2,125.2c-2.2,0-4-1.8-4-4c0-2.2,1.8-4,4-4l49.4-0.1c0,0,0,0,0,0c2.2,0,4,1.8,4,4c0,2.2-1.8,4-4,4
	L38.2,125.2C38.2,125.2,38.2,125.2,38.2,125.2z"/>
</svg>
