<?xml version="1.0" encoding="utf-8"?>
<!-- Generator: Adobe Illustrator 25.2.1, SVG Export Plug-In . SVG Version: 6.00 Build 0)  -->
<svg version="1.1" id="Layer_1" xmlns="http://www.w3.org/2000/svg" xmlns:xlink="http://www.w3.org/1999/xlink" x="0px" y="0px"
	 width="100.1px" height="156px" viewBox="0 0 100.1 156" style="enable-background:new 0 0 100.1 156;" xml:space="preserve">
<style type="text/css">
	.st0{fill:#0F2D52;}
</style>
<path class="st0" d="M64.5,20.2h0.2c12.8,0.1,24.9-4.6,34.2-13.3c1.6-1.5,1.7-4,0.2-5.7s-4-1.7-5.7-0.2
	c-7.6,7.2-17.7,11.1-28.3,11.1c-0.1,0-0.2,0-0.4,0h-0.2c-7.6-0.1-14.9,2.9-20.3,8.3C38.9,25.9,35.9,33,36,40.6c0,0.3,0,0.6,0.1,0.8
	l0,0.5l-0.5,0c-9.3,0.1-18.2,3.8-24.8,10.6C3.7,59.8-0.1,69.3,0,79.5l0.1,18.2c0,0.1,0,0.2,0,0.4c0,0.1,0,0.3,0,0.4L0.3,119
	c0.2,20.5,16.3,37.1,36,37.1c0.1,0,0.1,0,0.2,0l8-0.1c19.7-0.1,35.7-17,35.6-37.6l-0.1-19.3c0.1-0.3,0.1-0.7,0.1-1
	c0-0.4-0.1-0.7-0.2-1.1L79.7,79c-0.1-10.3-4-19.9-11.2-26.9c-6.6-6.5-15.3-10.1-24.4-10.1l0-1.3c0-0.3,0-0.5-0.1-0.7
	c0.1-5.2,2.2-10,5.9-13.7C53.8,22.3,59,20.2,64.5,20.2z M41.1,83.5l-1,0c0,0,0,0,0,0c0,0,0,0,0,0c0,0,0,0,0,0l-1,0
	c-0.8,0-1.7-0.3-2.3-1c-0.8-0.7-1.2-1.7-1.2-2.9l-0.1-9.4c0-2.2,1.6-4,3.5-4h1h0h0.9c2,0,3.6,1.7,3.6,3.8l0.1,9.4
	C44.6,81.7,43,83.5,41.1,83.5z M16.4,58.2c5.2-5.3,12-8.2,19.2-8.2l0.4,0l0,8.7c-4.9,1.4-8.5,6-8.5,11.6l0.1,9.4
	c0,3.2,1.3,6.3,3.6,8.6c1.4,1.4,3.1,2.3,4.9,2.8l0,3H8.1L8,79.5C7.9,71.4,10.9,63.8,16.4,58.2z M44.4,148l-8,0.1c-0.1,0-0.1,0-0.2,0
	c-15.2,0-27.8-13-27.9-29.1l-0.1-16.9H40c0,0,0,0,0,0h31.9l0.1,16.3C72.1,134.6,59.7,147.9,44.4,148z M62.9,57.8
	c5.6,5.6,8.8,13.1,8.8,21.3l0.1,15.1H44l0-3c4.9-1.4,8.5-6,8.5-11.6l-0.1-9.4c0-5.4-3.6-10-8.5-11.4l0-8.8
	C51.1,49.9,57.7,52.7,62.9,57.8z"/>
</svg>
