<?xml version="1.0" encoding="utf-8"?>
<!-- Generator: Adobe Illustrator 25.2.1, SVG Export Plug-In . SVG Version: 6.00 Build 0)  -->
<svg version="1.1" id="Layer_1" xmlns="http://www.w3.org/2000/svg" xmlns:xlink="http://www.w3.org/1999/xlink" x="0px" y="0px"
	 width="122.1px" height="146.6px" viewBox="0 0 122.1 146.6" style="enable-background:new 0 0 122.1 146.6;" xml:space="preserve"
	>
<style type="text/css">
	.st0{fill:#0F2D52;}
</style>
<path class="st0" d="M116.4,94.8c-4.9-7-17.7-10-28-12.4c-3.2-0.7-6.1-1.4-8-2.1c0,0,0,0,0,0c-0.3-0.9-0.6-1.9-0.7-2.9
	c5.8-5,10.5-12.4,13.1-21.4c0.1-0.2,0.1-0.4,0.1-0.6l0.9-6.7c0.2-0.3,0.3-0.6,0.4-1l2.2-10.9c0.1-0.3,0.1-0.5,0.1-0.8
	c0-14.5-3.5-24.4-10.8-30.2c-7.4-6-18.4-7.3-33.4-4c-3.6-0.2-10,1-15.6,5.7C31.7,11.3,26,19,25.5,33.6c0,0.2,0,0.5,0,0.7l1.8,13.2
	c0.2,1.1,0.8,2.2,1.8,2.8l0.6,5c0,0.2,0.1,0.4,0.1,0.6c2.7,9.1,7.5,16.7,13.5,21.7c-0.1,0.9-0.3,1.7-0.5,2.5
	c-1.8,0.7-5.1,1.5-8.7,2.3c-10.5,2.4-23.5,5.4-28.5,12.5c-6.3,9-5.8,41.4-5.6,47.8c0.1,2.2,1.8,3.9,4,3.9H118c2.2,0,3.9-1.7,4-3.9
	C122.2,136.2,122.7,103.8,116.4,94.8z M73.2,84.1c-0.8,3-3.6,9.9-12.2,9.9c-7.8,0-10.6-5.9-11.5-9.1c0.4-0.9,0.8-1.8,1-2.7
	c3.4,1.6,7.1,2.4,10.8,2.4c3.8,0,7.6-0.9,11.1-2.5C72.6,82.8,72.9,83.5,73.2,84.1z M41.5,13.6c4.5-3.8,9.4-4,10.1-3.8
	c0.5,0.1,1,0.1,1.5,0C66,6.8,74.9,7.6,80.5,12c4.9,3.9,7.5,11.2,7.8,21.7c-1.3-2.8-2.5-3.2-3.4-3.5c-0.8-0.3-1.7-0.4-3.1-0.5
	C77.1,29.1,67.4,28,58,20.3c-0.7-0.6-1.6-0.9-2.5-0.9c-0.9,0-1.7,0.3-2.4,0.8c-7,5.4-11.1,5.6-13.5,5.7c-1,0-2,0.1-3,0.4
	c-0.8,0.3-1.7,0.6-2.6,2.1C35,21.8,37.6,16.9,41.5,13.6z M37.6,53.9L37,48.8c0.6-0.6,1-1.4,1.1-2.3c0.5-4.6,1.5-10.1,2.3-12.6
	c2.9-0.1,7.8-0.6,15.1-5.5c10.4,7.5,20.8,8.7,25.4,9.2c0.1,0,0.3,0,0.4,0c0.7,1.7,1.6,5.5,2.1,9c0.2,1.3,1,2.3,2.1,2.9l-0.6,4.5
	c-2.3,7.8-6.4,14.1-11.4,18c-0.4,0.2-0.7,0.4-0.9,0.7c-3.4,2.5-7.3,3.8-11.2,3.8C51.2,76.6,41.7,67.5,37.6,53.9z M114.1,138.5H8
	c-0.1-14.7,1-34.5,4.2-39.1c3.2-4.6,15.5-7.4,23.7-9.3c2.4-0.5,4.5-1,6.3-1.5C44.5,94.7,50,102,61,102c10.9,0,16.7-7.3,19.1-13.4
	c1.9,0.5,4,1,6.4,1.6c8,1.9,20.1,4.7,23.3,9.2C113.1,104,114.2,123.8,114.1,138.5z"/>
</svg>
