<?xml version="1.0" encoding="utf-8"?>
<!-- Generator: Adobe Illustrator 25.2.1, SVG Export Plug-In . SVG Version: 6.00 Build 0)  -->
<svg version="1.1" id="Layer_1" xmlns="http://www.w3.org/2000/svg" xmlns:xlink="http://www.w3.org/1999/xlink" x="0px" y="0px"
	 width="130.5px" height="144.3px" viewBox="0 0 130.5 144.3" style="enable-background:new 0 0 130.5 144.3;" xml:space="preserve"
	>
<style type="text/css">
	.st0{fill:#E2F3FA;}
	.st1{fill:#FFC846;}
	.st2{fill:#0F2D52;}
</style>
<path class="st0" d="M70.8,59.3c-17.2,2.9-28.1-31.8-28.1-31.8l-2,17.5c22.7,47.5,45.9,72.6,59.5,91.5c3.8,5.3,12.1,1.1,10.2-5.1
	C100.5,100.3,70.8,59.3,70.8,59.3z"/>
<path class="st1" d="M44.8,55.3c-0.7,0-1.4-0.4-1.8-1.1c-1-2-2-4.1-3-6.1c-1.2,1.2-2.7,2.2-4.2,2.9c-2.3,1.1-4.8,1.7-7.4,1.7
	C20,52.7,11.6,47,7.1,38.1c-3.3-6.5-4-13.8-1.9-19.9c1.6-4.7,4.8-8.4,8.9-10.4C16.4,6.6,18.9,6,21.5,6c8.5,0,16.8,5.7,21.3,14.6
	c1.5,2.9,2.4,6,2.8,9.2c1.6,4.2,4.8,11.8,9.3,18.1c0.3,0.5,0.5,1.1,0.3,1.7c-0.1,0.6-0.5,1.1-1.1,1.3L45.6,55
	C45.3,55.2,45,55.3,44.8,55.3z M22.9,18.7c-1.1,0-2.1,0.2-3,0.7c-1.7,0.8-3,2.3-3.7,4.3c-1,2.8-0.6,6.3,0.9,9.4
	c2.1,4.1,6,6.9,9.8,6.9c1.1,0,2.1-0.2,3-0.7c1.7-0.8,3-2.3,3.7-4.3c1-2.8,0.6-6.3-0.9-9.4C30.6,21.5,26.7,18.7,22.9,18.7z"/>
<path class="st0" d="M90.6,43.7l-2.7-17.4c0,0-9.4,35.1-26.7,32.9c0,0-27.5,42.3-36,73.7c-1.7,6.3,6.8,10.1,10.4,4.6
	C48.4,118.2,70,92.1,90.6,43.7z"/>
<path class="st2" d="M71.1,70.8c0.9-2,0-4.4-2.1-5.3s-4.5,0-5.4,2s0,4.4,2.1,5.3C67.8,73.7,70.2,72.8,71.1,70.8z"/>
<path class="st1" d="M87,54.2c-0.3,0-0.5-0.1-0.8-0.2l-8.7-3.8c-0.5-0.2-1-0.7-1.1-1.3c-0.2-0.6-0.1-1.2,0.2-1.7
	c4.3-6.5,7.1-14.3,8.5-18.5c0.3-3.2,1.1-6.3,2.4-9.3C91.7,10.2,100.3,4,108.9,4c2.4,0,4.6,0.5,6.8,1.4c4.2,1.8,7.5,5.4,9.3,10
	c2.3,6,2,13.3-1,20c-4.2,9.3-12.8,15.5-21.4,15.5l0,0c-2.4,0-4.6-0.5-6.8-1.4c-1.6-0.7-3-1.6-4.3-2.8c-0.9,2.1-1.8,4.2-2.7,6.2
	C88.5,53.7,87.7,54.2,87,54.2z M107.6,16.7c-3.9,0-7.8,2.9-9.8,7.3c-1.4,3.2-1.6,6.6-0.5,9.4c0.8,2,2.1,3.4,3.8,4.2
	c0.9,0.4,1.8,0.6,2.7,0.6c3.9,0,7.8-2.9,9.8-7.3c1.4-3.2,1.6-6.6,0.5-9.4c-0.8-2-2.1-3.4-3.8-4.2C109.5,16.9,108.6,16.7,107.6,16.7z
	"/>
<g>
	<path class="st2" d="M22.9,14.7c-1.8,0-3.4,0.4-4.8,1.1c-2.6,1.3-4.6,3.6-5.6,6.5c-1.3,3.8-1,8.3,1.1,12.6
		c2.8,5.5,8.1,9.1,13.4,9.1c1.8,0,3.4-0.4,4.8-1.1c2.6-1.3,4.6-3.6,5.6-6.5c1.3-3.8,1-8.3-1.1-12.6C33.4,18.3,28.2,14.7,22.9,14.7z
		 M29.8,33.7c-0.2,0.7-0.7,1.6-1.6,2c-0.1,0-0.2,0.1-0.2,0.1c-0.1,0-0.4,0.2-1.1,0.2c-2.2,0-4.8-1.9-6.2-4.6
		c-1.1-2.2-1.3-4.6-0.7-6.3c0.2-0.7,0.7-1.6,1.6-2c0.1,0,0.2-0.1,0.2-0.1c0.1,0,0.4-0.2,1.1-0.2c2.2,0,4.8,1.9,6.2,4.6
		C30.2,29.5,30.4,32,29.8,33.7z"/>
	<path class="st2" d="M128.7,13.9c-2.2-5.7-6.3-10-11.5-12.2c-2.8-1.1-5.5-1.7-8.3-1.7C98.8,0,88.7,7.1,83.8,17.8
		c-1.4,3.2-2.3,6.6-2.7,10c-2.4,7-5,12.8-7.9,17.1c0,0-0.1,0.1-0.1,0.1c-0.8,1.3-1,2.8-0.7,4.3c-2.1,2.5-4.4,4.5-6.9,5.3
		c-2.2-0.9-4.4-2.6-6.3-4.8c0.2-1.4-0.1-2.8-0.9-4.2c-0.1-0.1-0.1-0.2-0.2-0.3c-3.9-5.4-6.8-12-8.7-16.8c-0.5-3.6-1.6-7-3.1-10
		C41.2,8.6,31.4,2,21.5,2c-3.3,0-6.3,0.8-9.2,2.2c-5.1,2.5-8.9,7-10.9,12.7C-1,24-0.3,32.4,3.5,39.9c5.2,10.2,14.9,16.8,24.9,16.8
		c3.2,0,6.2-0.7,9.1-2.1c0.3-0.2,0.7-0.3,1-0.5c0.3,0.6,0.6,1.3,0.9,1.9c0,0.1,0.1,0.1,0.1,0.2c0.8,1.5,2.2,2.5,3.7,2.9
		c2.1,4,4.2,7.8,6.2,11.5C40.6,85.8,27,111,21.3,131.9c-1.3,4.7,1,9.4,5.4,11.4c1.3,0.6,2.7,0.9,4.1,0.9c3.2,0,6.2-1.6,8.1-4.4
		c2.5-3.7,5.3-7.7,8.3-12c5.7-8.2,12.4-17.7,19.6-29.3c7.4,10.9,14.4,19.8,20.3,27.5c3.6,4.6,6.9,9,9.8,12.9
		c1.9,2.7,4.8,4.1,7.8,4.1c1.5,0,3-0.3,4.4-1.1c4.4-2.2,6.5-7,5-11.7c-6.6-20.9-21.7-45.6-31.4-60.3c1.9-3.8,3.8-7.8,5.8-11.9
		c1.7-0.5,3.2-1.8,3.9-3.5c0.3-0.6,0.5-1.2,0.8-1.7c0.3,0.2,0.7,0.3,1,0.5c2.8,1.1,5.5,1.7,8.3,1.7c10.2,0,20.2-7.2,25.1-17.9
		C131,29.4,131.4,21,128.7,13.9z M45.1,49.4c-0.5-1-1-2.1-1.5-3.1c-0.6-1.1-1.7-2-2.9-2.2c-0.2,0-0.4-0.1-0.6-0.1
		c-1.1,0-2.1,0.4-2.8,1.2c-0.8,0.8-1.9,1.6-3.1,2.1c-1.8,0.9-3.7,1.3-5.7,1.3c-7,0-13.9-4.9-17.7-12.4C7.8,30.7,7.2,24.6,9,19.5
		c1.2-3.7,3.7-6.5,6.9-8.1c0,0,0.1,0,0.1,0c1.7-0.9,3.6-1.3,5.5-1.3c7,0,13.9,4.9,17.7,12.4c1.2,2.4,2,5,2.4,7.9
		c0,0.3,0.1,0.6,0.2,0.9c1.8,4.7,4.6,11.2,8.5,17.1l-4.7,2.3C45.5,50.2,45.3,49.8,45.1,49.4z M51.1,56.8l2.3-1.1
		c1,1.1,2.1,2.2,3.3,3.1c-0.6,1-1.4,2.3-2.5,3.9C53.2,60.8,52.2,58.8,51.1,56.8z M40.7,123.1c-3,4.3-5.9,8.4-8.4,12.2
		c-0.7,1.1-1.7,0.9-2.2,0.7c-0.6-0.3-1.3-0.9-1-2c7.2-26.7,28.9-62.1,34.3-70.6c6-0.2,11-3.7,15-8.4l2.4,1
		C66.2,86.8,51.7,107.5,40.7,123.1z M106.6,132.6c0.4,1.2-0.4,1.9-0.9,2.1c-0.6,0.3-1.5,0.5-2.2-0.5c-2.9-4.1-6.3-8.5-9.9-13.1
		c-6.4-8.3-14-18.1-22.1-30.2c2.4-4,4.8-8.3,7.2-12.8C88,92.6,100.8,114.5,106.6,132.6z M120.4,33.8c-3.6,7.9-10.7,13.1-17.8,13.1
		c-1.8,0-3.4-0.4-5.2-1.1c-1.2-0.5-2.2-1.2-3.2-2.1c-1-0.9-2.3-1.2-3.5-1c-1.3,0.3-2.3,1.1-2.8,2.3l0,0.1c-0.6,1.4-1.2,2.9-1.9,4.3
		l-4.8-2.1C84,42.7,86.6,37,88.9,30c0.1-0.3,0.2-0.6,0.2-0.9c0.3-2.8,1-5.5,2.1-8C94.7,13.2,101.8,8,108.9,8c1.8,0,3.4,0.4,5.2,1.1
		c3.2,1.4,5.7,4.1,7.1,7.8C123.2,21.9,122.9,28.1,120.4,33.8z"/>
	<path class="st2" d="M112.1,13.7c-1.4-0.7-2.9-1-4.5-1c-5.5,0-10.8,3.8-13.5,9.7c-1.8,4.2-2,8.7-0.5,12.5c1.2,2.9,3.2,5.1,5.9,6.4
		c1.4,0.6,2.9,0.9,4.3,0.9c5.5,0,10.8-3.8,13.5-9.7c1.8-4.2,2-8.7,0.5-12.5C116.7,17.1,114.6,14.9,112.1,13.7z M110,29.2
		c-1.3,2.9-3.9,5-6.2,5c-0.3,0-0.7-0.1-1-0.2c-0.5-0.2-1.2-0.7-1.8-2c-0.7-1.8-0.5-4.1,0.4-6.3c1.3-2.9,3.9-5,6.2-5
		c0.4,0,0.7,0.1,1,0.2c0.5,0.2,1.2,0.7,1.8,2C111.1,24.7,110.9,27.1,110,29.2z"/>
</g>
</svg>
