<?xml version="1.0" encoding="utf-8"?>
<!-- Generator: Adobe Illustrator 25.2.1, SVG Export Plug-In . SVG Version: 6.00 Build 0)  -->
<svg version="1.1" id="Layer_1" xmlns="http://www.w3.org/2000/svg" xmlns:xlink="http://www.w3.org/1999/xlink" x="0px" y="0px"
	 width="179.8px" height="114.4px" viewBox="0 0 179.8 114.4" style="enable-background:new 0 0 179.8 114.4;" xml:space="preserve"
	>
<style type="text/css">
	.st0{fill:#007EC4;}
	.st1{fill:#F4AB1C;}
	.st2{fill:#132D52;}
</style>
<path class="st0" d="M90.2,105c26,0,47.1-10.3,53.3-13.7V56.4L92.1,76.7c-0.6,0.3-1.2,0.4-1.9,0.4s-1.3-0.1-1.9-0.4L36.9,56.4v34.9
	C43.2,94.7,64.3,105,90.2,105z"/>
<path class="st0" d="M18.6,37.8l71.8-7.2c2.2-0.2,4.2,1.4,4.4,3.6c0.2,2.2-1.4,4.2-3.6,4.4l-61.8,6.2l60.9,24.1l76.6-30.3L90.2,8.3
	L13.6,38.6l1.4,0.5c1-0.6,2.2-1,3.4-1.2C18.5,37.8,18.5,37.8,18.6,37.8z"/>
<path class="st1" d="M14.4,106.4c2.4,0,4.6-0.6,6.2-1.2c-0.6-5.4-2-10.9-3.7-13.9c-0.8,0.2-1.6,0.4-2.5,0.4c-0.9,0-1.7-0.1-2.5-0.4
	c-1.7,3-3.1,8.5-3.7,13.9C9.8,105.8,12,106.4,14.4,106.4z"/>
<path class="st1" d="M13.7,83c0,0.4,0.3,0.7,0.7,0.7c0.4,0,0.7-0.3,0.7-0.7s-0.3-0.7-0.7-0.7C14,82.3,13.7,82.6,13.7,83z"/>
<path class="st2" d="M176.5,33.8L92.2,0.4c-1.2-0.5-2.6-0.5-3.8,0L3.9,33.8c-0.1,0-0.1,0-0.2,0.1c-2,0.9-3.1,2.8-3,5
	c0.1,2.1,1.4,3.8,3.3,4.5l6.5,2.6c-0.1,0.5-0.1,0.9-0.1,1.4v28c-2.8,1.5-4.7,4.4-4.7,7.7c0,0.9,0.1,1.8,0.4,2.7
	c-5,6.7-5.9,18.7-6.1,21.8c-0.1,1.5,0.7,2.9,2,3.7c0.2,0.1,5.7,3.2,12.4,3.2c6.7,0,12.2-3.1,12.4-3.2c1.3-0.8,2.1-2.2,2-3.7
	c-0.2-3.1-1.1-15.2-6.1-21.8c0.3-0.8,0.4-1.7,0.4-2.7c0-3.4-1.9-6.3-4.7-7.7V49l10.5,4.2v40.4c0,1.4,0.7,2.7,1.9,3.4
	c1.1,0.7,26.2,16,59.4,16c33.3,0,58.4-15.3,59.4-16c1.2-0.7,1.9-2,1.9-3.4V53.2l25-9.9c2-0.7,3.3-2.6,3.3-4.8
	C179.8,36.4,178.5,34.5,176.5,33.8z M15.1,83c0,0.4-0.3,0.7-0.7,0.7c-0.4,0-0.7-0.3-0.7-0.7s0.3-0.7,0.7-0.7
	C14.8,82.3,15.1,82.6,15.1,83z M14.4,106.4c-2.4,0-4.6-0.6-6.2-1.2c0.6-5.4,2-10.9,3.7-13.9c0.8,0.2,1.6,0.4,2.5,0.4
	c0.9,0,1.7-0.1,2.5-0.4c1.7,3,3.1,8.5,3.7,13.9C19,105.8,16.8,106.4,14.4,106.4z M143.5,91.3c-6.2,3.4-27.3,13.7-53.3,13.7
	c-25.9,0-47-10.3-53.3-13.7V56.4l51.5,20.3c0.6,0.3,1.2,0.4,1.9,0.4s1.3-0.1,1.9-0.4l51.4-20.3V91.3z M90.2,68.8L29.4,44.8l61.8-6.2
	c2.2-0.2,3.8-2.2,3.6-4.4c-0.2-2.2-2.2-3.8-4.4-3.6l-71.8,7.2c-0.1,0-0.1,0-0.2,0C17.1,38,16,38.5,15,39.1l-1.4-0.5L90.2,8.3
	l76.6,30.3L90.2,68.8z"/>
</svg>
