<?xml version="1.0" encoding="utf-8"?>
<!-- Generator: Adobe Illustrator 25.2.1, SVG Export Plug-In . SVG Version: 6.00 Build 0)  -->
<svg version="1.1" id="Layer_1" xmlns="http://www.w3.org/2000/svg" xmlns:xlink="http://www.w3.org/1999/xlink" x="0px" y="0px"
	 width="125.5px" height="168.8px" viewBox="0 0 125.5 168.8" style="enable-background:new 0 0 125.5 168.8;" xml:space="preserve"
	>
<style type="text/css">
	.st0{fill:#007EC4;}
	.st1{fill:#E2F3F9;}
	.st2{fill:#384877;}
	.st3{fill:#0F2D52;}
</style>
<path class="st0" d="M110.5,164.8H14.9c-6,0-10.9-4.9-10.9-10.9V26.5c0-6,4.9-10.9,10.9-10.9h95.6c6,0,10.9,4.9,10.9,10.9v127.4
	C121.5,159.9,116.6,164.8,110.5,164.8z"/>
<path class="st1" d="M98,145H27.4c-3.1,0-5.6-2.5-5.6-5.6V40.8c0-3.1,2.5-5.6,5.6-5.6H98c3.1,0,5.6,2.5,5.6,5.6v98.7
	C103.6,142.5,101.1,145,98,145z"/>
<path class="st2" d="M77,20.3c0.1-0.5,0.1-1,0.1-1.5C77.1,10.6,70.5,4,62.3,4s-14.8,6.6-14.8,14.8c0,0.5,0,1,0.1,1.5
	c-13.3,2.4-22.7,8-22.7,14.5h74.9C99.7,28.4,90.4,22.8,77,20.3z"/>
<path class="st3" d="M48.9,81.1c-1.8,0-3.5-1.2-3.9-3.1c-0.9-3.8-1.9-7.6-2.9-11.3c-0.6-2.1,0.7-4.3,2.9-4.9
	c2.1-0.6,4.3,0.7,4.9,2.9c1,3.8,2,7.6,2.9,11.5c0.5,2.1-0.8,4.3-3,4.8C49.5,81.1,49.2,81.1,48.9,81.1z"/>
<path class="st3" d="M42.2,77.6c-1.3,0-2.6-0.7-3.4-1.9c-1.2-1.9-0.6-4.3,1.2-5.5c2.6-1.6,5.3-2,7.7-2.3c1.5-0.2,2.9-0.4,4-0.9
	c2-0.9,4.4,0,5.3,2c0.9,2,0,4.4-2,5.3c-2.1,1-4.3,1.3-6.3,1.5c-1.8,0.2-3.4,0.4-4.5,1.1C43.7,77.4,42.9,77.6,42.2,77.6z"/>
<path class="st3" d="M82.2,130.1c-1,0-1.9-0.3-2.7-1c-3.4-3.1-6.6-6.2-9.8-9.3c-1.6-1.5-1.6-4.1-0.1-5.7c1.5-1.6,4.1-1.6,5.7-0.1
	c3.1,3,6.3,6.1,9.6,9.1c1.6,1.5,1.8,4,0.3,5.7C84.4,129.7,83.3,130.1,82.2,130.1z"/>
<path class="st3" d="M73.2,129.7c-0.5,0-1-0.1-1.5-0.3c-2.1-0.8-3.1-3.1-2.3-5.2c1.2-3,3.4-5.1,5.3-7c1.3-1.3,2.5-2.4,3.2-3.7
	c1-1.9,3.5-2.7,5.4-1.6c1.9,1,2.7,3.5,1.6,5.4c-1.3,2.4-3.1,4.1-4.7,5.7c-1.5,1.5-2.8,2.7-3.4,4.1C76.3,128.7,74.8,129.7,73.2,129.7
	z"/>
<path class="st3" d="M55.5,113.7c-1.9,0-3.6-1.3-3.9-3.3c-0.4-2.2,1-4.3,3.2-4.7c4.4-0.8,9.1-3.8,13.1-8.2c3.2-3.5,5.6-9.2,6.2-14.6
	c0.2-2.2,2.2-3.8,4.4-3.6c2.2,0.2,3.8,2.2,3.6,4.4c-0.7,7.2-3.9,14.5-8.3,19.2c-3,3.3-9.2,9-17.5,10.6
	C56,113.7,55.7,113.7,55.5,113.7z"/>
<path class="st3" d="M82.6,91.6c-1.1,0-2.1-0.4-2.9-1.3c-0.8-0.9-1.6-1.8-2.4-2.8c-0.6,0.4-1.3,0.8-1.9,1.2
	c-1.9,1.1-4.4,0.5-5.5-1.4c-1.1-1.9-0.5-4.4,1.4-5.5c1.5-0.9,3-2,4.3-3.1c0.9-0.8,2.1-1.1,3.3-0.9c1.2,0.2,2.2,0.9,2.8,2
	c1.1,1.8,2.3,3.5,3.7,5c1.5,1.6,1.4,4.1-0.2,5.7C84.6,91.2,83.6,91.6,82.6,91.6z"/>
<path class="st3" d="M81.6,73.2c-5.5,0-10-4.5-10-10s4.5-10,10-10s10,4.5,10,10S87.1,73.2,81.6,73.2z M81.6,61.2c-1.1,0-2,0.9-2,2
	s0.9,2,2,2s2-0.9,2-2S82.7,61.2,81.6,61.2z"/>
<path class="st3" d="M41.2,126c-5.5,0-10-4.5-10-10s4.5-10,10-10s10,4.5,10,10S46.7,126,41.2,126z M41.2,114c-1.1,0-2,0.9-2,2
	s0.9,2,2,2s2-0.9,2-2S42.3,114,41.2,114z"/>
<path class="st3" d="M110.5,11.6H79.8c0.1,0.2,0.1,0.5,0.2,0.7C77.3,5.1,70.4,0,62.3,0c-7.8,0-14.5,4.8-17.4,11.6h-30
	C6.7,11.6,0,18.3,0,26.5v127.4c0,8.2,6.7,14.9,14.9,14.9h95.6c4.1,0,7.9-1.6,10.7-4.5c2.8-2.8,4.3-6.6,4.2-10.4V26.5
	C125.4,18.3,118.7,11.6,110.5,11.6z M50.9,22.5c0.6-0.9,0.8-2,0.6-3c0-0.1,0-0.5,0-0.7c0-6,4.8-10.8,10.8-10.8s10.8,4.8,10.8,10.8
	c0,0.3,0,0.6,0,0.7c-0.2,1,0,2.1,0.6,3c0.6,0.9,1.5,1.5,2.6,1.7c8.1,1.5,13.8,4,16.9,6.6H31.4c3-2.5,8.8-5.1,16.9-6.6
	C49.4,24,50.3,23.4,50.9,22.5z M99.6,40.8v98.7c0,0.8-0.7,1.5-1.6,1.5H27.4c-0.9,0-1.6-0.7-1.6-1.6V40.8c0-0.9,0.7-1.6,1.6-1.6H98
	C98.9,39.2,99.6,39.9,99.6,40.8z M115.5,158.7c-1.3,1.3-3.1,2.1-5,2.1H14.9c-3.8,0-6.9-3.1-6.9-6.9V26.5c0-3.8,3.1-6.9,6.9-6.9h20.4
	C26.7,23,21.6,28,21,33.7c-1.9,1.8-3.2,4.3-3.2,7.1v98.6c0,5.3,4.3,9.6,9.6,9.6H98c5.3,0,9.6-4.3,9.6-9.5V40.8c0-3.2-1.6-6-4-7.8
	c-0.9-5.5-6-10.2-14.3-13.4h21.2c3.8,0,6.9,3.1,6.9,6.9l0,127.5C117.4,155.8,116.8,157.4,115.5,158.7z"/>
</svg>
