<?xml version="1.0" encoding="utf-8"?>
<!-- Generator: Adobe Illustrator 25.2.1, SVG Export Plug-In . SVG Version: 6.00 Build 0)  -->
<svg version="1.1" id="Layer_1" xmlns="http://www.w3.org/2000/svg" xmlns:xlink="http://www.w3.org/1999/xlink" x="0px" y="0px"
	 width="125.5px" height="168.8px" viewBox="0 0 125.5 168.8" style="enable-background:new 0 0 125.5 168.8;" xml:space="preserve"
	>
<style type="text/css">
	.st0{fill:#0F2D52;}
</style>
<g>
	<path class="st0" d="M110.5,11.5H79.6C76.7,4.8,70.1,0,62.3,0c-7.8,0-14.5,4.8-17.4,11.6h-30C6.7,11.6,0,18.3,0,26.5v127.3
		c0,8.2,6.7,14.9,14.9,14.9h95.6c8.2,0,14.9-6.7,14.9-14.9V26.4C125.4,18.2,118.7,11.5,110.5,11.5z M62.3,8c5.1,0,9.3,3.5,10.5,8.2
		c0,0.1,0.1,0.3,0.1,0.4c0.1,0.7,0.2,1.4,0.2,2.2c0,0.3,0,0.6,0,0.7c-0.2,1,0,2.1,0.6,3c0.6,0.9,1.5,1.5,2.6,1.7
		c8.1,1.5,13.8,4,16.9,6.6H31.4c3-2.5,8.8-5.1,16.9-6.6c1.1-0.2,2-0.8,2.6-1.7c0.6-0.9,0.8-2,0.6-3c0-0.1,0-0.5,0-0.7
		C51.5,12.8,56.3,8,62.3,8z M99.6,40.8v98.7c0,0.8-0.7,1.5-1.6,1.5H27.4c-0.9,0-1.6-0.7-1.6-1.6V40.8c0-0.9,0.7-1.6,1.6-1.6H98
		C98.9,39.2,99.6,39.9,99.6,40.8z M117.4,153.8c0,3.8-3.1,6.9-6.9,6.9H14.9c-3.8,0-6.9-3.1-6.9-6.9V26.5c0-3.8,3.1-6.9,6.9-6.9h20.4
		C26.7,23,21.6,28,21,33.7c-1.9,1.8-3.2,4.3-3.2,7.1v98.6c0,5.3,4.3,9.6,9.6,9.6H98c5.3,0,9.6-4.3,9.6-9.5V40.8c0-3.2-1.6-6-4-7.8
		c-1-5.5-6.1-10.3-14.6-13.5h21.4c3.8,0,6.9,3.1,6.9,6.9V153.8z"/>
	<path class="st0" d="M37.8,60.8C37.8,60.8,37.8,60.8,37.8,60.8l49.3-0.1c2.2,0,4-1.8,4-4c0-2.2-1.8-4-4-4c0,0,0,0,0,0l-49.3,0.1
		c-2.2,0-4,1.8-4,4C33.8,59,35.6,60.8,37.8,60.8z"/>
	<path class="st0" d="M87.6,74.1C87.6,74.1,87.6,74.1,87.6,74.1l-49.4,0.1c-2.2,0-4,1.8-4,4c0,2.2,1.8,4,4,4c0,0,0,0,0,0l49.4-0.1
		c2.2,0,4-1.8,4-4C91.6,75.9,89.8,74.1,87.6,74.1z"/>
	<path class="st0" d="M37.8,103.8C37.8,103.8,37.8,103.8,37.8,103.8l49.3-0.1c2.2,0,4-1.8,4-4c0-2.2-1.8-4-4-4c0,0,0,0,0,0
		l-49.3,0.1c-2.2,0-4,1.8-4,4C33.8,102,35.6,103.8,37.8,103.8z"/>
	<path class="st0" d="M87.6,117.1C87.6,117.1,87.6,117.1,87.6,117.1l-49.4,0.1c-2.2,0-4,1.8-4,4c0,2.2,1.8,4,4,4c0,0,0,0,0,0
		l49.4-0.1c2.2,0,4-1.8,4-4C91.6,118.9,89.8,117.1,87.6,117.1z"/>
</g>
</svg>
