<?xml version="1.0" encoding="utf-8"?>
<!-- Generator: Adobe Illustrator 25.2.1, SVG Export Plug-In . SVG Version: 6.00 Build 0)  -->
<svg version="1.1" id="Layer_1" xmlns="http://www.w3.org/2000/svg" xmlns:xlink="http://www.w3.org/1999/xlink" x="0px" y="0px"
	 width="145.9px" height="106.7px" viewBox="0 0 145.9 106.7" style="enable-background:new 0 0 145.9 106.7;" xml:space="preserve"
	>
<style type="text/css">
	.st0{fill:#EA2C38;}
	.st1{fill:#0F2D52;}
</style>
<g>
	<path class="st0" d="M73,30.5C75.7,20.2,85.8,4,106.6,4C127,4,142,18.1,142,37s-13.6,30.9-26.8,41.1C105,85.8,73,102.7,73,102.7
		S41,85.8,30.9,78.1C17.6,67.9,4,55.9,4,37S19,4,39.4,4C60.1,4,70.2,20.2,73,30.5z"/>
	<path class="st1" d="M73,106.7c-0.6,0-1.3-0.2-1.9-0.5c-1.3-0.7-32.4-17.1-42.7-25C14.7,70.7,0,57.7,0,37C0,15.9,16.9,0,39.4,0
		c17.4,0,28,10.3,33.6,20.1C78.4,10.3,89.1,0,106.6,0C129.1,0,146,15.9,146,37c0,20.6-14.6,33.7-28.4,44.3
		c-10.4,7.8-41.5,24.3-42.8,25C74.3,106.5,73.6,106.7,73,106.7z M39.4,8C21.2,8,8,20.2,8,37c0,17.1,12.5,28.1,25.3,37.9
		C41.7,81.3,66,94.5,73,98.2c7-3.7,31.4-16.9,39.8-23.3C125.5,65.1,138,54,138,37c0-16.8-13.2-29-31.4-29C88,8,79.2,22.8,76.9,31.5
		c-0.5,1.8-2,3-3.9,3c0,0,0,0,0,0c-1.8,0-3.4-1.2-3.9-3C68.5,29.1,62.1,8,39.4,8z"/>
</g>
</svg>
