<?xml version="1.0" encoding="utf-8"?>
<!-- Generator: Adobe Illustrator 25.2.1, SVG Export Plug-In . SVG Version: 6.00 Build 0)  -->
<svg version="1.1" id="Layer_1" xmlns="http://www.w3.org/2000/svg" xmlns:xlink="http://www.w3.org/1999/xlink" x="0px" y="0px"
	 width="151.6px" height="151.6px" viewBox="0 0 151.6 151.6" style="enable-background:new 0 0 151.6 151.6;" xml:space="preserve"
	>
<style type="text/css">
	.st0{fill:#AAD268;}
	.st1{fill:#0F2D52;}
	.st2{fill:#FFFFFF;}
	.st3{fill:#EA2C38;}
	.st4{fill:none;}
</style>
<path class="st0" d="M75.8,147.6C36.2,147.6,4,115.4,4,75.8S36.2,4,75.8,4s71.8,32.2,71.8,71.8S115.4,147.6,75.8,147.6z"/>
<path class="st1" d="M75.8,151.6C34,151.6,0,117.6,0,75.8C0,34,34,0,75.8,0c41.8,0,75.8,34,75.8,75.8
	C151.6,117.6,117.6,151.6,75.8,151.6z M75.8,8C38.4,8,8,38.4,8,75.8c0,37.4,30.4,67.8,67.8,67.8s67.8-30.4,67.8-67.8
	C143.6,38.4,113.2,8,75.8,8z"/>
<path class="st2" d="M75.8,130.3c-30.3,0-55-24.7-55-55s24.7-55,55-55s55,24.7,55,55C130.8,105.7,106.1,130.3,75.8,130.3z"/>
<path class="st1" d="M75.8,134.3c-32.5,0-59-26.5-59-59c0-32.5,26.5-59,59-59c32.5,0,59,26.5,59,59
	C134.8,107.8,108.3,134.3,75.8,134.3z M75.8,24.3c-28.1,0-51,22.9-51,51c0,28.1,22.9,51,51,51c28.1,0,51-22.9,51-51
	C126.8,47.2,103.9,24.3,75.8,24.3z"/>
<path class="st3" d="M75.8,33.1l0.1,42.3"/>
<line class="st4" x1="75.9" y1="75.5" x2="45.2" y2="76.1"/>
<path class="st1" d="M79.9,64.4l-0.1-31.3c0-2.2-1.8-4-4-4c0,0,0,0,0,0c-2.2,0-4,1.8-4,4l0.1,31.3c-3.3,1.2-6,3.9-7.1,7.3l-19.6,0.4
	c-2.2,0-4,1.9-3.9,4.1c0,2.2,1.8,3.9,4,3.9c0,0,0.1,0,0.1,0l19.6-0.4c1.7,4.4,6,7.6,11,7.6c6.5,0,11.8-5.3,11.8-11.8
	C87.7,70.4,84.4,66,79.9,64.4z"/>
<path class="st3" d="M79.9,75.5c0-2.2-1.8-4-4-4s-4,1.8-4,4s1.8,4,4,4C78.2,79.5,79.9,77.7,79.9,75.5z"/>
</svg>
