<?xml version="1.0" encoding="utf-8"?>
<!-- Generator: Adobe Illustrator 25.2.1, SVG Export Plug-In . SVG Version: 6.00 Build 0)  -->
<svg version="1.1" id="Capa_1" xmlns="http://www.w3.org/2000/svg" xmlns:xlink="http://www.w3.org/1999/xlink" x="0px" y="0px"
	 width="29.9px" height="30.2px" viewBox="0 0 29.9 30.2" style="enable-background:new 0 0 29.9 30.2;" xml:space="preserve">
<style type="text/css">
	.st0{fill:#D6A56B;}
	.st1{fill:none;}
	.st2{fill:#0C243C;}
	.st3{fill:#0F2D52;}
	.st4{fill:#72BDE9;}
	.st5{fill:#AAD268;}
</style>
<g transform="translate(-3.466 -2.961)">
	<path class="st0" d="M15.3,19.2c0.7,1,1.1,2.1,1.1,3.3v4.8c0,0.4-0.3,5.2-0.7,5.2l-5.7,0c-0.3,0-0.3-4.1-0.3-4.4
		c-0.2-0.5-0.5-1.1-0.8-1.5l-4.5-5.8C4.2,20.4,4,19.9,4,19.5v-9.4c0-0.8,0.7-1.4,1.4-1.3c0.7,0,1.3,0.6,1.3,1.3l0.3,7l3.6,4
		c0.2,0.3,0.7,0.3,1,0.1c0,0,0,0,0.1-0.1c0,0,0.5-1.2,0.3-1.5l-1.3-2.2c-0.5-0.6-0.4-1.5,0.2-1.9c0.6-0.5,1.5-0.4,1.9,0.2
		c0,0,0,0,0,0L15.3,19.2z"/>
	<path class="st1" d="M15.3,19.2c0.7,1,1.1,2.1,1.1,3.3v4.8c0,0.4-0.3,5.2-0.7,5.2l-5.7,0c-0.3,0-0.3-4.1-0.3-4.4
		c-0.2-0.5-0.5-1.1-0.8-1.5l-4.5-5.8C4.2,20.4,4,19.9,4,19.5v-9.4c0-0.8,0.7-1.4,1.4-1.3c0.7,0,1.3,0.6,1.3,1.3l0.3,7l3.6,4
		c0.2,0.3,0.7,0.3,1,0.1c0,0,0,0,0.1-0.1c0,0,0.5-1.2,0.3-1.5l-1.3-2.2c-0.5-0.6-0.4-1.5,0.2-1.9c0.6-0.5,1.5-0.4,1.9,0.2
		c0,0,0,0,0,0L15.3,19.2z"/>
	<path class="st2" d="M8.8,19.9L8.8,19.9L8.8,19.9z"/>
	<path class="st3" d="M15.3,19.2L15.3,19.2c-0.1,0-0.2-0.1-0.2-0.2c0-0.1-0.1-0.2-0.2-0.2c-0.3-0.2-0.5-0.7-0.9-1
		c0-0.1-0.1-0.2-0.2-0.3c-0.3-0.3-0.6-0.6-0.8-0.9l-0.1-0.2c-0.1-0.1-0.2-0.2-0.3-0.3l-0.1-0.1c0,0-0.1-0.1-0.1-0.1
		c-0.1-0.1-0.3-0.2-0.5-0.2l0,0c-0.2-0.1-0.3,0-0.5,0.1h-0.1l0,0c0,0-0.1,0.1-0.1,0.1c0,0,0,0,0,0c-0.1,0-0.1,0.1-0.1,0.1
		c-0.2,0.2-0.3,0.6-0.1,0.8c0,0.1,0,0.2,0.1,0.2l0,0l0,0c0.1,0.1,0.2,0.3,0.3,0.4c0.1,0.2,0.2,0.5,0.4,0.7c0,0.1,0,0.1,0,0.2
		c0.2,0.3,0.4,0.6,0.6,0.9c0,0.1,0.1,0.1,0.1,0.2c0.1,0.1,0.1,0.3,0.1,0.4c0,0.1,0,0.2,0,0.3c0,0.2-0.1,0.4-0.1,0.5
		c0,0.1-0.1,0.1-0.1,0.2l-0.1,0.2l-0.1,0.2c-0.1,0.1-0.1,0.1-0.2,0.2c0,0-0.1,0-0.1,0c-0.1,0-0.1,0.1-0.2,0.1
		c-0.3,0.1-0.6,0.1-0.8,0c-0.2-0.1-0.3-0.2-0.4-0.3l-0.2-0.2l-0.4-0.5c-0.1-0.1-0.1-0.2-0.2-0.3c-0.1-0.1-0.1-0.1-0.2-0.2
		c0,0-0.1-0.1-0.1-0.1C9.1,20.1,9,20,8.8,19.9c-0.3-0.2-0.5-0.4-0.7-0.7l-0.2-0.3c-0.2-0.3-0.4-0.5-0.6-0.7L7,17.8l-0.2-0.2
		l-0.3-0.3v-0.4c0-0.2,0-0.4,0-0.6c0.1-1.2-0.2-2.4-0.1-3.6l0-0.1l0-0.1c0.1-0.4-0.1-0.8,0-1.1l0-0.1v-0.1c0.1-0.3-0.1-0.6,0.1-0.9
		l0,0c0-0.1,0-0.3,0-0.4c0-0.1,0-0.2,0-0.4C6.5,9.4,6.3,9.1,6,8.9c-0.3-0.1-0.6-0.2-0.9,0l0,0C5,8.9,4.9,8.9,4.8,9l0,0
		c0,0.1-0.1,0.1-0.1,0.1C4.5,9.2,4.4,9.3,4.3,9.5c0,0.1,0,0.2-0.1,0.3c-0.1,0.2,0,0.6-0.1,0.8c-0.1,0.2,0,0.5-0.1,0.6l0,0
		c0,0.1,0,0.2-0.1,0.3C4,12,4,12.5,3.9,12.9c0,0.1,0,0.2,0,0.3c-0.1,0.5-0.1,0.9,0,1.4c0,0.4,0,0.9,0,1.3c0,0.1,0,0.1,0,0.1
		c0,0.6,0,1.3,0.1,1.9c0,0.4,0,0.8,0.1,1.1c0,0.2,0,0.4,0.1,0.6c0,0.2,0.1,0.4,0.2,0.5c0.1,0.2,0.2,0.3,0.3,0.5l0.4,0.5
		c0.1,0.2,0.2,0.4,0.4,0.5c0.1,0.1,0.2,0.1,0.2,0.2c0.4,0.5,0.8,0.9,1.1,1.4c0.1,0.1,0.2,0.3,0.2,0.4l0,0l0.1,0
		c0.1,0.1,0.3,0.3,0.3,0.4c0,0.1,0.1,0.2,0.1,0.2c0.1,0.1,0.2,0.3,0.3,0.4s0.2,0.2,0.2,0.3s0.1,0.2,0.2,0.2c0.1,0.2,0.2,0.3,0.4,0.4
		l0.4,0.5l0.2,0.3c0.1,0.1,0.1,0.2,0.2,0.3c0.2,0.4,0.4,0.8,0.6,1.2c0,0.2,0,0.5,0,0.7v0.7l0,1.4l0,0.1l0,0.1c0,0.3,0,0.6,0,0.9
		c0,0.2,0,0.3,0.1,0.5c0,0.1,0,0.2,0.1,0.2c0.1,0,0.2,0,0.2,0l0.8,0l0,0c0.7-0.1,1.4-0.1,2.1,0h0.4c0.1,0,0.2,0,0.3,0
		c0.1,0,0.2,0,0.3,0c0.1,0,0.2,0,0.3,0l0,0c0.1-0.1,0.3-0.1,0.4,0c0.1,0,0.3,0,0.4,0c0.1,0,0.1,0,0.2,0l0.1,0h0.1c0.1,0,0.1,0,0.2,0
		c0.1,0,0.1-0.1,0.1-0.1c0-0.1,0.1-0.3,0.2-0.4c0.1-0.2,0.1-0.5,0.1-0.7c-0.1-0.3,0-0.5,0.1-0.7l0-0.2c0-0.4,0-0.8,0-1.3
		c0-0.1,0.1-0.1,0.1-0.1l0,0l0-0.1v-0.1l-0.1-0.1v-0.1c0,0,0.1-0.1,0.1-0.1l0,0l0-0.7v-0.1c0,0-0.1,0-0.1,0c0-0.2,0-0.4,0-0.6
		c-0.1-0.1-0.1-0.3,0-0.4l0-0.1v-0.1l0.1-0.1c0-0.2,0-0.4,0-0.5v-1l0.1,0v-0.1l0-0.1v-0.1c0-0.1,0-0.1-0.1-0.2c0-0.2,0-0.4,0-0.5
		c0-0.2,0-0.4,0-0.5c0.1-0.6,0-1.1-0.1-1.7c0-0.2-0.1-0.5-0.1-0.7c-0.1-0.2-0.1-0.4-0.2-0.6c0-0.1-0.1-0.2-0.1-0.3
		c0-0.1,0-0.1,0-0.1l0,0c-0.1-0.2-0.2-0.3-0.3-0.5v-0.1l-0.1-0.1c-0.1-0.2,0-0.2,0.1-0.2c0.3,0.2,0.4,0.6,0.7,0.9
		c0.1,0.2,0.2,0.4,0.3,0.6c0,0.1,0.1,0.1,0.1,0.2c0.2,0.5,0.3,1,0.3,1.5l0,1.5c0,0,0,0.1-0.1,0.1c0,0.1,0,0.3,0,0.4
		c0,0.1,0,0.2,0,0.3c0,0.1,0,0.1-0.1,0.2c0,0,0,0.1,0,0.1v1.1c0,0.1,0.1,0.2,0.1,0.2v0c0,0.1,0,0.3,0,0.4l0,0.1l0.1,0.1v0.1
		c0,0-0.1,0.1-0.1,0.1l0,0c0,0.1,0,0.1,0,0.2v0.2c0,0.3,0,0.6,0,0.9l0,0l0,0c0,0.4,0,0.8-0.1,1.2l-0.1,0.4c0,0.2,0,0.4,0,0.5
		c0,0.1,0,0.2,0,0.3c0,0.2,0,0.4-0.1,0.7c0,0.1,0,0.3,0,0.4L16.6,32l-0.1,0.3c0,0.1-0.1,0.3-0.1,0.4c0,0.1-0.1,0.2-0.2,0.3
		c0,0,0,0-0.1,0.1l0,0h0l-0.2,0c-0.1,0-0.3,0-0.4,0h-0.3c-0.6,0-1.1,0-1.7,0c-0.5,0-1,0-1.6,0c-0.3,0-0.6,0-0.8,0h-1L9.8,33
		c0,0-0.1,0-0.1-0.1c0,0-0.1,0-0.1-0.1c-0.1-0.1-0.2-0.3-0.2-0.5c0-0.1,0-0.2-0.1-0.3l0-0.2l0-0.3c0-0.4-0.1-0.8-0.1-1.2
		c0-0.4,0-0.8,0-1.1v-0.3c0-0.1,0-0.3,0-0.4v-0.3l-0.1-0.1c0-0.1,0-0.1-0.1-0.2c-0.2-0.3-0.4-0.6-0.5-0.9l-0.1-0.1l-0.1-0.1
		l-0.2-0.2L8,26.1c-0.1-0.3-0.5-0.6-0.6-0.9c0,0-0.1,0-0.1,0c-0.3-0.3-0.5-0.6-0.7-0.9c-0.7-0.9-1.3-1.8-2.1-2.6
		c-0.2-0.1-0.3-0.3-0.4-0.5C4,21,3.9,20.8,3.8,20.6c-0.1-0.2-0.2-0.4-0.2-0.6c0,0,0-0.1,0-0.1c0-0.2-0.1-0.3-0.1-0.5v0
		c0-0.3,0-0.6,0-0.9c0-0.2,0-0.4,0-0.6c0-0.1,0-0.2,0-0.3v0l0-0.3v-0.8l0-0.1v-0.1c0-0.2,0-0.3,0-0.5c-0.1-1.3-0.1-2.6-0.1-3.9v-0.2
		c-0.1-0.3-0.1-0.6,0-0.9c0-0.1-0.1-0.1-0.1-0.2v-0.5c0-0.1,0-0.1,0-0.2s0-0.2,0-0.2l0.1-0.5c0.1-0.1,0.2-0.3,0.3-0.4
		c0.1-0.1,0.2-0.2,0.3-0.3c0.1,0,0.2-0.1,0.3-0.2C5,8.2,5.4,8.1,5.9,8.2c0.4,0.1,0.8,0.4,1,0.8C7,9.2,7.1,9.4,7.2,9.6v0.4
		c0,0.1,0,0.2,0,0.3c0,0.2,0,0.4,0,0.7c0,0.1,0,0.1,0,0.2c-0.1,0.2,0,0.5,0,0.7c0,0.1,0,0.1,0,0.2c-0.1,0.3,0,0.6,0,0.9
		c0,0.2,0,0.4,0,0.5c0,0.9,0,1.9,0.2,2.8c0,0.1,0,0.2,0,0.2V17l0.1,0.1l0.2,0.2l0.3,0.4c0.2,0.2,0.4,0.5,0.6,0.8l0.2,0.3
		c0.1,0.2,0.3,0.4,0.4,0.5l0.1,0.1c0.5,0.4,0.9,0.9,1.3,1.4l0.2,0.3c0.1,0.1,0.2,0.1,0.3,0.1c0.2,0,0.4,0,0.5-0.2l0-0.1
		c0,0,0.1-0.1,0.1-0.1V21l0,0v0c0.1-0.2,0.1-0.4,0.1-0.6c0.1-0.2,0.1-0.4,0-0.6l-0.1-0.2l-0.1-0.2l-0.3-0.5
		c-0.1-0.2-0.2-0.3-0.3-0.5c-0.1-0.2-0.3-0.5-0.5-0.7l0,0c-0.3-0.4-0.4-0.9-0.2-1.3c0-0.1,0-0.1,0.1-0.2c0.1-0.3,0.3-0.6,0.6-0.7
		c0.1,0,0.1-0.1,0.2-0.1c0.1-0.1,0.1-0.1,0.2-0.1c0.2,0,0.5,0,0.7,0c0.1,0,0.2,0,0.2,0.1c0.2,0.1,0.4,0.2,0.6,0.3c0,0,0,0.1,0,0.1
		c0.1,0.1,0.2,0.2,0.3,0.3c0,0,0,0.1,0.1,0.1c0,0.1,0.1,0.2,0.1,0.2c0,0.1,0.1,0.1,0.1,0.1c0.4,0.8,1.1,1.4,1.6,2.1
		C15.2,18.7,15.5,19,15.3,19.2z M16,20L16,20L16,20L16,20L16,20z M11.1,17.9C11.1,17.9,11.1,17.9,11.1,17.9L11.1,17.9
		C11.1,17.9,11.1,17.9,11.1,17.9z M11.1,18.1L11.1,18.1V18l0,0C11.1,18,11.1,18.1,11.1,18.1L11.1,18.1z M11.1,17.9L11.1,17.9
		L11.1,17.9C11.1,18,11.2,17.9,11.1,17.9L11.1,17.9z"/>
	<path class="st2" d="M15.7,19L15.7,19L15.7,19L15.7,19z"/>
	<path class="st4" d="M25.1,10.7l-5.8,6c-0.4,0.4-1,0.4-1.3,0c0,0,0,0,0,0l-5.8-6c-1.6-1.7-1.6-4.4,0.1-6.1c0.1,0,0.1-0.1,0.2-0.1
		c1.7-1.4,4.1-1.2,5.6,0.4l0.6,0.6l0.6-0.6c1.5-1.6,3.9-1.8,5.6-0.4c1.8,1.6,2,4.3,0.4,6.1C25.2,10.6,25.2,10.7,25.1,10.7L25.1,10.7
		z"/>
	<path class="st1" d="M25.1,10.7l-5.8,6c-0.4,0.4-1,0.4-1.3,0c0,0,0,0,0,0l-5.8-6c-1.6-1.7-1.6-4.4,0.1-6.1c0.1,0,0.1-0.1,0.2-0.1
		c1.7-1.4,4.1-1.2,5.6,0.4l0.6,0.6l0.6-0.6c1.5-1.6,3.9-1.8,5.6-0.4c1.8,1.6,2,4.3,0.4,6.1C25.2,10.6,25.2,10.7,25.1,10.7L25.1,10.7
		z"/>
	<path class="st3" d="M22.2,4.1L22.2,4.1L22.2,4.1z"/>
	<path class="st3" d="M25.1,10.7L25.1,10.7c0-0.1,0-0.1,0-0.2c0.1,0,0.1-0.1,0.1-0.2c0-0.3,0.3-0.4,0.3-0.7c0.1,0,0.1-0.1,0.1-0.2
		c0-0.1,0-0.2,0-0.3c0-0.1,0.1-0.2,0.1-0.3V8.6c0-0.3,0.1-0.6,0-0.9l0,0c0.1-0.1,0-0.3,0-0.4v0l0,0c0,0,0-0.1,0-0.1c0,0,0,0,0,0
		c0-0.1,0-0.1,0-0.2c0-0.1,0-0.3-0.1-0.4c0-0.1-0.1-0.2-0.2-0.3c0-0.2-0.1-0.3-0.2-0.4c0-0.1-0.1-0.3-0.2-0.4c0,0,0-0.1,0-0.1
		c-0.1-0.1-0.2-0.1-0.2-0.2c-0.1-0.1-0.2-0.2-0.2-0.2c-0.1-0.1-0.1-0.1-0.2-0.2c-0.1-0.1-0.2-0.1-0.2-0.1c-0.1-0.1-0.2-0.1-0.3-0.2
		V4.4l-0.1,0c-0.1-0.1-0.2-0.1-0.3-0.1c-0.1,0-0.2-0.1-0.3-0.1c-0.1,0-0.2,0-0.3-0.1c-0.1,0-0.1,0-0.2-0.1c-0.1,0-0.1,0-0.2,0h-0.1
		c-0.1,0-0.2,0-0.3,0.1c-0.2,0.1-0.4,0.1-0.5,0.1l-0.2,0c-0.4,0-0.7,0.3-1.1,0.4c-0.1,0-0.2,0.1-0.3,0.2C20,4.8,19.9,4.9,19.8,5
		c-0.1,0.1-0.2,0.2-0.3,0.3l-0.4,0.4C19,5.8,18.8,6,18.7,6.2c-0.3-0.3-0.5-0.5-0.7-0.8c0,0,0,0,0-0.1h0c-0.1-0.2-0.3-0.3-0.4-0.5v0
		l0,0c-0.1-0.2-0.3-0.2-0.4-0.4l0,0c-0.1-0.2-0.3-0.1-0.4-0.3c-0.4-0.2-0.8-0.3-1.3-0.3l0,0c-0.1,0-0.1-0.1-0.2,0l0,0
		c0,0-0.1,0-0.1,0c0,0,0,0,0,0c-0.1,0-0.2,0-0.4,0c-0.1,0.1-0.2,0.1-0.2,0c-0.1,0-0.2,0-0.3,0c-0.1,0-0.2,0-0.2,0
		c-0.1,0-0.3,0.1-0.4,0l0,0c-0.1,0-0.1,0-0.2,0c-0.2,0.2-0.5,0.4-0.8,0.5c-0.1,0-0.1,0.1-0.2,0.1C12.2,4.5,12,4.7,11.9,5
		c-0.2,0.2-0.4,0.4-0.4,0.7c0,0,0,0-0.1,0c-0.2,0.4-0.3,0.7-0.3,1.1C11,7.1,11,7.4,11,7.6c0.1,0.5,0.2,0.9,0.3,1.4
		c0,0.1,0,0.3,0.1,0.3c0,0,0.1,0.1,0.1,0.2c0.2,0.3,0.4,0.6,0.6,0.9c0.1,0.1,0.1,0.2,0.1,0.3h0.1c0.1,0.1,0.2,0.1,0.2,0.2
		c0,0,0.1,0.1,0.1,0.1c0.1,0.1,0.1,0.1,0.2,0.2c0.1,0.1,0.1,0.1,0.2,0.2c0,0,0.1,0.1,0.1,0.1c0.1,0.1,0.2,0.2,0.3,0.2
		c0.8,0.8,1.6,1.6,2.3,2.5v0l0,0c0.3,0.4,0.7,0.8,1.1,1.1l0,0c0.4,0.2,0.7,0.5,0.9,0.9l0.2,0.2c0,0.1,0.1,0.1,0.1,0.1
		c0,0.1,0.1,0.1,0.1,0.1c0,0,0.1,0.1,0.2,0.1l0,0c0.1,0,0.2,0,0.2,0c0.1,0,0.2,0,0.2,0c0,0,0.1-0.1,0.1,0c0,0,0,0,0,0h0c0,0,0,0,0,0
		c0.2,0,0.3-0.2,0.5-0.3c0.1-0.1,0.2-0.2,0.3-0.3c0-0.2,0.2-0.3,0.3-0.3l0.1-0.1c0.1-0.3,0.3-0.4,0.5-0.6h0.1c0,0,0,0,0,0v0l0,0V15
		l0,0l0,0c0,0,0.1,0,0.1,0l0,0l0.3-0.3l0,0c0,0,0,0,0-0.1c0.1-0.1,0.2-0.2,0.2-0.3c0-0.1,0.1-0.2,0.2-0.2l0.1,0l0,0h0.1
		c0.1-0.1,0.2-0.2,0.3-0.2l0.4-0.5l0.1,0l0,0l0.1,0l0.1-0.1c0,0,0-0.1,0-0.1c0.1-0.1,0.1-0.2,0.3-0.2c0.1-0.1,0.2-0.1,0.2-0.2
		c0.3-0.2,0.5-0.5,0.7-0.7c0.1-0.1,0.2-0.2,0.3-0.3l0.2-0.3l0.2-0.2c0,0,0.1,0,0.1,0l0,0C25,11.1,25,11,25.1,11h0l0,0
		c0.1-0.1,0.2,0,0.2,0.1c0,0.2-0.3,0.3-0.3,0.5l-0.2,0.3c0,0,0,0.1-0.1,0.1l-1.2,1.3c0,0-0.1,0-0.1,0c-0.1,0.1-0.1,0.1-0.1,0.2
		c-0.1,0-0.1,0.1-0.1,0.1c0,0-0.1,0-0.1,0c0,0,0,0-0.1,0l-0.1,0.1l-0.4,0.4c0,0.1,0,0.1,0,0.2l0,0c-0.1,0-0.2,0.1-0.2,0.2h0v0.1l0,0
		c0,0-0.1,0-0.1,0l0,0c0,0,0,0.1-0.1,0.1l-0.1,0.1c-0.1,0.1-0.2,0.3-0.3,0.4l0,0l0,0.1c-0.1,0.2-0.3,0.4-0.5,0.5l-0.2,0.2
		c-0.1,0.1-0.1,0.2-0.2,0.2c0,0-0.1,0.1-0.1,0.1c-0.1,0.1-0.2,0.2-0.3,0.3c0,0.1-0.1,0.1-0.1,0.2c-0.1,0.1-0.2,0.3-0.4,0.4
		c-0.2,0.2-0.4,0.4-0.7,0.5c-0.3,0.1-0.6,0.1-0.9,0c-0.1,0-0.3-0.1-0.4-0.2c-0.1,0-0.1-0.1-0.2-0.1c0,0-0.1-0.1-0.1-0.1
		c-0.2-0.3-0.4-0.5-0.7-0.7c-0.5-0.7-1.2-1.2-1.8-1.9c-0.2-0.1-0.3-0.3-0.5-0.5l-0.1-0.2c-0.1-0.2-0.3-0.3-0.4-0.5L14,13.3
		c-0.2-0.1-0.4-0.3-0.5-0.5L13,12.2c-0.1-0.2-0.3-0.3-0.4-0.5c0,0,0,0-0.1,0c-0.2-0.2-0.4-0.3-0.5-0.5c-0.1-0.1-0.2-0.3-0.4-0.4
		s-0.2-0.3-0.3-0.5c-0.1-0.2-0.2-0.3-0.3-0.5c-0.1-0.2-0.2-0.3-0.3-0.5c-0.1-0.1-0.1-0.3-0.1-0.4c0-0.2-0.1-0.5-0.1-0.7
		c0,0,0-0.1,0-0.1c0-0.1,0-0.2-0.1-0.3v0c0-0.1,0-0.2,0-0.3c0-0.1,0-0.2,0-0.3c0-0.1,0.1-0.3,0.1-0.4c0-0.1,0-0.1,0.1-0.2v0l0-0.2
		c0.1-0.2,0.1-0.3,0.2-0.5l0.1,0l0,0c0-0.1,0.1-0.2,0.2-0.3c0.3-0.8,1-1.5,1.8-1.9l0.1-0.1c0.2-0.1,0.4-0.2,0.6-0.2
		c0,0,0.1-0.1,0.1-0.1c0.1,0,0.2-0.1,0.3-0.1c0.2,0,0.3,0,0.5-0.1h0.2c0.1,0,0.2,0,0.2,0c0.1,0,0.1,0,0.2,0c0.4,0.1,0.9,0.1,1.3,0.3
		c0.1,0.1,0.2,0.1,0.3,0.2c0.1,0.1,0.3,0.2,0.4,0.2c0.1,0.1,0.3,0.2,0.4,0.3c0,0,0,0.1,0.1,0.1c0.1,0.1,0.2,0.2,0.3,0.3
		c0,0,0,0.1,0.1,0.1c0,0.1,0.1,0.2,0.2,0.2l0.1,0.1c0,0,0,0.1,0,0.1c0,0.1,0.1,0.2,0.2,0.2l0.1,0.1c0.1-0.1,0.1-0.1,0.2-0.2L19,5
		l0.1-0.1l0.3-0.3l0.3-0.3c0.1,0,0.1,0,0.1-0.1c0.5-0.3,1-0.5,1.5-0.6l0.2,0c0.1,0.1,0.3,0,0.4,0h0.1c0.4-0.1,0.8-0.1,1.2,0.1
		c0.3,0.1,0.7,0.2,1,0.4l0,0.1h0c0.3,0.1,0.6,0.3,0.8,0.6l0.1,0.1c0.1,0.1,0.2,0.2,0.2,0.3c0.1,0.1,0.2,0.2,0.3,0.3
		C26,5.6,26.2,6,26.3,6.5l0,0.1c0.1,0.1,0.1,0.3,0.1,0.5v0.1c0,0,0,0.1,0,0.1c0,0.1,0,0.3,0,0.4c0,0,0,0.1,0,0.1c0,0.1,0,0.3,0,0.4
		c0,0,0,0.1-0.1,0.1c0,0,0,0,0,0c0,0.1,0,0.2,0,0.2c0,0,0,0.1,0,0.1c-0.1,0-0.1,0.1,0,0.2c0,0,0,0.1,0,0.1c-0.2,0.5-0.4,1-0.7,1.5
		C25.4,10.6,25.4,10.8,25.1,10.7z M24.8,11.3L24.8,11.3C24.8,11.3,24.8,11.3,24.8,11.3L24.8,11.3L24.8,11.3z M25.5,5.6
		C25.5,5.6,25.5,5.6,25.5,5.6L25.5,5.6L25.5,5.6z M25.5,5.5L25.5,5.5L25.5,5.5C25.5,5.5,25.5,5.5,25.5,5.5L25.5,5.5z"/>
	<path class="st3" d="M25.4,11L25.4,11L25.4,11L25.4,11z"/>
	<path class="st0" d="M23.9,16.3c0.4-0.6,1.3-0.8,1.9-0.3c0.6,0.4,0.8,1.3,0.3,1.9c0,0,0,0,0,0l-1.3,2.2c-0.2,0.3,0.3,1.5,0.3,1.5
		c0.3,0.3,0.7,0.3,1,0c0,0,0,0,0.1-0.1l3.9-4v-7.1c0-0.8,0.6-1.4,1.3-1.4c0.8,0,1.4,0.6,1.4,1.3c0,0,0,0,0,0.1v9.5
		c0,0.5-0.2,0.9-0.5,1.3L27.8,27c-0.3,0.5-0.6,1-0.8,1.5C27,28.9,27,33,26.7,33L21,33c-0.4,0-0.7-4.8-0.7-5.2v-4.9
		c0-1.2,0.4-2.4,1.1-3.3L23.9,16.3z"/>
	<path class="st1" d="M23.9,16.3c0.4-0.6,1.3-0.8,1.9-0.3c0.6,0.4,0.8,1.3,0.3,1.9c0,0,0,0,0,0l-1.3,2.2c-0.2,0.3,0.3,1.5,0.3,1.5
		c0.3,0.3,0.7,0.3,1,0c0,0,0,0,0.1-0.1l3.9-4v-7.1c0-0.8,0.6-1.4,1.3-1.4c0.8,0,1.4,0.6,1.4,1.3c0,0,0,0,0,0.1v9.5
		c0,0.5-0.2,0.9-0.5,1.3L27.8,27c-0.3,0.5-0.6,1-0.8,1.5C27,28.9,27,33,26.7,33L21,33c-0.4,0-0.7-4.8-0.7-5.2v-4.9
		c0-1.2,0.4-2.4,1.1-3.3L23.9,16.3z"/>
	<path class="st2" d="M21.1,31L21.1,31L21.1,31L21.1,31z"/>
	<path class="st3" d="M23.9,16.3L23.9,16.3c0,0.1,0,0.2-0.1,0.3c-0.1,0.1-0.2,0.2-0.2,0.3c-0.1,0.4-0.5,0.7-0.7,1.1
		c-0.1,0.1-0.2,0.2-0.2,0.3c-0.2,0.4-0.4,0.7-0.7,1.1L22,19.5c-0.1,0.2-0.2,0.4-0.4,0.6c-0.1,0.2-0.2,0.4-0.3,0.6l0,0
		c-0.1,0.2-0.2,0.4-0.2,0.6l0,0.1v0.1c0,0.1,0,0.1,0,0.2c-0.1,0.1-0.1,0.2-0.1,0.3c-0.1,0.2-0.1,0.4-0.1,0.7c0,0.2,0,0.5,0.1,0.7
		c0,0.3,0,0.6,0,0.9c0,0.3,0,0.5,0,0.8c0,0.1,0,0.1,0,0.2c0,0.4,0,0.8,0,1.2l0,1c0,0.2,0,0.4,0,0.5c0,0,0,0,0,0.1v0.1
		c0,0.2,0,0.3,0,0.5l0.1,1.2v0.3c0,0.1,0,0.2,0,0.3c0,0,0,0.1,0,0.1c0,0.2,0.1,0.3,0.1,0.4c0.1,0.3,0.2,0.6,0.2,1
		c0,0.1,0,0.2,0.1,0.3s0,0.1,0,0.1c0,0,0,0,0,0h0.1c0.4,0,0.7,0,1.1,0c0.2,0,0.4,0,0.6,0c0.6,0,1.1,0,1.7,0c0.3,0,0.6,0,0.8,0h0.7
		l0.1,0h0c0,0,0,0,0,0c0,0,0,0,0.1-0.1c0-0.1,0-0.1,0-0.2c0-0.2,0.1-0.3,0.1-0.5l0-0.1v-0.1c0.1-0.3,0-0.6,0.1-0.9l0,0
		c0.1-0.2,0-0.6,0.1-0.8c0-0.2,0-0.5,0.1-0.7c0-0.2,0-0.5,0-0.7c0.1-0.3,0.2-0.5,0.3-0.8l0,0c0.1-0.1,0.1-0.2,0.1-0.3l0,0
		c0-0.1,0-0.1,0.1-0.2c0.1-0.2,0.2-0.3,0.3-0.5c0-0.1,0.1-0.3,0.2-0.3c0.2-0.1,0.3-0.5,0.6-0.6c0.2-0.1,0.3-0.4,0.5-0.4l0,0
		c0.1-0.1,0.1-0.1,0.2-0.1c0.2-0.4,0.5-0.8,0.8-1.1c0.1-0.1,0.2-0.1,0.2-0.2c0.3-0.3,0.6-0.7,0.8-1.1c0.3-0.3,0.6-0.7,0.8-1.1
		c0,0,0.1-0.1,0.1-0.1c0.2-0.2,0.4-0.5,0.5-0.8c0.1-0.3,0.2-0.6,0.1-0.9c0-0.4,0-0.8,0-1.1c-0.1-0.8-0.1-1.6-0.1-2.4
		c0-0.2,0-0.4,0-0.6c0-0.1,0-0.2,0-0.3c0-0.6-0.1-1.2,0-1.8c0-0.2,0-0.3,0.1-0.5l0,0c0,0,0,0,0-0.1c0-0.2,0-0.4,0-0.5
		c0-0.1,0-0.2,0-0.3c0-0.2,0-0.3,0-0.5v-0.7c0-0.2,0-0.4,0-0.6c0-0.7-0.5-1.3-1.2-1.3c-0.2,0-0.3,0-0.5,0.1
		c-0.4,0.1-0.7,0.5-0.8,0.9c0,0.2-0.1,0.4-0.1,0.7l0,0.7l0,0.1v0.1c0,0.9,0,1.7,0,2.6l0,0c0.1,0.7,0.1,1.4,0,2.1v0.4
		c0,0.1,0,0.2,0,0.3c0,0.1,0,0.2,0,0.3c0,0.1,0,0.2,0,0.3l0,0c0,0.1-0.2,0.3-0.3,0.3c-0.1,0.1-0.2,0.2-0.3,0.3
		c0,0.1-0.1,0.1-0.1,0.2l-0.1,0l0,0.1c-0.3,0.1-0.4,0.5-0.7,0.6c-0.2,0.1-0.3,0.4-0.5,0.5c-0.1,0.2-0.3,0.4-0.5,0.5l-0.1,0.1
		c-0.2,0.3-0.5,0.7-0.8,1c-0.1,0-0.1,0-0.2,0.1c0,0,0,0,0,0.1l0,0.1l-0.1,0.1v0.1l-0.1,0l0,0.1h-0.1c-0.2,0.2-0.4,0.3-0.7,0.2h-0.1
		c0,0,0,0-0.1,0.1c-0.1-0.1-0.2-0.1-0.3-0.2c0-0.1-0.1-0.2-0.1-0.3c-0.1-0.1-0.1-0.3-0.1-0.4V21l0-0.1c0,0,0-0.1,0-0.1
		c0-0.1-0.1-0.2-0.1-0.3c0-0.1,0-0.2,0.1-0.3c0,0,0,0,0,0l0.5-0.9h0.1l0-0.1l0.1-0.1l0.1-0.1c0-0.1,0-0.1,0-0.2
		c0.1-0.2,0.2-0.3,0.3-0.4c0.1-0.1,0.2-0.3,0.3-0.4l0,0v0c0.2-0.2,0.3-0.5,0.3-0.8c0-0.3-0.1-0.6-0.2-0.8c-0.1-0.2-0.3-0.4-0.5-0.5
		c-0.2-0.1-0.4-0.2-0.6-0.2c-0.1,0-0.3,0-0.4,0h-0.1c-0.2,0.1-0.4,0.2-0.5,0.3c0,0,0,0-0.1,0l-0.1,0.1c-0.2,0.2-0.2,0.1-0.2-0.1
		c0.1-0.2,0.3-0.4,0.5-0.5c0.2-0.1,0.4-0.2,0.6-0.3c0.3,0,0.5,0,0.8,0.1c0.1,0,0.2,0,0.3,0.1c0.5,0.2,0.9,0.7,1,1.2
		c0.1,0.5,0,1.1-0.3,1.6l0,0l-0.2,0.4c0,0-0.1,0-0.1,0c-0.1,0.1-0.1,0.2-0.2,0.4c-0.1,0.1-0.1,0.2-0.1,0.3c0,0.1-0.1,0.1-0.1,0.1
		c0,0,0,0.1-0.1,0.1l-0.1,0.2l-0.4,0.7l0,0c0,0,0,0,0.1,0.1l0,0c0,0.1,0,0.2,0,0.3v0l0.1,0.1l0,0.1c0,0,0,0.1,0,0.1l0,0
		c0,0,0.1,0.1,0,0.2l0,0.1v0l0,0c0,0,0.1,0,0.1,0h0.1v-0.1c0,0,0,0,0.1-0.1l0,0l0,0l0.5-0.5l0.3-0.3c0.1-0.1,0.2-0.3,0.4-0.4
		c0.1-0.1,0.1-0.1,0.1-0.2c0.1-0.2,0.3-0.3,0.5-0.5c0.1-0.1,0.1-0.2,0.2-0.3c0.3-0.3,0.6-0.6,0.9-0.9l0.4-0.5l0.2-0.2l0.1-0.1l0,0
		v-0.1c0-0.1,0-0.3,0-0.4c0-0.5,0-1.1,0-1.6c0.1-1.4,0-2.7,0-4.1v-0.6c0-0.3,0.1-0.5,0.2-0.8c0.1-0.1,0.2-0.3,0.3-0.4
		c0.3-0.3,0.7-0.6,1.2-0.7c0.1,0,0.2,0,0.3,0c0.5-0.1,1,0.1,1.3,0.5c0.2,0.2,0.3,0.4,0.4,0.7c0,0.1,0.1,0.3,0.1,0.4
		c0,0.1,0,0.2,0,0.4c-0.1,0.3,0,0.8-0.1,1.1c0,0,0,0,0,0.1c0,0.4,0,0.8,0,1.2c0,1.1,0,2.2,0,3.3c0,0.2,0,0.4,0,0.6c0,0.3,0,0.7,0,1
		c0,0,0,0.1,0,0.1c0,0.1,0,0.3,0,0.4v0.1c0,0.3,0,0.6,0,0.9c0,0.2,0,0.4,0,0.7c0,0.1,0,0.2-0.1,0.3v0c0,0.1,0,0.2-0.1,0.3
		c-0.1,0.3-0.3,0.6-0.5,0.8l-0.1,0l0,0.1c-0.1,0.1-0.2,0.3-0.3,0.4c-0.7,1.1-1.5,2.1-2.4,3.1l-0.1,0.2c-0.1,0.3-0.3,0.5-0.5,0.7
		c0,0.1,0,0.1-0.1,0.2l-0.3,0.4c-0.2,0.1-0.3,0.3-0.4,0.6l-0.1,0.1l-0.1,0.1l0,0c-0.1,0.1-0.1,0.2-0.2,0.3c-0.1,0-0.1,0.1-0.1,0.2
		c-0.1,0.1-0.2,0.3-0.2,0.4c0,0-0.1,0.1-0.1,0.2c0,0.1,0,0.1-0.1,0.2V29c0,0.1,0,0.3-0.1,0.4c-0.1,0.2-0.1,0.4,0,0.5
		c-0.1,0.4,0,0.9-0.1,1.3c0,0.1,0,0.1,0,0.2c-0.1,0.2,0,0.5-0.1,0.7c0,0.1,0,0.1,0,0.2c0,0,0,0.1,0,0.1c0,0,0,0.1,0,0.1
		c0,0.1,0,0.2-0.1,0.3c0,0.1-0.1,0.2-0.1,0.2c-0.1,0-0.2,0-0.3,0h-0.1l-0.3,0c-0.1,0-0.2,0-0.3,0c-0.9-0.1-1.9,0-2.8,0
		c-0.1,0-0.2,0-0.2,0c-0.4,0-0.9,0-1.3,0c-0.3,0-0.5,0-0.8,0c-0.1-0.1-0.2-0.2-0.2-0.4c0-0.1,0-0.1,0-0.2c0-0.1,0-0.1,0-0.2L20.6,32
		c0-0.2,0-0.5,0-0.7v-0.1c-0.1-0.6-0.2-1.3-0.2-1.9c0-0.5-0.1-1.1-0.1-1.6l0-0.1l0,0.1l0,0v0c-0.1-0.5-0.1-1.1,0-1.6v-0.8
		c0-0.2,0-0.4-0.1-0.6c0-0.3,0-0.7,0-1.1c0-0.4,0-0.7,0-1.1l0-0.2c0-0.3,0-0.6,0.2-0.8c0-0.1,0-0.1,0.1-0.2c0-0.1,0-0.1,0.1-0.2
		c0.1-0.2,0.1-0.4,0.2-0.6c0-0.1,0-0.1,0.1-0.2c0.1-0.2,0.2-0.4,0.3-0.5c0,0,0.1-0.1,0.1-0.1c0.1-0.1,0.1-0.2,0.2-0.3
		c0,0,0.1-0.1,0.1-0.1c0.1,0,0.1-0.1,0.1-0.2c0,0,0.1-0.1,0.1-0.1c0.6-0.6,1-1.4,1.6-2.1C23.5,16.6,23.7,16.2,23.9,16.3z M24.7,15.6
		L24.7,15.6L24.7,15.6L24.7,15.6L24.7,15.6z M20.5,24.3C20.5,24.3,20.5,24.4,20.5,24.3L20.5,24.3C20.5,24.3,20.5,24.3,20.5,24.3
		L20.5,24.3z M20.4,24.5L20.4,24.5L20.4,24.5L20.4,24.5C20.5,24.4,20.5,24.5,20.4,24.5L20.4,24.5z M20.5,24.3L20.5,24.3L20.5,24.3
		C20.5,24.4,20.5,24.4,20.5,24.3L20.5,24.3z"/>
	<path class="st2" d="M23.7,16L23.7,16L23.7,16L23.7,16z"/>
	<path class="st5" d="M13.4,11.9c-0.8-0.6-1.5-1.4-2-2.4c-0.3-0.6-0.5-1.2-0.6-1.8L11,6.4l0.6-1.3l0.8-0.8l1.1-0.6l0.9,0l0.2,0.1
		c0,0,0.4-0.3,0.5,0.2s0.4,1.2,0.3,1.4c-0.1,0.2-0.3,0.3-0.4,0.4c-0.2,0.2-0.5,0.3-0.8,0.3c-0.3,0-0.7-0.1-1-0.2l0,0.1
		c0,0,0.8,0,0.8,0.5s0.1,1,0.1,1S13.5,8,13.2,8.3c-0.2,0.1-0.3,0.3-0.5,0.5c0,0-0.1,0-0.1,0.3c0.1,0.4,0.3,0.7,0.5,1.1
		c0.1,0.3,0.2,0.6,0.3,0.9c0,0.4,0.1,0.8,0.1,0.8L13.4,11.9z"/>
	<path class="st3" d="M12.6,10.1"/>
	<path class="st3" d="M14.8,3.3L14.8,3.3L14.8,3.3L14.8,3.3z"/>
	<path class="st5" d="M14.6,13.3c0,0,0.9-0.9,1.6-0.8c0.6,0,1.2,0.2,1.8,0.5c0.5,0.3,1.7-0.2,1.8-0.6s0.5-1.5,0.9-1.5
		s0.7-0.5,1.4-0.2s0.6,0.6,1.1,0.6c0.4,0,0.8,0.2,1.1,0.3l-4.7,5l-1,0.4l-0.8-0.3L14.6,13.3z"/>
	<path class="st5" d="M21.5,4l0.4,1.2l1.3,0.6L24,6.4l0.1,1l0.1,0.8l1.4,0.3L26,8.4c0.2-0.5,0.2-1.1,0-1.6c-0.2-0.7-0.6-1.4-1.1-1.9
		c-0.4-0.4-0.9-0.7-1.4-0.9c-0.5-0.1-1.1-0.1-1.6-0.1C21.8,3.9,21.6,3.9,21.5,4L21.5,4z"/>
	<path class="st1" d="M25.1,10.6l-5.8,6c-0.4,0.4-0.9,0.4-1.3,0c0,0,0,0,0,0l-5.8-6c-1.6-1.7-1.6-4.4,0.1-6.1
		c0.1-0.1,0.1-0.1,0.2-0.2C14.1,3,16.5,3.2,18,4.8l0.6,0.6l0.6-0.6c1.5-1.6,3.9-1.8,5.6-0.4c1.8,1.6,2,4.3,0.4,6.1
		C25.2,10.5,25.1,10.6,25.1,10.6L25.1,10.6z"/>
	<path class="st3" d="M22.2,4L22.2,4L22.2,4z"/>
	<path class="st3" d="M25.3,10.9L25.3,10.9L25.3,10.9L25.3,10.9z"/>
	<path class="st3" d="M26.4,7.3c0,0,0-0.1,0-0.1V7.1c0-0.2,0-0.4-0.1-0.5l0-0.1C26.2,6,26,5.6,25.7,5.2c-0.1-0.1-0.2-0.2-0.3-0.3
		c-0.1-0.1-0.2-0.2-0.2-0.3l-0.1-0.1c-0.2-0.3-0.5-0.5-0.8-0.6h0l0-0.1c-0.3-0.2-0.6-0.3-1-0.4c-0.4-0.2-0.8-0.2-1.2-0.1H22
		c-0.1,0-0.3,0-0.4,0l-0.2,0c-0.6,0.1-1.1,0.3-1.5,0.6c0,0.1-0.1,0.1-0.1,0.1l-0.3,0.3L19,4.7l-0.1,0.1L18.8,5
		c-0.1,0.1-0.1,0.1-0.2,0.2l-0.1-0.1c-0.1,0-0.1-0.1-0.2-0.2c0,0,0-0.1,0-0.1c0,0-0.1-0.1-0.1-0.1c-0.1-0.1-0.1-0.1-0.2-0.2
		c0,0-0.1-0.1-0.1-0.1c0-0.1-0.2-0.2-0.3-0.3c0,0-0.1,0-0.1-0.1c-0.1-0.1-0.2-0.2-0.4-0.3c-0.1-0.1-0.3-0.1-0.4-0.2
		c-0.1,0-0.2-0.1-0.3-0.1C16.2,3,15.7,3.1,15.3,3c-0.1,0-0.1,0-0.2,0c-0.1,0-0.2,0-0.2,0h-0.2C14.5,3,14.3,3.1,14.1,3
		c-0.1,0-0.2,0.1-0.3,0.1c0,0-0.1,0.1-0.1,0.1c-0.2,0-0.4,0.1-0.6,0.2L13,3.5c-0.8,0.4-1.4,1.1-1.8,1.9c-0.1,0.1-0.2,0.2-0.2,0.3
		l0,0.1l-0.1,0c-0.1,0.2-0.1,0.3-0.2,0.5l0,0.2l0,0c0,0-0.1,0.1-0.1,0.2c0,0.1,0,0.3-0.1,0.4c0,0.1,0,0.2,0,0.3c0,0.1,0,0.2,0,0.3v0
		c0,0.1,0.1,0.2,0.1,0.3c0,0,0,0,0,0.1c0,0.2,0.1,0.5,0.1,0.7c0,0.1,0,0.3,0.1,0.4c0.1,0.2,0.2,0.3,0.3,0.5c0.1,0.2,0.2,0.3,0.3,0.5
		c0.1,0.2,0.2,0.3,0.3,0.5c0.1,0.1,0.2,0.3,0.4,0.4c0.1,0.2,0.3,0.4,0.5,0.5c0,0,0,0,0.1,0c0.1,0.2,0.3,0.3,0.4,0.5l0.5,0.5
		c0.1,0.2,0.3,0.4,0.5,0.5l0.1,0.1c0.2,0.1,0.3,0.3,0.4,0.5l0.1,0.2c0.1,0.2,0.3,0.4,0.5,0.5c0.6,0.6,1.2,1.2,1.8,1.8
		c0.3,0.2,0.5,0.4,0.7,0.7c0,0,0.1,0.1,0.1,0.1c0,0,0.1,0.1,0.2,0.1c0.4,0.3,0.8,0.3,1.2,0.2c0.3-0.1,0.5-0.2,0.7-0.4
		c0.1-0.1,0.2-0.3,0.3-0.4c0.1-0.1,0.1-0.1,0.1-0.2c0.1-0.1,0.2-0.2,0.3-0.3c0-0.1,0-0.1,0.1-0.1c0.1-0.1,0.2-0.1,0.2-0.2l0.2-0.2
		c0.1-0.2,0.3-0.3,0.5-0.5c0,0,0,0,0-0.1c0.1-0.1,0.3-0.2,0.3-0.4l0.1-0.1c0,0,0.1,0,0.1-0.1c0,0,0.1,0,0.1,0l0,0l0-0.1h0
		c0.1-0.1,0.1-0.1,0.2-0.2c0,0,0-0.1,0-0.2l0.4-0.4l0.1-0.1c0,0,0,0,0.1,0c0,0,0.1,0,0.1,0c0-0.1,0.1-0.1,0.1-0.1
		c0-0.1,0.1-0.1,0.1-0.2c0,0,0,0,0.1,0l1.2-1.3c0,0,0.1,0,0.1-0.1l0.2-0.3c0-0.2,0.3-0.3,0.3-0.5c0-0.1,0-0.2-0.2-0.1l0,0h0
		c-0.1,0-0.2,0.1-0.3,0.2c0,0,0,0-0.1,0l-0.2,0.2l-0.2,0.3c-0.1,0.1-0.2,0.1-0.3,0.2c0,0-0.1,0-0.1-0.1l-0.1,0c0-0.1-0.1,0-0.1-0.1
		c0,0,0,0,0,0l0,0c-0.1-0.1-0.3-0.2-0.5-0.1l-0.1,0c0,0-0.1,0-0.1,0c0,0.1-0.1,0-0.1,0c-0.1,0-0.2-0.1-0.2-0.2
		c0-0.1-0.1-0.1-0.1-0.1l-0.1,0.1v0c0-0.1-0.1-0.2-0.1-0.2c-0.1,0-0.1,0-0.2-0.1c0,0-0.1-0.1-0.1-0.1c-0.1-0.1-0.2,0-0.3-0.2
		c0,0,0,0,0,0c-0.1,0-0.3,0-0.4,0c-0.1,0.1-0.1,0.1-0.2,0c0,0-0.1-0.1-0.1,0c0,0,0,0,0,0c-0.1,0-0.1,0.1-0.2,0c0,0.1-0.1,0-0.1,0
		c-0.1,0-0.1,0-0.2,0h-0.1c0,0-0.1,0-0.1,0c-0.1,0-0.1,0.1-0.2,0.1c0,0,0,0,0,0.1c-0.1,0-0.1,0.1-0.1,0.1c0,0,0,0,0,0
		c0,0-0.1,0.1-0.1,0.1l0,0c-0.1,0-0.1,0-0.1,0c0,0,0,0,0,0h0l-0.1,0c-0.1,0.1-0.1,0.1-0.1,0.2c0,0,0,0,0.1,0h-0.1
		c0.1,0.1,0,0.1-0.1,0.1c0,0,0,0,0,0c0,0.1,0,0.1-0.1,0.1c0,0,0,0.1,0,0.1c0,0,0,0,0,0s0,0,0,0.1s0,0,0,0c0,0,0,0,0.1,0.1h-0.1
		c-0.1,0.1-0.1,0.2-0.1,0.4c0,0,0,0,0,0l-0.1,0c0,0,0,0,0,0c0,0,0,0,0,0c0,0,0,0,0,0c0,0,0,0,0,0c0,0,0,0,0,0.1c0,0.1,0,0.1-0.1,0.1
		v0.1c0,0,0,0,0,0c0,0,0,0,0,0c-0.1-0.1-0.1,0.1-0.3,0c0,0,0,0.1,0,0.1c0,0,0-0.1,0-0.1c0,0,0,0.1-0.1,0c-0.1-0.1-0.1,0-0.2,0v0.1
		h-0.1c-0.1,0-0.2-0.1-0.2-0.1c-0.1,0-0.2-0.1-0.3-0.1c0,0-0.1,0-0.1,0h0c0,0,0,0-0.1,0c-0.1,0-0.1-0.1-0.2,0c0,0.1-0.1,0-0.1,0
		s0,0,0,0v0c0,0-0.1,0-0.1,0c0,0,0,0,0,0c-0.2-0.1-0.4-0.1-0.6-0.1c0,0,0,0,0,0c-0.1,0.1-0.1,0-0.2,0.1v0c0,0-0.1,0-0.1,0
		c0-0.1-0.1-0.1-0.1-0.1c0,0-0.1,0-0.1,0.1c-0.1,0-0.1,0-0.2,0v0.1c0,0,0,0,0,0l0,0v0.1l0,0c-0.1,0-0.1,0-0.2,0.1c0,0,0,0,0,0
		c0,0-0.1,0-0.1,0c0,0,0,0,0,0c0,0.2-0.2,0.1-0.2,0.2l0,0c0,0,0,0,0,0c-0.1,0-0.1,0.1-0.2,0.2c0,0,0,0.1,0,0.1v0l0,0.1H15
		c0,0,0.1,0.1,0,0c-0.1,0,0,0-0.1,0c0,0.1-0.1,0.1-0.1,0.1c0,0,0,0,0,0c0,0,0,0,0,0c-0.4-0.4-0.8-0.9-1.2-1.3c0-0.1,0-0.2,0-0.3v0
		c0,0,0,0,0,0c0,0,0,0,0,0c-0.1,0-0.1,0-0.1-0.1c0,0,0,0,0,0v-0.1c0,0,0,0,0,0s-0.1-0.1,0-0.1c0,0,0,0,0,0v0c0.1,0,0-0.1,0-0.1v0
		c0-0.1,0-0.2-0.1-0.3c0,0-0.1,0-0.1-0.1c0,0,0-0.1,0-0.1v0c0,0,0,0,0,0c0-0.1,0-0.2-0.1-0.2h0l0,0c0-0.1-0.1-0.2-0.1-0.2
		c0-0.1,0-0.2-0.1-0.3v0c0,0,0-0.1,0-0.1V9.6c0-0.2-0.2-0.2-0.1-0.4c0,0,0,0,0,0C13,9.1,13,9.1,13,9c0-0.1,0-0.1,0-0.2
		c0,0,0-0.1,0-0.1c0.1,0,0-0.1,0.1,0c0,0,0,0,0,0c0.1,0,0,0,0.1,0c0.1,0,0.1,0,0.1,0c0,0,0.1-0.1,0.1-0.1c0-0.1,0-0.1,0.1-0.1
		c0.2,0,0.1-0.2,0.3-0.2c0,0,0,0,0,0c0,0,0-0.1,0-0.1l0-0.1c0-0.1,0-0.1,0.1-0.1l0-0.1c0,0,0,0,0-0.1c0,0,0,0,0,0
		C14,8.1,14.1,8,14,7.9v0c0.2-0.2,0.2-0.5,0.1-0.7c0,0,0.1-0.1,0-0.1h0l0-0.1l0,0c0,0,0,0,0,0c0,0,0-0.1,0-0.1s-0.1-0.1,0-0.2
		c0,0,0,0,0,0c0.2,0,0.4-0.1,0.6-0.2c0.1-0.1,0.2-0.2,0.3-0.2c0.1-0.1,0.3-0.2,0.3-0.3c0.1-0.1,0.1-0.3,0.2-0.4c0,0,0-0.1,0-0.1
		c0.1,0,0.1-0.1,0.1-0.1c0,0,0,0,0-0.1c0,0,0-0.1,0-0.1l0-0.1c0-0.1,0-0.2,0-0.2h0c0-0.1,0-0.1,0-0.2v0c0,0,0,0,0,0l0.1,0v0h-0.1
		c0,0,0-0.1,0-0.1c0,0-0.1,0-0.1,0c0,0-0.1-0.1-0.1-0.1l0,0c0,0,0,0,0,0c0,0,0.1-0.1,0.1-0.1s0,0,0,0c0,0-0.1,0-0.1,0c0,0,0,0,0,0
		c-0.1-0.1-0.2-0.2-0.3-0.4c0.1,0,0.1,0,0.2,0c0.4,0,0.9,0.1,1.3,0.3c0.1,0.2,0.3,0.2,0.4,0.3c0.1,0.2,0.3,0.2,0.4,0.4l0.1,0v0
		C17.5,5,17.7,5,17.8,5.2h0l0,0.1c0.2,0.3,0.5,0.5,0.7,0.8c0.2-0.2,0.3-0.4,0.5-0.5l0.4-0.4c0.1-0.1,0.2-0.2,0.3-0.3
		c0.1-0.1,0.2-0.2,0.3-0.2c0.1-0.1,0.2-0.1,0.3-0.2c0.2-0.1,0.5-0.2,0.7-0.3c0,0,0,0,0,0v0.3c0,0,0,0,0,0c0,0,0,0,0,0h0
		c-0.1,0,0,0.1,0,0.1h0c0.1,0,0.1,0.1,0,0.1h0c0,0,0,0,0,0c0,0,0.1,0,0.1,0c-0.1,0,0,0.1,0,0.1h0.1c-0.1,0.1-0.1,0.2,0,0.3h0
		c0,0,0,0,0,0c0,0,0,0.1,0.1,0.1h0v0c0.1,0,0.2,0.1,0.1,0.3h0c0,0,0,0,0,0v0c0.1,0,0,0.1,0.2,0h0l0,0c0,0.1,0.1,0.2,0.2,0.1
		c0,0,0,0,0,0v0c0,0.1,0,0.1,0.1,0.1h0v0.1v0c0,0,0,0.1,0.1,0c0,0,0,0,0,0c0,0.1,0,0.2,0.1,0.1c0,0.1,0.1,0.2,0.2,0.1c0,0,0,0,0.1,0
		v0h0c0,0.1,0.1,0.1,0.2,0.1c0,0,0,0,0,0.1c0,0,0.1,0,0.1,0v0h0v0l0.1,0c0,0,0,0,0,0c0,0,0-0.1,0,0c0,0.1,0,0.1,0.1,0c0,0,0,0,0,0v0
		c0,0,0,0,0,0h0.1c0,0.1,0,0,0,0s0.1,0,0,0c0,0,0,0,0.1,0c0,0,0,0,0,0.1c0,0,0,0,0,0c0,0,0,0,0,0c0,0,0,0,0,0h0v0.1v0
		c0,0,0,0,0.1-0.1v0.1v0l0,0c0,0,0,0,0,0l0,0c0,0,0,0,0,0c-0.1,0.1,0,0.1,0,0l0,0c0,0,0,0,0,0h0v0c0,0,0.1,0,0,0.1c0,0,0,0,0,0
		c0,0,0,0,0,0c0,0,0.1,0,0.1,0l-0.1,0c-0.1,0-0.1,0.1,0,0.1C23.7,7,23.7,7,23.7,7.1h-0.1c0,0,0,0.1,0.1,0.1c0,0,0,0-0.1,0h0
		c-0.1,0-0.1,0.1,0,0.1v0c-0.1,0-0.1,0.1,0,0.1h0c0,0,0,0,0,0c0,0,0.1,0.1,0,0.1h0c-0.1,0.1,0,0.1-0.1,0.2c0.1,0,0,0.1,0.1,0.1
		c0.1,0.1,0.1,0.2,0.1,0.4c0,0,0.1,0,0,0.1c0,0,0,0,0,0.1c0,0.1,0.1,0.1,0.1,0.1c0.1,0,0.1,0,0.1,0c0,0,0,0,0.1,0
		c0,0.1,0.1,0.1,0.1,0.1c0.1,0,0.1,0,0.2,0.1v0c0.1,0,0.2,0.1,0.3,0.1c0.1,0,0.2,0,0.3-0.1c0,0,0,0,0,0.1c0.2,0,0.4,0,0.6,0
		c0,0,0.1,0,0.1,0c0,0.1,0,0.1-0.1,0.2c0,0.1,0,0.2,0,0.4c0,0.1,0,0.1-0.1,0.2c0,0.3-0.3,0.4-0.3,0.7c0,0.1-0.1,0.1-0.1,0.2
		c0,0.1-0.1,0.1-0.1,0.2c0.2,0.1,0.3-0.1,0.4-0.2c0.3-0.5,0.6-1,0.8-1.5c0,0,0-0.1,0-0.1c0-0.1,0-0.1,0-0.2c0,0,0-0.1,0-0.1
		c0-0.1,0-0.2,0-0.2c0,0,0,0,0.1-0.1c0-0.1,0-0.3,0-0.4c0,0,0-0.1,0-0.1C26.4,7.6,26.4,7.5,26.4,7.3z M15.1,13.6
		C15.2,13.6,15.2,13.6,15.1,13.6l0.1,0c0.1,0,0.1,0,0.1-0.1h0c0,0,0-0.1,0-0.1c0,0,0,0,0,0l0,0c0,0,0,0,0.1,0c0,0,0,0,0,0
		c0,0,0,0,0,0h0l0,0l0,0c0,0,0,0,0,0s0,0,0,0c0,0,0,0,0,0c0,0,0,0,0,0c0.1,0.1,0,0,0.1,0v0c0-0.1,0-0.1,0.1,0v0c0,0,0,0,0,0v0
		c0,0,0-0.1,0-0.1c0.1,0,0.1,0,0.1,0v-0.1c0.1,0.1,0.1,0.1,0.2,0c0,0,0,0,0,0c0,0,0,0,0,0c0,0,0.1,0,0.1,0v0c0.1,0,0.2,0,0.3,0v0
		c0,0,0,0,0,0c0,0,0,0,0.1,0v0c0.1-0.1,0.1,0,0.1-0.1v0c0.1,0.1,0.2,0,0.3,0c0,0,0,0,0,0h0c0,0.1,0.1,0.1,0.1,0h0c0,0.1,0,0.1,0,0.1
		v0c0,0,0,0.1,0.1,0c0,0,0,0,0,0c0,0.1,0,0.1,0.1,0c0,0.1,0.1,0.2,0.2,0.2h0.1c0.1,0,0.1,0,0.2,0v0c0,0,0,0,0.1,0
		c0.1,0.1,0.2,0.1,0.3,0.1c0.1,0.1,0.1,0.1,0.2,0c0.1,0,0.1,0,0.2,0v0c0,0,0.1,0,0.1,0v0l0.1,0c0,0,0,0,0,0c0,0,0-0.1,0.1,0
		c0.1,0.1,0.1,0,0.1,0h0c0,0,0,0,0,0v0v0c0,0,0.1,0,0.1,0c0,0-0.1-0.1,0,0c0.1,0,0,0,0.1-0.1s0,0,0.1,0s0,0,0,0s0-0.1,0-0.1
		c0,0,0,0,0.1,0c0,0,0,0,0,0c0-0.1,0,0,0,0c0,0,0,0,0,0c0,0,0,0,0.1,0c0,0,0,0,0,0v0h0v0h0c0,0,0,0,0,0c0,0,0-0.1,0-0.1h0
		c0,0,0,0,0,0h0l0,0v0c0,0,0-0.1,0-0.1l0,0h0c0.1,0,0.1,0,0.1-0.1v0l0,0c0,0,0,0,0,0c0,0,0,0,0,0l0-0.1v0c0,0,0-0.1,0.1-0.1
		c0,0,0-0.1,0.1-0.1c0-0.1,0-0.1,0-0.1c0,0,0,0-0.1-0.1h0.1c0.1,0,0.2,0,0.1-0.1c0-0.1,0-0.2,0.1-0.3c0,0,0,0,0,0h0c0,0,0,0,0-0.1
		c0,0,0,0,0.1,0h0c0.1,0,0.1,0,0.1-0.1c0.1,0,0.1,0,0-0.1v0c0,0,0,0,0,0c0-0.1,0-0.1,0.1-0.1c0.1,0.1,0.1-0.1,0.1,0.1
		c0-0.1,0.2,0,0.2-0.2c0.1-0.1,0.3-0.2,0.4-0.2c0,0,0-0.1,0.1,0c0,0,0,0,0,0c0,0,0.1,0,0.1-0.1c0,0,0,0,0,0c0,0,0,0,0-0.1
		c0.1,0.1,0.2,0,0.3,0.1v0c0.1,0.1,0.2,0.1,0.3,0.2c0.1,0,0.2,0.1,0.3,0.1c0,0,0,0.1,0,0.1c0.1,0.1,0.2,0.2,0.3,0.3
		c0.1,0,0.3,0.1,0.4,0c0.1,0,0.2,0,0.3,0c0.1,0,0.3,0.1,0.4,0.2c-0.2,0.2-0.4,0.5-0.7,0.7c-0.1,0.1-0.1,0.2-0.2,0.2
		c-0.1,0-0.2,0.1-0.3,0.2c0,0,0,0.1,0,0.1l-0.1,0.1l-0.1,0l0,0.1l-0.1,0l-0.4,0.5c-0.1,0.1-0.2,0.1-0.3,0.2h-0.1l0,0l0,0
		c-0.1,0-0.2,0.1-0.2,0.2c-0.1,0.1-0.1,0.2-0.2,0.3c0,0,0,0.1,0,0.1l0,0l-0.3,0.3h-0.1v0l0,0V15l0,0v0c0,0,0,0,0,0c0,0-0.1,0-0.1,0
		c-0.2,0.2-0.4,0.3-0.5,0.6L20,15.8c-0.2,0.1-0.3,0.2-0.3,0.3c-0.1,0.1-0.2,0.3-0.3,0.3c-0.2,0-0.3,0.3-0.5,0.3l0,0h0
		c-0.1,0-0.1,0-0.1,0c-0.1,0-0.2,0-0.2,0c-0.1-0.1-0.2-0.1-0.2,0c-0.1,0-0.1,0-0.1-0.1c-0.1,0-0.1,0-0.1-0.1c-0.1,0-0.1-0.1-0.1-0.1
		l-0.2-0.2c-0.2-0.4-0.5-0.7-0.9-0.9c-0.4-0.3-0.8-0.7-1.1-1.1l0,0v-0.1C15.5,14,15.3,13.8,15.1,13.6C15.1,13.6,15.1,13.6,15.1,13.6
		z M13.1,11.5C13.1,11.4,13.1,11.4,13.1,11.5C13,11.4,13,11.4,13.1,11.5L13.1,11.5C13.1,11.4,13.1,11.4,13.1,11.5z M15.1,5.4
		c-0.2,0,0,0.1-0.2,0.1h0c0,0,0,0,0,0s0,0.1,0,0c-0.1,0-0.1,0,0,0.1c0,0,0,0,0,0c0,0,0,0,0,0s0,0,0,0l0,0c-0.1,0-0.2,0-0.3,0.2
		C14.4,6,14.3,6,14.1,6v0c-0.2,0-0.3-0.1-0.5-0.1c-0.1-0.1-0.2-0.1-0.2-0.2c-0.1-0.1-0.2-0.1-0.3-0.1l-0.2,1L13,6.5c0,0,0,0,0,0
		c0,0.1,0.1,0,0.2,0.1l0.2,0c0,0,0,0,0,0c0.1,0,0.1,0,0.2,0l0,0c0.1,0,0.1,0,0.2,0c0,0,0,0,0,0c0.1,0,0.1,0.1,0.1,0.2
		c0.1,0.1,0,0.2,0.1,0.3c0,0,0,0,0,0c0.1,0.1,0.1,0.2,0,0.2c0,0,0,0,0,0c0,0.1,0,0.2-0.1,0.2c0,0,0,0,0,0c-0.1,0.1-0.1,0.1-0.1,0.2
		c0,0-0.1,0-0.1,0c-0.1,0-0.1,0-0.1,0c-0.1,0-0.1,0.1-0.1,0c-0.1,0,0,0,0,0c0,0,0,0.1,0,0.1c0,0,0,0,0,0c0,0,0,0,0,0
		c0,0.1-0.1,0.2-0.2,0.2c-0.1-0.1-0.1,0.1-0.2,0c-0.1-0.1-0.1,0.1-0.2,0.1v0h0c-0.1,0-0.1,0.1-0.2,0.2v0h0c-0.1,0.1-0.2,0.3-0.1,0.5
		c0,0.2,0.1,0.3,0.1,0.4c0,0,0,0,0,0c0,0,0,0.1,0,0.1c-0.1,0.2,0.2,0.2,0.1,0.3l0,0.1c0,0,0,0,0,0.1c0,0,0,0.1,0.1,0.1
		c0.1,0,0.1,0,0.1,0c0,0,0,0,0,0c0,0,0,0,0,0c0,0,0,0,0,0.1l0.1,0.2c0,0,0.1,0,0,0.1v0l0,0c0,0,0,0,0,0.1c0,0,0,0.1,0.1,0.1
		c0,0.1,0,0.1,0.1,0.2c0,0,0,0,0,0c0,0,0,0.1,0,0.1c0.1,0,0.1,0.1,0,0.1c0.1,0,0.1,0.1,0,0.2c0,0,0,0,0,0c0,0,0,0,0,0c0,0,0,0,0,0
		l-0.2-0.2c-0.1-0.1-0.1-0.2-0.2-0.2c0,0-0.1-0.1-0.1-0.1c-0.1-0.1-0.1-0.2-0.2-0.2h-0.1c0-0.1-0.1-0.2-0.1-0.3
		c-0.2-0.3-0.4-0.6-0.6-0.9c0-0.1-0.1-0.1-0.1-0.2c-0.1-0.1-0.1-0.2-0.2-0.3C11.1,8.5,11,8,11,7.5c0-0.2,0-0.5,0-0.7
		c0-0.4,0.1-0.8,0.3-1.1c0,0,0.1,0,0.1,0c0.1-0.3,0.2-0.5,0.4-0.7c0.1-0.3,0.3-0.5,0.6-0.6c0-0.1,0.1-0.1,0.2-0.1
		c0.3-0.1,0.5-0.3,0.8-0.5c0.1,0,0.1,0,0.2,0c0.1,0.1,0.3-0.1,0.4,0c0.1,0,0.2,0,0.2,0c0.1,0,0.2,0,0.3,0c0.1,0.1,0.2,0,0.2,0
		c0,0,0,0,0,0c0,0,0,0,0,0l0,0.1l0.1,0.1c0,0,0,0.1,0,0.1c0,0.1,0.1,0.1,0.1,0.2c0,0,0.1,0,0,0.1c0,0.1,0,0.1,0,0.1h0v0l-0.1,0
		c0,0,0.1,0.1,0.1,0.1c0,0,0,0.1,0,0.1l-0.1,0c-0.1,0,0,0,0,0.1s0,0,0,0.1h0.1l0,0.1l-0.1,0h0.1l-0.1,0c0,0.1,0,0.1,0.1,0.2v0
		c0,0-0.1,0.1,0,0.1C15.1,5.3,15.2,5.4,15.1,5.4z M25.5,5.4L25.5,5.4C25.5,5.4,25.5,5.4,25.5,5.4L25.5,5.4z M25.4,8
		c0,0-0.1,0.1-0.1,0c0,0.1-0.1,0-0.1,0c-0.1,0-0.2,0-0.2,0C25,8,25,8,24.9,8c0,0,0,0,0,0.1c-0.1-0.2-0.2,0-0.3-0.1l-0.1,0
		c0-0.1,0-0.1-0.1-0.1c0,0,0,0,0-0.1c-0.1,0.1-0.1,0-0.1,0c0,0,0,0,0,0c0,0,0,0,0,0c0,0-0.1,0,0-0.1c-0.1,0,0,0,0-0.1
		c0.1-0.1,0-0.2,0-0.3c0,0,0,0-0.1,0c0.1,0,0-0.1,0-0.1h0c0,0,0,0,0-0.1h0c0.1,0,0,0,0,0h0V6.9c0,0,0,0-0.1,0l0.1,0
		c-0.1,0,0-0.1,0-0.1c0,0,0,0,0,0c-0.1,0,0-0.1,0-0.1c0,0-0.1,0,0-0.1c0,0-0.1,0,0,0s0-0.1,0-0.1s0,0,0,0c0,0-0.1,0-0.1,0
		c0,0,0.1-0.1,0.1-0.1c0-0.2-0.1-0.3-0.3-0.4c0,0,0-0.1,0-0.1c-0.1,0,0,0-0.1,0c0,0,0,0,0,0c0,0,0,0,0,0c0-0.1,0-0.1-0.1,0s0,0,0,0
		c0,0,0,0,0,0c0-0.1-0.1-0.1-0.2,0c-0.1,0-0.1,0-0.1,0l0,0c0,0,0,0,0,0c0-0.2-0.2,0-0.2-0.2c0,0,0,0,0,0.1c0,0,0-0.1,0-0.1
		c0,0-0.1,0-0.1-0.1c0-0.1-0.1-0.1-0.2-0.1l0,0h0c0,0,0,0,0-0.1c-0.1,0-0.1-0.1-0.2,0c0,0-0.1,0-0.1,0c-0.1,0.1-0.1,0-0.2,0
		c0,0,0,0,0,0c0,0,0,0,0,0c0,0,0-0.1-0.1,0c0,0.1-0.1,0,0,0l0,0c0,0,0,0,0,0l0,0c0-0.1,0-0.1-0.1-0.1c-0.1,0,0,0-0.1,0l0,0
		c0,0,0,0,0,0h0c0.1,0,0,0,0-0.1c0,0,0,0-0.1,0V4.7h0v0h0c0,0,0,0-0.1-0.1c0,0,0,0,0,0c0,0,0,0,0,0c0,0,0,0,0,0
		c-0.1-0.1,0-0.1-0.1-0.2v0c0,0,0-0.1,0-0.1c0,0,0,0-0.1,0c0,0,0,0,0,0V4.2h0.1v0c0,0,0,0,0,0c0.1,0,0.2,0,0.3-0.1
		c0.1,0,0.2-0.1,0.3-0.1c0,0,0,0,0.1,0c0.1,0,0.1,0,0.2,0c0.1,0,0.1,0,0.2,0.1c0.2,0,0.4,0.1,0.6,0.2c0.1,0,0.2,0,0.3,0.1l0.1,0v0
		c0.1,0,0.2,0.1,0.3,0.2c0.1,0,0.2,0.1,0.2,0.1c0.1,0,0.2,0.1,0.2,0.2C24.6,4.9,24.7,5,24.7,5c0.1,0.1,0.2,0.2,0.2,0.2
		c0,0,0,0.1,0,0.1c0.1,0.1,0.2,0.2,0.2,0.4c0.1,0.1,0.2,0.3,0.2,0.4c0.1,0.1,0.1,0.2,0.2,0.3c0,0.1,0.1,0.3,0.1,0.4
		c0,0,0.1,0.1,0,0.2c0,0,0,0,0,0c0,0,0,0.1,0,0.1l0,0v0c0.1,0.1,0.1,0.3,0,0.4c0.1,0.1,0,0.3,0,0.4c0,0,0,0,0,0c0,0,0,0.1,0,0l0,0
		C25.6,8,25.5,8,25.4,8z"/>
</g>
</svg>
