<?xml version="1.0" encoding="utf-8"?>
<!-- Generator: Adobe Illustrator 25.2.1, SVG Export Plug-In . SVG Version: 6.00 Build 0)  -->
<svg version="1.1" id="Layer_1" xmlns="http://www.w3.org/2000/svg" xmlns:xlink="http://www.w3.org/1999/xlink" x="0px" y="0px"
	 width="160.5px" height="89px" viewBox="0 0 160.5 89" style="enable-background:new 0 0 160.5 89;" xml:space="preserve">
<style type="text/css">
	.st0{fill:#0F2D52;}
</style>
<g>
	<path class="st0" d="M80.2,0C36,0,0,36,0,80.2c0,2.2,1.8,4,4,4h57.3c2.2,2.9,5.7,4.8,9.6,4.8c0.4,0,0.8,0,1.2-0.1
		c3.3-0.4,6.3-2.1,8.2-4.8h76.1c2.2,0,4-1.8,4-4C160.4,36,124.4,0,80.2,0z M74.1,79.1c-0.6,1.1-1.7,1.8-2.9,1.9
		c-2.2,0.2-4.1-1.3-4.2-3.4c-0.1-1.5,0.6-3,1.8-3.7c0.2-0.1,0.4-0.2,0.5-0.4l6.2-5.3c4.3-3.6,10.7-9,17.1-14.5L74.4,78.6
		C74.3,78.8,74.2,78.9,74.1,79.1z M86.1,76.2L118.5,32c0.1-0.2,0.3-0.4,0.4-0.6c0.9-1.7,0.4-3.8-1.1-5c-2.5-2-4.9-0.1-6.3,1
		c-0.8,0.7-2,1.6-3.5,2.8c-2.9,2.4-6.8,5.7-11.3,9.4C88,47.2,77.4,56.1,70.3,62.2l-6,5.1c-3.1,2-5,5.3-5.3,8.9H8.1
		C10.2,38.2,41.7,8,80.2,8c38.5,0,70,30.2,72.1,68.2H86.1z"/>
	<path class="st0" d="M80.2,10.6c-2.2,0-4,1.8-4,4v14.9c0,2.2,1.8,4,4,4s4-1.8,4-4V14.6C84.2,12.4,82.4,10.6,80.2,10.6z"/>
	<path class="st0" d="M58.8,18c-0.9-2-3.2-3-5.2-2.1c-2,0.9-3,3.2-2.1,5.2l2.6,6.1c0.6,1.5,2.1,2.4,3.7,2.4c0.5,0,1.1-0.1,1.6-0.3
		c2-0.9,3-3.2,2.1-5.2L58.8,18z"/>
	<path class="st0" d="M131.1,59.3c0.6,1.5,2.1,2.4,3.7,2.4c0.5,0,1.1-0.1,1.6-0.3l6.1-2.6c2-0.9,3-3.2,2.1-5.2c-0.9-2-3.2-3-5.2-2.1
		l-6.1,2.6C131.2,54.9,130.3,57.2,131.1,59.3z"/>
	<path class="st0" d="M107,15.9c-2-0.9-4.4,0.1-5.2,2.1l-2.6,6.1c-0.9,2,0.1,4.4,2.1,5.2c0.5,0.2,1,0.3,1.6,0.3c1.6,0,3-0.9,3.7-2.4
		l2.6-6.1C109.9,19.1,109,16.8,107,15.9z"/>
	<path class="st0" d="M27.3,54l-6.1-2.6c-2-0.9-4.4,0.1-5.2,2.1s0.1,4.4,2.1,5.2l6.1,2.6c0.5,0.2,1,0.3,1.6,0.3c1.6,0,3-0.9,3.7-2.4
		C30.2,57.2,29.3,54.9,27.3,54z"/>
	<path class="st0" d="M123.9,31l-4.7,4.7c-1.6,1.6-1.6,4.1,0,5.7c0.8,0.8,1.8,1.2,2.8,1.2s2-0.4,2.8-1.2l4.7-4.7
		c1.6-1.6,1.6-4.1,0-5.7C128,29.4,125.4,29.4,123.9,31z"/>
	<path class="st0" d="M36.6,31c-1.6-1.6-4.1-1.6-5.7,0c-1.6,1.6-1.6,4.1,0,5.7l4.7,4.7c0.8,0.8,1.8,1.2,2.8,1.2s2-0.4,2.8-1.2
		c1.6-1.6,1.6-4.1,0-5.7L36.6,31z"/>
</g>
</svg>
