<?xml version="1.0" encoding="utf-8"?>
<!-- Generator: Adobe Illustrator 25.2.1, SVG Export Plug-In . SVG Version: 6.00 Build 0)  -->
<svg version="1.1" id="Layer_1" xmlns="http://www.w3.org/2000/svg" xmlns:xlink="http://www.w3.org/1999/xlink" x="0px" y="0px"
	 width="128px" height="129.1px" viewBox="0 0 128 129.1" style="enable-background:new 0 0 128 129.1;" xml:space="preserve">
<style type="text/css">
	.st0{fill:#007EC4;}
	.st1{fill:#0F2D52;}
</style>
<g>
	<path class="st0" d="M121.5,82c1.7-5.6,2.5-11.5,2.5-17.4c0-3-0.2-6.1-0.7-9l-10.6,1.6c-1.1-7.5-3.9-14.4-8-20.4l8.9-6
		c-5-7.4-11.6-13.7-19.3-18.2l-5.5,9.2C82.6,18.1,75.6,15.7,68,15l1-10.7C67.2,4.1,65.3,4,63.4,4c-9.1,0-17.8,2-25.9,5.8l4.6,9.7
		c-6.7,3.2-12.6,7.8-17.2,13.5l-8.3-6.8C10.9,33.1,6.8,41.3,4.7,50L15,52.5c-1,3.9-1.5,7.9-1.5,12.1c0,3.3,0.3,6.6,1,9.8L4,76.4
		c1.7,8.7,5.5,17.1,10.8,24.3l8.6-6.4c4.4,5.9,10,10.8,16.6,14.2l-5.1,9.5c8,4.3,16.6,6.6,25.6,7l0.5-10.7c0.8,0,1.6,0.1,2.3,0.1
		c6.8,0,13.3-1.4,19.2-3.8l4.1,9.9c8.2-3.4,15.7-8.7,21.7-15.3l-8-7.2c4.9-5.4,8.6-11.9,10.7-19L121.5,82z M33.6,64.6
		c0-16.5,13.4-29.9,29.9-29.9s29.9,13.4,29.9,29.9s-13.5,29.8-30,29.8S33.6,81,33.6,64.6z"/>
	<path class="st1" d="M60.5,129c-0.1,0-0.1,0-0.2,0c-9.7-0.4-18.9-2.9-27.3-7.5c-1.9-1-2.7-3.5-1.6-5.4l3.3-6.1
		c-4.4-2.8-8.4-6.2-11.9-10.2l-5.5,4.1c-0.9,0.6-1.9,0.9-3,0.7c-1.1-0.2-2-0.7-2.6-1.6C5.8,95.3,1.9,86.3,0.1,77.2
		c-0.2-1,0-2.1,0.6-3c0.6-0.9,1.5-1.5,2.6-1.7l6.6-1.3c-0.3-2.1-0.4-4.3-0.4-6.6c0-3.1,0.3-6.2,0.8-9.1l-6.5-1.6
		c-2.1-0.5-3.5-2.7-2.9-4.8C3,39.8,7.4,31,13.5,23.7c1.4-1.7,3.9-1.9,5.6-0.5l5.3,4.3c3.6-3.8,7.8-7.1,12.4-9.7l-3-6.2
		c-0.5-1-0.5-2.1-0.2-3.1c0.4-1,1.1-1.8,2.1-2.3C44.5,2.1,53.8,0,63.4,0c2.1,0,4.1,0.1,6,0.3c2.2,0.2,3.7,2.2,3.5,4.3l-0.6,6.9
		c5.2,0.9,10.2,2.5,15,4.9l3.5-5.9C92,8.7,94.4,8,96.3,9.1c8.1,4.7,15.2,11.4,20.6,19.4c0.6,0.9,0.8,2,0.6,3s-0.8,2-1.7,2.6
		l-5.7,3.8c2.7,4.6,4.6,9.5,5.8,14.7l6.8-1c2.1-0.3,4.2,1.1,4.5,3.3c0.5,2.9,0.8,6.2,0.8,9.7c0,6.5-0.9,12.7-2.7,18.6
		c-0.6,2.1-2.8,3.3-4.9,2.7l-6.8-2c-1.9,4.9-4.5,9.6-7.7,13.7l5.1,4.6c0.8,0.7,1.3,1.7,1.3,2.8c0.1,1.1-0.3,2.1-1,2.9
		c-6.4,7.1-14.4,12.7-23.1,16.3c-1,0.4-2.1,0.4-3.1,0c-1-0.4-1.8-1.2-2.2-2.2l-2.6-6.4c-5,1.7-10.2,2.6-15.5,2.7l-0.3,6.8
		C64.4,127.3,62.6,129,60.5,129z M40.4,116.2c5.2,2.3,10.6,3.8,16.3,4.4l0.3-6.6c0.1-2.1,1.9-3.8,4-3.8c0.5,0,1,0,1.5,0.1
		c0.3,0,0.6,0,0.8,0c6,0,12-1.2,17.7-3.5c2-0.8,4.4,0.1,5.2,2.2l2.5,6.1c5-2.5,9.7-5.8,13.8-9.8l-4.9-4.4c-0.8-0.7-1.3-1.7-1.3-2.8
		s0.3-2.1,1-2.9c4.5-5,7.9-11,9.8-17.4c0.6-2.1,2.8-3.3,4.9-2.7l6.6,1.9c0.9-4,1.3-8.1,1.3-12.4c0-1.5-0.1-3-0.2-4.4l-6.5,1
		c-1.1,0.2-2.1-0.1-3-0.7c-0.9-0.6-1.4-1.6-1.6-2.6c-1-6.7-3.5-13-7.3-18.7c-0.6-0.9-0.8-2-0.6-3c0.2-1,0.8-2,1.7-2.6l5.5-3.7
		c-3.5-4.5-7.7-8.4-12.3-11.6l-3.4,5.7c-1.1,1.9-3.6,2.5-5.5,1.4c-5.9-3.5-12.3-5.6-19.1-6.3c-1.1-0.1-2-0.6-2.7-1.4s-1-1.9-0.9-2.9
		L64.6,8c-0.4,0-0.8,0-1.2,0c-7.1,0-13.9,1.3-20.5,3.8l2.8,5.9c0.9,2,0.1,4.4-1.9,5.3c-6.2,3-11.6,7.2-15.8,12.4
		c-0.7,0.8-1.6,1.4-2.7,1.5c-1.1,0.1-2.1-0.2-2.9-0.9l-5.1-4.2c-3.3,4.6-5.9,9.8-7.6,15.2l6.3,1.5c1,0.3,1.9,0.9,2.5,1.8
		c0.6,0.9,0.7,2,0.4,3.1c-0.9,3.6-1.4,7.2-1.4,11.1c0,3.2,0.3,6.2,0.9,8.9c0.2,1.1,0,2.2-0.6,3.1c-0.6,0.9-1.5,1.5-2.6,1.7l-6.4,1.2
		c1.5,5.4,3.8,10.6,6.9,15.5l5.3-3.9c1.8-1.3,4.3-1,5.6,0.8c4.2,5.6,9.3,10,15.2,13c1,0.5,1.7,1.3,2,2.4c0.3,1,0.2,2.1-0.3,3.1
		L40.4,116.2z M63.4,98.4c-18.6,0-33.8-15.2-33.8-33.8c0-18.7,15.2-33.9,33.9-33.9s33.9,15.2,33.9,33.9
		C97.4,83.2,82.1,98.4,63.4,98.4z M63.5,38.7c-14.3,0-25.9,11.6-25.9,25.9c0,14.2,11.6,25.8,25.8,25.8c14.3,0,26-11.6,26-25.8
		C89.4,50.3,77.8,38.7,63.5,38.7z"/>
</g>
</svg>
