<?xml version="1.0" encoding="utf-8"?>
<!-- Generator: Adobe Illustrator 25.2.1, SVG Export Plug-In . SVG Version: 6.00 Build 0)  -->
<svg version="1.1" id="Layer_1" xmlns="http://www.w3.org/2000/svg" xmlns:xlink="http://www.w3.org/1999/xlink" x="0px" y="0px"
	 width="103.5px" height="122.3px" viewBox="0 0 103.5 122.3" style="enable-background:new 0 0 103.5 122.3;" xml:space="preserve"
	>
<style type="text/css">
	.st0{fill:#0F2D52;}
</style>
<path class="st0" d="M103.5,117.7l-4.9-31.9c0-0.2-0.1-0.4-0.1-0.5c0,0,0,0,0-0.1c-0.1-0.2-0.1-0.4-0.2-0.6c0-0.1-0.1-0.1-0.1-0.2
	c-0.1-0.2-0.2-0.3-0.3-0.5c0,0,0-0.1-0.1-0.1L41.7,13.3c0-0.1-0.1-0.1-0.1-0.2l-7.6-8.8c0,0,0,0,0,0c-2.2-2.5-5.3-4-8.7-4.3
	c-3.7-0.2-7.5,1.1-10.5,3.6l-9.4,7.5c0,0-0.1,0.1-0.1,0.1c-3,2.6-4.9,6.3-5.2,10.1c-0.2,3.4,0.8,6.7,3,9.2l7.6,8.7L68,111.4
	c0,0,0,0,0.1,0.1c0.2,0.2,0.3,0.4,0.5,0.5c0,0,0,0,0.1,0.1c0.2,0.1,0.4,0.3,0.6,0.4c0,0,0.1,0,0.1,0.1c0.2,0.1,0.4,0.2,0.6,0.2
	l28.4,9.4c0.4,0.1,0.8,0.2,1.3,0.2c0.9,0,1.8-0.3,2.6-0.9C103.1,120.5,103.7,119.1,103.5,117.7z M78.7,107.2l13.1-12.6l1.3,8.3
	c-0.1,0.1-0.2,0.2-0.3,0.3l-6.5,6.5L78.7,107.2z M71.5,103L19.2,37.2l18.7-15.8L89.2,86l-16.7,16L71.5,103z M8,21.9
	c0.1-1.7,1-3.3,2.4-4.5l9.4-7.6c0,0,0.1-0.1,0.1-0.1C21.3,8.5,23,7.9,24.7,8c0.9,0.1,2.2,0.4,3.2,1.5l4.9,5.6L14.1,31.1L9,25.3
	C8,24.2,7.9,22.8,8,21.9z"/>
</svg>
