<?xml version="1.0" encoding="utf-8"?>
<!-- Generator: Adobe Illustrator 25.2.1, SVG Export Plug-In . SVG Version: 6.00 Build 0)  -->
<svg version="1.1" id="Layer_1" xmlns="http://www.w3.org/2000/svg" xmlns:xlink="http://www.w3.org/1999/xlink" x="0px" y="0px"
	 width="110.5px" height="154.9px" viewBox="0 0 110.5 154.9" style="enable-background:new 0 0 110.5 154.9;" xml:space="preserve"
	>
<style type="text/css">
	.st0{fill:#0F2D52;}
</style>
<path class="st0" d="M107.4,98.9c-3.4-4.7-9.5-7.7-16-9.9c1.8-4.3,3-8,3.5-9.5c0-0.1,0.1-0.2,0.1-0.3c0.4-1.7,9.7-42.7-8.1-65.2
	C79.5,4.7,68.7,0,54.6,0C39.9,0,28.7,5.1,21.4,15.1c-14.3,19.5-8.8,51.1-5.8,60.6L16,77c1.3,4.2,2.6,8.2,4,11.8
	C13.2,91,6.7,94,3.2,98.9c-6.6,9.2-1.3,42.7,0.5,52.7c0.3,1.9,2,3.3,3.9,3.3h95.2c1.9,0,3.6-1.4,3.9-3.3
	C108.5,141.5,113.8,108,107.4,98.9z M80.7,19c14.9,18.8,7.1,55.7,6.6,58.2c-0.9,2.8-2.2,6.2-3.6,9.5c-0.4-0.1-0.7-0.2-1-0.3
	C85,71.3,85.1,53,85.1,45.4c0,0,0,0,0,0c0,0,0,0,0-0.1c0-2.2-1.8-4-4-4c-0.1,0-0.1,0-0.2,0c-2.1-0.4-8.4-1.7-13.9-5.5
	c-4.9-3.4-9.9-13-12-17.7l0.9-3.3l1.8-6.8C67.8,8.7,75.3,12.3,80.7,19z M66.2,87.4L55.2,98.6L44.7,87.5c0.9-1.4,1.5-3,1.9-4.6
	c2.6,0.9,5.2,1.4,8,1.4c3.4,0,6.6-0.7,9.6-2.1C64.6,84,65.2,85.8,66.2,87.4z M37.6,83.6c-0.1,0-0.2,0.1-0.3,0.1
	c-0.3,0.1-0.7,0.3-1.1,0.4c-0.5-2.9-0.9-6.1-1.4-9.4c1.3,1.5,2.8,2.9,4.3,4.1C38.9,81.6,38.2,83.1,37.6,83.6z M32.3,45.1
	c2.4-1.5,6.5-4.1,10.1-7.3c2.9-2.6,5.8-6.9,8-10.6c2.8,5.2,7,11.8,12,15.2c5.2,3.6,10.9,5.4,14.5,6.3c-1.3,15.1-11.2,27.7-22.4,27.7
	c-2.9,0-5.8-0.9-8.4-2.5c-0.4-0.4-0.9-0.7-1.5-1C38.7,68.6,34,60.5,32.6,51.1C32.5,49.1,32.4,47.1,32.3,45.1z M71.7,77.4
	c1.5-1.4,3-2.9,4.3-4.6c-0.3,4-0.8,7.9-1.2,11.4c-0.4-0.2-0.8-0.3-1.2-0.5c-0.1,0-0.2-0.1-0.3-0.1C72.9,83.2,71.9,81.8,71.7,77.4z
	 M23.6,74.6l-0.4-1.3c-3.4-10.7-6.8-37.8,4.6-53.4c4.9-6.7,12.1-10.5,21.5-11.6L46.9,17c-1.6,3.3-6.2,11.6-9.8,14.8
	c-4.8,4.2-10.8,7.6-10.9,7.6c-1.3,0.7-2.1,2.2-2.1,3.7c0,0.5,0,1,0.1,1.5c0,0.2-0.1,0.5-0.1,0.7c0,2.2,0.2,4.4,0.5,6.5
	c0.6,9.5,1.7,22.9,3.8,34.5c-0.3,0.1-0.5,0.1-0.8,0.2C26.1,82.3,24.7,77.9,23.6,74.6z M99.4,146.9H11c-3-18.3-4.3-39.2-1.3-43.4
	c2.3-3.2,7.7-5.5,13.2-7.3c3.1,7,6.4,12,10.7,13.9c1.2,0.5,2.5,0.8,3.7,0.8c1.3,0,2.6-0.3,3.8-0.8c1.2-0.6,2.1-1.7,2.3-3.1
	c0.2-1.4-0.3-2.7-1.4-3.6c-1.5-1.3-3-5.5-4.3-11.4c0.1,0,0.1,0,0.2-0.1l14.3,15.1c0.7,0.8,1.8,1.2,2.9,1.2c0,0,0,0,0,0
	c1.1,0,2.1-0.4,2.9-1.2L72.9,92c0.2,0.1,0.4,0.1,0.5,0.2c-1.1,5.1-2.4,8.8-3.9,10c-1.1,0.9-1.6,2.3-1.4,3.7c0.2,1.4,1.1,2.6,2.4,3.1
	c1.1,0.5,2.2,0.7,3.3,0.7c1.2,0,2.5-0.3,3.7-0.8c4-1.8,7.7-7,10.6-12.5c5.4,1.8,10.6,4,12.8,7.2C103.8,107.7,102.4,128.6,99.4,146.9
	z"/>
</svg>
