<?xml version="1.0" encoding="utf-8"?>
<!-- Generator: Adobe Illustrator 25.3.1, SVG Export Plug-In . SVG Version: 6.00 Build 0)  -->
<svg version="1.1" id="Capa_1" xmlns="http://www.w3.org/2000/svg" xmlns:xlink="http://www.w3.org/1999/xlink" x="0px" y="0px"
	 width="18px" height="18px" viewBox="0 0 18 18" style="enable-background:new 0 0 18 18;" xml:space="preserve">
<style type="text/css">
	.st0{fill:none;}
	.st1{fill:#007EC5;}
</style>
<g transform="translate(-203 -126) rotate(90)">
	<g transform="translate(126 -221)">
		<path class="st0" d="M5,0h8c2.8,0,5,2.2,5,5v8c0,2.8-2.2,5-5,5H5c-2.8,0-5-2.2-5-5V5C0,2.2,2.2,0,5,0z"/>
		<path class="st1" d="M18,5v8c0,2.8-2.2,5-5,5H5c-2.8,0-5-2.2-5-5V5c0-2.8,2.2-5,5-5h8C15.8,0,18,2.2,18,5z M1,13c0,2.2,1.8,4,4,4
			h8c2.2,0,4-1.8,4-4V5c0-2.2-1.8-4-4-4H5C2.8,1,1,2.8,1,5V13z"/>
	</g>
	<path class="st1" d="M135.9-212l-3-3c-0.2-0.2-0.2-0.6,0-0.8l0,0c0.2-0.2,0.6-0.2,0.8,0l3.4,3.4c0.2,0.2,0.2,0.6,0,0.8l-3.4,3.4
		c-0.2,0.2-0.6,0.2-0.8,0s-0.2-0.6,0-0.8L135.9-212z"/>
</g>
</svg>
