<?xml version="1.0" encoding="utf-8"?>
<!-- Generator: Adobe Illustrator 25.2.1, SVG Export Plug-In . SVG Version: 6.00 Build 0)  -->
<svg version="1.1" id="Layer_1" xmlns="http://www.w3.org/2000/svg" xmlns:xlink="http://www.w3.org/1999/xlink" x="0px" y="0px"
	 width="131.7px" height="133.1px" viewBox="0 0 131.7 133.1" style="enable-background:new 0 0 131.7 133.1;" xml:space="preserve"
	>
<style type="text/css">
	.st0{fill:#FFFFFF;}
	.st1{fill:#0F2D52;}
	.st2{fill:#EA2C38;}
</style>
<path class="st0" d="M119.7,19.1H12c-4.4,0-8,3.6-8,8v94.1c0,4.4,3.6,8,8,8h107.7c4.4,0,8-3.6,8-8V27.1
	C127.7,22.7,124.1,19.1,119.7,19.1z"/>
<g>
	<g>
		<rect x="22" y="101.2" class="st1" width="14.7" height="14.7"/>
		<rect x="46.3" y="101.2" class="st1" width="14.7" height="14.7"/>
		<rect x="70.6" y="101.2" class="st1" width="14.7" height="14.7"/>
		<rect x="94.9" y="101.2" class="st1" width="14.7" height="14.7"/>
	</g>
	<g>
		<rect x="22" y="76.7" class="st1" width="14.7" height="14.7"/>
		<rect x="46.3" y="76.7" class="st1" width="14.7" height="14.7"/>
		<rect x="70.6" y="76.7" class="st1" width="14.7" height="14.7"/>
		<rect x="94.9" y="76.7" class="st1" width="14.7" height="14.7"/>
	</g>
	<g>
		<rect x="46.3" y="52.1" class="st1" width="14.7" height="14.7"/>
		<rect x="70.6" y="52.1" class="st1" width="14.7" height="14.7"/>
		<rect x="94.9" y="52.1" class="st1" width="14.7" height="14.7"/>
	</g>
</g>
<path class="st2" d="M127.7,42.1v-15c0-4.4-3.6-8-8-8H12c-4.4,0-8,3.6-8,8v15H127.7z"/>
<path class="st1" d="M119.7,15.1h-1.9V7.5c0-4.2-2.8-7.5-6.3-7.5h-1.7c-3.5,0-6.3,3.3-6.3,7.5v7.6H87.9V7.5c0-4.2-2.8-7.5-6.3-7.5
	h-1.7c-3.5,0-6.3,3.3-6.3,7.5v7.6H58V7.5C58,3.3,55.2,0,51.7,0H50c-3.5,0-6.3,3.3-6.3,7.5v7.6H28.1V7.5c0-4.2-2.8-7.5-6.3-7.5h-1.7
	c-3.5,0-6.3,3.3-6.3,7.5v7.6H12c-6.6,0-12,5.4-12,12v15v79.1c0,6.6,5.4,12,12,12h107.7c6.6,0,12-5.4,12-12V42.1v-15
	C131.7,20.5,126.3,15.1,119.7,15.1z M8,27.1c0-2.2,1.8-4,4-4h2.4c1,2.5,3.1,4.2,5.7,4.2h1.7c2.5,0,4.7-1.7,5.7-4.2h16.9
	c1,2.5,3.1,4.2,5.7,4.2h1.7c2.5,0,4.7-1.7,5.7-4.2h16.9c1,2.5,3.1,4.2,5.7,4.2h1.7c2.5,0,4.7-1.7,5.7-4.2h16.9
	c1,2.5,3.1,4.2,5.7,4.2h1.7c2.5,0,4.7-1.7,5.7-4.2h2.5c2.2,0,4,1.8,4,4v11H8V27.1z M119.7,125.2H12c-2.2,0-4-1.8-4-4V46.1h115.7
	v75.1C123.7,123.4,121.9,125.2,119.7,125.2z"/>
</svg>
