<?xml version="1.0" encoding="utf-8"?>
<!-- Generator: Adobe Illustrator 25.2.1, SVG Export Plug-In . SVG Version: 6.00 Build 0)  -->
<svg version="1.1" id="Layer_1" xmlns="http://www.w3.org/2000/svg" xmlns:xlink="http://www.w3.org/1999/xlink" x="0px" y="0px"
	 width="137.7px" height="137.2px" viewBox="0 0 137.7 137.2" style="enable-background:new 0 0 137.7 137.2;" xml:space="preserve"
	>
<style type="text/css">
	.st0{fill:#459ED7;}
	.st1{fill:#132E52;}
	.st2{fill:#8FC640;}
	.st3{fill:#007EC4;}
	.st4{fill:#AAD268;}
</style>
<ellipse class="st0" cx="68.8" cy="68.6" rx="64.8" ry="64.6"/>
<path class="st1" d="M68.8,137.2C30.9,137.2,0,106.4,0,68.6S30.9,0,68.8,0s68.8,30.8,68.8,68.6S106.7,137.2,68.8,137.2z M68.8,8
	C35.3,8,8,35.2,8,68.6s27.3,60.6,60.8,60.6c33.5,0,60.8-27.2,60.8-60.6S102.3,8,68.8,8z"/>
<path class="st2" d="M32.3,84.4c0,0,0.5-3.7,5.3-1.7c4.9,2,7.9,4.2,14,4.8c6.1,0.6,4.9,5.7,4.9,5.7s13.7,0.2,15.6,6.9c0,0,0,1-1.7,3
	s-2.6,3.1-2.8,5.7c-0.2,2.7-1,3.1-1,3.1s-5.6,3-5.9,5.9c-0.3,2.9-0.2,3.1-1.2,3.5c-1.1,0.3-5,0.6-3.4,4.6c1.6,4,5.4,6.8,5.4,6.8
	l-3.6-0.5c0,0-11.7-10.9-14-21c0,0,0.4-3-1.8-4.7s-4.1-1-4.1-1s-2.3,0.7-4.6-4.2c-2.4-4.9-1.7-7.9-1.7-7.9s0.2-4-0.1-4.9
	c-0.3-0.9-2.7-1.1-5.3-3.1c-2.7-2-3.6-4.1-3.6-4.1s-1.8-0.4-4.3-1s-5.3-1.5-6.8-3.6S9.7,73,9.7,73s0.5-3.1-0.4-3.6s-1.3,3-1.3,3
	s-2.7,1.7-4-1.8l0.9-13l1.6-7.1l2-5.8l2.9-6.2l3.8-6.3l4.7-6l6-6.1l7.1-5.5l7.3-4.1l6.9-2.9c0,0,3.3,1.4,2.4,2.7
	c-0.9,1.3-3,1.5-3,1.5s-2.2-0.2-1.8,1s2.8,0.7,2.8,0.7s-0.3,3.1,1.7,4.7s4,2.8,3.1,4.5S46.7,27,46.7,27s-1.9-3.5-3.3-2.6
	s1.7,4.8,1.7,4.8s2.6-0.7,4,1s7,6.2,6.4,12.6c0,0,0.3,1-1.2,0.5s-2.4-1-3.5-0.5S49.2,45,49.2,45s-0.7,1.6-2.9,2S43,47.2,42,47.8
	s-7.6,5.3-8.6,7.9c-1,2.6-0.7,2.9-2.3,3.4s-3.3,0.7-3.3,0.7s-0.9,0.6-1.1,1.4s2.4,6,0.6,8.2c0,0-1.6,0.6-4-6.5c0,0-5,2.9-6.5,2.9
	s-1.9,1.8-1.6,3.4c0.4,1.6,2.8,4.8,3.1,4.9s0.8,0.6,1.4-0.1s1.3-3.2,1.3-3.2s1.7-0.2,1.8,1.8s0.1,4,0.1,4s-0.4,0.8,0.9,0.8
	s3-0.3,3,1.1c0.1,1.5-0.5,3-0.5,3S26.6,86.6,32.3,84.4z"/>
<path class="st1" d="M61.5,136.7c-0.2,0-0.4,0-0.6,0l-3.6-0.5c-0.8-0.1-1.6-0.5-2.2-1c-0.5-0.5-12.6-11.9-15.2-23
	c-0.1-0.5-0.2-0.9-0.1-1.4c0-0.2-0.1-0.8-0.3-1c-0.3-0.2-0.5-0.3-0.6-0.3c-1.2,0.3-5.8,1-9.3-6.4c-2.5-5-2.3-8.7-2.1-10
	c0-0.7,0-1.5,0-2.1c-1.1-0.5-2.4-1.1-3.9-2.3c-1.8-1.3-2.9-2.7-3.7-3.7c-0.7-0.2-1.6-0.4-2.7-0.6c-3.1-0.7-6.8-2-9.1-5.2
	c-0.6-0.8-1-1.6-1.4-2.2c-0.8,0.1-1.6,0-2.4-0.3C3.2,76,1.3,74.9,0.2,72C0.1,71.5,0,70.9,0,70.3l0.9-13c0-0.2,0-0.4,0.1-0.6l1.6-7.1
	c0-0.1,0.1-0.3,0.1-0.4l2-5.8c0-0.1,0.1-0.3,0.2-0.4l2.9-6.2c0.1-0.1,0.1-0.3,0.2-0.4l3.8-6.3c0.1-0.1,0.2-0.3,0.3-0.4l4.7-6
	c0.1-0.1,0.2-0.2,0.3-0.3l6-6.1c0.1-0.1,0.3-0.2,0.4-0.4l7.1-5.5c0.2-0.1,0.3-0.2,0.5-0.3L38.3,7c0.1-0.1,0.3-0.1,0.4-0.2l6.9-2.9
	c1-0.4,2.1-0.4,3.1,0c1.5,0.6,4.1,2.1,4.8,4.6c0.4,1.4,0.2,2.9-0.7,4.1c-0.4,0.6-0.8,1-1.3,1.4c0,0.4,0.1,1,0.2,1.1
	c0.2,0.2,0.5,0.4,0.7,0.5c1.7,1.3,5.8,4.5,3.4,8.9c-0.6,1.2-1.9,2.4-3.4,3.5c0.1,0.1,0.2,0.2,0.4,0.4c2.3,2.4,7,7.3,6.6,14.3
	c0.1,1.3-0.4,2.6-1.3,3.5c-0.8,0.7-2.4,1.8-5.2,0.9c-0.1,0-0.2-0.1-0.4-0.1c-0.8,1.6-2.7,3.4-5.7,4c-1,0.2-1.8,0.3-2.4,0.3
	c-0.2,0-0.5,0.1-0.7,0.1c-1.7,1.1-6.1,4.6-6.8,5.9c-0.2,0.4-0.3,0.8-0.4,1.2c-0.7,1.9-1.4,3.6-4.4,4.5c-0.3,0.1-0.6,0.2-1,0.3
	c0.7,2.6,1.2,6.1-0.9,8.7c-0.4,0.5-1,1-1.7,1.2c-0.6,0.2-1.2,0.3-1.9,0.3c0,0.1,0,0.1,0,0.2c0.8,0.2,1.7,0.6,2.5,1.3
	c0.9,0.9,1.5,2.1,1.5,3.5c0,0.4,0,0.8,0,1.2c0.3-0.2,0.5-0.4,0.8-0.6c1.4-0.8,3.9-1.5,7.5,0c1.3,0.5,2.4,1.1,3.5,1.6
	c3,1.4,5.5,2.6,9.4,2.9c3.9,0.4,6,2.2,7.1,3.7c0.5,0.7,0.9,1.5,1.1,2.2C65.4,90,74,92.1,75.9,99c0.1,0.4,0.2,0.7,0.2,1.1
	c0,1.1-0.5,3-2.7,5.6c-1.6,1.8-1.8,2.1-1.9,3.4c-0.3,4-1.8,5.6-3.1,6.3c-1.6,0.9-3.4,2.3-3.8,3l-0.1,0.6c-0.2,2.3-0.5,4.7-3.6,6
	c-0.1,0.1-0.3,0.1-0.4,0.1c-0.1,0-0.2,0.1-0.3,0.1c1.3,2.4,3.6,4.2,3.7,4.2c1.5,1.1,2,3,1.3,4.7C64.6,135.7,63.1,136.7,61.5,136.7z
	 M47.9,110.8c0.8,3.1,2.8,6.5,5,9.6c1-1.4,2.5-2.1,3.7-2.5l0.1-0.5c0.4-3.9,4.3-6.8,6.8-8.4c0-0.1,0-0.3,0.1-0.5c0.3-4,2-5.9,3.7-8
	c0.1-0.1,0.2-0.2,0.2-0.3c-1.9-1.8-7.3-2.9-11.2-3c-1.3,0-2.5-0.5-3.2-1.5c-0.7-1-1-2.2-0.6-3.3c0-0.2,0-0.4,0-0.5
	c-0.1-0.1-0.4-0.3-1.3-0.4c-5.3-0.5-8.7-2.1-12-3.7c-1-0.5-2.1-1-3.2-1.4c-0.1,0-0.2-0.1-0.2-0.1c-0.1,0.3-0.3,0.5-0.5,0.7
	c0,0.1,0.1,0.1,0.1,0.2c0.2,0.5,0.5,1.6,0.3,6.4c0,0.3,0,0.4-0.1,0.6c0,0.4-0.1,2.3,1.4,5.3c0.5,1,0.9,1.6,1.1,1.9
	c1.8-0.2,4.2,0.2,6.4,1.9C47.6,105.7,48,109.2,47.9,110.8z M39.3,109.3C39.3,109.3,39.3,109.3,39.3,109.3
	C39.3,109.3,39.3,109.3,39.3,109.3z M39.4,109.3C39.4,109.3,39.4,109.3,39.4,109.3C39.4,109.3,39.4,109.3,39.4,109.3z M64.8,108.3
	C64.8,108.3,64.8,108.3,64.8,108.3C64.8,108.3,64.8,108.3,64.8,108.3z M64.8,108.3C64.8,108.3,64.8,108.3,64.8,108.3
	C64.8,108.3,64.8,108.3,64.8,108.3z M64.8,108.3C64.8,108.3,64.8,108.3,64.8,108.3C64.8,108.3,64.8,108.3,64.8,108.3z M64.8,108.3
	C64.8,108.3,64.8,108.3,64.8,108.3C64.8,108.3,64.8,108.3,64.8,108.3z M64.8,108.3C64.8,108.3,64.8,108.3,64.8,108.3
	C64.8,108.3,64.8,108.3,64.8,108.3z M64.8,108.3C64.8,108.3,64.8,108.3,64.8,108.3C64.8,108.3,64.8,108.3,64.8,108.3z M38.4,101.7
	L38.4,101.7L38.4,101.7z M35.6,94.3L35.6,94.3L35.6,94.3z M36.3,84.9C36.3,84.9,36.3,84.9,36.3,84.9C36.3,84.9,36.3,84.9,36.3,84.9z
	 M9.1,65.4c0.7,0,1.5,0.2,2.1,0.6c0.1,0,0.1,0.1,0.2,0.1c0.2-0.8,0.6-1.6,1.2-2.2c1-1.2,2.4-1.9,3.9-2c0.8-0.2,3-1.3,4.8-2.4
	c0.6-0.4,1.3-0.6,2-0.5c0.7-1.3,1.8-2.2,2.2-2.4c0.5-0.3,1.1-0.6,1.8-0.6c0,0,0.9-0.1,1.9-0.4c0.1-0.3,0.3-0.7,0.4-1.2
	c1.7-4.4,10.2-9.8,10.3-9.9c1.4-0.8,2.7-1,3.9-1.1c0.5-0.1,1.1-0.1,1.8-0.2c0,0,0.1,0,0.1,0c0.5-1.2,1.5-3,3.5-3.9
	c0.6-0.3,1.1-0.4,1.6-0.5c-0.9-1.9-2.5-3.5-3.6-4.7c-0.3-0.3-0.6-0.7-0.9-0.9c-0.1,0-0.2,0-0.2,0c-1.6,0.5-3.1-0.1-4.2-1.5
	c-2.2-2.9-3.1-5.5-2.7-7.5c0.3-1.3,1-2.4,2.1-3.1c1.1-0.7,2.5-0.9,3.8-0.6c0.4,0.1,0.7,0.2,1.1,0.4c-1.1-1.1-1.8-2.4-2.2-3.6
	c-1.3-0.5-2.3-1.4-2.9-2.6l-6,3.4l-6.7,5.2l-5.7,5.7l-4.4,5.6l-3.6,5.9l-2.7,5.8l-1.9,5.4l-1.5,6.6l-0.5,7.2
	C8.6,65.4,8.9,65.4,9.1,65.4z M16.8,61.8C16.8,61.8,16.8,61.8,16.8,61.8C16.8,61.8,16.8,61.8,16.8,61.8z"/>
<path class="st2" d="M57.2,5.9c0,0-3.5,4.7-2,5.7s4.4,1.4,4.3,2.3c-0.2,0.9-0.8,2.8-0.5,3.5s1.6,1.7,1.4,2.1
	C60.1,20,58.7,23,58.7,23s-0.5,0.6,0.9,3.2s3.8,4.9,3.8,4.9s0.9,0.9,1.8,0s2.4-5.9,2.4-5.9s0.5-0.7,1.1-0.3s1.3,1,1.7,0.5
	s0.9-2.9,1.8-3.4s7.2-2.1,7.7-2.7s0.7-0.7,0.3-1.9s-2-5.7-2.8-6.7s-1.3-0.9-2-1s-2.2,0.6-2.8,0S70,6.6,70,6.6s-1.3-0.5-3.6-0.1
	S63,7.6,62.2,7.1S61,4.8,61,4.8L57.2,5.9z"/>
<path class="st1" d="M64.4,35.5c-1.4,0-2.8-0.6-3.8-1.6c-0.2-0.2-2.8-2.8-4.5-5.8c-0.6-1.1-2.4-4.4-0.9-7c0.2-0.5,0.4-0.9,0.6-1.3
	c-0.2-0.3-0.3-0.5-0.5-0.8c-0.4-1-0.5-2-0.3-3c-0.7-0.3-1.4-0.6-2-1c-1.1-0.7-1.8-1.9-2.1-3.2c-0.4-2.2,0.7-4.9,3.1-8.2
	c0.5-0.7,1.3-1.2,2.1-1.5L59.9,1c1.1-0.3,2.2-0.2,3.2,0.4c0.6,0.4,1.1,0.9,1.4,1.5c0.4-0.1,0.8-0.2,1.2-0.3c3.1-0.5,5.2,0.1,5.7,0.3
	c0.7,0.3,1.2,0.7,1.7,1.2c0.4,0.5,0.9,1.1,1.3,1.6c0.4-0.1,1-0.1,1.5,0l0.1,0c1.3,0.1,2.9,0.5,4.4,2.4c1.3,1.6,2.9,6.1,3.5,7.9
	c0.8,2.3,0.5,4-0.9,5.6L83,21.9c-1,1.2-2.4,1.7-6.5,2.9c-0.5,0.2-1.2,0.4-1.7,0.5c-0.1,0.1-0.1,0.3-0.2,0.4
	c-0.3,0.8-0.6,1.5-1.1,2.2c-0.3,0.4-1.4,1.6-3.2,1.7c-1.2,3.2-2,4-2.3,4.4C66.9,35,65.6,35.5,64.4,35.5z M66.1,28.2
	C66.1,28.2,66.2,28.2,66.1,28.2C66.2,28.2,66.1,28.2,66.1,28.2z M61.9,25.4c0,0.1-0.1,0.1-0.2,0.2C61.8,25.5,61.9,25.4,61.9,25.4z
	 M62.8,23.7c0.1,0.2,0.2,0.4,0.3,0.6c0.1,0.2,0.2,0.4,0.4,0.6c0.1-0.3,0.2-0.6,0.3-0.9c0.1-0.4,0.3-0.8,0.6-1.2
	c0.9-1.3,2.3-2,3.7-2.1c0.5-0.9,1.2-1.7,2.2-2.3c0.7-0.4,1.6-0.7,3.9-1.4c0.4-0.1,1-0.3,1.5-0.5c-0.4-1.1-0.8-2.1-1.1-2.8
	c-1.2,0.2-3.2,0.3-4.8-1.3c-0.4-0.4-1.2-1.4-1.9-2.2c-0.2,0-0.5,0-0.8,0.1c-0.6,0.1-1.2,0.3-1.7,0.4c-0.7,0.2-1.7,0.5-2.7,0.4
	c0.6,0.8,0.9,1.8,0.8,3.1c0,0.1,0,0.3-0.1,0.4c0,0.2-0.1,0.5-0.2,0.7c0,0.2-0.1,0.4-0.2,0.6c0.8,0.9,2,2.9,0.9,5.2
	c0,0.1-0.1,0.2-0.1,0.3C63.7,21.8,63.3,22.7,62.8,23.7z M62.9,16.9L62.9,16.9L62.9,16.9z M57,16.7L57,16.7L57,16.7z M75.5,13.7
	L75.5,13.7L75.5,13.7z"/>
<path class="st2" d="M107.5,18.2c0,0-6.1-1.2-6.7,1.9s1.6,5,1.6,5s1.1,1.1,0.5,2.2s-1.7,0.6-1.6,1.7s2.9,3.3,6.2,4.1
	c3.3,0.8,3.5,2.9,3.5,2.9s-6,0.1-7.1,5.6c0,0-2.6,1.3-2.6-1.9s-1.7-6.1-5.4-5s-0.4,6.1-0.4,6.1s5.5,3.7,6.2,6.9c0,0-3.8-1.2-4.4,1
	s0.9,3.8,0.9,3.8s-1.5,4.2,0.6,5.3s2.7,1.1,3.7-0.3c1-1.4,5.1-6.6,5.1-6.6s3-1.5,5.5,0.5s3.7,3.5,2.9,4.7s-2.5,1.4-4,0.5
	s-2.4-1.6-2.4-1.6s-1.3-0.5-2.6,0.3c-1.3,0.8-2.1,3.3-2.1,3.3s-1.3,1.3-2.9,1.5s-3.7,0.7-5.3,4.6s-2.6,4.4-2.6,4.4s-3.4,2.5-2.9,5.5
	s1.5,5,1.5,5S91.9,85,95,86.9c3.2,1.9,5.1,2.1,6.7,1.9s4.7-2.3,8.5-2.3s3.4,1.5,3.4,1.5s-1.6,4.8-1.6,7c0,2.3,0.3,6.2-0.4,7.9
	s-2.6,5.9-4.6,7.8s-4.9,6.3-4.9,6.3s-1.3,2.5,0.8,3.1c2.1,0.6,6.5-1.9,6.5-1.9s10.6-7,18-22.2s6.1-28.6,6.1-28.6s0.8-13.3-8-30
	c-2-3.7-5.6-8.7-7.7-11C110.2,17.9,107.5,18.2,107.5,18.2z"/>
<path class="st1" d="M103.6,124.2c-0.6,0-1.2-0.1-1.8-0.2c-1.7-0.5-3-1.6-3.6-3.1c-1.1-2.5,0-5,0.4-5.7c0.1-0.1,0.1-0.2,0.2-0.4
	c0.3-0.5,3.2-4.8,5.5-7c1-0.9,2.5-3.6,3.7-6.4c0.2-0.7,0.2-3.3,0.1-4.6c0-0.6,0-1.2,0-1.8c0-1.2,0.3-2.8,0.7-4.3
	c-1.1,0.2-2.2,0.7-3.3,1.1c-1.1,0.4-2.1,0.9-3.2,1c-2.9,0.4-5.8-0.4-9.2-2.4c-4.2-2.6-4.5-7.7-4.3-10.1c-0.4-1.1-1-2.8-1.4-5
	c-0.8-4.9,3.3-8.5,4.3-9.3c0.2-0.2,0.7-1,1.4-2.8c0.6-1.4,1.3-2.6,2-3.5c-1.4-1.8-1.5-4.3-1.1-6.6c-0.7-1.5-1-3.4-0.5-5.5
	c0.2-0.9,0.7-1.7,1.3-2.4c-0.5-0.4-1-0.8-1.5-1.1c-0.4-0.3-0.8-0.7-1.1-1.1c-0.7-1.1-2.9-4.8-1.6-8.3c0.7-1.9,2.2-3.2,4.2-3.8
	c1-0.3,1.9-0.4,2.8-0.4c-0.1-0.4-0.2-0.7-0.2-1.1c-0.1-0.7,0-2,0.8-3.2c-0.9-1.5-1.8-3.8-1.3-6.8c0.3-1.6,1.2-3,2.6-4
	c2.8-1.9,6.9-1.4,8.4-1.2c3.1,0.3,7.4,3.5,12.8,9.5c2.2,2.4,6,7.6,8.2,11.8c8.6,16.3,8.6,29.6,8.5,31.8c0.2,2.2,0.8,15.5-6.5,30.4
	c-7.8,16-18.9,23.5-19.4,23.8c-0.1,0-0.2,0.1-0.2,0.1C109.6,122.7,106.5,124.2,103.6,124.2z M110.2,82.5c1.1,0,4.5,0,6.4,2.4
	c0.9,1.2,1.2,2.7,0.9,4.1c0,0.1,0,0.2-0.1,0.2c-0.7,2-1.4,4.8-1.4,5.7c0,0.5,0,1,0,1.6c0.1,3.4,0.1,5.9-0.7,7.8
	c-0.5,1.3-1.7,3.9-3.2,6.2c3.4-3.4,8-8.8,11.7-16.4c6.8-13.9,5.7-26.4,5.7-26.5c0-0.2,0-0.4,0-0.6c0-0.1,0.6-12.5-7.5-27.9
	c-1.8-3.4-5.2-8.1-7.1-10.2c-4.9-5.5-7.3-6.7-7.8-6.9c-0.1,0-0.2,0-0.3,0l0,0c-0.5-0.1-1.3-0.2-1.8-0.2c0,0.1,0.1,0.1,0.1,0.1
	c0.1,0.1,0,0,0.2,0.2c1.5,1.5,2.4,3.9,1.5,6.3c0.5,0.2,1.1,0.5,1.7,0.6c4.5,1.1,6.3,4.1,6.5,6.4c0.1,1.1-0.3,2.2-1,3
	c-0.7,0.8-1.8,1.3-2.9,1.3c-0.6,0-2.8,0.3-3.2,2.4c-0.2,1.2-1,2.2-2.1,2.8c-0.2,0.1-0.4,0.2-0.5,0.2c0.2,0.5,0.4,0.9,0.5,1.4
	c0,0.2,0.1,0.4,0.1,0.5c0,0,0.1,0,0.1-0.1c2-1,6.2-1.9,9.8,1c1.7,1.3,6.8,5.4,3.7,10c-2,3-6,3.7-9.4,1.7c-0.4-0.2-0.7-0.5-1.1-0.7
	c-0.1,0.2-0.1,0.3-0.2,0.5c-0.2,0.6-0.5,1.2-1,1.6c-0.4,0.4-2.4,2.3-5.2,2.6c-0.7,0.1-1.3,0.2-2.1,2.1c-1.3,3.2-2.6,5.2-4,6.1
	c-0.6,0.5-1.2,1.3-1.3,1.6c0.4,2.2,1.1,3.8,1.1,3.8c0.3,0.7,0.5,1.6,0.4,2.4c-0.2,1.3,0.1,3,0.4,3.3c2.5,1.5,3.5,1.4,4,1.3
	c0.2-0.1,0.8-0.3,1.3-0.5C104.2,83.6,106.9,82.5,110.2,82.5z M111.2,90.6L111.2,90.6L111.2,90.6z M92.3,65.5
	C92.3,65.5,92.3,65.5,92.3,65.5C92.3,65.5,92.3,65.5,92.3,65.5z M92.3,65.5C92.3,65.5,92.3,65.5,92.3,65.5
	C92.3,65.5,92.3,65.5,92.3,65.5z M92.3,65.5C92.3,65.5,92.3,65.5,92.3,65.5C92.3,65.5,92.3,65.5,92.3,65.5z M92.3,65.5
	C92.3,65.5,92.3,65.5,92.3,65.5C92.3,65.5,92.3,65.5,92.3,65.5z M92.3,65.5C92.3,65.5,92.3,65.5,92.3,65.5
	C92.3,65.5,92.3,65.5,92.3,65.5z M92.3,65.5C92.3,65.5,92.3,65.5,92.3,65.5C92.3,65.5,92.3,65.5,92.3,65.5z M109.4,58.5L109.4,58.5
	L109.4,58.5z M101.1,49.8L101.1,49.8z M107.9,22.2C107.9,22.2,107.9,22.2,107.9,22.2C107.9,22.2,107.9,22.2,107.9,22.2z M107.9,22.2
	C107.9,22.2,107.9,22.2,107.9,22.2C107.9,22.2,107.9,22.2,107.9,22.2z M107.9,22.2C107.9,22.2,107.9,22.2,107.9,22.2
	C107.9,22.2,107.9,22.2,107.9,22.2z M107.9,22.2C107.9,22.2,107.9,22.2,107.9,22.2C107.9,22.2,107.9,22.2,107.9,22.2z M107.9,22.2
	C107.9,22.2,107.9,22.2,107.9,22.2C107.9,22.2,107.9,22.2,107.9,22.2z M107.9,22.2C107.9,22.2,107.9,22.2,107.9,22.2
	C107.9,22.2,107.9,22.2,107.9,22.2z M107.9,22.2C107.9,22.2,107.9,22.2,107.9,22.2C107.9,22.2,107.9,22.2,107.9,22.2z"/>
<ellipse class="st3" cx="68.8" cy="68.6" rx="64.8" ry="64.6"/>
<path class="st4" d="M32.3,84.4c0,0,0.5-3.7,5.3-1.7c4.9,2,7.9,4.2,14,4.8c6.1,0.6,4.9,5.7,4.9,5.7s13.7,0.2,15.6,6.9c0,0,0,1-1.7,3
	s-2.6,3.1-2.8,5.7c-0.2,2.7-1,3.1-1,3.1s-5.6,3-5.9,5.9c-0.3,2.9-0.2,3.1-1.2,3.5c-1.1,0.3-5,0.6-3.4,4.6c1.6,4,5.4,6.8,5.4,6.8
	l-3.6-0.5c0,0-11.7-10.9-14-21c0,0,0.4-3-1.8-4.7s-4.1-1-4.1-1s-2.3,0.7-4.6-4.2c-2.4-4.9-1.7-7.9-1.7-7.9s0.2-4-0.1-4.9
	c-0.3-0.9-2.7-1.1-5.3-3.1c-2.7-2-3.6-4.1-3.6-4.1s-1.8-0.4-4.3-1s-5.3-1.5-6.8-3.6S9.7,73,9.7,73s0.5-3.1-0.4-3.6s-1.3,3-1.3,3
	s-2.7,1.7-4-1.8l0.9-13l1.6-7.1l2-5.8l2.9-6.2l3.8-6.3l4.7-6l6-6.1l7.1-5.5l7.3-4.1l6.9-2.9c0,0,3.3,1.4,2.4,2.7
	c-0.9,1.3-3,1.5-3,1.5s-2.2-0.2-1.8,1s2.8,0.7,2.8,0.7s-0.3,3.1,1.7,4.7s4,2.8,3.1,4.5S46.7,27,46.7,27s-1.9-3.5-3.3-2.6
	s1.7,4.8,1.7,4.8s2.6-0.7,4,1s7,6.2,6.4,12.6c0,0,0.3,1-1.2,0.5s-2.4-1-3.5-0.5S49.2,45,49.2,45s-0.7,1.6-2.9,2S43,47.2,42,47.8
	s-7.6,5.3-8.6,7.9c-1,2.6-0.7,2.9-2.3,3.4s-3.3,0.7-3.3,0.7s-0.9,0.6-1.1,1.4s2.4,6,0.6,8.2c0,0-1.6,0.6-4-6.5c0,0-5,2.9-6.5,2.9
	s-1.9,1.8-1.6,3.4c0.4,1.6,2.8,4.8,3.1,4.9s0.8,0.6,1.4-0.1s1.3-3.2,1.3-3.2s1.7-0.2,1.8,1.8s0.1,4,0.1,4s-0.4,0.8,0.9,0.8
	s3-0.3,3,1.1c0.1,1.5-0.5,3-0.5,3S26.6,86.6,32.3,84.4z"/>
<path class="st2" d="M57.2,5.9c0,0-3.5,4.7-2,5.7s4.4,1.4,4.3,2.3c-0.2,0.9-0.8,2.8-0.5,3.5s1.6,1.7,1.4,2.1
	C60.1,20,58.7,23,58.7,23s-0.5,0.6,0.9,3.2s3.8,4.9,3.8,4.9s0.9,0.9,1.8,0s2.4-5.9,2.4-5.9s0.5-0.7,1.1-0.3s1.3,1,1.7,0.5
	s0.9-2.9,1.8-3.4s7.2-2.1,7.7-2.7s0.7-0.7,0.3-1.9s-2-5.7-2.8-6.7s-1.3-0.9-2-1s-2.2,0.6-2.8,0S70,6.6,70,6.6s-1.3-0.5-3.6-0.1
	S63,7.6,62.2,7.1S61,4.8,61,4.8L57.2,5.9z"/>
<path class="st4" d="M107.5,18.2c0,0-6.1-1.2-6.7,1.9s1.6,5,1.6,5s1.1,1.1,0.5,2.2s-1.7,0.6-1.6,1.7s2.9,3.3,6.2,4.1
	c3.3,0.8,3.5,2.9,3.5,2.9s-6,0.1-7.1,5.6c0,0-2.6,1.3-2.6-1.9s-1.7-6.1-5.4-5s-0.4,6.1-0.4,6.1s5.5,3.7,6.2,6.9c0,0-3.8-1.2-4.4,1
	s0.9,3.8,0.9,3.8s-1.5,4.2,0.6,5.3s2.7,1.1,3.7-0.3c1-1.4,5.1-6.6,5.1-6.6s3-1.5,5.5,0.5s3.7,3.5,2.9,4.7s-2.5,1.4-4,0.5
	s-2.4-1.6-2.4-1.6s-1.3-0.5-2.6,0.3c-1.3,0.8-2.1,3.3-2.1,3.3s-1.3,1.3-2.9,1.5s-3.7,0.7-5.3,4.6s-2.6,4.4-2.6,4.4s-3.4,2.5-2.9,5.5
	s1.5,5,1.5,5S91.9,85,95,86.9c3.2,1.9,5.1,2.1,6.7,1.9s4.7-2.3,8.5-2.3s3.4,1.5,3.4,1.5s-1.6,4.8-1.6,7c0,2.3,0.3,6.2-0.4,7.9
	s-2.6,5.9-4.6,7.8s-4.9,6.3-4.9,6.3s-1.3,2.5,0.8,3.1c2.1,0.6,6.5-1.9,6.5-1.9s10.6-7,18-22.2s6.1-28.6,6.1-28.6s0.8-13.3-8-30
	c-2-3.7-5.6-8.7-7.7-11C110.2,17.9,107.5,18.2,107.5,18.2z"/>
<path class="st1" d="M137.6,69.2c0-0.2,0-0.4,0-0.6c0-1.4-0.1-2.7-0.1-4.1c0-0.8-0.1-1.6-0.2-2.6c0-0.2,0-0.5-0.1-0.7
	c-0.1-0.5-0.1-1.1-0.2-1.7c-1.2-8.9-4.1-17.2-8.4-24.7c-0.1-0.1-0.2-0.3-0.3-0.4c-1.5-2.6-3.2-5.2-5.1-7.6c-0.4-0.6-0.9-1.1-1.3-1.6
	c-0.1-0.1-0.2-0.2-0.2-0.3c-0.3-0.4-0.7-0.8-1-1.1c0,0-0.1-0.1-0.1-0.1C108.1,9.2,89.5,0,68.8,0c-7.7,0-15.2,1.3-22.1,3.6
	c-0.4,0-0.7,0.1-1.1,0.3L43.1,5c-0.7,0.3-1.3,0.5-2,0.8l-2.4,1c-0.1,0.1-0.3,0.1-0.4,0.2l-2,1.1c-0.6,0.3-1.2,0.7-1.7,1l-3.6,2
	c-0.2,0.1-0.3,0.2-0.5,0.3l-2.4,1.9c-1.1,0.8-2.1,1.6-3.1,2.4l-1.6,1.2c-0.1,0.1-0.3,0.2-0.4,0.4l-1.3,1.3c-1.4,1.3-2.8,2.7-4.1,4.2
	L17,23.4c-0.1,0.1-0.2,0.2-0.3,0.3l-0.6,0.8c-1,1.2-2,2.5-2.9,3.8l-1.1,1.4c-0.1,0.1-0.2,0.3-0.3,0.4l-1.2,2c-0.5,0.8-1,1.6-1.5,2.4
	L8,36.4c-0.1,0.1-0.1,0.2-0.2,0.4l-0.9,1.9c-0.1,0.3-0.3,0.6-0.4,0.9L4.9,43c-0.1,0.1-0.1,0.3-0.2,0.4l-2,5.8c0,0.1-0.1,0.3-0.1,0.4
	l-0.4,1.7c-0.4,1.4-0.7,2.8-0.9,4.2L1,56.7c0,0.2-0.1,0.4-0.1,0.6l0,0.3C0.3,61.2,0,64.9,0,68.6c0,0.5,0,0.9,0,1.4l0,0.4
	c0,0.3,0,0.6,0.1,1c1.4,36.6,31.7,65.9,68.7,65.9c29.9,0,55.4-19.1,64.8-45.7C137.3,81.6,137.6,73.1,137.6,69.2z M123.8,94.2
	c-3.7,7.6-8.3,13-11.7,16.4c1.5-2.3,2.6-4.9,3.2-6.2c0.8-2,0.8-4.5,0.7-7.8c0-0.6,0-1.1,0-1.6c0-0.9,0.7-3.8,1.4-5.7
	c0-0.1,0-0.2,0.1-0.2c0.4-1.4,0-2.9-0.9-4.1c-1.9-2.4-5.3-2.4-6.4-2.4c-3.3,0-6,1.1-7.8,1.9c-0.4,0.2-1,0.4-1.3,0.5
	c-0.5,0.1-1.6,0.1-4-1.3c-0.3-0.3-0.6-2-0.4-3.3c0.1-0.8,0-1.6-0.4-2.4c0,0-0.8-1.6-1.1-3.8c0-0.3,0.7-1.2,1.3-1.6
	c1.4-1,2.7-2.9,4-6.1c0.8-2,1.4-2.1,2.1-2.1c2.8-0.4,4.9-2.3,5.2-2.6c0.4-0.4,0.8-1,1-1.6c0-0.1,0.1-0.3,0.2-0.5
	c0.3,0.2,0.7,0.4,1.1,0.7c3.4,2,7.4,1.3,9.4-1.7c3.1-4.6-2-8.7-3.7-10c-3.6-2.8-7.8-1.9-9.8-1c0,0-0.1,0-0.1,0.1
	c0-0.2,0-0.4-0.1-0.5c-0.1-0.5-0.3-1-0.5-1.4c0.2-0.1,0.4-0.2,0.5-0.2c1.1-0.6,1.9-1.6,2.1-2.8c0.4-2.1,2.6-2.4,3.2-2.4
	c1.1,0,2.2-0.5,2.9-1.3c0.7-0.8,1.1-1.9,1-3c-0.2-2.3-2.1-5.3-6.5-6.4c-0.6-0.2-1.2-0.4-1.7-0.6c0.9-2.4,0-4.8-1.5-6.3
	c-0.1-0.1-0.1-0.1-0.2-0.2c0,0-0.1-0.1-0.1-0.1c0.5,0,1.2,0.1,1.8,0.2c0.1,0,0.2,0,0.3,0c0.5,0.2,2.9,1.4,7.8,6.9
	c0,0,0.1,0.1,0.1,0.1c0.1,0.2,0.3,0.3,0.4,0.5c0.2,0.2,0.4,0.4,0.5,0.7c0.2,0.3,0.5,0.6,0.7,0.9c1.8,2.3,4,5.5,5.3,8
	c5.4,10.2,6.9,19.1,7.4,23.9c0,0.4,0.1,0.9,0.1,1.4c0.1,1.6,0.1,2.6,0.1,2.6c0,0.2,0,0.4,0,0.6c0,0,0.1,0.6,0.1,1.6
	c-0.1,6.7-1.3,13.2-3.4,19.2C125.5,90.4,124.7,92.3,123.8,94.2z M64.3,22.9c-0.3,0.4-0.4,0.8-0.6,1.2c-0.1,0.3-0.2,0.6-0.3,0.9
	c-0.1-0.2-0.3-0.4-0.4-0.6c-0.1-0.3-0.2-0.5-0.3-0.6c0.5-1,0.9-1.9,1-2.1c0.1-0.1,0.1-0.2,0.1-0.3c1.1-2.3-0.1-4.2-0.9-5.2
	c0.1-0.2,0.1-0.5,0.2-0.6c0.1-0.3,0.1-0.5,0.2-0.7c0-0.1,0.1-0.3,0.1-0.4c0.1-1.3-0.2-2.3-0.8-3.1c1,0,2-0.2,2.7-0.4
	c0.5-0.1,1-0.3,1.7-0.4c0.3-0.1,0.6-0.1,0.8-0.1c0.7,0.8,1.5,1.8,1.9,2.2c1.6,1.6,3.6,1.5,4.8,1.3c0.3,0.7,0.7,1.8,1.1,2.8
	c-0.5,0.2-1.1,0.3-1.5,0.5c-2.3,0.7-3.2,1-3.9,1.4c-1,0.6-1.7,1.4-2.2,2.3C66.6,20.9,65.3,21.6,64.3,22.9z M44.1,17.2
	c0.4,1.2,1,2.5,2.2,3.6c-0.3-0.2-0.7-0.3-1.1-0.4c-1.4-0.3-2.7-0.1-3.8,0.6c-1.1,0.7-1.9,1.8-2.1,3.1c-0.4,2,0.5,4.5,2.7,7.5
	c1,1.4,2.5,2,4.2,1.5c0.1,0,0.2,0,0.2,0c0.2,0.3,0.5,0.6,0.9,0.9c1.1,1.1,2.7,2.8,3.6,4.7c-0.5,0.1-1,0.2-1.6,0.5
	c-2,0.9-3,2.7-3.5,3.9c0,0,0,0-0.1,0c-0.7,0.1-1.2,0.2-1.8,0.2c-1.2,0.1-2.5,0.2-3.9,1.1c-0.1,0.1-8.6,5.5-10.3,9.9
	c-0.2,0.5-0.3,0.9-0.4,1.2c-1,0.2-1.9,0.4-1.9,0.4c-0.6,0.1-1.2,0.3-1.8,0.6c-0.4,0.3-1.5,1.1-2.2,2.4c-0.7,0-1.4,0.2-2,0.5
	c-1.8,1.1-4,2.1-4.8,2.4c-1.5,0.1-2.9,0.8-3.9,2c-0.5,0.6-0.9,1.4-1.2,2.2c-0.1,0-0.1-0.1-0.2-0.1c-0.7-0.4-1.4-0.6-2.1-0.6
	c-0.3,0-0.5,0-0.8,0.1l0.5-6.8c0.1-0.5,0.2-1,0.3-1.5l0.9-3.9c0.9-3.5,2.2-6.9,3.7-10.1l0.5-1c0.6-1.1,1.2-2.2,1.8-3.3l1.6-2.6
	c0.7-1,1.3-2,2-3l2.8-3.6c0.4-0.4,0.7-0.8,1.1-1.3l4-4.1c0.8-0.8,1.7-1.5,2.5-2.2l3-2.3c1.7-1.2,3.4-2.4,5.3-3.4l2-1.1
	c0.3-0.2,0.7-0.3,1-0.5C41.8,15.8,42.8,16.7,44.1,17.2z M51.8,13.8c0.3,0.4,0.7,0.8,1.2,1.2c0.6,0.4,1.3,0.8,2,1
	c-0.1,0.7-0.1,1.3,0.1,2c-0.9-1-1.9-1.8-2.5-2.3c-0.2-0.2-0.5-0.4-0.7-0.5c-0.1-0.2-0.2-0.7-0.2-1.1C51.7,13.9,51.7,13.8,51.8,13.8z
	 M9.1,79.9c2.3,2.5,5.6,3.6,8.4,4.3c1,0.2,2,0.5,2.7,0.6c0.8,1.1,1.9,2.4,3.7,3.7c1.5,1.1,2.9,1.8,3.9,2.3c0,0.6,0,1.4,0,2.1
	c-0.2,1.4-0.4,5,2.1,10c3.5,7.4,8.1,6.7,9.3,6.4c0.1,0,0.3,0.1,0.6,0.3c0.2,0.2,0.3,0.8,0.3,1c-0.1,0.5-0.1,0.9,0.1,1.4
	c1,4.5,3.6,9,6.3,12.8C27.3,117.3,13,100.4,9.1,79.9z M39.2,87.8c3.3,1.5,6.7,3.1,12,3.7c0.9,0.1,1.3,0.3,1.3,0.4
	c0,0.1,0.1,0.3,0,0.5c-0.3,1.2-0.1,2.3,0.6,3.3c0.7,1,1.9,1.5,3.2,1.5c3.8,0.1,9.2,1.2,11.2,3c-0.1,0.1-0.2,0.2-0.2,0.3
	c-1.8,2.1-3.4,4-3.7,8c0,0.2,0,0.4-0.1,0.5c-2.5,1.5-6.4,4.5-6.8,8.4l-0.1,0.5c-1.2,0.4-2.7,1.1-3.7,2.5c-2.2-3.1-4.2-6.5-5-9.6
	c0-1.7-0.3-5.1-3.4-7.5c-2.2-1.7-4.6-2.1-6.4-1.9c-0.2-0.3-0.6-0.8-1.1-1.9c-1.5-3-1.4-4.9-1.4-5.3c0.1-0.3,0.1-0.3,0.1-0.6
	c0.2-4.8-0.1-5.9-0.3-6.4c0-0.1,0-0.1-0.1-0.2c0.2-0.2,0.4-0.5,0.5-0.7c0.1,0,0.2,0.1,0.2,0.1C37.2,86.9,38.2,87.3,39.2,87.8z
	 M63.2,128.9c-0.8-0.7-2.1-2.1-3-3.7c0.1,0,0.2-0.1,0.3-0.1c0.1,0,0.3-0.1,0.4-0.1c3.1-1.3,3.4-3.6,3.6-6l0.1-0.6
	c0.4-0.7,2.2-2.1,3.8-3c1.3-0.7,2.8-2.3,3.1-6.3c0.1-1.3,0.3-1.6,1.9-3.4c2.2-2.6,2.7-4.5,2.7-5.6c0-0.4-0.1-0.7-0.2-1.1
	c-2-6.9-10.5-9-15.8-9.6c-0.2-0.7-0.6-1.5-1.1-2.2c-1-1.5-3.1-3.3-7.1-3.7c-3.9-0.4-6.3-1.5-9.4-2.9c-1.1-0.5-2.2-1-3.5-1.6
	c-3.6-1.5-6.1-0.8-7.5,0c-0.3,0.2-0.6,0.4-0.8,0.6c0-0.4,0-0.8,0-1.2c0-1.3-0.6-2.6-1.5-3.5c-0.8-0.7-1.6-1.1-2.5-1.3
	c0-0.1,0-0.1,0-0.2c0.6,0.1,1.3,0,1.9-0.3c0.7-0.2,1.2-0.7,1.7-1.2c2.2-2.7,1.6-6.1,0.9-8.7c0.3-0.1,0.6-0.2,1-0.3
	c2.9-0.9,3.7-2.6,4.4-4.5c0.1-0.3,0.3-0.8,0.4-1.2c0.7-1.3,5.1-4.8,6.8-5.9c0.2,0,0.5-0.1,0.7-0.1c0.6-0.1,1.4-0.1,2.4-0.3
	c2.9-0.5,4.8-2.4,5.7-4c0.1,0,0.2,0.1,0.4,0.1c2.7,0.9,4.4-0.2,5.2-0.9c0.9-0.9,1.4-2.2,1.3-3.5c0.4-7-4.3-11.9-6.6-14.3
	c-0.1-0.1-0.3-0.3-0.4-0.4c1-0.7,1.8-1.5,2.5-2.2c0.3,1,0.8,1.8,1,2.3c1.7,3.1,4.3,5.6,4.5,5.8c1,1,2.4,1.6,3.8,1.6
	c1.3,0,2.6-0.5,3.7-1.6c0.3-0.3,1.1-1.1,2.3-4.4c1.8-0.1,2.9-1.3,3.2-1.7c0.5-0.7,0.8-1.4,1.1-2.2c0-0.1,0.1-0.3,0.2-0.4
	c0.5-0.2,1.2-0.4,1.7-0.5c4.1-1.3,5.5-1.7,6.5-2.9l0.1-0.1c1.4-1.7,1.7-3.3,0.9-5.6c-0.5-1.5-1.7-4.8-2.8-6.9
	c6.3,1.3,12.2,3.6,17.6,6.7c-1,0.9-1.7,2.1-1.9,3.4c-0.6,3,0.3,5.3,1.3,6.8c-0.9,1.2-0.9,2.5-0.8,3.2c0,0.4,0.1,0.7,0.2,1.1
	c-0.9,0-1.8,0.1-2.8,0.4c-2,0.6-3.5,2-4.2,3.8c-1.3,3.5,0.9,7.2,1.6,8.3c0.3,0.4,0.7,0.8,1.1,1.1c0.5,0.3,1,0.7,1.5,1.1
	c-0.6,0.7-1.1,1.5-1.3,2.4c-0.6,2.1-0.2,4,0.5,5.5c-0.4,2.3-0.3,4.8,1.1,6.6c-0.7,0.9-1.4,2-2,3.5c-0.7,1.8-1.2,2.6-1.4,2.8
	c-1,0.8-5.1,4.3-4.3,9.3c0.4,2.2,1,3.9,1.4,5c-0.1,2.4,0.2,7.5,4.3,10.1c3.4,2,6.3,2.8,9.2,2.4c1.1-0.1,2.1-0.6,3.2-1
	c1-0.4,2.1-0.9,3.3-1.1c-0.4,1.5-0.7,3.1-0.7,4.3c0,0.5,0,1.1,0,1.8c0,1.3,0.1,3.9-0.1,4.6c-1.2,2.8-2.7,5.5-3.7,6.4
	c-2.3,2.2-5.2,6.5-5.5,7c-0.1,0.1-0.1,0.2-0.2,0.4c-0.4,0.7-1.5,3.2-0.4,5.7c0.1,0.2,0.2,0.4,0.3,0.6c-8.8,4.9-18.9,7.7-29.7,7.7
	C66.9,129.2,65.1,129.1,63.2,128.9z"/>
</svg>
