<?xml version="1.0" encoding="utf-8"?>
<!-- Generator: Adobe Illustrator 25.2.1, SVG Export Plug-In . SVG Version: 6.00 Build 0)  -->
<svg version="1.1" id="Layer_1" xmlns="http://www.w3.org/2000/svg" xmlns:xlink="http://www.w3.org/1999/xlink" x="0px" y="0px"
	 width="101px" height="181.4px" viewBox="0 0 101 181.4" style="enable-background:new 0 0 101 181.4;" xml:space="preserve">
<style type="text/css">
	.st0{fill:#182C54;}
</style>
<g>
	<path class="st0" d="M26.3,26c0.3,3.1,1.8,6,4.2,8c2.1,1.8,4.7,2.7,7.4,2.7c0.4,0,0.7,0,1.1-0.1c3.1-0.3,6-1.8,8-4.2
		c2-2.4,2.9-5.5,2.6-8.5c-0.3-3.1-1.8-6-4.2-8c-2.4-2-5.4-2.9-8.6-2.6C30.5,13.8,25.7,19.6,26.3,26z M37.7,21.2c0.1,0,0.2,0,0.3,0
		c0.9,0,1.7,0.3,2.3,0.9c0.8,0.6,1.2,1.5,1.3,2.6c0.1,1-0.2,1.9-0.8,2.7c-0.6,0.8-1.5,1.2-2.6,1.3c-1,0.1-1.9-0.2-2.7-0.8
		c-0.8-0.6-1.2-1.5-1.3-2.6c0,0,0,0,0,0C34.1,23.2,35.6,21.4,37.7,21.2z"/>
	<path class="st0" d="M21.6,18.8c0.2,0,0.4,0,0.7,0c2.6-0.2,4.9-1.4,6.5-3.4c1.5-1.9,2.3-4.3,2.1-6.8c0,0,0-0.1,0-0.1
		c-0.5-5.1-5-8.8-10.1-8.5c-2.5,0.2-4.8,1.3-6.4,3.3c-1.6,1.9-2.4,4.5-2.2,7C12.6,15.2,16.7,18.8,21.6,18.8z M20.1,9.5
		C20,9,20.3,8.6,20.4,8.4C20.6,8.2,20.8,8,21.3,8c0,0,0.1,0,0.1,0c0.8,0,1.4,0.5,1.5,1.2c0,0.4-0.1,0.8-0.4,1.1
		c-0.2,0.3-0.5,0.4-0.8,0.4C20.9,10.9,20.2,10.3,20.1,9.5C20.1,9.5,20.1,9.5,20.1,9.5z"/>
	<path class="st0" d="M100.8,126.2c-2-21.8-17.9-39.7-39.1-44.5l-2.1-17.6l0.9-0.1c2.1-0.2,3.7-2.1,3.6-4.2l-1-18.1
		c-0.1-1.1-0.6-2.1-1.4-2.8c-0.8-0.7-1.9-1.1-3-1l-33.5,3.1c-2.1,0.2-3.7,2.1-3.6,4.2l1,18.1c0.1,1.1,0.6,2.1,1.4,2.8
		c0.8,0.7,1.9,1.1,3,0.9l1.1-0.1l2.1,17.5c-19.8,8.6-32.1,29.1-30,51c1.3,13.4,7.7,25.6,18,34.2c9.1,7.6,20.4,11.6,32.1,11.6
		c1.6,0,3.2-0.1,4.8-0.2c13.4-1.3,25.6-7.7,34.2-18C98,152.8,102,139.7,100.8,126.2z M27,122.3c-0.2-2.6,1.7-5,4.3-5.2
		c0.1,0,0.2,0,0.4,0c2.5,0,4.5,1.9,4.8,4.4c0.2,2.6-1.7,5-4.3,5.2c-0.1,0-0.3,0-0.4,0C29.3,126.7,27.3,124.8,27,122.3z M92.5,131.1
		c0,9.9-3.4,19.4-9.8,27.2c-7.2,8.7-17.3,14-28.5,15c-11.2,1-22.2-2.4-30.8-9.6c-7.7-6.4-12.7-15.1-14.5-24.8L92.5,131.1z M36,91
		c1.8-0.6,2.8-2.4,2.6-4.2l-2.9-24.5c-0.2-2-2-3.5-4-3.5c-0.1,0-0.3,0-0.4,0l-0.8,0.1l-0.6-10.1l25.5-2.4L56,56.5l-1.2,0.1
		c-1.1,0.1-2,0.6-2.7,1.5c-0.7,0.8-1,1.9-0.9,3l2.9,24.5c0.2,1.8,1.6,3.2,3.3,3.5c17.7,3,31.5,16.7,34.8,34l-49.1,4.5
		c1-2.1,1.5-4.5,1.3-6.9c-0.6-6.6-6.1-11.6-12.7-11.6c-0.4,0-0.8,0-1.2,0.1c-3.4,0.3-6.5,1.9-8.7,4.6c-2.2,2.6-3.2,6-2.9,9.4
		c0.2,2.4,1.1,4.6,2.4,6.4L8,130.8C8,113.1,19.1,97.1,36,91z"/>
	<path class="st0" d="M39.3,160.7c2.1,1.7,4.6,2.6,7.3,2.6c0.4,0,0.8,0,1.1-0.1c3.1-0.3,5.9-1.8,7.8-4.1c2-2.4,2.9-5.4,2.6-8.4
		c-0.3-3.1-1.8-5.9-4.1-7.8c-2.4-2-5.4-2.9-8.4-2.6c-3.1,0.3-5.9,1.8-7.8,4.1c-2,2.4-2.9,5.4-2.6,8.4
		C35.4,156,36.9,158.7,39.3,160.7z M43.9,149.6c0.6-0.7,1.5-1.2,2.4-1.3c0.1,0,0.2,0,0.3,0c0.8,0,1.6,0.3,2.2,0.8
		c0.7,0.6,1.2,1.5,1.3,2.4c0.1,0.9-0.2,1.8-0.8,2.6c-0.6,0.7-1.5,1.2-2.4,1.3c-0.9,0.1-1.8-0.2-2.6-0.8c-0.7-0.6-1.2-1.5-1.3-2.4
		c0,0,0,0,0,0C43,151.2,43.3,150.3,43.9,149.6z"/>
	<path class="st0" d="M51.3,113.3c0.3,0,0.6,0,0.9,0c2.7-0.3,5.2-1.5,6.9-3.6c1.7-2.1,2.6-4.7,2.3-7.5c-0.6-5.3-4.9-9.3-10.2-9.3
		c-0.3,0-0.6,0-0.9,0c-5.6,0.5-9.7,5.5-9.2,11.1C41.6,109.3,46,113.3,51.3,113.3z M51,100.9c0,0,0.1,0,0.2,0c1.1,0,2.1,0.9,2.2,2
		c0.1,1.2-0.8,2.3-2,2.4c-0.1,0-0.1,0-0.2,0c-1.1,0-2.1-0.9-2.2-2C48.9,102.1,49.8,101,51,100.9z"/>
</g>
</svg>
