<?xml version="1.0" encoding="utf-8"?>
<!-- Generator: Adobe Illustrator 25.3.1, SVG Export Plug-In . SVG Version: 6.00 Build 0)  -->
<svg version="1.1" id="Layer_1" xmlns="http://www.w3.org/2000/svg" xmlns:xlink="http://www.w3.org/1999/xlink" x="0px" y="0px"
	 width="110px" height="110px" viewBox="0 0 110 110" style="enable-background:new 0 0 110 110;" xml:space="preserve">
<style type="text/css">
	.st0{fill:#FFFFFF;}
</style>
<g>
	<path class="st0" d="M92.4,57c-2,0-4.1,2-4.1,4.1v33.2c0,2-2,4.1-4.1,4.1H21.1c-2,0-4.1-2-4.1-4.1V30.5c0-2,2-4.1,4.1-4.1H51
		c2,0,3.4-2,3.4-4.1S53,18.3,51,18.3H21.1c-6.8,0-12.2,5.4-12.2,12.2v63.8c0,6.8,5.4,12.2,12.2,12.2h63.8c6.8,0,12.2-5.4,12.2-12.2
		V61C96.4,59,95.1,57,92.4,57z"/>
	<path class="st0" d="M101.2,6.8c-2-2-5.4-3.4-8.8-3.4c-3.4,0-6.1,1.4-8.1,4.1L38.1,57.6l-2,21.7l19.7-6.1l46.1-49.5
		c2-2,3.4-5.4,3.4-8.8S103.2,8.8,101.2,6.8z M95.8,18.3L51.7,66.5l-6.8,2l0.7-7.5l44.1-48.2c0.7-0.7,2-1.4,2.7-1.4
		c1.4,0,2,0,2.7,1.4c0.7,0.7,1.4,2,1.4,2.7C97.1,16.3,96.4,17.6,95.8,18.3z"/>
</g>
</svg>
