<?xml version="1.0" encoding="utf-8"?>
<!-- Generator: Adobe Illustrator 25.2.1, SVG Export Plug-In . SVG Version: 6.00 Build 0)  -->
<svg version="1.1" id="Layer_1" xmlns="http://www.w3.org/2000/svg" xmlns:xlink="http://www.w3.org/1999/xlink" x="0px" y="0px"
	 width="101px" height="181.4px" viewBox="0 0 101 181.4" style="enable-background:new 0 0 101 181.4;" xml:space="preserve">
<style type="text/css">
	.st0{fill:#AAD268;}
	.st1{fill:#182C54;}
	.st2{fill:#FFFFFF;}
</style>
<path class="st0" d="M30.3,25.6c0.4,4.3,4.2,7.4,8.4,7c4.3-0.4,7.4-4.2,7-8.4c-0.4-4.3-4.2-7.4-8.4-7C33.1,17.6,29.9,21.4,30.3,25.6
	z"/>
<path class="st1" d="M38,36.6c-2.7,0-5.3-0.9-7.4-2.7c-2.4-2-3.9-4.8-4.2-8c-0.6-6.4,4.1-12.1,10.6-12.8c3.1-0.3,6.1,0.6,8.6,2.6
	c2.4,2,3.9,4.8,4.2,8C50,26.9,49,30,47,32.4c-2,2.4-4.8,3.9-8,4.2C38.7,36.6,38.3,36.6,38,36.6z M38,21.2c-0.1,0-0.2,0-0.3,0
	c-2,0.2-3.6,2-3.4,4c0,0,0,0,0,0c0.1,1,0.6,1.9,1.3,2.6c0.8,0.6,1.7,0.9,2.7,0.8c1-0.1,1.9-0.6,2.6-1.3c0.6-0.8,0.9-1.7,0.8-2.7
	c-0.1-1-0.6-1.9-1.3-2.6C39.7,21.5,38.9,21.2,38,21.2z"/>
<path class="st0" d="M16.1,9.9c0.3,3,2.9,5.1,5.9,4.9s5.1-2.9,4.9-5.9C26.6,5.9,24,3.8,21,4C18,4.2,15.8,6.9,16.1,9.9z"/>
<path class="st1" d="M21.6,18.8c-4.9,0-9-3.6-9.5-8.5l0,0c-0.3-2.5,0.5-5.1,2.2-7c1.6-1.9,3.9-3.1,6.4-3.3c5.2-0.3,9.6,3.4,10.1,8.5
	c0,0,0,0.1,0,0.1c0.2,2.5-0.6,4.9-2.1,6.8c-1.6,2-3.9,3.2-6.5,3.4C22,18.8,21.8,18.8,21.6,18.8z M21.4,8c0,0-0.1,0-0.1,0
	c-0.4,0-0.7,0.3-0.9,0.4C20.3,8.6,20,9,20.1,9.5c0,0,0,0,0,0c0.1,0.8,0.8,1.4,1.7,1.3c0.3,0,0.6-0.2,0.8-0.4
	c0.2-0.3,0.4-0.7,0.4-1.1C22.8,8.5,22.2,8,21.4,8z"/>
<path class="st2" d="M58.1,85.1l-2.9-24.5l5-0.5l-1-18.1l-33.5,3.1l1,18.1l5-0.5l2.9,24.5c-19.4,7-32.4,26.5-30.4,48
	c2.4,25.6,25,44.4,50.6,42c25.6-2.4,44.4-25,42-50.6C94.8,105.2,78.5,88.5,58.1,85.1z"/>
<path class="st0" d="M4.4,135.2v0.1c2.3,25.5,24.8,44.2,50.2,41.9c25.4-2.3,44.1-24.9,41.7-50.4v-0.1L4.4,135.2z"/>
<g>
	<path class="st2" d="M39.1,152.5c0.4,4.2,4.1,7.2,8.2,6.8c4.2-0.4,7.2-4.1,6.8-8.2c-0.4-4.2-4.1-7.2-8.2-6.8
		C41.7,144.7,38.7,148.4,39.1,152.5z"/>
	<path class="st1" d="M46.6,163.3c-2.7,0-5.2-0.9-7.3-2.6c-2.4-2-3.9-4.7-4.1-7.8c-0.3-3.1,0.6-6,2.6-8.4c2-2.4,4.7-3.9,7.8-4.1
		c3-0.3,6,0.6,8.4,2.6c2.4,2,3.9,4.7,4.1,7.8c0.3,3-0.6,6-2.6,8.4c-2,2.4-4.7,3.9-7.8,4.1C47.3,163.3,46.9,163.3,46.6,163.3z
		 M46.6,148.3c-0.1,0-0.2,0-0.3,0c-1,0.1-1.8,0.5-2.4,1.3c-0.6,0.7-0.9,1.6-0.8,2.6c0,0,0,0,0,0c0.1,1,0.5,1.8,1.3,2.4
		c0.7,0.6,1.6,0.9,2.6,0.8c1-0.1,1.8-0.5,2.4-1.3c0.6-0.7,0.9-1.6,0.8-2.6c-0.1-1-0.5-1.8-1.3-2.4C48.2,148.5,47.4,148.3,46.6,148.3
		z"/>
</g>
<path class="st0" d="M31.7,130.7c-4.6,0-8.3-3.4-8.8-8c-0.4-4.8,3.1-9.1,8-9.6c0.3,0,0.5,0,0.8,0c4.6,0,8.3,3.4,8.8,8
	c0.4,4.8-3.1,9.1-8,9.6C32.2,130.7,31.9,130.7,31.7,130.7z"/>
<path class="st1" d="M100.8,126.2c-2-21.8-17.9-39.7-39.1-44.5l-2.1-17.6l0.9-0.1c2.1-0.2,3.7-2.1,3.6-4.2l-1-18.1
	c-0.1-1.1-0.6-2.1-1.4-2.8c-0.8-0.7-1.9-1.1-3-1l-33.5,3.1c-2.1,0.2-3.7,2.1-3.6,4.2l1,18.1c0.1,1.1,0.6,2.1,1.4,2.8
	c0.8,0.7,1.9,1.1,3,0.9l1.1-0.1l2.1,17.5c-19.8,8.6-32.1,29.1-30,51c1.3,13.4,7.7,25.6,18,34.2c9.1,7.6,20.4,11.6,32.1,11.6
	c1.6,0,3.2-0.1,4.8-0.2c13.4-1.3,25.6-7.7,34.2-18C98,152.8,102,139.7,100.8,126.2z M27,122.3c-0.2-2.6,1.7-5,4.3-5.2
	c0.1,0,0.2,0,0.4,0c2.5,0,4.5,1.9,4.8,4.4c0.2,2.6-1.7,5-4.3,5.2c-0.1,0-0.3,0-0.4,0C29.3,126.7,27.3,124.8,27,122.3z M92.5,131.1
	c0,9.9-3.4,19.4-9.8,27.2c-7.2,8.7-17.3,14-28.5,15c-11.2,1-22.2-2.4-30.8-9.6c-7.7-6.4-12.7-15.1-14.5-24.8L92.5,131.1z M36,91
	c1.8-0.6,2.8-2.4,2.6-4.2l-2.9-24.5c-0.2-2-2-3.5-4-3.5c-0.1,0-0.3,0-0.4,0l-0.8,0.1l-0.6-10.1l25.5-2.4L56,56.5l-1.2,0.1
	c-1.1,0.1-2,0.6-2.7,1.5c-0.7,0.8-1,1.9-0.9,3l2.9,24.5c0.2,1.8,1.6,3.2,3.3,3.5c17.7,3,31.5,16.7,34.8,34l-49.1,4.5
	c1-2.1,1.5-4.5,1.3-6.9c-0.6-6.6-6.1-11.6-12.7-11.6c-0.4,0-0.8,0-1.2,0.1c-3.4,0.3-6.5,1.9-8.7,4.6c-2.2,2.6-3.2,6-2.9,9.4
	c0.2,2.4,1.1,4.6,2.4,6.4L8,130.8C8,113.1,19.1,97.1,36,91z"/>
<path class="st0" d="M51.2,109.3c-3.2,0-5.9-2.4-6.2-5.6c-0.3-3.4,2.2-6.4,5.6-6.8c0.2,0,0.4,0,0.6,0c3.2,0,5.9,2.4,6.2,5.6
	c0.2,1.7-0.3,3.3-1.4,4.5c-1.1,1.3-2.6,2.1-4.2,2.2C51.5,109.3,51.4,109.3,51.2,109.3L51.2,109.3z"/>
<path class="st1" d="M51.2,100.9c1.1,0,2.1,0.9,2.2,2c0.1,1.2-0.8,2.3-2,2.4c-0.1,0-0.1,0-0.2,0c-1.1,0-2.1-0.9-2.2-2
	c-0.1-1.2,0.8-2.3,2-2.4C51,100.9,51.1,100.9,51.2,100.9 M51.2,92.9c-0.3,0-0.6,0-0.9,0c-2.7,0.3-5.2,1.5-6.9,3.6s-2.6,4.7-2.3,7.5
	c0.5,5.3,4.9,9.3,10.2,9.3c0.3,0,0.6,0,0.9,0c2.7-0.3,5.2-1.5,6.9-3.6s2.6-4.7,2.3-7.5C60.8,96.9,56.5,92.9,51.2,92.9L51.2,92.9z"/>
</svg>
