<?xml version="1.0" encoding="utf-8"?>
<!-- Generator: Adobe Illustrator 25.2.1, SVG Export Plug-In . SVG Version: 6.00 Build 0)  -->
<svg version="1.1" id="Layer_1" xmlns="http://www.w3.org/2000/svg" xmlns:xlink="http://www.w3.org/1999/xlink" x="0px" y="0px"
	 width="112.8px" height="144.4px" viewBox="0 0 112.8 144.4" style="enable-background:new 0 0 112.8 144.4;" xml:space="preserve"
	>
<style type="text/css">
	.st0{fill:#EA2C38;}
	.st1{fill:#0F2D52;}
</style>
<g>
	<path class="st0" d="M108.8,59.4C108.8,30.5,85.3,7,56.4,7C52.2,7,48,7.5,43.8,8.5c-18.6,4.3-33,18-37.8,35.8
		C-4.8,84.6,31.5,122.9,50.3,141c3.4,3.3,8.8,3.3,12.2,0c5.2-5,11.8-11.8,18.3-19.9C93.6,105.2,108.8,84.2,108.8,59.4z M59.4,87.7
		c-1,0.1-2,0.1-3,0.1c-8.4,0-16.4-3.6-22-9.8c-5.7-6.3-8.4-14.4-7.5-22.9c1.4-14,12.5-25.1,26.5-26.5c1-0.1,2-0.1,3-0.1
		c8.4,0,16.4,3.6,22,9.8c5.7,6.3,8.4,14.4,7.5,22.9C84.5,75.1,73.4,86.3,59.4,87.7z"/>
	<path class="st1" d="M56.4,147.5c-3.2,0-6.4-1.2-8.9-3.6c-9.6-9.2-23.6-23.5-33.9-40.8C1,81.9-2.8,61.8,2.1,43.3
		C7.3,24,22.9,9.2,42.9,4.6c4.5-1.1,9-1.6,13.5-1.6c31.1,0,56.4,25.3,56.4,56.4c0,24.9-13.9,45.6-28.9,64.2
		c-5.5,6.8-11.8,13.6-18.6,20.3C62.8,146.3,59.6,147.5,56.4,147.5z M56.4,11c-3.9,0-7.8,0.5-11.7,1.4c-17.1,4-30.4,16.6-34.9,33
		c-7.3,27.4,6.8,57.7,43.2,92.8c1.9,1.8,4.8,1.8,6.6,0c6.7-6.4,12.7-13,18-19.5c14.1-17.5,27.1-36.8,27.1-59.2
		C104.8,32.7,83.1,11,56.4,11z M56.4,91.8c-9.5,0-18.6-4.1-25-11.1c-6.5-7.2-9.5-16.4-8.5-26C24.5,38.9,37.2,26.2,53,24.6
		c1.2-0.1,2.3-0.1,3.4-0.1c9.5,0,18.6,4.1,25,11.1c6.5,7.2,9.5,16.4,8.5,26c-1.6,15.8-14.2,28.5-30.1,30.1
		C58.6,91.8,57.5,91.8,56.4,91.8z M56.4,32.5c-0.9,0-1.8,0-2.6,0.1c-12.1,1.2-21.7,10.8-22.9,22.9c-0.8,7.3,1.5,14.3,6.5,19.8
		c4.9,5.4,11.8,8.5,19,8.5c0.9,0,1.8,0,2.6-0.1l0,0c12.1-1.2,21.7-10.8,22.9-22.9c0.8-7.3-1.5-14.3-6.5-19.8
		C70.6,35.6,63.6,32.5,56.4,32.5z"/>
</g>
</svg>
