<?xml version="1.0" encoding="utf-8"?>
<!-- Generator: Adobe Illustrator 25.2.1, SVG Export Plug-In . SVG Version: 6.00 Build 0)  -->
<svg version="1.1" id="Layer_1" xmlns="http://www.w3.org/2000/svg" xmlns:xlink="http://www.w3.org/1999/xlink" x="0px" y="0px"
	 width="106.6px" height="137.2px" viewBox="0 0 106.6 137.2" style="enable-background:new 0 0 106.6 137.2;" xml:space="preserve"
	>
<style type="text/css">
	.st0{fill:#132E52;}
</style>
<g>
	<path class="st0" d="M93.1,0H13.5C6.1,0,0,6.1,0,13.5v110.2c0,7.4,6.1,13.5,13.5,13.5h79.6c7.4,0,13.5-6.1,13.5-13.5V13.5
		C106.6,6.1,100.5,0,93.1,0z M98.6,123.7c0,3-2.5,5.5-5.5,5.5H13.5c-3,0-5.5-2.5-5.5-5.5V13.5c0-3,2.5-5.5,5.5-5.5h79.6
		c3,0,5.5,2.5,5.5,5.5V123.7z"/>
	<path class="st0" d="M84.6,15.2H22c-3.6,0-6.6,3.2-6.6,7.2v11.4c0,4,3,7.2,6.6,7.2h62.6c3.6,0,6.6-3.2,6.6-7.2V22.5
		C91.2,18.5,88.2,15.2,84.6,15.2z M83.2,33H23.4v-9.8h59.8V33z"/>
	<path class="st0" d="M30.5,50.1h-10c-0.6,0-1.1,0.5-1.1,1.1v10c0,0.6,0.5,1.1,1.1,1.1h10c0.6,0,1.1-0.5,1.1-1.1v-10
		C31.5,50.6,31.1,50.1,30.5,50.1z"/>
	<path class="st0" d="M49,50.1H39c-0.6,0-1.1,0.5-1.1,1.1v10c0,0.6,0.5,1.1,1.1,1.1h10c0.6,0,1.1-0.5,1.1-1.1v-10
		C50.1,50.6,49.6,50.1,49,50.1z"/>
	<path class="st0" d="M67.6,50.1h-10c-0.6,0-1.1,0.5-1.1,1.1v10c0,0.6,0.5,1.1,1.1,1.1h10c0.6,0,1.1-0.5,1.1-1.1v-10
		C68.6,50.6,68.1,50.1,67.6,50.1z"/>
	<path class="st0" d="M86.1,50.1h-10c-0.6,0-1.1,0.5-1.1,1.1v10c0,0.6,0.5,1.1,1.1,1.1h10c0.6,0,1.1-0.5,1.1-1.1v-10
		C87.2,50.6,86.7,50.1,86.1,50.1z"/>
	<path class="st0" d="M30.5,67.9h-10c-0.6,0-1.1,0.5-1.1,1.1v10c0,0.6,0.5,1.1,1.1,1.1h10c0.6,0,1.1-0.5,1.1-1.1V69
		C31.5,68.4,31.1,67.9,30.5,67.9z"/>
	<path class="st0" d="M49,67.9H39c-0.6,0-1.1,0.5-1.1,1.1v10c0,0.6,0.5,1.1,1.1,1.1h10c0.6,0,1.1-0.5,1.1-1.1V69
		C50.1,68.4,49.6,67.9,49,67.9z"/>
	<path class="st0" d="M67.6,67.9h-10c-0.6,0-1.1,0.5-1.1,1.1v10c0,0.6,0.5,1.1,1.1,1.1h10c0.6,0,1.1-0.5,1.1-1.1V69
		C68.6,68.4,68.1,67.9,67.6,67.9z"/>
	<path class="st0" d="M86.1,67.9h-10c-0.6,0-1.1,0.5-1.1,1.1v10c0,0.6,0.5,1.1,1.1,1.1h10c0.6,0,1.1-0.5,1.1-1.1V69
		C87.2,68.4,86.7,67.9,86.1,67.9z"/>
	<path class="st0" d="M30.5,103.5h-10c-0.6,0-1.1,0.5-1.1,1.1v10c0,0.6,0.5,1.1,1.1,1.1h10c0.6,0,1.1-0.5,1.1-1.1v-10
		C31.5,103.9,31.1,103.5,30.5,103.5z"/>
	<path class="st0" d="M49,103.5H39c-0.6,0-1.1,0.5-1.1,1.1v10c0,0.6,0.5,1.1,1.1,1.1h10c0.6,0,1.1-0.5,1.1-1.1v-10
		C50.1,103.9,49.6,103.5,49,103.5z"/>
	<path class="st0" d="M67.6,103.5h-10c-0.6,0-1.1,0.5-1.1,1.1v10c0,0.6,0.5,1.1,1.1,1.1h10c0.6,0,1.1-0.5,1.1-1.1v-10
		C68.6,103.9,68.1,103.5,67.6,103.5z"/>
	<path class="st0" d="M86.1,103.5h-10c-0.6,0-1.1,0.5-1.1,1.1v10c0,0.6,0.5,1.1,1.1,1.1h10c0.6,0,1.1-0.5,1.1-1.1v-10
		C87.2,103.9,86.7,103.5,86.1,103.5z"/>
	<path class="st0" d="M30.5,85.7h-10c-0.6,0-1.1,0.5-1.1,1.1v10c0,0.6,0.5,1.1,1.1,1.1h10c0.6,0,1.1-0.5,1.1-1.1v-10
		C31.5,86.2,31.1,85.7,30.5,85.7z"/>
	<path class="st0" d="M49,85.7H39c-0.6,0-1.1,0.5-1.1,1.1v10c0,0.6,0.5,1.1,1.1,1.1h10c0.6,0,1.1-0.5,1.1-1.1v-10
		C50.1,86.2,49.6,85.7,49,85.7z"/>
	<path class="st0" d="M67.6,85.7h-10c-0.6,0-1.1,0.5-1.1,1.1v10c0,0.6,0.5,1.1,1.1,1.1h10c0.6,0,1.1-0.5,1.1-1.1v-10
		C68.6,86.2,68.1,85.7,67.6,85.7z"/>
	<path class="st0" d="M86.1,85.7h-10c-0.6,0-1.1,0.5-1.1,1.1v10c0,0.6,0.5,1.1,1.1,1.1h10c0.6,0,1.1-0.5,1.1-1.1v-10
		C87.2,86.2,86.7,85.7,86.1,85.7z"/>
</g>
</svg>
