<?xml version="1.0" encoding="utf-8"?>
<!-- Generator: Adobe Illustrator 25.2.1, SVG Export Plug-In . SVG Version: 6.00 Build 0)  -->
<svg version="1.1" id="Layer_1" xmlns="http://www.w3.org/2000/svg" xmlns:xlink="http://www.w3.org/1999/xlink" x="0px" y="0px"
	 width="103.5px" height="122.3px" viewBox="0 0 103.5 122.3" style="enable-background:new 0 0 103.5 122.3;" xml:space="preserve"
	>
<style type="text/css">
	.st0{fill:#FFC846;}
	.st1{fill:#F4C8A0;}
	.st2{fill:#EA2C38;}
	.st3{fill:#0F2D52;}
</style>
<polygon class="st0" points="13.7,36.7 71.1,108.9 94.6,86.4 38.4,15.6 "/>
<polygon class="st1" points="71.1,108.9 94.6,86.4 99.5,118.3 "/>
<path class="st2" d="M30.9,6.9l7.6,8.8l-24.8,21L6,27.9C2.7,24.1,3.5,18,7.8,14.3l9.5-7.6C21.5,3,27.6,3.1,30.9,6.9z"/>
<path class="st3" d="M103.5,117.7l-4.9-31.9c0-0.2-0.1-0.4-0.1-0.5c0,0,0,0,0-0.1c-0.1-0.2-0.1-0.4-0.2-0.6c0-0.1-0.1-0.1-0.1-0.2
	c-0.1-0.2-0.2-0.3-0.3-0.5c0,0,0-0.1-0.1-0.1L41.7,13.3c0-0.1-0.1-0.1-0.1-0.2l-7.6-8.8c0,0,0,0,0,0c-2.2-2.5-5.3-4-8.7-4.3
	c-3.7-0.2-7.5,1.1-10.5,3.6l-9.4,7.5c0,0-0.1,0.1-0.1,0.1c-3,2.6-4.9,6.3-5.2,10.1c-0.2,3.4,0.8,6.7,3,9.2l7.6,8.7L68,111.4
	c0,0,0,0,0.1,0.1c0.2,0.2,0.3,0.4,0.5,0.5c0,0,0,0,0.1,0.1c0.2,0.1,0.4,0.3,0.6,0.4c0,0,0.1,0,0.1,0.1c0.2,0.1,0.4,0.2,0.6,0.2
	l28.4,9.4c0.4,0.1,0.8,0.2,1.3,0.2c0.9,0,1.8-0.3,2.6-0.9C103.1,120.5,103.7,119.1,103.5,117.7z M9,25.3c-1-1.1-1.1-2.4-1-3.4
	c0.1-1.7,1-3.3,2.4-4.5l9.4-7.6c0,0,0.1-0.1,0.1-0.1C21.3,8.5,23,7.9,24.7,8c0.9,0.1,2.2,0.4,3.2,1.5l4.9,5.6L14.1,31.1L9,25.3z
	 M71.5,103L19.2,37.2l18.7-15.8L89.2,86l-16.7,16L71.5,103z M91.8,94.6l1.3,8.3c-0.1,0.1-0.2,0.2-0.3,0.3l-6.5,6.5l-7.6-2.5
	L91.8,94.6z"/>
</svg>
