<?xml version="1.0" encoding="utf-8"?>
<!-- Generator: Adobe Illustrator 25.2.1, SVG Export Plug-In . SVG Version: 6.00 Build 0)  -->
<svg version="1.1" id="Layer_1" xmlns="http://www.w3.org/2000/svg" xmlns:xlink="http://www.w3.org/1999/xlink" x="0px" y="0px"
	 width="130.7px" height="114.5px" viewBox="0 0 130.7 114.5" style="enable-background:new 0 0 130.7 114.5;" xml:space="preserve"
	>
<style type="text/css">
	.st0{fill:#182C54;}
</style>
<path class="st0" d="M129.5,1.1c-0.9-0.9-2.2-1.3-3.5-1.1L45.5,14.2c-1.7,0.3-3,1.7-3.3,3.4C42.2,18,36.7,57,34.4,73.4
	c-9.9-0.4-20.2,2.9-27,8.9C2.5,86.6-0.1,91.9,0,97.4c0,4.5,2,8.5,5.6,11.4c4.3,3.6,10.9,5.6,18.1,5.6c2.3,0,4.7-0.2,7.1-0.6
	c17.2-3.1,23.7-18.7,24-19.3c0.1-0.3,0.2-0.6,0.3-1L63,36.5l40.5-6.5c-0.8,5.9-1.8,12.8-2.7,19.4c-0.7,4.9-1.4,9.7-1.9,13.7
	C89,62.7,78.8,66,72,72c-4.9,4.3-7.5,9.6-7.4,15.2c0,4.5,2,8.5,5.6,11.5c5.7,4.8,15.4,6.7,25.1,4.9c17.2-3.1,23.7-18.7,24-19.3
	c0.1-0.3,0.2-0.6,0.3-1l11.1-78.7C130.8,3.3,130.4,2,129.5,1.1z M111.7,81.6c-1,2.2-6.2,12-17.8,14.1c-7.3,1.3-14.8,0-18.6-3.2
	c-1.8-1.5-2.7-3.2-2.7-5.4c-0.1-4,2.5-7.1,4.7-9.1c5.9-5.2,15.8-7.9,24.5-6.6c1.1,0.2,2.1-0.1,3-0.8c0.9-0.6,1.4-1.6,1.6-2.6
	c0.6-4.6,1.5-10.9,2.4-17.5c1.2-8.6,2.5-17.9,3.5-24.7c0.2-1.3-0.3-2.5-1.2-3.4c-0.9-0.9-2.2-1.3-3.4-1.1l-48.8,7.8
	c-1.7,0.3-3.1,1.7-3.3,3.4l-8.4,59.4c-1,2.2-6.2,12-17.8,14.1c-7.3,1.3-14.8,0-18.6-3.2C8.9,101.2,8,99.5,8,97.3
	c-0.1-4,2.5-7.1,4.7-9.1c4.9-4.4,12.6-6.9,20.1-6.9c1.5,0,3,0.1,4.4,0.3c2.2,0.3,4.2-1.2,4.5-3.4c1.6-11.1,6.5-46.4,8-56.7L122,8.9
	L111.7,81.6z"/>
</svg>
