<?xml version="1.0" encoding="utf-8"?>
<!-- Generator: Adobe Illustrator 25.3.1, SVG Export Plug-In . SVG Version: 6.00 Build 0)  -->
<svg version="1.1" id="Layer_1" xmlns="http://www.w3.org/2000/svg" xmlns:xlink="http://www.w3.org/1999/xlink" x="0px" y="0px"
	 width="112.7px" height="112.4px" viewBox="0 0 112.7 112.4" style="enable-background:new 0 0 112.7 112.4;" xml:space="preserve"
	>
<style type="text/css">
	.st0{fill:#0F2D52;}
</style>
<path class="st0" d="M36.2,94.2C26.4,85.3,16.8,76.1,7.1,67c-5-4.7-5.3-10.6-1.2-14.9c4.1-4.2,9.6-4.1,14.6,0.5
	c8.1,7.4,16,15,24.1,22.5c0.8,0.8,1.7,1.5,2.9,2.5c5-5.9,9.8-11.5,14.7-17.2c9.7-11.4,19.5-22.9,29.2-34.3c4.3-5,10.5-5.9,14.9-2.2
	c4.5,3.9,4.6,9.7,0.1,15C89.7,58.6,75,76.4,58.1,96C53.2,100.9,46.5,104.5,36.2,94.2z"/>
</svg>
