<?xml version="1.0" encoding="utf-8"?>
<!-- Generator: Adobe Illustrator 25.2.1, SVG Export Plug-In . SVG Version: 6.00 Build 0)  -->
<svg version="1.1" id="Layer_1" xmlns="http://www.w3.org/2000/svg" xmlns:xlink="http://www.w3.org/1999/xlink" x="0px" y="0px"
	 width="106.4px" height="132.8px" viewBox="0 0 106.4 132.8" style="enable-background:new 0 0 106.4 132.8;" xml:space="preserve"
	>
<style type="text/css">
	.st0{fill:#182C54;}
</style>
<path class="st0" d="M103.9,110.5c0.1-0.5,0.1-1.1,0-1.7c-3-13.9-5.7-45.7-6-50v0c0-17.8-11-33.1-26.7-39.9c0.1-0.3,0.1-0.5,0.1-0.8
	C71.3,8.1,63.2,0,53.2,0S35.1,8.1,35.1,18.1c0,0.3,0,0.5,0.1,0.8C19.5,25.7,8.5,41,8.5,58.8l-0.1,1.3c-0.7,9.3-2.8,37.5-5.9,49.5
	c-0.1,0.3-0.1,0.7-0.1,1c-1.5,1.6-2.4,3.5-2.4,5.6c0,13.1,33.4,16.6,53.2,16.6c19.8,0,53.2-3.5,53.2-16.6
	C106.4,114.1,105.5,112.2,103.9,110.5z M53.2,8c5,0,9.1,3.6,9.9,8.3c-3.2-0.7-6.5-1.1-9.9-1.1c-3.4,0-6.7,0.4-9.9,1.1
	C44.1,11.6,48.2,8,53.2,8z M16.4,60.7l0.1-1.1c0-0.1,0-0.2,0-0.3v-0.5c0-19.6,16.5-35.6,36.7-35.6s36.7,16,36.7,35.6V59
	c0,0.1,0,0.2,0,0.3c0.3,3.3,2.5,30,5.2,46c-11.5-4.3-29.4-5.7-41.9-5.7c-12.4,0-30.1,1.4-41.6,5.6C14.1,91,15.8,68.8,16.4,60.7z
	 M62.7,107.8c-1.4,3.9-5.1,6.8-9.5,6.8s-8.1-2.8-9.5-6.8c3-0.2,6.2-0.2,9.5-0.2C56.5,107.6,59.7,107.7,62.7,107.8z M53.2,124.8
	c-26.8,0-43.3-5.5-45.1-8.6c1.4-2.4,11.2-6.1,27.5-7.7c1.8,8.1,9,14.1,17.6,14.1s15.8-6.1,17.6-14.1c16.3,1.7,26.1,5.4,27.5,7.7
	C96.5,119.3,80,124.8,53.2,124.8z"/>
</svg>
