<?xml version="1.0" encoding="utf-8"?>
<!-- Generator: Adobe Illustrator 25.2.1, SVG Export Plug-In . SVG Version: 6.00 Build 0)  -->
<svg version="1.1" id="Capa_1" xmlns="http://www.w3.org/2000/svg" xmlns:xlink="http://www.w3.org/1999/xlink" x="0px" y="0px"
	 width="31.4px" height="26.1px" viewBox="0 0 31.4 26.1" style="enable-background:new 0 0 31.4 26.1;" xml:space="preserve">
<style type="text/css">
	.st0{fill:#6CCAD0;}
	.st1{fill:#945C2B;}
	.st2{fill:#4A3222;}
	.st3{fill:#007EC4;}
	.st4{fill:#F2D5AC;}
	.st5{fill:#DC6626;}
	.st6{fill:#F7942D;}
	.st7{fill:#EE3124;}
	.st8{fill:#0B243B;}
	.st9{fill:#9B7550;}
	.st10{fill:#AC8457;}
	.st11{fill:#231F20;}
</style>
<g transform="translate(1183.595 29.11)">
	<path class="st0" d="M-1171.5-19c0,0-0.5,2.7,0.6,3.2c1.1,0.5,5,0.9,6,2.3s0.8,7.7,0.8,7.7h-19.4c0,0-0.2-6.3,0.8-7.7
		c1-1.4,5-1.8,6.1-2.3s0.6-3.2,0.6-3.2H-1171.5z"/>
	<path class="st1" d="M-1176.4-15.8c0.2,1.4,1.3,2.4,2.7,2.5c1.4,0,2.6-1.1,2.8-2.5c-0.6-0.9-0.3-3.2-0.3-3.2h-4.8
		C-1176.1-19-1175.7-16.7-1176.4-15.8z"/>
	<path class="st1" d="M-1168.6-22.9c0-3.4-2.3-5.9-5-5.9s-5,2.5-5,5.9c-0.4,0.1-0.6,0.6-0.4,1.2c0.3,0.7,0.3,1.2,0.7,1.2h0
		c0.7,2.4,2.5,4.3,4.6,4.3s3.9-1.9,4.6-4.3h0c0.4,0,0.4-0.5,0.7-1.2C-1168.1-22.3-1168.2-22.8-1168.6-22.9z"/>
	<path class="st2" d="M-1173.6-28.8c-1.7,0-4.9,0.5-5,4.9l0.3,2.2l0.4-0.1c0,0,0.3-3,0.6-3.1c1.1-0.7,2.3-1,3.6-1.1
		c1.3,0.1,2.5,0.5,3.6,1.1c0.3,0.1,0.6,3.1,0.6,3.1l0.4,0.1l0.3-2C-1168.8-28.4-1172-28.8-1173.6-28.8z"/>
	<path class="st3" d="M-1158.5-18.7c0,0-0.5,2.5,0.6,3s4.1,0.8,5.1,2.2c0.9,1.3-0.2,7.8-0.2,7.8h-15.1c0,0-1.1-6.5-0.2-7.8
		c1-1.3,4.1-1.7,5.1-2.2c1.1-0.5,0.6-3,0.6-3H-1158.5z"/>
	<path class="st4" d="M-1163.1-15.7l2.5,2.7l2.6-2.7c-1-0.5-0.5-3-0.5-3h-4.1C-1162.5-18.7-1162.1-16.2-1163.1-15.7z"/>
	<path class="st5" d="M-1155.3-17.2c0,0.4-0.6-11.2-5.5-11.2c-5.9,0-5,11.7-5,11.3s2.3-0.8,5.4-0.8
		C-1157.4-17.9-1155.3-17.6-1155.3-17.2z"/>
	<path class="st4" d="M-1156.4-22.4c0,2.9-1.9,5.5-4.2,5.5c-2.3,0-4.2-2.7-4.2-5.5s1.9-4.8,4.2-4.8S-1156.4-25.2-1156.4-22.4z"/>
	<path class="st6" d="M-1161.2-26.6c0.5,1.2,1.2,2.3,2.2,3.3c0.8,0.5,1.7,0.9,2.6,1c0,0,0,4.3-1.4,5.5c0.9,0.4,1.9,0.2,2.7-0.3
		c0,0,2.2-11.7-5.5-11.7L-1161.2-26.6z"/>
	<path class="st6" d="M-1161.2-26.6c-0.4,0.9-1,1.8-1.7,2.6c-0.6,0.5-1.2,0.9-1.8,1.3c0,0,0.3,4.9,1.8,6.1c-1,0.3-2,0.2-2.9-0.3
		c-0.7-3.3-1.4-11.9,5.3-11.9L-1161.2-26.6z"/>
	<path class="st7" d="M-1165.9-10.5c0,0-0.4,2.2,0.5,2.6s2.5,0.5,3.3,1.6c0.5,0.9,0.7,2,0.7,3h-12.4c-0.1-1.1,0.2-2.1,0.7-3
		c0.8-1.2,2.4-1.2,3.3-1.7s0.5-2.6,0.5-2.6L-1165.9-10.5z"/>
	<path class="st8" d="M-1164.6-7.6L-1164.6-7.6L-1164.6-7.6z"/>
	<path class="st8" d="M-1173.5-4.8C-1173.5-4.8-1173.5-4.9-1173.5-4.8C-1173.5-4.9-1173.5-4.8-1173.5-4.8L-1173.5-4.8z"/>
	<path class="st8" d="M-1162.1-5.9C-1162.1-5.9-1162.1-6-1162.1-5.9L-1162.1-5.9z"/>
	<path class="st9" d="M-1169.8-8c0.3,0.9,1.2,1.5,2.2,1.4c1,0.1,1.9-0.5,2.2-1.4c-0.9-0.4-0.5-2.6-0.5-2.6h-3.5
		C-1169.4-10.5-1169-8.4-1169.8-8z"/>
	<path class="st8" d="M-1168.9-6.8L-1168.9-6.8L-1168.9-6.8z"/>
	<path class="st8" d="M-1167.6-6.4C-1167.6-6.3-1167.6-6.3-1167.6-6.4L-1167.6-6.4z"/>
	<path class="st10" d="M-1164.1-12.7c0-0.2,0-0.4,0-0.6c0-2.5-1.6-4.1-3.6-4.1s-3.6,1.6-3.6,4.1c0,0.2,0,0.4,0,0.6c0,0-0.1,0-0.1,0
		c-0.4,0.1-0.5,0.6-0.3,1c0.3,0.6,0.4,1,0.7,0.9c0,0,0.1,0,0.1,0c0.4,1.4,1.7,2.3,3.2,2.2c1.3-0.1,2.5-1,3-2.2c0,0,0,0,0.1,0
		c0.3,0.1,0.4-0.3,0.7-0.9C-1163.6-12.1-1163.7-12.6-1164.1-12.7z"/>
	<path class="st8" d="M-1170-9.1C-1170-9.1-1170-9-1170-9.1L-1170-9.1z"/>
	<path class="st8" d="M-1166.1-17.2C-1166.1-17.2-1166.1-17.2-1166.1-17.2L-1166.1-17.2z"/>
	<path class="st11" d="M-1171.5-13.1c-0.3-0.3-0.5-0.6-0.7-0.9c-0.1-0.2-0.2-0.4-0.3-0.6c0-0.2,0.1-0.4,0.3-0.5
		c-0.1-0.3-0.2-0.7-0.1-1c0.1-0.4,0.3-0.6,0.7-0.6c0-0.6,0.5-1.1,1.2-1.2c0.1,0,0.2,0,0.3,0c0.1,0,0.2-0.1,0.2-0.2
		c0.6-0.7,1.5-1,2.4-1c0.2,0,0.3,0,0.4,0.1c0.1,0.1,0.1,0.1,0.2,0.2c0.1,0.1,0.2,0.1,0.3,0c0.5,0,1.1,0,1.5,0.4
		c0.2,0.3,0.3,0.6,0.6,0.8c0.1,0,0.2,0,0.4,0c0.2,0,0.5,0.2,0.6,0.4c0.1,0.2,0.1,0.5-0.1,0.7c0.5,0.1,0.7,0.6,0.9,1.1
		c0.1,0.2,0.1,0.3,0.1,0.5c0,0.2,0,0.5-0.1,0.7c-0.1,0.3-0.3,0.6-0.6,0.5c0.2,0.3,0,0.6-0.2,0.8c-0.2,0.2-0.3,0.5-0.3,0.8
		c0,0.1-0.1,0.1-0.1,0.1c-0.1,0-0.1,0-0.1,0c0,0,0,0,0-0.1c0.1-0.4,0.1-0.9,0-1.3c-0.2-0.4-0.3-0.9-0.4-1.4
		c-0.3,0.2-0.8,0.3-1.1,0.1c-0.1-0.1-0.2-0.1-0.3-0.1c-0.2,0-0.4,0.3-0.6,0.2c-0.1,0-0.2-0.1-0.2-0.2c-0.1,0-0.2,0-0.3,0.1
		c-0.5,0.2-1.1,0.3-1.5-0.1c-0.2,0.3-0.6,0.3-0.9,0.1c-0.1-0.1-0.1-0.1-0.2-0.2c-0.2,0.4-0.5,0.6-0.9,0.6c-0.1,0.6-0.1,1.1-0.3,1.7
		c0.1,0.1,0.1,0.3-0.1,0.4L-1171.5-13.1"/>
	<g>
		<path class="st8" d="M-1152.2-11.7c0-0.5-0.1-1-0.2-1.5c0,0,0-0.1,0-0.1c-0.1-0.1-0.1-0.2-0.2-0.3c-0.1-0.1-0.1-0.2-0.2-0.3v0
			c-0.1-0.1-0.2-0.2-0.3-0.3h0c-0.1-0.1-0.3-0.2-0.4-0.3c-0.1-0.1-0.2-0.1-0.3-0.2c-0.2-0.1-0.3-0.2-0.5-0.2h-0.1c0,0,0,0-0.1,0
			l-0.2-0.1l0,0l-0.1,0c-0.2-0.1-0.4-0.1-0.7-0.2c0,0,0,0-0.1,0c-0.1,0-0.2,0-0.2-0.1c-0.1,0-0.1,0-0.2,0c-0.4-0.1-0.9-0.2-1.3-0.3
			l-0.1,0c0,0-0.1,0-0.1,0c-0.1,0-0.2,0-0.2-0.1c0,0,0,0,0,0c0,0,0.1-0.1,0.1-0.1c0,0,0,0,0,0c0,0,0,0-0.1,0h0c0,0,0,0-0.1,0
			l-0.2-0.1l0,0c0,0-0.1-0.1-0.1-0.1c0,0,0,0,0-0.1c0,0,0,0,0,0c0,0-0.1,0-0.1-0.1c0,0,0,0,0-0.1c0,0,0,0,0,0c0,0,0,0,0,0
			c0,0,0,0,0-0.1c0,0,0-0.1,0-0.1c0,0,0,0,0-0.1c0,0,0,0,0,0v0c0,0,0,0,0,0c0,0,0,0,0,0v0c0,0,0,0,0-0.1h-0.1c0,0,0-0.1,0-0.1
			c0,0,0,0,0,0c0-0.1,0-0.2,0-0.3c0,0,0,0,0,0c0.1-0.1,0.2-0.1,0.2-0.2c0,0,0,0,0,0c0.1-0.1,0.2-0.2,0.3-0.3h0
			c0.1,0,0.1-0.1,0.1-0.2c0.1,0,0.2-0.1,0.2-0.2c0-0.1,0.1-0.1,0.1-0.2l0.2-0.3v-0.1c0,0,0,0,0,0l0.1-0.1v0l0,0
			c0.1-0.1,0.1-0.2,0.2-0.3c0,0,0,0,0,0c0,0,0-0.1,0.1-0.1c0,0,0-0.1,0-0.1c0,0,0-0.1,0.1-0.1c0,0,0,0,0,0c-0.1,0.3-0.2,0.6-0.2,1
			c0,0.1,0,0.2,0,0.3c0,0,0,0.1,0,0.1c-0.1,0.2-0.2,0.4-0.3,0.6c0,0,0,0-0.1,0.1c0,0.1-0.1,0.2-0.1,0.2c0,0-0.1,0.1-0.1,0.1
			l-0.1,0.1v0l0,0l-0.2,0.2l0,0l0,0h0l0.1,0l0.2,0.1l0,0c0,0,0,0,0,0c0.1,0,0.2,0,0.3,0.1c0.1,0.1,0.2,0.1,0.3,0h0c0,0,0.1,0,0.1,0
			h0c0,0,0,0,0,0c0.1,0,0.2,0,0.2,0l0.1,0c0.1,0,0.1,0,0.2-0.1c0.1,0,0.1,0,0.2,0c0,0,0.1,0,0.1,0c0-0.1,0.1-0.1,0.2-0.1
			c0,0,0.1,0,0.1,0c0,0,0,0,0.1,0c0,0,0.1,0,0.1,0c0,0,0.1,0,0.1-0.1c0.1,0,0.1-0.1,0.2-0.1c0,0,0.1,0,0.1-0.1c0,0,0,0,0.1,0l0,0h0
			c0,0,0,0,0,0c0,0,0-0.1,0-0.1c0,0,0-0.1,0-0.1l0,0c0,0,0-0.1,0-0.1v-0.1c0,0,0-0.1,0-0.1c0,0,0,0,0,0c0.1-0.1,0.1-0.2,0-0.2V-18
			l0-0.1v-0.1l0-0.2c0-0.1,0-0.3,0.1-0.4c0-0.1,0-0.2,0-0.3c0-0.1,0-0.1,0-0.2c0,0,0-0.1,0-0.1l0,0c0.1-0.2,0.1-0.4,0-0.5v-1
			c0,0,0,0,0,0c0-0.1,0-0.2,0-0.3c0,0,0,0,0,0v-0.1c0-0.2,0-0.3,0-0.5v-0.1c0-0.1,0-0.2,0-0.2v-0.1c0,0,0-0.1,0-0.1
			c0-0.1-0.1-0.3,0-0.4v-0.1c0-0.2-0.1-0.4,0-0.6v0c-0.1-0.2,0-0.4-0.2-0.6c-0.1-0.4-0.2-0.8-0.3-1.3c-0.1-0.1-0.1-0.2-0.1-0.3
			c0-0.2-0.1-0.4-0.2-0.5c0,0-0.1-0.1-0.1-0.1c0,0,0,0-0.1,0c-0.2-0.3-0.3-0.6-0.5-0.9l0,0v0c-0.4-0.6-1-1.1-1.7-1.4
			c0,0-0.1-0.1-0.1-0.1c-0.4-0.2-0.8-0.3-1.3-0.4c-0.2,0-0.4-0.1-0.7-0.1l-0.4,0h-0.2c0,0.1,0,0.1-0.1,0.2l-0.3,0
			c-0.1,0-0.3,0.1-0.5,0.1c-0.1,0-0.1,0-0.2,0c-0.2,0-0.3,0.1-0.5,0.1l-0.5,0.1c-0.1,0-0.3,0.1-0.4,0.2c0,0,0,0,0,0h0
			c-0.4,0.2-0.7,0.4-1,0.7c-0.1,0-0.1,0.1-0.2,0.2c-0.1,0.1-0.2,0.2-0.3,0.3c-0.1,0.1-0.2,0.2-0.2,0.3c0,0,0,0.1-0.1,0.1
			c-0.1,0.1-0.2,0.3-0.2,0.4c-0.1,0.1-0.2,0.3-0.2,0.4c0,0.1-0.1,0.3-0.2,0.4c0,0-0.1,0.1-0.1,0.2l0,0.1c0,0.2-0.1,0.3-0.2,0.4
			c0,0.1-0.1,0.2-0.1,0.4c-0.2,0.5-0.3,1.1-0.3,1.7c0,0.1,0,0.1,0,0.2c0,0.1,0,0.2,0,0.2c0,0,0,0,0,0c0,0.1,0,0.2,0,0.3v0
			c0,0.1,0,0.1,0,0.2c0,0,0,0,0,0.1v0.1l0,0v0.6c0,0,0,0,0,0c0,0,0,0,0,0.1c0,0,0,0,0,0.1c0,0.1,0,0.2,0,0.4c0,0,0,0.1,0,0.1
			c0,0.1,0,0.3,0,0.4c0,0.1,0,0.1,0,0.2c0,0,0,0,0,0.1c0,0,0,0.1,0,0.2c0,0,0,0.1,0,0.1c0,0,0,0.1,0,0.1c0,0,0,0,0,0
			c0,0,0,0.1,0,0.1c0,0.2,0,0.3,0.1,0.5c0,0-0.1,0-0.1,0c-0.1,0-0.1,0-0.2,0c0,0-0.1,0-0.1,0c0,0-0.1,0-0.1,0c0,0-0.1-0.1-0.1-0.1
			c-0.1-0.2-0.3-0.3-0.5-0.3c0,0,0,0,0,0c-0.1,0-0.2,0-0.3,0c-0.1,0-0.2,0-0.2,0c-0.1,0-0.1,0-0.2,0c-0.4,0.1-0.8,0.3-1.2,0.5
			c0.1-0.2,0.2-0.4,0.3-0.6c0.1-0.2,0.2-0.5,0.3-0.7l0-0.1v0h0c0.1,0,0.1-0.1,0.2-0.1c0.1-0.1,0.1-0.1,0.1-0.2
			c0.1-0.3,0.2-0.7,0.3-1c0.2-0.4,0.1-0.8-0.1-1.2c0-0.1-0.1-0.1-0.2-0.2c0,0,0,0,0,0c0,0,0-0.1,0-0.1c0-0.1,0-0.2,0-0.2v0
			c0-0.2,0-0.4-0.1-0.5V-24c0,0,0-0.1,0-0.1c0,0,0,0,0,0c0,0,0,0,0-0.1v-0.1c0-0.8-0.2-1.6-0.6-2.3c0,0,0-0.1,0-0.2
			c-0.2-0.4-0.5-0.8-0.9-1.1c-0.4-0.3-0.8-0.6-1.2-0.8c-0.7-0.3-1.3-0.4-2-0.4c-0.1,0-0.3-0.1-0.3,0.1c0.1,0,0.1,0,0.2,0.1
			c0.1,0.1,0.3,0,0.4,0.1c0.1,0,0.2,0,0.2,0c0.2,0.1,0.4,0.1,0.5,0.1c0,0,0.1,0,0.1,0l0.2,0.1c0.5,0.2,0.9,0.3,1.3,0.6
			c0.1,0.1,0.3,0.2,0.4,0.3c0.1,0,0.1,0.1,0.2,0.2c0.1,0.1,0.1,0.1,0.2,0.2l0.2,0.2c0.1,0.1,0.2,0.3,0.3,0.5c0,0.1,0.1,0.1,0.1,0.2
			l0.1,0.2c0,0,0,0,0,0v0c0,0.1,0.1,0.2,0.1,0.3l0.1,0.3c0,0.1,0.1,0.2,0.1,0.3c0,0.1,0,0.2,0,0.3l0,0.2c0,0.3,0,0.5,0,0.8
			c0,0,0,0.1,0,0.1c0,0,0,0.1,0,0.1c0,0,0,0.1,0,0.1c0,0.1,0,0.2,0,0.3c0,0.2-0.1,0.3-0.1,0.5c0,0.2,0,0.3-0.1,0.5
			c0,0.1,0,0.1,0,0.2l0,0c0,0,0,0.1,0,0.1c0,0,0,0,0,0c0,0-0.1,0-0.1,0l-0.1-0.1c0-0.1,0-0.1,0-0.2l0-0.2c0-0.2,0-0.3-0.1-0.5
			l-0.1-0.9c0-0.1,0-0.1-0.1-0.2c0-0.1,0-0.2-0.1-0.2c0,0,0,0,0,0c0-0.1,0-0.2-0.1-0.3l0,0c0-0.1,0-0.1,0-0.2c0,0,0,0,0-0.1
			c0,0,0-0.1,0-0.1c0,0,0,0,0-0.1c0-0.1-0.1-0.1-0.2-0.1c-0.2-0.1-0.3-0.2-0.5-0.2h-0.1c0,0,0,0-0.1-0.1c0,0,0,0,0,0
			c-0.1,0-0.3-0.1-0.4-0.2c0,0-0.1,0-0.1,0c-0.1,0-0.3-0.1-0.4-0.2c-0.1,0-0.2,0-0.2-0.1c0,0,0,0-0.1,0c0,0-0.1-0.1-0.2-0.1
			c0,0-0.1,0-0.1,0h-0.1c0,0,0,0,0,0c0,0-0.1,0-0.1-0.1c-0.4-0.1-0.9-0.2-1.4-0.2c-0.1,0-0.1,0-0.2,0c-0.1,0-0.1,0-0.2,0
			c0,0-0.1,0-0.1,0c0,0-0.1,0-0.1,0c-0.1,0-0.2,0-0.3,0c-0.1,0-0.1,0-0.2,0c-0.2,0-0.5,0.1-0.7,0.2c-0.1,0.1-0.3,0.1-0.4,0.1
			l-0.1,0.1h0c0,0,0,0-0.1,0c-0.3,0.1-0.7,0.3-1,0.4v0h0c0,0,0,0-0.1,0.1c0,0,0,0-0.1,0l-0.2,0.1c-0.1,0.1-0.2,0.2-0.3,0.3
			c-0.1,0.2-0.2,0.4-0.2,0.5c0,0.2-0.1,0.3-0.1,0.5l0,0l0,0.1c0,0,0,0.1,0,0.1c-0.1,0.3-0.1,0.7-0.1,1c0-0.1,0-0.2-0.1-0.4
			c0-0.1-0.1-0.2,0-0.3c0,0,0-0.1,0-0.1l0,0c0-0.1,0-0.2,0-0.3c0,0,0,0,0-0.1V-24l0-0.2c0-0.1,0-0.3,0-0.5c0-0.1,0-0.3,0.1-0.4
			c0-0.1,0-0.3,0.1-0.4c0,0,0,0,0-0.1c0-0.1,0.1-0.3,0.1-0.4l0,0c0-0.1,0.1-0.1,0.1-0.2v0c0.1-0.1,0.1-0.2,0.1-0.3
			c0-0.1,0.1-0.1,0.1-0.2c0.1-0.1,0.1-0.2,0.2-0.3v-0.1c0,0,0,0,0,0l0.1-0.1v0l0.1,0c0.1-0.1,0.2-0.2,0.3-0.3c0,0,0,0,0,0
			c0,0,0.1-0.1,0.1-0.1c0,0,0-0.1,0.1-0.1c0.1-0.1,0.2-0.2,0.3-0.3c0.1-0.1,0.3-0.1,0.4-0.2l0.1,0c0,0,0.1,0,0.1,0
			c0.2-0.1,0.4-0.2,0.6-0.2c0,0,0,0,0-0.1c0,0,0.1,0,0.1,0c0.1,0,0.1,0,0.2-0.1h0.1c0,0,0.1,0,0.1,0c0.1,0,0.1,0,0.2,0
			c0.2,0,0.3-0.1,0.5-0.1c0,0,0,0,0,0c0.1,0,0.2,0,0.2,0c0.1,0,0.2-0.1,0.2-0.1c0-0.1-0.1,0-0.2-0.1c-0.1,0-0.2,0-0.2,0c0,0,0,0,0,0
			c-0.2,0-0.4,0-0.5,0.1h-0.1c-0.1,0-0.2,0-0.3,0.1l-0.1,0l-0.1,0c0,0-0.1,0-0.1,0l-0.1,0l-0.1,0h0c0,0-0.1,0-0.1,0c0,0,0,0-0.1,0
			h-0.1c0,0-0.1,0.1-0.2,0.1c0,0-0.1,0-0.1,0l-0.1,0c0,0-0.1,0-0.1,0c0,0-0.1,0.1-0.1,0.1l0,0h0c-0.2,0-0.2,0.1-0.3,0.2l0,0h0
			c-0.1,0.1-0.2,0.2-0.4,0.3l0,0h0c0,0-0.1,0-0.1,0.1l0,0h0c0,0-0.1,0.1-0.1,0.1c-0.1,0.1-0.2,0.2-0.3,0.3c0,0,0,0,0,0.1
			c-0.3,0.3-0.5,0.6-0.7,1v0l0,0c0,0,0,0,0,0.1l0,0.1c-0.1,0.1-0.1,0.3-0.1,0.5v0.1c0,0.2-0.1,0.3-0.1,0.5c0,0.2-0.1,0.3-0.1,0.5v0
			c0,0.1,0,0.1,0,0.2v0c0,0.1,0,0.3,0,0.4v0l0,0c0,0.1,0,0.1,0,0.2c0,0,0,0.1,0,0.1l0,0.1l0,0.3c0,0,0,0,0,0c0,0,0,0,0,0l0,0.1
			c0,0,0,0,0,0c0,0,0,0.1,0,0.1c0,0.1,0,0.1,0,0.2c0,0,0,0.1,0,0.1c0,0,0,0,0,0v0h0c0,0,0,0,0,0c0,0,0,0.1,0,0.1c0,0,0,0,0,0
			c0,0-0.1,0.1-0.1,0.1c0,0,0,0,0,0v0l0,0.1c0,0,0,0.1,0,0.1c0,0,0,0,0,0c0,0,0,0,0,0c-0.1,0.1-0.1,0.2-0.1,0.3v0.1l0,0
			c0,0,0,0.1,0,0.1c0,0,0,0.1,0,0.1c0,0.1,0,0.1,0,0.2c0,0.1,0.1,0.3,0.1,0.4c0,0.1,0.1,0.2,0.1,0.3c0,0.1,0.1,0.1,0.1,0.2
			c0,0,0,0.1,0.1,0.1c0,0,0,0,0,0.1c0,0.1,0.1,0.2,0.1,0.2c0.1,0.1,0.1,0.1,0.2,0.1c0,0,0.1,0,0.1,0l0,0.1l0,0.1
			c0,0.1,0.1,0.2,0.1,0.3c0.1,0.2,0.1,0.3,0.2,0.5l0,0.1c0,0,0,0,0,0.1c0.1,0.1,0.1,0.2,0.2,0.2v0.1l0,0v0c0.1,0.2,0.2,0.3,0.3,0.5
			c0,0,0,0.1,0.1,0.1c0,0.1,0.1,0.2,0.2,0.2l0,0l0,0c0,0,0.1,0.1,0.1,0.1c0.1,0.1,0.2,0.2,0.3,0.3l0.1,0v0c0.1,0.2,0.3,0.3,0.5,0.5
			h0v0c0.2,0.1,0.3,0.2,0.4,0.3c-0.1,0.3-0.2,0.5-0.4,0.7c-0.1,0-0.1,0.1-0.2,0.1l-0.2,0.1c-0.1,0-0.3,0.1-0.4,0.1
			c-0.3,0-0.5,0.1-0.8,0.2c0,0,0,0,0,0h0c-0.7,0.1-1.4,0.4-2.1,0.5l-0.4,0.1c-0.4,0.1-0.9,0.3-1.3,0.5c0,0-0.1,0.1-0.2,0.1
			c-0.3,0.2-0.5,0.4-0.7,0.6c-0.1,0.1-0.1,0.3-0.2,0.4l-0.2,0.4c-0.1,0.3-0.1,0.5-0.2,0.8c0,0.1-0.1,0.2-0.1,0.3l0,0.2
			c-0.1,0.3-0.1,0.6-0.1,0.9c0,0.2,0,0.5-0.1,0.7c-0.1,1-0.1,2-0.1,3.1c0,0.1,0,0.2,0,0.3c0,0.1,0,0.3,0,0.4c0,0,0,0,0,0.1v0.5
			c0,0,0.1,0,0.1,0h0.2l0.1,0l0.1,0h0.3c0,0,0.1,0,0.1,0h0.1l0,0h1.1c0.1,0,0.1,0,0.1,0c0,0,0.1,0,0.1,0c0,0,0.1,0,0.1,0
			c0.2,0,0.4,0,0.7,0c0.1,0,0.1,0,0.2,0c0.2,0,0.5,0,0.7,0c0.1,0,0.3,0,0.4,0c0,0,0.1,0,0.1,0c0.1,0,0.2,0,0.3,0c0,0,0.1,0,0.1,0
			c0.1,0,0.1,0,0.2,0c0,0,0.1,0,0.1,0c0.1,0,0.1,0,0.2,0h2.3c0.1,0,0.2,0,0.3,0c0.1,0,0.2,0,0.3,0c0.1,0,0.1,0,0.2,0
			c0,0,0.1,0,0.1,0c0.1,0,0.3,0,0.4,0c0.1,0,0.2,0,0.3,0c0.2,0,0.4,0,0.6,0c-0.1,0.1-0.1,0.3-0.1,0.4c-0.1,0.1-0.1,0.3-0.1,0.5
			c0,0.1-0.1,0.2-0.1,0.3c0,0.2,0,0.4,0,0.6c0,0.1,0,0.2,0,0.3v0.1c0,0,0,0,0,0h0.2c0,0,0,0,0,0h0.5c0.1,0,0.3,0,0.4,0
			c0,0,0.1,0,0.1,0h0.3c0.1,0,0.2,0,0.3,0c0,0,0.1,0,0.1,0c0,0,0,0,0.1,0c0.3,0,0.7,0,1,0c0.2,0,0.4,0,0.6,0
			c0.1,0.1,0.3,0.1,0.5,0.1c0.1,0,0.2,0,0.3,0c0,0,0.1,0,0.1,0c0,0,0.1,0,0.1,0l0.5,0c0,0,0.1,0,0.1,0h0.1c0.1,0,0.3,0,0.4,0
			c0,0,0,0,0,0c0.2,0,0.3,0.1,0.5,0c0.2,0,0.4,0,0.6,0c0,0,0,0,0.1,0c0.2,0,0.4,0,0.6,0c0.1,0,0.2,0,0.2,0c0.1,0,0.2,0,0.3,0h0.3
			c0.1,0,0.2,0.1,0.3,0c0.1,0.1,0.2,0.1,0.3,0.1h0.9c0,0,0,0,0.1,0c0,0,0.1,0,0.1,0l0.7,0c0.1,0,0.2,0.1,0.2,0h0.5
			c0.1,0,0.3,0,0.4,0c0,0,0,0,0,0c0,0,0,0,0,0c0,0,0.1,0,0.1,0c0,0,0.1,0,0.1,0c0.1,0,0.2,0,0.3,0c0.1,0,0.1,0,0.2,0
			c0,0,0-0.1,0-0.1c0,0,0,0,0-0.1c0-0.1,0-0.2,0-0.3c0-0.2,0-0.3,0-0.5c0-0.1,0-0.3,0-0.4c0-0.3-0.1-0.5-0.2-0.8
			c0-0.1-0.1-0.1-0.1-0.2c0,0,0-0.1,0-0.1c0.1,0,0.2,0,0.2,0c0.3,0,0.7,0,1,0c0.2,0,0.4,0,0.6,0l0.1,0c0,0,0,0,0.1,0
			c0,0,0.1,0,0.1,0c0.5,0.1,1.1,0,1.6,0h0.1c0,0,0.1,0,0.1,0c0,0,0,0,0.1,0c0.2,0,0.5,0,0.7,0c0.5,0,1,0,1.5,0c0,0,0,0,0,0h0.2
			c0.1,0,0.1,0,0.2,0h1.3l0.7,0h0v-0.2l0-0.2l0-0.3l0.1-0.4c0-0.4,0.1-0.8,0.1-1.2c0-0.1,0-0.2,0-0.3v-0.1c0-0.1,0-0.2,0-0.2
			c0-0.3,0.1-0.5,0.1-0.8c0-0.1,0-0.3,0-0.4c0,0,0-0.1,0-0.1c0,0,0,0,0,0c0-0.1,0-0.3,0-0.4c0,0,0-0.1,0-0.1
			C-1152.2-10.7-1152.2-11.2-1152.2-11.7z M-1158.5-15.8L-1158.5-15.8C-1158.5-15.8-1158.5-15.8-1158.5-15.8
			C-1158.5-15.8-1158.4-15.7-1158.5-15.8l0,0.1h0l0,0h0v0c0,0-0.1,0.1-0.1,0.1c-0.1,0.1-0.3,0.2-0.4,0.4v0l0,0.1l-0.1,0
			c-0.1,0.1-0.3,0.3-0.4,0.4l-0.2,0.2c-0.1,0.1-0.2,0.2-0.3,0.3c0,0,0,0.1-0.1,0.1c0,0,0,0,0,0c0,0,0,0-0.1,0
			c-0.1,0.1-0.2,0.1-0.2,0.2c0,0.1-0.1,0.1-0.1,0.1s0,0,0,0h0c0,0-0.1,0.1-0.1,0.1c0,0,0,0,0,0l-0.1,0.1h0l0,0l0,0h0l-0.1-0.1
			c0,0,0,0,0,0c-0.1,0-0.1-0.1-0.2-0.1v0c0,0-0.1-0.1-0.1-0.1c0-0.1-0.1-0.1-0.1-0.1c0,0-0.1,0-0.1-0.1l-0.1-0.1h0v0l0,0h0v0
			c-0.1,0-0.1-0.1-0.2-0.1c0,0,0,0,0,0c0,0,0,0-0.1-0.1c0,0,0,0,0,0c-0.1-0.1-0.2-0.2-0.3-0.3l0,0c0,0,0,0,0,0l-0.2-0.2c0,0,0,0,0,0
			c0,0,0,0,0,0l-0.1-0.1l0-0.1c0,0,0,0,0,0c0,0,0-0.1-0.1-0.1c-0.1,0-0.1-0.1-0.2-0.2c0,0,0,0,0,0c0,0,0-0.1-0.1-0.1
			c0,0,0-0.1,0-0.1v0h0c0,0,0,0,0-0.1c0-0.1-0.1-0.2-0.2-0.3c0,0,0,0,0,0l0.1,0c0.1,0,0.3-0.1,0.4-0.1l0.2-0.1l0.1,0c0,0,0,0,0,0
			l0,0l-0.3-0.3l-0.1,0c0-0.1-0.1-0.1-0.2-0.2c0,0,0-0.1,0-0.1c0,0,0-0.1,0-0.1l-0.1-0.2l-0.1-0.2c0,0,0-0.1-0.1-0.1h0l0.1,0.1
			c0,0,0,0.1,0,0.1c0.1,0.1,0.3,0.2,0.4,0.3c0.1,0.1,0.3,0.2,0.4,0.3c0.2,0.1,0.3,0.2,0.5,0.2c0.1,0,0.2,0.1,0.4,0.1
			c0.1,0,0.2,0.1,0.4,0.1c0.1,0,0.1,0,0.2,0h0.1c0,0,0.1,0,0.1,0h0.2c0.1,0,0.2,0,0.2,0c0.1,0,0.2,0,0.2,0c0,0,0,0,0.1,0l0,0
			c0.1,0,0.2,0,0.3-0.1c0,0,0,0,0,0c0.3-0.1,0.6-0.2,0.9-0.4c0,0,0,0.1,0,0.1c0,0,0,0.1,0,0.1c0,0,0,0.1,0,0.1c0,0,0,0,0,0.1
			c0,0,0,0,0,0c0,0,0,0.1,0,0.1c0,0,0,0.1,0,0.1c0,0.1,0,0.3,0.1,0.4C-1158.6-16-1158.5-15.9-1158.5-15.8L-1158.5-15.8z M-1156.9-22
			C-1156.9-22-1156.9-22-1156.9-22c-0.1,0.2-0.1,0.3-0.1,0.4v0.1c0,0.1,0,0.1,0,0.2v0.1c0,0,0,0.1-0.1,0.1c0,0,0,0.1,0,0.1v0.1
			c0,0,0,0.1,0,0.1c0,0,0,0,0,0l0,0.1c0,0,0,0.1,0,0.1c0,0,0,0,0,0.1v0.1c0,0,0,0,0,0.1c0,0,0,0.1,0,0.1v0c-0.1,0.1-0.1,0.2-0.1,0.3
			v0c0,0.1-0.1,0.2-0.1,0.3v0c0,0,0,0,0,0c0,0,0,0,0,0.1v0l0,0c0,0,0,0.1,0,0.1c-0.1,0.1-0.1,0.2-0.2,0.2c0,0,0,0,0,0
			c-0.2,0.2-0.4,0.5-0.5,0.7v0h0c0,0,0,0,0,0l0,0c-0.1,0.1-0.2,0.2-0.2,0.3v0h0c-0.2,0.2-0.4,0.3-0.6,0.5v0c0,0-0.1,0-0.1,0.1
			c-0.1,0.1-0.2,0.1-0.2,0.2v0c-0.2,0.1-0.4,0.2-0.7,0.2c0,0,0,0-0.1,0h-0.1c-0.1,0-0.2,0-0.3,0h-0.1c-0.1,0-0.1,0-0.2,0h-0.1
			c-0.1,0-0.2-0.1-0.3,0c0,0-0.1,0-0.1,0c-0.1-0.1-0.3-0.1-0.4-0.1c-0.1-0.1-0.3-0.1-0.4-0.2l-0.2-0.1c-0.1,0-0.1-0.1-0.2-0.1
			c-0.1,0-0.1-0.1-0.2-0.1l-0.1-0.1c-0.1-0.1-0.1-0.1-0.2-0.2l-0.2-0.2c0,0,0-0.1,0-0.1c-0.1-0.1-0.2-0.2-0.3-0.3v0
			c0,0-0.1-0.1-0.1-0.1h0l-0.2-0.3c0,0,0,0,0,0v0c0,0-0.1-0.1-0.1-0.2c0-0.1-0.1-0.2-0.1-0.2l0-0.1c0,0,0-0.1,0-0.1h0v-0.1
			c0,0,0,0,0,0c0-0.1-0.1-0.1-0.1-0.2l0,0c0-0.1,0-0.1-0.1-0.2c0,0,0-0.1,0-0.1c0,0,0,0,0,0c0,0,0,0,0-0.1c0,0,0-0.1,0-0.1
			c0,0,0,0,0,0c0-0.1,0-0.2,0-0.3c0,0,0,0,0-0.1c0-0.6-0.1-1.1-0.2-1.7c0,0,0,0,0-0.1c0,0,0-0.1,0-0.1c0,0,0,0,0,0c0,0,0,0,0,0h0
			c0,0,0.1,0,0.1-0.1c0.1,0,0.2-0.1,0.3-0.1l0.2-0.1l0.3-0.2l0-0.1c0,0,0,0,0,0l0.1-0.1v0l0.1,0c0.1-0.1,0.2-0.2,0.3-0.3
			c0,0,0,0,0,0c0,0,0.1-0.1,0.1-0.1c0,0,0-0.1,0.1-0.1c0.2-0.2,0.4-0.4,0.5-0.6l0-0.1c0,0,0,0,0-0.1c0.1-0.2,0.2-0.3,0.3-0.5
			c0,0,0,0,0-0.1c0,0,0-0.1,0-0.1l0.1-0.2l0.1-0.1c0,0,0-0.1,0-0.1c0.1,0,0.1-0.1,0.1-0.2c0.1-0.1,0.1-0.3,0.2-0.4v0
			c0,0,0-0.1,0-0.1c0,0.1,0,0.1,0,0.2c0,0,0,0,0,0c0,0.2,0.1,0.3,0.2,0.4l0,0.1c0,0.1,0.1,0.1,0.1,0.2l0.1,0.1l0,0c0,0,0,0.1,0,0.1
			c0,0,0,0.1,0,0.1l0.1,0.1l0,0c0,0,0,0.1,0.1,0.1c0,0,0,0,0,0.1l0,0.1c0,0,0.1,0.1,0.1,0.1c0,0,0,0.1,0,0.1l0,0.1c0,0,0,0.1,0,0.1
			c0,0,0.1,0.1,0.1,0.1l0,0v0c0,0.1,0.1,0.2,0.2,0.3h0v0c0.1,0.1,0.2,0.2,0.3,0.3h0v0c0,0,0,0.1,0.1,0.1h0v0c0,0,0.1,0,0.1,0.1
			c0.1,0.1,0.2,0.2,0.3,0.3h0.1c0.3,0.3,0.6,0.4,0.9,0.5h0l0,0c0,0,0,0,0,0h0c0.1,0.1,0.3,0.1,0.4,0.1h0l0,0
			c0.3,0.1,0.6,0.1,0.9,0.2h0c0,0,0.1,0,0.1,0c0,0,0,0,0.1,0c0,0,0,0,0,0.1c0,0-0.1,0-0.1,0c0,0,0,0-0.1,0
			C-1156.9-22.1-1156.9-22-1156.9-22z M-1156.7-20.9C-1156.7-20.9-1156.7-21-1156.7-20.9l0-0.3l0-0.1v0.1
			C-1156.7-21.1-1156.7-21-1156.7-20.9l0,0.1c0,0.1,0,0.1-0.1,0.2v0.1c0,0.1,0,0.1,0,0.2c0,0,0,0,0,0.1
			C-1156.8-20.5-1156.7-20.7-1156.7-20.9C-1156.7-20.9-1156.7-20.9-1156.7-20.9z M-1166-19.4C-1166-19.5-1166-19.5-1166-19.4
			c0-0.1,0-0.1,0-0.1c0-0.2,0-0.3,0-0.5c0-0.3-0.1-0.6-0.1-0.9c0,0,0,0,0-0.1c0,0,0,0,0,0c0-0.1,0-0.2,0-0.2c0,0,0,0,0,0
			c0,0,0,0,0,0v-0.1c0-0.2,0-0.3,0-0.5V-22c0-0.1,0-0.2,0-0.2v-0.1c0,0,0-0.1,0-0.1c0-0.1,0-0.3,0-0.4v-0.1c0.1-0.2,0-0.4,0.1-0.6v0
			c0-0.2,0.1-0.4,0-0.6c0-0.4,0.2-0.8,0.3-1.2c0-0.1,0-0.2,0.1-0.3c0.1-0.1,0.2-0.3,0.2-0.5c0,0,0-0.1,0.1-0.1c0,0,0,0,0-0.1
			c0.2-0.3,0.3-0.6,0.6-0.8v0h0c0.5-0.5,1-0.9,1.6-1.3c0,0,0.1,0,0.1,0c0.2-0.1,0.4-0.2,0.6-0.2c0.2,0,0.4-0.1,0.6-0.1l0.3,0l0.2,0
			h0.3c0,0,0,0,0,0l0,0.1l-0.4,1.7c0,0.1-0.1,0.2,0,0.3c0,0,0,0,0,0c0,0,0,0,0,0c0,0,0.1-0.1,0.1-0.1c0.1-0.1,0.1-0.3,0.2-0.4
			l0.1-0.2c0.1-0.1,0.1-0.3,0.2-0.5c0,0,0-0.1,0-0.1l0.1-0.1c0.1-0.2,0.1-0.4,0.2-0.5l0.1-0.1h0.5c0.2,0,0.3,0,0.4,0.1
			c0.1,0,0.1,0,0.2,0c0.3,0.1,0.7,0.2,1,0.3c0.1,0.1,0.3,0.1,0.4,0.2c0,0,0,0,0,0c0.1,0.1,0.2,0.1,0.2,0.2c0.1,0.1,0.2,0.1,0.2,0.2
			c0.2,0.1,0.3,0.2,0.4,0.4c0.1,0.1,0.1,0.1,0.2,0.2c0.1,0.1,0.1,0.2,0.2,0.3c0.1,0.1,0.1,0.2,0.2,0.3c0,0,0.1,0,0.1,0.1
			c0.2,0.2,0.4,0.5,0.4,0.8c0.1,0.1,0.1,0.3,0.2,0.4c0,0.1,0,0.1,0.1,0.2l0,0.1c0.1,0.1,0.1,0.3,0.1,0.4c0.1,0.1,0.1,0.2,0.1,0.3
			c0.1,0.5,0.2,1.1,0.3,1.6c0,0.1,0,0.1,0,0.2c0,0.1,0,0.2,0,0.2c0,0,0,0,0,0c0,0.1,0,0.2,0,0.3h0c0,0.1,0,0.1,0,0.2c0,0,0,0,0,0.1
			v0.1l0,0c0,0.2,0,0.4,0,0.6c0,0,0,0,0,0c0,0,0,0,0,0.1c0,0,0,0,0,0.1c0,0.1,0,0.2,0,0.4c0,0,0,0.1,0,0.1c0,0.1,0,0.3,0,0.4
			c0,0.1,0,0.1,0,0.2c0,0,0,0,0,0.1c0,0,0,0.1,0,0.2c0,0,0,0.1,0,0.1c0,0,0,0.1,0,0.1c0,0,0,0,0,0c0,0,0,0.1,0,0.1
			c0,0.4-0.1,0.8-0.1,1.2c0,0,0,0.1-0.1,0.1c0,0.1,0,0.1,0,0.2c0,0,0,0.1,0,0.1c0,0,0,0.1,0,0.1c0,0.1-0.1,0.1,0,0.2v0
			c0,0,0,0-0.1,0l-0.1,0.1c-0.1,0-0.2,0.1-0.2,0.1c-0.1,0.1-0.2,0.1-0.3,0.1l-0.1,0h-0.1c-0.3,0-0.6,0-0.9,0h0c0,0,0,0,0,0
			c0,0,0,0,0,0c0,0,0,0,0,0h0l0-0.1l0.1-0.1c0-0.1,0.1-0.1,0.1-0.2v0l0.1-0.1c0,0,0.1-0.1,0.1-0.1c0.2-0.3,0.3-0.7,0.3-1.1
			c0-0.2,0.1-0.4,0.1-0.5c0-0.3,0.1-0.5,0.1-0.8c0-0.1,0-0.1,0-0.2v-0.1c0,0,0-0.1,0-0.1c0-0.2,0-0.3,0-0.5c0-0.1,0-0.2,0-0.3
			c0,0,0,0,0-0.1l0,0c0-0.1,0-0.2,0-0.3c0,0,0,0,0-0.1c0-0.1,0-0.3,0-0.4v-0.7l-0.4-0.1l-0.3,0c-0.1,0-0.3-0.1-0.4-0.1
			c0,0,0,0-0.1,0c-0.1,0-0.3-0.1-0.4-0.1c0,0,0,0,0,0c-0.1,0-0.1-0.1-0.2-0.1c-0.1-0.1-0.2-0.1-0.3-0.1c-0.1,0-0.1,0-0.2-0.1
			c-0.1,0-0.2-0.1-0.3-0.2h-0.1c0,0,0,0,0,0l-0.1-0.1l0,0c0,0,0,0,0,0c-0.1-0.1-0.2-0.2-0.3-0.2c0,0,0,0,0,0c0,0-0.1-0.1-0.1-0.1
			c0,0-0.1,0-0.1-0.1c-0.2-0.2-0.3-0.4-0.5-0.6l0-0.1c0,0,0-0.1,0-0.1c-0.1-0.2-0.2-0.3-0.3-0.5c0,0,0,0-0.1,0c0,0,0-0.1-0.1-0.1
			l-0.1-0.2l0-0.1c0,0,0-0.1-0.1-0.1c0-0.1,0-0.1-0.1-0.2c-0.1-0.1-0.2-0.3-0.2-0.4c0,0,0,0,0,0c0-0.1-0.1-0.1-0.1-0.2
			c0,0-0.1-0.1-0.1-0.1c0,0,0-0.1,0-0.1c-0.1,0-0.1,0.1-0.1,0.1c-0.1,0-0.1,0.1-0.1,0.2c0,0,0,0,0,0c-0.1,0.1-0.2,0.3-0.2,0.4l0,0.1
			c0,0.1-0.1,0.1-0.1,0.2l-0.1,0.1v0.1c0,0-0.1,0-0.1,0.1c0,0,0,0,0,0.1l0,0.1l0,0c0,0-0.1,0.1-0.1,0.1c0,0,0,0,0,0l-0.1,0.1
			c0,0,0,0.1-0.1,0.1c0,0,0,0,0,0.1l0,0.1c0,0,0,0,0,0.1c0,0,0,0.1-0.1,0.1v0h0c-0.1,0-0.1,0.2-0.2,0.2v0l0,0
			c-0.1,0.1-0.1,0.2-0.2,0.2v0h0c0,0,0,0,0,0c0,0-0.1,0-0.1,0.1v0h0c0,0,0,0.1-0.1,0.1c-0.1,0-0.2,0.1-0.3,0.2c0,0,0,0,0,0.1
			c-0.3,0.1-0.6,0.3-0.8,0.6v0h0c0,0,0,0,0,0l0,0c-0.1,0-0.3,0.1-0.4,0.2c0,0,0,0,0,0c0,0.1,0,0.3,0,0.4v0.6c0,0,0,0.1,0,0.1
			c0,0.1,0,0.1,0,0.2c0,0,0,0.1,0,0.1c0,0,0,0,0,0.1c0,0.1,0,0.2,0,0.2c0,0,0,0.1,0,0.1c0,0.2,0.1,0.4,0.2,0.6
			c0.1,0.1,0.1,0.2,0.1,0.3l0.1,0.1v0c0,0,0,0,0,0.1c0,0.1,0,0.1,0.1,0.2c0,0,0,0,0,0c0,0.1,0,0.2,0.1,0.3c0,0,0,0.1,0,0.1
			c0,0.2,0,0.4,0.2,0.5c0.1,0.4,0.2,0.7,0.4,1c0.1,0.1,0.1,0.2,0.1,0.2l0.1,0.1c0,0.1,0.1,0.2,0.2,0.3l0.1,0.1l0,0
			c0,0,0,0.1,0.1,0.1c0,0,0,0,0,0l0,0l0,0h0c0,0-0.1,0-0.1,0h0l-0.1,0c0,0.1,0.1,0.2,0.1,0.2c0,0,0,0,0,0l-0.1,0c0,0,0,0-0.1,0
			c0,0-0.1,0,0,0c0.1-0.1,0.1-0.2,0.1-0.3c0,0,0,0,0-0.1c0-0.2-0.1-0.4-0.2-0.5c-0.1-0.1-0.1-0.1-0.2-0.1c-0.1-0.1-0.2-0.1-0.3-0.1
			h-0.2l-0.1,0c0-0.1-0.1-0.1-0.2-0.2c0-0.1,0-0.2-0.1-0.3c-0.1-0.2-0.2-0.3-0.3-0.4c-0.1-0.1-0.3-0.2-0.5-0.2c0,0-0.1,0-0.1,0
			c0,0-0.1,0-0.1,0c0,0-0.1,0-0.1,0c0,0,0,0,0,0c0-0.1,0-0.2,0-0.3C-1166-19.3-1166-19.4-1166-19.4z M-1176.4-17.8
			c0-0.1-0.1-0.1-0.1-0.1c0-0.1-0.1-0.1-0.2-0.2c0,0,0,0,0,0l-0.2-0.2h0c0-0.1-0.1-0.1-0.1-0.2c0,0,0,0-0.1,0l0-0.1v0
			c-0.1-0.2-0.2-0.4-0.3-0.5c0,0,0,0-0.1,0v-0.1c0,0,0,0,0,0c-0.1-0.1-0.1-0.2-0.2-0.3c0,0,0-0.1,0-0.1c-0.1-0.1-0.1-0.3-0.2-0.4
			c-0.1-0.1-0.1-0.2-0.1-0.3c0,0,0-0.1,0-0.1c0-0.1,0-0.2-0.1-0.3l-0.1,0.1c0,0-0.1,0-0.1,0.1h-0.1l0,0c0,0,0-0.1,0-0.1
			c-0.1-0.2-0.2-0.4-0.2-0.6l-0.1-0.3c0-0.1-0.1-0.2-0.1-0.3l0-0.1c0,0,0-0.1,0-0.1c0,0,0-0.1,0-0.1c0,0,0,0,0,0c0,0,0,0,0-0.1v0
			c0,0.1,0,0.2,0,0.3c0,0,0,0.1,0,0.1v0c0,0.2,0,0.4,0,0.7c0.1,0,0.3-0.1,0.4-0.2l0.4-0.2l0-0.3l0-0.2v-0.4c0-0.1,0-0.2,0-0.3l0-0.2
			c0.1-0.2,0.1-0.5,0.1-0.7c0,0,0-0.1,0-0.1c0-0.2,0.1-0.3,0.1-0.5h0c0-0.1,0-0.1,0.1-0.2c0,0,0,0,0,0c0,0,0,0,0-0.1c0,0,0,0,0,0
			c0,0,0,0,0.1,0l0,0l0.1,0c0,0,0,0,0,0c0.1-0.1,0.1-0.1,0.2-0.1c0.1,0,0.2-0.1,0.3-0.2l0.1,0c0,0,0.1,0,0.1,0l0,0h0c0,0,0,0,0,0
			c0.1,0,0.1-0.1,0.2-0.1l0.1,0c0.1,0,0.1,0,0.2-0.1c0,0,0.1-0.1,0.2-0.1c0,0,0,0,0.1,0c0-0.1,0.1-0.1,0.2-0.1c0,0,0.1,0,0.1,0
			c0,0,0,0,0.1,0c0,0,0.1,0,0.1,0c0,0,0.1,0,0.1,0c0.1,0,0.1,0,0.2,0c0,0,0.1,0,0.1,0h0.1c0,0,0.1,0,0.1,0c0,0,0.1,0,0.1-0.1
			c0,0,0,0,0,0c0,0,0.1,0,0.1,0h0v0h0c0,0,0.1,0,0.1,0c0,0,0,0,0,0c0,0,0,0,0,0c0.1,0,0.2,0,0.2,0h0.1l0,0h0.3c0.1,0,0.3,0,0.4,0.1
			c0.1,0,0.2,0,0.3,0.1c0.1,0,0.1,0,0.2,0c0,0,0.1,0,0.1,0c0,0,0,0,0,0c0.2,0.1,0.3,0.2,0.5,0.2c0.3,0.1,0.6,0.2,1,0.3l0.1,0
			c0,0,0,0,0,0c0.1,0,0.2,0.1,0.3,0.1c0,0,0,0,0.1,0h0v0c0.1,0.1,0.2,0.1,0.3,0.2c0,0,0.1,0,0.1,0c0,0,0,0,0,0c0,0.1,0,0.2,0.1,0.2
			l0,0v0c0,0,0,0.1,0,0.1c0.1,0.1,0.1,0.3,0.1,0.4v0.1c0,0.2,0.1,0.4,0.1,0.6v0c0.1,0.2,0,0.4,0.1,0.6c0,0.1,0,0.2,0.1,0.4l0,0.2
			l0,0.3l0.7,0.2l0.1-0.3c0-0.1,0-0.3,0.1-0.4c0.1-0.2,0.1-0.4,0.1-0.6c0-0.1,0-0.1,0-0.2c0,0,0-0.1,0-0.1c0-0.1,0-0.2,0.1-0.3
			c0,0.1,0,0.2,0,0.2c0,0,0,0,0,0.1c0,0,0,0-0.1,0c0,0,0.1,0.1,0.1,0.1c0,0,0,0,0,0c0,0,0,0,0,0c0,0,0,0,0,0
			c0.1,0.1,0.2,0.3,0.2,0.4c0,0.1,0,0.2,0,0.2c0,0.2-0.1,0.4-0.2,0.5c0,0,0,0.1,0,0.1l-0.1,0.2c-0.1,0.2-0.2,0.5-0.3,0.7
			c0,0-0.1,0.1-0.1,0.1c0,0-0.1,0-0.1,0l0,0c0,0,0,0,0,0l-0.1,0.2l0,0.2c0,0.2-0.1,0.3-0.2,0.5c0,0.1,0,0.2-0.1,0.2
			c-0.2,0.3-0.3,0.7-0.6,1c0,0-0.1,0.1-0.1,0.1c0,0-0.1,0.1-0.1,0.1l-0.1,0c0,0,0,0-0.1,0l0,0h0c-0.1,0-0.3,0-0.4,0l-0.2,0.1
			c-0.2,0.1-0.4,0.2-0.6,0.4h0c0,0,0,0-0.1,0.1c-0.1,0.1-0.2,0.3-0.3,0.5c0,0.1-0.1,0.2-0.1,0.2h0c-0.1,0-0.2,0.1-0.3,0.2
			c-0.1,0.1-0.1,0.1-0.2,0.2c-0.3,0.1-0.6,0.2-0.9,0.2c-0.2,0-0.3,0-0.5,0c-0.1,0-0.1,0-0.2,0l-0.1,0c-0.1,0-0.2,0-0.2,0
			c-0.1,0-0.2-0.1-0.2-0.1c-0.1,0-0.3-0.1-0.4-0.1C-1175.5-17-1176-17.4-1176.4-17.8z M-1172.3-16.1L-1172.3-16.1
			C-1172.3-16.1-1172.3-16.1-1172.3-16.1C-1172.3-16.1-1172.3-16.1-1172.3-16.1z M-1173.9-5.9c-0.1,0-0.1,0-0.2,0h-0.2
			c0,0-0.1,0-0.1,0c0,0-0.1,0-0.1,0h-0.1c-0.1,0-0.1,0-0.2,0h-0.2c-0.1,0-0.1,0-0.2,0c0,0,0,0-0.1,0c-0.1,0-0.3,0-0.4,0h-0.1l-0.1,0
			h-0.6c-0.2,0-0.5,0-0.7,0c-0.2,0-0.3,0-0.5,0c-0.1,0-0.2,0-0.3,0c-0.1,0-0.1,0-0.2,0c0,0,0,0-0.1,0c-0.3-0.1-0.6-0.1-1,0
			c-0.6,0-1.2,0-1.7,0h-0.1c0,0,0,0-0.1,0h0c-0.2,0-0.3,0-0.5,0c0,0,0,0-0.1,0h-0.1c-0.3,0-0.6,0-0.9,0h-0.1c-0.1,0-0.2,0-0.4,0
			h-0.1c0,0-0.1,0-0.1,0c0,0,0-0.1,0-0.1c0,0,0-0.1,0-0.1c0-0.1,0-0.1,0-0.2c0-0.1,0-0.2,0-0.3v-0.1c0.1-0.3,0-0.7,0.1-1.1v-0.1
			c-0.1-0.3,0-0.7,0-1c0-0.8,0.1-1.6,0.2-2.3c0-0.2,0-0.4,0.1-0.5c0.1-0.3,0.2-0.6,0.2-1c0-0.1,0-0.2,0.1-0.2c0,0,0-0.1,0-0.1
			c0.3-0.5,0.8-0.9,1.3-1.1l0,0h0.1c1.2-0.4,2.5-0.8,3.7-1.1c0.1,0,0.2,0,0.3,0c0.2,0,0.4-0.1,0.5-0.1c0.1,0,0.1,0,0.1-0.1
			c0.2,1.9,2.4,2.7,4.2,1.9l-0.2-0.3c-1.8,0.9-3.1-0.2-3.9-1.7c0.1,0,0.2-0.1,0.3-0.1c0.2-0.2,0.4-0.5,0.5-0.8
			c0.4,0.2,0.9,0.4,1.3,0.5c0.1,0,0.2,0,0.3,0.1c0.1,0,0.2,0,0.3,0c0.1,0,0.2,0,0.3,0c0.1,0,0.1,0,0.2,0c0,0,0,0,0.1,0
			c0.1,0,0.2-0.1,0.4-0.1c0,0,0,0.1,0,0.1c0,0.1,0,0.2,0,0.2l0,0h0c0,0.2,0,0.3,0.2,0.5c0,0.1,0,0.1,0.1,0.2c0,0-0.1,0-0.1,0.1
			c0,0,0,0,0,0.1c-0.1,0.1-0.2,0.3-0.2,0.4c0,0.3,0.2,0.5,0.3,0.7c0.2,0.2,0.4,0.5,0.6,0.6c0,0,0.1,0.1,0.1,0.1c0.1,0.1,0.2,0,0.3,0
			c0,0,0,0,0,0c0,0,0.1-0.1,0-0.1c0-0.2-0.1-0.3-0.3-0.3c0,0-0.1,0-0.1-0.1c-0.2-0.1-0.4-0.3-0.5-0.5v0h0c0-0.1,0-0.2-0.1-0.3
			c0-0.1,0-0.2,0.1-0.3c0.1,0,0.1,0,0.2-0.1h0.1l0-0.1c0,0,0-0.1,0-0.1c0-0.1,0-0.2-0.1-0.3c-0.1-0.1-0.1-0.3-0.1-0.5
			c0-0.1,0.1-0.2,0.1-0.3c0.1-0.2,0.2-0.3,0.5-0.3h0.1c0,0,0,0,0,0v-0.1c0,0,0,0,0-0.1c0-0.1,0-0.1,0-0.2c0,0,0.1,0,0.1,0
			c0.2-0.2,0.3-0.4,0.5-0.5c0.1,0,0.2-0.1,0.2-0.2h0c0.2,0,0.3,0,0.5,0c0.1,0,0.3-0.1,0.4-0.1c0.3-0.2,0.4-0.4,0.7-0.6
			c0.2-0.2,0.5-0.4,0.9-0.4c0,0,0.1,0,0.1,0c0.1,0,0.1-0.1,0.2-0.1h0l0.2,0c0,0,0.1,0,0.1,0c0.1,0,0.3,0,0.4,0.1
			c0,0,0.1,0.1,0.1,0.1c0,0.1,0.1,0.1,0.2,0.2c0.1,0.1,0.2,0.1,0.3,0.1c0.1,0,0.2,0,0.2,0c0.1,0,0.3,0,0.4,0c0,0,0,0,0,0
			c0,0,0,0,0,0c0.1,0,0.1,0,0.2,0.1v0c0,0,0,0,0,0c0.1,0,0.1,0,0.2,0c0,0,0,0,0,0c0.2,0,0.3,0.1,0.4,0.2c0.1,0.2,0.1,0.3,0.2,0.5
			c0,0.1,0.1,0.1,0.1,0.2c0,0,0,0.1,0.1,0.1c0.1,0.1,0.2,0.2,0.3,0.2c0.1,0,0.2,0,0.3,0c0.1,0,0.2,0,0.3,0.1c0,0,0.1,0,0.1,0
			c0,0.1,0.1,0.1,0.1,0.2c0,0,0,0.1,0,0.1c-0.1,0.2-0.2,0.3-0.4,0.5c0.1,0.1,0.3,0.1,0.5,0.2l0.1,0.1l0,0l0.1,0.1
			c0,0.1,0.1,0.1,0.1,0.2l0.1,0.1l0,0v0c0,0.1,0,0.1,0.1,0.1c0,0,0,0.1,0,0.1c0.1,0.1,0.1,0.2,0.2,0.3c0,0.1,0,0.2,0.1,0.2
			c0,0,0,0.1,0,0.1c0,0,0,0.1,0,0.1v0c-0.1,0.1-0.1,0.1-0.1,0.2l0,0.1c0,0-0.1,0.1-0.1,0.1c-0.1,0-0.1,0.1-0.2,0.2
			c0,0-0.1,0.1-0.1,0.1l0,0c0,0.1-0.1,0.1-0.1,0.2c0,0.1-0.1,0.2-0.1,0.3c0,0,0,0.1,0,0.1c0,0,0,0.1,0,0.1c0,0,0,0.1-0.1,0.3l0,0.1
			c0,0.1,0,0.2-0.1,0.2s-0.1,0-0.1-0.1c0,0,0-0.1,0-0.1c0,0,0-0.1,0-0.1c0,0,0-0.1,0-0.1c0,0,0-0.1,0-0.1l-0.1-0.2
			c0-0.2-0.1-0.3-0.2-0.5v0c0-0.1,0-0.2,0-0.2l-0.1-0.2l-0.1-0.2v0c0,0,0,0,0,0l-0.1,0h-0.1l0,0l0-0.1v0l0.1-0.2l0,0l-0.1,0.1
			l-0.1,0l0,0l-0.1-0.1l-0.1-0.1c-0.1,0-0.2,0.1-0.2,0.1l-0.1,0c0,0-0.1,0-0.1,0c-0.1,0-0.2,0-0.3,0c0,0-0.1-0.1-0.2-0.1
			c-0.1,0-0.3,0-0.4,0c-0.1,0-0.2,0.1-0.3,0.1c0,0,0,0,0,0c-0.1-0.1-0.2-0.1-0.3-0.1c-0.1,0-0.3,0-0.4,0.1c-0.1,0-0.1,0.1-0.2,0.2
			c-0.1,0.1-0.3,0.1-0.4,0.2c-0.1,0-0.3,0-0.4,0c-0.1-0.1-0.3-0.2-0.4-0.4c-0.1,0.1-0.2,0.2-0.2,0.3l-0.1,0.1h0c0,0,0,0,0,0
			c-0.1,0-0.2,0-0.2,0h0l0,0l-0.1-0.1l-0.2-0.3c0,0-0.1-0.1-0.1-0.1c-0.1,0-0.1,0.2-0.2,0.3c0,0.1-0.1,0.1-0.1,0.2
			c0,0-0.1,0.1-0.1,0.1l-0.1,0.1c-0.1,0-0.1,0.1-0.2,0.1c-0.1,0-0.1,0.1-0.2,0.1c-0.1,0-0.2,0-0.3,0c0,0.1,0,0.1,0,0.2l0,0.2v0.2
			c0,0.1,0,0.2,0,0.3c0,0.3-0.1,0.6-0.1,0.9c0.1,0.1,0.1,0.3,0,0.4l-0.1,0.1c0,0,0,0,0-0.1c0-0.1,0-0.1-0.1-0.2
			c-0.1-0.1-0.1-0.3-0.1-0.4c0-0.1-0.1-0.2-0.2-0.3c0-0.1,0-0.1,0-0.1c-0.1,0-0.1,0,0,0.1c0,0.1,0,0.1,0,0.2c0,0,0,0,0,0
			c0,0.1,0,0.1,0,0.2c0,0,0,0.1,0.1,0.1c0,0,0,0,0,0c0,0.1,0.1,0.2,0.1,0.3c0,0,0,0,0,0c0,0.1,0,0.1,0.1,0.2v0l0.1,0.2l0.2-0.1
			c0.2-0.1,0.3-0.4,0.2-0.7c0,0,0,0,0,0c0.1-0.3,0.1-0.6,0.1-0.9c0.1-0.1,0.1-0.2,0.1-0.3c0-0.1,0-0.1-0.1-0.2c0,0,0,0,0-0.1
			l0.1,0.1c0,0,0,0,0,0c0,0,0.1,0,0.1-0.1c0.1-0.1,0.1-0.1,0.2-0.1c0.1,0,0.1-0.1,0.2-0.1l0.1-0.1l0,0c0.1-0.1,0.1-0.1,0.2-0.2v0
			c0,0,0,0,0,0c0,0,0.1,0.1,0.1,0.1c0.1,0,0.1,0.1,0.2,0.1h0.1c0.1,0.1,0.3,0.1,0.4,0c0.1,0,0.2-0.1,0.2-0.2c0,0,0.1,0.1,0.2,0.1h0
			c0,0,0,0.1,0.1,0.1c0.1,0,0.2,0.1,0.3,0.1c0.2,0,0.4,0,0.5-0.1h0c0.1,0,0.2-0.1,0.4-0.1c0.1,0,0.2-0.1,0.3,0c0,0,0.1,0.1,0.2,0.1
			c0,0,0.1,0,0.1,0c0.1,0,0.2-0.1,0.3-0.1c0.2-0.2,0.5,0.1,0.7,0.1h0v0c0.2,0,0.3,0,0.5-0.1c0,0,0.1,0,0.1,0c0.1,0,0.1,0,0.2-0.1
			c0,0,0,0,0,0c0,0,0,0,0,0.1l0,0.1c0,0.1,0,0.2,0,0.2c0,0.1,0.1,0.2,0.1,0.2c0,0.2,0.1,0.3,0.1,0.4c0,0.1,0,0.2,0,0.2
			c0,0.1,0.1,0.2,0.1,0.3c0,0.1,0,0.2,0,0.3c0,0.2,0.1,0.3,0,0.5l0,0.1c0,0.1,0,0.1,0,0.2c0,0,0,0,0,0c0,0,0.1,0.1,0.2,0
			c0.1-0.1,0.1-0.2,0.2-0.4c0,0,0,0,0-0.1l0-0.1c0,0,0,0,0,0c0,0,0,0.1,0,0.1v0c0,0.1,0,0.1,0,0.2c0,0,0,0,0,0c0,0-0.1,0.1,0,0.1
			c0,0.1-0.1,0.2-0.1,0.3c-0.1,0.1-0.1,0.3-0.2,0.4c-0.1,0.1-0.1,0.2-0.2,0.3c0,0,0,0,0,0v0l0,0.1c0,0,0,0,0-0.1l-0.3,0.1
			c0,0,0,0.1,0,0.1c0,0,0,0,0,0l0-0.1c0,0.1-0.1,0.1-0.1,0.2c0,0.1,0,0.1-0.1,0.2c-0.1,0.1-0.2,0.3-0.3,0.4c0,0-0.1,0.1-0.1,0.1
			c-0.1,0.1-0.1,0.2-0.2,0.2l0,0c-0.2,0.1-0.4,0.3-0.5,0.5c0,0,0,0,0,0c0,0-0.1,0-0.1,0c-0.1,0-0.1,0.1-0.2,0.1
			c-0.1,0.1-0.2,0.1-0.4,0.2h0c-0.2,0.1-0.4,0.1-0.6,0.1l-0.2,0c-0.1,0-0.2,0-0.3,0c-0.2,0-0.4,0-0.6-0.1h0v0
			c-0.1,0-0.2-0.1-0.3-0.1c0,0,0,0-0.1,0c-0.1-0.1-0.2-0.2-0.3-0.2c-0.1-0.1-0.2-0.2-0.3-0.2c-0.1-0.1-0.1-0.2-0.2-0.2
			c0-0.1-0.1-0.1-0.1-0.2c-0.2-0.2-0.4-0.4-0.5-0.7c0,0,0,0,0,0c-0.1-0.1-0.1-0.3-0.2-0.4l0-0.1l0,0c0,0-0.1,0.1-0.1,0.1
			c0,0,0,0-0.1,0c0,0-0.1,0-0.1-0.1c0,0,0-0.1-0.1-0.1c0-0.1-0.1-0.1-0.1-0.2c0,0,0,0,0-0.1c0,0,0,0,0-0.1c-0.1-0.1-0.1-0.2-0.2-0.3
			c-0.1-0.1-0.1-0.2-0.2-0.3c0-0.1,0-0.3,0-0.4c0.1-0.1,0.1-0.2,0.2-0.2c-0.1,0-0.3,0-0.4-0.1c0,0,0,0.1-0.1,0.1c0,0,0,0.1,0,0.1
			c-0.1,0.1-0.1,0.1,0,0.2c-0.1,0.1-0.1,0.3,0,0.4c0,0,0,0.1,0,0.1v0c0,0.1,0.1,0.1,0.1,0.2c0,0.1,0.1,0.1,0.1,0.2l0.2,0.3
			c0.1,0.1,0.1,0.2,0.2,0.3c0.1,0.1,0.1,0.1,0.2,0.2c0.1,0.1,0.2,0.1,0.3,0.1c0,0,0.1,0,0.1,0c0,0.1,0.1,0.2,0.1,0.3
			c0.1,0.2,0.2,0.3,0.3,0.4c0,0,0,0.1,0,0.1c0.1,0.1,0.1,0.1,0.2,0.2c0,0.2,0.1,0.3,0.3,0.4v0c0,0.1,0.1,0.1,0.1,0.2
			c0.1,0.1,0.3,0.2,0.4,0.3c0,0,0,0,0,0c-0.2,0.3-0.3,0.5-0.5,0.7c0,0,0,0,0,0c0,0-0.1,0-0.1,0c-0.1,0-0.2,0.1-0.3,0.1l-0.5,0.2h0
			c-0.3,0.1-0.5,0.2-0.8,0.3c-0.1,0-0.2,0.1-0.3,0.2c-0.1,0-0.2,0.1-0.3,0.2c-0.2,0.2-0.5,0.3-0.6,0.6l0,0h0
			c-0.1,0.1-0.2,0.3-0.3,0.4c0,0,0,0.1,0,0.1c0,0-0.1,0.1-0.1,0.1l0,0c0,0-0.1,0-0.1,0C-1173.7-5.9-1173.8-5.9-1173.9-5.9z
			 M-1161.5-3.4L-1161.5-3.4c-0.1,0-0.2,0-0.2,0c-0.1,0-0.1,0-0.2,0c-0.1,0-0.1,0-0.2,0c-0.3,0-0.6-0.1-0.9,0c-0.1,0-0.3-0.1-0.4,0
			c0,0,0,0,0,0c0,0,0,0-0.1,0c-0.1,0-0.2,0-0.4,0c0,0,0,0-0.1,0c-0.4,0-0.8,0-1.2-0.1c-0.1,0-0.1,0-0.2,0c0,0-0.1,0-0.1,0
			c-0.3,0-0.7,0-1.1,0c-0.1,0-0.1,0-0.2,0c-0.2,0-0.3,0-0.5,0.1c-0.1,0-0.1,0-0.2,0h-0.9c-0.1-0.1-0.2,0-0.3,0h-0.1c0,0,0,0,0,0
			c0,0-0.1,0-0.1,0c0,0-0.1,0-0.1,0l-0.4,0c-0.1,0-0.2,0-0.3,0c-0.1,0-0.1,0-0.2,0c-0.1,0-0.1,0-0.2,0h0c-0.1,0-0.2,0-0.3,0h-0.1
			c0,0-0.1-0.1-0.2,0c-0.1,0-0.3-0.1-0.4,0c0,0-0.1,0-0.1,0h0l-0.9,0c0,0,0,0,0,0c-0.3,0-0.6,0-0.9,0.1c0,0,0,0-0.1,0l-0.3,0l-0.4,0
			h-0.1v-0.1c0,0,0,0,0-0.1c0,0,0-0.1,0-0.1c0,0,0-0.1,0-0.1v-0.3c0.1-0.2,0.1-0.3,0.1-0.5v0c0-0.1,0.1-0.1,0.1-0.2
			c0.1-0.2,0.1-0.5,0.3-0.7c0.1-0.1,0.1-0.2,0.2-0.3c0.1,0,0.1-0.1,0.1-0.1c0.1-0.2,0.3-0.4,0.5-0.5c0.2-0.1,0.5-0.3,0.8-0.4
			c0.2,0,0.3-0.1,0.4-0.2l0.5-0.1c0.2-0.1,0.4-0.1,0.6-0.2l0,0c0,0,0,0,0.1,0c0.1,0.1,0.2,0.2,0.3,0.2c0,0.1,0,0,0,0.1
			c0.1,0,0.1,0.1,0.2,0.1c0,0.1,0,0.1,0.1,0.1c0,0,0,0,0,0c0,0.1,0.1,0.1,0.1,0.1c0.1,0,0.2,0,0.2,0.1c0,0,0.1,0.1,0.2,0.1
			c0.1,0,0.2,0.1,0.3,0.1c0.1,0,0.1,0,0.2,0v0c0.1,0.1,0.2,0.1,0.3,0.1c0,0,0.1,0,0.1,0v0c0.1,0.1,0.1,0.1,0.2,0.1c0,0,0,0,0,0
			c0.1,0,0.1,0,0.1,0.1c0.2,0.1,0.3,0,0.4,0s0.3-0.2,0.4-0.2c0,0,0,0,0,0c0,0,0.1,0,0.1-0.1l0.1,0c0,0,0,0,0,0
			c0.1,0,0.1-0.1,0.2-0.1c0.1,0,0.3-0.1,0.3-0.2c0.1,0,0.1,0,0.2-0.1c0,0,0,0,0,0s0.1-0.1,0.1-0.2h0c0-0.1,0.1-0.2,0.1-0.2
			c0-0.1,0.1-0.1,0.1-0.2c0,0,0.1,0,0.1,0c0.2,0,0.4,0.1,0.5,0.1c0.1,0,0.3,0.1,0.4,0.1c0.2,0,0.4,0.1,0.6,0.2
			c0.2,0.1,0.3,0.1,0.5,0.2c0,0,0,0,0,0.1c0.2,0.2,0.4,0.3,0.6,0.5c0.1,0.1,0.1,0.1,0.2,0.2c0,0,0,0,0,0c0,0.2,0.1,0.3,0.2,0.4
			c0.1,0.1,0.1,0.2,0.1,0.3c0,0.3,0.2,0.6,0.3,0.9c0.1,0.3,0.2,0.7,0.2,1c0,0,0,0.1,0,0.1c0,0.1,0,0.1,0.1,0.2V-3.4z M-1152.6-11.1
			L-1152.6-11.1c-0.1,0.4-0.1,0.8-0.1,1.3c0,0,0,0.1,0,0.1v0.1c0,0.2-0.1,0.3,0,0.5v0.1c0,0.1,0,0.2-0.1,0.3v0.1
			c0,0.2-0.1,0.3,0,0.5c0,0.1,0,0.1,0,0.2c-0.1,0.3-0.1,0.6-0.1,0.9c-0.1,0.3-0.1,0.6-0.2,0.8c0,0.1,0,0.2,0,0.2c0,0,0,0-0.1,0h-0.1
			c-0.1,0-0.3,0-0.4,0h-0.2c-0.4,0-0.7,0-1.1,0c0,0-0.1,0-0.1,0h-0.8l0,0h-0.3l0,0h-0.6c0,0,0,0-0.1,0c-0.1,0-0.2,0-0.4,0
			c-0.2,0-0.3,0-0.5,0h-0.1c0,0-0.1,0-0.1,0h-0.1c0,0,0,0-0.1,0h-0.4c-0.1,0-0.2,0-0.3,0c-0.1,0-0.2,0-0.3,0c0,0-0.1,0-0.1,0
			c-0.1,0-0.2,0-0.3,0c0,0-0.1,0-0.1,0c0,0-0.1,0-0.1,0c-0.1,0-0.1,0-0.2,0c-0.1,0-0.1,0-0.2,0c-0.1,0-0.2,0-0.3,0
			c-0.1,0-0.1,0-0.2,0h-0.2c0,0-0.1,0-0.1,0c0,0-0.1,0-0.1,0h0c0,0,0,0,0,0c0,0,0-0.1,0-0.1c0-0.1-0.1-0.3-0.2-0.4
			c-0.1-0.1-0.2-0.2-0.2-0.3l-0.1-0.1c-0.1-0.2-0.3-0.3-0.5-0.4v0c0,0,0,0-0.1-0.1c-0.1-0.1-0.2-0.1-0.2-0.1c-0.1,0-0.1-0.1-0.2-0.1
			c-0.1-0.1-0.2-0.1-0.3-0.2c0,0-0.1,0-0.1,0c-0.3-0.1-0.6-0.2-1-0.3l-0.2,0l-0.2,0l0,0c0,0,0,0,0,0c-0.1-0.1-0.3-0.1-0.4,0
			c0,0,0,0,0,0c-0.1-0.1-0.2-0.1-0.3-0.2c-0.1-0.1-0.1-0.1-0.1-0.1c0,0,0,0,0-0.1c0,0,0,0-0.1,0c0,0,0-0.1-0.1-0.1c0,0,0-0.1,0-0.1
			c0-0.1,0-0.1-0.1-0.2c0,0,0,0,0,0c0,0,0,0,0,0c0,0-0.1,0.1-0.2,0.1c0,0-0.1,0-0.1,0c0,0,0,0,0,0c0,0,0,0,0,0c0,0,0,0,0,0
			c0,0,0,0,0,0c0,0,0,0,0,0c0,0.1,0,0.1,0.1,0.2c0,0,0,0,0,0c0,0.1,0.1,0.2,0.1,0.2c0,0.1,0,0.1,0.1,0.2c0,0,0,0,0,0l0,0
			c0,0,0,0,0.1,0c0,0,0,0,0,0c-0.1,0-0.1,0-0.1,0.1c0,0.1-0.1,0.2-0.1,0.3v0h0c-0.1,0.1-0.1,0.1-0.2,0.2c-0.1,0-0.1,0-0.1,0
			l-0.2,0.1c0,0-0.1,0-0.1,0.1c0,0-0.1,0-0.1,0c0,0-0.1,0-0.1,0c0,0,0,0-0.1,0c-0.2,0.1-0.3,0.2-0.5,0.2c0,0-0.1,0-0.1,0
			c-0.1-0.1-0.1-0.1-0.2,0l0,0h0c0,0-0.1,0-0.1,0c0,0-0.1,0-0.1,0h0c-0.1,0-0.1,0-0.2,0c0,0,0,0,0,0h-0.2c0,0-0.1,0-0.1,0
			c0,0,0,0,0,0c-0.1,0-0.2-0.1-0.3-0.1h-0.1l-0.1,0v0c0-0.1-0.1-0.1-0.2,0c-0.1,0-0.1-0.1-0.2-0.1c0,0-0.1,0,0,0
			c0-0.1,0-0.1-0.1-0.1c-0.1,0-0.1-0.1-0.2-0.2c0-0.1-0.1-0.1-0.1-0.2c0.1-0.1,0.1-0.1,0.2-0.2c0.1-0.1,0.1-0.3,0.2-0.4c0,0,0,0,0,0
			c0,0,0,0,0-0.1c0.1,0,0.2,0.1,0.2,0.1c0,0.1,0.1,0.1,0.2,0.1c0.2,0.1,0.5,0.1,0.7,0.1c0.3,0,0.5,0,0.8,0c0.2,0,0.3-0.1,0.4-0.2
			c0.1,0,0.3-0.1,0.4-0.1c0.1-0.1,0.3-0.2,0.4-0.3c0.3-0.1,0.5-0.3,0.7-0.6c0,0,0,0,0,0c0.1-0.1,0.1-0.1,0.2-0.2
			c0-0.1,0.1-0.1,0.1-0.3c0,0,0-0.1,0.1-0.1c0.2-0.2,0.3-0.4,0.4-0.6l0,0c0.1,0,0.1,0,0.2,0c0.1,0,0.1-0.1,0.2-0.2
			c0.1-0.2,0.2-0.3,0.2-0.5c0.1-0.2,0.1-0.3,0.2-0.5c0,0,0-0.1,0-0.1c0.1,0,0-0.1,0-0.2c0-0.1,0-0.2-0.1-0.3c0,0,0-0.1-0.1-0.1
			c0,0-0.1,0-0.1,0l0-0.1c0,0,0-0.1,0.1-0.1c0.1,0,0.1-0.1,0.2-0.2c0,0,0,0,0-0.1c0,0,0.1,0,0.1,0c0.1-0.1,0.1-0.2,0.2-0.4
			c0-0.1,0-0.2-0.1-0.2c0.1,0,0.2,0,0.2-0.1c0.2-0.1,0.3-0.2,0.3-0.4c0.1-0.1,0.1-0.3,0.1-0.4c0-0.1,0-0.2,0-0.3c0,0,0-0.1,0-0.1
			c0,0,0,0,0,0l0,0c0,0,0.1,0.1,0.1,0.1l0,0h0c0,0,0,0.1,0,0.1l0,0l0,0h0c0,0,0,0,0,0.1c0,0,0,0,0,0v0c0,0,0,0,0,0.1c0,0,0,0,0,0
			l0,0c0,0,0,0,0,0s0,0,0,0c0,0.1,0.1,0.1,0.1,0.1c0.1,0,0.1,0.1,0.1,0.1c0,0,0,0,0,0v0c0,0,0.1,0,0.1,0c0,0.1,0.1,0.1,0.1,0.2h0
			c0.1,0.1,0.3,0.3,0.5,0.3v0c0,0,0,0,0,0h0c0.1,0,0.1,0.1,0.2,0.1h0c0.1,0,0.1,0.1,0.2,0.2c0.1,0.1,0.2,0.2,0.2,0.3
			c0,0,0.1,0.1,0.1,0.1v0h0c0.1-0.1,0.1-0.1,0.2-0.2v0c0.1-0.1,0.2-0.1,0.2-0.2l0.1-0.2c0,0,0,0,0,0l0,0c0.1,0,0.1-0.1,0.1-0.1l0,0
			c0,0,0.1,0,0.1,0c0,0,0.1,0,0.1-0.1c0,0,0,0,0,0c0.1,0,0.2-0.1,0.2-0.2c0.2-0.1,0.3-0.2,0.4-0.4c0-0.1,0.1-0.1,0.1-0.1l0.1-0.1
			c0.1-0.1,0.2-0.2,0.3-0.3c0,0,0,0,0.1,0c0.1-0.1,0.1-0.1,0.2-0.2h0l0.1-0.1v0l0.1-0.1l0.1,0c0,0,0.1,0,0.1,0.1c0,0,0.1,0,0.1,0.1
			l0.1,0c0,0,0.1,0,0.1,0c0.1,0,0.1,0,0.2,0h0l0,0c0.2,0.1,0.3,0.1,0.5,0.1h0.1c0.2,0,0.4,0.1,0.6,0.2h0l0,0.1c0,0,0.1,0,0.1,0h0.1
			l0,0c0.1,0,0.1,0,0.2,0c0.2,0.1,0.3,0.1,0.5,0.2c0,0,0,0,0.1,0h0c0.5,0.2,1,0.4,1.4,0.7h0l0,0c0,0,0,0,0.1,0c0,0,0,0,0.1,0
			c0.2,0.1,0.3,0.3,0.4,0.4l0,0v0c0.2,0.4,0.2,0.8,0.2,1.2v0.1c0,0.1,0,0.2,0,0.3v0.1C-1152.6-11.5-1152.7-11.3-1152.6-11.1
			L-1152.6-11.1z"/>
		<polygon class="st8" points="-1164.6,-15.1 -1164.6,-15 -1164.6,-15 		"/>
	</g>
	<path class="st8" d="M-1170.2-17.7C-1170.2-17.7-1170.3-17.7-1170.2-17.7L-1170.2-17.7z"/>
</g>
</svg>
