<?xml version="1.0" encoding="utf-8"?>
<!-- Generator: Adobe Illustrator 25.2.1, SVG Export Plug-In . SVG Version: 6.00 Build 0)  -->
<svg version="1.1" id="Layer_1" xmlns="http://www.w3.org/2000/svg" xmlns:xlink="http://www.w3.org/1999/xlink" x="0px" y="0px"
	 width="111.8px" height="146.6px" viewBox="0 0 111.8 146.6" style="enable-background:new 0 0 111.8 146.6;" xml:space="preserve"
	>
<style type="text/css">
	.st0{fill:#0F2D52;}
</style>
<g>
	<path class="st0" d="M111.8,71.1c0-8.1-6.3-14.8-14.3-15.4c0.4-0.6,0.6-1.3,0.6-2.1V42.2C98.1,18.9,79.2,0,55.9,0
		S13.7,18.9,13.7,42.2v11.3c0,0.8,0.2,1.5,0.6,2.2C6.3,56.3,0,62.9,0,71.1v56c0,0,0,0,0,0c0,0,0,0,0,0v3.9c0,8.5,7,15.5,15.5,15.5
		h80.7c8.5,0,15.5-7,15.5-15.5V128c0.1-0.3,0.1-0.6,0.1-0.9V71.1z M21.7,42.2C21.7,23.3,37,8,55.9,8s34.2,15.3,34.2,34.2v11.4
		c0,0.7,0.2,1.4,0.6,2h-7.6c0.4-0.6,0.6-1.3,0.6-2.1V42.2c0-15.3-12.5-27.8-27.8-27.8c-15.3,0-27.8,12.5-27.8,27.8v11.4
		c0,0.7,0.2,1.4,0.6,2h-7.6c0.4-0.6,0.6-1.3,0.6-2.1V42.2z M76.3,55.6H35.5c0.3-0.6,0.6-1.3,0.6-2V42.2c0-10.9,8.9-19.8,19.8-19.8
		s19.8,8.9,19.8,19.8v11.3C75.7,54.3,75.9,55,76.3,55.6z M8,71.1c0-4.1,3.4-7.5,7.5-7.5h80.8c4.1,0,7.5,3.4,7.5,7.5v52H8V71.1z
		 M96.2,138.6H15.5c-4,0-7.4-3.4-7.5-7.4h95.7C103.6,135.3,100.3,138.6,96.2,138.6z"/>
	<path class="st0" d="M55.9,75.9c-7.6,0-13.7,6.1-13.7,13.7c0,4.6,2.3,8.8,6,11.3v3.7c0,4.2,3.5,7.7,7.7,7.7s7.7-3.5,7.7-7.7V101
		c3.8-2.5,6-6.7,6-11.4C69.6,82,63.5,75.9,55.9,75.9z M58.1,94.9c-1,0.4-1.8,1.2-2.2,2.2c-0.4-1-1.1-1.7-2.1-2.2
		c-2.2-0.9-3.6-3-3.6-5.3c0-3.1,2.6-5.7,5.7-5.7s5.7,2.6,5.7,5.7C61.6,92,60.3,94,58.1,94.9z"/>
</g>
</svg>
