<?xml version="1.0" encoding="utf-8"?>
<!-- Generator: Adobe Illustrator 26.3.1, SVG Export Plug-In . SVG Version: 6.00 Build 0)  -->
<svg version="1.1" id="Layer_1" xmlns="http://www.w3.org/2000/svg" xmlns:xlink="http://www.w3.org/1999/xlink" x="0px" y="0px"
	 width="138.7px" height="155.7px" viewBox="0 0 138.7 155.7" style="enable-background:new 0 0 138.7 155.7;" xml:space="preserve"
	>
<style type="text/css">
	.st0{fill:#E2F3F9;}
	.st1{fill:#10153A;}
	.st2{fill:#EA2C38;}
</style>
<g>
	<circle class="st0" cx="30.5" cy="30.4" r="26.5"/>
	<path class="st1" d="M30.4,60.9C13.6,60.9,0,47.2,0,30.4C0,13.6,13.7,0,30.5,0c16.8,0,30.4,13.6,30.4,30.4
		C60.9,47.3,47.2,60.9,30.4,60.9z M30.4,8C18,8,8,18.1,8,30.5c0,12.4,10.1,22.4,22.5,22.4c12.4,0,22.4-10.1,22.4-22.4
		C52.9,18,42.8,8,30.4,8z"/>
	<circle class="st2" cx="30.5" cy="30.4" r="13.2"/>
	<path class="st1" d="M30.4,47.7c-9.5,0-17.2-7.7-17.2-17.3c0-9.5,7.7-17.2,17.3-17.2c9.5,0,17.2,7.7,17.2,17.2
		C47.7,40,39.9,47.7,30.4,47.7z M30.4,21.2c-5.1,0-9.2,4.1-9.2,9.2c0,5.1,4.1,9.2,9.2,9.2c5.1,0,9.2-4.1,9.2-9.2c0,0,0,0,0,0
		C39.6,25.4,35.5,21.2,30.4,21.2z"/>
	<path class="st0" d="M28.7,117c0,0,9.9,3,19.1,15.9S72.7,150,72.7,150c1.8,1.1,3.9,1.7,6,1.7c1,0,2-0.1,3-0.5l46.2-16.4
		c4.4-1.6,7.2-6,6.7-10.6L121.1,64c-1.4-4-5.2-6.7-9.5-6.7c-1.1,0.1-2.3,0.3-3.4,0.6c-4.3,2-2.5,9.9-3.4,10.1
		c-1,0.3-3.1-3.2-3.1-3.2c-1.5-4.1-4.5-6.9-8.7-6.9c-1.2,0-2.4,0.2-3.5,0.6c-4.7,1.7-7,5.2-6.3,11.9c0,0,0.3,3.4-0.8,3.8
		s-3.6-6.1-3.6-6.1c-1.5-4.1-3.1-9.8-12.3-6.1c-4.2,1.6-5.2,6.3-3.7,10.5c0,0,3.1,11.6,1.9,12S44.7,37.6,44.7,37.6
		c-1.5-4.1-4.3-6.7-8.4-6.7c-1.5,0-2.9,0.3-4.3,1c-4.8,2.2-5.8,8-4,12.9c0,0,10.5,27,13.6,38.4C44.8,94.5,50,110,50,110
		c1.7,0.7-0.7,2.9-6.8-3.3c-4.1-4.2-8.1-7.2-10.1-7.2c-2.3-0.4-4.7-0.3-7,0.1c-4,0.8-8.9,2.6-10.2,8.3
		C15.5,115.1,23.8,114.7,28.7,117z"/>
	<path class="st1" d="M78.7,155.7c-2.7,0-5.3-0.7-7.7-2c-3.2-1-17.6-5.9-26.5-18.5c-8.1-11.4-16.9-14.4-17-14.4l-0.5-0.2
		c-1.2-0.5-2.4-0.9-3.7-1.2c-4.4-1.2-11.8-3.2-11.3-11.8l0.1-0.6c1.3-6,5.8-9.8,13.2-11.3c2.4-0.5,4.9-0.6,7.3-0.3
		c0.2,0,0.3,0.1,0.5,0.1c1,0,3.7,0,9.6,5.2c-1.6-5.1-3.5-11.1-5-16.4c-3-11.1-13.4-37.7-13.5-38v-0.1c-2.7-7.6-0.2-15,6.1-17.9
		c1.9-0.9,3.9-1.3,5.9-1.3c5.6,0,10,3.4,12.2,9.3c3.7,9.2,7.6,18.9,11,27.1c1.2-2.3,3.2-4.1,5.6-5c4.4-1.7,8-1.9,11-0.6
		c1.8,0.9,3.3,2.2,4.3,3.9c1.5-3.3,4.3-5.8,7.8-6.9c1.5-0.6,3.2-0.9,4.8-0.9c3.7,0,7.1,1.6,9.5,4.3c0.8-1.8,2.2-3.2,4-4l0.4-0.2
		l0.4-0.1l0.7-0.2c1.2-0.3,2.3-0.5,3.5-0.5c6,0,11.3,3.8,13.3,9.4l0.1,0.5l13.6,60.3v0.2c0.7,6.5-3.1,12.7-9.3,14.8l-46.2,16.4
		C81.7,155.4,80.2,155.7,78.7,155.7z M30.2,113.3c1.9,0.7,11.8,4.6,20.8,17.3c8.2,11.5,22.6,15.5,22.7,15.6l0.7,0.2l0.6,0.4
		c1.1,0.7,2.5,1,3.8,1c0.6,0,1.2-0.1,1.7-0.2l46.2-16.4c2.6-0.9,4.2-3.5,4-6.2l-13.4-59.7c-0.9-2.3-3.2-3.9-5.7-3.9
		c-0.6,0-1.1,0.2-1.7,0.3h-0.1c-0.3,0.3-0.6,1.4-0.6,4.4c0,1.8-0.1,4.8-3.1,5.8c-4,1.3-6.9-3.4-7.8-5L98,66.4l-0.1-0.4
		c-0.7-1.9-2.1-4.2-4.9-4.2c-0.7,0-1.4,0.1-2.1,0.4c-2.3,0.8-4.3,2.1-3.7,7.7v0.1c0.3,4.1-0.9,6.9-3.4,7.9c-1.1,0.4-2.3,0.4-3.4-0.1
		c-1-0.4-2.7-1.2-5.4-8.4L74.9,69c-0.6-1.7-1.3-3.6-2.3-4.1c-0.4-0.2-1.7-0.5-4.7,0.7c-2.3,0.9-2,3.8-1.4,5.4l0.1,0.3
		c3,11.5,3.3,15.5-0.7,16.8c-3.5,1.1-5.1-2.2-6-3.9c-0.6-1.3-1.4-3-2.5-5.4c-1.7-3.9-4-9.4-6.8-16.2C45.7,51,41,39.2,41,39v-0.2
		c-1.4-4.1-3.8-4.1-4.7-4.1c-0.9,0-1.8,0.2-2.6,0.6c-2.8,1.3-3,5-1.9,7.9c0.7,1.8,10.6,27.5,13.7,38.8c2.6,9.5,6.7,21.9,8,25.5
		c0.7,0.8,1.1,1.9,1.1,2.9c0,1.8-1.1,3.4-2.8,4c-2.1,0.8-5.8,0.6-11.4-5.1c-4.2-4.3-6.7-5.8-7.4-6c-0.5,0-0.9-0.1-1.3-0.1
		c-1.5-0.2-3.1-0.2-4.6,0.2c-4.3,0.9-6.3,2.3-7,4.9c0,1.3,0.5,1.9,5.4,3.3C27,112.1,28.6,112.6,30.2,113.3z M33.2,103.4L33.2,103.4z
		"/>
</g>
</svg>
