<?xml version="1.0" encoding="utf-8"?>
<!-- Generator: Adobe Illustrator 25.2.1, SVG Export Plug-In . SVG Version: 6.00 Build 0)  -->
<svg version="1.1" id="Layer_1" xmlns="http://www.w3.org/2000/svg" xmlns:xlink="http://www.w3.org/1999/xlink" x="0px" y="0px"
	 width="155.7px" height="146.4px" viewBox="0 0 155.7 146.4" style="enable-background:new 0 0 155.7 146.4;" xml:space="preserve"
	>
<style type="text/css">
	.st0{fill:#F7942D;}
	.st1{fill:#0F2D52;}
	.st2{fill:#AAD268;}
	.st3{fill:#6CCAD0;}
	.st4{fill:#007EC4;}
</style>
<path class="st0" d="M90.3,63.8l61.4-7.1c-3.4-25.7-22-46-45.7-52.7L90.3,63.8z"/>
<path class="st1" d="M90.3,67.8c-1.2,0-2.3-0.5-3-1.4c-0.9-1-1.2-2.4-0.8-3.6L102.1,3c0.3-1,1-1.9,1.9-2.5c0.9-0.5,2-0.7,3.1-0.4
	c26,7.3,45,29.3,48.6,56c0.1,1.1-0.2,2.1-0.8,3s-1.6,1.4-2.7,1.5l-61.4,7.1C90.6,67.8,90.5,67.8,90.3,67.8z M108.8,9.1L95.7,59.2
	l51.4-5.9C142.9,32.8,128.4,16.1,108.8,9.1z"/>
<path class="st2" d="M45.4,138.3c9.2,3.4,19.2,4.8,29.6,3.6c34.5-4,59.4-34.9,56.1-69.3l-63.2,7.3L4.7,87.2
	C7.9,111.2,24.2,130.3,45.4,138.3z"/>
<path class="st3" d="M82.7,19.2c-7.1-1.7-14.6-2.2-22.2-1.3c-14,1.6-26.4,7.3-36.1,15.9L67,79.4L82.7,19.2z"/>
<path class="st4" d="M4.3,85.1l62.5-5.2l0.1-0.5L24.5,33.7C10.4,46.2,2.3,64.7,4.3,85.1z"/>
<path class="st1" d="M135.1,72.2c-0.1-1.1-0.6-2.1-1.5-2.7c-0.8-0.7-1.9-1-3-0.9l-58.5,6.8l14.4-55.2c0.3-1,0.1-2.1-0.4-3.1
	c-0.6-0.9-1.5-1.6-2.5-1.8C75.9,13.5,67.9,13,60,13.9C45.7,15.6,32.5,21.3,22,30.6c0,0-0.1,0-0.1,0.1C6.1,44.6-1.7,64.6,0.3,85.5
	c0,0.5,0.2,1,0.4,1.4c0,0.3,0,0.6,0,0.9C4,112.4,20.6,133.2,44,142c0,0,0,0,0,0c7.7,2.8,15.6,4.3,23.6,4.3c2.6,0,5.2-0.2,7.8-0.5
	c17.7-2.1,33.7-10.8,44.9-24.7C131.5,107.3,136.8,89.9,135.1,72.2z M61,21.9c5.6-0.7,11.2-0.5,16.8,0.4L65,71.4l-9.6-10.3l-25-27
	C39.1,27.4,49.6,23.2,61,21.9z M24.2,39.5l25.3,27.1l9.3,10L8,80.8C7.6,65.3,13.3,50.6,24.2,39.5z M74.5,137.9
	c-9.4,1.1-18.7,0-27.7-3.4c-19.3-7.3-33.4-23.9-37.5-43.9l118-13.6C128.2,107.5,105.2,134.4,74.5,137.9z"/>
</svg>
