<?xml version="1.0" encoding="utf-8"?>
<!-- Generator: Adobe Illustrator 25.2.1, SVG Export Plug-In . SVG Version: 6.00 Build 0)  -->
<svg version="1.1" id="Capa_1" xmlns="http://www.w3.org/2000/svg" xmlns:xlink="http://www.w3.org/1999/xlink" x="0px" y="0px"
	 width="32.7px" height="26.5px" viewBox="0 0 32.7 26.5" style="enable-background:new 0 0 32.7 26.5;" xml:space="preserve">
<style type="text/css">
	.st0{fill:#72BDE9;}
	.st1{fill:#6CCAD0;}
	.st2{fill:#E2F3F9;}
	.st3{fill:#132E52;}
</style>
<g transform="translate(-1.366 -4.426)">
	<rect x="2" y="18.3" class="st0" width="31" height="12.1"/>
	<path class="st1" d="M17.7,4.6L1.8,13.9c-0.1,0.1-0.2,0.2-0.1,0.3c0,0.1,0.1,0.1,0.2,0.1h31.7c0.1,0,0.2-0.1,0.2-0.2
		c0-0.1,0-0.2-0.1-0.2L17.7,4.6z"/>
	<rect x="30.9" y="18.3" class="st2" width="2.3" height="12.2"/>
	<rect x="23.4" y="18.3" class="st2" width="2.3" height="12.2"/>
	<rect x="9.4" y="18.3" class="st2" width="2.3" height="12.2"/>
	<rect x="2" y="18.3" class="st2" width="2.3" height="12.2"/>
	<rect x="2.1" y="14.3" class="st2" width="31.3" height="4.1"/>
	<rect x="14.7" y="23.1" class="st1" width="5.5" height="7.4"/>
	<g>
		<path class="st3" d="M1.8,29.2C1.8,29.1,1.8,29.1,1.8,29.2L1.8,29.2L1.8,29.2L1.8,29.2z"/>
		<path class="st3" d="M34,13.9c-0.1-0.2-0.3-0.3-0.6-0.4c-0.1-0.1-0.3-0.1-0.4-0.2c-0.1,0-0.1,0-0.2,0c-0.6-0.4-1.3-0.7-1.9-1.2
			l-0.1,0l0,0c-1.3-0.8-2.6-1.6-4-2.3c-0.1-0.1-0.1-0.1-0.2-0.2c-1.6-0.9-3.1-1.8-4.7-2.7l-3.5-2c-0.2-0.1-0.5-0.4-0.6-0.2h0
			C17.9,4.6,18,4.7,18,4.7c0.2,0.2,0.5,0.3,0.7,0.5l0.4,0.2c0.3,0.2,0.7,0.4,0.9,0.6h0c0.1,0,0.2,0.1,0.2,0.1l0.3,0.2
			c0.8,0.5,1.6,1,2.5,1.4C23.4,8,23.7,8.1,24,8.3c0.1,0,0.3,0.1,0.4,0.2c0.6,0.3,1.3,0.7,1.9,1.1c0.3,0.2,0.5,0.4,0.8,0.5
			c0,0,0,0,0,0l0,0c0.7,0.5,1.5,0.8,2.2,1.4l0.4,0.3c0.4,0.3,1,0.5,1.4,0.9c0.1,0,0.1,0,0.2,0.1c0.3,0.1,0.6,0.3,0.9,0.5
			c0.1,0.1,0.3,0.2,0.4,0.2c0.1,0.1,0.2,0.1,0.2,0.2c0.1,0,0.2,0.1,0.3,0.1c0,0,0.1,0,0.1,0.1c0,0.1,0,0.1-0.1,0.1
			c-0.1,0-0.2,0-0.2,0h-0.1c-0.1,0-0.2,0-0.3,0c0,0-0.1,0-0.1,0c-0.1,0-0.2,0-0.2,0c-0.3,0-0.5,0-0.8,0c-1.2-0.1-2.4,0-3.6,0
			c-0.1,0-0.2,0-0.3,0c-0.2,0-0.3,0-0.5,0c0,0,0,0-0.1,0h-0.6l-0.1,0c-0.1,0-0.3,0-0.4,0c0,0-0.1,0-0.1,0h-0.1l-0.1-0.1h-1.3
			c-0.1,0-0.1,0-0.1,0l-0.2,0c0,0-0.1,0-0.1,0c-0.3,0-0.5,0-0.8,0c-0.1,0-0.1,0-0.2,0c-0.3,0-0.6,0-0.8,0c-0.2,0-0.3,0-0.5,0
			c0,0-0.1,0-0.1,0c-0.1,0-0.2,0-0.3,0c-0.1,0-0.1,0-0.2,0c-0.1,0-0.1,0-0.2,0.1c0,0-0.1,0-0.1,0c-0.1,0-0.1,0-0.2-0.1h-2.6
			c-0.1,0-0.2,0-0.3-0.1c-0.1,0-0.3,0-0.4,0c-0.1,0-0.2,0-0.3,0c0,0-0.1,0-0.2,0c-0.2,0-0.3,0-0.5,0c-0.1,0-0.2,0-0.3,0
			c-0.5-0.1-0.9-0.1-1.4,0c-0.3,0-0.5,0-0.8,0l-0.2,0c0,0,0,0-0.1,0c0,0-0.1,0-0.1,0c-0.7-0.1-1.4,0-2.1-0.1h-0.1
			c-0.1,0-0.1,0-0.2,0.1c0,0,0-0.1-0.1-0.1c-0.3,0-0.6,0-1,0c-0.7,0-1.3,0-2,0l-0.1,0H7.6c-0.1,0-0.1,0-0.2,0c-0.8,0-1.5,0-2.3,0
			l-1.1,0c-0.3,0-0.5,0-0.8,0H3c0,0-0.1,0-0.1,0c0,0-0.1,0-0.1,0h0c0,0,0,0,0-0.1c0,0,0,0,0.1-0.1c0,0,0,0,0-0.1c0,0,0-0.1,0-0.1
			c0.1,0,0.2-0.1,0.2-0.1c0.1,0,0.1,0,0.1-0.1h0.1c0.2-0.1,0.3-0.2,0.5-0.3c0,0,0.1-0.1,0.1-0.1c1.1-0.6,2.2-1.2,3.2-1.9
			c0,0,0.1-0.1,0.1-0.1c0.2-0.2,0.5-0.3,0.7-0.5h0.1c0.1-0.1,0.3-0.2,0.4-0.3l0,0c0.2-0.1,0.4-0.2,0.6-0.3c0.1-0.1,0.3-0.2,0.4-0.3
			l0.6-0.3l0.1-0.1c0,0,0,0,0,0c0,0,0,0,0.1,0l0.2-0.1l0-0.1l0.1-0.1c0.3-0.1,0.5-0.3,0.8-0.5c0,0,0-0.1,0.1-0.1
			c0.1-0.1,0.2-0.1,0.3-0.2c0-0.1,0.1-0.1,0.2-0.1c0.5-0.4,1-0.6,1.5-0.9l0.2-0.1c0.1,0,0.1,0,0.1-0.1l1.1-0.7
			c0.1,0,0.1-0.1,0.1-0.1c0.1,0,0.1-0.1,0.2-0.1L15.4,6L15.6,6c0.1,0,0.1-0.1,0.2-0.1c0.1,0,0.3-0.1,0.4-0.2
			c0.3-0.2,0.6-0.4,0.9-0.5c0.1,0,0.1-0.1,0.1-0.1c0.1-0.1,0.3-0.2,0.4-0.3c0.1-0.1,0.2-0.2,0.2-0.3h0v0c-0.1-0.1-0.2,0.1-0.3,0.1
			c-0.2,0.1-0.3,0.1-0.4,0.2h-0.1c-0.3,0.1-0.6,0.3-0.9,0.5l-0.2,0.1c-0.1,0.1-0.3,0.2-0.4,0.3l-0.2,0.1L15,5.8
			c-0.1,0-0.2,0-0.2,0.1c-0.1,0-0.1,0.1-0.2,0.1l-0.2,0.1l-0.1,0c-0.1,0-0.1,0.1-0.2,0.1c0,0-0.1,0-0.1,0l-0.2,0.1
			c-0.1,0.1-0.2,0.1-0.3,0.1c-0.1,0-0.1,0-0.1,0.1l-0.1,0.1c-0.1,0-0.1,0-0.1,0.1c-0.1,0.1-0.1,0.1-0.2,0.1l-0.1,0l-0.1,0
			c-0.2,0.1-0.4,0.2-0.6,0.3l0,0l-0.1,0c-0.2,0.2-0.4,0.3-0.7,0.4l0,0h0c-0.1,0-0.1,0-0.1,0.1l0,0l-0.1,0C11.1,8,11.1,8,11,8.1
			c-0.2,0.1-0.4,0.2-0.6,0.3c0,0,0,0.1,0,0.1h0C9.6,8.8,9,9.2,8.4,9.6l0,0H8.3c0,0,0,0-0.1,0.1L8.2,9.8c-0.3,0.1-0.5,0.3-0.8,0.5
			l0,0l-0.1,0c-0.5,0.4-1,0.7-1.6,0.9v0h0c-0.1,0-0.2,0.1-0.3,0.2l0,0h0c-0.2,0.2-0.5,0.3-0.6,0.5l0,0l0-0.1c-0.5,0.3-1,0.6-1.5,0.9
			c-0.1,0-0.1,0-0.1,0.1L2.9,13c-0.3,0.1-0.5,0.3-0.8,0.4l-0.2,0.1c-0.1,0.1-0.3,0.2-0.4,0.3l0,0l0,0c-0.1,0.1-0.1,0.2,0,0.4
			c0,0.1,0.1,0.1,0.1,0.2c0,0,0.1,0,0.1,0c0,0,0.1,0,0.1,0c0,0.1,0,0.2,0,0.2c0,0.1,0,0.1,0,0.2c0,0,0,0.1,0,0.1c0,0.1,0,0.2,0,0.3
			c0,0.1,0,0.1,0,0.2c-0.1,0.2-0.1,0.3,0,0.5c0,0.1,0,0.2,0,0.3c-0.1,0.5-0.1,0.9,0,1.4l0,0.2v0.2h0c0,0.1,0,0.1,0,0.2
			c0,0.1,0,0.2,0,0.3c0,0.1,0,0.1,0,0.2c0,0,0,0,0,0.1c0,0.1,0,0.1,0,0.2c0,0,0,0.1,0,0.1c0,0.2,0,0.4,0,0.6c0,0.1,0,0.2,0,0.3
			l0,0.1c0,0,0,0,0,0c0,0,0,0,0,0c-0.1,0.3,0,0.6,0,0.9v0c0,0,0,0.1,0,0.1c0,0,0,0,0,0c0,0.1,0,0.3,0,0.4c0,0.3,0,0.6,0,0.8l0,0v0.1
			c0,0,0,0.1,0,0.1c0,0.3,0,0.6,0,0.9v0.5c0,0.2,0,0.5,0,0.7c0,0,0,0.1,0,0.1v0.1c0,0,0,0.1,0,0.1c0,0.1,0,0.3,0,0.4
			c0,0.1,0,0.2,0,0.2c0,0,0,0.1,0,0.1l0,0c0,0.1,0,0.2,0,0.2c0,0,0,0,0,0.1c0,0.5,0,1,0,1.5c0,0,0,0,0,0.1c0,0.1,0,0.3,0,0.4l0,0
			c0,0.1,0,0.1,0,0.2c0,0.1,0,0.2,0,0.3c0,0.1,0,0.1,0,0.2v0.3l0,0l0,0v0.1c0,0.1,0,0.2,0,0.4c0,0,0,0,0,0c0,0,0,0.1,0,0.1
			c0,0,0,0.1,0,0.1c0,0.1,0,0.2,0,0.3c0,0.1,0,0.3,0,0.4c0,0,0,0,0,0c0,0,0,0,0,0.1v0c0,0.1,0.1,0.1,0.1,0.1c0.1,0,0.1,0.1,0.2,0.1
			c0,0,0,0,0,0c0.1,0.1,0.3,0.1,0.5,0h0.1c0.1,0,0.1,0,0.2,0h0.1l0.1,0c0,0,0.1,0,0.1,0c0,0,0.1,0,0.1,0h0.1c0,0,0.1,0,0.1,0
			c0,0,0.1,0,0.1,0l0.1,0c0,0,0.1,0,0.1,0c0,0,0,0,0,0c0,0,0.1,0,0.1,0H4c0,0,0,0,0,0c0,0,0,0,0.1,0c0,0,0.1,0,0.1,0h0.1
			c0.1,0.1,0.2,0,0.3,0h0.1c0.1,0,0.2,0,0.4,0h0c0,0,0.1,0,0.1,0h0.1c0,0,0.1,0,0.1-0.1c0.1,0,0.2,0,0.3,0c0,0,0,0,0-0.1
			c0.3,0.1,0.7,0.1,1,0l0,0h0c0,0,0,0,0,0h0c0.1,0,0.3,0,0.4,0h0c0.3,0,0.6,0,0.8,0h0c0.1,0,0.1,0,0.2,0h0c0.1-0.1,0.2,0,0.3-0.1
			l0,0c0.3,0,0.5,0,0.8,0c0,0,0,0,0,0c0,0,0,0,0.1,0h0.1c0.1,0.1,0.2,0.1,0.3,0h0.1c0.1,0,0.1,0,0.2,0.1h0l0-0.1
			c0.1,0,0.2,0.1,0.3,0c0,0,0.1,0,0.1,0c0.2,0.1,0.4,0.1,0.5,0c0.3,0.1,0.7,0.1,1,0c0.1-0.1,0.2,0,0.2-0.1h0.1c0.2,0,0.4,0,0.7,0
			c0,0,0.1,0,0.1,0h0.5c0,0,0,0,0,0h0.2c0,0,0,0,0,0h0.4c0,0.1,0,0.1,0,0.2h1.1l0.2,0c0,0,0,0,0,0c0.1-0.1,0.2,0,0.3-0.1l0,0
			c0.1,0,0.1,0,0.2,0c0.1,0.1,0.2,0,0.2,0c0.1,0,0.1,0,0.2,0h0.3l0,0c0,0,0,0,0,0H17l0,0l0.1,0c0.1,0,0.2,0,0.3,0h0c0,0,0.1,0,0.1,0
			c0,0,0,0,0,0c0,0,0.1,0,0.1,0c0.2-0.1,0.4,0,0.6,0c0.1,0,0.1,0,0.2,0c0.1,0,0.1,0,0.2,0c0,0,0.1,0,0.1-0.1l0,0c0,0,0,0,0,0
			c0.2,0.1,0.3,0.1,0.5,0c0.3,0,0.6-0.1,0.9,0h0.1c0,0,0,0,0,0c0.1,0,0.2,0,0.2-0.1c0,0,0,0,0,0.1h0l0,0c0.1,0.1,0.3,0.1,0.5,0h0.1
			c0.1,0.1,0.2,0.1,0.2,0h0.1c0,0,0.1,0,0.1,0c0.1,0,0.3,0,0.4,0H22c0.2,0.1,0.4,0,0.6,0.1h0c0.2-0.1,0.4,0,0.6-0.1
			c0.4-0.1,0.8-0.1,1.3,0c0.1,0,0.2,0,0.3,0c0.2,0.1,0.4,0.1,0.5,0c0,0,0.1,0,0.1,0c0,0,0,0,0.1-0.1c0,0,0.1,0,0.1,0c0,0,0,0,0.1,0
			c0,0,0,0,0,0c0.3,0,0.5,0,0.8,0h0l0,0c0.7,0.1,1.4,0.1,2.1,0c0,0,0.1,0,0.1,0c0.8,0,1.6,0,2.5,0h1.8c0.1,0,0.3,0.1,0.3-0.1
			c0,0,0,0-0.1-0.1c0,0,0,0,0,0c0.1-0.1,0-0.3,0.1-0.4v-0.2c0-0.1,0-0.3,0-0.5c0,0,0-0.1,0-0.1v-0.1c0-0.4,0-0.8,0-1.2
			c0-0.1,0-0.3,0-0.4c0-0.1,0-0.1,0-0.2c0-0.3,0-0.6,0-0.9c0-0.1,0-0.3,0-0.4h0v0c0.1-0.4,0-0.7,0.1-1.1v-0.2c0-0.2,0-0.5,0-0.7
			c0,0,0-0.1,0-0.1c0-0.3,0-0.6,0-0.8c0-0.1,0-0.3,0-0.4c0-0.1,0-0.1,0-0.2v-0.1c0-0.1-0.1-0.3-0.1-0.4c0-0.1,0-0.2,0-0.3
			c0-0.5,0-1,0-1.5c0,0,0-0.1,0-0.1c0-0.1,0-0.1,0-0.2c0,0,0,0,0,0c0-0.1,0-0.2,0-0.2l0,0c0-0.1,0-0.1,0-0.2c0,0,0-0.1,0-0.1v-0.1
			l0,0v-0.5c0,0,0,0,0,0c0,0,0,0,0-0.1c0,0,0-0.1,0-0.1c0-0.1,0-0.2,0-0.3c0,0,0,0,0,0c0,0,0.1,0,0.1-0.1h0l0,0c0,0,0,0-0.1-0.1
			c0,0,0-0.1,0-0.1c0.1-0.3,0-0.6,0.1-0.9v-0.5c0.1-0.4,0-0.8,0.1-1.1v0c0-0.1,0-0.2,0-0.3v-0.3l0-0.3c0.1,0,0.1,0,0.2,0
			c0.1,0,0.2,0,0.3-0.1c0.1-0.1,0.2-0.2,0.2-0.3C34.1,14.1,34.1,14,34,13.9z M4.1,24.3L4.1,24.3c0,0.7,0,1.3,0,2c0,0,0,0.1,0,0.1
			c0,0.8,0,1.5,0,2.3v1.6h0c0,0-0.1,0-0.1,0l-0.1,0c0,0,0,0-0.1,0c0,0,0,0,0,0c-0.1,0-0.3,0-0.4,0H3l0,0c0,0-0.1,0-0.1,0H2.6
			c0,0-0.1,0-0.1,0c0,0,0,0,0,0l-0.1,0c0,0-0.1,0-0.1,0c0,0,0,0-0.1,0l0,0h0c0,0,0-0.1,0-0.1c0-0.1,0-0.1,0-0.2v0c0,0,0,0,0,0
			c0,0,0-0.1,0-0.1v-0.1c0,0,0-0.1,0-0.1c0-0.1,0-0.2,0-0.3c0,0,0,0,0,0c0.1-0.3,0.1-0.6,0-0.9v0c0,0,0,0,0,0v0c0-0.1,0-0.3,0-0.4v0
			c0-0.3,0-0.5,0-0.8v0c0-0.1,0-0.1,0-0.2c-0.1-0.1,0-0.2-0.1-0.3l0,0c0-0.2,0-0.5,0-0.7c0,0,0,0,0,0c0,0,0,0,0-0.1v-0.1
			c0-0.1,0-0.2,0-0.3v-0.1c0-0.1,0-0.1,0-0.2v-0.1c0-0.1,0.1-0.2,0-0.3c0,0,0-0.1,0-0.1c0.1-0.2,0.1-0.3,0-0.5c0-0.3,0-0.6,0-0.9
			c0-0.1,0-0.2,0-0.2V23c0-0.2,0-0.4,0-0.6c0,0,0-0.1,0-0.1v-0.4h0v-0.2l0,0v-0.3c0,0,0,0,0,0c0-0.1,0-0.1,0-0.2c0-0.1,0-0.2,0-0.3
			v-0.1c0,0,0-0.1,0-0.1v0c0,0,0,0,0,0c0-0.1,0-0.1,0-0.2v0c0-0.1,0-0.1,0-0.2c0,0,0-0.1,0-0.1c0,0,0,0,0-0.1c0-0.1,0-0.1,0-0.2
			c0,0,0,0,0-0.1c0,0,0,0,0-0.1c0,0,0-0.1,0-0.1c0,0,0-0.1,0-0.1c0-0.1,0-0.1,0-0.2c0,0,0-0.1,0-0.1c0,0,0,0,0,0v-0.1c0,0,0,0,0,0
			c0,0,0,0,0-0.1c0,0,0,0,0-0.1v0c0,0,0-0.1,0-0.1v0h0v0l0,0c0,0,0,0,0.1,0c0.1,0,0.1,0,0.2,0l0.4,0h0.8c0.2,0,0.3,0,0.5,0
			c0,0.1,0,0.3,0,0.4v0.1c0,0.1,0,0.1,0,0.2v0c0,0,0,0.1,0,0.1c0,0.1,0,0.2,0,0.3v0.1c-0.1,0.2,0,0.4,0,0.5v0c0.1,0.2,0,0.4,0.1,0.5
			c0,0.4,0,0.8,0,1.2c0,0.1,0,0.2,0,0.3c0,0.2,0,0.3,0,0.5c0,0,0,0.1,0,0.1c0,0,0,0,0.1,0.1C4.1,23.7,4.1,24,4.1,24.3z M9.1,30
			C9.1,30,9.1,30,9.1,30c-0.6,0-1.2,0-1.7,0c0,0,0,0,0,0c0,0,0,0,0,0c-0.1,0.1-0.3,0-0.4,0.1c0,0,0,0,0,0c-0.1,0-0.1,0-0.2,0
			c-0.1,0-0.2-0.1-0.3,0c-0.1,0-0.1,0-0.2,0H5.9l-0.1,0.1c0,0,0,0,0,0H5.7c0,0,0,0,0,0.1c0,0,0,0-0.1,0c-0.1,0-0.3,0-0.4,0h0
			c0,0-0.1,0-0.1,0c0,0-0.1,0-0.1,0c-0.2,0.1-0.4,0-0.6,0c0-0.1,0-0.1,0-0.2v-0.2c0-0.1,0-0.3,0-0.5c0,0,0-0.1,0-0.1v-0.1
			c0-0.4,0-0.8,0-1.2c0-0.1,0-0.3,0-0.4c0-0.1,0-0.1,0-0.2c0-0.3,0-0.6,0-0.9c0-0.1,0-0.3,0-0.4h0v0c0.1-0.4,0-0.7,0.1-1.1v-0.2
			c0-0.2,0-0.5,0-0.7c0,0,0-0.1,0-0.1c0-0.3,0-0.6,0-0.8c0-0.1,0-0.3,0-0.4c0-0.1,0-0.1,0-0.2v-0.1c0-0.1,0-0.3,0-0.4
			c0-0.1,0-0.2,0-0.3c0-0.5,0-1,0-1.5c0,0,0-0.1,0-0.1c0-0.1,0-0.1,0-0.2c0,0,0,0,0,0c0-0.1,0-0.2,0-0.2l0,0c0-0.1,0-0.1,0-0.2
			c0,0,0-0.1,0-0.1v-0.1l0,0v-0.3c0.1,0,0.1,0,0.2,0h0.1c0.1,0,0.1,0,0.2-0.1c0,0,0,0.1,0.1,0.1c0.3,0,0.6,0,1,0c0.7,0.1,1.3,0,2,0
			l0.1,0h0.3c0.1,0,0.1,0,0.2,0c0.2,0,0.4,0,0.6,0c0,0,0,0,0,0c0,0,0,0.1,0,0.1c0,0.2,0,0.4,0,0.6c0,0.1,0,0.2,0,0.3l0,0.1
			c0,0,0,0,0,0c0,0,0,0,0,0c-0.1,0.3,0,0.6,0,0.9v0c0,0,0,0.1,0,0.1c0,0,0,0,0,0c0,0.1,0,0.3,0,0.4c0,0.3,0,0.6,0,0.8l0,0v0.1
			c0,0,0,0.1,0,0.1c0,0.3,0,0.5,0,0.8v0.5c0,0.2,0,0.5,0,0.7c0,0,0,0.1,0,0.1v0.1c0,0,0,0.1,0,0.1c0,0.1,0,0.3,0,0.4
			c0,0.1,0,0.2,0,0.2c0,0,0,0.1,0,0.1l0,0c0,0.1,0,0.2,0,0.2c0,0,0,0,0,0.1c0,0.5,0,1,0,1.5c0,0,0,0,0,0.1c0.1,0.1,0,0.3,0.1,0.4
			l0,0c0,0.1,0,0.1,0,0.2c0,0.1,0,0.2,0,0.3c0,0.1,0,0.1,0,0.2v0.3l0,0.1c0,0,0,0,0,0v0.1l0,0v0.1c0,0.1,0,0.2,0,0.4v0
			c0,0,0,0.1,0,0.1c0,0,0,0.1,0,0.1c0,0.1,0,0.1,0,0.2C9.2,30,9.2,30,9.1,30z M11.6,26.2c0,0,0,0.1,0,0.1c0,0.8,0,1.5,0,2.3v1.3
			l-0.2,0c-0.2,0-0.5,0-0.7,0c-0.1,0-0.1,0-0.2,0h-0.1c0,0-0.1,0-0.1,0c-0.2,0-0.3,0-0.5,0c0,0,0-0.1,0-0.1v0c0,0,0-0.1,0-0.1v-0.1
			c0,0,0-0.1,0-0.1c0-0.1,0-0.2,0-0.3c0,0,0,0,0,0c0.1-0.3,0.1-0.6,0-0.9v0c0,0,0,0,0,0v0c0-0.1,0-0.3,0-0.4v0c0-0.3,0-0.5,0-0.8v0
			c0-0.1,0-0.1,0-0.2c-0.1-0.1,0-0.2-0.1-0.3l0,0c0-0.2,0-0.5,0-0.7c0,0,0,0,0,0c0,0,0,0,0-0.1v-0.1c0-0.1,0-0.2,0-0.3v-0.1
			c0,0,0-0.1,0-0.2v-0.1c0-0.1,0.1-0.2,0-0.3c0,0,0-0.1,0-0.1c0.1-0.2,0.1-0.3,0-0.5c0-0.3,0-0.6,0-0.9c0-0.1,0-0.2,0-0.2V23
			c0-0.2,0-0.4,0-0.6c0,0,0,0,0-0.1v-0.4h0v-0.2l0,0v-0.3c0,0,0,0,0,0c0-0.1,0-0.1,0-0.2c0-0.1,0-0.2,0-0.3v-0.1c0,0,0-0.1,0-0.1v0
			c0,0,0,0,0,0c0-0.1,0-0.1,0-0.2v0c0-0.1,0-0.1,0-0.2c0,0,0-0.1,0-0.1c0,0,0,0,0-0.1c0-0.1,0-0.1,0-0.2c0,0,0,0,0-0.1
			c0,0,0,0,0-0.1c0,0,0-0.1,0-0.1c0,0,0-0.1,0-0.1c0-0.1,0-0.1,0-0.2c0,0,0-0.1,0-0.1c0,0,0,0,0,0v-0.1c0,0,0,0,0-0.1c0,0,0,0,0-0.1
			c0,0,0,0,0,0c0,0,0,0,0,0c0.4,0,0.8,0,1.2,0l0.7,0v0c0,0.1,0,0.3,0,0.4v0.1c0,0.1,0,0.1,0,0.2v0.1c0,0,0,0.1,0,0.1
			c0,0.1,0,0.2,0,0.3v0.1c-0.1,0.2,0,0.4,0,0.5v0c0.1,0.2,0,0.4,0.1,0.5c0,0.4,0,0.8,0,1.2c0,0.1,0,0.2,0,0.3c0,0.2,0,0.3,0,0.5
			c0,0,0,0.1,0,0.1c0,0,0,0,0,0.1c0,0.3,0,0.6,0,0.9v0.1C11.5,25,11.5,25.6,11.6,26.2z M19.9,26.6c0,0,0,0.1,0,0.1c0,0.7,0,1.3,0,2
			V30c0,0-0.1,0-0.1,0c0,0,0,0,0,0c-0.1-0.1-0.3-0.1-0.4,0h-0.1c-0.1,0-0.1,0-0.2,0h-0.1l0,0c0,0,0,0,0,0c0,0-0.1,0-0.1-0.1h-0.2
			c0,0-0.1,0-0.1,0c0,0,0,0,0,0l-0.1,0c0,0-0.1,0-0.1,0c0,0,0,0,0,0c0,0,0,0,0,0h-0.1c0,0-0.1,0-0.1,0c0,0-0.1,0-0.1,0h0
			c-0.1-0.1-0.2,0-0.2,0l0,0h0c-0.1,0-0.2,0-0.3,0h0c0,0,0,0-0.1,0l0,0h0c0,0,0,0,0,0c0,0-0.1,0-0.1,0c0,0,0,0-0.1,0c0,0,0,0,0,0
			c0,0,0,0-0.1,0c0,0-0.1,0-0.1,0c-0.1-0.1-0.2-0.1-0.2,0c0,0-0.1,0-0.2,0c-0.2-0.1-0.4-0.1-0.6,0c-0.1,0-0.2,0-0.4,0l-0.1,0
			c0,0,0,0,0,0c0,0,0,0-0.1,0c-0.2-0.1-0.4,0-0.6,0c0,0,0,0,0,0l0-0.2c0,0,0,0,0-0.1v-0.1c0.1-0.1,0.1-0.2,0-0.3v-0.1
			c0,0,0-0.1,0.1-0.1v0l0,0c0-0.1,0.1-0.2,0-0.2c0,0,0-0.1,0-0.1c0.1-0.1,0.1-0.3,0-0.4c0.1-0.3,0.1-0.6,0-0.8
			c-0.1-0.1,0-0.1-0.1-0.2v-0.1c0-0.2,0-0.4,0-0.5c0,0,0,0,0-0.1c0-0.1,0-0.3,0-0.4h0V26h0v-0.4c0,0,0,0,0,0c0-0.1,0-0.1,0-0.2
			c0.1-0.1,0.1-0.2,0-0.2v-0.1c0,0,0-0.1,0-0.1h0v0c0,0,0,0,0,0c0-0.1,0-0.1,0-0.2c0,0,0,0,0,0c0,0,0-0.1,0-0.2c0,0,0-0.1,0-0.1
			c0,0,0,0,0-0.1c0,0,0-0.1,0-0.2c0,0,0,0,0-0.1c0,0,0,0,0-0.1c-0.1,0,0-0.1,0-0.1c0,0,0-0.1,0-0.1c0,0,0-0.1,0-0.1c0,0,0-0.1,0-0.1
			h0c0,0,0,0,0,0v0l0,0c0,0,0,0,0-0.1c0,0,0,0-0.1-0.1l0,0c0,0,0,0,0-0.1h0v0c0,0,0,0,0-0.1c0,0,0,0,0,0h0c0.1,0,0.1,0,0-0.1v0
			l0-0.1H15c0.1,0,0.1,0,0.2,0c0.1,0,0.1,0,0.2,0c0,0,0.1,0,0.1,0c0,0,0.1,0,0.1-0.1c0,0,0,0,0,0.1c0.1,0.1,0.3,0.1,0.4,0
			c0.2,0,0.5,0,0.8,0c0,0,0,0,0.1,0c0,0,0,0,0,0c0.1,0,0.1,0,0.2-0.1c0,0,0,0,0,0h0l0,0c0.1,0.1,0.3,0.1,0.4,0h0.1c0,0,0,0,0,0
			c0.1,0,0.1,0,0.2,0l0,0h0c0,0,0.1,0,0.1,0c0.1,0,0.2,0,0.3,0l0.1,0c0.1,0.1,0.3,0,0.5,0.1c0.1-0.1,0.3,0,0.5-0.1
			c0.1,0,0.1,0,0.2,0h0.2c0.1,0,0.2,0,0.2,0v0.1c0,0,0,0.1,0,0.1c0,0,0,0.1,0,0.1c0,0.1,0,0.1,0,0.2c0,0,0,0.1,0,0.1c0,0,0,0,0.1,0
			c0,0.3,0,0.5-0.1,0.8v0l0,0C19.9,25.4,19.9,26,19.9,26.6z M22,30c-0.1,0-0.1,0-0.2,0c-0.1,0-0.1,0-0.2,0c0,0,0,0,0,0
			c-0.1,0-0.2,0-0.3,0l0,0c-0.1,0-0.1,0-0.2,0c0,0-0.1,0-0.1,0h-0.1c0,0,0,0,0-0.1h-0.6c0,0,0,0,0,0l-0.1,0c0,0,0,0,0,0c0,0,0,0,0,0
			c0,0-0.1,0-0.1,0c0,0,0,0,0-0.1v-0.2c0.1-0.1,0-0.3,0.1-0.4c0,0,0-0.1,0-0.1v-0.1c0-0.4,0-0.7,0-1.1c0-0.1,0-0.3,0.1-0.4
			c0-0.1,0-0.1,0-0.2c0-0.3,0-0.5,0-0.8c0-0.1,0-0.2,0-0.3h-0.1c0.1-0.3,0-0.6,0.1-0.9v-0.2c0.1-0.2,0-0.4,0.1-0.6c0,0,0,0,0,0
			c0,0,0-0.1,0-0.1c-0.1-0.2-0.1-0.5,0-0.7c0-0.1,0-0.1,0-0.2c0,0,0-0.1,0-0.1c0,0,0-0.1,0-0.1c0-0.1,0-0.2,0-0.2v-0.1
			c0-0.1,0-0.2,0-0.3c-0.1,0-0.1,0-0.2,0c-0.1,0-0.3,0-0.4,0l-0.2,0h-1.2c0,0-0.1,0-0.1,0c-0.1,0-0.1,0-0.2,0c0,0,0,0,0,0
			c-0.1,0-0.1,0-0.2,0l0,0c0,0-0.1,0-0.1,0c0,0,0,0,0,0h-0.1l0-0.1H17c0,0,0,0,0,0l-0.1,0c0,0,0,0,0,0c-0.1,0-0.2,0-0.3,0
			c0,0,0,0,0,0c0,0,0,0-0.1,0c-0.1,0-0.2,0-0.3,0c-0.1,0-0.1,0-0.2,0c0,0,0,0,0,0c0,0,0,0,0,0c0,0-0.1,0-0.1,0c0,0,0,0-0.1,0
			c0,0-0.1,0-0.1,0.1c0,0,0,0,0,0c0,0-0.1-0.1-0.1-0.1h-1.3l-0.1,0c0,0,0,0.1,0,0.1c0,0.1,0,0.2,0,0.3c0,0.1,0,0.1,0,0.2
			c0,0,0,0.1,0,0.1c0,0.1,0,0.1,0,0.2c0,0,0,0.1,0,0.1c0,0,0,0,0,0.1c0,0,0,0.1,0,0.1c-0.1,0.2-0.1,0.3,0,0.5c0,0.1,0,0.2,0,0.3
			l0,0.1c0,0,0,0,0,0c0,0,0,0,0,0c-0.1,0.3,0,0.5-0.1,0.8c0,0,0,0.1,0.1,0.1c0,0,0,0,0,0c0,0,0,0,0,0c0,0.1,0,0.2,0,0.3
			c0,0.2,0,0.5,0,0.7l0,0l0,0.1c0,0,0,0,0,0.1c0,0.3,0,0.6,0,0.8l0,0.4c0,0.2,0,0.4,0,0.6c0,0,0,0.1,0,0.1c0,0,0,0,0,0
			c0,0,0,0.1,0,0.1c0,0.1,0,0.3,0,0.4c0,0.1,0,0.1,0,0.2c0,0,0,0,0,0h0c0,0.1,0,0.1,0,0.2c0,0,0,0,0,0c-0.1,0-0.2,0-0.3,0
			c-0.3,0-0.6,0-0.9,0l0,0h-0.1c0,0-0.1,0-0.1,0c-0.3,0-0.7,0-1,0l-0.1,0v-0.1c0-0.1,0-0.3,0-0.5c0,0,0-0.1,0-0.1v-0.1
			c0-0.4,0-0.8,0-1.2c0-0.1,0-0.3,0-0.4c0-0.1,0-0.1,0-0.2c0-0.3,0-0.6,0-0.9c0-0.1,0-0.3,0-0.4h0v0c0.1-0.4,0-0.7,0.1-1.1v-0.2
			c0-0.2,0-0.5,0-0.7c0,0,0-0.1,0-0.1c0-0.3,0-0.6,0-0.8c0-0.1,0-0.3,0-0.4c0-0.1,0-0.1,0-0.2v-0.1c0-0.1,0-0.3,0-0.4
			c0-0.1,0-0.2,0-0.3c0-0.5,0-1,0-1.5c0,0,0-0.1,0-0.1c0-0.1,0-0.1,0-0.2c0,0,0,0,0,0c0-0.1,0-0.2,0-0.2l0,0c0-0.1,0-0.1,0-0.2
			c0,0,0-0.1,0-0.1v0l0,0v-0.4l0.1,0c0.5-0.1,1.1,0,1.7,0c0.1,0,0.2,0,0.4,0h0.1c0.1,0,0.2,0,0.3,0c0.4,0,0.7,0,1.1,0
			c0.2,0,0.4,0,0.5,0c0,0,0.1,0,0.1,0l0,0c0.2,0,0.4,0,0.6,0c0,0,0.1,0,0.1,0c1.3,0.1,2.5,0.1,3.8,0c0,0,0.1,0,0.1,0
			c0.3-0.1,0.6,0,0.9-0.1l0.1,0c0.2,0,0.3,0,0.5,0h0c0.2,0,0.4,0,0.7,0c0,0,0.1,0,0.1,0c0,0.1,0,0.1,0,0.2c0,0,0,0.1,0,0.1
			c0,0.2,0,0.4,0,0.6c0,0.1,0,0.2,0,0.3l0,0.1c0,0,0,0,0,0c0,0,0,0,0,0c-0.1,0.3,0,0.6,0,0.9v0c0,0,0,0.1,0,0.1c0,0,0,0,0,0
			c0,0.1,0,0.3,0,0.4c0,0.3,0,0.6,0,0.8l0,0v0.1c0,0,0,0.1,0,0.1c0,0.3,0,0.6,0,0.9v0.5c0,0.2,0,0.5,0,0.7c0,0,0,0.1,0,0.1v0.1
			c0,0,0,0.1,0,0.1c0,0.1,0,0.3,0,0.4c0,0.1,0,0.2,0,0.2c0,0,0,0.1,0,0.1l0,0c0,0.1,0,0.2,0,0.2c0,0,0,0,0,0.1c0,0.5,0,1,0,1.5
			c0,0,0,0,0,0.1c0,0.1,0,0.3,0,0.4l0-0.1c0,0.1,0,0.1,0,0.2c0,0.1,0,0.2,0,0.3c0,0.1,0,0.1,0,0.2v0.3l0,0.1c0,0,0,0,0,0v0.1l0,0
			v0.1c0,0.1,0,0.2,0,0.4v0c0,0,0,0.1,0,0.1c0,0,0,0.1,0,0.1c0,0.1,0,0.1,0,0.2C22.9,30,22.5,30,22,30z M25.5,24.3L25.5,24.3
			c0,0.7,0,1.3,0,2c0,0,0,0.1,0,0.1c0,0.8,0,1.5,0,2.3v1.5c-0.1,0-0.2,0-0.3,0c-0.1,0-0.3,0-0.4,0c-0.1,0-0.1,0-0.2,0l-0.1,0
			c-0.2,0-0.3,0-0.5,0c-0.1,0-0.2,0-0.3,0c0,0,0-0.1,0-0.1v0c0,0,0-0.1,0-0.1v-0.1c0,0,0-0.1,0-0.1c0-0.1,0-0.2,0-0.3c0,0,0,0,0,0
			c0.1-0.3,0.1-0.6,0-0.9v0c0,0,0,0,0,0v0c0-0.1,0-0.3,0-0.4v0c0-0.3,0-0.5,0-0.8v0c0-0.1,0-0.1,0-0.2c-0.1-0.1,0-0.2-0.1-0.3
			c0-0.2,0-0.5,0-0.7c0,0,0,0,0,0c0,0,0,0,0-0.1v-0.1c0-0.1,0-0.2,0-0.3v-0.1c0,0,0-0.1,0-0.2v-0.1c0-0.1,0.1-0.2,0-0.3
			c0,0,0-0.1,0-0.1c0.1-0.2,0.1-0.3,0-0.5c0-0.3,0-0.6,0-0.9c0-0.1,0-0.2,0-0.2V23c0-0.2,0-0.4,0-0.6c0,0,0-0.1,0-0.1v-0.4v-0.2l0,0
			v-0.3c0,0,0,0,0,0c0-0.1,0-0.1,0-0.2c0-0.1,0-0.2,0-0.3v-0.1c0,0,0-0.1,0-0.1v0c0,0,0,0,0,0c0-0.1,0-0.1,0-0.2v0
			c0-0.1,0-0.1,0-0.2c0,0,0-0.1,0-0.1c0,0,0,0,0,0c0,0,0,0,0-0.1c0-0.1,0-0.1,0-0.2c0,0,0,0,0-0.1c0,0,0,0,0-0.1c0,0,0-0.1,0-0.1
			c0,0,0-0.1,0-0.1c0-0.1,0-0.1,0-0.2c0,0,0-0.1,0-0.1v-0.1c0,0,0,0,0-0.1c0,0,0,0,0-0.1c0,0,0,0,0,0c0,0,0-0.1,0-0.1v0v0
			c0,0,0,0,0-0.1h0.6l0.1-0.1c0,0,0,0,0.1,0h0.3l0.1,0h0.1c0.2,0,0.4,0,0.7,0c0,0,0,0.1,0,0.2c0,0,0,0,0,0c0,0,0,0,0,0v0
			c0,0.1,0,0.3,0,0.4v0.1c0,0.1,0,0.1,0,0.2v0.1c0,0,0,0.1,0,0.1c0,0.1,0,0.2,0,0.3v0.1c-0.1,0.2,0,0.4,0,0.5v0
			c0.1,0.2,0,0.4,0.1,0.5c0,0.4,0,0.8,0,1.2c0,0.1,0,0.2,0,0.3c0,0.2,0,0.3,0,0.5c0,0,0,0.1,0,0.1c0,0,0,0,0,0.1
			C25.5,23.7,25.6,24,25.5,24.3z M25,18C25,18,24.9,18,25,18L25,18c-0.8,0-1.6,0-2.4,0.1l0,0h-0.1c0,0-0.1,0-0.1,0h-0.1
			c-0.3,0-0.6,0-0.9,0h-0.1c-0.6,0-1.3,0-1.9,0h-0.1c-0.1,0-0.3,0-0.4,0h-0.1c-0.3,0-0.5,0-0.8,0.1h0l0.1,0c-0.6,0-1.2,0-1.7,0
			c0,0-0.1,0-0.2,0h-0.2c-0.2-0.1-0.5-0.1-0.7,0h-0.2c-0.1,0-0.3,0-0.4-0.1h-0.1c-0.2,0-0.5,0-0.7,0c-0.1,0-0.1,0-0.2,0
			c-0.4-0.1-0.8-0.1-1.2,0c-0.2,0-0.5,0-0.7,0c0,0,0,0,0-0.1h0c0,0-0.1,0-0.1,0c-0.1,0-0.2,0-0.3,0h-0.2c-0.1,0-0.1,0-0.2,0
			c0,0,0,0-0.1,0c0,0-0.1,0-0.1,0c0,0,0,0-0.1,0c0,0-0.1,0-0.1,0h0c0,0-0.1,0-0.1,0H9.2c0,0,0,0.1,0,0.1c-0.4,0-0.8,0-1.2,0
			c-0.1,0-0.1,0-0.2,0H6.6l0,0H6.2l0,0H5.3c0,0-0.1,0-0.1,0c-0.2,0-0.3,0-0.5,0c-0.1,0-0.2,0-0.3,0c0,0,0,0,0,0h0c0,0-0.1,0-0.1,0
			c-0.1,0-0.2,0-0.3,0H3.7c-0.1,0-0.1,0-0.2,0c0,0,0,0-0.1,0c0,0-0.1,0-0.1,0c0,0,0,0-0.1,0c0,0-0.1,0-0.1,0h0c0,0-0.1,0-0.1,0H2.3
			c0-0.1,0-0.1,0-0.2c0-0.1,0-0.1,0-0.2c0-0.1,0-0.1,0-0.1c-0.1-0.1,0-0.1,0-0.2c0-0.1,0-0.2,0-0.3c0-0.1,0-0.3,0-0.4
			c0-0.1,0-0.2,0-0.2h0c0,0,0,0,0-0.1v-0.1l0-0.1c0-0.1,0-0.1,0-0.2c0-0.1,0-0.1-0.1-0.2c0,0,0,0,0-0.1c0-0.1,0-0.1,0-0.2v-0.1l0,0
			v-0.1c0-0.1,0-0.1,0-0.2c0,0,0,0,0,0c0,0,0,0,0-0.1c0.1-0.1,0.1-0.3,0-0.4v-0.1H3c0.1,0,0.2,0,0.3-0.1c0.6,0.1,1.2,0.1,1.8,0
			c0.3,0,0.5,0,0.8,0c0.6,0,1.1,0,1.7,0c0.1,0,0.2,0,0.3,0c0.1,0,0.1,0,0.2,0c0.3,0,0.6,0,0.9,0l0,0c0.1,0,0.1,0,0.2,0l0,0h0.1
			c0.3,0,0.5,0,0.8,0h0.2c0.1,0,0.2,0,0.3,0c0.2,0,0.3,0,0.5,0c0.2,0.1,0.5,0.1,0.7,0h0.2c0.1,0,0.1,0,0.2,0l0,0h0.1c0,0,0,0,0,0
			c0.4,0.1,0.8,0,1.2,0.1h0.1c0.4-0.1,0.9,0,1.2-0.1c0.3,0,0.7,0,1,0h0l0.1,0c0.1,0,0.1,0,0.2,0c0,0,0.1,0,0.1,0c0.1,0,0.3,0,0.4,0
			l0,0l0,0c0.1,0,0.3,0,0.4,0c0.1,0,0.3,0,0.4,0c0.1,0,0.2,0,0.3,0c0.2,0,0.4,0,0.7,0c0.3,0,0.6,0,0.9,0c0,0,0,0,0,0
			c0.2,0,0.4,0,0.6,0c0.1,0,0.3,0,0.4,0c0.1,0,0.2,0,0.2-0.1c0,0,0.1,0,0.1,0.1c0.4,0.1,0.7,0.1,1.1,0c0.6,0,1.2,0,1.8,0
			c0.1,0,0.3,0,0.4,0c0,0,0,0,0.1,0h0c0.1,0,0.1,0,0.2,0c0.1,0,0.3,0,0.4,0c0,0,0,0,0,0h0.1c0.3,0.1,0.7,0.1,1,0h0.2
			c0.2,0.1,0.3,0.1,0.5,0l0.1,0h0.1c0.1,0,0.2,0,0.3,0c0.1,0,0.2,0,0.3,0c0.1,0,0.1,0,0.2,0c0.1,0,0.3,0,0.4,0
			c0.4,0.1,0.8,0,1.2,0.1H29c0.3-0.1,0.7,0,1.1-0.1c0.9,0,1.8,0,2.7,0h0.4v3.2c0,0.1,0,0.2,0,0.3c0,0,0,0,0,0c0,0,0,0,0,0
			c0,0,0,0,0,0c-0.1,0-0.3-0.1-0.4-0.1c0,0,0,0-0.1,0c-0.3-0.1-0.7-0.1-1,0h-0.2c-0.2,0-0.3,0-0.5,0h-0.3l-0.1,0
			c-0.1,0-0.2-0.1-0.3-0.1h-0.5c-0.1,0-0.2,0-0.2,0c0,0-0.1,0-0.1,0l-0.2,0c-0.1,0-0.2,0-0.3,0c-0.1,0-0.1,0-0.2,0h-0.2
			c-0.1,0-0.1,0-0.2,0c-0.1,0-0.2,0-0.2,0h-0.1l-0.1,0c-0.2,0-0.5,0-0.7,0l-0.1,0h-0.1c-0.3,0-0.5,0-0.8,0h-0.1c-0.1,0-0.1,0-0.2,0
			H26c-0.1,0-0.2,0-0.3,0.1C25.5,18,25.2,18,25,18z M31.9,30.2c0,0-0.1,0-0.1,0h-0.2c-0.2,0-0.3,0-0.5,0l0,0h0c0,0,0-0.1,0-0.1
			c0-0.1,0-0.1,0-0.2v0c0,0,0,0,0,0c0,0,0-0.1,0-0.1v-0.1c0,0,0-0.1,0-0.1c0-0.1,0-0.2,0-0.3l0,0c0.1-0.3,0.1-0.6,0-0.9v0
			c0,0,0,0,0,0v0c0-0.1,0-0.3,0-0.4v0c0-0.3,0-0.5,0-0.8v0c0-0.1,0-0.1,0-0.2c-0.1-0.1,0-0.2-0.1-0.3l0,0c0-0.2,0-0.5,0-0.7
			c0,0,0,0,0,0c0,0,0,0,0-0.1v-0.1c0-0.1,0-0.2,0-0.3v-0.1c0-0.1,0-0.1,0-0.2v-0.1c0-0.1,0.1-0.2,0-0.3c0,0,0-0.1,0-0.1
			c0.1-0.2,0.1-0.3,0-0.5c0-0.3,0-0.6,0-0.9c0-0.1,0-0.2,0-0.2V23c0-0.2,0-0.4,0-0.6c0,0,0-0.1,0-0.1v-0.4h0v-0.2l0,0v-0.3
			c0,0,0,0,0,0c0-0.1,0-0.1,0-0.2c0-0.1,0-0.2,0-0.3v-0.1c0,0,0-0.1,0-0.1v0c0,0,0,0,0,0c0-0.1,0-0.1,0-0.2v0c0-0.1,0-0.1,0-0.2
			c0,0,0-0.1,0-0.1c0,0,0,0,0-0.1c0-0.1,0-0.1,0-0.2c0,0,0,0,0-0.1c0,0,0,0,0-0.1c0,0,0-0.1,0-0.1c0,0,0-0.1,0-0.1
			c0-0.1,0-0.1,0-0.2c0,0,0-0.1,0-0.1v-0.1c0,0,0,0,0-0.1c0,0,0,0,0-0.1v0c0,0,0-0.1,0-0.1v0v-0.1c0,0,0,0,0,0c0,0,0-0.1,0-0.1v0
			l0,0v0h0c0,0,0,0,0,0h0.1c0.1,0,0.2,0,0.3,0c0.1,0,0.2,0,0.2,0c0.1,0,0.1,0,0.2,0c0,0,0.1,0,0.1,0c0,0,0,0,0,0c0.2,0,0.3,0,0.5,0
			c0.1,0,0.2,0,0.3,0H33v0.1c0,0,0,0,0,0c0,0,0,0,0,0c0,0,0,0.1,0,0.2c0,0,0,0,0,0c0,0,0,0,0,0l0,0v0c0,0.1,0,0.3,0,0.4v0.1
			c0,0.1,0,0.1,0,0.2v0.1c0,0,0,0.1,0,0.1c0,0.1,0,0.2,0,0.3v0.1c-0.1,0.2,0,0.4,0,0.5v0c0.1,0.2,0,0.4,0.1,0.5c0,0.4,0,0.8,0,1.2
			c0,0.1,0,0.2,0,0.3c0,0.2,0,0.3,0,0.5c0,0,0,0.1,0,0.1c0,0,0,0,0,0.1c0,0.3,0,0.6,0,0.9v0.1c0,0.6,0,1.3,0,1.9c0,0,0,0.1,0,0.1
			c0,0.8,0,1.5,0,2.3v1.7c0,0,0,0,0,0c-0.1,0-0.1,0-0.2,0c0,0,0,0,0,0c-0.1,0-0.3,0-0.4,0h0C32.2,30.2,32,30.2,31.9,30.2z
			 M29.9,30.2c-0.1,0-0.1,0-0.2,0c-0.3,0-0.7,0-1,0c-0.1,0-0.3,0-0.4,0c0,0,0,0,0,0.1h0c-0.4-0.1-0.8,0-1.2-0.1h-0.2
			c-0.2-0.1-0.5,0-0.7-0.1c0,0-0.1,0-0.1,0c-0.1,0-0.3,0-0.4,0c0,0,0-0.1,0-0.1v-0.2c0-0.1,0-0.3,0-0.5c0,0,0-0.1,0-0.1v-0.1
			c0-0.4,0-0.8,0-1.2c0-0.1,0-0.3,0-0.4c0-0.1,0-0.1,0-0.2c0-0.3,0-0.6,0-0.9c0-0.1,0-0.3,0-0.4h0v0c0.1-0.4,0-0.7,0.1-1.1v-0.2
			c0-0.2,0-0.5,0-0.7c0,0,0-0.1,0-0.1c0-0.3,0-0.6,0-0.8c0-0.1,0-0.3,0-0.4c0-0.1,0-0.1,0-0.2v-0.1c0-0.1,0-0.3,0-0.4
			c0-0.1,0-0.2,0-0.3c0-0.5,0-1,0-1.5c0,0,0-0.1,0-0.1c0-0.1,0-0.1,0-0.2c0,0,0,0,0,0c0-0.1,0-0.2,0-0.2v0c0-0.1,0-0.1,0-0.2
			c0,0,0-0.1,0-0.1v-0.1l0,0v-0.5c0,0,0,0,0,0c0,0,0,0,0-0.1c0,0,0,0,0,0c0.1,0,0.2,0,0.3,0c0.1,0,0.1,0,0.2,0
			c0.6-0.1,1.2,0,1.8-0.1h0.2c0.1,0,0.1,0,0.2,0l1.3-0.1c0.1,0,0.1,0,0.1-0.1c0.1,0,0.1,0,0.2,0h0.3c0,0,0,0.1,0,0.1
			c0,0.1,0,0.1,0,0.2c0,0,0,0,0,0.1c0,0.1,0,0.1,0,0.2c0,0,0,0.1,0,0.1c0,0.2,0,0.4,0,0.6c0,0.1,0,0.2,0,0.3l0,0.1c0,0,0,0,0,0
			c0,0,0,0,0,0c-0.1,0.3,0,0.6,0,0.9v0c0,0,0,0.1,0,0.1c0,0,0,0,0,0c0,0.1,0,0.3,0,0.4c0,0.3,0,0.6,0,0.8l0,0v0.1c0,0,0,0.1,0,0.1
			c0,0.3,0,0.6,0,0.9v0.5c0,0.2,0,0.5,0,0.7c0,0,0,0.1,0,0.1V25c0,0,0,0.1,0,0.1c0,0.1,0,0.3,0,0.4c0,0.1,0,0.2,0,0.2
			c0,0,0,0.1,0,0.1l0,0c0,0.1,0,0.2,0,0.2c0,0,0,0,0,0.1c0,0.5,0,1,0,1.5c0,0,0,0,0,0.1c0,0.1,0,0.3,0,0.4l0,0c0,0.1,0,0.1,0,0.2
			c0,0.1,0,0.2,0,0.3c0,0.1,0,0.1,0,0.2v0.3l0,0.1v0l0,0v0.1c0,0.1,0,0.2,0,0.4v0c0,0,0,0.1,0,0.1c0,0,0,0.1,0,0.1
			c0,0.1,0,0.2,0,0.3v0c-0.1,0-0.2,0-0.3,0C30.2,30.2,30.1,30.2,29.9,30.2z"/>
	</g>
</g>
</svg>
