<?xml version="1.0" encoding="utf-8"?>
<!-- Generator: Adobe Illustrator 25.2.1, SVG Export Plug-In . SVG Version: 6.00 Build 0)  -->
<svg version="1.1" id="Layer_1" xmlns="http://www.w3.org/2000/svg" xmlns:xlink="http://www.w3.org/1999/xlink" x="0px" y="0px"
	 width="142.7px" height="111.7px" viewBox="0 0 142.7 111.7" style="enable-background:new 0 0 142.7 111.7;" xml:space="preserve"
	>
<style type="text/css">
	.st0{fill:#F7942D;}
	.st1{fill:#FFC846;}
	.st2{fill:#132E52;}
	.st3{fill:#72BDE9;}
</style>
<path class="st0" d="M134.7,106.1L9,107.7c-2.2,0-4.1-1.7-4.1-3.9L4,35.1c0-2.2,1.8-4,4-4l118-1.2c8-0.1,11.8,5.9,11.9,13.7
	l0.8,58.5C138.7,104.3,136.9,106.1,134.7,106.1z"/>
<ellipse class="st1" cx="91.3" cy="67" rx="29.3" ry="28.5"/>
<path class="st2" d="M91.3,99.5C72.9,99.5,58,84.9,58,67s14.9-32.5,33.3-32.5s33.3,14.6,33.3,32.5S109.7,99.5,91.3,99.5z M91.3,42.5
	c-14,0-25.3,11-25.3,24.5s11.3,24.5,25.3,24.5s25.3-11,25.3-24.5S105.2,42.5,91.3,42.5z"/>
<g>
	<ellipse class="st3" cx="91.3" cy="67" rx="16.5" ry="16"/>
	<path class="st2" d="M91.3,87C80,87,70.8,78,70.8,67S80,47,91.3,47s20.5,9,20.5,20S102.6,87,91.3,87z M91.3,55
		c-6.9,0-12.5,5.4-12.5,12s5.6,12,12.5,12s12.5-5.4,12.5-12S98.2,55,91.3,55z"/>
</g>
<path class="st0" d="M114.7,29.5l-49.4-0.3c-0.4,0-0.9,0.5-0.8,0.1L71.1,8c0.7-2.1,2.5-3.6,4.6-3.6L102.9,4c2.1,0,3.9,1.3,4.7,3.4
	l7.7,21.3C115.5,29.1,115.2,29.5,114.7,29.5z"/>
<path class="st3" d="M36.1,30.1l-20.8-0.6L15,20.7c0-1,0.8-1.9,1.9-1.9L34,18.6c1.1,0,1.9,0.8,2,1.8L36.1,30.1z"/>
<path class="st3" d="M101.8,29.7l-24.1-0.5l-0.3-4.3c-0.1-5,4.1-9.2,9.3-9.2l5.5-0.1c5.2-0.1,9.5,4,9.5,9L101.8,29.7z"/>
<path class="st2" d="M141.9,43.5c-0.1-10.7-6.3-17.6-15.7-17.6c-0.1,0-0.2,0-0.2,0l-7.4,0.1l-7.2-20c-1.4-3.6-4.7-6-8.5-6L75.7,0.4
	c-3.8,0-7.1,2.5-8.4,6.4l-6.1,19.7l-15.4,0.2c-0.1,0-0.1,0-0.2,0c0,0,0,0-0.1,0c-0.1,0-0.1,0-0.2,0l-5.3,0.1L40,20.4
	c0-0.1,0-0.2,0-0.4c-0.3-3.1-2.9-5.4-6-5.4l-17.1,0.2c-3.3,0-5.9,2.6-5.9,5.9c0,0,0,0.1,0,0.1l0.2,6.2l-3.2,0c-4.4,0-8,3.6-8,8.1
	l0.9,68.6c0,4.4,3.6,7.9,8.2,7.9l125.7-1.6c4.4,0,8-3.6,8-8.1L141.9,43.5z M32,22.6l0,3.4l-12.9-0.4l-0.1-2.8L32,22.6z M17,22.8
	C17,22.8,17,22.8,17,22.8L17,22.8L17,22.8z M81.4,25.3l0-0.5c0-1.3,0.5-2.5,1.4-3.4c1-1,2.4-1.6,3.9-1.6l5.5-0.1
	c1.5,0,2.9,0.5,3.9,1.5c1,0.9,1.5,2.2,1.5,3.5l0,0.7l-14.8-0.1L81.4,25.3z M74.9,9.3c0.2-0.5,0.6-0.9,0.9-0.9L102.9,8
	c0.5,0,0.8,0.4,0.9,0.8l6,16.7l-4.2,0l0-0.8c0-3.4-1.4-6.7-3.9-9.2c-2.6-2.5-6.1-3.9-9.7-3.8l-5.4,0.1c-3.6,0-7,1.4-9.6,4
	c-2.5,2.5-3.8,5.8-3.7,9.3c0,0.1,0,0.1,0,0.2l0,0.1l-3.5,0L74.9,9.3z M41.3,34.8l-8.2,18.1c-0.8,1.6-2,2.5-3.4,2.5l-7.9,0.1
	c-1.3,0-2.6-0.9-3.3-2.5l-8.3-17.9L41.3,34.8z M9,103.7c0,0-0.1,0-0.1,0L8.2,49.8l3.1,6.6c2.1,4.4,6.1,7.1,10.4,7.1
	c0.1,0,0.2,0,0.4,0l7.7-0.1c4.4,0,8.4-2.7,10.5-7.1l1.5-3.4l0.7,50.4L9,103.7z M134.7,106.1l-0.1-4l-84.1,1.1l-0.9-67.4l0.5-1.1
	l75.9-0.8c0,0,0.1,0,0.1,0c6.3,0,7.7,5.3,7.7,9.8l0.8,58.4c0,0,0,0,0,0L134.7,106.1z"/>
</svg>
