<?xml version="1.0" encoding="utf-8"?>
<!-- Generator: Adobe Illustrator 25.3.1, SVG Export Plug-In . SVG Version: 6.00 Build 0)  -->
<svg version="1.1" id="Layer_1" xmlns="http://www.w3.org/2000/svg" xmlns:xlink="http://www.w3.org/1999/xlink" x="0px" y="0px"
	 width="112.7px" height="112.4px" viewBox="0 0 112.7 112.4" style="enable-background:new 0 0 112.7 112.4;" xml:space="preserve"
	>
<style type="text/css">
	.st0{fill:#0F2D52;}
</style>
<g>
	<path class="st0" d="M56.4,7.8C29.5,7.8,7.9,29.3,7.8,56.1c0,26.7,21.5,48.4,48.4,48.5c26.9,0.2,48.6-21.5,48.6-48.5
		C104.8,29.3,83.3,7.8,56.4,7.8z M56.4,94.3c-20.6,0.1-37.9-17.1-38.1-37.8c-0.2-20.8,17-38.2,37.9-38.3
		C76.9,18,94.3,35.1,94.4,55.7C94.4,76.9,77.4,94.2,56.4,94.3z"/>
	<path class="st0" d="M73.5,51.1c-4,0-8,0-12,0c0-4,0-8,0-12c0-3.9-1.8-5.8-5.1-5.8c-3.2,0-5.1,2.1-5.2,5.9c0,4,0,8,0,12
		c-4,0-8,0-12,0c-3.9,0-5.8,1.8-5.8,5.1c0,3.2,2.1,5.1,5.9,5.2c4,0,8,0,12,0c0,4,0,8,0,12c0,3.8,2,5.8,5.2,5.8c3.2,0,5-2,5.1-5.9
		c0-4,0-8,0-12c4,0,8,0,12,0c3.8,0,5.8-2,5.8-5.2C79.4,52.9,77.4,51.1,73.5,51.1z"/>
</g>
</svg>
