<?xml version="1.0" encoding="utf-8"?>
<!-- Generator: Adobe Illustrator 25.2.1, SVG Export Plug-In . SVG Version: 6.00 Build 0)  -->
<svg version="1.1" id="Layer_1" xmlns="http://www.w3.org/2000/svg" xmlns:xlink="http://www.w3.org/1999/xlink" x="0px" y="0px"
	 width="145.9px" height="106.7px" viewBox="0 0 145.9 106.7" style="enable-background:new 0 0 145.9 106.7;" xml:space="preserve"
	>
<style type="text/css">
	.st0{fill:#0F2D52;}
</style>
<path class="st0" d="M106.6,0C89.1,0,78.4,10.3,73,20.1C67.4,10.3,56.8,0,39.4,0C16.9,0,0,15.9,0,37c0,20.7,14.7,33.7,28.5,44.3
	c10.2,7.8,41.3,24.3,42.7,25c0.6,0.3,1.2,0.5,1.9,0.5s1.3-0.2,1.9-0.5c1.3-0.7,32.4-17.1,42.8-25C131.4,70.7,146,57.6,146,37
	C146,15.9,129.1,0,106.6,0z M112.8,74.9C104.4,81.3,80,94.5,73,98.2c-7-3.7-31.3-16.9-39.7-23.2C20.5,65.1,8,54.1,8,37
	C8,20.2,21.2,8,39.4,8c22.7,0,29.1,21.1,29.7,23.5c0.5,1.7,2.1,3,3.9,3c0,0,0,0,0,0c1.8,0,3.4-1.2,3.9-3C79.2,22.8,88,8,106.6,8
	C124.8,8,138,20.2,138,37C138,54,125.5,65.1,112.8,74.9z"/>
</svg>
