<?xml version="1.0" encoding="utf-8"?>
<!-- Generator: Adobe Illustrator 25.2.1, SVG Export Plug-In . SVG Version: 6.00 Build 0)  -->
<svg version="1.1" id="Layer_1" xmlns="http://www.w3.org/2000/svg" xmlns:xlink="http://www.w3.org/1999/xlink" x="0px" y="0px"
	 width="192.9px" height="97.8px" viewBox="0 0 192.9 97.8" style="enable-background:new 0 0 192.9 97.8;" xml:space="preserve">
<style type="text/css">
	.st0{fill:#182C54;}
</style>
<path class="st0" d="M192.6,84.8l-18.1-62.2c-0.2-0.6-0.5-1.2-1-1.7l-1.1-1.1c-3.6-3.6-8-6.7-13-9.2l-0.7-3.1
	c-0.3-1.3-1.3-2.4-2.6-2.9c-32.1-11.4-54,1.4-59.9,5.7c-0.4,0.3-0.8,0.5-1.1,0.8c-5.6-3.7-28.2-15.8-61.3-0.6
	c-1.2,0.5-2,1.6-2.3,2.9L31,15.6C26,18.5,21.7,22,17.8,26.2l-1,1.1c-0.4,0.5-0.8,1.1-0.9,1.7L0.1,92.8c-0.3,1.3,0,2.7,0.9,3.6
	c0.8,0.8,1.8,1.3,3,1.3c0.2,0,0.4,0,0.6,0l73.9-10.3l0,0.7c0.1,5.4,4.4,9.7,9.7,9.7c0.1,0,0.3,0,0.4,0l16-0.7
	c5.3-0.2,9.5-4.8,9.4-10.2l0-1.1l74.6,4.1c0.1,0,0.1,0,0.2,0c1.2,0,2.4-0.6,3.1-1.5C192.7,87.4,193,86,192.6,84.8z M151.4,11.5
	l10.9,48.2c-24.3-4.3-49.9,4.5-61,9.1l-0.9-51.7C105.2,13.6,123.4,2.3,151.4,11.5z M90,17.4l0.9,51.9c-7.7-2.4-22.3-6.2-38.5-6.2
	c-7.4,0-15.1,0.8-22.7,2.9l9.3-49C66.3,5.2,84.8,14.1,90,17.4z M23.4,31.9l0.3-0.4c1.6-1.8,3.3-3.4,5.2-4.9l-8.4,44.3
	c-0.3,1.4,0.3,2.9,1.4,3.8c1.1,0.9,2.6,1.2,4,0.7c20.3-7.8,44.1-3.6,57.4-0.1c-1.8,0.7-3.2,2.1-4.1,3.8L9.3,89L23.4,31.9z M106,87.1
	c0,1.1-0.8,2-1.7,2l-16,0.7c0,0,0,0-0.1,0c-0.9,0-1.7-0.8-1.7-1.9l0-1.6l10.5-1.5l9,0.5L106,87.1z M112.7,77.7
	c-0.4-0.6-0.8-1.2-1.3-1.7c-0.8-0.6-1.7-1.1-2.7-1.5c13-4.8,36.9-11.6,57.8-5.7c1.4,0.4,2.8,0,3.8-0.9c1-1,1.5-2.4,1.2-3.8
	l-9.7-42.8c1.8,1.3,3.5,2.7,5,4.1l0.4,0.4l16.2,55.8L112.7,77.7z"/>
</svg>
