<?xml version="1.0" encoding="utf-8"?>
<!-- Generator: Adobe Illustrator 25.2.1, SVG Export Plug-In . SVG Version: 6.00 Build 0)  -->
<svg version="1.1" id="Layer_1" xmlns="http://www.w3.org/2000/svg" xmlns:xlink="http://www.w3.org/1999/xlink" x="0px" y="0px"
	 width="111.2px" height="121.3px" viewBox="0 0 111.2 121.3" style="enable-background:new 0 0 111.2 121.3;" xml:space="preserve"
	>
<style type="text/css">
	.st0{fill:#FFC846;}
	.st1{fill:#0F2D52;}
</style>
<g>
	<path class="st0" d="M104.4,92.8l-4,0.2L72.2,61.5l-0.7-7.8l-6.2-5.5c4.6-11,2.9-24.3-5.9-33.9C48.6,2.5,30.3,0.6,17.3,9.9
		c-15.1,10.9-17.7,32-6.1,46.2c8.5,10.4,22.2,14,34.3,10.2l39.6,46.5l12.6,4.1l9.3-7.3l0.2-12.9C107.2,94.9,106,93.3,104.4,92.8z
		 M25,38.6c-3.9-4.7-3.2-11.6,1.5-15.5s11.6-3.2,15.5,1.5s3.2,11.6-1.5,15.5S28.9,43.3,25,38.6z"/>
	<path class="st1" d="M98.5,121.4l-15.7-5.1L44.1,70.8c-13.4,3.1-27.2-1.5-36-12.2C1.8,50.9-1,41.1,0.3,31.2
		C1.6,21.3,6.8,12.6,15,6.7c14.8-10.6,35.1-8.4,47.4,4.9C71.1,21.2,74,34.8,70,47l5.3,4.7l0.7,8.1l26,29.1l2.8-0.1l0.7,0.2
		c3.3,1,5.6,4.2,5.6,7.7l-0.2,14.9L98.5,121.4z M87.4,109.3l9.5,3.1l6.1-4.8l0.2-10.8l-4.5,0.2L68.3,63.2l-0.7-7.5l-7.2-6.3l1.1-2.6
		c4.2-10,2.2-21.7-5.2-29.7C47.1,6.8,30.9,5.1,19.6,13.2C13.3,17.7,9.2,24.5,8.2,32.2c-1,7.7,1.2,15.3,6.1,21.3
		c7.2,8.9,19,12.4,30,8.9l2.5-0.8L87.4,109.3z M33.5,46.6c-0.5,0-1,0-1.5-0.1c-4-0.4-7.6-2.3-10.1-5.4c-5.3-6.4-4.4-15.8,2-21.1
		c6.4-5.3,15.8-4.4,21.1,2c2.6,3.1,3.8,7,3.4,11c-0.4,4-2.3,7.6-5.4,10.1C40.3,45.4,37,46.6,33.5,46.6z M33.5,24.6
		c-1.6,0-3.1,0.5-4.4,1.6c-1.5,1.2-2.4,2.9-2.5,4.8c-0.2,1.9,0.4,3.7,1.6,5.1c1.2,1.5,2.9,2.4,4.8,2.5c1.9,0.2,3.7-0.4,5.1-1.6
		c3-2.5,3.4-6.9,1-9.9C37.5,25.5,35.5,24.6,33.5,24.6z"/>
</g>
</svg>
