<?xml version="1.0" encoding="utf-8"?>
<!-- Generator: Adobe Illustrator 25.2.1, SVG Export Plug-In . SVG Version: 6.00 Build 0)  -->
<svg version="1.1" id="Layer_1" xmlns="http://www.w3.org/2000/svg" xmlns:xlink="http://www.w3.org/1999/xlink" x="0px" y="0px"
	 width="79.9px" height="138.8px" viewBox="0 0 79.9 138.8" style="enable-background:new 0 0 79.9 138.8;" xml:space="preserve">
<style type="text/css">
	.st0{fill:#E2F3F9;}
	.st1{fill:#0C243C;}
	.st2{fill:#132E52;}
</style>
<g>
	<path class="st0" d="M70.2,134.7l-60.3,0.1c-3.1,0-5.7-2.5-5.7-5.7L4,9.8c0-3.1,2.5-5.7,5.7-5.7L70,4c3.1,0,5.7,2.5,5.7,5.7
		L75.8,129C75.8,132.2,73.3,134.7,70.2,134.7z"/>
	
		<rect x="4.1" y="24.2" transform="matrix(1 -1.445964e-03 1.445964e-03 1 -9.712712e-02 5.783656e-02)" class="st1" width="71.7" height="86"/>
	<path class="st2" d="M79.9,110.1l-0.1-86c0-0.1,0-0.2,0-0.3l0-14.2C79.7,4.4,75.3,0,70,0L9.7,0.1C4.4,0.1,0,4.5,0,9.8l0.1,73.1
		l0,27.4c0,0,0,0,0,0.1l0,18.8c0,5.3,4.4,9.7,9.7,9.7l60.3-0.1c5.3,0,9.6-4.4,9.6-9.7l0-18.1C79.8,110.7,79.9,110.4,79.9,110.1z
		 M8.1,82.7L8,28.2l63.7-0.1l0.1,78l-63.6,0.1L8.1,82.7z M9.7,8.1L70,8c0.9,0,1.7,0.8,1.7,1.7l0,10.5L8,20.2L8,9.8
		C8,8.9,8.8,8.1,9.7,8.1z M70.2,130.7C70.2,130.7,70.2,130.7,70.2,130.7l-60.3,0.1c-0.9,0-1.7-0.8-1.7-1.7l0-14.8l63.6-0.1l0,14.8
		C71.8,130,71.1,130.7,70.2,130.7z"/>
	<path class="st2" d="M48.9,17H30.5c-1.4,0-2.5-1.1-2.5-2.5s1.1-2.5,2.5-2.5h18.4c1.4,0,2.5,1.1,2.5,2.5S50.3,17,48.9,17z"/>
	
		<ellipse transform="matrix(1 -1.446064e-03 1.446064e-03 1 -0.1774 5.623560e-02)" class="st2" cx="38.8" cy="122.7" rx="4.7" ry="4.3"/>
</g>
</svg>
