<?xml version="1.0" encoding="utf-8"?>
<!-- Generator: Adobe Illustrator 25.2.1, SVG Export Plug-In . SVG Version: 6.00 Build 0)  -->
<svg version="1.1" id="Layer_1" xmlns="http://www.w3.org/2000/svg" xmlns:xlink="http://www.w3.org/1999/xlink" x="0px" y="0px"
	 width="124.4px" height="156.9px" viewBox="0 0 124.4 156.9" style="enable-background:new 0 0 124.4 156.9;" xml:space="preserve"
	>
<style type="text/css">
	.st0{fill:#182C54;}
</style>
<g>
	<path class="st0" d="M102,55.2c-9.6-6-20.6-7.6-30.8-4.8c9.7-22.7,35.9-27.5,37.1-27.7c2.2-0.4,3.6-2.4,3.3-4.6
		c-0.4-2.2-2.4-3.6-4.6-3.3c-1.2,0.2-23.8,4.3-37.3,22.4c-0.8-5.4-2.5-10.8-5.3-16C58.6,10.8,49.7,3,40.5,0.3C39.8,0.1,39,0,38.3,0
		c-1.4,0-2.9,0.4-4.1,1.1c-1.9,1.2-3.3,3-3.7,5.2c-3.1,15,0.6,28.9,10.8,40.1c0.1,0.1,0.3,0.3,0.4,0.4c-4.6,0.4-9.1,1.6-13.6,3.6
		c-16,7.4-26.7,23.7-27.9,42.7c-1.4,21.5,6.9,40.7,22.7,52.5c11.5,8.5,25.2,11.9,35.6,8.9c3.7,1.6,8,2.4,12.5,2.4
		c7.7,0,16.2-2.3,24.1-6.7c17.2-9.7,27.8-27.5,29.2-49C125.5,82.2,116.9,64.5,102,55.2z M38.3,8c14.1,4.1,27.4,24.9,22.8,42.4
		c-1.9-0.9-3.8-1.6-5.8-2.2C47.3,42.6,33.8,29.8,38.3,8z M116.3,100.6c-1.6,25.7-16.4,37.7-25.1,42.6c-10.7,6-23,7.4-30.5,3.4
		c-0.6-0.3-1.2-0.5-1.9-0.5c-0.5,0-0.9,0.1-1.4,0.3c-8,3-19.9,0.1-29.7-7.3c-8-6-21.2-19.8-19.5-45.5c1-16,9.9-29.8,23.3-35.9
		c6.9-3.2,14.1-3.9,20.7-2.2c2.9,1.9,5,2.9,5.4,3.1c0.9,0.5,2,0.7,3.1,0.7c0.6,0.4,1.2,0.8,1.7,1.2c0,0,0,0,0.1,0
		c0.1,0,0.1,0.1,0.2,0.1c0.1,0.1,0.3,0.2,0.5,0.3c0.1,0,0.1,0.1,0.2,0.1c0.2,0.1,0.4,0.2,0.7,0.2c0,0,0,0,0,0c0,0,0,0,0,0
		c0.2,0.1,0.5,0.1,0.7,0.1c0,0,0.1,0,0.1,0c0,0,0.1,0,0.1,0c0.1,0,0.3,0,0.4,0c0.1,0,0.2,0,0.2,0c0.1,0,0.3-0.1,0.4-0.1
		c0.1,0,0.1,0,0.2-0.1c0.2-0.1,0.3-0.1,0.5-0.2c0,0,0.1,0,0.1-0.1c0,0,0,0,0,0c9.7-5.5,21-5.1,30.9,1.2
		C110.2,69.8,117.3,84.6,116.3,100.6z"/>
	<path class="st0" d="M40.9,70.8C33.6,74.1,24,81,20.2,95.7c-0.6,2.1,0.7,4.3,2.9,4.9c0.3,0.1,0.7,0.1,1,0.1c1.8,0,3.4-1.2,3.9-3
		c3-11.6,10.4-17,16.1-19.5c2-0.9,2.9-3.3,2-5.3C45.3,70.9,42.9,69.9,40.9,70.8z"/>
</g>
</svg>
