<?xml version="1.0" encoding="utf-8"?>
<!-- Generator: Adobe Illustrator 25.2.1, SVG Export Plug-In . SVG Version: 6.00 Build 0)  -->
<svg version="1.1" id="Layer_1" xmlns="http://www.w3.org/2000/svg" xmlns:xlink="http://www.w3.org/1999/xlink" x="0px" y="0px"
	 width="150.9px" height="151.3px" viewBox="0 0 150.9 151.3" style="enable-background:new 0 0 150.9 151.3;" xml:space="preserve"
	>
<style type="text/css">
	.st0{fill:#162B54;}
</style>
<path class="st0" d="M149.2,55.9c-2-4.2-5.5-7.4-9.9-9c-4.8-1.7-10.1,0.8-11.9,5.4l-5-1.8l0.6-1.6c0.4-1,0.3-2.1-0.1-3.1
	c-0.5-1-1.3-1.7-2.3-2.1l-6.8-2.5L115,38l4.2,1.5c0.8,0.3,1.6,0.4,2.5,0.4c2.8,0,5.5-1.7,6.7-4.4c0-0.1,0.1-0.2,0.1-0.3l2.1-5.9
	c0,0,0-0.1,0-0.1c1.1-3.7-0.7-7.6-4.4-9L96.8,9.6c-0.1,0-0.1,0-0.2-0.1c-3.7-1.2-7.6,0.7-9,4.4l-2.1,5.9c0,0,0,0.1,0,0.1
	c-1.1,3.7,0.7,7.6,4.4,9l2.2,0.8L90.9,33L53.4,19.4L46.5,12c-0.5-0.7-1.2-1.3-2-1.6L28.9,4.9c-0.1,0-0.2-0.1-0.3-0.1L16.2,0.2
	c-2.1-0.8-4.4,0.3-5.1,2.4L0.2,32.5c-0.8,2.1,0.3,4.4,2.4,5.1l12.3,4.4c0.1,0,0.1,0.1,0.2,0.1l15.9,5.7c0.4,0.2,0.9,0.2,1.4,0.2
	c0.2,0,0.3,0,0.5,0l10.5-1.3l20.5,7.4l0.1,8.1c-1.9,2.3-3,5.2-3,8.3c0,1,0.1,1.9,0.3,2.8c-4.1,0.3-7.3,3.8-7.3,8v4.1
	c0,0,0,0.1,0,0.1l-28,53c0,0,0,0.1-0.1,0.1c-1.1,2.3-1.2,4.8-0.3,6.9c0.9,2.5,2.9,4.3,5.5,5.1c0.9,0.3,1.9,0.4,2.8,0.4
	c3.4,0,6.4-1.8,8-4.7l23.2-44v33.8c0,4.9,3.9,8.7,8.9,8.7c4.8,0,8.9-4,8.9-8.7v-33.9l23.4,44.2c1.5,2.9,4.6,4.7,8,4.7
	c1,0,1.9-0.1,2.8-0.5c0,0,0.1,0,0.1,0c2.6-1,4.5-2.8,5.3-5c1-2.4,0.8-5.1-0.3-7.1L94.5,86.4c0-0.3,0-0.5,0-0.8v-4.1
	c0-4.3-3.4-7.8-7.7-8c0.2-0.9,0.3-1.8,0.3-2.8c0-3.8-1.6-7.2-4.2-9.6l27.7,10c0.5,0.2,0.9,0.2,1.4,0.2c1.6,0,3.2-1,3.8-2.6l0.2-0.4
	l5.3,1.9c-0.3,4.2,2.1,8.2,6.2,9.7c1.9,0.7,4,1.1,6,1.1c2.5,0,4.9-0.5,7.2-1.6c4.3-2,7.6-5.6,9.2-10.1c0.1-0.2,0.1-0.4,0.2-0.6
	C151.4,64.6,151.1,60,149.2,55.9z M94.9,17.5l27.9,10.1l-1.5,4.2L93.4,21.7L94.9,17.5z M107.5,35.3l-1.2,3.2l-7.9-2.8l1.2-3.2
	L107.5,35.3z M17.2,9.1l4.9,1.8L14,33.3l-4.9-1.8L17.2,9.1z M32.8,40l-11.1-4l8.1-22.4l11,3.9l5.8,6.1L40.9,39L32.8,40z M61.9,85.6
	v-4.1h4.7c2.1,1.4,4.7,2.3,7.4,2.3s5.3-0.9,7.4-2.3h5.1v4.1H61.9z M77.7,74.1c-0.3,0.2-0.6,0.5-0.9,0.8c-0.8,0.6-1.8,0.9-2.9,0.9
	c-2.8,0-5.1-2.3-5.1-5.1s2.3-5.1,5.1-5.1c2.8,0,5.1,2.3,5.1,5.1C79.1,72,78.6,73.2,77.7,74.1z M36.5,143.8c-0.5,0.9-1.5,1.5-2.6,1.5
	c-0.3,0-0.7-0.1-1-0.1c0,0-0.1,0-0.1,0c-0.8-0.2-1.4-0.8-1.7-1.5c-0.3-0.7-0.2-1.4,0.1-2.2l26-49.3c1.3,0.9,2.9,1.5,4.6,1.5H63
	L36.5,143.8z M74,139.1c-1.7,0-2.9-1.2-2.9-2.7V93.6h5.8v42.8C76.9,137.8,75.5,139.1,74,139.1z M117,143.7c-0.3,0.9-1.3,1.3-1.8,1.5
	c-0.3,0.1-0.6,0.1-0.9,0.1c-1.2,0-2.2-0.6-2.6-1.5L85,93.6h1.5c1.6,0,3.1-0.5,4.3-1.3l26.2,49.4C117.3,142.2,117.3,143,117,143.7z
	 M71.9,57.8l0-0.7l1.4,0.5C72.8,57.7,72.3,57.7,71.9,57.8z M109.6,62.3L69.3,47.7c0,0,0,0-0.1,0L49,40.3l4.5-12.4l38.4,13.9
	c0,0,0,0,0.1,0l1.7,0.6l20.5,7.4L109.6,62.3z M119.7,58l5,1.8l-1,2.8l-5-1.8L119.7,58z M142.3,66.5c-0.1,0.1-0.1,0.3-0.1,0.4
	c-0.9,2.3-2.7,4.2-4.9,5.2c-2.3,1-4.8,1.1-7.1,0.3c0,0,0,0,0,0c-0.8-0.3-1.1-1.1-0.9-1.9l5.5-15.2c0.2-0.6,0.8-1,1.4-1
	c0.2,0,0.3,0,0.5,0.1c2.4,0.8,4.2,2.6,5.3,4.9C143.1,61.6,143.2,64.2,142.3,66.5z"/>
</svg>
