<?xml version="1.0" encoding="utf-8"?>
<!-- Generator: Adobe Illustrator 25.2.1, SVG Export Plug-In . SVG Version: 6.00 Build 0)  -->
<svg version="1.1" id="Layer_1" xmlns="http://www.w3.org/2000/svg" xmlns:xlink="http://www.w3.org/1999/xlink" x="0px" y="0px"
	 width="112.8px" height="144.4px" viewBox="0 0 112.8 144.4" style="enable-background:new 0 0 112.8 144.4;" xml:space="preserve"
	>
<style type="text/css">
	.st0{fill:#0F2D52;}
</style>
<g>
	<path class="st0" d="M56.4,0c-4.5,0-9,0.5-13.5,1.6C22.9,6.2,7.3,21,2.1,40.3C-2.8,58.8,1,78.9,13.6,100
		c10.3,17.3,24.3,31.6,33.9,40.8c2.5,2.4,5.7,3.6,8.9,3.6c3.2,0,6.4-1.2,8.9-3.6c6.9-6.6,13.2-13.5,18.6-20.3
		c15-18.6,28.9-39.3,28.9-64.2C112.8,25.3,87.5,0,56.4,0z M77.7,115.6c-5.3,6.6-11.3,13.1-18,19.5c-1.9,1.8-4.8,1.8-6.6,0
		C16.7,100.1,2.5,69.7,9.9,42.3c4.4-16.4,17.8-29,34.9-33C48.6,8.5,52.5,8,56.4,8c26.7,0,48.4,21.7,48.4,48.4
		C104.8,78.8,91.8,98.1,77.7,115.6z"/>
	<path class="st0" d="M56.4,21.5c-1.1,0-2.2,0-3.4,0.1c-15.8,1.6-28.5,14.2-30.1,30.1c-1,9.6,2,18.8,8.5,26
		c6.4,7.1,15.5,11.1,25,11.1c1.1,0,2.2,0,3.4-0.1c15.8-1.6,28.5-14.2,30.1-30.1c1-9.6-2-18.8-8.5-26C75,25.6,65.9,21.5,56.4,21.5z
		 M81.9,57.8C80.7,69.9,71.1,79.5,59,80.7l0,0c-0.8,0.1-1.7,0.1-2.6,0.1c-7.2,0-14.2-3.1-19-8.5c-5-5.5-7.3-12.5-6.5-19.8
		c1.2-12.1,10.8-21.7,22.9-22.9c0.8-0.1,1.7-0.1,2.6-0.1c7.2,0,14.2,3.1,19,8.5C80.4,43.5,82.7,50.5,81.9,57.8z"/>
</g>
</svg>
