<?xml version="1.0" encoding="utf-8"?>
<!-- Generator: Adobe Illustrator 25.2.1, SVG Export Plug-In . SVG Version: 6.00 Build 0)  -->
<svg version="1.1" id="Layer_1" xmlns="http://www.w3.org/2000/svg" xmlns:xlink="http://www.w3.org/1999/xlink" x="0px" y="0px"
	 width="124.4px" height="156.9px" viewBox="0 0 124.4 156.9" style="enable-background:new 0 0 124.4 156.9;" xml:space="preserve"
	>
<style type="text/css">
	.st0{fill:#EA2C38;}
	.st1{fill:#AAD268;}
	.st2{fill:#182C54;}
</style>
<g>
	<g>
		<path class="st0" d="M64.8,57.3C41.3,39.7,6.4,58.8,4.2,93.4c-2.9,43.9,35.8,63.8,54.6,56.8c17.8,9.3,58.7-5.4,61.5-49.3
			C122.5,66.4,90.4,42.8,64.8,57.3z"/>
		<path class="st1" d="M61,55.7c-0.6,0-1.1-0.1-1.6-0.4c-0.3-0.1-31.9-14.8-24.9-48c0.2-1.1,0.9-2,1.9-2.6c0.6-0.4,1.3-0.6,2-0.6
			c0.4,0,0.8,0.1,1.1,0.2c8.2,2.4,16.3,9.5,21.4,19.1c5.2,9.7,6.7,20.5,3.9,29.5c-0.3,1.1-1.1,2-2.2,2.5
			C62.2,55.5,61.6,55.7,61,55.7z"/>
		<path class="st2" d="M102,55.2c-9.5-6-20.4-7.6-30.4-4.9c9.8-22.5,35.9-27.3,37.1-27.5c2.2-0.4,3.7-2.4,3.3-4.6
			c-0.4-2.2-2.5-3.7-4.6-3.3c-1.2,0.2-23.9,4.3-37.5,22.5c-0.8-5.4-2.5-10.9-5.3-16C58.7,10.9,49.8,3,40.6,0.3C39.9,0.1,39,0,38.3,0
			c-1.4,0-2.9,0.4-4.1,1.1c-1.9,1.2-3.3,3-3.7,5.2c-3.1,15.1,0.6,29,10.9,40.3c0.1,0.1,0.1,0.1,0.2,0.2c-4.5,0.4-9.1,1.6-13.4,3.6
			c-16,7.4-26.7,23.7-27.9,42.7c-1.4,21.5,6.9,40.7,22.7,52.5c11.5,8.5,25.2,11.9,35.6,8.9c3.7,1.6,8,2.4,12.5,2.4
			c7.7,0,16.2-2.3,24.1-6.7c17.2-9.7,27.8-27.5,29.2-49C125.5,82.2,116.9,64.5,102,55.2z M38.3,8c14.2,4.1,27.4,24.9,22.9,42.4
			c-2-1-4.2-1.8-6.3-2.4C46.9,42.3,33.9,29.5,38.3,8z M116.3,100.6c-1.6,25.7-16.4,37.7-25.1,42.6c-10.7,6-23,7.4-30.5,3.4
			c-0.6-0.3-1.2-0.5-1.9-0.5c-0.5,0-0.9,0.1-1.4,0.3c-8,3-19.9,0.1-29.7-7.3c-8-6-21.2-19.8-19.5-45.5c1-16,9.9-29.8,23.3-35.9
			c6.7-3.1,13.7-3.9,20.2-2.3c3.2,2.1,5.6,3.3,6.1,3.5c1,0.5,2.2,0.7,3.3,0.7c0,0,0,0,0,0c0.3,0.2,0.5,0.4,0.8,0.6
			c0.6,0.7,1.3,1.2,2.2,1.3c0.3,0.1,0.6,0.1,0.8,0.1c1.2,0,2.4-0.6,3.1-1.5c9.4-4.7,20.1-4.1,29.6,1.9
			C110.2,69.8,117.3,84.6,116.3,100.6z"/>
	</g>
	<path class="st2" d="M24.1,100.7c-0.3,0-0.7,0-1-0.1c-2.1-0.6-3.4-2.7-2.9-4.9C24,81,33.6,74.1,40.9,70.8c2-0.9,4.4,0,5.3,2
		c0.9,2,0,4.4-2,5.3c-5.7,2.5-13.1,8-16.1,19.5C27.5,99.5,25.9,100.7,24.1,100.7z"/>
</g>
</svg>
