<?xml version="1.0" encoding="utf-8"?>
<!-- Generator: Adobe Illustrator 25.2.1, SVG Export Plug-In . SVG Version: 6.00 Build 0)  -->
<svg version="1.1" id="Capa_1" xmlns="http://www.w3.org/2000/svg" xmlns:xlink="http://www.w3.org/1999/xlink" x="0px" y="0px"
	 width="34.3px" height="30.4px" viewBox="0 0 34.3 30.4" style="enable-background:new 0 0 34.3 30.4;" xml:space="preserve">
<style type="text/css">
	.st0{fill:#384877;}
	.st1{fill:#EA2C38;}
	.st2{fill:#182C54;}
	.st3{fill:#AAD268;}
	.st4{fill:#0F2D52;}
	.st5{fill:none;}
	.st6{fill:#132D52;}
</style>
<g transform="translate(0.225 -1.819)">
	<path class="st0" d="M18.4,6.3v23.1h-3V6.3"/>
	<path class="st0" d="M15.4,5.3V3.8c0-0.8,0.7-1.5,1.5-1.5c0,0,0,0,0,0l0,0c0.8,0,1.5,0.7,1.5,1.5v1.5"/>
	<rect x="12.5" y="29.4" class="st0" width="8.8" height="2.3"/>
	<rect x="4.5" y="5.3" class="st0" width="24.9" height="1.5"/>
	<circle class="st1" cx="4.6" cy="17.1" r="4.3"/>
	<path class="st2" d="M5.4,13.4L5.4,13.4z"/>
	<path class="st2" d="M8.9,17.1L8.9,17.1c0,0-0.1-0.1-0.1-0.1c0,0,0-0.1,0-0.1c0,0,0,0,0,0c-0.1-0.1,0-0.3-0.2-0.4c0,0,0-0.1,0-0.1
		c0,0,0,0,0,0c-0.1-0.1-0.2-0.2-0.2-0.4c0,0,0,0,0-0.1c-0.2-0.1-0.1-0.3-0.3-0.4l0,0c0-0.1,0-0.2-0.1-0.2v0h0c0,0-0.1,0,0-0.1
		c0,0,0-0.1,0-0.1c0,0,0,0,0,0c0-0.2-0.1-0.3-0.3-0.3c0-0.1-0.1-0.2-0.2-0.2c0-0.1-0.1-0.1-0.2-0.2c0,0,0,0,0-0.1
		C7,14.2,6.9,14.1,6.8,14c-0.1-0.1-0.2-0.1-0.3-0.2c0-0.1-0.1-0.1-0.2-0.1v0l-0.1-0.1c0-0.1-0.1,0-0.2-0.1c-0.1-0.1-0.2-0.1-0.4-0.1
		c0,0-0.1,0-0.1-0.1c0,0-0.1,0-0.1,0h0c-0.1,0-0.1,0-0.2,0c-0.1,0.1-0.2,0-0.3,0l-0.1,0c-0.2-0.1-0.5,0-0.7-0.1c-0.1,0-0.1,0-0.2,0
		c-0.4-0.1-0.7,0.2-1.1,0.3h0v0c-0.1,0-0.2,0.1-0.4,0.1h0v0c-0.1,0-0.2,0.1-0.3,0.1h0c-0.1,0-0.1,0.1-0.3,0.1
		c-0.2,0.1-0.4,0.3-0.5,0.6l0,0c0,0-0.1,0-0.1,0.1l0,0c0,0,0,0.1,0,0.1c-0.1,0-0.1,0.1-0.1,0.2c0,0.1,0,0.1-0.1,0.1S1,15,0.9,15
		c-0.1,0-0.1,0.2-0.2,0.2l0,0c0,0-0.1,0-0.1,0c0,0.2,0,0.4-0.2,0.5c0,0-0.1,0.1,0,0.1c-0.1,0.1-0.1,0.3-0.1,0.5
		c-0.1,0.2-0.1,0.3-0.1,0.5c0,0,0,0,0,0c0,0.2,0,0.5,0.1,0.7c0,0.1,0,0.3,0.1,0.4c0.1,0.1,0.2,0.3,0.2,0.4c0.1,0.1,0.1,0.3,0.1,0.4
		c0,0.1,0,0.2,0.1,0.2c0,0,0.1,0,0.1,0.1c0.1,0.2,0.3,0.3,0.4,0.5c0,0.1,0,0.1,0,0.2h0.1c0.1,0,0.1,0.1,0.1,0.2c0,0,0,0.1,0,0.1
		c0,0,0.1,0.1,0.1,0.1l0.1,0.1c0,0,0,0.1,0.1,0.1c0,0.1,0.1,0.1,0.2,0.1c0.5,0.4,1.1,0.7,1.7,1l0,0h0c0.1,0.1,0.3,0.1,0.5,0.1
		c0.2,0,0.3,0,0.5,0l0,0c0.1-0.1,0.2-0.1,0.3-0.1c0.1,0,0.2,0,0.4,0c0,0,0.1,0,0.1,0c0,0,0.1,0,0.1,0c0,0,0.1,0,0.1,0c0,0,0,0,0,0
		c0,0,0.1,0,0.1,0l0,0c0-0.1,0.1-0.1,0.1-0.1c0.1,0,0.1,0,0.1-0.1c0,0,0-0.1,0.1,0h0l0,0c0.1,0,0.2-0.1,0.3,0c0.1,0,0.1-0.1,0.2-0.1
		c0-0.1,0.1-0.1,0.2-0.2c0,0,0,0,0.1,0c0-0.2,0.2-0.2,0.3-0.3l0.1,0v-0.1h0l0-0.1h0v0l0.1,0l0,0C7.6,20.1,7.6,20,7.7,20v0
		c0,0,0,0,0-0.1c0.1,0,0.1-0.1,0.1-0.2c0-0.1,0-0.1,0.1-0.1h0v0H8c0-0.1,0.1-0.1,0.1-0.1l0.2-0.3l0.1,0v0l0,0l0,0c0,0,0-0.1,0-0.1
		c0-0.1,0-0.1,0.1-0.2c0.1,0,0.1-0.1,0.1-0.2c0.1-0.1,0.1-0.2,0.1-0.3c0-0.1,0-0.2,0.1-0.3c0-0.1,0.1-0.2,0.1-0.2v-0.2
		c0,0,0-0.1,0-0.1c0,0,0,0,0,0c0,0,0,0,0,0l0,0c0-0.1,0-0.1,0-0.2l0,0v0c0-0.1,0.1-0.1,0.2,0c0.1,0.1,0,0.3,0.1,0.4v0.2
		c0,0,0,0.1,0,0.1c0,0,0,0,0,0C9.2,18.2,9.1,18.6,9,19c0,0,0,0-0.1,0c0,0.1,0,0.1,0,0.2c0,0-0.1,0.1,0,0.1c0,0-0.1,0-0.1,0
		c0,0,0,0,0,0l0,0.1l-0.2,0.3c0,0,0,0.1,0,0.1l0,0c-0.1,0-0.1,0.1-0.1,0.1h0l0,0.1l0,0c0,0-0.1,0-0.1,0l0,0c0,0,0,0.1-0.1,0.1
		c0,0,0,0,0,0c0,0,0,0-0.1,0.1c0,0.1-0.1,0.2-0.2,0.3l0,0l0,0c-0.1,0.1-0.2,0.2-0.3,0.3c0,0-0.1,0-0.2,0.1c0,0.1-0.1,0.1-0.2,0.1
		c0,0,0,0.1-0.1,0.1c-0.1,0-0.1,0.1-0.2,0.1c0,0-0.1,0.1-0.1,0.1c-0.4,0.3-0.8,0.4-1.3,0.5c-0.2,0-0.4,0-0.6,0.1
		c-0.6,0-1.1,0-1.7-0.1c-0.2,0-0.3-0.1-0.4-0.2l-0.1-0.1c-0.1-0.1-0.2-0.2-0.4-0.2l-0.1-0.1c-0.1,0-0.3-0.1-0.4-0.2
		c-0.1-0.1-0.3-0.2-0.4-0.3c0-0.2-0.3-0.2-0.3-0.3c0,0,0,0-0.1,0c-0.1-0.1-0.2-0.2-0.3-0.3c-0.3-0.4-0.5-0.8-0.7-1.1
		C0.1,19,0,18.9,0,18.8c0-0.1-0.1-0.3-0.1-0.4c0,0,0,0,0-0.1c0-0.1-0.1-0.1-0.1-0.2l0,0c0-0.1,0-0.3,0-0.4c0-0.1,0-0.2,0-0.3
		c0,0,0-0.1,0-0.1l0,0l0-0.1c0-0.1,0-0.2,0-0.3l0,0v0c0-0.1,0-0.1,0-0.2c0-0.5,0.1-1.1,0.3-1.5l0-0.1c0-0.1,0-0.2,0.1-0.3
		c0,0,0-0.1,0-0.1l0.1-0.2c0.1,0,0.2-0.1,0.1-0.2l0.1-0.1c0.1,0,0.1-0.1,0.1-0.1s0.1,0,0.1-0.1c0.1-0.1,0.2-0.2,0.3-0.3
		c0.1-0.1,0.2-0.2,0.3-0.2c0.1,0,0.1-0.1,0.2-0.1c0.2,0,0.3-0.2,0.5-0.2c0,0,0,0,0.1,0c0,0,0,0,0,0c0.1,0,0.2-0.1,0.3-0.1
		c0,0,0.1,0,0.1,0c0.1,0,0.2-0.1,0.3-0.1c0.1,0,0.1,0,0.2-0.1c0.4-0.1,0.7-0.2,1-0.3c0,0,0.1,0,0.1,0c0,0,0,0,0,0c0.2,0,0.3,0,0.5,0
		c0.2,0,0.3,0,0.5,0.1l0.1,0c0.1,0.1,0.2,0,0.2,0.1l0,0c0.1,0,0.2,0,0.4,0c0.1,0,0.2,0.1,0.3,0.2c0.2,0.1,0.4,0.2,0.5,0.3v0.1l0,0h0
		c0.1,0,0.2,0.1,0.3,0.1c0.1,0.1,0.2,0.1,0.2,0.2l0.1,0c0.1,0,0.1,0.1,0.2,0.1c0.1,0,0.1,0.1,0.2,0.1C7.8,14,7.9,14.1,8,14.2
		c0.1,0.1,0.2,0.2,0.2,0.3l0,0.1c0.1,0,0.2,0.1,0.2,0.3l0,0.1c0,0,0.1,0,0,0.1c0,0.1,0.1,0.1,0.1,0.2c0,0,0,0,0,0.1c0,0,0,0,0,0
		c0,0.1,0.1,0.1,0.1,0.2c0,0,0,0,0,0.1c0,0,0.1,0.1,0.1,0.1c0,0,0,0,0,0.1c0,0,0,0.1,0,0.1c0,0,0,0,0,0.1c0,0.3,0.2,0.6,0.1,1
		C9,16.9,9.1,17,8.9,17.1z M9,17.5L9,17.5L9,17.5z M7.5,14.1L7.5,14.1L7.5,14.1L7.5,14.1C7.5,14.1,7.5,14.1,7.5,14.1L7.5,14.1z
		 M7.5,14.2L7.5,14.2C7.5,14.2,7.5,14.2,7.5,14.2z"/>
	<path class="st2" d="M9.2,17.1L9.2,17.1L9.2,17.1L9.2,17.1z"/>
	<circle class="st3" cx="29.3" cy="17.1" r="4.3"/>
	<path class="st4" d="M30.2,13.4"/>
	<path class="st4" d="M33.6,17.1L33.6,17.1C33.6,17,33.5,17,33.6,17.1c-0.1-0.1-0.1-0.2-0.1-0.2c0,0,0,0,0,0c-0.1-0.1,0-0.3-0.2-0.4
		c0,0,0-0.1,0-0.1c-0.1-0.1-0.2-0.2-0.2-0.4c0,0,0,0,0-0.1c-0.2-0.1-0.1-0.3-0.3-0.4l0,0c0-0.1,0-0.2-0.1-0.2v0h0c0,0-0.1,0,0-0.1
		c0,0,0-0.1,0-0.1c0,0,0,0,0,0c0-0.2-0.1-0.3-0.3-0.3c0-0.1-0.1-0.2-0.2-0.2c0-0.1-0.1-0.1-0.2-0.2c0,0,0,0,0-0.1
		c-0.1-0.1-0.2-0.1-0.3-0.2c-0.1-0.1-0.2-0.1-0.3-0.2c0-0.1-0.1-0.1-0.1-0.1v0l0,0c0-0.1-0.1,0-0.2-0.1c-0.1-0.1-0.2-0.1-0.4-0.1
		c0,0-0.1,0-0.1-0.1c0,0-0.1,0-0.1,0h0c-0.1,0-0.1,0-0.2,0c-0.1,0.1-0.3,0.1-0.3,0l-0.1,0c-0.2-0.1-0.5,0-0.7-0.1
		c-0.1,0-0.1,0-0.2,0c-0.4-0.1-0.7,0.2-1.1,0.3h0v0c-0.1,0-0.2,0.1-0.4,0.1h0v0c-0.1,0-0.2,0.1-0.3,0.1l0,0c-0.1,0-0.1,0.1-0.3,0.1
		c-0.2,0.1-0.4,0.3-0.5,0.5l0,0c0,0-0.1,0-0.1,0.1l0,0c0,0,0,0.1,0,0.1c-0.1,0-0.1,0.1-0.1,0.2c0,0.1,0,0.1-0.1,0.1S25.8,15,25.6,15
		c-0.1,0-0.1,0.2-0.2,0.2l0,0c0,0-0.1,0-0.1,0c0,0.2-0.1,0.4-0.2,0.5c0,0-0.1,0.1,0,0.1c0,0,0,0,0,0C25,16,24.9,16.2,25,16.3
		c-0.1,0.2-0.1,0.3,0,0.5c0,0,0,0,0,0c0,0.2,0,0.5,0.1,0.7c0,0.1,0,0.3,0.1,0.4c0.1,0.1,0.1,0.3,0.2,0.4c0.1,0.1,0.1,0.3,0.2,0.4
		c0,0.1,0,0.2,0.1,0.2c0,0,0.1,0,0.1,0.1c0.1,0.2,0.3,0.3,0.4,0.5c0,0.1,0,0.1,0,0.2h0c0.1,0,0.1,0.1,0.1,0.2c0,0,0,0.1,0,0.1
		c0,0,0.1,0.1,0.1,0.1c0,0,0.1,0.1,0.1,0.1c0,0,0,0.1,0.1,0.1c0,0.1,0.1,0.1,0.2,0.1c0.5,0.4,1.1,0.7,1.7,1l0,0h0
		c0.1,0.1,0.3,0.1,0.5,0.1c0.2,0,0.3,0,0.5,0l0,0c0.1-0.1,0.2-0.1,0.3-0.1c0.1,0,0.2,0,0.4,0c0,0,0.1,0,0.1,0c0,0,0.1,0,0.1,0
		c0,0,0.1,0,0.1,0c0,0,0,0,0,0c0,0,0.1,0,0.1,0l0,0c0-0.1,0.1-0.1,0.1-0.1c0.1,0,0.1,0,0.1-0.1c0,0,0-0.1,0.1,0h0l0,0
		c0.1,0,0.2-0.1,0.3,0c0.1,0,0.1-0.1,0.2-0.1c0-0.1,0.1-0.1,0.2-0.2c0,0,0,0,0.1,0c0-0.2,0.2-0.2,0.3-0.3l0.1,0v-0.1h0l0-0.1h0v-0.1
		l0.1,0l0,0c0.1-0.1,0.1-0.1,0.2-0.2v0c0,0,0,0-0.1-0.1c0.1,0,0.1-0.1,0.1-0.2c0-0.1,0-0.1,0.1-0.1h0v0h0.1c0-0.1,0.1-0.1,0.1-0.1
		l0.2-0.3l0.1,0v0l0,0l0,0c0,0,0,0,0-0.1c0-0.1,0-0.1,0.1-0.2c0.1,0,0.1-0.1,0.1-0.2c0.1-0.1,0.1-0.2,0.1-0.3c0-0.1,0-0.2,0.1-0.3
		c0-0.1,0.1-0.2,0.1-0.2v-0.2c0,0,0-0.1,0-0.1c0,0,0,0,0,0l0,0c0-0.1,0-0.1,0-0.2l0,0v0c0-0.1,0.1-0.1,0.2,0c0.1,0.1,0,0.3,0.1,0.4
		v0.2c0,0,0,0.1,0,0.1c0,0,0,0,0,0c-0.1,0.4-0.2,0.8-0.3,1.1c0,0,0,0-0.1,0c0,0.1,0,0.1,0,0.2c0,0-0.1,0.1,0,0.1c0,0-0.1,0-0.1,0
		c0,0,0,0,0,0c0,0,0,0,0,0.1l-0.2,0.3c0,0,0,0.1,0,0.1l0,0c-0.1,0-0.1,0.1-0.1,0.1h0l0,0.1l0,0c0,0-0.1,0-0.1,0l0,0
		c0,0,0,0.1-0.1,0.1l0,0c0,0,0,0-0.1,0.1c0,0.1-0.1,0.2-0.2,0.3l0,0l0,0c-0.1,0.1-0.2,0.2-0.3,0.3c0,0-0.1,0-0.2,0.1
		c0,0.1-0.1,0.1-0.2,0.1c0,0,0,0.1-0.1,0.1c-0.1,0-0.1,0.1-0.2,0.1c0,0-0.1,0.1-0.1,0.1c-0.4,0.3-0.8,0.4-1.3,0.5
		c-0.2,0-0.4,0-0.6,0.1c-0.6,0-1.1,0-1.7-0.1c-0.2,0-0.3-0.1-0.4-0.2l-0.1-0.1c-0.1-0.1-0.2-0.2-0.4-0.2L27,21.3
		c-0.2,0-0.3-0.1-0.4-0.2c-0.1-0.1-0.3-0.2-0.4-0.3c0-0.2-0.3-0.2-0.3-0.3c0,0,0,0-0.1,0c-0.1-0.1-0.2-0.2-0.3-0.3
		c-0.3-0.4-0.5-0.7-0.7-1.1c-0.1,0-0.1-0.1-0.1-0.2c0-0.1,0-0.3-0.1-0.4c0,0,0,0,0,0c0-0.1,0-0.1-0.1-0.2l0,0c0-0.1,0-0.3,0-0.4
		c0-0.1,0-0.2,0-0.3c0,0,0-0.1,0-0.1l0,0l0-0.1V17l0,0v0c0-0.1,0-0.1,0.1-0.2c-0.1-0.5,0.1-1.1,0.3-1.5l0-0.1c0-0.1,0-0.2,0.1-0.3
		c0,0,0-0.1,0-0.1l0.1-0.2c0.1,0,0.2-0.1,0.1-0.2l0.1-0.1c0.1,0,0.1-0.1,0.1-0.1s0.1,0,0.1-0.1c0.1-0.1,0.2-0.2,0.3-0.3
		c0.1-0.1,0.2-0.2,0.3-0.2c0.1,0,0.1-0.1,0.2-0.1c0.2,0,0.3-0.2,0.5-0.2c0,0,0.1,0,0.1,0c0,0,0,0,0,0c0.1,0,0.2-0.1,0.3-0.1
		c0,0,0.1,0,0.1,0c0.1,0,0.2-0.1,0.3-0.1c0.1,0,0.1,0,0.2-0.1c0.4-0.1,0.7-0.2,1-0.3c0,0,0.1,0,0.1,0c0.2,0,0.3,0,0.5,0
		c0.2,0,0.3,0,0.5,0.1l0.1,0c0.1,0.1,0.2,0,0.2,0.1l0.1,0c0.1,0,0.2,0,0.4,0c0.1,0,0.2,0.1,0.3,0.2c0.2,0.1,0.4,0.2,0.5,0.3v0.1l0,0
		h0c0.2,0,0.4,0.2,0.5,0.3l0.1,0c0.1,0,0.1,0.1,0.2,0.1c0.1,0,0.1,0.1,0.2,0.1c0.1,0.1,0.2,0.2,0.3,0.3c0.1,0.1,0.2,0.2,0.2,0.3
		l0,0.1c0.1,0,0.2,0.1,0.2,0.3l0,0.1c0,0,0.1,0,0,0.1c0,0.1,0.1,0.1,0.1,0.2c0,0,0,0,0,0.1c0,0,0,0,0,0c0,0.1,0.1,0.1,0.1,0.2
		c0,0,0,0,0,0.1c0,0.1,0.1,0.1,0.1,0.1c0,0,0,0,0,0c0,0,0,0,0,0c0,0,0,0.1,0,0.1c0,0,0,0,0,0.1c0,0.3,0.2,0.6,0.1,1
		C33.8,16.9,33.9,17,33.6,17.1z M32.3,14.1L32.3,14.1L32.3,14.1C32.3,14.1,32.3,14.1,32.3,14.1L32.3,14.1z M32.2,14.2L32.2,14.2
		C32.2,14.2,32.2,14.2,32.2,14.2L32.2,14.2z"/>
	<path class="st4" d="M34,17.1L34,17.1L34,17.1L34,17.1z"/>
	<line class="st5" x1="0.9" y1="14.6" x2="4.5" y2="6.3"/>
	<line class="st5" x1="8.2" y1="14.6" x2="4.6" y2="6.3"/>
	<line class="st5" x1="25.6" y1="14.8" x2="29.3" y2="6.5"/>
	<line class="st5" x1="33" y1="14.8" x2="29.3" y2="6.5"/>
	<g>
		<polygon class="st6" points="25.7,13.6 25.7,13.6 25.7,13.6 		"/>
		<polygon class="st6" points="25.8,13.6 25.8,13.6 25.7,13.6 		"/>
		<path class="st6" d="M32.7,14.6L32.7,14.6c-0.1-0.1-0.1-0.1-0.1-0.2c0-0.1-0.1-0.1-0.1-0.2c0,0,0,0,0-0.1c0,0,0-0.1,0-0.1h-0.1
			l0.1,0l-0.1-0.1c0,0,0-0.1,0-0.1l0.1,0v0c0.1-0.1,0.1,0,0-0.1c-0.1,0-0.1,0-0.1-0.1l-0.1,0l0-0.1l0.1,0l-0.1,0h-0.1l0.1,0
			c-0.1,0,0-0.1-0.1-0.1v0c0-0.1,0.1-0.1,0-0.1c0,0-0.1,0-0.1-0.1c0.1-0.1,0-0.1,0-0.1v0c0,0,0,0,0,0c0,0-0.1,0,0,0c0,0,0,0,0,0
			c-0.1,0,0,0,0,0c0,0,0,0,0,0s0,0,0,0v0c0-0.1,0-0.2-0.1-0.2c-0.1-0.1-0.2-0.2-0.2-0.3h0l0,0c0-0.2,0-0.5-0.2-0.7
			c0,0-0.1,0-0.1-0.1c0,0,0,0,0,0c0,0,0,0,0,0c0,0,0,0,0-0.1c0,0,0,0,0,0c0,0,0-0.1,0-0.1h0c0.1,0,0.1-0.1,0.1-0.1
			c0-0.1-0.1-0.1-0.1-0.2c0,0,0,0-0.1,0c-0.1,0,0,0-0.1-0.1c0-0.1-0.1-0.2-0.2-0.2c-0.1,0-0.1-0.1-0.1-0.1c-0.1,0-0.1-0.1-0.2-0.2
			c0,0,0,0,0,0c-0.1,0-0.1-0.1-0.1-0.1c0,0,0,0,0,0c0,0-0.1-0.1,0-0.1c0,0,0,0,0,0c0-0.1,0-0.1-0.1-0.1c0,0,0.1,0,0.1-0.1
			c0.1-0.1,0-0.1,0.1-0.1c0.1-0.1,0-0.1,0-0.1c0.1,0,0,0,0,0c0,0-0.1-0.1,0-0.1h0c-0.1,0,0,0,0,0c-0.1-0.1-0.2-0.1-0.1-0.2
			c0.1-0.1,0-0.1,0-0.1c0.1-0.1,0-0.1,0-0.1l0,0c0.1-0.1-0.1-0.1,0-0.2v0c0.1-0.2-0.2-0.2-0.1-0.4c0,0,0,0,0-0.1
			c0.1-0.1-0.1-0.1,0-0.3v0c0-0.1,0-0.1-0.1-0.1c-0.1,0-0.1,0-0.1,0h0c0,0,0,0,0,0c0,0,0,0,0-0.1l-0.1-0.1c0,0,0,0,0-0.1v0l0,0
			c0,0,0,0,0-0.1l-0.1-0.1c0-0.1,0-0.1-0.1-0.1l0,0c0,0,0,0,0-0.1c-0.1,0-0.1,0-0.1-0.1c-0.1,0-0.1-0.1-0.1-0.1c0,0,0,0,0,0
			c0,0,0,0,0,0h0c-0.1,0-0.1,0,0-0.1c-0.1,0,0-0.1-0.2-0.1l0,0c0-0.1,0-0.1-0.2-0.1c0,0,0,0,0,0c0,0,0,0,0,0c0-0.1,0-0.2,0-0.3
			c0-0.3,0-0.7,0-1.1c-0.3,0-0.7,0-1,0c0,0-0.1,0-0.1,0c-0.1,0-0.1,0-0.2,0c0,0-0.1,0-0.1,0c-0.1,0-0.2,0.1-0.3,0.1c0,0,0-0.1-0.1,0
			h-0.4c0,0-0.1,0-0.1,0c-0.1,0-0.3,0-0.4,0c0,0-0.1,0-0.1,0h-0.1c-0.2-0.1-0.4-0.1-0.6,0h-0.1c-0.5,0-1,0-1.5,0
			c-0.1,0-0.3,0.1-0.4,0.1h-0.6c-0.4-0.1-0.8-0.1-1.2,0l0,0l0,0l-0.1,0h-1.1c-0.5-0.1-0.9-0.1-1.4,0l-0.1,0c-0.2,0-0.3,0-0.5-0.1
			h-0.3c-0.1,0-0.1,0-0.2,0c0,0,0,0,0-0.1c0-0.1-0.1-0.2,0-0.3c0,0,0,0,0,0c-0.1,0-0.1,0-0.1,0h0V4.7c0,0,0,0,0,0c0,0,0,0,0-0.1
			s0,0,0,0v0c0.1,0,0.1-0.1,0-0.1v0c0.1-0.1,0-0.1,0-0.2c0,0,0,0-0.1-0.1V4.1c0.1-0.1,0.1-0.1,0-0.2h0.1V3.7c0,0,0,0,0,0
			c0-0.1,0-0.1-0.1-0.2v0c0,0,0,0,0-0.1v0c0.1-0.1-0.1-0.2,0-0.3c0,0,0,0,0,0c-0.1-0.1-0.2-0.2-0.2-0.3c0,0-0.1,0,0-0.1
			c0.1-0.1-0.1,0,0-0.1c0,0,0,0,0,0s0,0,0-0.1v0c0-0.1-0.1-0.1-0.1-0.2c0,0,0,0,0-0.1C18.1,2.1,18,2.1,18,2c0,0,0,0,0,0s0,0,0,0l0,0
			c-0.1,0.1-0.1,0-0.1,0l-0.1,0c0,0,0,0-0.1,0.1c0,0-0.1,0-0.1,0h0c-0.1-0.1-0.3-0.1-0.5,0c0,0,0,0-0.1,0v0h-0.1l0,0c0,0,0,0,0,0
			c0,0,0,0-0.1,0s-0.1,0.1-0.1,0c0,0,0,0,0,0.1c0,0,0,0,0,0c0,0-0.1,0-0.1,0c0,0-0.1,0-0.1,0C16.1,2,16,2.1,15.9,2.1
			c-0.1,0-0.1,0-0.1,0.1c0,0,0,0,0,0c-0.1-0.1-0.1,0.1-0.2,0c0,0-0.1,0.1-0.1,0.1c-0.1,0-0.1,0-0.1,0.1h0c0,0,0,0.1-0.1,0.1l0,0.1
			c-0.1,0-0.1,0.1-0.1,0.1C15,3,15,3.2,14.9,3.3c0,0.1,0,0.2,0,0.2c0,0.1-0.1,0.2,0,0.2c0,0.1,0,0.1,0,0.2c0,0,0,0,0,0
			c-0.1,0,0,0,0,0.1c0,0,0,0,0,0c0,0,0,0,0,0c0,0,0,0,0,0l0,0c0,0,0,0.1,0,0.1h0.1c-0.1,0,0,0.1,0,0.1v0.1h0c0,0,0,0,0,0
			c0,0,0.1,0,0.1,0v0.1c0,0-0.1,0-0.1,0c0,0,0,0,0,0c0,0,0,0,0,0h-0.1l0.1,0.1c0,0,0,0,0,0L15,5c0.1,0,0,0.1,0.1,0.1
			c0.1,0,0.1,0,0.2,0h0c0.1,0,0,0,0-0.1c0,0,0,0,0,0v0l0-0.1c0,0,0-0.1,0-0.1c0-0.1-0.1-0.1,0-0.2c0,0-0.1,0,0-0.1c0.1,0,0,0,0-0.1
			l-0.1,0h0.1V4.4c0,0,0,0,0-0.1h0.1c0.1,0,0,0,0,0c0,0,0,0,0-0.1h-0.1V4.2h0c0,0,0-0.1-0.1-0.1v0c0.1,0,0.1-0.1,0-0.1
			c0,0-0.1,0,0-0.1c0.1,0,0-0.1,0.1-0.1h0c0,0,0,0,0,0c0,0-0.1,0,0,0c0.1,0,0.1,0,0,0c0,0,0,0,0,0c0,0,0,0,0,0c0,0,0,0,0,0v0
			c0.1-0.1,0.1-0.1,0-0.2c0-0.1,0-0.2,0.1-0.3h0C15.8,3,15.9,2.9,16,2.8c0,0,0-0.1,0-0.1c0,0,0,0,0,0c0,0,0,0,0,0c0,0,0,0,0,0
			c0,0,0,0,0,0c0,0,0,0,0,0l0,0c0,0.1,0.1,0.1,0.1,0.1c0.1,0,0.1-0.1,0.1-0.1c0,0,0,0,0,0c0-0.1,0,0,0,0c0.1,0,0.2-0.1,0.2-0.1
			c0,0,0,0,0,0c0,0,0.1-0.1,0.1,0c0.1-0.1,0.1,0,0.2-0.1v0c0,0,0,0,0,0c0,0,0.1,0,0.1,0c0.1-0.1,0.1-0.1,0.1,0c0,0,0,0,0,0
			s0.1,0.1,0.2,0c0,0,0,0.1,0,0.1c0,0.1,0,0,0,0.1c0,0.1,0.1,0.1,0,0.1c0,0.1,0,0,0,0c0.1,0,0.1,0,0.1,0c0,0,0,0,0,0c0,0,0,0,0,0
			c0.1,0,0.2,0,0.2,0.1c-0.1,0.1,0.1,0,0,0.1c-0.1,0.1,0,0,0,0.1v0c-0.1,0.1,0.1,0,0,0.1c-0.1,0.1,0.2,0.1,0.1,0.2c0,0,0,0,0,0
			c-0.1,0.1,0.1,0.1,0,0.2v0.1c-0.1,0,0,0.1,0,0.1c0.1,0,0,0,0.1,0v0l0,0c0,0,0,0.1,0,0.1c0,0,0.1,0.1,0,0.1v0h0c0,0,0,0.1,0,0.1
			l0,0.1c0,0,0,0.1,0,0.1c0,0,0,0,0,0c0,0,0,0.1,0,0.1c0,0,0,0.1,0,0.1c0.1,0,0.1,0.1,0,0.1c0,0,0,0,0,0c0,0,0,0,0,0h0
			c0.1,0,0,0.1,0,0.1c0.1,0.1,0,0.1,0.1,0.2l0,0c0,0,0,0.1,0.1,0.1c0,0,0,0,0,0c0,0,0.1,0,0,0.1c-0.4,0-0.9,0.1-1.3,0
			c0,0-0.1,0-0.2,0c-0.7,0.1-1.3,0-2-0.1c-0.1,0-0.3,0-0.4,0c-0.2-0.1-0.4,0-0.6-0.1c0,0-0.1,0-0.1,0c-0.1-0.1-0.3,0-0.5-0.1
			c0,0-0.1,0-0.1,0c-0.3-0.1-0.6,0-0.9-0.1c-0.1,0-0.3,0-0.4,0c-0.4-0.1-0.9,0-1.4-0.1c-0.1,0-0.1,0-0.2,0c-0.1,0-0.2,0-0.2,0H9.7
			c-0.2,0.1-0.3,0.1-0.5,0H8.9c-0.1,0-0.1,0-0.1,0.1c-0.2,0-0.4,0-0.6,0H7.9C7,4.8,6.1,4.8,5.2,4.9c-0.2,0-0.4-0.1-0.6,0H4.5l-0.1,0
			H4.1v0.7l0,0.3v0c0,0.1,0,0.1,0,0.2c0,0.2,0,0.4,0,0.7c0,0,0,0,0,0l0,0.1c0,0,0,0,0,0c0,0,0,0.1,0,0.1c0,0,0,0,0,0v0C4,7,4,7,4,7
			v0C3.9,7.1,3.9,7.2,3.9,7.3c0,0,0,0.1,0,0.1l0,0.1v0c-0.1,0-0.1,0.1-0.1,0.2l0,0H3.7L3.7,7.8c0,0,0,0,0,0C3.6,7.9,3.6,8,3.6,8h0
			c0,0,0,0.1-0.1,0.1c0,0,0,0,0,0c-0.1,0,0,0.2-0.2,0.3c0,0,0,0,0,0c0,0.1,0,0.3-0.1,0.3c0,0,0,0.1,0,0.1C3,8.8,3.1,8.9,3,8.9
			c0,0,0,0,0,0c-0.1,0,0,0-0.1,0h0c-0.1,0,0,0.1-0.1,0.1c0,0,0,0.1,0,0.1c-0.2,0,0,0.2-0.2,0.2c0,0,0,0,0,0c0,0,0,0,0,0v0
			c0.1,0.1,0,0.1,0,0.1v0.1c0,0,0,0,0.1,0.1c0,0,0,0.1,0,0.1v0c-0.2,0.1-0.2,0.3-0.2,0.5c-0.1,0-0.1,0-0.1,0h0l-0.1,0.1v0
			c0,0-0.1,0,0,0c0,0,0,0,0,0.1c0,0,0,0.1-0.1,0.1c0,0,0,0,0,0.1h0c0,0,0,0.1-0.1,0.1c-0.1,0-0.1,0,0,0.1c0,0.1,0,0.3-0.1,0.4
			c-0.1,0-0.1,0.1-0.1,0.1l0,0c-0.1,0,0,0.1-0.1,0.1c0,0,0,0.1-0.1,0.1c0,0-0.1,0.1,0,0.1h0c0,0,0,0.1-0.1,0.1l0,0
			c-0.1,0-0.1,0.1-0.1,0.1c-0.1,0.1-0.1,0.3-0.2,0.5c0,0.1,0,0.1-0.1,0.2C1,12.7,1,12.9,0.9,13c0,0,0,0,0,0.1c-0.1,0-0.1,0-0.1,0.1
			c0,0,0,0,0,0c0,0,0,0,0,0c0,0,0,0,0,0.1l-0.1,0c0,0,0,0.1,0,0.1l0,0c-0.1,0,0,0.1,0,0.1v0c0,0,0,0,0,0l-0.1,0l0,0c0,0,0,0-0.1,0
			c0,0,0,0,0.1,0.1l-0.1,0.1v0h0c0,0-0.1,0-0.1,0c0,0,0,0,0,0c0,0,0,0,0,0.1H0.6c0,0.1-0.1,0.2-0.1,0.3c0,0,0,0,0,0v0.1
			c0.1,0.1,0,0.1,0.1,0.2c0.1,0,0.1,0.1,0.2,0.1h0c0.1,0,0.1,0,0.1-0.1c0,0,0,0,0,0l0-0.1v-0.1c0,0,0,0,0.1-0.1c0-0.1,0-0.1,0.1-0.2
			c0,0,0-0.1,0-0.1s0.1,0,0.1,0l0,0h0l0.1,0l0-0.1c0.1,0,0.1,0,0.1-0.1h0.1c0.1,0,0.1,0,0,0c0,0,0-0.1,0-0.1l-0.1,0l0-0.1h0.1
			l-0.1,0h0l0,0l0.1,0c0-0.1,0.1-0.1,0-0.2v0c0.1,0,0.1,0,0-0.1c0,0-0.1-0.1,0-0.1c0.1,0,0-0.1,0.1-0.1v0h0.1c0,0,0,0,0,0
			c0,0,0-0.1,0,0c0.1,0,0.1,0,0-0.1c0,0,0,0,0,0c0,0,0,0,0,0s0,0,0,0l0,0c0.1-0.1,0.2-0.1,0.1-0.2c0-0.1,0-0.2,0.1-0.3
			c0.2-0.1,0.4-0.3,0.4-0.6c0,0,0-0.1,0-0.1l0,0c0,0,0,0,0,0c0,0,0,0,0-0.1c0,0,0,0,0,0c0,0,0.1,0,0-0.1l0,0c0,0,0.1,0,0.1,0
			c0.1,0,0-0.2,0.1-0.2c0,0,0,0,0-0.1c-0.1-0.1,0-0.1,0-0.1c0.1-0.1,0.1-0.2,0-0.3c0,0,0,0,0,0c0,0,0-0.1,0-0.1
			c-0.1-0.1,0-0.2,0-0.2c0,0,0,0,0,0c0-0.1,0-0.1,0-0.2c0-0.1,0-0.1,0.1-0.2c0,0,0,0,0,0c0.1,0,0.1-0.1,0-0.2c0,0,0.1,0,0.1,0
			c0.1,0,0,0,0.1,0c0.1,0,0.1-0.1,0.1-0.1c0.1,0,0,0,0,0c0,0,0-0.1,0-0.1s0,0,0,0c0,0,0,0,0,0c0-0.1,0-0.2,0.1-0.3
			c0.1,0,0-0.1,0.1-0.1c0.1,0,0-0.1,0.1-0.1h0c0.1,0,0-0.1,0.1-0.1h0C4,9,3.9,8.8,4,8.7c0,0,0-0.1,0-0.1c0.1,0,0-0.2,0.2-0.2l0,0
			c0.1,0,0.1-0.1,0-0.1c0,0,0-0.1,0-0.1v0c0,0,0,0,0,0c0,0,0,0,0,0c0,0,0-0.1,0-0.1c0,0-0.1-0.1,0-0.1h0c0,0,0,0,0-0.1
			c0,0,0-0.1,0-0.1c0,0,0.1-0.1,0-0.1h0.1c0,0,0-0.1,0.1-0.1c0,0,0-0.1,0-0.1c0-0.1,0-0.1,0.1-0.2c0,0,0,0,0,0c0,0,0,0,0,0
			c0,0,0.1,0,0.1,0c0,0,0.1,0.1,0.1,0.1c0,0,0.1,0,0.1,0c0,0,0,0,0,0.1v0c0,0,0,0,0,0c0,0.1,0,0.1,0.1,0.1h0l0,0L5,7.8c0,0,0,0,0,0
			C5,7.9,5.1,8,5.2,8v0c0,0,0,0,0,0.1c0,0,0,0,0,0C5.1,8.3,5.3,8.3,5.2,8.5c0,0,0,0,0,0c0.1,0.1,0.2,0.2,0.2,0.3c0,0,0,0,0,0.1
			c-0.1,0.1,0,0.1,0,0.1c0,0,0,0,0,0c0,0.1,0,0.1,0,0.1c0,0,0,0,0,0c-0.1,0.1,0.1,0.1,0,0.2c0.1,0,0,0,0,0.1c-0.1,0.1,0.1,0.1,0,0.2
			c0,0,0,0,0,0c0,0,0.1,0,0,0l0,0c0.1,0,0.1,0,0,0.1l0,0c0,0,0,0,0.1,0c0,0,0,0.1,0.1,0.1v0c0,0.2,0.1,0.3,0.2,0.4c0,0,0,0,0,0
			c0,0,0,0.1,0,0.1l0,0c0,0,0,0.1,0,0.1h0l0,0c0.1,0,0,0,0,0.1c0,0,0.1,0.1,0,0.1c0,0,0.1,0,0.1,0c0,0,0,0,0,0c0,0,0.1,0.1,0,0.1
			c0,0,0,0.1,0,0.1c0.1,0.1,0.2,0.2,0.2,0.3c0,0.1,0,0.1,0.1,0.1h0c-0.1,0.1,0.1,0.1,0,0.2l0.1,0.1c0,0.1,0,0.1,0.1,0.1c0,0,0,0,0,0
			c0,0,0.1,0.1,0,0.1v0c0,0.1,0,0.1,0,0.1c0.1,0.2,0.2,0.3,0.2,0.5c0,0,0.1,0.1,0.1,0.2c0,0.2,0.1,0.2,0.2,0.4c0,0,0,0,0.1,0
			c-0.1,0,0,0.1,0,0.1c0,0,0,0,0.1,0c0,0,0,0,0,0c0,0,0,0,0,0.1c0,0,0,0,0,0.1s0,0.1,0.1,0.1l0.1,0c0,0,0,0.1,0,0.1v0c0,0,0,0,0,0
			l-0.1,0h0.1c0,0,0,0,0,0.1c0,0,0.1,0,0.1,0L7.4,14l0,0c0,0-0.1,0-0.1,0c0,0,0,0,0,0c0,0,0,0,0.1,0c0,0,0,0,0,0l0.2,0.3
			c0,0,0,0,0,0l0.1,0.1c0.1,0,0,0.1,0.2,0.1c0.1,0,0.1,0,0.2-0.1h0c0.1,0,0-0.1,0-0.1c0,0,0,0,0,0v0c0,0,0,0,0-0.1c0,0,0-0.1,0-0.1
			c0-0.1-0.1-0.1-0.1-0.2c0,0-0.1,0,0-0.1s0-0.1,0-0.1H7.9l0.1,0l-0.1-0.1c0,0,0-0.1,0-0.1l0.1,0h0l0,0c0.1,0,0.1,0,0,0
			c-0.1,0-0.1,0-0.1-0.1l-0.1,0l0-0.1l0.1,0h0l-0.1,0H7.7c0,0,0,0,0.1,0c-0.1,0,0-0.1-0.1-0.1v0c0,0,0.1-0.1,0-0.1
			c0,0-0.1,0-0.1-0.1c0.1-0.1,0-0.1,0-0.1c0,0,0,0,0,0c0,0-0.1,0,0,0c0,0,0,0,0,0c-0.1,0,0,0,0,0s0,0,0,0s0,0,0,0l0,0
			c0-0.1,0-0.2-0.1-0.2c-0.1-0.1-0.2-0.1-0.2-0.3h0c0-0.2,0-0.5-0.1-0.7c0,0-0.1,0-0.1-0.1c0,0,0,0,0,0c0,0,0,0,0,0c0,0,0,0,0-0.1
			c0,0,0,0,0,0c0,0,0-0.1,0-0.1h0c0.1,0,0.1-0.1,0.1-0.1c0-0.1-0.1-0.1-0.1-0.2c0,0,0,0-0.1,0c-0.1,0,0,0,0-0.1
			c0-0.1-0.1-0.2-0.2-0.2c-0.1,0-0.1-0.1-0.1-0.1c-0.1,0-0.1-0.1-0.2-0.2c0,0,0,0,0,0c-0.1,0-0.1-0.1-0.1-0.1
			c-0.1,0-0.1-0.1-0.1-0.1c0,0,0,0,0,0s0-0.1-0.1-0.1c0,0,0.1,0,0.1-0.1c0.1-0.1,0-0.1,0.1-0.1c0.1-0.1,0-0.1,0.1-0.1s0,0,0,0
			c0,0-0.1,0,0-0.1c0,0,0,0,0,0c-0.1,0,0,0,0,0C6,9.3,5.9,9.3,5.9,9.2C6,9.1,5.9,9.1,6,9C6.1,8.9,6,9,6,8.9l0,0
			c0.1-0.1-0.1-0.1,0-0.2h0l0,0c0.1-0.2-0.2-0.2-0.1-0.4c0,0,0,0,0,0c0,0,0,0,0-0.1C6,8.1,5.8,8.1,5.9,8v0c0-0.1,0-0.1-0.1-0.1
			c-0.1,0-0.1,0-0.1,0h0c0,0,0,0,0,0c0,0,0,0,0,0L5.6,7.6c0,0-0.1,0,0-0.1l0,0c0,0,0,0,0-0.1L5.5,7.3c0-0.1,0-0.1-0.1-0.1
			c0,0,0,0,0,0c0,0,0,0,0,0c0.2,0,0.5,0,0.7,0c0.1,0,0.3,0,0.4,0c0.8-0.1,1.6-0.1,2.3,0c0.3,0,0.6,0,0.8,0c0,0,0,0,0.1-0.1
			c0.2,0.1,0.5,0,0.8,0.1h0.8c0.3,0.1,0.5,0.1,0.8,0l0.2,0c0.2,0,0.5,0,0.7,0l0.2,0c0.3,0,0.5,0.1,0.8,0c0.4,0,0.7,0,1.1,0
			c0,0.4,0,0.8,0,1.2c0,0.1,0,0.2,0,0.3c0,0,0,0.1,0,0.1c0.1,0.1,0.1,0.2,0.1,0.3c0,0,0,0,0,0.1v0.4c0,0,0,0.1,0,0.1
			c0,0.1,0,0.3,0,0.4c0,0,0,0.1,0,0.1v0.1c-0.1,0.2-0.1,0.4,0,0.5v0.1c0,0.5,0,0.9,0,1.4c0,0.1,0,0.3,0.1,0.4v0.5
			c-0.1,0.4-0.1,0.7,0,1.1l0,0l0,0l0,0.1v1.1c-0.1,0.4-0.1,0.8,0,1.3v0.1c0,0.2,0,0.3-0.1,0.5l0,0.2c-0.1,0.6,0.1,1.1-0.1,1.7
			c0,0,0,0.1,0,0.2c0.1,0.6,0.1,1.3,0,1.9c0,0.1,0,0.2,0,0.4c-0.1,0.2,0,0.4-0.1,0.6c0,0,0,0.1,0,0.1c-0.1,0.1,0,0.3-0.1,0.4
			c0,0,0,0.1,0,0.1c-0.1,0.3,0,0.6-0.1,0.9c0,0.1,0,0.2,0,0.3c-0.1,0.4,0,0.9-0.1,1.3c0,0,0,0.1,0,0.2c0,0.1,0,0.2,0,0.2v0.2
			c0.1,0.1,0.1,0.3,0,0.5v0.3c0,0,0,0.1,0.1,0.1c0,0.2,0,0.4,0,0.6v0.1c0,0.3,0,0.6,0,0.8V29c0,0,0,0,0,0c0,0,0,0-0.1,0
			c0,0-0.1,0-0.1,0h-0.1c0,0,0,0,0,0c-0.1,0.1-0.1,0-0.2,0h-0.1c0,0,0,0-0.1,0.1c-0.1,0-0.2,0-0.3,0h-0.1c-0.2,0-0.4,0-0.6,0H13
			c-0.2,0-0.3,0-0.4,0.1c-0.1,0-0.2-0.1-0.3,0h0l-0.1,0h-0.1v0.3l0,0.2c0,0,0,0.1,0,0.1c0,0.1,0,0.2,0,0.3v0.2c0,0,0,0.1,0,0.1
			c0,0,0,0.1,0,0.1c0,0,0,0,0,0c0,0.1,0,0.2,0,0.3c0,0.1,0,0.1,0,0.2c0,0.1,0,0.1,0,0.2c0,0.1,0,0.2,0,0.3v0.7h0.3
			c0.2,0,0.4,0,0.6,0c0,0,0,0,0,0c0.1,0,0.1,0.1,0.2,0.1c0.1,0,0.1,0,0.2,0h0.3c0.1,0.1,0.2,0.1,0.3,0l0.1,0c0.1,0,0.2,0,0.3,0h0.1
			c0.1,0.1,0.2,0,0.3,0c0.4,0,0.8,0,1.2,0c0.2,0,0.3,0,0.5,0c0.3,0,0.7,0,1,0c0,0,0.1,0,0.1,0c0.1,0.1,0.1,0,0.2,0c0,0,0,0,0.1,0
			c0,0,0.1,0,0.2,0l0.1,0c0.1,0,0.2,0,0.3,0v-0.1c0.1,0,0.2,0,0.2,0h0.1c0,0,0,0,0,0c0,0,0,0,0.1,0c0,0,0,0.1,0,0.1h0l0-0.1
			c0,0,0.1,0,0.1,0c0,0,0.1,0,0.1-0.1l0.3,0h0.1c0,0,0,0.1,0,0.1c0,0,0.1,0,0.1,0c0,0,0.1,0,0.1,0c0,0,0,0,0,0.1l0.9,0
			c0,0,0,0,0.1,0l0.2,0c0.1-0.1,0.2,0,0.3-0.1c0-0.1,0-0.2,0-0.2h0v0c-0.1-0.1-0.1,0-0.2,0c0,0,0,0,0,0h-0.1l-0.2,0
			c-0.1,0-0.1,0-0.2,0c-0.2,0-0.3,0.1-0.5,0c0,0-0.1,0-0.2,0c0-0.1-0.1,0-0.2,0c0,0,0,0,0,0.1h-0.1v-0.1h-0.3c0,0-0.1,0-0.2,0l0-0.1
			h0l0,0c0-0.1-0.1-0.1-0.1,0c-0.1,0-0.1,0-0.2,0c0,0,0,0.1,0,0.1h-0.2c0,0,0,0,0-0.1h0l0,0.1h0l0,0v0c0,0,0-0.1,0-0.1
			c-0.1,0-0.3,0-0.4,0.1h-0.1c-0.1-0.1-0.2-0.1-0.2,0c-0.1,0-0.1,0.1-0.2,0c-0.1-0.1-0.2,0-0.3-0.1h0l0,0c0,0,0,0-0.1,0c0,0,0,0,0,0
			c0,0-0.1,0-0.1,0c0-0.1-0.1-0.1-0.1,0c0,0-0.1,0-0.1,0c0,0-0.1,0-0.1,0s-0.1,0-0.1,0h-0.1c-0.2-0.1-0.4-0.1-0.6,0
			c-0.2,0.1-0.5,0.1-0.8,0l0,0l0,0c-0.5-0.1-1.1-0.2-1.6-0.1c-0.1,0-0.1,0.1-0.2,0c0,0-0.1,0-0.1,0c0,0-0.1,0-0.1,0c0,0-0.1,0-0.1,0
			c0,0,0,0-0.1,0c0,0,0,0-0.1,0l-0.1,0c0,0,0-0.1,0-0.1v0c0-0.1,0-0.1,0-0.2c0-0.1,0-0.1,0-0.2c0,0,0-0.1,0-0.1
			c-0.1-0.1,0-0.1,0-0.2c0-0.2,0-0.5-0.1-0.7c0-0.1-0.1-0.2,0-0.3c0-0.1-0.1-0.3-0.1-0.4c0.1,0,0.1,0,0.2,0c0,0,0,0,0.1,0
			c0.1-0.1,0.3-0.1,0.4,0c0.1-0.1,0.3-0.1,0.4,0c0,0,0.1,0,0.1,0c0.1,0.1,0.3,0.1,0.4,0c0,0.1,0,0.1,0.1,0.1c0.1,0.1,0.1,0,0.2,0.1
			c0.1,0.1,0.2,0,0.2,0.1c0,0.1,0.1,0.1,0.1,0c0.1,0,0.1,0,0.2,0c0,0,0.1,0,0.1,0c0,0,0,0,0,0v0.3c0.5,0,1.1,0,1.3-0.1
			c0.1,0,0.2,0,0.3,0v0c0.2,0.1,0.4,0.1,0.6,0h0.1l0.1,0c0.1,0,0.2,0,0.3,0c0.1,0,0.1,0,0.2,0c0.2,0.1,0.4-0.1,0.6,0.1h0.1
			c0.1,0.1,0.2,0.1,0.3,0c0-0.1,0.1,0,0.1-0.1h0c0,0,0.1,0,0.1,0c0,0,0.1,0,0.1,0h0.4c0,0,0.1-0.1,0.2,0h0l0,0c0,0,0.1,0,0.2,0
			l0.3,0c0.1,0,0.2,0,0.3,0c0,0,0,0,0.1,0h0v0c0,0,0.1,0,0,0c0,0,0,0,0.1-0.1c0,0,0,0,0,0.1h0c0.1,0,0.1,0,0.1,0c0,0,0,0.1,0,0.1
			c0.1,0.1,0,0.3,0.1,0.5v0.1c0,0.1,0,0.3,0.1,0.4c0,0,0.1,0.1,0,0.1c0.1,0.1,0,0.3,0.1,0.4c0,0,0,0,0,0c0,0,0,0.1,0,0.1
			c0,0,0.1,0.1,0.1,0.1c0.3,0,0.1-0.1,0.1-0.2c0-0.3,0-0.5,0-0.8c0,0,0,0,0,0c0,0,0,0,0,0c0,0,0-0.1,0-0.1c0,0,0,0,0,0c0,0,0,0,0,0
			c0,0-0.1-0.1-0.1-0.1c0,0,0,0,0,0v-0.2c0,0,0-0.1,0-0.1c0-0.1,0-0.1,0-0.2c0,0,0-0.1,0-0.1v-0.1c0.1-0.1,0.1-0.2,0-0.3v-0.1
			c0-0.1,0-0.1,0-0.2c-0.2,0-0.4,0-0.6,0c-0.1,0-0.1,0-0.2,0.1h-0.2c-0.2-0.1-0.3-0.1-0.5,0l0,0l0,0h-0.5c-0.2-0.1-0.3-0.1-0.5,0
			c0-0.1,0-0.3,0-0.4c0,0,0,0,0-0.1c0-0.2,0-0.5,0-0.7c0-0.1,0-0.3,0-0.4c-0.1-0.7-0.1-1.5,0-2.2c0-0.3,0-0.5,0-0.8c0,0,0,0,0-0.1
			c0.1-0.2,0-0.5,0.1-0.7v-0.8c0.1-0.2,0.1-0.5,0-0.7l0-0.2c0-0.2,0-0.5,0-0.7v-0.2c0-0.3,0-0.5,0-0.8c0-0.9-0.1-1.8,0-2.7
			c0-0.3,0-0.7,0-1c0-0.7,0-1.5,0-2.2c0-0.1,0-0.2,0-0.2c0-0.1,0-0.3,0-0.4c0-0.1,0-0.1,0-0.2c0-0.1,0-0.2,0-0.3l0-0.3
			c0-0.3,0-0.5,0-0.8l-0.1,0c0-0.2,0-0.4,0-0.5v-0.1c0,0,0-0.1,0-0.1c0,0,0,0,0.1-0.1v0l-0.1-0.1v0c0-0.1,0-0.2,0-0.3
			c0-0.1,0-0.1-0.1-0.2v-0.7c0,0,0-0.1,0-0.1c0,0,0.1-0.1,0.1-0.1c0-0.1,0-0.1,0-0.2c0-0.1,0-0.2,0-0.3c0,0,0,0,0.1-0.1l0-1.9
			c0,0,0-0.1,0-0.1l0-0.2c0.6,0,1.1,0,1.7,0c0.1,0,0.2,0,0.3,0c0.2,0,0.3,0,0.5,0c0.1,0,0.1,0,0.2,0c0.1,0,0.2,0,0.4,0l0.3,0
			c0.3,0,0.6,0,0.8,0c0,0,0,0,0-0.1c0.2,0,0.4,0,0.6,0h0.1c0,0,0.1,0,0.1,0c0,0,0.1,0,0.1,0.1H24L24,7.2h0c0.1,0,0.2,0,0.3,0
			c0.1,0,0.1,0,0.2-0.1h0.8c0,0,0.1,0,0.1,0c0,0,0.1,0.1,0.1,0.1c0.1,0,0.1,0,0.2,0c0.1,0,0.2,0,0.3,0c0,0,0,0.1,0.1,0.1l2,0
			c0,0,0.1,0,0.1,0l0.4,0c0,0,0.1,0,0.1,0c0,0,0,0,0,0c0,0.1,0,0.1,0,0.1c0,0,0,0.1,0,0.1c0,0.1-0.1,0.2-0.1,0.2
			c-0.1,0-0.1,0.1-0.1,0.1l0.1,0c-0.2,0-0.1,0.2-0.2,0.3l0,0.1c-0.1,0,0,0.1-0.2,0.2c0,0,0,0,0,0c0,0.1,0,0.2-0.1,0.2c0,0,0,0,0,0
			c0,0,0,0.1-0.1,0.1c0,0-0.1,0,0,0h0c0,0,0,0.1-0.1,0.1c0,0.1,0,0.1-0.1,0.1c-0.2,0.1-0.1,0.3-0.2,0.4c0,0,0,0,0,0.1c0,0,0,0,0,0.1
			c0,0,0,0,0,0c0,0,0,0,0,0.1l0,0.1c-0.1,0-0.1,0-0.1,0c0,0,0,0,0,0l-0.1,0c0,0.1,0,0.1-0.1,0.2c0,0,0,0,0.1,0h-0.1
			c0.1,0.1,0,0.1,0,0.1c0,0,0,0,0,0c0,0.1,0,0.1,0,0.1c0,0,0,0.1,0,0.1c0,0,0,0,0,0c-0.1,0,0,0,0,0c0,0,0,0,0,0c0,0,0,0,0.1,0.1
			h-0.1c-0.1,0.1-0.1,0.2-0.2,0.3c0,0-0.1,0-0.1,0c0,0,0,0,0,0c0,0,0,0,0,0h0c0,0-0.1,0,0,0.1c0,0,0,0,0,0c0,0,0,0,0,0
			c-0.1,0-0.1,0.1-0.1,0.2c0,0.1,0,0.1,0,0.1l0,0h0c-0.2,0,0,0.2-0.2,0.2c0,0,0,0,0.1,0.1c0,0,0,0-0.1,0c0,0,0,0-0.1,0.1
			c-0.1,0-0.1,0.1-0.1,0.2l0,0v0h-0.1c0,0.1-0.1,0.2-0.1,0.3l0,0.1c0.1,0.1,0,0.1,0,0.2c0,0,0,0,0,0.1c0,0,0,0,0,0
			c0,0.1-0.1,0.1,0,0.2c0.1,0.1,0,0.1,0,0.1h0c0,0,0,0,0,0.1l0,0c-0.1,0.1-0.2,0.3-0.2,0.4c0,0,0,0,0,0c0.1,0.1,0,0.1,0,0.1h0
			c0,0,0,0,0,0.1c-0.1,0,0,0-0.1,0.1c0,0,0,0,0,0.1c0,0,0,0,0,0c0,0,0,0,0,0.1l0,0l0,0c0,0,0,0,0,0c0,0,0,0,0,0c0,0,0,0,0,0
			c0.1,0.1-0.1,0.1,0,0.2v0c0,0,0,0,0,0l0,0.2c0,0,0,0,0.1,0v0.1h-0.1v0c0,0,0,0,0,0.1c0,0,0,0.1,0,0.1c0,0,0,0,0,0s0,0,0,0.1
			c0.1,0.1,0.1,0.1,0.2,0.1h0c0,0,0.1,0,0.2,0c0.1,0,0.1,0,0.1,0h0c0.1,0,0.1-0.1,0.1-0.1c0,0,0-0.1,0-0.1c0,0,0,0,0,0l0,0
			c0,0,0.1,0,0.1,0v0c0,0,0,0,0,0c0,0,0,0,0,0h0.1c0,0,0,0,0,0c0,0,0,0,0,0v0c0,0,0,0,0,0s0,0,0,0h0.1c0.1,0,0-0.1,0-0.1l0,0
			c0-0.1,0-0.1,0-0.1h0c0,0,0,0,0,0h0c0,0,0,0-0.1-0.1c0.1,0,0,0,0.1-0.1l-0.1,0c0.2,0,0.2-0.1,0.1-0.3c0,0,0,0,0,0
			c0,0,0.1-0.1,0-0.1h0c0-0.1,0-0.2,0.1-0.2h0c0,0,0,0,0,0h0c-0.1-0.1,0-0.1-0.1-0.1l0,0c0.1,0,0.1-0.1,0.1-0.2c0,0,0,0,0,0
			c0.1,0,0.1,0,0-0.1c0.1,0,0.1,0,0.1,0h0c0,0,0.1,0,0-0.1c0,0,0,0,0,0c0.1,0,0.1,0,0-0.1c0,0,0,0,0,0c0.1,0,0.1-0.2,0.1-0.2
			c0-0.1,0-0.1,0-0.1c0,0,0,0,0,0c0.1,0,0.1-0.1,0.1-0.2c0,0,0,0,0.1,0c0.1,0,0-0.1,0.1-0.1h0l0,0l0,0c0,0,0-0.1,0-0.1h0
			c0,0,0-0.1,0-0.1c0.1,0,0.1,0,0-0.1v0c0,0,0,0,0,0h0l0,0v-0.1c0.1,0,0,0,0-0.1s0,0,0,0c0,0,0.1,0,0,0c-0.1,0,0-0.1,0-0.1h0.1
			c0,0,0,0,0,0c-0.1,0,0,0,0,0c0,0,0,0,0,0c0,0,0,0,0,0v0h0.1c0,0,0,0,0,0c0,0,0,0-0.1-0.1h0.1l0,0c0,0,0,0,0,0l0,0c0,0,0,0,0,0
			c0.1,0,0.1,0,0-0.1l0,0h0c0,0,0,0,0,0c0,0,0,0,0,0c0.1,0,0-0.1,0.1-0.1c0,0,0,0,0.1,0c0,0,0,0,0,0c0,0,0,0-0.1-0.1l0.1,0
			c0.1,0,0.2,0,0.1-0.1c0-0.1,0-0.2,0.1-0.3c0,0,0,0,0,0h0.1c0,0,0,0,0-0.1c0,0,0,0,0.1,0h0c0.1,0,0.1,0,0-0.1V9.8
			c0.1,0,0.1,0,0-0.1c0,0,0,0,0,0c0-0.1,0-0.1,0-0.1h0c0.2,0,0-0.1,0.2-0.1h0c-0.1-0.1,0.1-0.1,0-0.2c0-0.1,0-0.3,0.1-0.3
			c0,0-0.1-0.1,0-0.1c0.1,0,0.1-0.1,0.1-0.1c0,0,0,0,0,0c0,0,0,0-0.1,0c0.1,0,0-0.2,0.2-0.2h0C29,8.3,29,8.1,29,7.9c0,0,0.1,0,0.1,0
			c0.1-0.2,0.2-0.4,0.3-0.7c0,0,0-0.1,0.1-0.1c0,0,0.1-0.1,0-0.1c0,0,0,0,0-0.1c0,0,0,0.1,0,0.1c0,0,0,0,0,0c0,0,0,0,0.1,0
			c0,0,0,0,0,0c0,0,0.1,0.1,0,0.1c0,0,0,0,0,0c0,0,0.1,0,0,0.1c0,0,0,0,0,0v0c0,0.1,0,0.1,0,0.1v0c0,0.1,0.1,0.2,0.1,0.2
			c0,0,0.1,0,0.1,0c0,0,0,0,0,0.1v0c0,0,0,0,0,0c0,0.1,0,0.1,0.1,0.1h0l0,0l0.1,0.2c0,0,0,0,0,0c0,0.1,0,0.2,0.1,0.2v0
			c0,0,0,0,0,0.1v0c-0.1,0.1,0.1,0.2,0.1,0.3c0,0,0,0,0,0c0.1,0.1,0.2,0.2,0.2,0.3c0,0,0,0,0,0.1c-0.1,0.1,0,0.1,0,0.1c0,0,0,0,0,0
			c0,0,0,0,0,0.1c0,0,0,0,0,0c-0.1,0.1,0.1,0.1,0,0.2c0.1,0,0,0,0,0.1c-0.1,0.1,0.1,0.1,0,0.2c0,0,0,0,0,0c0,0,0,0,0,0l0,0
			c0.1,0,0.1,0,0,0.1l0,0.1c0,0,0,0,0.1,0c0,0.1,0,0.1,0.1,0.1v0c0,0.2,0.1,0.3,0.2,0.4c0,0,0,0.1,0,0.1l0,0c0,0,0,0.1,0,0.1
			l0.1,0.1c0,0,0,0,0,0c0.1,0,0,0,0,0.1s0,0.1,0,0.1c0,0,0.1,0,0.1,0c0,0,0,0,0,0c0,0-0.1,0-0.1,0c0,0,0,0.1,0,0.1
			c0.1,0.1,0.2,0.2,0.2,0.3c0,0.1,0,0.1,0.1,0.1h0.1c-0.1,0.1,0,0.1,0,0.2l0.1,0.1c0,0.1,0,0.1,0.1,0.1v0c0,0,0.1,0.1,0,0.1v0
			c0,0.1,0,0.1,0,0.1c0.1,0.2,0.2,0.3,0.2,0.5c0.1,0,0.1,0.1,0.1,0.2c0,0.2,0.1,0.2,0.2,0.4c0,0,0,0,0.1,0c-0.1,0,0,0.1,0,0.1
			c0,0,0,0,0.1,0c0,0,0,0,0,0c0,0,0,0,0,0.1c0,0,0,0,0,0.1c0,0,0,0.1,0.1,0.1l0.1,0c0,0,0,0,0,0c0,0,0,0.1,0.1,0v0l-0.1,0l0.1,0
			c0,0,0,0,0,0.1c0,0,0.1,0,0.1,0c0,0,0,0.1,0.1,0.1v0c0,0,0,0-0.1,0c0,0,0,0,0,0c0,0,0,0,0.1,0c0,0,0,0,0,0
			c0.1,0.1,0.1,0.2,0.2,0.3c0,0,0,0,0,0l0.1,0.1c0.1,0,0,0.1,0.2,0.1c0.1,0,0.1,0,0.2-0.1C32.7,14.7,32.7,14.7,32.7,14.6
			C32.7,14.6,32.7,14.6,32.7,14.6L32.7,14.6z M20.8,29.7C20.8,29.7,20.8,29.7,20.8,29.7L20.8,29.7z M25.8,13.6L25.8,13.6
			C25.8,13.5,25.8,13.5,25.8,13.6C25.8,13.6,25.8,13.6,25.8,13.6z M4.2,7.4L4.2,7.4C4.2,7.4,4.2,7.4,4.2,7.4L4.2,7.4z M15.4,29.5
			C15.4,29.5,15.4,29.5,15.4,29.5L15.4,29.5z M18.5,7.7c0,0.2,0,0.3,0,0.5c0,0.4,0,0.7,0,1.1c0,0.1,0,0.2,0,0.3c0,0.1-0.1,0.2,0,0.3
			c0,0,0,0.1,0.1,0.1v0.2c0,0-0.1,0-0.1,0v0.7c0,0.1,0,0.2,0,0.4l-0.1,0.1v0.1l0,0.1c-0.1,0.1-0.1,0.2,0,0.3c0,0.1,0.1,0.3,0,0.4
			c0,0,0.1,0,0.1,0v0.5c0,0,0,0.1-0.1,0.1v0.1l0.1,0.1v0.1l0.1,0l0,0c0,0-0.1,0.1-0.1,0.1c0,0.3,0,0.6,0.1,0.8V14
			c-0.1,0.2-0.1,0.4,0,0.5c0,0.2,0.1,0.3,0,0.5c-0.1,0.2,0,0.4-0.1,0.6v0.1l0,0c0,0,0,0.1,0,0.1c0,0.1,0,0.2,0,0.3
			c-0.1,0.1-0.1,0.2,0,0.3c0,0.1,0,0.1,0,0.2c0,0.1,0,0.1,0,0.2c0,0.1,0,0.1,0,0.2v0.2c-0.1,0.5-0.1,0.9,0,1.4
			c0.1,0.6,0.1,1.1,0,1.7v0.1l0,0c-0.1,1.2-0.2,2.4-0.1,3.6c0,0.1,0,0.2,0,0.4c0,0.1,0,0.1,0,0.2v0.2c0,0.1,0,0.2,0,0.3
			c0,0.1,0,0.1-0.1,0.2c0,0.1,0,0.2,0,0.4c0,0,0,0,0,0c-0.1,0.1-0.1,0.2-0.1,0.3c0,0.4,0,0.8,0,1.2c0,0.1,0,0.1,0,0.2
			c0.1,0.1,0,0.3,0,0.4v0.8c0,0.2,0,0.4,0,0.6c-0.2,0-0.4,0.1-0.6,0c0,0,0,0-0.1,0c-0.3,0.1-0.6,0.1-0.8,0c0,0-0.1,0-0.2,0
			c-0.1-0.1-0.2,0-0.3-0.1c0,0,0,0.1-0.1,0c-0.1-0.1-0.1,0-0.2-0.1c0,0,0,0,0,0c-0.1-0.1-0.3,0-0.4-0.1c0,0,0,0,0,0c0,0-0.1,0-0.2,0
			c-0.1-0.1-0.2,0-0.3,0c0-0.1,0-0.2,0-0.3c0-0.1,0-0.1,0-0.2c0.1-0.3,0.1-0.6,0-0.9c0.1,0,0.1-0.1,0.1-0.2c0.1-0.1,0-0.3,0.1-0.4
			c0.1-0.1,0-0.4,0.1-0.5c0.1-0.1,0.1-0.2,0-0.3c0-0.1,0-0.3,0-0.4c0,0,0,0,0,0c0,0,0-0.1,0-0.1c0-0.1,0-0.1,0-0.2
			c-0.1-0.5-0.1-1,0-1.4c0.1-0.2,0-0.4,0.1-0.5c0.1-0.2,0-0.4,0.1-0.6v0l0,0c0.1-0.2,0-0.5,0.1-0.7v0l0,0c0.1-0.8-0.1-1.6,0.1-2.4
			c0-0.1,0-0.3,0-0.4c0.1-0.5-0.1-0.9,0.1-1.4v-0.3c0.1-0.2,0.1-0.5,0-0.7c-0.1-0.1,0-0.2-0.1-0.3c0,0,0-0.1,0-0.1
			c0-0.1,0-0.1,0-0.2c0-0.1,0-0.2,0-0.2v-0.8c0-0.1-0.1-0.2,0-0.3v-0.1c0,0,0,0,0,0c0-0.1,0-0.3,0-0.4l-0.1-0.7c0-0.3,0-0.5,0-0.8
			c0,0,0-0.1,0-0.1c0-0.2,0-0.4,0-0.5c0-0.2,0-0.4,0-0.6c-0.1-0.3-0.1-0.6,0-0.9c0-0.1,0-0.1,0-0.2c0,0,0,0,0,0c0,0,0-0.1,0-0.1
			l0-0.1v-0.1c-0.1-0.2-0.1-0.3,0-0.5c-0.1-0.3,0-0.7-0.1-1l0-0.1c0-0.3,0-0.6-0.1-0.8c0-0.1,0-0.2,0-0.2c0-0.1,0-0.2,0-0.3
			c0.5,0,1,0,1.5,0c0.4,0,0.7,0,1.1,0c0.1,0,0.2,0,0.3,0L18.5,7.7z M28.5,6.8l-0.4,0c-0.2,0-0.3,0-0.5,0c-0.4,0-0.8,0-1.2,0
			c-0.1,0-0.3,0-0.4,0c-0.1,0-0.2-0.1-0.4,0c0,0-0.1,0-0.1,0.1h-0.1l-0.1,0h-0.1c0,0,0-0.1,0-0.1h-0.7c-0.1,0-0.3,0-0.4,0l-0.1-0.1
			l0,0.1l-0.1,0c-0.1-0.1-0.2-0.1-0.3,0c-0.1,0-0.3,0.1-0.4,0c0,0,0,0.1,0,0.1h-0.5c0,0-0.1,0-0.1-0.1h-0.1l-0.1,0.1h-0.1l0,0l0,0
			c0,0-0.1-0.1-0.1-0.1c-0.3,0-0.6,0-0.9,0.1h-0.1c-0.2-0.1-0.4-0.1-0.5,0c-0.2,0-0.3,0.1-0.5,0c-0.2-0.1-0.4,0-0.6-0.1h-0.1l0,0
			c0,0,0,0,0,0c0,0-0.1,0-0.1,0c-0.1,0-0.2,0-0.3,0c-0.1,0-0.1,0-0.2,0c0-0.1,0-0.2-0.1-0.2c-0.1-0.1-0.2-0.1-0.2,0v0l0,0
			c0,0,0,0.1,0,0.1c-0.1,0-0.1,0-0.2,0c-0.1,0-0.2,0-0.2,0h-0.3c-0.5-0.1-1-0.1-1.5,0c-0.3,0-0.6,0.1-0.9,0.1c0,0,0-0.1,0-0.1
			c0-0.1,0-0.1,0-0.2c0-0.1,0-0.1-0.1-0.2c-0.3,0-0.1,0.3-0.1,0.5c0,0,0,0.1,0,0.1c-0.2,0-0.5,0-0.7,0h-0.1l-0.1-0.1
			c-1.3-0.1-2.6-0.2-3.9-0.1c-0.1,0-0.3,0-0.4,0c-0.1,0-0.1,0-0.2,0H9.7c-0.1,0-0.2,0-0.3,0c-0.1,0-0.1,0-0.2,0c-0.1,0-0.3,0-0.4,0
			l0,0C8.6,6.5,8.5,6.5,8.4,6.5c-0.4,0-0.9,0-1.3,0c-0.1,0-0.2,0-0.2,0c-0.1,0.1-0.3,0-0.4,0c-0.4,0-0.8,0-1.2,0
			c-0.1,0,0-0.1-0.1-0.1h0c0-0.1,0-0.1-0.2-0.1c0,0-0.1,0,0,0c-0.1,0,0-0.1-0.2-0.1c0,0,0,0,0,0H4.6c0,0,0,0,0,0c0,0,0,0,0,0
			c0,0,0,0-0.1,0c0,0,0-0.1,0-0.1c-0.1-0.3-0.1-0.7-0.1-1h0.5c0,0,0.1,0,0.1,0c0.3,0,0.6-0.1,1,0c0.3-0.1,0.7-0.1,1,0
			c0.1,0,0.2,0,0.2,0c0.3,0.1,0.7,0.1,1,0c0,0.1,0.1,0.1,0.2,0.1c0.1,0.1,0.3,0,0.5,0.1c0.2,0.1,0.4,0,0.6,0.1
			c0.1,0.1,0.2,0.1,0.3,0c0.1,0,0.3,0,0.4,0c0,0,0.1,0,0.1,0c0.1,0,0.1,0,0.2,0c0.5-0.1,1-0.1,1.5,0c0.2,0.1,0.4,0,0.6,0.1
			c0.2,0.1,0.4,0,0.6,0.1h0.1l0,0c0.3,0.1,0.5,0,0.8,0.1l0,0l0.1,0c0.8,0.1,1.7-0.1,2.5,0.1c0.1,0,0.3,0,0.4,0
			c0.5,0.1,1-0.1,1.5,0.1h0.3c0.2,0.1,0.5,0.1,0.7,0c0.1,0,0.2-0.1,0.3-0.1c0,0,0.1-0.1,0.1-0.1c0.1,0,0.1,0,0.2,0
			c0.1,0,0.2,0,0.2,0h0.9c0.1,0,0.2-0.1,0.4,0h0.1c0,0,0,0,0,0c0.1,0,0.3,0,0.4,0l0.7,0c0.3,0,0.6,0,0.8,0c0,0,0.1,0,0.1,0
			c0.2,0,0.4,0,0.6,0c0.2,0,0.4,0,0.6,0c0.3-0.1,0.7-0.1,1,0c0.1,0,0.2,0,0.2,0c0,0,0,0,0,0c0,0,0.1,0,0.1,0l0.1,0h0.1
			c0.2-0.1,0.4-0.1,0.5,0c0.3-0.1,0.7,0,1.1-0.1h0.1c0.1,0,0.3,0,0.4,0c0.1,0,0.2-0.1,0.3-0.1c0,0,0.1,0,0.1,0c0,0,0,0,0,0.1
			c0,0,0,0.2,0,0.3c0,0.2,0,0.3,0.1,0.4c0,0.1,0,0.1,0,0.2c0,0,0,0-0.1,0c-0.1,0.1-0.1,0.1-0.1,0.1c0,0,0,0-0.1,0l0,0.1
			c-0.1,0,0,0.1-0.1,0.1c0,0,0,0,0,0c0,0-0.1,0-0.1,0c0,0,0,0-0.1,0H28.5z"/>
	</g>
</g>
</svg>
