<?xml version="1.0" encoding="utf-8"?>
<!-- Generator: Adobe Illustrator 25.2.1, SVG Export Plug-In . SVG Version: 6.00 Build 0)  -->
<svg version="1.1" id="Layer_1" xmlns="http://www.w3.org/2000/svg" xmlns:xlink="http://www.w3.org/1999/xlink" x="0px" y="0px"
	 width="105.6px" height="157.4px" viewBox="0 0 105.6 157.4" style="enable-background:new 0 0 105.6 157.4;" xml:space="preserve"
	>
<style type="text/css">
	.st0{fill:#EA2C38;}
	.st1{fill:#132E52;}
	.st2{fill:#F7942D;}
	.st3{fill:#FFC846;}
</style>
<polygon class="st0" points="85.1,153.4 52.8,124.4 20.5,153.4 20.5,70.9 85.1,70.9 "/>
<path class="st1" d="M34.3,68.8c2.6-0.6,5.2-1.3,7.9-1.9H29.7C31.3,67.3,32.9,68,34.3,68.8z"/>
<path class="st2" d="M101.6,58.7c-1.5,2.1-2.7,4.4-4.4,6.2c-3.5,3.5-5.2,7.7-5.9,12.5c-0.9,6.8-2.9,9-9.7,10.3
	c-5.5,1.1-10.1,3.4-13.8,7.5c-3.6,3.9-8,4.9-12.7,2.4c-5.4-2.8-10.9-3.3-16.8-2.1c-4.6,1-8.3-0.7-10.7-4.8c-0.5-0.9-1.1-1.7-1.6-2.6
	c-2-3.9-5-6.7-9-8.4c-6.4-2.6-9.3-7-7.9-13.7c1-5-0.4-9.3-2.8-13.6c-1-1.9-1.5-4.1-2.2-6.2v-0.4c0.6-3,2.2-5.4,4.4-7.5
	c3.5-3.4,5.6-7.5,6-12.4c0.5-6.2,3.9-9.9,10.3-10.8c0.3,0,0.7-0.2,1-0.2c4.3-0.6,7.7-2.6,10.8-5.6c2.2-2,4.8-3.6,7.3-5.3h3.3
	c2.1,0.8,4.3,1.6,6.4,2.5C56.9,8,60.3,8.6,63.9,8c1.4-0.2,2.8-0.4,4.2-0.6c4.2-0.6,7.5,0.6,9.9,4.2c1,1.5,2,3.1,2.9,4.6
	c1.6,2.7,3.9,4.8,6.7,6.3c2,1,4,2.1,5.9,3.3c2.6,1.6,3.7,4,3.7,6.9c0,1.5-0.2,2.9-0.3,4.4c-0.2,3.3-0.6,6.5,1,9.6
	c1.3,2.8,2.6,5.6,3.9,8.3v3.7H101.6z"/>
<path class="st1" d="M105.4,53.3c-1.3-2.7-2.6-5.4-3.9-8.2c0-0.1,0-0.1-0.1-0.2c-0.9-1.8-0.8-3.9-0.6-6.6l0.1-0.9
	c0-0.5,0.1-1,0.1-1.4c0.1-1,0.2-2.1,0.2-3.2c0-4.5-1.9-8.1-5.6-10.3c-1.9-1.2-3.9-2.3-6.2-3.5c-2.2-1.2-3.9-2.8-5.1-4.8
	c-1-1.7-2-3.3-3-4.8c-3.2-4.7-7.9-6.8-13.8-5.9l-4.3,0.6c-2.6,0.4-5.2,0-8.1-1.2c-1.7-0.7-3.5-1.4-5.2-2l-1.4-0.5
	C48.2,0.1,47.7,0,47.2,0h-3.3c-0.8,0-1.6,0.2-2.2,0.7c-0.5,0.3-1,0.7-1.5,1c-2.1,1.4-4.3,2.9-6.3,4.7c0,0-0.1,0.1-0.1,0.1
	c-2.7,2.6-5.3,4-8.4,4.5c-0.4,0-0.8,0.1-1.1,0.2c0,0,0,0,0,0c-8.2,1.2-13.1,6.3-13.7,14.4c-0.3,3.8-1.9,7-4.8,9.8
	c-3,2.9-4.8,6-5.6,9.6c-0.1,0.3-0.1,0.5-0.1,0.8v0.4c0,0.4,0.1,0.9,0.2,1.3c0.2,0.6,0.4,1.1,0.5,1.7c0.5,1.7,1,3.4,2,5.2
	c2.3,4.2,3.1,7.5,2.4,10.8C3.4,73.5,7.1,80,15.4,83.4c0.4,0.2,0.7,0.3,1.1,0.5v69.5c0,1.6,0.9,3,2.4,3.7c1.4,0.6,3.1,0.4,4.3-0.7
	l29.6-26.6l29.6,26.6c0.7,0.7,1.7,1,2.7,1c0.6,0,1.1-0.1,1.6-0.3c1.4-0.6,2.4-2.1,2.4-3.7V89.3c3.6-2.2,5.4-5.6,6.2-11.3
	c0.6-4.4,2.2-7.6,4.8-10.2c0,0,0.1-0.1,0.1-0.1c1.4-1.5,2.4-3,3.4-4.6c0.3-0.4,0.5-0.8,0.8-1.3c0.9-0.7,1.5-1.9,1.5-3.1V55
	C105.8,54.4,105.7,53.8,105.4,53.3z M55.5,121.4c-0.8-0.7-1.7-1-2.7-1s-1.9,0.3-2.7,1l-25.6,23V93.3c3.3,5.2,8.6,7.4,14.6,6.1
	c5.3-1.1,9.8-0.5,14.1,1.7c2.3,1.2,4.7,1.8,6.9,1.8c3.8,0,7.5-1.7,10.6-5.1c2.7-3,6-4.9,10.3-6v52.5L55.5,121.4z M97.8,57.2
	c-0.4,0.5-0.7,1.1-1,1.6c-0.8,1.3-1.6,2.5-2.4,3.4c-3.8,3.8-6.1,8.6-7,14.8c-0.7,5.2-1.4,5.9-6.5,6.9c-6.6,1.3-11.9,4.2-16,8.7
	c-2.5,2.7-4.9,3.2-7.9,1.6c-4.1-2.1-8.3-3.2-12.8-3.2c-2.1,0-4.4,0.2-6.6,0.7c-2.9,0.6-4.9-0.3-6.4-2.8c-0.3-0.5-0.6-1-0.9-1.5
	c-0.2-0.3-0.4-0.7-0.6-1c-2.4-4.7-6.1-8.1-11-10.2c-4.8-2-6.4-4.6-5.5-9.2c1.4-6.9-1-12.3-3.2-16.2c-0.5-1-0.9-2.3-1.4-3.7
	c-0.1-0.3-0.2-0.6-0.3-0.9c0.5-1.7,1.5-3.2,3.1-4.7C15.6,37,18,32,18.5,26.2c0.4-4.3,2.4-6.5,6.7-7.1c0.4,0,0.8-0.1,1.1-0.2
	c0,0,0,0,0,0c4.8-0.7,9-2.8,13-6.6c1.5-1.4,3.3-2.6,5.3-3.9C44.8,8.2,45,8.1,45.1,8h1.3l0.7,0.3c1.6,0.6,3.3,1.2,4.8,1.9
	c4.2,1.9,8.4,2.5,12.5,1.8l4.2-0.6c2.9-0.4,4.6,0.3,6,2.5c0.9,1.3,1.8,2.9,2.8,4.4c1.9,3.3,4.7,5.9,8.3,7.8c0,0,0.1,0,0.1,0.1
	c2,1,3.9,2.1,5.6,3.1c1.3,0.8,1.8,1.8,1.8,3.5c0,0.8-0.1,1.6-0.2,2.5c0,0.5-0.1,1.1-0.1,1.6l-0.1,0.9c-0.2,3.2-0.5,6.9,1.5,10.7
	c1.2,2.5,2.3,5,3.5,7.5V57.2z"/>
<g>
	<path class="st3" d="M20.9,51.4c-0.1,17.1,14.2,31.3,31.6,31.4C70.1,82.9,84.6,69,84.7,52.1c0.1-17.7-14-31.9-31.9-31.9
		C35.3,20.1,21,34.1,20.9,51.4"/>
	<path class="st1" d="M52.7,86.8c-0.1,0-0.1,0-0.2,0C43,86.7,34.1,83,27.3,76.3c-6.8-6.7-10.5-15.6-10.4-24.9
		C17,31.9,33,16.2,52.6,16.2c0.1,0,0.1,0,0.2,0c9.7,0,18.8,3.7,25.6,10.5c6.7,6.8,10.4,15.8,10.3,25.4
		C88.6,71.3,72.5,86.8,52.7,86.8z M52.6,24.2c-15.2,0-27.6,12.2-27.7,27.2c0,0,0,0,0,0c0,7.2,2.8,14,8.1,19.2
		c5.3,5.2,12.2,8.1,19.6,8.2c0.1,0,0.1,0,0.2,0c15.4,0,27.9-12,28-26.7c0-7.5-2.8-14.5-8-19.7c-5.2-5.3-12.3-8.2-19.9-8.2
		C52.7,24.2,52.7,24.2,52.6,24.2z M20.9,51.4L20.9,51.4L20.9,51.4z"/>
</g>
</svg>
