<?xml version="1.0" encoding="utf-8"?>
<!-- Generator: Adobe Illustrator 25.2.1, SVG Export Plug-In . SVG Version: 6.00 Build 0)  -->
<svg version="1.1" id="Layer_1" xmlns="http://www.w3.org/2000/svg" xmlns:xlink="http://www.w3.org/1999/xlink" x="0px" y="0px"
	 width="130.7px" height="114.5px" viewBox="0 0 130.7 114.5" style="enable-background:new 0 0 130.7 114.5;" xml:space="preserve"
	>
<style type="text/css">
	.st0{fill:#AAD268;}
	.st1{fill:#182C54;}
</style>
<g>
	<path class="st0" d="M46.2,18.1c0,0-6.5,46.4-8.4,59.6c-16-2.3-34,7-33.8,19.7c0.1,10.3,13.5,14.7,26,12.5C45.2,107.2,51,93,51,93
		l8.5-60l48.8-7.8c-1.7,12.1-4.4,31.5-5.9,42.2c-16-2.3-34,7-33.8,19.7c0.1,10.3,13.5,14.7,26,12.5c15.2-2.7,21-16.9,21-16.9
		L126.7,4L46.2,18.1z"/>
	<path class="st1" d="M23.6,114.5c-7.2,0-13.7-2-18.1-5.6c-3.6-3-5.5-7-5.6-11.4c-0.1-5.6,2.5-10.8,7.4-15.2c6.8-6,17-9.3,27-8.9
		C36.7,57,42.2,18,42.2,17.5c0.2-1.7,1.6-3.1,3.3-3.4L126,0.1c1.3-0.2,2.6,0.2,3.5,1.1c0.9,0.9,1.4,2.2,1.2,3.4l-11.1,78.7
		c0,0.3-0.1,0.6-0.3,1c-0.3,0.7-6.8,16.3-24,19.3c-9.8,1.7-19.4-0.2-25.1-4.9c-3.6-3-5.5-7-5.6-11.5C64.5,81.6,67.1,76.3,72,72
		c6.8-6,17-9.3,27-8.9c0.6-4,1.2-8.8,1.9-13.7c0.9-6.6,1.9-13.4,2.7-19.4L63,36.5L55,93.6c0,0.3-0.1,0.6-0.3,1
		c-0.3,0.7-6.8,16.3-24,19.3C28.3,114.3,26,114.5,23.6,114.5z M32.8,81.3c-7.5,0-15.2,2.6-20.1,6.9c-2.2,1.9-4.8,5-4.7,9.1
		c0,2.2,0.9,3.9,2.7,5.4c3.9,3.2,11.3,4.5,18.6,3.2c11.6-2.1,16.8-11.9,17.8-14.1l8.4-59.4c0.2-1.7,1.6-3.1,3.3-3.4l48.8-7.8
		c1.2-0.2,2.5,0.2,3.4,1.1c0.9,0.9,1.3,2.2,1.2,3.4c-1,6.9-2.3,16.1-3.5,24.7c-0.9,6.6-1.8,12.8-2.4,17.5c-0.1,1.1-0.7,2-1.6,2.6
		c-0.8,0.6-1.9,0.9-3,0.8c-8.7-1.3-18.6,1.4-24.5,6.6c-2.2,1.9-4.8,5-4.7,9.1c0,2.2,0.9,3.9,2.7,5.4c3.9,3.2,11.3,4.5,18.6,3.2
		c11.6-2.1,16.8-11.9,17.8-14.1L122,8.9L49.8,21.5c-1.5,10.4-6.4,45.6-8,56.7c-0.3,2.2-2.3,3.7-4.5,3.4
		C35.8,81.5,34.3,81.3,32.8,81.3z"/>
</g>
</svg>
