<?xml version="1.0" encoding="utf-8"?>
<!-- Generator: Adobe Illustrator 25.2.1, SVG Export Plug-In . SVG Version: 6.00 Build 0)  -->
<svg version="1.1" id="Layer_1" xmlns="http://www.w3.org/2000/svg" xmlns:xlink="http://www.w3.org/1999/xlink" x="0px" y="0px"
	 width="175.1px" height="173.3px" viewBox="0 0 175.1 173.3" style="enable-background:new 0 0 175.1 173.3;" xml:space="preserve"
	>
<style type="text/css">
	.st0{fill:#EA2C38;}
	.st1{fill:#F7942D;}
	.st2{fill:#FFC846;}
	.st3{fill:#AAD268;}
	.st4{fill:#EFAE81;}
	.st5{fill:#0F2D52;}
</style>
<path class="st0" d="M32.2,86.3c-0.2,0-0.3,0-0.5,0c-1.1-0.1-2-0.7-2.7-1.5L16.5,68.5c-1.4-1.7-1-4.3,0.7-5.6l42.2-32.6
	c0.7-0.5,1.6-0.8,2.4-0.8c0.2,0,0.3,0,0.5,0c1.1,0.1,2,0.7,2.7,1.5l12.6,16.3c1.4,1.7,1,4.3-0.7,5.6L34.7,85.5
	C34,86,33.1,86.3,32.2,86.3z"/>
<path class="st1" d="M50.1,111.3c-1.2,0-2.4-0.5-3.2-1.6L34.3,93.3c-0.6-0.8-0.9-1.9-0.8-3c0.1-1.1,0.7-2,1.5-2.7l45.8-35.4
	c0.7-0.6,1.6-0.8,2.4-0.8c1.2,0,2.4,0.5,3.2,1.6L99,69.5c0.6,0.8,0.9,1.9,0.8,3s-0.7,2-1.5,2.7l-45.8,35.4
	C51.8,111,50.9,111.3,50.1,111.3z"/>
<path class="st2" d="M67.3,136.6c-0.2,0-0.3,0-0.5,0c-1.1-0.1-2-0.7-2.7-1.5l-12.8-16.5c-1.4-1.7-1-4.3,0.7-5.6l49.4-38.2
	c0.7-0.5,1.6-0.8,2.4-0.8c0.2,0,0.3,0,0.5,0c1.1,0.1,2,0.7,2.7,1.5L119.8,92c1.4,1.7,1,4.3-0.7,5.6l-49.4,38.2
	C69,136.3,68.1,136.6,67.3,136.6z"/>
<path class="st3" d="M84.3,161.8c-1.2,0-2.4-0.5-3.2-1.6l-12.8-16.6c-0.6-0.8-0.9-1.9-0.8-3s0.7-2,1.5-2.7l53-41
	c0.7-0.6,1.6-0.8,2.4-0.8c1.2,0,2.4,0.5,3.2,1.6l12.8,16.6c0.6,0.8,0.9,1.9,0.8,3c-0.1,1.1-0.7,2-1.5,2.7l-53,41
	C86,161.6,85.2,161.8,84.3,161.8z"/>
<path class="st4" d="M17.7,58.6c-0.2,0-0.5,0-0.7-0.1c-1.1-0.2-2.1-0.8-2.7-1.8l-0.2-0.3l-1,0.8c-0.7,0.6-1.6,0.8-2.4,0.8
	c-1.2,0-2.4-0.5-3.2-1.6l-2.7-3.5C4.2,52.1,3.9,51,4,50c0.1-1.1,0.7-2,1.5-2.7l2-1.5c-0.5-1.6,0-3.5,1.5-4.5l5-3.5
	c0.7-0.5,1.5-0.7,2.3-0.7c0.3,0,0.5,0,0.8,0.1c0.4,0.1,0.7,0.2,1.1,0.4L34.5,25c-0.1-0.4-0.1-0.7-0.1-1.1c0.1-1.1,0.6-2.1,1.4-2.8
	l4.6-4c0.8-0.7,1.7-1,2.6-1c0.8,0,1.5,0.2,2.2,0.6l2.6-2c0.7-0.5,1.6-0.8,2.4-0.8c0.2,0,0.3,0,0.5,0c1.1,0.1,2,0.7,2.7,1.5L56,19
	c1.4,1.7,1,4.3-0.7,5.6l-1.6,1.2l0.2,0.3c0.8,0.8,1.1,1.9,1.1,3c-0.1,1.1-0.7,2.1-1.5,2.8l-4.8,3.7c-0.7,0.6-1.6,0.8-2.4,0.8
	c-1.1,0-2.1-0.4-2.9-1.3l-0.7-0.8L25.3,47.8l0.6,0.9c1.1,1.7,0.7,4.1-0.9,5.3l-4.8,3.7C19.4,58.3,18.6,58.6,17.7,58.6z"/>
<path class="st4" d="M96.6,169.3c-0.2,0-0.5,0-0.7-0.1c-1.1-0.2-2.1-0.9-2.7-1.9l-1.8-3.1c-1-1.7-0.6-4,1-5.2l4.8-3.7
	c0.7-0.5,1.6-0.8,2.4-0.8c0.2,0,0.5,0,0.7,0.1c1.1,0.2,2.1,0.9,2.7,1.9l1.8,3.1c1,1.7,0.6,4-1,5.2l-4.8,3.7
	C98.3,169,97.4,169.3,96.6,169.3z"/>
<path class="st4" d="M137.1,138c-1,0-2.1-0.4-2.9-1.2l-2.5-2.5c-0.8-0.8-1.2-1.9-1.1-3.1c0.1-1.1,0.6-2.2,1.5-2.9l4.8-3.7
	c0.7-0.6,1.6-0.8,2.4-0.8c1,0,2.1,0.4,2.9,1.2l2.5,2.5c0.8,0.8,1.2,1.9,1.1,3.1c-0.1,1.1-0.6,2.2-1.5,2.9l-4.8,3.7
	C138.8,137.7,137.9,138,137.1,138z"/>
<path class="st5" d="M147.6,124.6l-2.5-2.5c-0.3-0.4-0.7-0.7-1.1-0.9c0.7-1,1.1-2.1,1.2-3.4c0.3-2.1-0.3-4.2-1.6-5.9l-12.8-16.6
	c-1.6-2-4-3.1-6.3-3.1c0,0-0.1,0-0.1,0c-0.3-1-0.7-1.9-1.4-2.7L110.2,73c-1.6-2-3.9-3.1-6.3-3.1c-0.1,0-0.2,0-0.3,0
	c-0.3-1-0.7-2-1.4-2.9L89.5,50.6c-1.3-1.7-3.2-2.8-5.3-3c-0.3,0-0.7-0.1-1-0.1c-0.3,0-0.7,0-1,0.1c-0.3-1-0.7-1.9-1.4-2.8L68.1,28.6
	c-1.3-1.7-3.2-2.8-5.3-3c-0.3-0.1-0.6-0.1-1-0.1c-0.8,0-1.6,0.1-2.3,0.4c0.8-1.1,1.3-2.3,1.4-3.7c0.3-2.1-0.3-4.2-1.6-5.9L56.5,13
	c-1.6-2-4-3.1-6.4-3.1c-1.7,0-3.4,0.5-4.9,1.7l-0.8,0.7c-0.5-0.1-1-0.1-1.4-0.1c-1.9,0-3.7,0.6-5.2,1.9l-4.6,4
	c-1.5,1.3-2.4,3.1-2.7,5L17.3,33.2c-0.3,0-0.7-0.1-1-0.1c-1.6,0-3.2,0.5-4.5,1.4l-5,3.5c-2.1,1.4-3.3,3.7-3.4,6l-0.2,0.2
	c-1.7,1.3-2.8,3.2-3,5.3c-0.2,2.1,0.3,4.2,1.6,5.9l2.7,3.5c1.6,2,3.9,3.1,6.3,3.1c0.7,0,1.5-0.1,2.2-0.3c-0.6,1-1.1,2.1-1.2,3.3
	c-0.3,2.1,0.3,4.2,1.6,5.9L26,87.2c0.9,1.2,2.1,2.1,3.5,2.6c-0.3,2.1,0.2,4.2,1.6,6l12.7,16.4c0.8,1,1.8,1.8,2.9,2.3
	c-0.4,2.2,0,4.6,1.5,6.5L61,137.5c0.7,0.9,1.6,1.7,2.7,2.2c-0.4,2.2,0.1,4.5,1.5,6.4L78,162.7c1.3,1.7,3.2,2.8,5.3,3
	c0.3,0,0.7,0.1,1,0.1c1.1,0,2.1-0.2,3-0.6c0.2,0.4,0.3,0.8,0.6,1.1l1.8,3.1c1.2,2,3.1,3.3,5.4,3.8c0.5,0.1,1,0.1,1.5,0.1
	c1.8,0,3.5-0.6,4.9-1.7l4.8-3.7c3.2-2.5,4.1-7,2-10.4l-1.8-3.1c-0.5-0.9-1.2-1.6-1.9-2.2l22.7-17.6c0.4,0.9,0.9,1.7,1.6,2.4l2.5,2.5
	c1.6,1.6,3.6,2.4,5.7,2.4c1.7,0,3.4-0.6,4.9-1.7l4.8-3.7c1.8-1.4,2.9-3.5,3.1-5.8C150.1,128.5,149.2,126.3,147.6,124.6z M10.7,54
	L8,50.5l4.8-3.7l-1.4-2.2l5-3.5l1.3,2L40,25.8l-1.6-1.7l4.6-4l1.8,2l5.4-4.2l2.7,3.5l-5,3.9l3.2,3.5l-4.8,3.7L43,29.1L20,46.8l2.5,4
	l-4.8,3.7l-2.5-4L10.7,54z M19.7,66.1l42.1-32.6l12.6,16.3L32.2,82.3L19.7,66.1z M37.4,90.9l45.8-35.4l12.7,16.4l-45.8,35.4
	L37.4,90.9z M54.5,116.1l49.4-38.2l12.8,16.5l-49.4,38.2L54.5,116.1z M71.5,141.2l53-41l12.8,16.6l-53,41L71.5,141.2z M96.6,165.3
	l-1.8-3.1l4.8-3.7l1.8,3.1L96.6,165.3z M137.1,133.9l-2.5-2.5l4.8-3.7l2.5,2.5L137.1,133.9z"/>
<circle class="st5" cx="34.5" cy="67.6" r="3"/>
<path class="st5" d="M34.5,74.6c-3.9,0-7-3.1-7-7s3.1-7,7-7s7,3.1,7,7S38.4,74.6,34.5,74.6z M34.5,66.6c-0.6,0-1,0.4-1,1s0.4,1,1,1
	s1-0.4,1-1S35.1,66.6,34.5,66.6z"/>
<circle class="st5" cx="61" cy="46.8" r="3"/>
<path class="st5" d="M61,53.8c-3.9,0-7-3.1-7-7s3.1-7,7-7s7,3.1,7,7S64.9,53.8,61,53.8z M61,45.8c-0.6,0-1,0.4-1,1s0.4,1,1,1
	s1-0.4,1-1S61.6,45.8,61,45.8z"/>
<circle class="st5" cx="50" cy="92.9" r="3"/>
<path class="st5" d="M50,99.9c-3.9,0-7-3.1-7-7s3.1-7,7-7s7,3.1,7,7S53.9,99.9,50,99.9z M50,91.9c-0.6,0-1,0.4-1,1s0.4,1,1,1
	s1-0.4,1-1S50.6,91.9,50,91.9z"/>
<circle class="st5" cx="81.5" cy="68.6" r="3"/>
<path class="st5" d="M81.5,75.6c-3.9,0-7-3.1-7-7s3.1-7,7-7s7,3.1,7,7S85.4,75.6,81.5,75.6z M81.5,67.6c-0.6,0-1,0.4-1,1s0.4,1,1,1
	s1-0.4,1-1S82.1,67.6,81.5,67.6z"/>
<circle class="st5" cx="69.3" cy="116.3" r="3"/>
<path class="st5" d="M69.3,123.3c-3.9,0-7-3.1-7-7s3.1-7,7-7s7,3.1,7,7S73.2,123.3,69.3,123.3z M69.3,115.3c-0.6,0-1,0.4-1,1
	s0.4,1,1,1s1-0.4,1-1S69.9,115.3,69.3,115.3z"/>
<circle class="st5" cx="100.9" cy="92.2" r="3"/>
<path class="st5" d="M100.9,99.2c-3.9,0-7-3.1-7-7s3.1-7,7-7s7,3.1,7,7S104.8,99.2,100.9,99.2z M100.9,91.2c-0.6,0-1,0.4-1,1
	s0.4,1,1,1s1-0.4,1-1S101.5,91.2,100.9,91.2z"/>
<path class="st4" d="M93.1,26.3l69.6,49c1,0.7,3.6-1.3,5.8-4.5s3.3-6.3,2.3-7l-69.6-49c-1.2,1.9-2.4,3.9-3.8,5.9
	C95.9,22.7,94.5,24.5,93.1,26.3z"/>
<path class="st5" d="M168.5,67.1C168.5,67.1,168.5,67.1,168.5,67.1L168.5,67.1z"/>
<circle class="st5" cx="86" cy="143.4" r="3"/>
<path class="st5" d="M86,150.4c-3.9,0-7-3.1-7-7s3.1-7,7-7c3.9,0,7,3.1,7,7S89.9,150.4,86,150.4z M86,142.4c-0.6,0-1,0.4-1,1
	s0.4,1,1,1s1-0.4,1-1S86.6,142.4,86,142.4z"/>
<circle class="st5" cx="124.1" cy="114.2" r="3"/>
<path class="st5" d="M124.1,121.2c-3.9,0-7-3.1-7-7s3.1-7,7-7s7,3.1,7,7S128,121.2,124.1,121.2z M124.1,113.2c-0.6,0-1,0.4-1,1
	s0.4,1,1,1s1-0.4,1-1S124.7,113.2,124.1,113.2z"/>
<path class="st0" d="M97.9,26.9C93.6,30,87.7,30.2,83.2,27c-5.7-4-7.1-11.9-3-17.6s11.9-7.1,17.6-3s7.1,11.9,3,17.6
	C100,25.1,99,26.1,97.9,26.9"/>
<path class="st5" d="M173.1,60.5l-66.2-46.6c0,0,0,0,0,0c-0.8-4.3-3.2-8.2-6.8-10.8C92.7-2.2,82.3-0.4,77,7.1
	c-2.6,3.6-3.6,8-2.9,12.4c0.7,4.4,3.2,8.2,6.8,10.8c2.9,2,6.2,3.1,9.6,3.1c1.6,0,3.2-0.2,4.7-0.7l65.3,45.9c0.8,0.6,1.8,0.9,2.8,0.9
	c0.3,0,0.6,0,1-0.1c3.4-0.6,6.5-4.6,7.6-6.3C177.2,65.2,174.9,61.8,173.1,60.5z M85.5,23.7c-1.9-1.3-3.1-3.3-3.5-5.6
	c-0.4-2.3,0.1-4.5,1.5-6.4C85.2,9.3,87.8,8,90.5,8c1.7,0,3.4,0.5,5,1.6c1.9,1.4,3.2,3.4,3.6,5.6c0.4,2.2-0.1,4.5-1.5,6.4
	c-0.6,0.8-1.2,1.5-2,2C92.5,25.8,88.5,25.9,85.5,23.7z M165.2,68.5c-0.7,1-1.4,1.8-1.9,2.3l-60.7-42.7c0.5-0.6,1-1.1,1.5-1.7
	c0.8-1.1,1.4-2.2,1.8-3.3l60.9,42.8C166.4,66.5,165.9,67.5,165.2,68.5z"/>
</svg>
