<?xml version="1.0" encoding="utf-8"?>
<!-- Generator: Adobe Illustrator 25.2.1, SVG Export Plug-In . SVG Version: 6.00 Build 0)  -->
<svg version="1.1" id="Layer_1" xmlns="http://www.w3.org/2000/svg" xmlns:xlink="http://www.w3.org/1999/xlink" x="0px" y="0px"
	 width="139.6px" height="118.9px" viewBox="0 0 139.6 118.9" style="enable-background:new 0 0 139.6 118.9;" xml:space="preserve"
	>
<style type="text/css">
	.st0{fill:#6CCAD0;}
	.st1{fill:#0F2D52;}
</style>
<path class="st0" d="M120.9,4H18.7C10.6,4,4,10.6,4,18.7v64.2c0,8.1,6.6,14.7,14.7,14.7h55.8l15.6,15.6l15.6-15.6h15.2
	c8.1,0,14.7-6.6,14.7-14.7V18.7C135.6,10.6,129,4,120.9,4z"/>
<path class="st1" d="M90.1,117.2c-1,0-2-0.4-2.8-1.2l-14.4-14.4H18.7C8.4,101.6,0,93.2,0,82.9V18.7C0,8.4,8.4,0,18.7,0h102.2
	c10.3,0,18.7,8.4,18.7,18.7v64.2c0,10.3-8.4,18.7-18.7,18.7h-13.5L92.9,116C92.1,116.8,91.1,117.2,90.1,117.2z M18.7,8
	C12.8,8,8,12.8,8,18.7v64.2c0,5.9,4.8,10.7,10.7,10.7h55.8c1.1,0,2.1,0.4,2.8,1.2l12.8,12.8l12.8-12.8c0.8-0.8,1.8-1.2,2.8-1.2h15.2
	c5.9,0,10.7-4.8,10.7-10.7V18.7c0-5.9-4.8-10.7-10.7-10.7H18.7z"/>
</svg>
