<?xml version="1.0" encoding="utf-8"?>
<!-- Generator: Adobe Illustrator 25.2.1, SVG Export Plug-In . SVG Version: 6.00 Build 0)  -->
<svg version="1.1" id="Layer_1" xmlns="http://www.w3.org/2000/svg" xmlns:xlink="http://www.w3.org/1999/xlink" x="0px" y="0px"
	 width="142.7px" height="111.4px" viewBox="0 0 142.7 111.4" style="enable-background:new 0 0 142.7 111.4;" xml:space="preserve"
	>
<style type="text/css">
	.st0{fill:#132E52;}
</style>
<g>
	<path class="st0" d="M141.9,43.3c-0.1-10.7-6.3-17.6-15.7-17.6c-0.1,0-0.2,0-0.2,0l-5.5,0.1L113.3,6c-1.4-3.6-4.7-6-8.5-6L77.7,0.4
		c-3.8,0-7.1,2.5-8.4,6.4l-6,19.5l-17.5,0.2c-0.1,0-0.1,0-0.2,0c0,0,0,0-0.1,0c-0.1,0-0.1,0-0.2,0l-5.3,0.1L40,20.1
		c0-0.1,0-0.2,0-0.4c-0.3-3.1-2.9-5.4-6-5.4l-17.1,0.2c-3.3,0-5.9,2.6-5.9,5.9c0,0,0,0.1,0,0.1l0.2,6.3l-3.2,0c-4.4,0-8,3.6-8,8.1
		l0.9,68.5c0,4.4,3.6,7.9,8.2,7.9l36.9-0.5c0.2,0,0.5,0.1,0.7,0.1c0,0,0,0,0.1,0c0.3,0,0.5,0,0.8-0.1l87.3-1.1c4.4,0,8-3.6,8-8
		L141.9,43.3z M32,22.3l0,3.4l-12.9-0.4l-0.1-2.8L32,22.3z M83.4,25.3l0-0.5c0-1.3,0.5-2.5,1.4-3.4c1-1,2.4-1.6,3.9-1.6l5.5-0.1
		c1.5,0,2.9,0.5,3.9,1.5c1,0.9,1.5,2.2,1.5,3.5l0,0.7l-14.8-0.1L83.4,25.3z M76.9,9.3c0.2-0.5,0.6-0.9,0.9-0.9L104.9,8
		c0.5,0,0.8,0.4,0.9,0.8l6,16.7l-4.2,0l0-0.8c0-3.4-1.4-6.7-3.9-9.2c-2.6-2.5-6.1-3.9-9.7-3.8l-5.4,0.1c-3.6,0-7,1.4-9.6,4
		c-2.5,2.5-3.8,5.8-3.7,9.3c0,0.1,0,0.1,0,0.2l0,0.1l-3.5,0L76.9,9.3z M41.3,34.6l-8.2,18c-0.8,1.6-2,2.5-3.3,2.5l-7.9,0.1
		c-1.3,0-2.6-0.9-3.3-2.5l-8.3-17.8L41.3,34.6z M9,103.4c0,0-0.1,0-0.1,0L8.2,49.5l3.1,6.6c2.1,4.4,6.1,7.1,10.4,7.1
		c0.1,0,0.2,0,0.4,0l7.7-0.1c4.4,0,8.4-2.7,10.5-7.1l1.5-3.4l0.7,50.4L9,103.4z M134.6,101.8l-84.1,1.1l-0.9-67.4l0.4-1l76-0.8
		c0,0,0.1,0,0.1,0c6.3,0,7.7,5.3,7.7,9.8L134.6,101.8C134.7,101.8,134.7,101.8,134.6,101.8z"/>
	<path class="st0" d="M91.3,34.2C72.9,34.2,58,48.8,58,66.7c0,17.9,14.9,32.5,33.3,32.5s33.3-14.6,33.3-32.5
		C124.6,48.8,109.7,34.2,91.3,34.2z M91.3,91.2c-14,0-25.3-11-25.3-24.5c0-13.5,11.3-24.5,25.3-24.5s25.3,11,25.3,24.5
		C116.6,80.2,105.2,91.2,91.3,91.2z"/>
	<path class="st0" d="M91.3,46.7c-11.3,0-20.5,9-20.5,20c0,11,9.2,20,20.5,20s20.5-9,20.5-20C111.8,55.7,102.6,46.7,91.3,46.7z
		 M91.3,78.7c-6.9,0-12.5-5.4-12.5-12c0-6.6,5.6-12,12.5-12s12.5,5.4,12.5,12C103.8,73.3,98.2,78.7,91.3,78.7z"/>
</g>
</svg>
