<?xml version="1.0" encoding="utf-8"?>
<!-- Generator: Adobe Illustrator 25.2.1, SVG Export Plug-In . SVG Version: 6.00 Build 0)  -->
<svg version="1.1" id="Layer_1" xmlns="http://www.w3.org/2000/svg" xmlns:xlink="http://www.w3.org/1999/xlink" x="0px" y="0px"
	 width="129.7px" height="98.2px" viewBox="0 0 129.7 98.2" style="enable-background:new 0 0 129.7 98.2;" xml:space="preserve">
<style type="text/css">
	.st0{fill:#6CCAD0;}
	.st1{fill:#0F2D52;}
</style>
<path class="st0" d="M8,94.2c-2.2,0-4-1.8-4-4V8c0-2.2,1.8-4,4-4h113.7c2.2,0,4,1.8,4,4v82.2c0,2.2-1.8,4-4,4H8z"/>
<path class="st1" d="M121.7,0H8C3.6,0,0,3.6,0,8v82.2c0,4.4,3.6,8,8,8h113.7c4.4,0,8-3.6,8-8V8C129.7,3.6,126.1,0,121.7,0z M121.7,8
	v9.4c-1,0-2,0.4-2.8,1.1L64.4,71.3L10,18.7c-0.6-0.5-1.3-0.9-2-1V8H121.7z M8,90.2V27.9l53.6,51.8c0.8,0.7,1.8,1.1,2.8,1.1
	c1,0,2-0.4,2.8-1.1L121.7,27v63.2H8z"/>
</svg>
