<?xml version="1.0" encoding="utf-8"?>
<!-- Generator: Adobe Illustrator 25.2.1, SVG Export Plug-In . SVG Version: 6.00 Build 0)  -->
<svg version="1.1" id="Layer_1" xmlns="http://www.w3.org/2000/svg" xmlns:xlink="http://www.w3.org/1999/xlink" x="0px" y="0px"
	 width="110.5px" height="154.9px" viewBox="0 0 110.5 154.9" style="enable-background:new 0 0 110.5 154.9;" xml:space="preserve"
	>
<style type="text/css">
	.st0{fill:#AA258D;}
	.st1{fill:#926D5A;}
	.st2{fill:#0F2D52;}
</style>
<path class="st0" d="M67.4,68.4c0,0-3,16.1,3.6,19.1c6.7,3,26.1,5.3,32.1,13.8s-1.3,49.7-1.3,49.7H6.6c0,0-7.3-41.2-1.2-49.7
	s25.7-10.8,32.5-13.8s3.7-19.1,3.7-19.1H67.4z"/>
<path class="st1" d="M39.1,87.3l16.1,17l16.6-17c-6.4-3.2-3.4-19-3.4-19H42.6C42.6,68.4,45.6,84.1,39.1,87.3z"/>
<path class="st1" d="M81.1,45.3c0,18.2-11.9,35.1-26.5,35.1S28.2,63.5,28.2,45.3S40,15.2,54.6,15.2S81.1,27.2,81.1,45.3z"/>
<path class="st2" d="M106.3,99c-3.4-4.8-9.7-7.8-16.3-10c1.6-4.4,2.6-8.2,3-9.7c0-0.1,0-0.2,0.1-0.2c0.3-1.8,8-44.5-10.1-66.4
	C76.1,4.3,66.6,0.1,54.6,0c0,0,0,0,0,0c0,0,0,0,0,0c0,0,0,0,0,0C42.3,0.1,32.6,4.4,25.8,12.7C9.5,32.8,15.3,69.5,17.5,80.3
	c0,0.1,0.1,0.2,0.1,0.3c0.4,1.3,1.3,4.3,2.7,7.9C13,90.7,5.9,93.8,2.1,99c-6.6,9.2-1.3,42.7,0.5,52.7c0.3,1.9,2,3.3,3.9,3.3h95.2
	c1.9,0,3.6-1.4,3.9-3.3C107.5,141.6,112.8,108.1,106.3,99z M74.7,84.6c-0.3-0.4-0.7-0.7-1.2-0.9c-1.1-0.6-1.7-3.1-1.9-6.3
	c1.5-1.4,3-2.9,4.3-4.6C75.7,77,75.3,81,74.7,84.6C74.7,84.6,74.7,84.6,74.7,84.6z M36.3,83.8C36.2,83.9,36.2,83.9,36.3,83.8
	c-0.6-2.8-1-5.9-1.4-9.1c1.1,1.2,2.2,2.3,3.4,3.3C38,81,37.4,83.3,36.3,83.8z M32.6,51.1c-0.1-2-0.2-4-0.3-6
	c2.4-1.5,6.5-4.1,10.1-7.3c2.9-2.6,5.8-6.9,8-10.6c2.8,5.2,7,11.8,12,15.2c5.2,3.6,10.9,5.4,14.5,6.3c-1.3,15.1-11.2,27.7-22.4,27.7
	C44.1,76.4,34.7,65.1,32.6,51.1z M46.5,82.9c2.6,1,5.3,1.5,8.1,1.5c3,0,6-0.6,8.7-1.7c0.4,1.9,1.1,3.8,2.2,5.3L55.2,98.5L44.7,87.4
	C45.5,86.1,46.1,84.5,46.5,82.9z M98.4,147H10c-3-18.3-4.3-39.2-1.3-43.4c2.5-3.5,8.6-5.9,14.7-7.7c2.9,6.1,6.7,12.2,11,14.1
	c1.2,0.5,2.4,0.8,3.5,0.8c1.1,0,2.2-0.2,3.3-0.7c1.2-0.6,2.1-1.7,2.3-3.1c0.2-1.4-0.3-2.7-1.4-3.6c-1.6-1.3-3.1-5.6-4.4-11.6
	c0.1,0,0.1,0,0.2-0.1l14.4,15.2c0.7,0.8,1.8,1.2,2.9,1.2h0c1.1,0,2.1-0.4,2.9-1.2l14.4-14.8c0.3,0.1,0.6,0.2,0.9,0.3
	c-1.1,4.9-2.4,8.4-3.9,9.6c-1.1,0.9-1.6,2.3-1.4,3.7c0.2,1.4,1.1,2.6,2.4,3.1c1.1,0.5,2.2,0.7,3.3,0.7c1.3,0,2.6-0.3,3.8-0.9
	c3.8-1.9,7-6.9,9.5-12.3c5.4,1.8,10.6,4,12.8,7.2C102.7,107.8,101.4,128.7,98.4,147z"/>
</svg>
