<?xml version="1.0" encoding="utf-8"?>
<!-- Generator: Adobe Illustrator 25.2.1, SVG Export Plug-In . SVG Version: 6.00 Build 0)  -->
<svg version="1.1" id="Layer_1" xmlns="http://www.w3.org/2000/svg" xmlns:xlink="http://www.w3.org/1999/xlink" x="0px" y="0px"
	 width="125.2px" height="142.8px" viewBox="0 0 125.2 142.8" style="enable-background:new 0 0 125.2 142.8;" xml:space="preserve"
	>
<style type="text/css">
	.st0{fill:#F7942D;}
	.st1{fill:#0F2D52;}
</style>
<rect x="4" y="81.5" class="st0" width="37.3" height="57.3"/>
<rect x="41.8" y="66.5" class="st0" width="37.3" height="72.3"/>
<rect x="81.9" y="53.8" class="st0" width="37.3" height="85"/>
<path class="st1" d="M119.2,49.8H81.9c-2.2,0-4,1.8-4,4v8.7H41.8c-2.2,0-4,1.8-4,4v11H4c-2.2,0-4,1.8-4,4v57.3c0,2.2,1.8,4,4,4h37.3
	c0.1,0,0.2,0,0.2,0c0.1,0,0.2,0,0.2,0h37.3c0.5,0,1-0.1,1.4-0.3c0.4,0.2,0.9,0.3,1.4,0.3h37.3c2.2,0,4-1.8,4-4v-85
	C123.2,51.6,121.4,49.8,119.2,49.8z M37.3,134.8H8V85.5h29.3V134.8z M75.1,134.8H45.8V70.5h29.3V134.8z M115.2,134.8H85.9v-77h29.3
	V134.8z"/>
<path class="st1" d="M125.1,7.7c0-0.2,0-0.3,0-0.5c0-0.1,0-0.2,0-0.3c0-0.2,0-0.3-0.1-0.5c0-0.1,0-0.2-0.1-0.3
	c-0.1-0.2-0.1-0.3-0.2-0.5c0-0.1-0.1-0.2-0.1-0.2c0,0,0,0-0.1-0.1c0,0,0-0.1,0-0.1c-0.1-0.1-0.2-0.3-0.3-0.4
	c-0.1-0.1-0.1-0.2-0.2-0.2c-0.4-0.4-0.8-0.8-1.3-1c-0.1,0-0.2-0.1-0.2-0.1c-0.2-0.1-0.4-0.1-0.6-0.2c0,0-0.1,0-0.1,0l-17-3.2
	c-2.2-0.4-4.3,1-4.7,3.2s1,4.3,3.2,4.7l6.6,1.2L80.5,26.7l-35.7,2.9c-0.8,0.1-1.6,0.4-2.2,0.9l-39.5,32c-1.7,1.4-2,3.9-0.6,5.6
	c0.8,1,1.9,1.5,3.1,1.5c0.9,0,1.8-0.3,2.5-0.9l38.5-31.2L82,34.6c0.6,0,1.2-0.2,1.7-0.5l28.8-17l-1.7,3.8c-0.9,2,0,4.4,2,5.3
	c0.5,0.2,1.1,0.3,1.6,0.3c1.5,0,3-0.9,3.7-2.4l6.7-15.2c0-0.1,0-0.1,0.1-0.2c0.1-0.2,0.1-0.4,0.2-0.6C125.1,8,125.1,7.8,125.1,7.7z"
	/>
</svg>
