<?xml version="1.0" encoding="utf-8"?>
<!-- Generator: Adobe Illustrator 25.2.1, SVG Export Plug-In . SVG Version: 6.00 Build 0)  -->
<svg version="1.1" id="Layer_1" xmlns="http://www.w3.org/2000/svg" xmlns:xlink="http://www.w3.org/1999/xlink" x="0px" y="0px"
	 width="155.7px" height="146.4px" viewBox="0 0 155.7 146.4" style="enable-background:new 0 0 155.7 146.4;" xml:space="preserve"
	>
<style type="text/css">
	.st0{fill:#0F2D52;}
</style>
<g>
	<path class="st0" d="M155.7,56.2c-3.5-26.7-22.6-48.7-48.6-56c-1-0.3-2.1-0.2-3.1,0.4c-0.9,0.5-1.6,1.4-1.9,2.5L86.4,62.8
		c-0.3,1.3,0,2.6,0.8,3.6c0.8,0.9,1.9,1.4,3,1.4c0.2,0,0.3,0,0.5,0l61.4-7.1c1.1-0.1,2-0.7,2.7-1.5S155.8,57.2,155.7,56.2z
		 M95.7,59.2l13.1-50.1c19.6,7,34.1,23.7,38.3,44.1L95.7,59.2z"/>
	<path class="st0" d="M133.6,69.5c-0.8-0.7-1.9-1-3-0.9l-58.5,6.8l14.4-55.2c0.3-1,0.1-2.1-0.4-3.1c-0.6-0.9-1.5-1.6-2.5-1.8
		C75.9,13.5,67.9,13,60,13.9C45.7,15.6,32.5,21.3,22,30.6c0,0-0.1,0-0.1,0.1C6.1,44.6-1.7,64.6,0.3,85.5c0,0.5,0.2,1,0.4,1.4
		c0,0.3,0,0.6,0,0.9C4,112.4,20.6,133.2,44,142c0,0,0,0,0,0c7.7,2.8,15.6,4.3,23.6,4.3c2.6,0,5.2-0.2,7.8-0.5
		c17.7-2.1,33.7-10.8,44.9-24.7c11.2-13.9,16.4-31.2,14.7-48.9C135,71.1,134.5,70.2,133.6,69.5z M61,21.9c5.6-0.7,11.2-0.5,16.8,0.4
		L65,71.4l-9.6-10.3l-25-27C39.1,27.4,49.6,23.2,61,21.9z M24.2,39.5l25.3,27.1l9.3,10L8,80.8C7.6,65.3,13.3,50.6,24.2,39.5z
		 M74.5,137.9c-9.4,1.1-18.7,0-27.7-3.4c-19.3-7.3-33.4-23.9-37.5-43.9l118-13.6C128.2,107.5,105.2,134.4,74.5,137.9z"/>
</g>
</svg>
