<?xml version="1.0" encoding="utf-8"?>
<!-- Generator: Adobe Illustrator 25.2.1, SVG Export Plug-In . SVG Version: 6.00 Build 0)  -->
<svg version="1.1" id="Layer_1" xmlns="http://www.w3.org/2000/svg" xmlns:xlink="http://www.w3.org/1999/xlink" x="0px" y="0px"
	 width="79.9px" height="138.8px" viewBox="0 0 79.9 138.8" style="enable-background:new 0 0 79.9 138.8;" xml:space="preserve">
<style type="text/css">
	.st0{fill:#132E52;}
</style>
<g>
	<path class="st0" d="M79.9,110.1l-0.1-86c0-0.1,0-0.2,0-0.3l0-14.2C79.7,4.4,75.3,0,70,0L9.7,0.1C4.4,0.1,0,4.5,0,9.8l0.1,73.1
		l0,27.4c0,0,0,0,0,0.1l0,18.8c0,5.3,4.4,9.7,9.7,9.7l60.3-0.1c5.3,0,9.6-4.4,9.6-9.7l0-18.1C79.8,110.7,79.9,110.4,79.9,110.1z
		 M8.1,82.7L8,28.2l63.7-0.1l0.1,78l-63.6,0.1L8.1,82.7z M9.7,8.1L70,8c0.9,0,1.7,0.8,1.7,1.7l0,10.5L8,20.2L8,9.8
		C8,8.9,8.8,8.1,9.7,8.1z M70.2,130.7C70.2,130.7,70.2,130.7,70.2,130.7l-60.3,0.1c-0.9,0-1.7-0.8-1.7-1.7l0-14.8l63.6-0.1l0,14.8
		C71.8,130,71.1,130.7,70.2,130.7z"/>
	<path class="st0" d="M30.5,17h18.4c1.4,0,2.5-1.1,2.5-2.5S50.3,12,48.9,12H30.5c-1.4,0-2.5,1.1-2.5,2.5S29.1,17,30.5,17z"/>
	<path class="st0" d="M38.8,118.4c-2.6,0-4.7,1.9-4.7,4.3s2.1,4.3,4.7,4.3c2.6,0,4.7-1.9,4.7-4.3C43.5,120.3,41.4,118.4,38.8,118.4z
		"/>
</g>
</svg>
