<?xml version="1.0" encoding="utf-8"?>
<!-- Generator: Adobe Illustrator 25.2.1, SVG Export Plug-In . SVG Version: 6.00 Build 0)  -->
<svg version="1.1" id="Layer_1" xmlns="http://www.w3.org/2000/svg" xmlns:xlink="http://www.w3.org/1999/xlink" x="0px" y="0px"
	 width="97.5px" height="150.4px" viewBox="0 0 97.5 150.4" style="enable-background:new 0 0 97.5 150.4;" xml:space="preserve">
<style type="text/css">
	.st0{fill:#FFC846;}
	.st1{fill:#007EC4;}
	.st2{fill:#182C54;}
</style>
<path class="st0" d="M48.8,4C24,4,4,22.5,4,45.3C4,57,8.7,71,17.6,78c7.3,5.7,10,11,13.3,18c1-0.3,2.1-0.4,3.1-0.2l29.7,7
	c3.5-8.9,7.8-18.5,12.5-21.9c10.5-7.6,17.3-22.4,17.3-35.6C93.5,22.5,73.5,4,48.8,4z"/>
<path class="st1" d="M32.3,112.6l0.3,0.1c0.5,0,1,0,1.4,0.2l30.6,8.7c1.9-0.1,3.3-2.3,3.6-5.4c0.2-1.7-0.1-3.5-0.7-4.9
	s-1.5-2.4-2.5-2.7l-31.6-9c-0.2-0.1-0.5-0.1-0.7-0.1c-0.8,0-1.5,0.4-2.2,1.2c-0.8,1-1.4,2.6-1.6,4.3c-0.2,1.7,0.1,3.5,0.7,4.9
	C30.4,111.4,31.3,112.3,32.3,112.6z"/>
<path class="st1" d="M67.7,129.4c0.2-1.7-0.1-3.5-0.7-4.9s-1.5-2.4-2.5-2.7l-0.4-0.1c-0.1,0-0.1,0-0.2,0c-0.4,0-0.7,0-1.1-0.2
	L32,112.8c-0.7,0.1-1.3,0.4-1.9,1.1c-0.8,1-1.4,2.5-1.6,4.3c-0.2,1.7,0.1,3.5,0.7,4.9s1.5,2.4,2.5,2.7l31.7,8.4
	C65.6,134.8,67.3,132.9,67.7,129.4z"/>
<path class="st1" d="M33.3,126.1l-0.4,8.7c0,2.6,3.2,5.8,5,6.7l8.5,4.4c1.1,0.6,2.3,0.6,3.3,0l11.7-3.9c1.7-0.8-0.2-5.4,0-7.7
	L33.3,126.1z"/>
<path class="st2" d="M48.8,0C21.9,0,0,20.3,0,45.3c0,11.9,4.7,27.6,15.1,35.9c6.5,5.1,8.9,9.6,12.1,16.6c0.1,0.1,0.1,0.2,0.2,0.4
	c0,0,0,0,0,0c0,0-0.1,0.1-0.1,0.1c-1.3,1.6-2.2,3.9-2.4,6.3c-0.3,2.3,0.1,4.8,1,6.9c0,0.1,0.1,0.2,0.1,0.3c0.1,0.2,0.2,0.3,0.3,0.5
	c-1,1.5-1.6,3.4-1.8,5.4c-0.3,2.3,0.1,4.8,1,6.9c0.8,2,2.1,3.5,3.6,4.3l-0.3,5.6c0,0.1,0,0.1,0,0.2c0,4.7,4.7,9,7.2,10.3l8.4,4.4
	c1.1,0.6,2.4,0.9,3.6,0.9c1.1,0,2.2-0.3,3.2-0.8l11.4-3.8c0.2,0,0.3-0.1,0.4-0.2c3.3-1.5,3.2-4.9,2.8-7.6c0.7-0.2,1.4-0.5,2-0.9
	c2.1-1.4,3.4-4,3.8-7.3c0.3-2.3-0.1-4.8-1-6.9c-0.1-0.2-0.2-0.5-0.3-0.7c1-1.5,1.6-3.4,1.8-5.6c0.3-2.3-0.1-4.8-1-6.9
	c-0.9-2.2-2.4-3.8-4.2-4.6c0.2-0.3,0.3-0.5,0.5-0.8c1.6-4.2,6.6-16.9,11.1-20.1c11.2-8.1,19-24,19-38.8C97.5,20.3,75.7,0,48.8,0z
	 M42.6,69.4c2.1-0.8,3.9-2.2,5.8-5c1.5,1,3,1.7,4.5,2.2c0.4,0.1,0.7,0.2,1.1,0.3c-1.4,9.7-2,19.7-0.2,29.5L43.9,94
	C45.1,85.8,44.6,77.3,42.6,69.4z M45.3,47c0.2-0.4,0.7-0.7,1.5-0.9c0.8,0,1,0.2,1,0.3c0.7,1.2,0.1,4.2-0.9,7.3
	C44.8,49.3,45,47.6,45.3,47z M34.4,122.3c-0.3-0.1-0.7-0.1-1-0.1l-0.2-0.1c-0.1-0.1-0.2-0.3-0.3-0.5c-0.4-0.8-0.5-1.9-0.4-2.9
	c0.1-0.6,0.2-1.1,0.3-1.5l28.6,8.1c0.6,0.3,1.2,0.4,1.7,0.4c0.1,0.1,0.1,0.2,0.2,0.4c0.4,0.8,0.5,1.9,0.4,2.9c0,0,0,0,0,0
	c-0.1,0.5-0.1,0.9-0.2,1.1L39,123.6L34.4,122.3z M64.2,115.8c-0.1,0.6-0.2,1.1-0.3,1.4l-28.6-8.1c-0.6-0.2-1.2-0.3-1.8-0.4
	c-0.1-0.1-0.2-0.3-0.4-0.6c-0.3-0.8-0.4-1.8-0.3-2.7c0.1-0.7,0.3-1.3,0.5-1.7l30.2,8.6c0.1,0.1,0.2,0.3,0.3,0.5
	C64.2,113.7,64.3,114.8,64.2,115.8z M48.4,142.1c-0.1,0-0.3,0.1-0.4,0.1l-8.4-4.3c-0.9-0.5-2.6-2.3-2.8-3.1l0.2-3.5l20.6,6
	c0,0.3,0.1,0.5,0.1,0.8c0,0.2,0.1,0.5,0.1,0.8L48.4,142.1z M73.9,77.7c-5,3.6-9.1,12-12.6,20.5l-1.2-0.3c0-0.3,0-0.6,0-1
	c-2.1-9.7-1.4-19.9,0-29.8c2.2-0.3,4.4-1.1,6.2-2.3c0.7-0.5,6.3-5.5,6.7-10.1c0.2-1.7-0.3-3.2-1.4-4.4c-1.7-1.8-3.8-2.7-5.9-2.6
	c-2.6,0.1-5.1,1.7-7.3,4.6c-1.7,2.2-3,6.3-3.3,8.4c0,0.1,0,0.2-0.1,0.3c-0.1,0-0.2-0.1-0.3-0.1c-1.1-0.3-2.2-0.9-3.3-1.7
	c2.1-4.7,4.1-11.5,1.8-15.6c-0.7-1.3-2.6-3.5-6.6-3.4c-0.2,0-0.3,0-0.5,0.1c-3.6,0.7-5.2,2.6-6,4.1c-2,4,0.1,9.1,2.1,13.2
	c0.5,1,1.1,2,1.9,2.9c-0.1,0.1-0.1,0.2-0.2,0.3c-1.1,1.6-1.8,2.5-2.8,3c-0.6-1.6-1.2-3.2-1.9-4.7c-0.7-1.6-1.7-3.5-3.4-4.7
	c-2.2-1.6-6.5-2.5-9.3,0.6c-1.9,2.1-2.7,7,0.8,10.7l0.3,0.3c1.3,1.4,4.3,4.5,9.1,4.4c0.1,0,0.2,0,0.2,0c1.9,7.2,2.4,14.8,1.4,22.4
	l-3.1-0.7c0,0-0.1,0-0.1,0c-0.5-0.1-1-0.2-1.5-0.2c-3.2-6.5-6.3-11.5-13.2-16.8C11.8,68.3,8,55,8,45.3C8,24.7,26.3,8,48.8,8
	c22.4,0,40.7,16.7,40.7,37.3C89.5,57.7,83.1,71,73.9,77.7z M61,60.7c0.4-1.7,1.3-4,1.9-4.8c1.6-2.1,2.6-2.3,2.9-2.3c0,0,0,0,0,0
	c0.4,0,0.8,0.3,1,0.5c-0.2,1.4-2.9,4.6-4.2,5.7C62.2,60.2,61.7,60.5,61,60.7z M30.8,58.9c0.2-0.2,1,0.1,1.3,0.3
	c0.5,0.4,1.2,1.7,1.4,2.3c0.4,0.8,0.7,1.7,1.1,2.5c-1.2-0.5-2.2-1.5-2.9-2.2c-0.1-0.1-0.2-0.3-0.3-0.3
	C30.2,60.3,30.7,59.1,30.8,58.9z"/>
</svg>
