<?xml version="1.0" encoding="utf-8"?>
<!-- Generator: Adobe Illustrator 25.2.1, SVG Export Plug-In . SVG Version: 6.00 Build 0)  -->
<svg version="1.1" id="Layer_1" xmlns="http://www.w3.org/2000/svg" xmlns:xlink="http://www.w3.org/1999/xlink" x="0px" y="0px"
	 width="134.2px" height="140.8px" viewBox="0 0 134.2 140.8" style="enable-background:new 0 0 134.2 140.8;" xml:space="preserve"
	>
<style type="text/css">
	.st0{fill:#0F2D52;}
</style>
<g>
	<path class="st0" d="M119.2,75.5H85.4v-11c0-2.2-1.8-4-4-4H45.3v-8.7c0-2.2-1.8-4-4-4H4c-2.2,0-4,1.8-4,4v85c0,2.2,1.8,4,4,4h37.3
		c0.5,0,1-0.1,1.5-0.3c0.4,0.2,0.9,0.3,1.4,0.3h37.3c0.1,0,0.2,0,0.3,0c0.1,0,0.1,0,0.2,0h37.3c2.2,0,4-1.8,4-4V79.5
		C123.2,77.3,121.4,75.5,119.2,75.5z M37.3,132.8H8v-77h29.3V132.8z M77.4,132.8H48.1V68.5h29.3V132.8z M115.2,132.8H85.9V83.5h29.3
		V132.8z"/>
	<path class="st0" d="M133.8,64c0.1-0.2,0.1-0.3,0.2-0.5c0-0.1,0.1-0.2,0.1-0.3c0-0.2,0.1-0.3,0.1-0.5c0-0.1,0-0.2,0-0.3
		c0-0.2,0-0.4,0-0.5c0-0.1,0-0.2,0-0.3c0-0.2-0.1-0.4-0.2-0.6c0-0.1,0-0.1-0.1-0.2l-6.7-15.2c-0.9-2-3.3-2.9-5.3-2
		c-2,0.9-2.9,3.3-2,5.3l1.7,3.8l-28.8-17c-0.5-0.3-1.1-0.5-1.7-0.5l-35.4-2.9L17.1,0.9c-1.7-1.4-4.2-1.1-5.6,0.6
		c-1.4,1.7-1.1,4.2,0.6,5.6l39.5,32c0.6,0.5,1.4,0.8,2.2,0.9l35.7,2.9L119,60.4l-6.6,1.2c-2.2,0.4-3.6,2.5-3.2,4.7
		c0.4,1.9,2,3.3,3.9,3.3c0.2,0,0.5,0,0.7-0.1l17-3.2c0,0,0,0,0.1,0c0.3-0.1,0.5-0.1,0.8-0.2c0,0,0.1,0,0.1,0c0.5-0.2,0.9-0.5,1.3-1
		c0,0,0.1-0.1,0.1-0.1c0.1-0.2,0.3-0.3,0.4-0.5c0,0,0-0.1,0-0.1c0,0,0,0,0.1-0.1C133.8,64.2,133.8,64.1,133.8,64z"/>
</g>
</svg>
