<?xml version="1.0" encoding="utf-8"?>
<!-- Generator: Adobe Illustrator 25.2.1, SVG Export Plug-In . SVG Version: 6.00 Build 0)  -->
<svg version="1.1" id="Layer_1" xmlns="http://www.w3.org/2000/svg" xmlns:xlink="http://www.w3.org/1999/xlink" x="0px" y="0px"
	 width="128.8px" height="133.8px" viewBox="0 0 128.8 133.8" style="enable-background:new 0 0 128.8 133.8;" xml:space="preserve"
	>
<style type="text/css">
	.st0{fill:#0F2D52;}
</style>
<g>
	<path class="st0" d="M76.5,0C47.7,0,24.2,23.6,24.2,52.5c0,9.9,2.7,19.1,7.5,27l-27.9,30c-5.4,5.8-5.1,15,0.8,20.4
		c2.7,2.6,6.1,3.9,9.9,3.9c3.9,0,7.8-1.7,10.6-4.7l27.7-29.9c7.1,3.7,15.2,5.8,23.7,5.8c28.8,0,52.3-23.6,52.3-52.5
		C128.8,23.6,105.3,0,76.5,0z M19.2,123.7c-1.3,1.4-3.1,2.2-4.8,2.2c-1.7,0-3.2-0.6-4.4-1.7c-2.6-2.4-2.8-6.6-0.4-9.1l26.8-28.8
		c2.8,3.3,5.9,6.3,9.4,8.9L19.2,123.7z M76.5,97.1c-24.4,0-44.3-20-44.3-44.6C32.2,28,52.1,8,76.5,8s44.3,20,44.3,44.6
		C120.8,77.1,100.9,97.1,76.5,97.1z"/>
	<path class="st0" d="M76.5,21c-17.3,0-31.3,14.2-31.3,31.6c0,17.4,14,31.6,31.3,31.6s31.3-14.2,31.3-31.6
		C107.8,35.2,93.8,21,76.5,21z M76.5,76.2c-12.8,0-23.3-10.6-23.3-23.6c0-13,10.5-23.6,23.3-23.6s23.3,10.6,23.3,23.6
		C99.8,65.6,89.3,76.2,76.5,76.2z"/>
</g>
</svg>
