<?xml version="1.0" encoding="utf-8"?>
<!-- Generator: Adobe Illustrator 25.2.1, SVG Export Plug-In . SVG Version: 6.00 Build 0)  -->
<svg version="1.1" id="Layer_1" xmlns="http://www.w3.org/2000/svg" xmlns:xlink="http://www.w3.org/1999/xlink" x="0px" y="0px"
	 width="151.6px" height="151.6px" viewBox="0 0 151.6 151.6" style="enable-background:new 0 0 151.6 151.6;" xml:space="preserve"
	>
<style type="text/css">
	.st0{fill:#0F2D52;}
</style>
<g>
	<path class="st0" d="M75.8,0C34,0,0,34,0,75.8c0,41.8,34,75.8,75.8,75.8c41.8,0,75.8-34,75.8-75.8C151.6,34,117.6,0,75.8,0z
		 M75.8,143.6C38.4,143.6,8,113.2,8,75.8C8,38.4,38.4,8,75.8,8s67.8,30.4,67.8,67.8C143.6,113.2,113.2,143.6,75.8,143.6z"/>
	<path class="st0" d="M75.8,16.3c-32.5,0-59,26.5-59,59c0,32.5,26.5,59,59,59c32.5,0,59-26.5,59-59C134.8,42.8,108.3,16.3,75.8,16.3
		z M75.8,126.3c-28.1,0-51-22.9-51-51c0-28.1,22.9-51,51-51c28.1,0,51,22.9,51,51C126.8,103.4,103.9,126.3,75.8,126.3z"/>
	<path class="st0" d="M79.9,64.4l-0.1-31.3c0-2.2-1.8-4-4-4c0,0,0,0,0,0c-2.2,0-4,1.8-4,4l0.1,31.3c-3.3,1.2-6,3.9-7.1,7.3
		l-19.6,0.4c-2.2,0-4,1.9-3.9,4.1c0,2.2,1.8,3.9,4,3.9c0,0,0.1,0,0.1,0l19.6-0.4c1.7,4.4,6,7.6,11,7.6c6.5,0,11.8-5.3,11.8-11.8
		C87.7,70.4,84.4,66,79.9,64.4z"/>
</g>
</svg>
