<?xml version="1.0" encoding="utf-8"?>
<!-- Generator: Adobe Illustrator 25.2.1, SVG Export Plug-In . SVG Version: 6.00 Build 0)  -->
<svg version="1.1" id="Layer_1" xmlns="http://www.w3.org/2000/svg" xmlns:xlink="http://www.w3.org/1999/xlink" x="0px" y="0px"
	 width="134.9px" height="135.4px" viewBox="0 0 134.9 135.4" style="enable-background:new 0 0 134.9 135.4;" xml:space="preserve"
	>
<style type="text/css">
	.st0{fill:#132E52;}
</style>
<g>
	<path class="st0" d="M135,14.8C134.9,6.7,128.1,0,120,0c-0.1,0-0.2,0-0.4,0c-0.1,0-0.2,0-0.4,0H29.5c-7.6,0-13.7,6.1-13.7,13.7
		v86.7H4c-2.2,0-4,1.8-4,4v15.9c0,8.3,6.7,15,14.9,15h70.3c0.3,0.1,0.6,0.1,0.9,0.1h18.6c7.8,0,14.1-6.3,14.1-14.1V34.8H131
		c2.2,0,4-1.8,4-4L135,14.8z M8,120.3v-11.9h75.9v11.9c0,2.5,0.6,4.9,1.7,7H14.9C11.2,127.3,8,124.1,8,120.3z M110.8,121.3
		c0,3.4-2.7,6.1-6.1,6.1h-5c-0.3-0.1-0.6-0.1-0.9-0.1c-3.7,0-6.9-3.2-6.9-7v-15.9c0-2.2-1.8-4-4-4H23.8V13.7c0-3.2,2.5-5.7,5.7-5.7
		h82.4c-1.1,4.2-1.2,9.1-1.1,11.7V121.3z M127,26.8h-8.2v-7.1c-0.1-4.7,0.6-9.8,1.5-11.6c3.7,0.1,6.7,3.2,6.7,6.9V26.8z"/>
	<path class="st0" d="M99.9,24.9H35.1c-2.2,0-4,1.8-4,4s1.8,4,4,4h64.8c2.2,0,4-1.8,4-4S102.1,24.9,99.9,24.9z"/>
	<path class="st0" d="M99.9,40.3H35.1c-2.2,0-4,1.8-4,4s1.8,4,4,4h64.8c2.2,0,4-1.8,4-4S102.1,40.3,99.9,40.3z"/>
	<path class="st0" d="M99.9,55.7H35.1c-2.2,0-4,1.8-4,4s1.8,4,4,4h64.8c2.2,0,4-1.8,4-4S102.1,55.7,99.9,55.7z"/>
	<path class="st0" d="M99.9,71.1H35.1c-2.2,0-4,1.8-4,4s1.8,4,4,4h64.8c2.2,0,4-1.8,4-4S102.1,71.1,99.9,71.1z"/>
	<path class="st0" d="M99.9,86.5H35.1c-2.2,0-4,1.8-4,4s1.8,4,4,4h64.8c2.2,0,4-1.8,4-4S102.1,86.5,99.9,86.5z"/>
</g>
</svg>
