<?xml version="1.0" encoding="utf-8"?>
<!-- Generator: Adobe Illustrator 25.2.1, SVG Export Plug-In . SVG Version: 6.00 Build 0)  -->
<svg version="1.1" id="Layer_1" xmlns="http://www.w3.org/2000/svg" xmlns:xlink="http://www.w3.org/1999/xlink" x="0px" y="0px"
	 width="128px" height="129.1px" viewBox="0 0 128 129.1" style="enable-background:new 0 0 128 129.1;" xml:space="preserve">
<style type="text/css">
	.st0{fill:#0F2D52;}
</style>
<g>
	<path class="st0" d="M63.5,30.7c-18.7,0-33.9,15.2-33.9,33.9c0,18.6,15.2,33.8,33.8,33.8c18.7,0,34-15.2,34-33.8
		C97.4,45.9,82.2,30.7,63.5,30.7z M63.4,90.4c-14.2,0-25.8-11.6-25.8-25.8c0-14.3,11.6-25.9,25.9-25.9s25.9,11.6,25.9,25.9
		C89.4,78.8,77.7,90.4,63.4,90.4z"/>
	<path class="st0" d="M127.2,54.9c-0.4-2.1-2.4-3.6-4.5-3.3l-6.8,1c-1.2-5.2-3.1-10.1-5.8-14.7l5.7-3.8c0.9-0.6,1.5-1.5,1.7-2.6
		s0-2.1-0.6-3c-5.4-8-12.5-14.7-20.6-19.4C94.4,8,92,8.7,90.9,10.5l-3.5,5.9c-4.8-2.4-9.8-4-15-4.9L73,4.7c0.2-2.2-1.4-4.1-3.5-4.3
		c-1.9-0.2-4-0.3-6-0.3c-9.6,0-18.9,2.1-27.6,6.2c-1,0.5-1.7,1.3-2.1,2.3c-0.4,1-0.3,2.1,0.2,3.1l3,6.2c-4.6,2.6-8.8,5.9-12.4,9.7
		l-5.3-4.3c-1.7-1.4-4.2-1.2-5.6,0.5C7.4,31,3,39.8,0.8,49.1c-0.5,2.1,0.8,4.3,2.9,4.8l6.5,1.6c-0.5,3-0.8,6-0.8,9.1
		c0,2.3,0.1,4.5,0.4,6.6l-6.6,1.3c-1,0.2-2,0.8-2.6,1.7c-0.6,0.9-0.8,2-0.6,3c1.8,9.2,5.8,18.1,11.5,25.9c0.6,0.9,1.6,1.4,2.6,1.6
		c1.1,0.2,2.1-0.1,3-0.7l5.5-4.1c3.5,4.1,7.5,7.5,11.9,10.2l-3.3,6.1c-1,1.9-0.3,4.4,1.6,5.4c8.4,4.5,17.6,7,27.3,7.5
		c0.1,0,0.1,0,0.2,0c2.1,0,3.9-1.7,4-3.8l0.3-6.8c5.2-0.1,10.4-1.1,15.5-2.7l2.6,6.4c0.4,1,1.2,1.8,2.2,2.2c1,0.4,2.1,0.4,3.1,0
		c8.7-3.6,16.7-9.3,23.1-16.3c0.7-0.8,1.1-1.8,1-2.9c-0.1-1.1-0.5-2.1-1.3-2.8l-5.1-4.6c3.2-4.2,5.8-8.8,7.7-13.7l6.8,2
		c2.1,0.6,4.3-0.6,4.9-2.7c1.8-5.8,2.7-12.1,2.7-18.6C128,61.1,127.7,57.8,127.2,54.9z M118.7,77l-6.6-1.9c-2.1-0.6-4.3,0.6-4.9,2.7
		c-1.9,6.4-5.3,12.5-9.8,17.4c-0.7,0.8-1.1,1.8-1,2.9s0.5,2.1,1.3,2.8l4.9,4.4c-4.1,3.9-8.8,7.2-13.8,9.8l-2.5-6.1
		c-0.8-2-3.2-3-5.2-2.2c-5.7,2.3-11.7,3.5-17.7,3.5c-0.3,0-0.5,0-0.8,0c-0.5,0-1-0.1-1.5-0.1c-2.1,0-3.9,1.7-4,3.8l-0.3,6.6
		c-5.7-0.6-11.2-2.1-16.3-4.4l3.1-5.9c0.5-0.9,0.6-2.1,0.3-3.1c-0.3-1-1-1.9-2-2.4c-5.9-3.1-11.1-7.4-15.2-13
		c-1.3-1.8-3.8-2.1-5.6-0.8L15.7,95c-3.1-4.8-5.4-10.1-6.9-15.5l6.4-1.2c1.1-0.2,2-0.8,2.6-1.7c0.6-0.9,0.8-2,0.6-3.1
		c-0.6-2.8-0.9-5.8-0.9-8.9c0-3.9,0.4-7.5,1.4-11.1c0.3-1,0.1-2.1-0.4-3.1c-0.6-0.9-1.4-1.6-2.5-1.8l-6.3-1.5
		c1.7-5.4,4.3-10.6,7.6-15.2l5.1,4.2c0.8,0.7,1.9,1,2.9,0.9c1.1-0.1,2-0.6,2.7-1.5c4.2-5.2,9.6-9.5,15.8-12.4c2-1,2.8-3.3,1.9-5.3
		l-2.8-5.9C49.5,9.3,56.3,8,63.4,8c0.4,0,0.8,0,1.2,0L64,14.6c-0.1,1.1,0.2,2.1,0.9,2.9s1.7,1.3,2.7,1.4c6.8,0.6,13.2,2.7,19.1,6.3
		c1.9,1.1,4.4,0.5,5.5-1.4l3.4-5.7c4.6,3.2,8.8,7.1,12.3,11.6l-5.5,3.7c-0.9,0.6-1.5,1.5-1.7,2.6c-0.2,1,0,2.1,0.6,3
		c3.9,5.7,6.4,12,7.3,18.7c0.2,1.1,0.7,2,1.6,2.6c0.9,0.6,1.9,0.9,3,0.7l6.5-1c0.1,1.4,0.2,2.9,0.2,4.4
		C120,68.9,119.6,73.1,118.7,77z"/>
</g>
</svg>
