<?xml version="1.0" encoding="utf-8"?>
<!-- Generator: Adobe Illustrator 25.2.1, SVG Export Plug-In . SVG Version: 6.00 Build 0)  -->
<svg version="1.1" id="Layer_1" xmlns="http://www.w3.org/2000/svg" xmlns:xlink="http://www.w3.org/1999/xlink" x="0px" y="0px"
	 width="145.9px" height="106.7px" viewBox="0 0 145.9 106.7" style="enable-background:new 0 0 145.9 106.7;" xml:space="preserve"
	>
<style type="text/css">
	.st0{fill:#BAE2E3;}
	.st1{fill:#65C0C8;}
	.st2{fill:#172A53;}
</style>
<path class="st0" d="M39,96.8c-1.4,0.2-2.9,0.3-4.3,0.2c-6.2-0.5-20.4-3.2-21.5-17c-0.6-8,6.2-9.3,11.3-9.7c-1.2-1.5-2.3-3-3.3-4.7
	c-0.1-0.1-0.2-0.3-0.4-0.4c-0.4-0.4-0.8-0.8-1.2-1.2c0,0,0,0,0,0c-0.1,0-0.1-0.1-0.2-0.1c-0.1,0-0.3-0.1-0.1,0c0,0,0,0,0.1,0
	c0,0,0,0,0,0c0,0,0,0,0,0c0.1,0,0.1,0-0.2-0.1c-0.9-0.2-1.4-0.7-1.7-1.4c-6,1.3-13.5,5.3-12.6,17.3c1.5,19.8,18,22.8,26.4,23.5
	c3.6,0.3,7.1,0,9.9-0.3C40.5,100.8,39.7,98.9,39,96.8z"/>
<path class="st0" d="M123.4,2.6c-11.2-0.7-18.2,4.2-20.9,6.6c0.7,0.2,1.4,0.5,2,0.9c0,0,0.1,0,0.1,0.1c0.4,0,0.8,0,1.2,0.1
	c2.7,0.2,5.5,0.7,7.8,2.1c0.4,0.2,0.7,0.5,0.9,0.9c5.2-2,11.2-2.2,15.1,3.3c4.8,6.7,3.4,17.8-2.6,24c1.3,0.9,2.5,2,3.5,3.2
	c0.8,1.1,1.6,2.2,2.1,3.4c2.8-3.2,5.5-9.6,6.8-14.1C141.4,26.5,138.1,3.4,123.4,2.6z"/>
<path class="st1" d="M21.1,64.3l19.6,34.8c1.4,2.5,4.1,4.1,7,4.2c9.8,0.2,31.4-1.1,40.9-5c14.6-5.9,20.9-13.2,21.6-13.9
	c9.8-11.1,17.2-23.5,21.6-33.2c1.1-2.4,0.9-5.2-0.5-7.4c-4.1-6.8-14-23.7-19-32.1c-1.7-2.8-4.7-2.7-7.9-2.1
	c-16.7,3.1-19.4,1.2-33.3,1.7c-2.8,0.1-14,2.6-16.2,4.3c-5.7,4.6-11.6,10.1-16.5,19.1c-3,5.4-12.5,16.1-16.1,20
	C19.8,57.4,19.4,61.2,21.1,64.3z"/>
<path class="st2" d="M136.1,8.1c-3.2-4.6-7.6-7.3-12.6-7.5c-12.8-0.7-20.4,5.2-22.9,7.7c-8.4,1.4-12.7,1.2-18,1.1
	c-3.1-0.1-6.7-0.2-11.5,0c-2.8,0.1-14.6,2.5-17.4,4.8c-5.8,4.7-11.9,10.4-17,19.7c-2.7,4.9-11.5,15-15.8,19.6
	c-1.8,1.9-2.7,4.4-2.7,6.9c-3.4,0.6-7.4,2-10.4,5C4,68.7,2.5,73.6,2.9,79.8c0.8,10.6,6.4,23.7,28.3,25.4c1.2,0.1,2.3,0.1,3.4,0.1
	c3.1,0,6-0.3,8.3-0.7c-0.2-0.3-0.4-0.5-0.5-0.8c1.5,1,3.3,1.5,5.2,1.6c0.7,0,1.4,0,2.2,0c10.4,0,30.2-1.4,39.5-5.2
	c13.9-5.6,20.6-12.5,22.3-14.4c8.9-10.1,16.8-22.4,21.9-33.7c0.6-1.3,0.8-2.7,0.8-4c3.9-4.7,6.5-13.1,6.9-14.4
	C142.9,28.5,141.6,16,136.1,8.1z M36,95c-0.4,0-0.8,0-1.2,0c-5.6-0.4-18.6-2.7-19.6-15.2c-0.2-2.1,0.2-3.6,1.2-4.7
	c1.5-1.7,4.3-2.3,6.9-2.6L36,95z M31.6,101.1C16.3,99.9,8,92.6,7,79.5c-0.4-4.9,0.8-8.8,3.4-11.4c2.4-2.3,5.6-3.4,8.4-3.9
	c0.2,0.4,0.3,0.7,0.5,1.1l1.8,3.3c-2.8,0.5-5.8,1.5-7.8,3.7c-1.7,2-2.5,4.6-2.2,7.8C12.4,96.2,29.4,98.7,34.5,99
	c1.3,0.1,2.5,0.1,3.7-0.1l0.7,1.2c0.2,0.3,0.3,0.5,0.5,0.8C37.1,101.2,34.4,101.3,31.6,101.1z M129.9,50.4
	c-4.9,11-12.6,22.9-21.2,32.7c-1.1,1.3-7.4,7.9-20.8,13.3c-9.4,3.8-31.1,5.1-40.1,4.9c-2.2-0.1-4.2-1.3-5.2-3.1L22.9,63.3
	c-1.3-2.3-1-5.2,0.8-7.2c0.5-0.6,12.8-13.8,16.4-20.4c4.8-8.7,10.5-14.1,16-18.5c1.6-1.3,12.2-3.8,15-3.9c4.7-0.2,8.2-0.1,11.2,0
	c6,0.2,11.2,0.3,22.4-1.8c3.8-0.7,5-0.1,5.8,1.2l0,0c-0.1,0-0.1,0.1-0.2,0.1c0.1,0.1,0.2,0.1,0.2,0.2c0.1,0.1,0.1,0.2,0.2,0.2
	l18.7,31.5C130.6,46.5,130.7,48.6,129.9,50.4z M130.1,30c-0.3,1.7-0.9,3.4-1.6,4.8l-12-20.2c1.8-0.6,3.7-0.9,5.5-0.7
	c2.4,0.3,4.4,1.5,6,3.7C130.1,20.8,130.9,25.4,130.1,30z M137.5,32.4c-1.3,4.2-2.9,7.8-4.3,10.3c0,0,0,0,0,0l-2.3-3.8
	c1.5-2.4,2.7-5.1,3.3-8.1c1.1-5.8,0.1-11.4-2.8-15.5c-2.2-3.1-5.2-4.9-8.8-5.4c-2.7-0.3-5.5,0.2-8.1,1.1l-0.3-0.4
	c-1.3-2.2-3.2-3.1-5-3.4c3.4-1.6,8.1-3,14.2-2.7c3.8,0.2,6.9,2.2,9.5,5.8C137.6,17.5,138.6,28.7,137.5,32.4z"/>
<g>
	<path class="st0" d="M32.1,65.3l15.1,25.2c1.6,2.6,4.4,4.1,7.4,3.9c11-0.6,36.2-2.6,42.6-8.2c18.7-16.1,15.4-17.7,23.9-30.7
		c1.5-2.4,1.8-5.4,0.6-7.9c-3.3-7-10.2-21-15.6-27.9c-2-2.5-5.4-4.6-8.5-3.8c-4.5,1.1-10.6,1.2-14.2,1.2c-5.5,0-20,2.9-24.9,7
		c-4.5,3.7-9.3,11.6-18,22c-3.3,4-5.6,7.5-7.6,9.9C30.6,58.6,30.3,62.3,32.1,65.3z"/>
	<path class="st2" d="M54.1,96.5c-3.6,0-6.9-1.9-8.7-5L30.3,66.3c-2.2-3.7-1.8-8.4,0.9-11.7c0.8-0.9,1.6-2.1,2.6-3.5
		c1.4-1.9,3-4.1,5-6.4c3.5-4.2,6.4-8,8.9-11.3c3.6-4.8,6.5-8.6,9.4-11c5.6-4.6,21-7.4,26.2-7.4c3,0,9.2,0,13.7-1.1
		c4.1-1,8.2,1.6,10.6,4.6c5.5,7,12.3,20.7,15.9,28.3c1.5,3.2,1.3,6.9-0.7,9.9c-2.4,3.7-3.8,6.4-5.1,8.9c-3.3,6.4-5.5,10.6-19.1,22.3
		c-6.2,5.4-27.3,7.7-43.8,8.6C54.5,96.5,54.3,96.5,54.1,96.5z M98.7,17.9c-0.3,0-0.6,0-0.8,0.1c-5,1.2-11.5,1.2-14.7,1.2
		c-5.2,0-19.1,2.8-23.6,6.5c-2.5,2-5.2,5.7-8.7,10.3c-2.5,3.4-5.4,7.2-9,11.5c-1.9,2.3-3.4,4.4-4.8,6.2c-1,1.4-1.9,2.6-2.8,3.6
		c-1.6,2-1.8,4.8-0.5,7l15.1,25.2c1.2,2,3.3,3.1,5.5,2.9c21.8-1.3,37.3-4.1,41.3-7.7c13-11.2,15.1-15.2,18.2-21.1
		c1.3-2.5,2.8-5.4,5.3-9.2c1.2-1.8,1.3-4,0.4-5.9c-2.8-6-10-20.6-15.4-27.5C103,19.4,100.7,17.9,98.7,17.9z"/>
</g>
<g>
	<path class="st1" d="M65.3,55.3c0,0,21.1-9.3,23.2-13.3"/>
	<path class="st2" d="M65.3,57c-0.7,0-1.3-0.4-1.6-1c-0.4-0.9,0-1.9,0.9-2.2c9.9-4.3,21.2-10.4,22.3-12.5c0.4-0.8,1.4-1.2,2.3-0.8
		c0.8,0.4,1.2,1.4,0.8,2.3c-2.1,4.3-18.9,11.9-24,14.1C65.8,57,65.5,57,65.3,57z"/>
</g>
<g>
	<path class="st1" d="M99.9,48.9c0,0-9.2,9.6-15.9,11.5"/>
	<path class="st2" d="M84,62.1c-0.7,0-1.4-0.5-1.6-1.2c-0.3-0.9,0.3-1.8,1.2-2.1c6.2-1.7,15-11,15.1-11.1c0.6-0.7,1.7-0.7,2.4-0.1
		c0.7,0.6,0.7,1.7,0.1,2.4c-0.4,0.4-9.6,10-16.7,12C84.3,62.1,84.1,62.1,84,62.1z"/>
</g>
<g>
	<path class="st1" d="M84.7,60c0,0-12.5,9.3-20,10.4"/>
	<path class="st2" d="M64.7,72.1c-0.8,0-1.5-0.6-1.7-1.4c-0.1-0.9,0.5-1.8,1.4-1.9c7-1.1,19.1-10,19.2-10.1c0.8-0.6,1.8-0.4,2.4,0.3
		c0.6,0.8,0.4,1.8-0.3,2.4c-0.5,0.4-12.9,9.5-20.7,10.7C64.9,72.1,64.8,72.1,64.7,72.1z"/>
</g>
</svg>
