<?xml version="1.0" encoding="utf-8"?>
<!-- Generator: Adobe Illustrator 25.3.1, SVG Export Plug-In . SVG Version: 6.00 Build 0)  -->
<svg version="1.1" id="Capa_1" xmlns="http://www.w3.org/2000/svg" xmlns:xlink="http://www.w3.org/1999/xlink" x="0px" y="0px"
	 width="18px" height="18px" viewBox="0 0 18 18" style="enable-background:new 0 0 18 18;" xml:space="preserve">
<style type="text/css">
	.st0{fill:none;stroke:#007EC5;stroke-width:1.175;stroke-linecap:round;stroke-miterlimit:10;}
	.st1{fill:#007EC5;}
</style>
<path class="st0" d="M5.4,5.3"/>
<g>
	<path class="st1" d="M16,10.6c-0.3,0-0.6,0.3-0.6,0.6v3.6c0,0.3-0.2,0.5-0.5,0.5H3c-0.3,0-0.5-0.2-0.5-0.5v-3.6
		c0-0.3-0.3-0.6-0.6-0.6s-0.6,0.3-0.6,0.6v3.6c0,0.9,0.8,1.7,1.7,1.7h11.9c0.9,0,1.7-0.8,1.7-1.7v-3.6C16.6,10.9,16.3,10.6,16,10.6z
		"/>
	<path class="st1" d="M5.8,5.8l2.5-2.5v8c0,0.3,0.3,0.6,0.6,0.6c0.3,0,0.6-0.3,0.6-0.6v-8l2.5,2.5c0.1,0.1,0.3,0.2,0.4,0.2
		c0.2,0,0.3-0.1,0.4-0.2c0.2-0.2,0.2-0.6,0-0.8L9.4,1.4c0,0,0,0,0,0L9,1L8.5,1.4c0,0,0,0,0,0L5,4.9C4.8,5.2,4.8,5.5,5,5.8
		C5.2,6,5.6,6,5.8,5.8z"/>
</g>
</svg>
