<?xml version="1.0" encoding="utf-8"?>
<!-- Generator: Adobe Illustrator 25.3.1, SVG Export Plug-In . SVG Version: 6.00 Build 0)  -->
<svg version="1.1" id="Capa_1" xmlns="http://www.w3.org/2000/svg" xmlns:xlink="http://www.w3.org/1999/xlink" x="0px" y="0px"
	 width="18px" height="18px" viewBox="0 0 18 18" style="enable-background:new 0 0 18 18;" xml:space="preserve">
<style type="text/css">
	.st0{fill:#007EC5;}
</style>
<g>
	<path class="st0" d="M14.6,9C14.3,9,14,9.3,14,9.6v4.9c0,0.3-0.3,0.6-0.6,0.6H4.1c-0.3,0-0.6-0.3-0.6-0.6V5.1
		c0-0.3,0.3-0.6,0.6-0.6h4.4C8.8,4.5,9,4.2,9,3.9S8.8,3.3,8.5,3.3H4.1c-1,0-1.8,0.8-1.8,1.8v9.4c0,1,0.8,1.8,1.8,1.8h9.4
		c1,0,1.8-0.8,1.8-1.8V9.6C15.2,9.3,15,9,14.6,9z"/>
	<path class="st0" d="M15.9,1.6c-0.3-0.3-0.8-0.5-1.3-0.5c-0.5,0-0.9,0.2-1.2,0.6L6.6,9.1l-0.3,3.2l2.9-0.9L16,4.1
		c0.3-0.3,0.5-0.8,0.5-1.3S16.2,1.9,15.9,1.6z M15.1,3.3l-6.5,7.1l-1,0.3l0.1-1.1l6.5-7.1c0.1-0.1,0.3-0.2,0.4-0.2
		c0.2,0,0.3,0,0.4,0.2c0.1,0.1,0.2,0.3,0.2,0.4C15.3,3,15.2,3.2,15.1,3.3z"/>
</g>
</svg>
