<?xml version="1.0" encoding="utf-8"?>
<!-- Generator: Adobe Illustrator 25.2.1, SVG Export Plug-In . SVG Version: 6.00 Build 0)  -->
<svg version="1.1" id="Layer_1" xmlns="http://www.w3.org/2000/svg" xmlns:xlink="http://www.w3.org/1999/xlink" x="0px" y="0px"
	 width="111.8px" height="146.6px" viewBox="0 0 111.8 146.6" style="enable-background:new 0 0 111.8 146.6;" xml:space="preserve"
	>
<style type="text/css">
	.st0{fill:#72BDE9;}
	.st1{fill:#007EC4;}
	.st2{fill:#0F2D52;}
</style>
<path class="st0" d="M55.9,132c-23.3,0-42.2-18.9-42.2-42.2V42.2C13.7,18.9,32.6,0,55.9,0s42.2,18.9,42.2,42.2v47.7
	C98.1,113.1,79.1,132,55.9,132z M55.9,22.4c-10.9,0-19.8,8.9-19.8,19.8v47.7c0,10.9,8.9,19.8,19.8,19.8s19.8-8.9,19.8-19.8V42.2
	C75.7,31.2,66.8,22.4,55.9,22.4z"/>
<path class="st0" d="M107.8,71.1c0-6.4-5.2-11.5-11.5-11.5H15.5C9.2,59.6,4,64.7,4,71.1v56h103.8V71.1z"/>
<path class="st1" d="M15.5,142.6h80.7c6.4,0,11.5-5.2,11.5-11.5v-3.9H4v3.9C4,137.4,9.2,142.6,15.5,142.6z"/>
<path class="st2" d="M65.6,89.6c0-5.4-4.4-9.7-9.7-9.7c-5.4,0-9.7,4.4-9.7,9.7c0,4.1,2.5,7.5,6,9v6c0,2.1,1.7,3.7,3.7,3.7
	c2.1,0,3.7-1.7,3.7-3.7v-6C63.2,97.1,65.6,93.7,65.6,89.6z"/>
<path class="st2" d="M55.9,112.3c-4.2,0-7.7-3.5-7.7-7.7v-3.7c-3.7-2.6-6-6.8-6-11.3c0-7.6,6.1-13.7,13.7-13.7S69.6,82,69.6,89.6
	c0,4.7-2.2,8.9-6,11.4v3.6C63.6,108.8,60.1,112.3,55.9,112.3z M55.9,83.9c-3.1,0-5.7,2.6-5.7,5.7c0,2.3,1.4,4.4,3.6,5.3
	c1,0.4,1.7,1.2,2.1,2.2c0.4-1,1.2-1.8,2.2-2.2c2.2-0.9,3.5-2.9,3.5-5.3C61.6,86.5,59,83.9,55.9,83.9z"/>
<path class="st2" d="M111.8,71.1c0-6.5-4-12.1-9.7-14.4V42.2C102.1,16.7,81.3-4,55.9-4C30.4-4,9.7,16.7,9.7,42.2v14.5
	C4,59,0,64.6,0,71.1v56c0,0,0,0,0,0c0,0,0,0,0,0v3.9c0,8.5,7,15.5,15.5,15.5h80.7c8.5,0,15.5-7,15.5-15.5V128
	c0.1-0.3,0.1-0.6,0.1-0.9V71.1z M55.9,4c21,0,38.2,17.1,38.2,38.2v13.4H79.7V42.2C79.7,29,69,18.4,55.9,18.4
	c-13.1,0-23.8,10.6-23.8,23.8v13.4H17.7V42.2C17.7,21.1,34.8,4,55.9,4z M71.7,55.6H40.1V42.2c0-8.7,7.1-15.8,15.8-15.8
	s15.8,7.1,15.8,15.8V55.6z M8,71.1c0-4.1,3.4-7.5,7.5-7.5h80.8c4.1,0,7.5,3.4,7.5,7.5v52H8V71.1z M96.2,138.6H15.5
	c-4,0-7.4-3.4-7.5-7.4h95.7C103.6,135.3,100.3,138.6,96.2,138.6z"/>
</svg>
