<?xml version="1.0" encoding="utf-8"?>
<!-- Generator: Adobe Illustrator 25.2.1, SVG Export Plug-In . SVG Version: 6.00 Build 0)  -->
<svg version="1.1" id="Layer_1" xmlns="http://www.w3.org/2000/svg" xmlns:xlink="http://www.w3.org/1999/xlink" x="0px" y="0px"
	 width="118.7px" height="139.9px" viewBox="0 0 118.7 139.9" style="enable-background:new 0 0 118.7 139.9;" xml:space="preserve"
	>
<style type="text/css">
	.st0{fill:#6CCAD0;}
	.st1{fill:#0F2D52;}
</style>
<polygon class="st0" points="100.1,135.9 18.6,135.9 14.9,38.7 103.8,38.7 "/>
<rect x="4" y="21.7" class="st0" width="110.7" height="25"/>
<rect x="38.9" y="4" class="st0" width="41" height="17.7"/>
<path class="st1" d="M114.7,17.7H83.9V4c0-2.2-1.8-4-4-4h-41c-2.2,0-4,1.8-4,4v13.7H4c-2.2,0-4,1.8-4,4v25c0,2.2,1.8,4,4,4h7.4
	l3.2,85.4c0.1,2.1,1.8,3.8,4,3.8h81.5c2.2,0,3.9-1.7,4-3.8l3.2-85.4h7.4c2.2,0,4-1.8,4-4v-25C118.7,19.5,116.9,17.7,114.7,17.7z
	 M42.9,8h33v9.7h-33V8z M96.2,131.9H22.5l-3.1-81.2h80L96.2,131.9z M110.7,42.7h-3l0-0.4c-0.2,0.1-0.4,0.3-0.6,0.4H8v-17h30.9h41
	h30.8V42.7z"/>
<path class="st1" d="M39.6,117.6c-2.1,0-3.9-1.6-4-3.8L33,71c-0.1-2.2,1.5-4.1,3.8-4.2c2.2-0.1,4.1,1.5,4.2,3.8l2.6,42.8
	c0.1,2.2-1.5,4.1-3.8,4.2C39.8,117.6,39.7,117.6,39.6,117.6z"/>
<path class="st1" d="M79.7,117.6c-0.1,0-0.2,0-0.3,0c-2.2-0.1-3.9-2-3.7-4.2l2.7-42.8c0.1-2.2,2-3.9,4.2-3.7c2.2,0.1,3.9,2,3.7,4.2
	l-2.7,42.8C83.6,116,81.8,117.6,79.7,117.6z"/>
<path class="st1" d="M59.4,123.9c-2.2,0-4-1.8-4-4V64.5c0-2.2,1.8-4,4-4c2.2,0,4,1.8,4,4v55.4C63.4,122.1,61.6,123.9,59.4,123.9z"/>
</svg>
