<?xml version="1.0" encoding="utf-8"?>
<!-- Generator: Adobe Illustrator 25.2.1, SVG Export Plug-In . SVG Version: 6.00 Build 0)  -->
<svg version="1.1" id="Layer_1" xmlns="http://www.w3.org/2000/svg" xmlns:xlink="http://www.w3.org/1999/xlink" x="0px" y="0px"
	 width="111.2px" height="121.3px" viewBox="0 0 111.2 121.3" style="enable-background:new 0 0 111.2 121.3;" xml:space="preserve"
	>
<style type="text/css">
	.st0{fill:#0F2D52;}
</style>
<g>
	<path class="st0" d="M105.6,89l-0.7-0.2l-2.8,0.1l-26-29.1l-0.7-8.1L70,47c4-12.2,1.1-25.9-7.6-35.4C50.1-1.8,29.7-3.9,15,6.7
		C6.8,12.6,1.6,21.3,0.3,31.2C-1,41.1,1.8,50.9,8.1,58.6c8.8,10.7,22.6,15.3,36,12.2l38.7,45.4l15.7,5.1l12.5-9.8l0.2-14.9
		C111.2,93.2,108.9,90,105.6,89z M103,107.6l-6.1,4.8l-9.5-3.1L46.8,61.7l-2.5,0.8c-11,3.5-22.8,0-30-8.9c-4.9-6-7.1-13.6-6.1-21.3
		c1-7.7,5.1-14.5,11.4-19.1C30.9,5.1,47.1,6.8,56.5,17c7.3,8,9.4,19.6,5.2,29.7l-1.1,2.6l7.2,6.3l0.7,7.5l30.4,33.9l4.5-0.2
		L103,107.6z"/>
	<path class="st0" d="M23.9,20c-6.4,5.3-7.3,14.8-2,21.1c2.6,3.1,6.2,5,10.1,5.4c0.5,0,1,0.1,1.5,0.1c3.5,0,6.8-1.2,9.5-3.5
		c3.1-2.6,5-6.2,5.4-10.1c0.4-4-0.8-7.9-3.4-11C39.8,15.7,30.3,14.8,23.9,20z M37.9,37c-1.4,1.2-3.3,1.8-5.1,1.6
		c-1.9-0.2-3.6-1.1-4.8-2.5c-1.2-1.4-1.8-3.3-1.6-5.1c0.2-1.9,1.1-3.6,2.5-4.8c1.3-1.1,2.9-1.6,4.4-1.6c2,0,4,0.9,5.5,2.6
		C41.4,30.1,40.9,34.5,37.9,37z"/>
</g>
</svg>
