<?xml version="1.0" encoding="utf-8"?>
<!-- Generator: Adobe Illustrator 25.2.1, SVG Export Plug-In . SVG Version: 6.00 Build 0)  -->
<svg version="1.1" id="Layer_1" xmlns="http://www.w3.org/2000/svg" xmlns:xlink="http://www.w3.org/1999/xlink" x="0px" y="0px"
	 width="178.1px" height="173.3px" viewBox="0 0 178.1 173.3" style="enable-background:new 0 0 178.1 173.3;" xml:space="preserve"
	>
<style type="text/css">
	.st0{fill:#0F2D52;}
</style>
<g>
	<path class="st0" d="M145.1,122.1c-0.3-0.4-0.7-0.7-1.1-0.9c0.7-1,1.1-2.1,1.2-3.4c0.3-2.1-0.3-4.2-1.6-5.9l-12.8-16.6
		c-1.6-2-4-3.1-6.3-3.1c0,0-0.1,0-0.1,0c-0.3-1-0.7-1.9-1.4-2.7L110.2,73c-1.6-2-3.9-3.1-6.3-3.1c-0.1,0-0.2,0-0.3,0
		c-0.3-1-0.8-2-1.4-2.9L89.5,50.6c-1.6-2-3.9-3.1-6.3-3.1c-0.3,0-0.7,0-1,0.1c-0.3-1-0.7-1.9-1.4-2.8L68.1,28.6
		c-1.5-2-3.9-3.1-6.3-3.1c-0.8,0-1.5,0.1-2.3,0.3c2-2.8,2-6.7-0.2-9.5L56.5,13c-1.6-2-4-3.1-6.3-3.1c-1.7,0-3.4,0.5-4.9,1.7
		l-0.8,0.7c-0.5-0.1-1-0.1-1.4-0.1c-1.9,0-3.7,0.6-5.2,1.9l-4.6,4c-1.5,1.3-2.4,3.1-2.7,5L17.3,33.2c-0.3,0-0.7-0.1-1-0.1
		c-1.6,0-3.2,0.5-4.5,1.4l-5,3.5c-2.1,1.4-3.3,3.7-3.4,6l-0.2,0.2c-3.5,2.7-4.1,7.7-1.4,11.2l2.7,3.5c1.3,1.7,3.2,2.8,5.3,3
		c0.3,0,0.7,0.1,1,0.1c0.7,0,1.5-0.1,2.2-0.3c-0.6,1-1.1,2.1-1.2,3.3c-0.3,2.1,0.3,4.2,1.6,5.9L26,87.2c1,1.2,2.2,2.1,3.5,2.6
		c0,0,0,0.1,0,0.1c-0.3,2.1,0.3,4.2,1.6,5.9l12.7,16.4c0.8,1,1.8,1.8,2.9,2.3c-0.4,2.2,0,4.6,1.5,6.5L61,137.5
		c0.7,0.9,1.6,1.7,2.7,2.2c0,0.2-0.1,0.3-0.1,0.5c-0.3,2.1,0.3,4.2,1.6,5.9L78,162.7c1.6,2,3.9,3.1,6.3,3.1c1,0,2.1-0.2,3-0.6
		c0.2,0.4,0.3,0.7,0.6,1.1l1.8,3.1c1.2,2,3.1,3.3,5.4,3.8c0.5,0.1,1,0.1,1.5,0.1c1.8,0,3.5-0.6,4.9-1.7l4.8-3.7
		c3.2-2.5,4.1-7,2-10.4l-1.8-3.1c-0.5-0.9-1.2-1.6-1.9-2.2l22.7-17.6c0.4,0.9,0.9,1.7,1.6,2.4l2.5,2.5c1.6,1.6,3.6,2.4,5.7,2.4
		c1.7,0,3.4-0.6,4.9-1.7l4.8-3.7c1.8-1.4,2.9-3.5,3.1-5.8c0.2-2.3-0.7-4.5-2.3-6.2L145.1,122.1z M10.7,54L8,50.5l4.8-3.7l-1.4-2.2
		l5-3.5l1.3,2L40,25.8l-1.6-1.7l4.6-4l1.8,2l5.4-4.2l2.7,3.5l-5,3.9l3.2,3.5l-4.8,3.7L43,29.1L20,46.8l2.5,4l-4.8,3.7l-2.5-4
		L10.7,54z M19.7,66.1l42.1-32.6l12.6,16.3L32.2,82.3L19.7,66.1z M37.4,90.9l45.8-35.4l12.7,16.4l-45.8,35.4L37.4,90.9z M54.5,116.1
		l49.4-38.2l12.8,16.5l-49.4,38.2L54.5,116.1z M71.5,141.2l53-41l12.8,16.6l-53,41L71.5,141.2z M96.6,165.3l-1.8-3.1l4.8-3.7
		l1.8,3.1L96.6,165.3z M137.1,133.9l-2.5-2.5l4.8-3.7l2.5,2.5L137.1,133.9z"/>
	<circle class="st0" cx="34.5" cy="67.6" r="3"/>
	<circle class="st0" cx="61" cy="46.8" r="3"/>
	<circle class="st0" cx="50" cy="92.9" r="3"/>
	<circle class="st0" cx="81.5" cy="68.6" r="3"/>
	<circle class="st0" cx="69.3" cy="116.3" r="3"/>
	<circle class="st0" cx="100.9" cy="92.2" r="3"/>
	<path class="st0" d="M176.1,63.5L107,14.9c0-0.3-0.1-0.6-0.1-1c-0.7-4.4-3.2-8.2-6.8-10.8C92.7-2.2,82.3-0.4,77,7.1
		c-2.6,3.6-3.6,8-2.9,12.4c0.7,4.4,3.2,8.2,6.8,10.8c2.9,2,6.2,3.1,9.6,3.1c1.3,0,2.5-0.1,3.8-0.4l69.2,48.7
		c0.8,0.6,1.8,0.9,2.8,0.9c0.3,0,0.6,0,1-0.1c3.4-0.6,6.5-4.6,7.6-6.3C180.2,68.2,177.9,64.8,176.1,63.5z M85.5,23.7
		c-1.9-1.3-3.1-3.3-3.5-5.6c-0.4-2.3,0.1-4.5,1.5-6.4C85.2,9.3,87.8,8,90.5,8c1.7,0,3.5,0.5,5,1.6c1.9,1.3,3.2,3.3,3.5,5.6
		c0.4,2.3-0.1,4.5-1.5,6.4c-0.6,0.8-1.2,1.5-2,2C92.5,25.8,88.5,25.9,85.5,23.7z M168.2,71.5c-0.7,1-1.4,1.8-1.9,2.3l-64.2-45.2
		c0.7-0.7,1.4-1.5,2-2.3c0.6-0.8,1.1-1.7,1.6-2.7l64.2,45.2C169.4,69.5,168.9,70.5,168.2,71.5z"/>
	<circle class="st0" cx="86" cy="143.4" r="3"/>
	<circle class="st0" cx="124.1" cy="114.2" r="3"/>
</g>
</svg>
