<?xml version="1.0" encoding="utf-8"?>
<!-- Generator: Adobe Illustrator 25.2.1, SVG Export Plug-In . SVG Version: 6.00 Build 0)  -->
<svg version="1.1" id="Layer_1" xmlns="http://www.w3.org/2000/svg" xmlns:xlink="http://www.w3.org/1999/xlink" x="0px" y="0px"
	 width="139.6px" height="118.9px" viewBox="0 0 139.6 118.9" style="enable-background:new 0 0 139.6 118.9;" xml:space="preserve"
	>
<style type="text/css">
	.st0{fill:#0F2D52;}
</style>
<path class="st0" d="M120.9,0H18.7C8.4,0,0,8.4,0,18.7v64.2c0,10.3,8.4,18.7,18.7,18.7h54.1l17.3,17.3l17.3-17.3h13.5
	c10.3,0,18.7-8.4,18.7-18.7V18.7C139.6,8.4,131.2,0,120.9,0z M131.6,82.9c0,5.9-4.8,10.7-10.7,10.7H104l-13.9,13.9L76.2,93.6H18.7
	C12.8,93.6,8,88.8,8,82.9V18.7C8,12.8,12.8,8,18.7,8h102.2c5.9,0,10.7,4.8,10.7,10.7V82.9z"/>
</svg>
