<?xml version="1.0" encoding="utf-8"?>
<!-- Generator: Adobe Illustrator 25.2.1, SVG Export Plug-In . SVG Version: 6.00 Build 0)  -->
<svg version="1.1" id="Layer_1" xmlns="http://www.w3.org/2000/svg" xmlns:xlink="http://www.w3.org/1999/xlink" x="0px" y="0px"
	 width="110px" height="137.1px" viewBox="0 0 110 137.1" style="enable-background:new 0 0 110 137.1;" xml:space="preserve">
<style type="text/css">
	.st0{fill:#FFC846;}
	.st1{fill:#F7942D;}
	.st2{fill:#182C54;}
</style>
<g>
	<circle class="st0" cx="55" cy="18.6" r="14.6"/>
	<path class="st0" d="M105.9,120.1c-4-3.2-7.9-49.5-8.7-59.1c0-0.1,0-0.2,0-0.2c0-22.7-18.9-41-42.1-41c-23.3,0-42.1,18.4-42.1,41
		c0,0.2,0,0.3,0,0.5c-0.7,10-4.1,54.9-8.7,58.9C-1,124.6,110.3,123.6,105.9,120.1z"/>
	<ellipse class="st1" cx="55.1" cy="120.1" rx="50.9" ry="13.1"/>
	<path class="st1" d="M69.6,107.5c-4.6-0.3-9.4-0.5-14.5-0.5s-10,0.2-14.7,0.6c0.3,7.8,6.7,14,14.6,14S69.3,115.3,69.6,107.5z"/>
	<path class="st2" d="M110,119.6c-0.1-1.8-0.8-3.4-2.1-4.8c-1.6-6.3-4.1-22.8-6.7-53.9v0c0-18.4-11.4-34.3-27.6-41.2
		c0-0.3,0-0.6,0-1C73.6,8.3,65.3,0,55,0C44.7,0,36.4,8.3,36.4,18.6c0,0.4,0,0.7,0,1.1C20.3,26.7,9,42.5,9,60.8v0.4
		c-1.7,24.7-4.3,45.4-6.4,53.3c-1.4,1.5-2.2,3.2-2.3,5c-0.2,0.8-0.2,1.7,0.1,2.5c0.1,0.2,0.1,0.3,0.2,0.5
		C4.4,134,36,137.2,55.1,137.2c19.8,0,52.9-3.4,54.8-15.9C110,120.7,110.1,120.1,110,119.6z M55,8c5.3,0,9.7,3.9,10.5,9
		c-3.3-0.8-6.8-1.2-10.4-1.2c-3.6,0-7.2,0.4-10.6,1.2C45.3,11.9,49.7,8,55,8z M17,61.6c0-0.1,0-0.2,0-0.3v-0.5
		c0-20.4,17.1-37,38.1-37s38.1,16.6,38.1,37V61c0,0.1,0,0.2,0,0.3c2,24.3,3.8,38.8,5.4,47.6c-7.6-2.9-18-4.5-28-5.3
		c-0.2-0.1-0.5-0.1-0.8-0.1c-4.2-0.3-8.1-0.4-11.9-0.5c-1,0-1.9,0-2.8,0c-1.1,0-2.2,0-3.3,0c-0.4,0-0.8,0-1.2,0
		c-0.8,0-1.5,0-2.3,0.1c-0.4,0-0.9,0-1.3,0.1c-1,0-2.1,0.1-3.2,0.2c-0.1,0-0.1,0-0.2,0c-10.9,0.7-23.1,2.3-31.7,5.5
		C13.5,100,15.3,85.6,17,61.6z M54.5,111c0.1,0,0.2,0,0.4,0c1.5,0,3.1,0,4.7,0.1c0.1,0,0.1,0,0.2,0c1.5,0,3,0.1,4.5,0.2
		c0.2,0,0.4,0,0.5,0c-1.6,3.8-5.4,6.4-9.7,6.4c-4.4,0-8.1-2.6-9.7-6.3C48.3,111.1,51.3,111,54.5,111z M55.1,129.2
		c-28.3,0-45.3-5.8-46.9-9.1c1.2-2.5,11.4-6.5,28.8-8.2c2.1,8,9.3,13.7,18,13.7c8.6,0,15.8-5.8,17.9-13.8c17.5,1.7,27.8,5.8,29,8.3
		C100.4,123.3,83.4,129.2,55.1,129.2z"/>
</g>
</svg>
