<?xml version="1.0" encoding="utf-8"?>
<!-- Generator: Adobe Illustrator 25.2.1, SVG Export Plug-In . SVG Version: 6.00 Build 0)  -->
<svg version="1.1" id="Capa_1" xmlns="http://www.w3.org/2000/svg" xmlns:xlink="http://www.w3.org/1999/xlink" x="0px" y="0px"
	 width="31.3px" height="31.2px" viewBox="0 0 31.3 31.2" style="enable-background:new 0 0 31.3 31.2;" xml:space="preserve">
<style type="text/css">
	.st0{fill:none;}
	.st1{fill:#FFFFFF;}
	.st2{fill:#6CCAD0;}
	.st3{fill:#F7942D;}
	.st4{fill:#72BDE9;}
	.st5{fill:#FFC846;}
	.st6{fill:#0F2D52;}
</style>
<g transform="translate(-2.685 -2.473)">
	<path class="st0" d="M19.7,9.5"/>
	<path class="st1" d="M14.1,19.8"/>
	<path class="st2" d="M26.9,33.7c-0.6,0.1-1.2-0.3-1.5-0.8c-0.2-0.4-0.2-0.9-0.2-1.3c0-0.2,0-0.4,0-0.6c0-0.2-0.1-0.4-0.2-0.6
		c-0.2-0.2-0.5-0.3-0.8-0.2c-0.3,0-0.6,0-0.9,0.1c-0.9,0.1-1.8,0.3-2.7,0.7l-0.2,0.1l-0.1-0.2c-0.5-1.2-0.8-2.5-0.9-3.8
		c0-0.1,0-0.3,0.1-0.4c0.1-0.2,0.3-0.3,0.5-0.3h0.1c0.3,0,0.5,0,0.8,0c0.2,0,0.5,0,0.7-0.1c0.3,0,0.6-0.1,0.8-0.3
		c0.8-0.5,1-1.5,0.6-2.2c-0.1-0.2-0.2-0.3-0.3-0.4c-0.4-0.3-1-0.5-1.5-0.4c-0.3,0-0.5,0.1-0.8,0.2l-0.2,0.1
		c-0.2,0.1-0.4,0.2-0.6,0.2c-0.1,0-0.2,0-0.3,0c-0.4-0.1-0.6-0.5-0.6-1.3c0-0.6-0.1-1.3-0.1-1.9c0-0.3,0-0.7,0-1v-0.5h0.2
		c0.3,0,0.6,0,0.9,0c0.3,0,0.6,0,1,0c0.4,0,0.8,0,1.3-0.1c0.2,0,0.4-0.1,0.6-0.1c0.2,0,0.4-0.1,0.5-0.2c0.2-0.2,0.3-0.6,0.3-0.9
		c0-0.2-0.1-0.4-0.2-0.6c0-0.1-0.1-0.2-0.1-0.3v0c-0.4-0.9-0.1-1.9,0.7-2.3c0.1,0,0.2-0.1,0.3-0.1c0.5,0,1,0.1,1.3,0.5
		c0.4,0.5,0.6,1.1,0.6,1.7v0.2c0,0.5,0,1,0.4,1.3c0.2,0.1,0.3,0.1,0.5,0.2c0.3,0,0.6,0,0.9,0c0.6-0.1,1.2-0.2,1.8-0.5
		c0.4-0.1,0.8-0.2,1.2-0.3l0.2,0l0,0.2c0.3,1.1,0.5,2.1,0.8,3.2c0.1,0.3,0.1,0.6,0,1c-0.2,0.3-0.6,0.6-1,0.6c-0.1,0-0.1,0-0.2,0
		h-0.4l0,0c-0.2,0-0.5,0-0.7,0c-0.1,0-0.3,0-0.4,0.1c-0.8,0.3-1.2,1.1-0.9,1.9c0.2,0.6,0.8,1,1.4,1c0.1,0,0.1,0,0.2,0
		c0.2,0,0.5-0.1,0.7-0.2c0.1,0,0.2-0.1,0.3-0.1c0.1,0,0.2-0.1,0.3-0.1c0.3-0.1,0.6,0,0.8,0.2c0.3,0.3,0.4,0.7,0.4,1.1
		c0.1,1.1,0.1,2.2,0.2,3.3v0.2h-0.2c-0.4,0-0.9,0-1.3,0c-0.6-0.1-1.2-0.1-1.9,0c-0.4,0-0.7,0.1-1,0.3c-0.2,0.1-0.4,0.2-0.5,0.5
		c0,0.1,0,0.3,0,0.4c0,0.2,0.1,0.4,0.2,0.6c0.2,0.4,0.2,0.9,0.2,1.3C28.1,33.1,27.6,33.6,26.9,33.7L26.9,33.7z"/>
	<path class="st3" d="M16.4,31.9c-0.1,0-0.2,0-0.3,0c-0.5-0.2-0.7-0.7-0.7-1.1v-0.5c0-0.4,0-0.7-0.1-1.1c-0.3-0.7-1-1.2-1.7-1.1
		h-0.1c-0.8,0.2-1.3,0.9-1.3,1.7c0,0.3,0.1,0.6,0.2,0.9c0.2,0.4,0.2,0.9,0.1,1.3c-0.2,0.3-0.6,0.5-1,0.5c-0.1,0-0.2,0-0.3,0
		c-1.1,0.1-2.2,0.1-3.4,0.2H7.6v-0.2c0.2-1.3,0.1-2.7-0.1-4c0-0.2-0.2-0.4-0.3-0.6c-0.2-0.1-0.4-0.1-0.5-0.1H6.4
		c-0.3,0-0.5,0.1-0.8,0.2c-0.2,0.1-0.5,0.2-0.7,0.2H4.7c-0.8,0-1.4-0.6-1.5-1.3c-0.1-0.8,0.3-1.5,1.1-1.7c0.1,0,0.2,0,0.3-0.1
		c0.2,0,0.5,0,0.7,0c0.2,0,0.5,0,0.7,0l0.2,0c0.2,0,0.3-0.1,0.4-0.2c0.1-0.1,0.1-0.2,0.2-0.4c0.1-1,0-2.1-0.4-3.1
		c-0.1-0.2-0.1-0.4-0.2-0.6l-0.1-0.2l0.2-0.1c0.3-0.1,0.7-0.2,1.1-0.3h0C7.7,20.1,8,20,8.3,20c0.3-0.1,0.6-0.2,0.9-0.2
		c0.4-0.1,0.8,0,1.2,0.1c0.1,0,0.2,0.1,0.3,0.2c0.1,0.1,0.1,0.2,0.1,0.3c0,0.3,0.1,0.6,0,0.9c0,0.5,0,0.9,0.2,1.3
		c0.2,0.4,0.6,0.8,1.1,0.9c0.3,0.1,0.5,0.1,0.8,0.1c0.2,0,0.4-0.1,0.6-0.2c0.7-0.5,1-1.3,0.8-2.1c-0.1-0.2-0.1-0.3-0.2-0.5v0
		c-0.1-0.1-0.1-0.3-0.2-0.4c-0.1-0.3-0.1-0.6,0.1-0.9c0.2-0.2,0.4-0.3,0.7-0.3c0.1,0,0.3,0,0.4,0l3.2-0.1h0.1l0.1,0.1
		c0,0,0.1,0.1,0.1,0.2c0,0.3,0,0.7,0,1c0,0.6,0,1.3,0.1,1.9c0,0.8,0.3,1.3,0.7,1.4c0.1,0,0.2,0,0.4,0c0.2,0,0.4-0.1,0.7-0.2l0.2-0.1
		c0.2-0.1,0.5-0.2,0.7-0.2c0.5-0.1,1,0,1.4,0.3c0.6,0.5,0.7,1.4,0.2,2.1c-0.1,0.1-0.2,0.2-0.4,0.3c-0.2,0.1-0.5,0.2-0.8,0.2
		c-0.2,0-0.5,0-0.7,0c-0.3,0-0.5,0-0.8,0H20c-0.3,0-0.5,0.2-0.7,0.4c-0.1,0.2-0.1,0.3-0.1,0.5c0,1.4,0.3,2.7,0.9,4l0.1,0.2l-3.6,0.8
		C16.6,31.9,16.5,31.9,16.4,31.9z"/>
	<path class="st4" d="M12.9,23.3c-0.2,0-0.5,0-0.7-0.1c-0.4-0.1-0.8-0.4-0.9-0.8c-0.1-0.4-0.2-0.8-0.2-1.3c0-0.3,0-0.6-0.1-0.9
		c0-0.3-0.3-0.6-0.6-0.7c-0.4-0.1-0.8-0.1-1.3-0.1c-0.3,0-0.6,0.1-0.9,0.2c-0.3,0.1-0.6,0.2-0.9,0.3h0c-0.4,0.1-0.8,0.2-1.2,0.3
		l-0.2,0l-0.8-3.8c-0.1-0.2-0.1-0.5,0-0.7c0.2-0.4,0.6-0.7,1-0.7c0,0,0.1,0,0.1,0h0.5c0.2,0,0.5,0,0.7,0c0.1,0,0.3-0.1,0.4-0.1
		c0.8-0.3,1.3-1.2,1-2C8.6,12.4,7.9,12,7.2,12c0,0-0.1,0-0.1,0c-0.3,0-0.5,0.1-0.8,0.2c-0.2,0.1-0.5,0.1-0.7,0.2
		c-0.2,0-0.4,0-0.6-0.1c-0.4-0.3-0.6-0.9-0.5-1.4C4.4,9.8,4.3,8.6,4.3,7.5V7.3l0.2,0c1.1,0.1,2.1,0.1,3.2,0c0.3,0,0.6-0.1,0.9-0.2
		c0.2,0,0.4-0.2,0.6-0.3c0.1-0.2,0.2-0.4,0.1-0.6c0-0.3-0.1-0.7-0.2-1C8.9,5,8.8,4.7,8.8,4.3c0-0.8,0.5-1.4,1.3-1.5
		c0.8-0.1,1.5,0.3,1.7,1.1c0.1,0.3,0.1,0.7,0.1,1c0,0.3,0,0.6,0,0.9c0,0.2,0.1,0.3,0.2,0.5c0.1,0.1,0.2,0.2,0.4,0.2
		c0.4,0.1,0.8,0.1,1.3,0.1c0.6-0.1,1.2-0.3,1.8-0.5C16,6,16.3,5.9,16.6,5.8l0.2,0l0,0.2c0.1,0.5,0.2,0.9,0.4,1.3
		c0.4,1,0.6,2,0.4,3.1c0,0.1-0.1,0.2-0.1,0.3c-0.1,0.1-0.2,0.1-0.3,0.1h-0.1c-0.2,0-0.4,0-0.6,0h-0.1c-0.2,0-0.5,0-0.7,0
		c-0.2,0-0.4,0.1-0.7,0.2c-0.4,0.2-0.7,0.6-0.8,1.1c0,0.1,0,0.2-0.1,0.2c0,0.1,0,0.1,0,0.2v0.1c0,0,0,0,0,0v0.1c0,0,0,0.1,0,0.1
		c0.1,0.9,1,1.5,1.9,1.4c0,0,0,0,0,0c0.3,0,0.5-0.1,0.8-0.2c0.2-0.1,0.5-0.1,0.7-0.2h0.1c0.2,0,0.4,0,0.6,0.1
		c0.1,0.1,0.2,0.3,0.2,0.4c0.3,1.3,0.3,2.7,0.2,4.1v0.2l-3.4,0.1c-0.1,0-0.3,0-0.4,0c-0.3,0-0.6,0.1-0.8,0.4c-0.2,0.3-0.2,0.7-0.1,1
		c0.1,0.2,0.1,0.3,0.2,0.4c0.1,0.2,0.1,0.3,0.2,0.5c0.2,0.7-0.1,1.5-0.7,2C13.3,23.2,13.1,23.3,12.9,23.3L12.9,23.3z"/>
	<path class="st5" d="M28,17.9c-0.3,0-0.6,0-0.9,0c-0.2,0-0.3,0-0.4-0.1c-0.3-0.2-0.3-0.7-0.3-1.2v-0.2c0-0.7-0.2-1.3-0.7-1.8
		c-0.4-0.4-0.9-0.6-1.5-0.5c-0.1,0-0.3,0-0.4,0.1c-0.9,0.5-1.2,1.6-0.8,2.6c0,0.1,0.1,0.2,0.1,0.3c0.1,0.2,0.1,0.4,0.2,0.6
		c0.1,0.3,0,0.5-0.2,0.7c-0.1,0.1-0.3,0.2-0.5,0.2c-0.2,0-0.4,0.1-0.6,0.1c-0.4,0.1-0.8,0.1-1.2,0.1c-0.3,0-0.6,0-0.9,0
		c-0.3,0-0.6,0-1,0h-0.2l0-0.2v-0.2h0c0.1-1.2,0-2.5-0.2-3.7c0-0.2-0.1-0.4-0.2-0.5c-0.2-0.2-0.4-0.2-0.7-0.2h-0.1
		c-0.2,0-0.5,0.1-0.7,0.2c-0.3,0.1-0.5,0.2-0.8,0.2c-0.1,0-0.2,0-0.4,0c-0.7-0.1-1.2-0.6-1.3-1.3c-0.1-0.7,0.2-1.3,0.8-1.7
		c0.2-0.1,0.4-0.1,0.6-0.2c0.2,0,0.5,0,0.7,0h0.1c0.2,0,0.5,0,0.7,0h0.1c0.2,0,0.3-0.1,0.4-0.2c0.1-0.1,0.2-0.3,0.2-0.4
		c0.1-1.1,0-2.2-0.4-3.2c-0.1-0.4-0.3-0.8-0.4-1.2l0-0.2l3.3-0.8c0.1,0,0.3-0.1,0.5-0.1c0.2,0,0.5,0,0.7,0.1C21.9,5.4,22,5.9,22,6.3
		v0.4c0,0.4,0,0.7,0.1,1c0.2,0.7,0.9,1.2,1.7,1.1h0.1c0.8-0.2,1.3-0.9,1.2-1.7c0-0.3-0.1-0.6-0.2-0.9c0-0.1-0.1-0.2-0.1-0.3
		c-0.2-0.4-0.2-0.7,0-1.1c0.2-0.3,0.6-0.5,1-0.5l0.3,0c1.1-0.1,2.1-0.1,3.2-0.2h0.2v0.2c0,0.4,0,0.9,0,1.3v0c-0.1,1.1,0,2.2,0.4,3.2
		c0.1,0.1,0.1,0.3,0.3,0.3c0.1,0.1,0.3,0.1,0.5,0.1h0c0.3,0,0.5-0.1,0.7-0.2h0c0.3-0.1,0.5-0.2,0.8-0.2c0.1,0,0.3,0,0.4,0
		c0.7,0.1,1.2,0.6,1.3,1.3c0.1,0.7-0.2,1.3-0.8,1.7c-0.2,0.1-0.4,0.2-0.6,0.2l0,0c-0.2,0-0.5,0-0.7,0c-0.2,0-0.5,0-0.7,0l-0.1,0
		c-0.2,0-0.4,0.1-0.5,0.3c-0.1,0.1-0.1,0.3-0.1,0.4c0,1.4,0.2,2.7,0.7,4h0l0,0.2c0,0.2-0.1,0.2-0.2,0.2c-0.2,0.1-0.7,0.2-1,0.3
		C29.2,17.6,28.6,17.8,28,17.9z"/>
	<g>
		<polygon class="st6" points="26.9,33.5 26.9,33.5 26.9,33.5 		"/>
		<path class="st6" d="M33.8,10.9c0.2-0.5,0.1-1-0.2-1.4c-0.3-0.4-0.8-0.7-1.3-0.8c-0.2,0-0.4,0-0.6,0.1c-0.3,0-0.6,0.1-0.9,0.2
			c-0.1,0-0.3,0.1-0.4,0.1c-0.1,0-0.2,0-0.3-0.1c-0.1,0-0.1,0-0.1-0.1c-0.1-0.1-0.2-0.3-0.2-0.4c-0.1-0.2-0.1-0.3-0.2-0.5
			c-0.1-0.3-0.1-0.7-0.1-1.1c0-0.3,0-0.7,0-1c0-0.1,0.1-0.3,0-0.5l0-0.2V4.8c0-0.3,0-0.5,0-0.8c-0.4,0-0.8,0.1-1.2,0
			c-0.7,0-1.3,0-2,0.1c-0.3,0-0.7,0-1,0.1c-0.2,0-0.4,0.1-0.6,0.2c-0.2,0.1-0.4,0.2-0.5,0.4c-0.1,0.1-0.2,0.3-0.2,0.5
			c-0.1,0.2,0,0.4,0,0.6c0,0,0,0.1,0,0.1c0,0.2,0.1,0.4,0.2,0.6l0,0c0,0.1,0,0.3,0.1,0.4c0,0,0,0.1,0.1,0.1v0.1v0l-0.1,0.1
			c0,0.4-0.1,0.7-0.4,1c0,0,0,0.1,0,0.1l-0.1,0c0,0,0,0-0.1,0c-0.2,0.1-0.4,0.2-0.6,0.1c-0.1,0-0.1,0-0.2,0c-0.2,0-0.5-0.2-0.6-0.4
			c-0.1-0.1-0.2-0.2-0.2-0.3c0,0,0-0.1,0-0.1c0-0.1,0-0.2-0.1-0.3c0,0,0-0.1,0-0.2c0-0.1,0-0.2-0.1-0.2c0,0,0,0,0,0c0,0,0-0.1,0-0.1
			c0-0.1,0-0.1,0.1-0.2c0.1-0.6-0.1-1.1-0.4-1.6c-0.1-0.1-0.3-0.2-0.4-0.3c-0.2-0.1-0.3-0.1-0.5-0.1c-0.3,0-0.5,0-0.8,0.1h0
			c-0.1,0-0.2,0-0.3,0c-0.1,0.1-0.3,0.1-0.4,0.1C19.4,5,19.3,5,19.2,5c-0.1,0-0.1,0-0.2,0c-0.2,0-0.4,0.1-0.5,0.1
			c-0.1,0.1-0.2,0.1-0.4,0.1c-0.1,0-0.2,0-0.4,0.1l-0.2,0l-0.3,0.1c-0.1,0-0.2,0.1-0.3,0.1l0-0.1c-0.2,0-0.4,0.1-0.5,0.1l-0.1,0.1
			c-0.1,0-0.1,0-0.2,0l-0.1,0l-0.2,0.1c0,0-0.1,0-0.1,0.1l-0.1,0h0l-0.1,0c-0.4,0.1-0.9,0.3-1.3,0.4c-0.1,0-0.1,0-0.1,0.1l-0.2,0
			c0,0-0.1,0-0.1,0c-0.3,0.1-0.5,0.1-0.8,0c-0.1,0-0.1,0-0.2,0c-0.1,0-0.2,0-0.4-0.1c-0.1,0-0.1-0.1-0.1-0.2
			c-0.1-0.1-0.1-0.3-0.1-0.4c0,0,0-0.1,0-0.1c0-0.1,0-0.2,0-0.3c0-0.1,0-0.1,0-0.2c0-0.1,0-0.2,0-0.3c0,0,0,0,0,0c0,0,0-0.1,0-0.1
			c0-0.1,0-0.2,0-0.2c0-0.3-0.1-0.6-0.2-0.8c-0.1-0.3-0.3-0.5-0.6-0.7c-0.3-0.2-0.5-0.3-0.8-0.3c-0.3,0-0.6,0-0.9,0.1h0
			c-0.1,0-0.3,0.1-0.4,0.1L8.9,3C8.8,3.1,8.7,3.2,8.6,3.3c0,0.1-0.1,0.1-0.1,0.2C8.4,3.7,8.3,4,8.4,4.2c0,0.2,0,0.3,0,0.5
			c0.1,0.5,0.2,1,0.4,1.4c0.1,0.2,0,0.5-0.1,0.5c0,0,0,0.1-0.1,0.1H8.6c0,0-0.1,0-0.1,0c-0.1,0-0.3,0-0.5,0.1
			c-0.2,0-0.4,0.1-0.5,0.1C7.1,7,6.7,7,6.3,6.9H6.2C6.2,6.9,6.1,7,6.1,7c0,0,0-0.1-0.1-0.1c-0.4,0-0.7,0-1.1-0.1
			c-0.4,0-0.8-0.1-1.2-0.1l0,0.8l0,0.6l0.1,0.8l0,0.1l0,0.3c0,0.1,0,0.2,0,0.2c0,0.4,0.1,0.8,0.1,1.3c0,0.5,0.1,1,0.3,1.4
			c0.2,0.3,0.4,0.5,0.7,0.6c0.3,0.1,0.6,0.1,0.9,0c0.3-0.1,0.6-0.2,0.9-0.3c0.2-0.1,0.5-0.1,0.7-0.1c0.1,0,0.2,0,0.3,0.1l0.1,0
			c0.1,0,0.1,0.1,0.2,0.2c0.2,0.2,0.4,0.4,0.5,0.7c0.1,0.1,0.1,0.3,0,0.4c0,0-0.1,0.1,0,0.1c0,0,0,0,0,0c-0.1,0.1-0.2,0.3-0.3,0.4
			c0,0,0,0.1,0,0.1c-0.1,0.1-0.2,0.1-0.3,0.2c-0.1,0-0.1,0-0.2,0c-0.1,0-0.1,0-0.2,0h-1c-0.2,0-0.4,0-0.6,0.1
			c-0.2,0.1-0.4,0.2-0.6,0.3c-0.2,0.2-0.4,0.4-0.4,0.6c-0.1,0.2-0.1,0.5,0,0.7c0,0,0,0.1,0,0.2c0.1,0.3,0.1,0.7,0.3,1c0,0,0,0,0,0.1
			c0,0.2,0.1,0.3,0.1,0.5v0c0,0.2,0.1,0.5,0.1,0.7c0.1,0.2,0.1,0.3,0.2,0.5l0.2,0.9c0,0,0,0,0,0c0,0.1,0,0.2,0.1,0.3c0,0,0,0,0,0
			c0,0,0,0.1,0,0.1l0,0l0.1,0.3c0,0,0,0.1,0,0.1c0,0,0,0.1,0,0.1c0.2,0.7,0.4,1.4,0.5,2.1v0.1c0,0.1,0,0.1,0.1,0.2
			c0,0-0.1,0-0.1,0.1c0,0.1,0,0.3,0,0.4c0,0.2-0.1,0.2-0.1,0.2c-0.1,0-0.1,0-0.2,0c-0.1,0-0.3,0-0.4,0c-0.4,0-0.8,0-1.2,0l-0.1,0.1
			c-0.1,0-0.2,0-0.3,0.1c-0.1,0-0.2,0-0.3,0.1c-0.5,0.3-0.9,0.7-1,1.3c-0.1,0.5-0.1,1.1,0.2,1.6c0.3,0.5,0.7,0.9,1.3,1
			c0.4,0,0.7,0,1.1-0.1c0.3-0.1,0.6-0.2,0.9-0.3c0.1,0,0.2-0.1,0.3-0.1h0.1c0.1,0,0.1,0,0.2,0c0.1,0,0.1,0.1,0.2,0.1
			c0.1,0.1,0.1,0.3,0.2,0.4c0.1,0.2,0.1,0.3,0.1,0.5c0,0,0,0,0,0c0,0,0,0.1,0,0.1l0,0c0,0.2,0,0.4,0,0.6c0,0,0,0.1,0,0.1
			c0,0.4,0,0.8-0.1,1.2l-0.1,1.7l0.8-0.1l0.6,0L9.2,33c0,0,0.1,0,0.1,0c0.3-0.1,0.7,0,1-0.1l0.1,0c0.2,0,0.4,0,0.5,0h0
			c0.2,0,0.5,0,0.7,0c0.2,0,0.4-0.1,0.6-0.2c0.3-0.2,0.5-0.4,0.6-0.8c0-0.1,0-0.1,0-0.2c0,0,0,0,0-0.1c0-0.1,0-0.2,0-0.3l-0.1-0.1
			c0-0.1,0-0.1,0-0.2c-0.1-0.3-0.2-0.6-0.3-0.9c0,0,0,0,0-0.1c0-0.1,0-0.2,0-0.3c0-0.1,0-0.1,0-0.2c0-0.3,0.1-0.6,0.3-0.8
			c0.2-0.2,0.5-0.3,0.7-0.4c0.1,0,0.1,0,0.2,0c0.1,0,0.1,0,0.2,0c0.4,0,0.9,0.3,1.1,0.6c0,0,0.1,0.1,0.1,0.1c0,0.1,0.1,0.1,0.1,0.2
			c0.1,0.1,0.1,0.3,0.1,0.4v0.2c0,0.1,0,0.2,0,0.2c0,0.2,0,0.3,0,0.5c0,0.4,0.1,0.7,0.3,1.1c0,0.1,0.1,0.1,0.1,0.1
			c0.1,0.1,0.2,0.2,0.4,0.2c0.1,0,0.3-0.1,0.3-0.2c0-0.1-0.2-0.1-0.2-0.1c0-0.1-0.1-0.1-0.2-0.2v-0.1c0-0.1-0.1-0.2-0.1-0.4
			c0-0.1,0-0.1,0-0.2c0-0.1,0-0.2,0-0.2v-0.2c0-0.2,0-0.4,0-0.6c0-0.1,0-0.2,0-0.3l-0.1-0.1c0-0.1,0-0.2,0-0.3
			c0-0.1-0.1-0.2-0.1-0.2c0-0.1-0.1-0.1-0.1-0.2c0,0-0.1-0.1-0.1-0.1c-0.1-0.1-0.1-0.2-0.2-0.2c0,0,0-0.1-0.1-0.1
			c-0.1-0.1-0.1-0.1-0.2-0.2c-0.1-0.1-0.3-0.1-0.4-0.2c-0.1,0-0.2-0.1-0.2-0.1c-0.1,0-0.2,0-0.2,0c-0.1,0-0.2,0-0.2,0
			c-0.1,0-0.2,0-0.3,0l-0.1,0h-0.1c-0.3,0.1-0.6,0.2-0.8,0.5l0,0.1l-0.1,0.1c-0.2,0.3-0.4,0.7-0.5,1v0.1l0,0.1c0,0.1,0,0.2,0,0.3
			c0,0,0,0.1,0,0.1V30c0,0.1,0.1,0.2,0.1,0.3c0,0.3,0.1,0.5,0.2,0.8c0,0,0.1,0,0.1,0v0c0,0.2,0,0.3,0,0.5c0,0.1-0.1,0.2-0.1,0.2
			c-0.2,0.2-0.5,0.3-0.8,0.3l0,0h-0.1c0,0-0.1,0-0.1,0h-0.1c-0.3,0-0.6,0-1,0l-0.1,0H9.8c-0.3,0-0.7,0.1-1,0.1H8.3
			c-0.1,0-0.1,0-0.2,0H8l0,0h0c0,0,0,0,0,0c0,0,0-0.1,0-0.1h0c0,0,0-0.1,0-0.1v-0.2c0-0.1,0-0.3,0-0.4v0c0,0,0,0,0,0.1
			c0.1-0.6,0.1-1.3,0-1.9c0-0.1,0-0.1,0-0.2l0-0.2c0-0.3,0-0.5-0.2-0.8c0-0.1,0-0.1-0.1-0.2c0-0.2-0.1-0.4-0.2-0.5l-0.1-0.1
			c0,0,0,0-0.1-0.1c-0.3-0.2-0.6-0.3-0.9-0.1c-0.1,0-0.2,0-0.3,0.1h0c-0.4,0-0.8,0.2-1.2,0.3c-0.3,0-0.6,0-0.9-0.2
			c-0.3-0.2-0.4-0.5-0.5-0.8c0-0.2-0.1-0.3,0-0.5c0-0.1,0-0.2,0.1-0.3c0.2-0.4,0.6-0.7,1-0.7l0.2,0c0.4,0,0.8,0,1.2,0h0l0.1,0
			c0.2,0,0.4-0.1,0.6-0.2l0-0.1C6.8,25.1,7,24.9,7,24.7c0.1-0.1,0.1-0.3,0.1-0.5v-0.1c0,0,0-0.1,0-0.1c0-0.2,0-0.4,0-0.6
			c0-0.3,0-0.5-0.1-0.8l0-0.2c0-0.1,0-0.1-0.1-0.2l0,0v-0.1c0,0,0-0.1-0.1-0.1c0-0.2-0.1-0.3-0.2-0.5l-0.1-0.1
			c0-0.2-0.1-0.3-0.2-0.4c0-0.1-0.1-0.2-0.1-0.3c0,0,0-0.1,0-0.1c0,0,0-0.1-0.1-0.1c0.1,0,0.1-0.1,0.2-0.1c0,0,0.1,0,0.1,0h0
			c0.1,0,0.1,0,0.1-0.1c0.1-0.1,0.1,0,0.2-0.1s0.2-0.1,0.3-0.1c0.1-0.1,0.3-0.1,0.4-0.1c0.1,0,0.2-0.1,0.2-0.1c0,0,0,0,0,0
			s0,0,0.1,0l0.1,0h0.1c0.1,0,0.1,0,0.2-0.1c0.1,0,0.1-0.1,0.1-0.1h0.1c0.1,0,0.1,0,0.2,0h0.1l0,0l0.1,0c0.1,0,0.1,0,0.2-0.1
			c0,0,0,0,0,0c0,0,0,0,0.1,0c0.2,0.1,0.3,0.1,0.5,0h0.3l0.2,0h0.1c0.1,0,0.1,0.1,0.2,0.1c0,0,0,0.1,0,0.1c0,0.1,0,0.1,0,0.2
			c0,0.1,0,0.3,0,0.4c0,0.2,0,0.4,0,0.6c0,0.2,0,0.3,0,0.5c0,0.1,0.1,0.2,0.1,0.2c0,0,0,0.1,0,0.1c0,0.5,0.3,0.9,0.8,1.1
			c0.4,0.2,0.8,0.3,1.2,0.3c0.4,0,0.9-0.2,1.2-0.4c0,0,0.1-0.1,0.1-0.1c0,0,0,0,0.1-0.1l0,0c0.1-0.2,0.2-0.4,0.3-0.6
			c0,0,0,0,0.1-0.1v-0.1l0-0.1c0.2-0.4,0.1-0.9-0.1-1.3l-0.1-0.2c0-0.1,0-0.2-0.1-0.3c0-0.1-0.1-0.2-0.1-0.2l0-0.1v-0.1
			c-0.1-0.1-0.1-0.2-0.1-0.3c0-0.1,0-0.1,0-0.2l0.1,0.1c0,0,0,0.1,0,0.1v0l0,0.1v0c0,0.1,0,0.1,0,0v0v0c0,0,0,0,0,0v0v0v0v0v0v0l0,0
			c0,0,0,0,0,0v-0.1c0,0.1,0,0,0,0.1c0,0.1,0,0,0,0.1v0c0,0.1,0,0,0,0v0h0l-0.1-0.7c0,0,0.1,0,0.1-0.1l0,0h0.1c0.2,0,0.4,0,0.6-0.1
			c0.2,0,0.5,0,0.7,0h0.1c0.4-0.1,0.9,0,1.3-0.1c0.3,0,0.7-0.1,1-0.1l0,0.1l0,0.6c0,0,0,0,0,0.1v0.3c0,0.1,0,0.2,0,0.2
			c0,0.4,0,0.8,0,1.2c0,0.5,0.1,0.9,0.2,1.4c0.1,0.1,0.1,0.3,0.2,0.4c0.1,0.1,0.3,0.2,0.4,0.3c0.2,0.1,0.3,0.1,0.5,0.1
			c0.1,0,0.3,0,0.4-0.1c0.3-0.2,0.5-0.3,0.8-0.4c0.2-0.1,0.5-0.1,0.7-0.1c0,0,0.1,0,0.1,0c0.2,0,0.3,0.1,0.4,0.1c0,0,0,0,0,0
			c0,0,0,0,0.1,0c0,0,0.1,0,0.1,0.1c0.5,0.4,0.6,1.1,0.3,1.6c-0.1,0.1-0.2,0.3-0.4,0.4c0,0,0,0,0,0c-0.1,0.1-0.2,0.1-0.4,0.2
			c-0.1,0-0.1,0-0.2,0c-0.1,0-0.2,0-0.2,0l-0.7,0c-0.3,0-0.5,0-0.8,0.1c-0.2,0-0.4,0.1-0.5,0.2c-0.1,0.1-0.2,0.1-0.2,0.2
			c0,0-0.1,0-0.1,0.1c-0.1,0.1-0.2,0.3-0.2,0.5c0,0.1,0,0.3,0,0.4c0.1,1,0.2,2,0.6,3l0.1,0.3l0.1,0.1l0,0.1c0,0.1,0.1,0.2,0.1,0.3
			l-2.8,0.7c-0.1,0-0.3,0-0.4,0.1c-0.1,0-0.2,0.1-0.3,0.2c0.1,0,0.3,0,0.4,0c0.3,0,0.6-0.1,1-0.1l0.5-0.1c0.4,0,0.8-0.2,1.2-0.2h0
			c0.1,0,0.2-0.1,0.3-0.1l0.4-0.1c0,0,0,0,0.1,0c0,0,0,0,0,0l0.1,0c0,0,0,0,0,0c0,0,0.1,0,0.1,0l0,0c0.2-0.1,0.4-0.2,0.6-0.2
			c0.2,0,0.3-0.1,0.4-0.2c0,0,0.1,0,0.1,0c0.1-0.1,0.2-0.1,0.3-0.1c0.1,0,0.1-0.1,0.2-0.1c0.3-0.1,0.6-0.2,0.9-0.2
			c0.3,0,0.6,0,0.9-0.1l0.2,0c0.1,0,0.1,0,0.2,0c0.2,0,0.4,0,0.6,0.2c0.1,0.2,0.2,0.4,0.2,0.6c0,0.1,0,0.1,0.1,0.1
			c0,0.1,0,0.1,0,0.2c0,0.2,0,0.3,0,0.5l0,0.2c0,0.1,0,0.2,0,0.2c0,0.2,0,0.3,0.1,0.5c0.1,0.3,0.4,0.6,0.7,0.8h0.1
			c0.1,0.1,0.3,0.1,0.5,0.1c0.1,0,0.3-0.1,0.3-0.2h0l0,0c0-0.1-0.2-0.1-0.3-0.1c-0.1-0.1-0.2-0.1-0.3-0.2c0,0,0,0,0-0.1
			c-0.2-0.2-0.4-0.4-0.6-0.6c0,0,0-0.1,0-0.1c-0.1-0.1-0.1-0.3-0.1-0.5v-0.3l0-0.1c0-0.1,0-0.2,0-0.3v-0.4l0-0.1
			c0-0.1,0-0.2-0.1-0.3c0-0.1,0-0.1,0-0.2c0-0.1-0.1-0.2-0.2-0.3c-0.1-0.1-0.3-0.2-0.5-0.3c-0.1,0-0.2-0.1-0.3-0.1h-0.2
			c-0.1,0-0.1,0-0.2,0c-0.1,0-0.2,0-0.3,0h-0.1c-0.3,0-0.5,0-0.8,0.1l-0.1,0h-0.1c-0.3,0.1-0.6,0.2-0.9,0.2l-0.1,0h-0.1
			c-0.1,0-0.1,0-0.2,0l-0.1,0h-0.1c-0.1,0-0.2,0.1-0.3,0.1c-0.1,0-0.3,0.1-0.4,0.1l-0.1,0h0l0,0.1c0,0,0-0.1,0-0.1v0c0,0,0,0,0-0.1
			l-0.2-0.5c-0.1-0.4-0.2-0.7-0.3-1.1l0,0v-0.1c0,0,0-0.1,0-0.1c0,0,0-0.1,0-0.1c0-0.3-0.1-0.6-0.2-0.9l0,0v-0.1c0-0.2,0-0.3,0-0.5
			c0-0.1,0-0.2,0.1-0.2c0.1-0.1,0.2-0.1,0.3-0.1h0.5l0,0h0.1c0.1,0,0.3,0,0.4,0h0.1c0.1,0,0.3-0.1,0.4-0.1c0.2,0,0.3,0,0.4-0.1l0,0
			c0,0,0,0-0.1,0c0.4-0.1,0.7-0.2,1-0.5c0.3-0.3,0.4-0.6,0.5-1c0-0.1,0.1-0.1,0-0.2c0-0.1,0-0.1,0-0.2c0-0.3-0.1-0.6-0.3-0.8
			c0-0.1-0.1-0.1-0.1-0.2c-0.1-0.2-0.2-0.3-0.3-0.4l-0.1,0c0,0,0,0,0-0.1c-0.2-0.2-0.5-0.3-0.8-0.3c-0.1,0-0.2,0-0.3,0h0
			c-0.5-0.1-1-0.1-1.4,0.2c-0.2,0.1-0.4,0.2-0.6,0.2c-0.1,0.1-0.2,0.1-0.4,0c-0.1,0-0.2-0.1-0.2-0.2c-0.1-0.2-0.1-0.3-0.2-0.5
			c0-0.2-0.1-0.4-0.1-0.6v-0.3c0-0.5,0-1.1-0.1-1.6c0-0.1,0-0.1,0-0.2v-0.4c0,0,0,0,0,0h1.6c0.2,0,0.4,0,0.6,0c0,0,0.1,0,0.1,0
			c0.3-0.1,0.7,0,1-0.2l0.1,0c0.2,0,0.4,0,0.5-0.1l0,0c0.2,0,0.3,0,0.4-0.1c0.2-0.1,0.3-0.2,0.4-0.4c0.1-0.2,0.1-0.5,0-0.7
			c0-0.2-0.1-0.3-0.2-0.5c0,0,0,0,0-0.1c0,0,0,0,0,0c0-0.1,0-0.1-0.1-0.2l-0.1-0.1c0,0,0,0,0,0v-0.1c0-0.1-0.1-0.2-0.1-0.2l-0.1,0
			v-0.1c0-0.3,0-0.6,0-0.9c0,0,0-0.1,0-0.1c0-0.1,0.1-0.2,0.1-0.3c0-0.1,0.1-0.1,0.1-0.2c0-0.1,0.1-0.1,0.2-0.2
			c0.1-0.1,0.2-0.1,0.3-0.2c0,0,0.1,0,0.1,0l0.1,0h0.3c0.1,0,0.2,0,0.3,0.1c0.2,0.1,0.5,0.2,0.6,0.5c0.1,0.1,0.2,0.3,0.3,0.5
			c0.1,0.1,0.1,0.2,0.1,0.4c0,0.1,0,0.2,0.1,0.2c0,0,0,0.1,0,0.1c-0.1,0.4-0.1,0.8,0,1.2c0,0.2,0.1,0.5,0.3,0.6
			c0.2,0.2,0.4,0.3,0.6,0.3c0.4,0.1,0.8,0.1,1.2,0l0.2,0c0,0,0,0,0.1,0h0c0.2,0,0.4-0.1,0.6-0.2c0,0,0,0,0.1,0l0.1,0h0.1
			c0.4-0.1,0.7-0.2,1.1-0.3l0.2,0c0.1,0,0.2,0,0.3,0c0.1,0,0.1,0,0.1-0.1l0,0h0c0,0,0.1,0,0.1,0c0,0,0,0.1,0,0.1c0,0,0,0.1,0.1,0.1
			c0,0,0,0.1,0,0.2c0,0.1,0.1,0.3,0.1,0.4l0,0.1v0.1c0,0.4,0.2,0.9,0.2,1.3v0.1c0.2,0.4,0.2,0.9,0.3,1.2c0.1,0.3-0.1,0.6-0.4,0.7
			c-0.3,0.1-0.7,0.1-1,0.1l0,0h-0.1l0.1-0.1h-0.5l-0.2,0l-0.2,0c-0.1,0-0.3,0.1-0.4,0.1c-0.5,0.2-0.9,0.6-1,1.1c0,0.1,0,0.2-0.1,0.4
			c0,0.1,0,0.1,0.1,0.2c0,0.5,0.2,0.9,0.5,1.2c0.3,0.3,0.8,0.5,1.2,0.5H30c0.5-0.1,0.9-0.2,1.2-0.3c0.3-0.1,0.6,0,0.8,0.2
			c0.2,0.3,0.2,0.7,0.2,1c0,0.4,0.1,0.8,0.1,1.2c0,0.1,0,0.2,0,0.3c0,0.5,0.1,0.9,0.1,1.4c-0.1,0-0.2,0-0.3,0h-0.5
			c-0.4,0-0.7,0-1.1,0c-0.8-0.1-1.5,0-2.2,0.3c-0.2,0.1-0.4,0.2-0.6,0.3c-0.1,0.1-0.2,0.2-0.2,0.3c0,0.1,0,0.2,0,0.4
			c0,0.2,0.1,0.4,0.1,0.6l0.1,0.5c0.1,0.3,0.1,0.6,0.1,1c-0.1,0.3-0.2,0.6-0.5,0.8c-0.1,0.1-0.2,0.1-0.3,0.2c-0.1,0-0.2,0.1-0.2,0.2
			c0.1,0,0.2,0,0.3,0c0.2,0,0.3-0.1,0.4-0.2c0.1-0.1,0.2-0.2,0.3-0.3c0.1-0.1,0.2-0.3,0.2-0.5c0.1-0.2,0.1-0.4,0-0.6
			c0-0.2-0.1-0.4-0.1-0.6v0c0-0.1-0.1-0.2-0.1-0.3L28,30.6c-0.1-0.2-0.1-0.5,0.1-0.6c0.2-0.2,0.4-0.3,0.6-0.3c0.5-0.1,1-0.2,1.5-0.2
			c0.4,0,0.7,0,1.1,0c0.2,0,0.3,0,0.5,0h1l0-1.5c0-0.4,0-0.7,0-1.1h-0.1v-0.1c0-0.2,0-0.5,0-0.7c0-0.2,0-0.5-0.1-0.7
			c0-0.3-0.2-0.5-0.3-0.7c-0.2-0.2-0.5-0.3-0.7-0.3c-0.2,0-0.4,0-0.6,0.1c-0.3,0.1-0.6,0.1-0.8,0.2c-0.2,0.1-0.5,0.1-0.8,0
			c-0.1,0-0.1,0-0.2-0.1c-0.3-0.1-0.5-0.4-0.7-0.6c-0.1-0.3-0.1-0.6,0-0.9c0.1-0.3,0.3-0.6,0.6-0.7c0.1,0,0.2-0.1,0.4-0.1l0.2,0
			c0.2,0,0.5,0,0.7,0h0l0,0h0c0.2,0,0.3,0,0.5,0c0.2,0,0.3,0,0.5,0c0.2,0,0.4-0.1,0.6-0.2c0.2-0.1,0.3-0.3,0.4-0.5
			c0.1-0.2,0.1-0.4,0.1-0.6c0-0.2-0.1-0.3-0.1-0.5c-0.2-0.6-0.3-1.3-0.5-1.9c0-0.1-0.1-0.3-0.2-0.4c0-0.1,0-0.2-0.1-0.3l-0.1-0.3
			c0,0,0-0.1,0-0.1c0-0.2-0.1-0.4-0.1-0.6c0,0-0.1,0-0.1,0L31,16.5c-0.3-1-0.6-2-0.7-3.1c0-0.2,0-0.3,0-0.5c0-0.2,0-0.3,0.1-0.5
			c0.1-0.1,0.2-0.2,0.4-0.2c0.2,0,0.4-0.1,0.6-0.1l0.6,0c0.2,0,0.4,0,0.6,0c0.2,0,0.4-0.1,0.6-0.2C33.5,11.7,33.8,11.4,33.8,10.9
			C33.8,11,33.8,11,33.8,10.9L33.8,10.9z M4,28.2L4,28.2L4,28.2C4,28.2,4,28.2,4,28.2L4,28.2z M14.2,19.5
			C14.2,19.5,14.2,19.5,14.2,19.5C14.2,19.5,14.2,19.5,14.2,19.5z M4.5,10.2L4.5,10.2C4.4,10.2,4.5,10.2,4.5,10.2
			C4.5,10.2,4.5,10.2,4.5,10.2z M5.6,17.1L5.6,17.1l0-0.1c-0.1-0.3-0.2-0.6-0.2-0.9c0-0.2,0.2-0.4,0.5-0.4v0h0l0.3-0.1h0.1
			c0.1,0,0.3,0,0.4,0c0.1,0,0.3,0,0.4-0.1h0l-0.1,0c0.2,0,0.4,0,0.5,0c0.2,0,0.4-0.1,0.5-0.2c0.3-0.2,0.6-0.5,0.7-0.8
			C9,14.4,9,14.3,9,14.2c0-0.1,0-0.1,0.1-0.2c0.1-0.3,0.1-0.6,0-0.9c0-0.1,0-0.1-0.1-0.2c0-0.2-0.1-0.3-0.2-0.5l-0.1-0.1l0-0.1
			c-0.2-0.2-0.4-0.4-0.7-0.5c-0.1,0-0.2,0-0.3-0.1h0c-0.2-0.1-0.5-0.1-0.8-0.1c-0.2,0-0.5,0.1-0.7,0.2c-0.3,0.1-0.7,0.2-1,0.1
			c-0.1,0-0.2-0.1-0.3-0.2c-0.1-0.1-0.2-0.3-0.2-0.5c-0.1-0.2-0.1-0.4-0.1-0.6l0-0.4c0-0.5,0-1.1-0.1-1.6c0-0.1,0-0.1,0-0.2
			c0-0.2,0-0.4,0-0.6l0-0.2V7.6h0.1v0h0.2c0,0,0,0,0,0l0.7,0.1h0.1c0,0,0.1,0,0.1,0c0.2,0,0.4,0,0.5,0c0.3,0.1,0.5,0.1,0.8,0h0.2
			c0.1,0,0.1,0,0.2,0l0.1,0l0.1,0c0,0,0.1,0,0.1,0c0.2,0,0.4-0.1,0.5-0.1l0.1,0c0.2,0,0.3,0,0.5-0.1C8.9,7.3,9,7.2,9.1,7.1
			C9.2,7.1,9.3,7,9.3,7c0.1-0.2,0.1-0.4,0.1-0.6c0-0.1,0-0.1,0-0.2v0c0-0.1,0-0.1-0.1-0.2c-0.1-0.1,0-0.2,0-0.2
			c0-0.1-0.1-0.2-0.1-0.3C9.2,5.3,9.1,5.2,9.1,5c0-0.1,0-0.2-0.1-0.2h0V4.7l0-0.1V4.5c0-0.1,0-0.1,0-0.2C9,4.3,9,4.3,9,4.2
			c0,0,0,0,0-0.1C9,4.1,9,4,9,4l0-0.1l0,0l0-0.1c0-0.1,0-0.1,0.1-0.2c0,0,0,0,0,0c0,0,0,0,0.1,0c0.1-0.1,0.3-0.2,0.3-0.3
			c0,0,0.1-0.1,0.1-0.1l0-0.1l0.2,0L10,3h0c0.1,0,0.2,0,0.3,0c0.3,0,0.6,0.1,0.8,0.3c0.2,0.1,0.3,0.2,0.3,0.4
			c0.1,0.1,0.1,0.2,0.1,0.3c0,0.1,0.1,0.2,0.1,0.2c0,0,0,0.1,0,0.1c-0.1,0.4-0.1,0.8,0,1.2c0,0.2,0.1,0.4,0.1,0.6
			c0,0.1,0.1,0.2,0.2,0.3c0.1,0.1,0.2,0.2,0.3,0.2c0.2,0.1,0.4,0.1,0.6,0.2c0.2,0,0.4,0,0.6,0c0.1,0,0.1,0,0.2,0c0,0,0,0,0.1,0h0
			c0.2,0,0.4-0.1,0.6-0.2c0,0,0,0,0.1,0l0.1,0h0.1c0.4,0,0.8-0.2,1.1-0.3l0.2-0.1c0.2,0,0.3,0,0.5-0.1l0,0h0c0,0,0.1-0.1,0.1,0v0.1
			c0,0.1,0.1,0.1,0.1,0.2c0,0.1,0.1,0.3,0.1,0.5l0,0.1V7c0,0.5,0.3,0.9,0.3,1.3l0,0v0c0.1,0.4,0.2,0.8,0.3,1.3c0,0.2,0,0.5,0,0.7
			c0,0.1-0.1,0.1-0.1,0.2c0,0-0.1,0-0.1,0H17l-0.5,0c-0.1,0-0.2,0-0.2,0h-0.4c-0.1,0-0.3,0-0.4,0c-0.3,0.1-0.5,0.2-0.8,0.3
			c-0.5,0.3-0.7,0.7-0.8,1.3c0,0.1,0,0.2,0,0.4c0,0,0,0,0,0.1c0,0,0,0,0,0c0,0.6,0.2,1.1,0.6,1.5c0.2,0.2,0.4,0.4,0.6,0.5
			c0.2,0.1,0.5,0.2,0.8,0.2c0.4,0,0.7-0.1,1-0.2c0.1,0,0.3-0.1,0.4-0.1c0.1,0,0.3-0.1,0.4-0.1c0.1,0,0.1,0,0.2,0
			c0,0,0.1,0.1,0.1,0.1c0,0.1,0.1,0.2,0.1,0.3c0,0.2,0.1,0.4,0.1,0.6c0.1,0.4,0.1,0.9,0.1,1.3c0,0.1-0.1,0.2-0.1,0.3
			c0,0.2,0,0.5,0,0.7l0,0.3l-0.2,0l0,0.4h-0.2l-0.8,0l-1.5,0.1c-0.3,0-0.5,0-0.8,0c-0.3,0-0.6,0.1-0.8,0.2c-0.2,0.1-0.4,0.3-0.5,0.5
			c-0.1,0.2-0.1,0.5-0.1,0.7c0,0.2,0.1,0.4,0.2,0.6l0.2,0.5c0.3,0.6,0.1,1.3-0.4,1.8C13.3,23,13.1,23,13,23.2c-0.1,0-0.1,0-0.2,0
			c0.1,0,0.1-0.1,0.1-0.1l0,0h0c0-0.1-0.2-0.1-0.3-0.1c-0.1-0.1-0.2-0.1-0.3-0.1c0,0,0,0,0,0c-0.2-0.2-0.4-0.3-0.6-0.6
			c0,0,0-0.1,0-0.1c-0.1-0.1-0.1-0.3-0.1-0.5v-0.3l0-0.1c0-0.1,0-0.2,0.1-0.3v-0.2c0-0.1,0-0.2,0-0.2v-0.1c0-0.1,0-0.2,0-0.3
			c0,0,0-0.1,0-0.1c0-0.1-0.1-0.2-0.1-0.3c0-0.1-0.1-0.1-0.1-0.2c-0.1-0.1-0.2-0.2-0.3-0.3c-0.1-0.1-0.2-0.1-0.3-0.1l-0.2,0
			c-0.1,0-0.1,0-0.2,0c-0.1,0-0.2,0-0.3,0H9.8c-0.3,0-0.6,0-0.8,0.1l-0.1,0H8.8c-0.3,0.1-0.6,0.2-0.9,0.2l-0.1,0H7.8
			c-0.1,0-0.1,0-0.2,0.1l-0.1,0H7.4c-0.1,0-0.2,0.1-0.2,0.1c-0.3,0-0.5,0.1-0.8,0.2v0.1c0,0,0,0-0.1,0h0v-0.2l0-0.2
			c-0.1-0.4-0.2-0.8-0.3-1.2l0,0v-0.1c0,0,0-0.1-0.1-0.1l0-0.1C5.8,17.7,5.7,17.4,5.6,17.1z M14.1,19.6L14.1,19.6
			C14.1,19.6,14.1,19.7,14.1,19.6C14.1,19.6,14.1,19.6,14.1,19.6C14.1,19.5,14.1,19.6,14.1,19.6C14.2,19.7,14.1,19.6,14.1,19.6z
			 M14.2,19.5C14.2,19.5,14.2,19.5,14.2,19.5L14.2,19.5L14.2,19.5L14.2,19.5L14.2,19.5L14.2,19.5L14.2,19.5
			C14.2,19.5,14.2,19.6,14.2,19.5z M14.2,20L14.2,20L14.2,20C14.2,20,14.2,19.9,14.2,20z M33.3,11.3c0,0-0.1,0.1-0.2,0.2
			c-0.2,0.1-0.3,0.2-0.6,0.3c-0.2,0-0.5,0.1-0.7,0.1l-0.8,0c-0.2,0-0.3,0-0.4,0.1c-0.2,0.1-0.3,0.2-0.5,0.3
			c-0.1,0.1-0.1,0.3-0.2,0.5c0,0.1,0,0.3,0,0.4c0,0.2,0,0.5,0,0.7c0,0.5,0.1,1,0.3,1.5c0.1,0.3,0.2,0.6,0.2,0.8l0.2,0.7
			c0,0,0,0,0,0.1c-0.1,0-0.2,0-0.3,0l-0.2,0.1c0,0-0.1,0-0.1,0.1L30,17l-0.1,0c-0.5,0.1-0.9,0.3-1.3,0.4c-0.1,0-0.1,0-0.1,0.1h-0.2
			c0,0-0.1,0-0.1,0c-0.2,0.1-0.5,0.1-0.8,0.1c-0.1,0-0.1,0-0.2,0c0,0,0,0-0.1,0c-0.1,0-0.1,0-0.2-0.1c0,0,0,0,0,0
			c-0.1-0.1-0.1-0.1-0.1-0.2V17c0-0.2,0-0.4,0-0.5v-0.3L26.8,16c0-0.1,0-0.2,0-0.3c0-0.1,0-0.2-0.1-0.2c0-0.1,0-0.2-0.1-0.2l0-0.1
			c0-0.1-0.1-0.2-0.2-0.3c0,0,0-0.1,0-0.1c0-0.1-0.1-0.1-0.1-0.2c-0.1-0.1-0.2-0.2-0.3-0.3c0-0.1-0.1-0.1-0.2-0.2
			c-0.1,0-0.1-0.1-0.2-0.1c0-0.1-0.1-0.1-0.2-0.1c-0.1,0-0.2-0.1-0.3-0.1l-0.1,0l-0.1,0c-0.3-0.1-0.7-0.1-1,0l-0.1,0l-0.1,0
			c-0.4,0.2-0.7,0.4-0.9,0.7l0,0.1l0,0c-0.1,0-0.1,0.1-0.1,0.2c0,0,0,0.1,0,0.1l0,0.1c0,0.1-0.1,0.2,0,0.3c-0.1,0.3-0.2,0.6-0.1,0.9
			c0,0,0,0.1,0.1,0.1v0c0,0.2,0,0.5,0.1,0.7l0.1,0.3l0.1,0.3c0.1,0.1,0.1,0.2,0.1,0.4c0,0,0,0.1,0,0.1c-0.1,0-0.2,0.1-0.3,0.1
			l-0.5,0.1c-0.4,0.1-0.7,0.1-1.1,0.1H21c-0.1,0-0.1,0-0.2,0.1c0,0,0-0.1-0.1-0.1c-0.3,0-0.7,0-1-0.1l-0.3,0H19c0,0,0,0,0,0v0
			c0,0,0,0,0,0.1c0.1-0.6,0.1-1.3,0-1.9c0-0.1,0-0.1,0-0.2v-0.2c0-0.3,0-0.5-0.1-0.8l0-0.2c0-0.2,0-0.3,0-0.5l0-0.1v-0.1
			c0-0.1-0.1-0.3-0.2-0.4c-0.1-0.2-0.3-0.2-0.5-0.2h-0.3c-0.1,0-0.2,0-0.4,0c-0.1,0-0.2,0-0.3,0.1c-0.2,0.1-0.4,0.1-0.6,0.2
			c-0.2,0-0.4,0.1-0.5,0c-0.2,0-0.3,0-0.4-0.1c-0.3-0.1-0.5-0.4-0.7-0.7c-0.1-0.1-0.1-0.3-0.2-0.5c0-0.1,0-0.2,0-0.3
			c0.1-0.4,0.4-0.8,0.8-1h0.2c0.2,0,0.4,0,0.5,0c0.2,0,0.4,0,0.6,0h0l0,0c0.2,0,0.3,0,0.5,0l0.1,0c0.2,0,0.4-0.1,0.5-0.2
			c0.1-0.1,0.2-0.3,0.2-0.5l0-0.1c0,0,0-0.1,0-0.1c0-0.2,0-0.4,0.1-0.6c0.1-0.3,0-0.5-0.1-0.8l0-0.2c0-0.1,0-0.1,0-0.2l0,0v0
			c0,0,0-0.1-0.1-0.1C18,8.3,18,8.2,17.9,8l-0.1-0.1c0-0.2-0.1-0.3-0.2-0.4c-0.1-0.1-0.1-0.2-0.1-0.3c0-0.1,0-0.1-0.1-0.2
			c-0.1-0.1-0.1-0.3-0.2-0.4V6.4c0,0,0-0.1-0.1-0.1c-0.1-0.1,0-0.1,0-0.1c0.1,0,0.1,0,0.2-0.1C17.6,6,17.7,6,17.8,6
			c0.1,0,0.2,0,0.2-0.1c0,0,0,0,0,0h0.1l0.1,0h0.1c0.1,0,0.1,0,0.2-0.1c0.1,0,0.1-0.1,0.2-0.1c0,0,0.1,0,0.1,0c0.1,0,0.1,0,0.2,0H19
			l0,0l0.1,0c0.1,0,0.1-0.1,0.2-0.1c0,0,0,0,0,0h0.1c0.2,0,0.4,0,0.5-0.1l0.2,0l0.1,0l0.2,0c0,0,0.1,0,0.1,0h0
			c0.1,0,0.2-0.1,0.3-0.1c0.1,0,0.3,0,0.4,0c0.1,0,0.2,0.1,0.2,0.2c0.1,0.1,0.2,0.3,0.2,0.5c0.1,0.1,0.1,0.3,0.1,0.4
			c0,0.1,0,0.2,0.1,0.2c0,0,0,0.1-0.1,0.1c-0.1,0.4-0.1,0.9,0.1,1.3c0.2,0.4,0.4,0.8,0.8,1c0.4,0.2,0.8,0.3,1.2,0.3
			c0.1,0,0.1,0,0.2-0.1c0,0,0,0,0.1,0l0,0c0.2-0.1,0.4-0.3,0.5-0.5c0,0,0.1,0,0.1,0l0-0.1c0,0,0,0,0.1,0c0.3-0.3,0.4-0.8,0.3-1.2
			c0-0.1,0-0.1,0-0.2c0-0.2,0-0.4-0.1-0.6l0-0.1V6.3C25,6.2,25,6.1,25,6c-0.1-0.2-0.2-0.5-0.1-0.7c0,0,0,0,0-0.1c0,0,0,0,0,0
			c0.2-0.3,0.6-0.4,0.9-0.4l0,0h0c0.4-0.1,0.9,0,1.3-0.2c0.4,0,0.7-0.1,1.1-0.1l0.5,0h0.3c0,0.2,0,0.3,0,0.6c0,0.2,0,0.5,0,0.7
			c-0.1,0.4-0.1,0.9,0,1.3c0,0.1,0,0.2,0,0.3c0,0.1,0,0.1,0.1,0.1c0,0.4,0.1,0.8,0.3,1.2c0.1,0.2,0.2,0.4,0.4,0.6
			c0.2,0.1,0.5,0.2,0.7,0.1l0.1,0h0.1c0.5-0.1,0.8-0.2,1.2-0.3c0.3-0.1,0.7,0,1,0.2c0.3,0.2,0.5,0.5,0.5,0.9
			C33.6,10.6,33.5,10.9,33.3,11.3z"/>
	</g>
</g>
</svg>
