<?xml version="1.0" encoding="utf-8"?>
<!-- Generator: Adobe Illustrator 25.2.1, SVG Export Plug-In . SVG Version: 6.00 Build 0)  -->
<svg version="1.1" id="Layer_1" xmlns="http://www.w3.org/2000/svg" xmlns:xlink="http://www.w3.org/1999/xlink" x="0px" y="0px"
	 width="184.8px" height="94.7px" viewBox="0 0 184.8 94.7" style="enable-background:new 0 0 184.8 94.7;" xml:space="preserve">
<style type="text/css">
	.st0{fill:#AAD268;}
	.st1{fill:#FFFFFF;}
	.st2{fill:#182C54;}
</style>
<path class="st0" d="M84.3,88.8c-3.1,0-5.7-2.5-5.7-5.8l-0.1-6.1c0-2.2,1.7-4,3.8-4.1l19.5-0.8c0.1,0,0.1,0,0.2,0c1,0,2,0.4,2.7,1.1
	c0.8,0.7,1.2,1.8,1.3,2.8l0.1,6.1c0.1,3.2-2.4,5.9-5.6,6.1l-16,0.7C84.5,88.8,84.4,88.8,84.3,88.8z"/>
<path class="st0" d="M8,90.7c-1.1,0-2.2-0.5-3-1.3c-0.9-1-1.2-2.3-0.9-3.6L17.4,32c0.2-0.6,0.5-1.2,0.9-1.7
	c10.1-11.1,24.5-16.7,42.9-16.7c16.7,0,30.5,4.8,31.1,5c1.6,0.6,2.6,2,2.7,3.7l1,52.6c0,2-1.4,3.8-3.4,4l-84,11.8
	C8.4,90.7,8.2,90.7,8,90.7z"/>
<path class="st0" d="M176.6,83.4l-84.3-4.6c-2.1-0.1-3.7-1.8-3.8-3.9l-1-52.6c0-1.6,0.9-3.1,2.4-3.7c0.7-0.3,18.1-7.9,37.7-7.9
	c15.2,0,27.5,4.5,36.7,13.4c0.5,0.5,0.9,1.1,1.1,1.7l15.3,52.6c0.4,1.2,0.1,2.6-0.7,3.6s-1.9,1.5-3.1,1.5
	C176.7,83.4,176.6,83.4,176.6,83.4z"/>
<path class="st1" d="M31.5,14.1l-11,57.7C52.2,59.6,91,74.9,91,74.9l-1-59.7C90,15.2,67.3-2.3,31.5,14.1z"/>
<path class="st1" d="M150.9,8.4L163.7,65c-32.1-9.1-70.2,9.9-70.2,9.9l-1-59.7C92.5,15.1,114.5-4.5,150.9,8.4z"/>
<path class="st2" d="M184.4,77.2l-15.3-52.6c-0.4-1.3-1.1-2.5-2.1-3.5c-3.3-3.2-6.9-5.8-10.9-8l-1.3-5.6c-0.3-1.3-1.3-2.4-2.6-2.9
	c-32.1-11.4-54,1.4-59.9,5.6c-0.4,0.3-0.8,0.6-1.2,0.9C85.6,7.5,63-4.7,29.8,10.5c-1.2,0.5-2,1.6-2.3,2.9l-0.9,5
	c-4.2,2.5-7.9,5.6-11.2,9.2c-0.9,1-1.5,2.2-1.9,3.5L0.2,84.8c-0.6,2.6,0,5.3,1.8,7.3c1.5,1.7,3.7,2.6,5.9,2.6c0.4,0,0.7,0,1.1-0.1
	l65.8-9.2c1.1,4.2,4.9,7.3,9.4,7.3c0.1,0,0.3,0,0.4,0l16-0.7c4.6-0.2,8.4-3.7,9.2-8.2l66.5,3.6h0.4c2.4,0,4.7-1.1,6.3-3
	C184.6,82.4,185.1,79.7,184.4,77.2z M147.5,11.5l10.9,48.2c-23.2-4.1-47.5,3.7-59.3,8.4l-1.7,0.1l-0.9-51.1
	C101.3,13.5,119.4,2.3,147.5,11.5z M35,16.9c27.3-11.7,45.7-2.8,51,0.4l0.9,51.2L85,68.7c-8-2.4-21.6-5.6-36.6-5.6
	c-7.4,0-15.1,0.8-22.7,2.8L35,16.9z M8,86.7l13.3-53.8c0.6-0.7,1.3-1.4,2-2c0-0.4,0.1-0.8,0.2-1.3c0.5-1.5,1.2-3.1,1.9-4.7
	l-8.8,46.2c-0.3,1.4,0.3,2.9,1.4,3.8c1.1,0.9,2.6,1.2,4,0.7c18.2-7,39.2-4.4,52.9-1.2c-0.3,0.8-0.4,1.7-0.4,2.6l0,0.5L8,86.7z
	 M100.3,84.1l-16,0.7c0,0,0,0-0.1,0c-0.5,0-0.9-0.2-1.2-0.6l9.7-1.4l8.9,0.5C101.3,83.8,100.8,84.1,100.3,84.1z M109.9,75.8l0-0.1
	c0-1-0.2-1.9-0.5-2.8c13.5-4.5,34.6-9.3,53.2-4.1c1.4,0.4,2.8,0,3.8-0.9s1.5-2.4,1.2-3.8l-9-39.7c1,0.8,1.9,1.6,2.9,2.5l15.3,52.6
	L109.9,75.8z"/>
</svg>
