<?xml version="1.0" encoding="utf-8"?>
<!-- Generator: Adobe Illustrator 25.3.1, SVG Export Plug-In . SVG Version: 6.00 Build 0)  -->
<svg version="1.1" id="Layer_1" xmlns="http://www.w3.org/2000/svg" xmlns:xlink="http://www.w3.org/1999/xlink" x="0px" y="0px"
	 width="112.7px" height="112.4px" viewBox="0 0 112.7 112.4" style="enable-background:new 0 0 112.7 112.4;" xml:space="preserve"
	>
<style type="text/css">
	.st0{fill:#0F2D52;}
</style>
<path class="st0" d="M56.4,7.8c26.9,0,48.5,21.4,48.5,48.3c0,27-21.8,48.7-48.6,48.5C29.3,104.4,7.8,82.8,7.8,56.1
	C7.9,29.3,29.5,7.8,56.4,7.8z M56.4,94.3c21.1-0.1,38.1-17.3,38-38.6C94.3,35.1,76.9,18,56.2,18.1c-20.9,0.1-38.1,17.5-37.9,38.3
	C18.5,77.2,35.8,94.4,56.4,94.3z"/>
<path class="st0" d="M56.5,51.1c5.7,0,11.3,0,17,0c3.8,0,5.9,1.9,5.9,5.1c0,3.2-2,5.1-5.8,5.2c-11.4,0.1-22.9,0.1-34.3,0
	c-3.8,0-5.8-2-5.9-5.2c0-3.3,2-5,5.8-5.1C45,51,50.8,51.1,56.5,51.1z"/>
</svg>
