<?xml version="1.0" encoding="utf-8"?>
<!-- Generator: Adobe Illustrator 25.2.1, SVG Export Plug-In . SVG Version: 6.00 Build 0)  -->
<svg version="1.1" id="Layer_1" xmlns="http://www.w3.org/2000/svg" xmlns:xlink="http://www.w3.org/1999/xlink" x="0px" y="0px"
	 width="160.5px" height="89px" viewBox="0 0 160.5 89" style="enable-background:new 0 0 160.5 89;" xml:space="preserve">
<style type="text/css">
	.st0{fill:#FFFFFF;}
	.st1{fill:#0F2D52;}
	.st2{fill:#EA2C38;}
</style>
<path class="st0" d="M4,80.2C4,38.2,38.2,4,80.2,4s76.2,34.2,76.2,76.2H4z"/>
<path class="st1" d="M80.2,33.5c-2.2,0-4-1.8-4-4V14.6c0-2.2,1.8-4,4-4s4,1.8,4,4v14.9C84.2,31.7,82.4,33.5,80.2,33.5z"/>
<path class="st1" d="M57.7,29.7c-1.6,0-3-0.9-3.7-2.4l-2.6-6.1c-0.9-2,0.1-4.4,2.1-5.2c2-0.9,4.4,0.1,5.2,2.1l2.6,6.1
	c0.9,2-0.1,4.4-2.1,5.2C58.8,29.6,58.2,29.7,57.7,29.7z"/>
<path class="st1" d="M134.8,61.7c-1.6,0-3-0.9-3.7-2.4c-0.9-2,0.1-4.4,2.1-5.2l6.1-2.6c2-0.9,4.4,0.1,5.2,2.1c0.9,2-0.1,4.4-2.1,5.2
	l-6.1,2.6C135.9,61.6,135.3,61.7,134.8,61.7z"/>
<path class="st1" d="M102.8,29.7c-0.5,0-1.1-0.1-1.6-0.3c-2-0.9-3-3.2-2.1-5.2l2.6-6.1c0.9-2,3.2-3,5.2-2.1c2,0.9,3,3.2,2.1,5.2
	l-2.6,6.1C105.8,28.8,104.4,29.7,102.8,29.7z"/>
<path class="st1" d="M25.7,61.7c-0.5,0-1.1-0.1-1.6-0.3L18,58.8c-2-0.9-3-3.2-2.1-5.2s3.2-3,5.2-2.1l6.1,2.6c2,0.9,3,3.2,2.1,5.2
	C28.7,60.8,27.3,61.7,25.7,61.7z"/>
<path class="st1" d="M122,42.5c-1,0-2-0.4-2.8-1.2c-1.6-1.6-1.6-4.1,0-5.7l4.7-4.7c1.6-1.6,4.1-1.6,5.7,0c1.6,1.6,1.6,4.1,0,5.7
	l-4.7,4.7C124,42.1,123,42.5,122,42.5z"/>
<path class="st1" d="M38.5,42.5c-1,0-2-0.4-2.8-1.2L31,36.6c-1.6-1.6-1.6-4.1,0-5.7c1.6-1.6,4.1-1.6,5.7,0l4.7,4.7
	c1.6,1.6,1.6,4.1,0,5.7C40.5,42.1,39.5,42.5,38.5,42.5z"/>
<path class="st2" d="M115.3,29.6c0.4-0.8-39.4,33.1-48.6,40.9c-2.5,1.5-4,4.4-3.7,7.5c0.4,4.3,4.3,7.4,8.6,7c2.6-0.3,4.8-1.8,6-4
	L115.3,29.6z"/>
<path class="st1" d="M80.2,0C36,0,0,36,0,80.2c0,2.2,1.8,4,4,4h57.3c2.2,2.9,5.7,4.8,9.6,4.8c0.4,0,0.8,0,1.2-0.1
	c3.7-0.4,7-2.6,8.9-5.8l0.2-0.3c0,0.4,0,0.9,0,1.3h75.2c2.2,0,4-1.8,4-4C160.4,36,124.4,0,80.2,0z M74.4,78.6
	c-0.1,0.1-0.2,0.3-0.3,0.4c-0.6,1.1-1.7,1.8-2.9,1.9c-2.2,0.2-4.1-1.3-4.2-3.4c-0.1-1.5,0.6-3,1.8-3.7c0.2-0.1,0.4-0.2,0.5-0.4
	l6.2-5.3c4.3-3.6,10.7-9,17.1-14.5L74.4,78.6z M86.1,76.2L118.5,32c0.1-0.2,0.3-0.4,0.4-0.6c0.9-1.7,0.4-3.8-1.1-5
	c-2.5-2-4.9-0.1-6.3,1c-0.8,0.7-2,1.6-3.5,2.8c-2.9,2.4-6.8,5.7-11.3,9.4C88,47.2,77.4,56.1,70.3,62.2l-6,5.1c-3.1,2-5,5.3-5.3,8.9
	H8.1C10.2,38.2,41.7,8,80.2,8c38.5,0,70,30.2,72.1,68.2H86.1z"/>
</svg>
