<?xml version="1.0" encoding="utf-8"?>
<!-- Generator: Adobe Illustrator 25.2.1, SVG Export Plug-In . SVG Version: 6.00 Build 0)  -->
<svg version="1.1" id="Layer_1" xmlns="http://www.w3.org/2000/svg" xmlns:xlink="http://www.w3.org/1999/xlink" x="0px" y="0px"
	 width="98.5px" height="154.7px" viewBox="0 0 98.5 154.7" style="enable-background:new 0 0 98.5 154.7;" xml:space="preserve">
<style type="text/css">
	.st0{fill:#007EC4;}
	.st1{fill:#AAD268;}
	.st2{fill:#0F2D52;}
</style>
<path class="st0" d="M43.6,44.5l-8,0.1C18,44.7,3.8,59.8,4,78.2l0.3,39.4c0.2,18.4,14.5,33.2,32.1,33.1l8-0.1
	C62,150.5,76.1,135.4,76,117l-0.3-39.4C75.6,59.2,61.2,44.4,43.6,44.5z"/>
<path class="st1" d="M40.9,61H39c-4.2,0-7.5,3.6-7.5,8l0.1,9.4c0,4.4,3.5,7.9,7.6,7.8h1.9c4.2,0,7.5-3.6,7.5-8l-0.1-9.4
	C48.5,64.4,45.1,60.9,40.9,61z"/>
<path class="st2" d="M64.4,18.8h0.2C76.5,18.9,88.1,14.7,97.1,7c1.7-1.4,1.9-4,0.5-5.6c-1.4-1.7-4-1.9-5.6-0.5
	c-7.6,6.4-17.3,9.9-27.3,9.8h-0.2c-0.1,0-0.1,0-0.2,0c-7.5,0-14.6,2.9-19.9,8.3c-5.4,5.4-8.3,12.5-8.3,20.2c0,0.3,0,0.6,0.1,0.8
	l0,0.5l-0.5,0c-9.3,0.1-18.1,3.8-24.8,10.6C3.7,58.4-0.1,68,0,78.2l0.1,18.2c0,0.1,0,0.2,0,0.4c0,0.2,0,0.3,0,0.4l0.2,20.4
	c0.2,20.5,16.3,37.1,36,37.1c0.1,0,0.1,0,0.2,0l8-0.1c19.7-0.1,35.7-17,35.6-37.6l-0.1-19.2c0.1-0.3,0.1-0.7,0.1-1
	c0-0.4-0.1-0.7-0.2-1.1l-0.1-18.2c-0.1-9.9-3.8-19.3-10.6-26.3c-6.7-6.9-15.6-10.7-25-10.8l0-1.3c0-0.3,0-0.5-0.1-0.7
	c0.1-5.2,2.2-10.1,5.9-13.7C53.8,20.9,58.9,18.7,64.4,18.8z M39,65h1h0h0.9c0,0,0.1,0,0.1,0c1.2,0,1.9,0.5,2.3,0.9
	c0.7,0.7,1.2,1.7,1.2,2.9l0.1,9.4c0,2.2-1.6,4-3.5,4l-1,0c0,0,0,0,0,0c0,0,0,0,0,0l-1,0c-0.9,0-1.7-0.3-2.3-1
	c-0.8-0.7-1.2-1.7-1.2-2.9L35.5,69C35.5,66.8,37.1,65,39,65z M8,78.2c-0.1-8.1,2.9-15.7,8.5-21.3c5.2-5.3,12-8.2,19.2-8.2l0.4,0
	l0,8.8c-4.9,1.4-8.5,6-8.5,11.6l0.1,9.4c0,3.2,1.3,6.3,3.6,8.6c1.4,1.4,3.1,2.3,4.9,2.8l0,3H8.1L8,78.2z M72,117
	c0.1,16.2-12.3,29.5-27.6,29.6l-8,0.1c-0.1,0-0.1,0-0.2,0c-15.2,0-27.7-13-27.9-29.1l-0.1-16.8H40c0,0,0,0,0,0h31.9L72,117z
	 M63.3,56.9c5.3,5.5,8.3,12.9,8.4,20.7l0.1,15.2H44l0-3c4.9-1.4,8.5-6,8.5-11.6l-0.1-9.4c0-3.3-1.3-6.3-3.6-8.6
	c-1.4-1.4-3.1-2.3-4.9-2.8l0-8.9C51.3,48.5,58.1,51.5,63.3,56.9z"/>
</svg>
