<?xml version="1.0" encoding="utf-8"?>
<!-- Generator: Adobe Illustrator 25.2.1, SVG Export Plug-In . SVG Version: 6.00 Build 0)  -->
<svg version="1.1" id="Layer_1" xmlns="http://www.w3.org/2000/svg" xmlns:xlink="http://www.w3.org/1999/xlink" x="0px" y="0px"
	 width="121.6px" height="181.3px" viewBox="0 0 121.6 181.3" style="enable-background:new 0 0 121.6 181.3;" xml:space="preserve"
	>
<style type="text/css">
	.st0{fill:#EA2C38;}
	.st1{fill:#F4C8A0;}
	.st2{fill:#182C54;}
	.st3{fill:#F7942D;}
</style>
<polygon class="st0" points="116.2,12.4 97.3,4 88,27 90.2,28 71.8,69.2 84.5,74.9 103,33.7 105.2,34.7 "/>
<path class="st0" d="M85.6,124.6c2.6-9.3,11-11.6,14.5-25.9c3.9-15.7-15.9-25.6-21.4-28c-5.5-2.5-26-10.6-35.1,2.7
	c-8.3,12.1-4.4,19.9-9.6,28.1s-21.8,9.4-28.5,27.3c-6.7,17.8,10,33.6,29.4,42.2c19.4,8.7,40.5,9.9,49.4-7
	C93.1,147.2,83,134,85.6,124.6z"/>
<ellipse class="st1" cx="53.3" cy="127.9" rx="16.7" ry="16.7"/>
<path class="st2" d="M53.3,148.6c-1.9,0-3.8-0.3-5.7-0.8c-11-3.1-17.4-14.6-14.2-25.6l0,0c1.5-5.3,5-9.7,9.8-12.4
	c4.8-2.7,10.4-3.3,15.7-1.8c11,3.1,17.4,14.6,14.2,25.6C70.6,142.6,62.3,148.6,53.3,148.6z M53.3,115.1c-2.1,0-4.2,0.5-6.2,1.6
	c-3,1.6-5.1,4.4-6,7.6l0,0c-1.9,6.7,2,13.8,8.7,15.7c6.7,1.9,13.8-2,15.7-8.7c1.9-6.7-2-13.8-8.7-15.7
	C55.6,115.3,54.5,115.1,53.3,115.1z M37.2,123.3L37.2,123.3L37.2,123.3z"/>
<rect x="35.7" y="147.5" transform="matrix(0.4084 -0.9128 0.9128 0.4084 -118.5818 127.7215)" class="st3" width="7.1" height="15.7"/>
<path class="st2" d="M45,165.8c-0.5,0-1.1-0.1-1.6-0.3L29,159c-2-0.9-2.9-3.3-2-5.3l2.9-6.5c0.4-1,1.2-1.7,2.2-2.1
	c1-0.4,2.1-0.3,3.1,0.1l14.3,6.4c1,0.4,1.7,1.2,2.1,2.2s0.3,2.1-0.1,3.1l-2.9,6.5C47.9,164.9,46.5,165.8,45,165.8z"/>
<path class="st2" d="M119.2,16.6l-0.5-0.2l1.1-2.2c0.5-1,0.5-2.1,0.2-3.1c-0.4-1-1.1-1.9-2.1-2.3L98.9,0.3c-1-0.4-2.1-0.5-3.1-0.1
	c-1,0.4-1.8,1.2-2.2,2.2l-0.9,2.1L91.4,4c-2-0.9-4.4,0-5.3,2c-0.9,2,0,4.4,2,5.3l1.6,0.7l-1.4,3.4l-0.7-0.3c-2-0.8-4.4,0.1-5.2,2.2
	c-0.8,2,0.1,4.4,2.2,5.2l0.8,0.3l-1,2.6c-0.6,1.5-0.3,3.1,0.8,4.2L70,63.4c-9.5-2.4-22.4-3-29.7,7.7c-5.2,7.5-6.1,13.8-6.9,18.8
	c-0.5,3.6-1,6.5-2.8,9.4c-1.4,2.3-4.6,4.1-8.3,6.3c-7.1,4.1-15.9,9.3-20.6,21.8c-7.9,21.1,12,38.6,31.5,47.3
	c10,4.5,19.1,6.7,27.2,6.7c12.4,0,22-5.2,27.4-15.5c6.1-11.7,4.1-21.7,2.5-29.8c-0.8-4.2-1.6-7.8-0.9-10.4c0.9-3.3,2.8-5.5,5.1-8.3
	c3.2-3.9,7.2-8.8,9.4-17.7c3.1-12.7-5.8-21.8-14-27.3l15.1-33.7c1.5,0,2.9-0.8,3.6-2.2L110,34l0.1,0.1c0.5,0.2,1.1,0.4,1.6,0.4
	c1.5,0,3-0.9,3.7-2.4c0.9-2,0-4.3-1.9-5.2l1.6-3.3l0.8,0.3c0.5,0.2,1.1,0.4,1.6,0.4c1.5,0,3-0.9,3.7-2.4
	C122.2,19.8,121.3,17.5,119.2,16.6z M96.2,97.7c-1.7,7.1-4.8,10.9-7.8,14.5c-2.6,3.1-5.3,6.4-6.6,11.3c0,0,0,0,0,0
	c-1.2,4.5-0.3,9.2,0.7,14.1c1.5,7.5,3.1,15.3-1.7,24.5c-9.9,18.8-36.4,8.7-44.2,5.2C20.2,160.1,3.3,146,9.2,130.2
	c3.7-9.8,10.5-13.8,17.1-17.7c4.4-2.6,8.5-5,11-8.9c2.7-4.3,3.4-8.5,4-12.5c0.7-4.6,1.4-9.4,5.6-15.5c2.9-4.3,7.6-5.7,12.5-5.7
	c3.1,0,6.2,0.6,9,1.3c0.4,0.7,1,1.2,1.8,1.6l12.7,5.7c0.5,0.2,1.1,0.4,1.6,0.4c0.3,0,0.5,0,0.8-0.1C91.4,82.9,98.3,89.5,96.2,97.7z
	 M101.6,30c-1,0.4-1.8,1.1-2.2,2.1L83.1,68.3c-1-0.5-2-0.9-2.7-1.3c-0.7-0.3-1.6-0.7-2.7-1.1l16.2-36.3c0.7-1.5,0.3-3.3-0.8-4.4
	l6.4-15.9l11.3,5l-7.6,15.3C102.7,29.7,102.1,29.8,101.6,30z"/>
</svg>
