<?xml version="1.0" encoding="utf-8"?>
<!-- Generator: Adobe Illustrator 25.2.1, SVG Export Plug-In . SVG Version: 6.00 Build 0)  -->
<svg version="1.1" id="Layer_1" xmlns="http://www.w3.org/2000/svg" xmlns:xlink="http://www.w3.org/1999/xlink" x="0px" y="0px"
	 width="134.9px" height="135.4px" viewBox="0 0 134.9 135.4" style="enable-background:new 0 0 134.9 135.4;" xml:space="preserve"
	>
<style type="text/css">
	.st0{fill:#6CCAD0;}
	.st1{fill:#E2F3F9;}
	.st2{fill:#132E52;}
</style>
<path class="st0" d="M112.7,30.8H131V14.9c-0.1-6-5-10.9-11-10.9h-5.2C114.8,4,112,10.5,112.7,30.8z"/>
<path class="st1" d="M119.3,4c-2.8,0-17.7,0-17.7,0H29.5c-5.4,0-9.7,4.3-9.7,9.7v117.7h66.3h18.5h0.1c5.6,0,10.1-4.6,10.1-10.1V19.7
	C114.8,19.7,114.6,4,119.3,4z"/>
<path class="st1" d="M87.9,104.4v15.9c0,6,4.9,11,10.9,11H14.9c-6,0-10.9-5-10.9-11v-15.9H87.9z"/>
<path class="st2" d="M135,14.8C134.9,6.7,128.1,0,120,0h-0.7h-0.1H29.5c-7.6,0-13.7,6.1-13.7,13.7v86.7H4c-2.2,0-4,1.8-4,4v15.9
	c0,8.3,6.7,15,14.9,15h8.8c0,0,0,0.1-0.1,0.1h81.1c7.8,0,14.1-6.3,14.1-14.1V34.8H131c2.2,0,4-1.8,4-4L135,14.8z M8,120.3v-11.9
	h75.9v11.9c0,2.5,0.6,4.9,1.7,7H14.9C11.2,127.3,8,124.1,8,120.3z M110.8,19.7v101.6c0,3.4-2.7,6.1-6.1,6.1h-5
	c-0.3-0.1-0.6-0.1-0.9-0.1c-3.7,0-6.9-3.2-6.9-7v-15.9c0-2.2-1.8-4-4-4H23.8V13.7c0-3.2,2.5-5.7,5.7-5.7h82.4
	C110.9,12.2,110.8,17.1,110.8,19.7z M127,26.8h-8.2v-7.1c-0.1-4.7,0.6-9.8,1.5-11.6c3.7,0.1,6.7,3.2,6.7,6.9V26.8z"/>
<path class="st2" d="M99.9,32.9H35.1c-2.2,0-4-1.8-4-4s1.8-4,4-4h64.8c2.2,0,4,1.8,4,4S102.1,32.9,99.9,32.9z"/>
<path class="st2" d="M99.9,48.3H35.1c-2.2,0-4-1.8-4-4s1.8-4,4-4h64.8c2.2,0,4,1.8,4,4S102.1,48.3,99.9,48.3z"/>
<path class="st2" d="M99.9,63.7H35.1c-2.2,0-4-1.8-4-4s1.8-4,4-4h64.8c2.2,0,4,1.8,4,4S102.1,63.7,99.9,63.7z"/>
<path class="st2" d="M99.9,79.1H35.1c-2.2,0-4-1.8-4-4s1.8-4,4-4h64.8c2.2,0,4,1.8,4,4S102.1,79.1,99.9,79.1z"/>
<path class="st2" d="M99.9,94.5H35.1c-2.2,0-4-1.8-4-4s1.8-4,4-4h64.8c2.2,0,4,1.8,4,4S102.1,94.5,99.9,94.5z"/>
</svg>
