<?xml version="1.0" encoding="utf-8"?>
<!-- Generator: Adobe Illustrator 25.2.1, SVG Export Plug-In . SVG Version: 6.00 Build 0)  -->
<svg version="1.1" id="Capa_1" xmlns="http://www.w3.org/2000/svg" xmlns:xlink="http://www.w3.org/1999/xlink" x="0px" y="0px"
	 width="32.4px" height="24.3px" viewBox="0 0 32.4 24.3" style="enable-background:new 0 0 32.4 24.3;" xml:space="preserve">
<style type="text/css">
	.st0{fill:#007EC4;}
	.st1{fill:#AAD268;}
	.st2{fill:#0F2D52;}
</style>
<g transform="translate(-2.421 -6.586)">
	<path class="st0" d="M5,13.2h16.5c1.3,0,2.4,1.1,2.4,2.4c0,0,0,0,0,0V26c0,1.3-1.1,2.4-2.4,2.4h-8.7l-2.1,2.1l-2.1-2H4.9
		c-1.3,0-2.4-1.1-2.4-2.4V15.6C2.6,14.3,3.6,13.2,5,13.2C4.9,13.2,4.9,13.2,5,13.2L5,13.2z"/>
	<path class="st1" d="M32.1,7.2H11.4C10.1,7.2,9,8.2,9,9.5v10.4c0,1.3,1.1,2.4,2.4,2.4h12.9l2.1,2.1l2.1-2.1h3.8
		c1.3,0,2.3-1.1,2.3-2.4V9.5C34.5,8.2,33.4,7.2,32.1,7.2z"/>
	<path class="st2" d="M34.8,18.9c0-0.4,0-0.9,0-1.3c0-0.1,0.1-0.2,0-0.3c0-2.1,0-4.1,0-6.2V10c0-0.2,0-0.4,0-0.6
		c0-0.2,0-0.4-0.1-0.6C34.4,8,33.8,7.3,33,7.1C32.8,7,32.7,7,32.5,6.9c-0.2,0-0.3,0-0.4,0.1c0.1,0,0.3,0.1,0.4,0.1
		c0.3,0.1,0.7,0.2,0.9,0.4c0.1,0.1,0.3,0.2,0.4,0.3c0.1,0.2,0.2,0.3,0.3,0.5c0.1,0.2,0.2,0.4,0.2,0.6v0c0,0.1,0.1,0.2,0,0.3v0.4
		c-0.1,1.1-0.1,2.2,0,3.3c0,0.4,0,0.7,0,1.1c0,0.2,0,0.3,0,0.5c0,0.8,0,1.6,0,2.5c0,0.4,0,0.7,0,1.1h0.1v0.1c-0.1,0.5-0.1,1-0.1,1.5
		c0,0.2,0,0.5,0,0.7c0,0.2-0.1,0.4-0.3,0.6c-0.1,0.2-0.2,0.3-0.3,0.4c-0.2,0.2-0.4,0.3-0.7,0.5c-0.2,0.1-0.5,0.2-0.8,0.2
		c-0.1,0-0.2,0-0.2,0c-0.8,0.1-1.5,0.1-2.3,0c-0.4,0-0.7,0-1.1,0c-0.1,0-0.3,0-0.4,0c-0.1,0.1-0.1,0.1-0.2,0.2L28,22.4
		c-0.3,0.3-0.5,0.5-0.8,0.8c-0.2,0.2-0.4,0.4-0.6,0.6l-0.2,0.1l-0.1-0.1l0-0.1l-0.1-0.1l-0.5-0.5l-1.2-1.3h-0.8c-0.1,0-0.3,0-0.4,0
		c-0.2,0-0.4,0-0.6,0c0,0-0.1,0-0.1,0h-0.7l-0.1,0c-0.1,0-0.3,0-0.4,0c0,0-0.1,0-0.1,0h-0.2L21,21.8h-1.4c-0.1,0-0.1,0-0.1,0l-0.2,0
		c0,0-0.1,0-0.1,0c-0.3,0-0.6,0-0.9,0c-0.1,0-0.2,0-0.2,0c-0.3,0-0.6,0-1,0c-0.2,0-0.4,0-0.5,0c0,0-0.1,0-0.1,0c-0.1,0-0.3,0-0.4,0
		c-0.1,0-0.1,0-0.2,0c-0.1,0-0.2,0-0.2,0.1c0,0-0.1,0-0.1,0c-0.1,0-0.2,0-0.2-0.1h-3c-0.1,0-0.2,0-0.4-0.1c-0.1,0-0.3,0-0.4,0
		c-0.1,0-0.2,0-0.3,0c0,0-0.1,0-0.1,0c-0.1-0.1-0.3-0.1-0.5-0.1c-0.1,0-0.2-0.1-0.3-0.2c-0.3-0.3-0.6-0.6-0.8-0.9
		c-0.1-0.2-0.2-0.5-0.1-0.7l0-0.2c0,0,0,0,0-0.1c0,0,0-0.1,0-0.1c0.1-0.8,0-1.6,0.1-2.4v-0.1c0-0.1,0-0.1-0.1-0.2c0,0,0.1,0,0.1-0.1
		c0-0.4,0-0.7,0-1.1c0.1-0.7,0-1.5,0-2.2l0-0.1v-0.3c0-0.1,0-0.2,0-0.2c0-0.8,0-1.7,0-2.6V9.4c0-0.2,0-0.3,0.1-0.5
		C9.6,8.4,10,8,10.4,7.7c0.1-0.1,0.2-0.1,0.3-0.2l0.1,0c0.1,0,0.2,0,0.3,0c0.1,0,0.2,0,0.2,0h0.3c0.2,0,0.4,0,0.6,0
		c0.2,0,0.4,0,0.6,0c0,0,0.1,0,0.2,0c0,0,0,0,0,0h0.7c0,0,0.1,0,0.1,0c1.4,0.1,2.8,0.1,4.2,0c0,0,0.1,0,0.1,0c0.3-0.1,0.7,0,1-0.1
		c0,0,0,0,0.1,0c0.2,0,0.4,0,0.5,0h0c0.2,0,0.5,0,0.7,0c0.2,0,0.4,0,0.5,0h0.8l0.1-0.1c0,0,0,0,0.1,0h0.3l0.1,0l0.2,0
		c0.3,0,0.7,0,1,0c0,0,0.1,0,0.1,0c0.1,0,0.2,0,0.4,0c0.1,0,0.2,0,0.2,0c0.6-0.1,1.3,0,2-0.1h0.2c0.1,0,0.1,0,0.2,0l1.5,0
		c0.1,0,0.1,0,0.1-0.1c0.1,0,0.2,0,0.2,0h0.5l0.2,0c0.1,0,0.2,0,0.2,0c0.2,0,0.3,0,0.5,0c0.4,0,0.8,0,1.1,0c0,0,0.1,0,0.1,0
		c0.2,0,0.3,0,0.5,0c0.1,0,0.3-0.1,0.3-0.2l0,0l0,0c0-0.1-0.3-0.1-0.4-0.1c-0.2,0-0.3-0.1-0.5-0.1c0,0,0,0-0.1,0
		c-0.4-0.1-0.8-0.1-1.2,0h-0.2c-0.2,0-0.4,0-0.6,0H29l-0.1,0c-0.1,0-0.2,0-0.3-0.1H28c-0.1,0-0.2,0-0.3,0c0,0-0.1,0-0.1,0l-0.2,0
		c-0.1,0-0.2,0-0.3,0c-0.1,0-0.1,0-0.2,0h-0.2c-0.1,0-0.1,0-0.2,0c-0.1,0-0.2,0-0.3,0h-0.1l-0.1,0c-0.3,0-0.5,0-0.8,0l-0.1,0h-0.1
		c-0.3,0-0.6,0-0.9,0h-0.1l-0.1,0c-0.1,0-0.1,0-0.2,0l-0.1,0h-0.1c-0.1,0-0.2,0-0.3,0.1c-0.3,0-0.6,0-0.8,0c0,0-0.1,0-0.1,0.1h0
		c-0.8-0.1-1.7-0.1-2.5,0l-0.1,0h-0.1c0,0-0.1,0-0.1,0h-0.1c-0.3,0-0.7,0-1,0l-0.1,0h-0.1c-0.7,0-1.4,0-2.1,0h-0.1
		c-0.1,0-0.3,0-0.4,0H16c-0.3,0.1-0.6,0-0.9,0.1h0l0.1,0c-0.7,0-1.3,0-2,0c-0.1,0-0.1,0-0.2,0h-0.2c-0.3-0.1-0.5-0.1-0.8,0h-0.2
		c-0.1,0-0.3,0-0.4-0.1h-0.2c-0.3,0-0.6,0-0.8,0.2c-0.1,0.1-0.2,0.1-0.3,0.1h0c-0.5,0.1-0.9,0.5-1.1,1C8.9,8.5,8.7,9,8.7,9.5
		c0,0.4,0,0.9,0.1,1.3c0.1,0.2,0,0.4,0.1,0.6v0.3c0,0.5,0,1,0,1.4l-0.4,0c-0.1,0-0.1,0-0.1,0.1c-0.1,0-0.1,0-0.2,0H7.7l-0.2,0
		c-0.1,0-0.1,0-0.2,0c-0.1,0-0.3,0-0.4,0c-0.3,0-0.7,0-1,0c0,0-0.1,0-0.1,0c-0.2,0-0.3,0-0.5,0c-0.1,0-0.3,0.1-0.3,0.2l0,0.1h0
		c0,0.1,0.2,0.1,0.3,0.1c0.1,0,0.3,0.1,0.4,0.1c0,0,0,0,0.1,0c0.3,0.1,0.7,0.1,1,0H7c0.2,0,0.3,0,0.5,0h0.3l0.1,0
		c0.1,0,0.2,0.1,0.3,0.1h0.5c0.1,0,0.1,0,0.2,0c0,0.4,0,0.7,0,1.1v0l0,0v0.5c0,0,0,0,0,0v0.9c0,0,0,0.1,0,0.1c0,0.2,0,0.4,0,0.5
		c-0.1,0.3-0.1,0.5,0,0.8v0.2c0,0.1,0,0.1,0,0.2l0,0.1v0.1c0,0,0,0.1,0,0.1V19c0,0.2,0,0.3,0,0.5c0,0.1,0,0.3,0,0.4
		c0,0.1,0,0.1,0,0.2c0.1,0.1,0.1,0.3,0.1,0.5c0,0.1,0,0.1,0,0.2c0,0.1,0.1,0.1,0.1,0.2c0.1,0.1,0.1,0.1,0.1,0.2
		c0.1,0.1,0.1,0.2,0.2,0.3c0.1,0.1,0.2,0.2,0.3,0.4c0.1,0.1,0.1,0.1,0.2,0.2h0c0,0,0.1,0.1,0.1,0.1c0,0,0,0,0.1,0l0,0.1
		c0,0.1,0.1,0.1,0.2,0.1c0.1,0,0.1,0,0.2,0c0,0,0,0,0.1,0.1c0.1,0,0.2,0.1,0.2,0.1h0l0.1,0H11c0.1,0,0.2,0,0.2,0l0,0c0,0,0,0,0.1,0
		c0.2,0.1,0.4,0.1,0.6,0h0.2l0.1,0l0.2,0l0.1,0h0.4c0.3,0,0.6,0,0.9,0c0.2,0,0.4,0,0.6,0c0.1,0,0.3,0,0.4,0c0.1,0,0.2,0,0.2-0.1
		c0,0,0.1,0,0.1,0.1c0.4,0.1,0.8,0.1,1.3,0c0.8,0,1.5,0,2.3,0H19c0,0,0,0,0.1,0h0c0.2,0,0.4,0,0.6-0.1c0,0,0,0.1,0.1,0.1h0.1l0.1,0
		c0.4,0.1,0.8,0.1,1.2,0h0.2c0.2,0.1,0.4,0.1,0.6,0l0.1,0h0.1c0.1,0,0.2,0,0.3,0c0.3,0,0.6,0,0.9,0h0.1c0,0,0.1,0,0.1,0v0.7
		c0,0,0,0.1,0,0.1c0,0.2,0,0.3,0,0.5c-0.1,0.2-0.1,0.5,0,0.7v0.2c0,0.1,0,0.1,0,0.2l0,0V25c0,0,0,0.1,0,0.1v0.6c0,0.1,0,0.3,0,0.4
		c0,0.1,0,0.2,0,0.3c0,0,0,0.1,0,0.1c0,0.1,0,0.3-0.1,0.4c0,0-0.1,0.1-0.1,0.1c0,0,0,0.1,0,0.1c0,0.1-0.1,0.1-0.1,0.2
		c0,0.1-0.1,0.1-0.2,0.2c-0.1,0.1-0.2,0.2-0.3,0.2l-0.2,0.1c0,0,0,0,0,0c0,0,0,0-0.1,0l0,0h-0.1c-0.1,0-0.1,0-0.1,0.1
		c0,0-0.1,0.1-0.1,0.1c0,0,0,0-0.1-0.1c-0.1,0-0.1,0-0.2,0h-0.1l0,0l-0.1,0c-0.1,0-0.1,0-0.2,0c0,0,0,0,0,0c0,0,0,0-0.1,0
		c-0.2-0.1-0.3-0.1-0.5,0h-0.2l-0.1,0c-0.1,0-0.1,0-0.2,0h-0.5c-0.3,0-0.6,0-0.8,0c-0.2,0-0.4,0-0.6,0c-0.1,0-0.3,0-0.4,0
		c-0.1,0-0.2,0-0.2,0.1c0,0-0.1,0-0.1-0.1c-0.4-0.1-0.8-0.1-1.1,0c-0.7,0-1.4,0-2.1,0h-0.2c0,0,0,0-0.1,0h0c-0.2,0-0.4,0-0.5,0.1
		c0,0,0-0.1-0.1-0.1h-0.1c-0.2,0-0.3,0-0.5,0c-0.1,0-0.1,0-0.2,0s-0.2,0-0.3,0l-0.1,0.1l-0.2,0.2c-0.2,0.1-0.3,0.2-0.4,0.4l0,0.1
		l-0.1,0c-0.1,0.1-0.1,0.2-0.2,0.2c-0.2,0.2-0.4,0.4-0.6,0.6l0,0.1l-0.1,0c-0.1,0-0.1,0.1-0.1,0.1c0,0,0,0-0.1,0.1
		c0,0-0.1,0.1-0.1,0.1c-0.1,0-0.1-0.1-0.1-0.2c0,0,0,0,0,0l0,0c-0.3-0.2-0.6-0.6-0.9-0.8l-0.4-0.3L9,28.4l-0.2-0.2h-1l-0.9,0
		c-0.2,0-0.4,0-0.7,0c-0.4-0.1-0.8-0.1-1.2,0c-0.1,0-0.2,0-0.3,0c0,0-0.1,0-0.1,0C4.3,28.1,4,28,3.7,27.8c-0.3-0.2-0.5-0.4-0.6-0.7
		l0-0.1V27c-0.1-0.3-0.2-0.7-0.2-1v-1.2c0-0.8,0-1.5-0.1-2.3c0-0.1,0.1-0.2,0-0.3c0-1.8,0-3.7,0-5.5v-1c0-0.3,0.1-0.6,0.2-0.9
		c0.3-0.6,0.7-1,1.3-1.2c0.2-0.1,0.5,0,0.6-0.2c-0.1,0-0.2,0-0.4,0c-0.3-0.1-0.6,0.2-0.9,0.2c-0.1,0.1-0.3,0.2-0.4,0.3
		c-0.3,0.2-0.5,0.5-0.7,0.9v0c0,0.1,0,0.2-0.1,0.3c0,0.1-0.1,0.2-0.1,0.3c-0.1,1-0.1,2,0,2.9c0,0.3,0,0.7,0,1c0,0.2,0,0.3,0,0.5
		c0,0.7,0,1.5,0,2.2c0,0.3,0,0.7,0,1h0v0c-0.1,0.8,0,1.7-0.1,2.6v0.5c0,0.3,0,0.6,0.1,0.9c0.1,0.3,0.3,0.5,0.4,0.8
		c0.1,0,0.1,0.1,0.2,0.2c0.3,0.2,0.6,0.4,0.9,0.5c0.3,0.1,0.7,0.2,1.1,0.2c0.3,0,0.6,0,1,0c0.1,0,0.3,0,0.4,0h0.2c0.3,0,0.7,0,1,0
		c0.1,0,0.3,0,0.4,0h0.4l0,0.1c0,0,0,0,0,0.1l0.1,0.1L9,29.1l0.5,0.5l1.2,1.2l0.7-0.6c0.1-0.1,0.2-0.2,0.2-0.3
		c0.1-0.1,0.2-0.2,0.3-0.4c0,0,0.1,0,0.1,0c0.1-0.1,0.3-0.3,0.4-0.4l0-0.1c0.1-0.1,0.2-0.2,0.3-0.3c0,0,0.1-0.1,0.1-0.1l0,0l0,0h1.1
		c0.1,0,0.1,0,0.1,0c0.1,0,0.1,0,0.2,0c0,0,0.1,0,0.1,0c0.3,0,0.5,0,0.8,0c0.1,0,0.1,0,0.2,0c0.3,0,0.6,0,0.8,0c0.2,0,0.3,0,0.5,0
		c0,0,0.1,0,0.1,0c0.1,0,0.2,0,0.3,0c0.1,0,0.1,0,0.2,0c0.1,0,0.2,0,0.2-0.1c0,0,0.1,0,0.1,0c0.1,0,0.1,0,0.2,0.1h2.7
		c0.1,0,0.2,0,0.3,0.1c0.1,0,0.3,0,0.4,0c0.1,0,0.2,0,0.3,0c0.1,0,0.1,0,0.2,0c0.2,0,0.4,0,0.6-0.1c0.1-0.1,0.3-0.1,0.4-0.1
		c0.5-0.2,0.9-0.6,1.2-1.1c0.1-0.3,0.2-0.6,0.3-0.9v-0.2c0,0,0,0,0-0.1c0,0,0-0.1,0-0.1c0.1-0.7,0-1.4,0.1-2.1v-0.1
		c0-0.1,0-0.1-0.1-0.2c0,0,0.1,0,0.1-0.1c0-0.2,0-0.5,0-0.7c0,0,0,0.1,0.1,0.1l0,0l0,0c0.4,0.2,0.6,0.7,1,0.9l0.2,0.1l0.2,0.2
		l0.4,0.4l0.6-0.6l0.4-0.4l0.8-0.7l0.2-0.2l0.1-0.1l0.1-0.1h0.7c0.2,0,0.5,0,0.7,0c0.1,0,0.2,0,0.3,0c0.1,0,0.1,0,0.1-0.1
		c0.4,0,0.8,0,1.2,0h0.6c0.2,0,0.5,0,0.7-0.1c0,0,0.1,0,0.1,0H33c0.9-0.3,1.6-1.1,1.7-2.1c0-0.1,0-0.2,0-0.4v-0.3L34.8,18.9z"/>
	<path class="st2" d="M13.7,14.1H13c-0.1,0-0.2,0-0.3-0.1c0,0-0.1,0-0.1-0.1c0,0,0-0.1,0-0.1v-0.7c0-0.1,0-0.1,0.1-0.1c0,0,0,0,0,0
		h0.9c0.1,0,0.1,0,0.1,0c0,0.1,0,0.1,0,0.2c0,0,0,0,0,0.1c0,0,0,0,0,0.1c0,0.1,0,0.3,0,0.4C13.8,13.9,13.7,14,13.7,14.1z M13.8,18
		l-0.3,0h-0.6c-0.1,0-0.1,0-0.1-0.1c0,0,0-0.1,0-0.1v-0.7c0-0.1,0-0.1,0-0.2c0-0.1,0-0.1,0-0.2c0-0.1,0-0.3,0-0.4v-1.5
		c0-0.1,0-0.1,0-0.2c0,0,0-0.1,0-0.1c0,0,0.1,0,0.1,0h0l0.3,0l0.3,0c0,0,0.1,0,0.1,0c0,0,0,0,0.1,0c0,0,0,0,0,0.1c0,0,0,0.1,0,0.1
		c0,0.3,0,0.5,0,0.8s0,0.5,0,0.8c0,0.2,0,0.3,0,0.5s0,0.3,0,0.5c0,0.1,0,0.2,0,0.2c0,0.1,0,0.2,0,0.2c0,0.1,0,0.1,0,0.2L13.8,18z"/>
	<path class="st2" d="M17.5,14.6l-0.8,0l-0.9,0v0.2c0,0.1,0,0.1,0,0.2v1.4c0,0.1,0,0.1,0,0.2c0,0,0,0.1,0,0.1c0,0,0,0.1,0,0.1h-1.1
		c-0.1,0-0.1,0-0.2-0.1c0-0.1-0.1-0.1,0-0.2c0-0.1,0-0.2,0-0.2v-0.5c0-0.1,0-0.2,0-0.2c0-0.2,0-0.4,0-0.6c0-0.2,0-0.4,0-0.6
		c0-0.2,0-0.3,0-0.5v-0.5c0-0.3,0-0.6,0-0.9s0-0.6,0-0.9l0.5,0l0.5,0h0.2c0,0,0.1,0,0.1,0c0,0,0.1,0.1,0.1,0.1c0,0,0,0.1,0,0.2v0.3
		c0,0.1,0,0.2,0,0.3c0,0.2,0,0.4,0,0.5c0,0.2,0,0.4,0,0.6h0.4l0.3,0l0.4,0l0.3,0h0.2V13c0-0.2,0-0.3,0-0.5l0-0.3c0-0.1,0-0.2,0-0.4
		c0-0.1,0-0.2,0.1-0.2c0,0,0.1,0,0.1,0h0.7l0.1,0h0.2c0.1,0,0.1,0.1,0.1,0.1c0,0.1,0,0.1,0,0.2c0,0.2,0,0.4,0,0.6c0,0.2,0,0.4,0,0.6
		c0,0.1,0,0.2,0,0.3c0,0.1,0,0.2,0,0.3c0,0,0,0.1,0,0.1c0,0.1,0,0.1,0,0.1l0,1v1.5c0,0.1,0,0.1,0,0.2c0,0-0.1,0.1-0.2,0
		c-0.1,0-0.1,0-0.2,0h-0.7c-0.1,0-0.1,0-0.2-0.1c0-0.1,0-0.2,0-0.2c0-0.1,0-0.3,0-0.4v-0.4c0-0.1,0-0.3,0-0.4S17.5,14.8,17.5,14.6z"
		/>
	<path class="st2" d="M21.1,16.8h-0.2c-0.1,0-0.3,0-0.4-0.1c-0.1,0-0.2-0.1-0.4-0.2c-0.1-0.1-0.2-0.2-0.3-0.3
		c-0.1-0.1-0.2-0.2-0.3-0.4c-0.1-0.1-0.1-0.3-0.2-0.4c-0.1-0.1-0.1-0.3-0.1-0.4c0-0.1,0-0.2,0-0.3c0-0.1,0-0.2,0-0.3
		c0-0.2,0.1-0.5,0.2-0.7c0.1-0.2,0.3-0.4,0.4-0.6c0.1-0.1,0.2-0.2,0.3-0.2c0.1-0.1,0.2-0.1,0.3-0.1h0.1c0,0,0,0,0.1,0
		c0,0,0.1-0.1,0.2-0.1c0.1,0,0.1,0,0.2-0.1c0.1,0,0.1,0,0.2,0h0.7c0.1,0,0.2,0,0.3,0.1c0.1,0,0.2,0.1,0.3,0.2
		c0.1,0.1,0.1,0.1,0.2,0.2l0.2,0.2c0.1,0.1,0.2,0.2,0.2,0.3c0,0.1,0.1,0.2,0.1,0.3c0,0.1,0.1,0.3,0.1,0.4c0,0.1,0.1,0.3,0.1,0.4
		c0,0.2,0,0.5-0.1,0.7c-0.1,0.2-0.2,0.4-0.3,0.6c0,0,0,0.1-0.1,0.1l-0.1,0.1c-0.1,0.1-0.2,0.2-0.3,0.3c-0.1,0.1-0.2,0.1-0.3,0.2
		c-0.1,0.1-0.2,0.1-0.4,0.1c-0.1,0-0.3,0-0.4,0L21.1,16.8L21.1,16.8z M20.7,14.8c0,0.1,0,0.3,0.1,0.4c0.1,0.1,0.1,0.3,0.2,0.4
		c0,0,0.1,0.1,0.1,0.1c0,0,0.1,0,0.1,0c0,0,0.1,0,0.1,0c0.1,0,0.2-0.1,0.2-0.1c0.1-0.1,0.1-0.1,0.2-0.2c0-0.1,0.1-0.1,0.1-0.2
		c0-0.1,0-0.2,0-0.3v-0.4c0-0.1,0-0.1,0-0.2c0-0.1,0-0.1-0.1-0.2c0-0.1-0.1-0.1-0.1-0.2c0-0.1-0.1-0.1-0.2-0.1c-0.1,0-0.1,0-0.2,0
		c-0.1,0-0.2,0-0.2,0.1c-0.1,0-0.1,0.1-0.2,0.2c-0.1,0.1-0.1,0.3-0.1,0.4C20.6,14.5,20.6,14.7,20.7,14.8L20.7,14.8z"/>
	<path class="st2" d="M23.4,11.3l0.1,0c0,0,0.1,0,0.1,0c0.1,0,0.3,0,0.4,0l0.4,0c0.1,0,0.2,0.1,0.2,0.1c0,0,0,0,0,0
		c0,0.3,0,0.5,0.1,0.8c0,0.3,0,0.5,0,0.8c0,0.3,0,0.6,0,0.8c0,0.3-0.1,0.6-0.1,0.8c0,0.1,0,0.2,0,0.3l0,0.3l0,0.6v0.6
		c0,0,0,0.1,0,0.1v0.1l0,0h0c-0.1,0-0.1,0-0.2,0h-0.5l-0.3,0h0c0,0-0.1,0-0.1,0c0,0,0,0-0.1,0c0,0,0-0.1,0-0.1c0,0,0-0.1,0-0.1
		c0-0.2,0-0.4,0-0.5c0-0.2,0-0.4,0-0.5v-0.7c0-0.2,0-0.5,0-0.7s0-0.4-0.1-0.6c0-0.2,0-0.4,0-0.6c0-0.3,0-0.7,0-1v-0.2
		C23.4,11.4,23.4,11.4,23.4,11.3z"/>
	<path class="st2" d="M28.6,16.7h-0.9c0,0-0.1,0-0.1,0c0,0,0,0,0,0c0,0,0-0.1,0-0.1c0-0.1,0-0.1,0-0.2c-0.1,0.2-0.3,0.3-0.4,0.3
		c-0.2,0.1-0.4,0.1-0.5,0.1c-0.1,0-0.2,0-0.3,0c-0.1,0-0.2,0-0.3-0.1c-0.1,0-0.2-0.1-0.4-0.2c-0.1-0.1-0.2-0.2-0.2-0.3
		c-0.1-0.1-0.1-0.3-0.1-0.4c0-0.2,0-0.4,0-0.6c0-0.2,0.1-0.3,0.2-0.5c0.1-0.1,0.2-0.2,0.4-0.3c0.2-0.1,0.3-0.1,0.5-0.1
		c0.2,0,0.3,0,0.5,0c0.1,0,0.2,0,0.3,0h0.3c0-0.1,0.1-0.2,0.1-0.3c0-0.1,0-0.2-0.1-0.2c0-0.1-0.1-0.1-0.2-0.2
		c-0.1,0-0.1-0.1-0.2-0.1c-0.1,0-0.1,0-0.2,0l-0.1,0c0,0-0.1,0-0.1,0.1c0,0-0.1,0.1-0.1,0.1c0,0,0,0.1,0,0.1c0,0,0,0,0,0
		c0,0,0,0,0,0l-0.4,0c-0.1,0-0.2,0-0.4,0c-0.1,0-0.2,0-0.4,0c0,0,0,0-0.1,0c0-0.1,0-0.1,0-0.2c0-0.1,0-0.1,0.1-0.2
		c0.1-0.2,0.2-0.4,0.3-0.5c0.1-0.2,0.3-0.3,0.5-0.4l0.1,0c0,0,0.1,0,0.1,0c0.2,0,0.3-0.1,0.5-0.1h0.1c0.1,0,0.2,0,0.3,0.1l0.3,0.1
		c0.1,0,0.1,0,0.2,0.1L28,13c0.1,0.1,0.2,0.1,0.2,0.2c0.1,0.1,0.1,0.1,0.2,0.2c0.1,0.1,0.1,0.2,0.1,0.3c0,0.1,0.1,0.2,0.1,0.3
		c0,0.1,0.1,0.3,0.1,0.4c0,0.1,0,0.3,0,0.4c0,0.2,0,0.4-0.1,0.6s-0.1,0.4-0.1,0.6c0,0.1,0,0.1,0,0.2v0.3
		C28.6,16.5,28.6,16.6,28.6,16.7C28.6,16.7,28.6,16.7,28.6,16.7z M27.4,15.1c0,0-0.1,0-0.1,0h-0.2c-0.1,0-0.2,0-0.2,0
		c-0.1,0-0.2,0-0.2,0.1c-0.1,0-0.1,0.1-0.2,0.1c-0.1,0.1-0.1,0.1-0.1,0.2c0,0.1,0,0.2,0,0.2c0,0.1,0,0.1,0.1,0.1
		c0,0,0.1,0.1,0.1,0.1c0.1,0,0.1,0,0.2,0c0.1,0,0.1,0,0.2,0H27c0.1,0,0.2,0,0.3-0.1c0.1-0.1,0.1-0.2,0.1-0.2l0-0.2
		C27.4,15.3,27.4,15.2,27.4,15.1L27.4,15.1z"/>
	<path class="st2" d="M30.3,15.1h-0.8c0,0-0.1,0-0.1,0c0,0,0,0,0-0.1v-0.2c0-0.1,0-0.1,0-0.2c0-0.1,0-0.1,0-0.2v-0.2
		c0-0.1,0-0.1,0-0.2c0-0.1,0-0.1,0-0.2c0-0.1,0-0.1,0-0.2c0-0.1,0-0.1,0-0.2c0-0.2,0-0.5,0-0.7c0-0.2,0-0.5-0.1-0.7
		c0-0.1,0-0.1,0-0.2s0-0.1,0-0.2c0-0.1,0-0.1,0.1-0.1c0,0,0,0,0,0h0.4l0.4,0h0.1c0,0,0,0,0.1,0c0.1,0,0.2,0.1,0.2,0.2
		c0,0.1,0,0.3,0,0.4c0,0.1,0,0.3,0,0.4c0,0.1,0,0.2,0,0.3v0.3c0,0.2,0,0.5-0.1,0.7s0,0.5-0.1,0.7c0,0,0,0.1,0,0.1L30.3,15.1z
		 M29.2,15.6l0.2,0c0,0,0.1,0,0.2,0h0.7c0,0,0.1,0,0.1,0c0,0,0.1,0.1,0.1,0.1c0,0.1,0,0.2,0,0.2c0,0.1,0,0.2,0,0.2
		c0,0.1,0,0.2,0,0.3c0,0.1,0,0.2,0,0.3h-0.7c-0.1,0-0.1,0-0.2,0c0,0-0.1,0-0.1-0.1c-0.1,0-0.1-0.1-0.1-0.2c0-0.1,0-0.3,0-0.4
		L29.2,15.6z"/>
</g>
</svg>
