<?xml version="1.0" encoding="utf-8"?>
<!-- Generator: Adobe Illustrator 25.2.1, SVG Export Plug-In . SVG Version: 6.00 Build 0)  -->
<svg version="1.1" id="Layer_1" xmlns="http://www.w3.org/2000/svg" xmlns:xlink="http://www.w3.org/1999/xlink" x="0px" y="0px"
	 width="118.7px" height="139.9px" viewBox="0 0 118.7 139.9" style="enable-background:new 0 0 118.7 139.9;" xml:space="preserve"
	>
<style type="text/css">
	.st0{fill:#0F2D52;}
</style>
<g>
	<path class="st0" d="M114.7,17.7H83.9V4c0-2.2-1.8-4-4-4h-41c-2.2,0-4,1.8-4,4v13.7H4c-2.2,0-4,1.8-4,4v25c0,2.2,1.8,4,4,4h7.3
		l3.3,85.4c0.1,2.1,1.8,3.8,4,3.8h81.5c2.1,0,3.9-1.7,4-3.8l3.3-85.4h7.3c2.2,0,4-1.8,4-4v-25C118.7,19.5,116.9,17.7,114.7,17.7z
		 M42.9,8h33v9.7h-33V8z M96.2,131.9H22.5l-3.1-81.2h80L96.2,131.9z M110.7,42.7h-7.2H15.2H8v-17h30.9h41h30.8V42.7z"/>
	<path class="st0" d="M39.6,117.6c0.1,0,0.2,0,0.2,0c2.2-0.1,3.9-2,3.8-4.2L41,70.6c-0.1-2.2-2-3.9-4.2-3.8c-2.2,0.1-3.9,2-3.8,4.2
		l2.6,42.8C35.7,116,37.5,117.6,39.6,117.6z"/>
	<path class="st0" d="M79.4,117.6c0.1,0,0.2,0,0.3,0c2.1,0,3.9-1.6,4-3.7l2.7-42.8c0.1-2.2-1.5-4.1-3.7-4.2
		c-2.2-0.1-4.1,1.5-4.2,3.7l-2.7,42.8C75.6,115.6,77.2,117.5,79.4,117.6z"/>
	<path class="st0" d="M59.4,123.9c2.2,0,4-1.8,4-4V64.5c0-2.2-1.8-4-4-4c-2.2,0-4,1.8-4,4v55.4C55.4,122.1,57.2,123.9,59.4,123.9z"
		/>
</g>
</svg>
