<?xml version="1.0" encoding="utf-8"?>
<!-- Generator: Adobe Illustrator 25.2.1, SVG Export Plug-In . SVG Version: 6.00 Build 0)  -->
<svg version="1.1" id="Layer_1" xmlns="http://www.w3.org/2000/svg" xmlns:xlink="http://www.w3.org/1999/xlink" x="0px" y="0px"
	 width="148.1px" height="151.3px" viewBox="0 0 148.1 151.3" style="enable-background:new 0 0 148.1 151.3;" xml:space="preserve"
	>
<style type="text/css">
	.st0{fill:#F7942D;}
	.st1{fill:#007EC4;}
	.st2{fill:#69C8C7;}
	.st3{fill:#162B54;}
</style>
<path class="st0" d="M130.1,71.2c-0.5,0-0.9-0.1-1.4-0.2l-14.9-5.4c-1-0.4-1.8-1.1-2.3-2.1c-0.4-1-0.5-2.1-0.1-3.1l2.5-6.8
	c0.6-1.6,2.1-2.6,3.8-2.6c0.5,0,0.9,0.1,1.4,0.2l14.9,5.4c1,0.4,1.8,1.1,2.3,2.1c0.4,1,0.5,2.1,0.1,3.1l-2.5,6.8
	C133.2,70.1,131.7,71.2,130.1,71.2z"/>
<path class="st1" d="M131.3,76.2c-1.4,0-2.8-0.2-4.1-0.7c-1-0.4-1.8-1.1-2.3-2.1c-0.4-1-0.5-2.1-0.2-3.1l6.2-17.2
	c0.4-1,1.1-1.8,2.1-2.3c0.5-0.2,1.1-0.4,1.7-0.4c0.5,0,0.9,0.1,1.4,0.2c3,1.1,5.4,3.3,6.8,6.2s1.5,6.2,0.4,9.2l-0.8,2.2
	C140.8,73,136.3,76.2,131.3,76.2z"/>
<rect x="-0.3" y="14.5" transform="matrix(0.3405 -0.9403 0.9403 0.3405 -9.6089 28.6945)" class="st2" width="31.8" height="13.3"/>
<polygon class="st1" points="51.1,22.8 43.1,14.3 43.1,14.2 27.2,8.5 16.4,38.4 32.3,44.1 32.3,44.1 43.9,42.7 "/>
<rect x="70.9" y="8.9" transform="matrix(0.3405 -0.9403 0.9403 0.3405 11.3631 106.4111)" class="st2" width="21.2" height="72.5"/>
<polygon class="st1" points="79.8,69 67.9,69 67.8,51.4 79.8,55.7 "/>
<path class="st0" d="M108.6,42.8c-0.5,0-0.9-0.1-1.4-0.2L97,38.9c-2.1-0.8-3.2-3-2.4-5.1l3.5-9.7c0.4-1,1.1-1.8,2.1-2.3
	c0.5-0.3,1.1-0.4,1.7-0.4c0.5,0,0.9,0.1,1.4,0.2l10.3,3.7c2.1,0.8,3.2,3,2.4,5.1l-3.5,9.7c-0.4,1-1.1,1.8-2.1,2.3
	C109.8,42.7,109.2,42.8,108.6,42.8z"/>
<path class="st1" d="M121.7,34c-0.8,0-1.6-0.1-2.4-0.4L95.5,25c-3.7-1.3-5.6-5.4-4.3-9.1l1-2.8c1-2.8,3.7-4.7,6.7-4.7
	c0.8,0,1.6,0.1,2.4,0.4l23.8,8.6c1.8,0.6,3.2,1.9,4,3.7s0.9,3.6,0.2,5.4l-1,2.8C127.3,32.1,124.6,34,121.7,34z"/>
<circle class="st1" cx="74" cy="70.7" r="9.1"/>
<path class="st0" d="M74,142c-3.3,0-5.9-2.5-5.9-5.7V88.9c0-3.1,2.7-5.7,5.9-5.7c3.3,0,5.9,2.5,5.9,5.7v47.5
	C79.9,139.4,77.3,142,74,142z"/>
<path class="st0" d="M114.3,148.3c-2.3,0-4.3-1.2-5.3-3.1L79.4,89.5c-0.8-1.4-0.8-3.1-0.2-4.6c0.6-1.6,2-2.7,3.6-3.3
	c0.6-0.2,1.3-0.3,1.9-0.3c2.2,0,4.3,1.2,5.3,3.1l29.6,55.8c0.8,1.4,0.8,3.1,0.2,4.6c-0.6,1.6-2,2.7-3.6,3.3
	C115.6,148.2,114.9,148.3,114.3,148.3z"/>
<path class="st0" d="M33.9,148.2c-0.6,0-1.3-0.1-1.9-0.3c-1.7-0.5-3-1.7-3.6-3.3c-0.6-1.5-0.5-3.1,0.2-4.6l29.3-55.5
	c1-1.9,3-3.1,5.3-3.1c0.6,0,1.3,0.1,1.9,0.3c1.7,0.5,3,1.7,3.6,3.3c0.6,1.5,0.5,3.1-0.2,4.6l-29.3,55.5
	C38.2,147,36.1,148.2,33.9,148.2z"/>
<path class="st1" d="M86.6,89.7H61.9c-2.2,0-4-1.8-4-4v-4.1c0-2.2,1.8-4,4-4h24.6c2.2,0,4,1.8,4,4v4.1
	C90.6,87.8,88.8,89.7,86.6,89.7z"/>
<path class="st3" d="M146.6,55.2c-1.8-3.9-5-6.8-9.1-8.3c-0.9-0.3-1.8-0.5-2.7-0.5c-2.8,0-5.4,1.4-6.8,3.9l-4.9-1.8
	c0.2-0.9,0.2-1.9-0.2-2.7c-0.5-1-1.3-1.7-2.3-2.1l-4.7-1.7c0.1-0.2,0.2-0.3,0.2-0.5l1.5-4.3l0.3,0.1c1.2,0.4,2.5,0.7,3.8,0.7
	c4.7,0,8.9-2.9,10.4-7.3l1-2.8c2.1-5.8-0.9-12.1-6.7-14.2l-23.8-8.6c-1.2-0.5-2.5-0.7-3.8-0.7c-4.7,0-8.9,2.9-10.4,7.3l-1,2.8
	c-1,2.8-0.9,5.8,0.4,8.5c1,2.1,2.6,3.8,4.6,4.9l-1.6,4.5c-0.1,0.2-0.1,0.3-0.1,0.5L53.4,19.4L46.5,12c-0.5-0.7-1.2-1.3-2-1.6
	L28.9,4.9c-0.1,0-0.2-0.1-0.3-0.1L16.2,0.2c-2.1-0.8-4.4,0.3-5.1,2.4L0.2,32.5c-0.8,2.1,0.3,4.4,2.4,5.1l12.3,4.4
	c0.1,0,0.1,0.1,0.2,0.1l15.9,5.7c0.4,0.2,0.9,0.2,1.4,0.2c0.2,0,0.3,0,0.5,0l10.5-1.3l20.5,7.4l0,8.2c-1.8,2.3-3,5.1-3,8.3
	c0,1,0.1,2,0.3,2.9c-4.1,0.3-7.3,3.8-7.3,8v4.1c0,0.1,0,0.2,0,0.2L26,138.8c-1.2,2.2-1.3,4.8-0.3,7.1c1,2.4,3,4.2,5.5,5
	c0.9,0.3,1.8,0.4,2.8,0.4c3.4,0,6.4-1.8,7.9-4.7l23.2-43.9v33.7c0,4.8,4,8.7,8.9,8.7s8.9-3.9,8.9-8.7v-34l23.5,44.3
	c1.5,2.9,4.6,4.7,7.9,4.7c1,0,1.9-0.1,2.8-0.4c2.5-0.8,4.5-2.6,5.5-5c0.9-2.3,0.8-4.9-0.4-7.1L94.5,86.5c0-0.3,0-0.6,0-0.9v-4
	c0-4.3-3.4-7.8-7.7-8c0.2-0.9,0.3-1.9,0.3-2.9c0-3.3-1.3-6.4-3.3-8.7v-0.6l26.8,9.7c0.5,0.2,0.9,0.2,1.4,0.2c1.1,0,2.1-0.4,2.9-1.2
	l5.7,2.1c0.1,1,0.3,1.9,0.7,2.8c0.9,1.9,2.5,3.4,4.5,4.1c1.8,0.6,3.6,1,5.5,1c6.7,0,12.8-4.2,15.1-10.6l0.8-2.2
	C148.7,63.4,148.5,59,146.6,55.2z M14,33.3l-4.9-1.8l8.1-22.4l4.9,1.8L14,33.3z M40.9,39l-8.2,1l-11.1-4l8.1-22.4l11,3.9l5.8,6.1
	L40.9,39z M79.1,70.7c0,1.1-0.3,2.1-0.9,2.9h-8.4c-0.6-0.8-0.9-1.8-0.9-2.9c0-2.8,2.3-5.1,5.1-5.1C76.8,65.6,79.1,67.9,79.1,70.7z
	 M36.6,143.8c-0.5,0.9-1.5,1.5-2.6,1.5c-0.3,0-0.7-0.1-1-0.1c-0.8-0.3-1.5-0.8-1.8-1.5s-0.2-1.4,0.1-2l26-49.5
	c1.3,0.9,2.9,1.5,4.6,1.5H63L36.6,143.8z M76.9,136.4c0,1.5-1.3,2.7-2.9,2.7s-2.9-1.2-2.9-2.7V93.7h5.8V136.4z M90.8,92.5l26.1,49.2
	c0.3,0.6,0.4,1.4,0.1,2c-0.3,0.7-0.9,1.3-1.7,1.5c-0.3,0.1-0.7,0.2-1,0.2c-1.1,0-2.2-0.6-2.6-1.5L85.1,93.7h1.5
	C88.1,93.7,89.5,93.3,90.8,92.5z M86.5,85.7H61.9v-4.1h24.6V85.7z M109.6,62.3L81.7,52.2c-0.2-0.1-0.4-0.2-0.6-0.3l-12-4.3
	c0,0-0.1,0-0.1,0L49,40.3l4.5-12.4l60.6,21.9L109.6,62.3z M98.3,35.1l1.6-4.3l10.3,3.7l-1.6,4.3L98.3,35.1z M96.8,21.2
	c-1.6-0.6-2.4-2.4-1.9-4l1-2.8c0.5-1.2,1.7-2,2.9-2c0.4,0,0.7,0.1,1.1,0.2l23.8,8.6c1.6,0.6,2.4,2.4,1.9,4l-1,2.8
	c-0.5,1.3-1.6,2-2.9,2c-0.4,0-0.7-0.1-1.1-0.2L96.8,21.2z M122.6,64.5l-4.7-1.7l2.5-6.8l4.7,1.7L122.6,64.5z M139.5,64.7l-0.8,2.2
	c-1.2,3.3-4.3,5.3-7.5,5.3c-0.9,0-1.8-0.2-2.7-0.5l6.2-17.3C138.9,55.9,141,60.5,139.5,64.7z"/>
</svg>
