<?xml version="1.0" encoding="utf-8"?>
<!-- Generator: Adobe Illustrator 25.2.1, SVG Export Plug-In . SVG Version: 6.00 Build 0)  -->
<svg version="1.1" id="Capa_1" xmlns="http://www.w3.org/2000/svg" xmlns:xlink="http://www.w3.org/1999/xlink" x="0px" y="0px"
	 width="22.1px" height="33px" viewBox="0 0 22.1 33" style="enable-background:new 0 0 22.1 33;" xml:space="preserve">
<style type="text/css">
	.st0{fill:#EA2C38;}
	.st1{fill:none;}
	.st2{fill:#182C54;}
	.st3{fill:#A7D0EC;}
	.st4{fill:#0F2D52;}
	.st5{fill:#F7942D;}
	.st6{fill:#C09480;}
	.st7{fill:#FFFFFF;}
	.st8{fill:#CEA28B;}
	.st9{fill:#4A3222;}
</style>
<g transform="translate(-6.81 -0.703)">
	<path class="st0" d="M28.8,11.8c0-6-4.8-10.9-10.9-10.9C11.9,0.8,7,5.7,7,11.7c0,5.2,3.7,9.7,8.8,10.7v0L15.1,30
		c-0.2,1.5,0.8,3,2.3,3.2c1.5,0.2,3-0.8,3.2-2.3c0-0.3,0-0.6,0-0.8L20,22.4v0C25.1,21.4,28.7,16.9,28.8,11.8z M17.8,31.2
		c-0.5,0-0.9-0.4-0.9-0.9c0-0.5,0.4-0.9,0.9-0.9c0.5,0,0.9,0.4,0.9,0.9c0,0.2-0.1,0.4-0.3,0.6C18.3,31.1,18,31.2,17.8,31.2z"/>
	<path class="st1" d="M28.8,11.8c0-6-4.8-10.9-10.9-10.9C11.9,0.8,7,5.7,7,11.7c0,5.2,3.7,9.7,8.8,10.7v0L15.1,30
		c-0.2,1.5,0.8,3,2.3,3.2c1.5,0.2,3-0.8,3.2-2.3c0-0.3,0-0.6,0-0.8L20,22.4v0C25.1,21.4,28.7,16.9,28.8,11.8z M17.8,31.2
		c-0.5,0-0.9-0.4-0.9-0.9c0-0.5,0.4-0.9,0.9-0.9c0.5,0,0.9,0.4,0.9,0.9c0,0.2-0.1,0.4-0.3,0.6C18.3,31.1,18,31.2,17.8,31.2z"/>
	<path class="st2" d="M18.1,30.4"/>
	<path class="st2" d="M17.8,31.2L17.8,31.2C17.8,31.2,17.8,31.1,17.8,31.2C17.8,31.1,17.8,31.1,17.8,31.2c0-0.2,0.1-0.1,0.1-0.2
		c0,0,0,0,0,0c0-0.1,0-0.1,0-0.1v0c0-0.1,0,0,0-0.1l0,0c0,0,0,0.1,0,0l0,0c0,0,0,0,0,0c0,0,0.1,0,0,0c0,0,0,0,0,0c0,0,0,0,0,0l0,0
		c0,0,0-0.1,0,0s0,0,0,0s0,0,0,0h0v0c0,0,0,0,0,0h0c0,0,0,0-0.1,0s-0.1,0,0,0l0,0c0.1,0,0,0,0.1-0.1c0,0,0,0,0,0
		c0.1-0.1-0.1-0.1,0-0.1h0c0.1,0,0,0,0-0.1h0c0.1-0.1,0,0,0-0.1l0,0c0.1-0.1,0,0,0-0.1c0-0.1,0-0.1-0.1-0.1l0,0c0,0,0,0,0,0l0,0
		c0,0,0,0,0,0s0,0,0,0s0,0,0,0s0,0,0-0.1c0-0.1,0,0,0-0.1l0,0c0,0,0-0.1,0-0.1c-0.1,0.1-0.1,0.1-0.1,0s0,0,0,0c0-0.1-0.1-0.1-0.1,0
		c0,0-0.1,0-0.1,0c0,0,0,0,0,0c0,0,0,0,0,0c0,0-0.1,0-0.1,0.1c0,0-0.1,0-0.1,0c0,0.1-0.1,0.1-0.1,0.1c-0.1,0,0,0,0,0c0,0,0,0,0,0
		c0,0,0,0.1-0.1,0.1s0,0-0.1-0.1l0,0l0,0c0,0,0,0,0,0h0c0,0,0,0,0,0c0,0,0,0,0,0h0c0,0,0,0,0,0c-0.1,0.1-0.2,0.2-0.3,0.3h0
		c-0.1,0.1,0,0.1,0,0.2l0,0c0.2,0,0.1,0.1,0.1,0.1v0c0,0,0,0,0,0c0,0,0,0,0,0c0,0,0,0,0,0l0,0c0.1,0,0.1,0,0,0s0,0,0,0s0,0,0,0h0
		c-0.1,0.1,0,0-0.1,0.1c0,0,0,0,0,0c0.1,0,0.1,0,0,0l0,0c0.1,0,0.1,0,0.1,0c0,0,0,0,0,0.1l0.1-0.1h0l0.1,0l0,0l0,0.1l0,0l0,0l0,0
		c0,0,0,0,0.1-0.1c0,0,0,0,0,0s0,0,0,0v0l0,0l0,0.1c0,0,0,0,0,0l0.1,0l0,0.1l0,0l0,0c0,0,0,0,0,0s0,0,0,0c0,0.1,0.1,0,0.1,0.1
		c0,0,0,0,0,0.1h0.1v0l0,0c0,0,0,0,0,0v0l0,0c0,0.1,0,0.1,0,0.2c0,0.1-0.1,0-0.1,0.1h-0.1c0,0,0,0,0,0c-0.1,0-0.2,0-0.3-0.1
		c0,0,0,0,0-0.1c0,0,0,0-0.1,0c0,0,0,0,0,0s0,0,0-0.1h0l-0.1,0c0,0,0,0-0.1,0.1l0,0c0,0,0,0,0-0.1l0,0l0,0l0,0l0-0.1l0,0
		c0,0,0,0,0,0h0c0,0-0.1,0-0.1-0.1l0,0l0,0c-0.1,0-0.1-0.1-0.1-0.1v-0.1c0,0,0,0,0,0c0,0,0,0,0,0c0,0,0,0-0.1,0c0,0-0.1,0,0-0.1
		h-0.1c0-0.1-0.2-0.2-0.1-0.4c0-0.1,0-0.1,0-0.2c0.1-0.2,0-0.3,0-0.5c0,0,0-0.1,0.1-0.1l0,0c0.1,0,0-0.1,0.1-0.1h0
		c0-0.1,0-0.1,0.1-0.1c0,0,0.1-0.1,0.1-0.1c0.1,0,0-0.1,0.1,0c0,0,0,0,0,0c0,0,0-0.1,0.1-0.1c0.1,0,0.2-0.1,0.3-0.2
		c0-0.1,0-0.1,0.1,0c0,0,0.1,0,0.1,0c0,0,0,0,0,0c0,0,0,0,0-0.1l0,0c0,0.1,0.1,0,0.1,0s0.1,0,0.1,0c0,0,0,0,0,0l0,0l0,0h0.1v0l0,0
		c0,0,0,0,0,0c0.1-0.1,0.3-0.1,0.4,0h0c0,0,0.1,0,0.1,0c0,0,0,0,0,0l0.1,0c0,0.1,0,0.1,0.1,0l0,0c0,0,0,0,0,0s0,0,0,0
		c0,0.1,0.1,0.1,0.1,0.2c0,0,0,0.1,0,0.1c0,0.1,0.1,0.1,0,0.2c0,0,0,0,0,0c0,0.1,0,0,0,0.1s0,0,0,0c-0.1,0.1,0,0,0,0.1s0,0,0,0.1
		c0,0.1,0,0.2,0.1,0.2c0,0,0,0,0,0c-0.1,0.1,0.1,0.2-0.1,0.2v0c-0.1,0,0,0-0.1,0h0c0.1,0.1,0,0.1,0,0.2c0,0,0,0.1-0.1,0.1h0l0,0l0,0
		c0,0.1,0,0.1-0.1,0.1l0,0l0,0V31c0,0,0,0.1-0.1,0.1l0,0c0,0.1,0,0.1-0.1,0l0,0c0,0,0,0,0,0s0,0,0,0h0c0,0,0,0,0,0c0,0,0,0,0,0.1
		l0,0c0,0,0,0,0,0l0,0C18,31.2,17.9,31.3,17.8,31.2C17.9,31.3,17.8,31.4,17.8,31.2z M18.3,30.9L18.3,30.9L18.3,30.9L18.3,30.9
		L18.3,30.9z M18.3,30.8L18.3,30.8C18.3,30.8,18.3,30.8,18.3,30.8L18.3,30.8z"/>
	<path class="st2" d="M17.8,31.5L17.8,31.5L17.8,31.5L17.8,31.5z"/>
	<path class="st2" d="M20.8,26.4L20.8,26.4L20.8,26.4L20.8,26.4z"/>
	<path class="st2" d="M28.4,11.6L28.4,11.6L28.4,11.6L28.4,11.6z"/>
	<circle class="st3" cx="17.9" cy="11.7" r="8.2"/>
	<path class="st4" d="M19.6,4.2L19.6,4.2z"/>
	<path class="st4" d="M26.1,11.7L26.1,11.7c0-0.1-0.1-0.1-0.1-0.2c0-0.1,0-0.2,0-0.2c-0.1-0.1-0.1-0.3-0.1-0.4c0-0.1,0-0.3-0.1-0.4
		c0-0.1,0-0.2-0.1-0.2c-0.2-0.2-0.3-0.5-0.3-0.8c0,0,0-0.1-0.1-0.1c-0.2-0.3-0.2-0.7-0.5-0.9l0,0c0-0.2-0.1-0.3-0.2-0.4l0-0.1l0,0
		c-0.1,0-0.1-0.1-0.1-0.1c0,0,0,0,0,0c0-0.1,0-0.1-0.1-0.2c-0.1-0.2-0.1-0.3-0.2-0.4c-0.1-0.1-0.2-0.2-0.3-0.3
		c-0.1-0.2-0.2-0.3-0.4-0.4c-0.1-0.2-0.2-0.3-0.4-0.4c0,0,0-0.1,0-0.1c-0.2-0.1-0.4-0.3-0.6-0.5c-0.1-0.1-0.2-0.1-0.3-0.2l-0.3-0.2
		C21.8,5,21.7,5,21.6,4.9V4.9l-0.1,0c-0.1-0.1-0.2-0.1-0.3-0.1c-0.2-0.1-0.5-0.2-0.7-0.3c-0.1,0-0.1-0.1-0.2-0.1
		c-0.1,0-0.1,0-0.2-0.1H20c-0.1,0-0.2,0-0.3,0c-0.2,0-0.5,0-0.7-0.1l-0.2,0C18.3,4.1,17.8,4,17.4,4c-0.1,0-0.3,0-0.4,0
		c-0.2,0-0.4,0-0.6,0c-0.2,0-0.4,0.1-0.6,0.2l-0.3,0.1l-0.3,0.1c-0.2,0.1-0.4,0.1-0.6,0.2h0l0,0c-0.2,0-0.5,0.2-0.7,0.3h0l0,0
		c-0.2,0-0.4,0.2-0.6,0.2l0,0c-0.2,0-0.3,0.3-0.5,0.3c-0.2,0.1-0.4,0.3-0.6,0.5c-0.2,0.2-0.3,0.4-0.5,0.6l0,0
		c-0.1,0.1-0.1,0.1-0.1,0.2l0,0c0,0.1,0,0.1-0.1,0.1c-0.1,0.1-0.2,0.2-0.2,0.3c0,0.1-0.1,0.2-0.2,0.2C11,7.4,11,7.7,10.8,7.7
		c-0.1,0.1-0.1,0.3-0.3,0.3l0,0c-0.1,0.1-0.1,0.1-0.2,0.1c-0.1,0.3-0.2,0.6-0.3,0.9C10,9.2,9.9,9.2,10,9.3C9.9,9.5,9.8,9.6,9.8,9.8
		c0,0.1,0,0.2,0,0.2c0,0.1,0,0.2,0,0.2c-0.1,0.3-0.1,0.6-0.1,0.9c0,0,0,0.1,0,0.1c0,0.4,0,0.9,0.1,1.3c0,0.3,0.1,0.5,0.1,0.8
		c0.1,0.2,0.2,0.5,0.3,0.8c0.1,0.3,0.2,0.5,0.3,0.8c0.1,0.1,0.1,0.3,0.2,0.4c0,0.1,0.1,0.1,0.1,0.2c0.1,0.2,0.2,0.4,0.3,0.5
		c0.1,0.2,0.2,0.3,0.3,0.5c0.1,0.1,0.1,0.2,0.1,0.3h0.1c0.1,0.1,0.2,0.2,0.2,0.3c0,0.1,0.1,0.1,0.1,0.2c0.1,0.1,0.2,0.2,0.2,0.3
		l0.2,0.2c0,0,0.1,0.1,0.1,0.1c0.1,0.1,0.2,0.2,0.3,0.2c1,0.8,2.1,1.3,3.3,1.7l0,0h0.1c0.3,0.1,0.6,0.1,0.9,0.2c0.3,0,0.6,0,0.9,0
		l0,0c0.2-0.1,0.5-0.1,0.7-0.1c0.2,0,0.5,0,0.7,0c0.1,0,0.2,0,0.3,0c0.1,0,0.2,0,0.2-0.1c0.1,0,0.1,0,0.2-0.1c0.1,0,0.1,0,0.2-0.1
		l0,0c0.1-0.1,0.2-0.1,0.3-0.1c0.1,0,0.2,0,0.3-0.1c0-0.1,0.1-0.1,0.1-0.1c0,0,0,0,0,0h0l0,0c0.2,0,0.4-0.2,0.6-0.2
		c0.2,0,0.3-0.2,0.4-0.2c0.1-0.2,0.3-0.2,0.4-0.3c0,0,0.1,0,0.1-0.1c0.1-0.3,0.5-0.4,0.7-0.6h0.1c0,0,0,0,0,0v0l0,0v-0.1l0,0l0,0
		h0.1c0.1-0.1,0.2-0.2,0.3-0.3l0,0c0,0,0,0,0-0.1c0.1-0.1,0.2-0.2,0.3-0.3c0-0.1,0.1-0.2,0.2-0.2l0,0l0-0.1l0.1,0
		c0.1-0.1,0.1-0.2,0.2-0.3l0.4-0.6c0,0,0.1,0,0.1,0l0-0.1l0-0.1l0-0.1c0,0,0-0.1,0-0.1c0-0.1,0.1-0.2,0.2-0.3
		c0.1-0.1,0.1-0.2,0.1-0.3c0.1-0.2,0.2-0.3,0.2-0.5c0-0.2,0.1-0.4,0.1-0.6c0.1-0.2,0.1-0.3,0.1-0.5l0-0.4c0-0.1,0-0.2,0-0.3
		c0,0,0-0.1,0-0.1l0,0c0-0.1,0-0.3,0-0.4l0,0v0c0.1-0.2,0.1-0.1,0.2,0c0.1,0.2,0,0.5,0.1,0.7c0,0.1,0,0.3,0,0.4c0,0,0,0.1,0,0.1
		c-0.1,0.7-0.3,1.4-0.6,2c0,0,0,0-0.1,0c0,0.1-0.1,0.2-0.1,0.3c-0.1,0.1-0.1,0.1-0.1,0.2c0,0-0.1,0.1-0.1,0.1c0,0,0,0.1,0,0.1
		c0,0,0,0.1-0.1,0.1l-0.3,0.6c0,0.1,0,0.1,0,0.2l0,0c-0.1,0.1-0.2,0.1-0.2,0.2l0,0V17l0,0c0,0-0.1,0-0.1,0l0,0c0,0,0,0.1-0.1,0.1
		c0,0-0.1,0.1-0.1,0.1c-0.1,0.2-0.2,0.3-0.4,0.5l0,0c0,0,0,0,0,0.1c-0.2,0.2-0.4,0.4-0.6,0.6c-0.1,0.1-0.2,0.1-0.3,0.1
		c-0.1,0.1-0.2,0.2-0.3,0.2c0,0-0.1,0.1-0.1,0.2c-0.1,0.1-0.3,0.2-0.4,0.2c-0.1,0.1-0.1,0.1-0.2,0.2c-0.7,0.4-1.5,0.7-2.3,0.9
		c-0.2,0-0.4,0-0.6,0.1c-0.2,0-0.4,0.1-0.6,0.1c-1,0.1-2,0-3-0.3c-0.1,0-0.3-0.1-0.4-0.1c-0.1,0-0.3-0.1-0.4-0.2l-0.2-0.1
		c-0.2-0.1-0.4-0.2-0.7-0.3l-0.1-0.1c-0.3-0.1-0.5-0.2-0.7-0.4c-0.2-0.2-0.5-0.3-0.7-0.5c-0.1-0.2-0.4-0.3-0.5-0.6c0,0-0.1,0-0.1,0
		c-0.2-0.2-0.4-0.4-0.6-0.6c-0.5-0.6-0.9-1.3-1.3-2c-0.1-0.1-0.2-0.3-0.2-0.4c0-0.2-0.2-0.5-0.2-0.7c0,0,0-0.1,0-0.1
		c0-0.1-0.1-0.2-0.1-0.3v0c0-0.2-0.1-0.4-0.1-0.7c0-0.2,0-0.3-0.1-0.5c0-0.1,0-0.1,0-0.2v0l0-0.2c0-0.2,0-0.4,0-0.6l0-0.1v-0.1
		c0-0.1,0-0.2,0.1-0.4c0-1,0.2-1.9,0.6-2.8L10,8.2c0-0.2,0.1-0.4,0.3-0.6c0-0.1,0-0.1,0-0.2l0.2-0.3c0.1-0.1,0.2-0.3,0.3-0.4
		l0.1-0.2C11,6.4,11,6.3,11,6.3c0.1,0,0.1-0.1,0.1-0.1c0.2-0.1,0.4-0.3,0.5-0.5c0.2-0.2,0.3-0.3,0.5-0.5c0.1-0.1,0.2-0.1,0.3-0.2
		c0.3-0.1,0.5-0.4,0.8-0.5c0,0,0.1,0,0.1-0.1c0.2,0,0.3-0.2,0.4-0.2c0,0,0.1,0,0.1,0c0.2,0,0.4-0.2,0.6-0.2c0.1,0,0.3,0,0.4-0.1
		c0.2,0,0.3-0.1,0.5-0.1s0.3-0.1,0.5-0.1l0.3-0.1l0.2-0.1c0.2,0,0.3-0.1,0.5-0.1c0.1,0,0.1,0,0.2,0c0.3,0,0.6,0,0.9,0
		c0.3,0,0.6,0,0.9,0.1l0.3,0.1c0.1,0.1,0.3,0.1,0.5,0.1l0.1,0c0.2,0,0.4,0.1,0.7,0.1C20.6,3.8,20.8,3.9,21,4
		c0.2,0.1,0.3,0.1,0.5,0.2c0.2,0.1,0.3,0.2,0.5,0.3l0,0.1h0c0.2,0.1,0.3,0.2,0.5,0.3c0.2,0.1,0.3,0.2,0.4,0.4l0.1,0.1
		c0.1,0.1,0.2,0.2,0.3,0.3c0.1,0.1,0.2,0.2,0.3,0.2l0.5,0.5c0.2,0.2,0.3,0.4,0.4,0.6l0.1,0.1c0.1,0.1,0.2,0.3,0.3,0.5l0.1,0.1
		c0,0,0.1,0.1,0.1,0.1c0,0.1,0.1,0.3,0.2,0.4c0,0,0.1,0.1,0.1,0.1c0.1,0.1,0.1,0.3,0.2,0.4c0,0,0,0.1,0,0.1c0,0.1,0.1,0.2,0.1,0.2
		c0,0,0,0.1,0,0.1c0,0.1,0,0.1,0.1,0.2c0,0,0,0.1,0,0.1c0,0.3,0.1,0.6,0.2,0.9c0.1,0.3,0.1,0.6,0.1,0.9
		C26.2,11.4,26.3,11.7,26.1,11.7z M26.2,12.4L26.2,12.4C26.2,12.4,26.2,12.4,26.2,12.4L26.2,12.4L26.2,12.4z M23.6,6.2
		C23.6,6.2,23.6,6.2,23.6,6.2L23.6,6.2L23.6,6.2z M23.6,6L23.6,6L23.6,6L23.6,6C23.6,6.1,23.6,6.1,23.6,6L23.6,6z M23.6,6.2
		L23.6,6.2L23.6,6.2C23.6,6.1,23.6,6.2,23.6,6.2L23.6,6.2z"/>
	<path class="st4" d="M26.4,11.8L26.4,11.8L26.4,11.8L26.4,11.8z"/>
	<path class="st5" d="M12.5,18.2c0.1-0.4,0.2-0.7,0.4-1c0.7-1,2.2-1.1,3-1.5c0.8-0.4,0.5-2.4,0.5-2.4h3.2c0,0-0.4,2,0.5,2.4
		c0.8,0.4,2.2,0.5,3,1.5c0.2,0.3,0.3,0.5,0.4,0.8"/>
	<path class="st6" d="M16,15.7c0.3,0.8,1.1,1.4,2,1.3c0.9,0.1,1.7-0.5,2.1-1.3c-0.8-0.4-0.4-2.3-0.4-2.3h-3.2
		C16.4,13.4,16.8,15.3,16,15.7z"/>
	<path class="st7" d="M24.9,13.5L24.9,13.5c0.2,0.1,0.1,0.1,0.1,0.1c-0.1,0.1-0.1,0.3-0.2,0.4c-0.1,0.2-0.2,0.4-0.3,0.6h-0.1
		c0,0.2-0.1,0.4-0.3,0.5h0c-0.1,0-0.1,0.2-0.2,0.2c0,0,0,0,0,0.1c0,0,0,0,0,0c0,0.1,0,0.1-0.1,0.1c-0.1,0-0.1,0,0,0.1
		c-0.1,0.1-0.2,0.1-0.2,0.3l0,0c0.1,0.1-0.1,0.1,0,0.2l0,0c-0.1,0,0,0.1-0.2,0.1l0,0l0,0c-0.1,0-0.1,0-0.1,0.1l0,0c0,0,0,0,0,0l0,0
		v0c0,0.1,0,0.1,0,0l0,0c0,0.1,0,0.1-0.1,0.1h0c0,0,0,0-0.1,0l0,0c0.1,0.1,0,0.1,0,0.1l0,0c0,0-0.1,0-0.1,0l0,0
		c-0.1,0.1-0.1,0.1-0.1,0.2l0,0c0,0.1,0,0.1-0.1,0.1l-0.1,0l0,0c0,0,0,0,0,0.1c0,0-0.1,0,0,0h-0.1c-0.1,0-0.1,0-0.1,0l0,0l0,0
		c0,0,0,0,0,0h0v0l0,0c0,0.1,0,0.1,0,0c0,0,0,0,0,0l0,0v0l0,0l0,0h-0.1l0,0c0,0,0,0,0,0.1l0,0c0,0,0,0,0,0h0c0,0,0,0,0,0l0,0
		c0,0,0,0,0,0c0,0-0.1,0,0,0c0,0,0,0,0,0c0,0-0.1,0,0,0c0,0,0,0,0,0l0,0c0,0,0,0,0,0c0,0,0,0,0,0.1s0,0,0,0s0,0,0,0s0,0.1,0,0.1v0
		c0,0,0,0,0,0c0,0,0,0,0,0l0,0v0c0,0,0,0,0,0l0,0c0,0.1,0,0.1-0.1,0.1s-0.1,0-0.1,0c0,0,0,0,0,0l0,0L22,17.4l0,0l0,0l0,0l0,0
		c0,0-0.1,0.1-0.1,0.1l0,0c0,0.1-0.1,0.1-0.1,0.1l0,0l0,0c0,0.1,0,0,0,0.1l0,0c0,0.1-0.1,0.2-0.2,0.1l0,0c0,0.1,0,0.1-0.1,0.1h0
		c0,0.1,0,0-0.1,0.1l0,0c0,0,0,0-0.1-0.1h0c0,0.1,0,0.1-0.1,0h0c0,0,0,0,0,0c0,0.1-0.1,0.1-0.2,0.1v0c0,0.1,0,0,0,0.1v0l0,0
		c0,0,0,0,0,0l0,0v0.1c-0.1,0-0.2,0-0.2,0.1c0,0,0,0,0,0l0,0v0c0,0.1-0.1,0.1-0.1,0.1l0,0c0,0,0,0,0,0l0,0v0
		c-0.1,0.1-0.1,0.2-0.3,0.1l0,0v0.1c0,0-0.1,0.1-0.1,0c0,0,0,0.1,0,0.1l0,0v0c0,0,0,0,0,0l0,0c0,0-0.1,0-0.1,0l0,0v0
		c0,0,0,0.1-0.1,0v0l0,0c0,0,0,0,0,0s0,0,0,0h0c0,0,0,0,0,0s0,0,0,0l0,0c0,0,0,0,0,0h0c0,0,0,0,0,0c0,0,0,0,0,0c0,0,0,0,0-0.1v0h0
		c0,0-0.1,0-0.1,0h-0.3c0,0.1-0.1,0.1-0.1,0l0,0c0,0,0,0,0,0c0,0,0,0-0.1-0.1l0,0c0-0.1-0.1,0-0.1-0.2v0c0-0.1,0-0.1,0-0.2l0,0
		c0-0.1,0,0,0.1-0.1c0,0,0,0,0,0c0,0,0.1,0,0.1,0s0-0.1,0,0c0,0,0,0,0,0l0,0h0c0,0,0,0,0,0v-0.1l0.1,0c0,0,0,0,0,0l0,0
		c0-0.1,0.1,0,0.2-0.1c0,0,0,0,0,0s0,0,0,0s0,0,0,0c0-0.1,0.1,0,0.1-0.1l0,0v-0.1h0v0l0,0v-0.1l0.1,0c0,0,0,0,0-0.1c0,0,0,0,0.1,0
		v-0.1c0,0,0,0,0,0l0,0l0,0c0-0.1,0.1,0,0.1-0.1c0,0,0,0,0,0c0.1-0.1,0.2-0.2,0.4-0.2c0,0,0,0,0,0c0,0,0,0,0.1,0l0,0l0,0
		c0,0,0.1,0,0,0l0,0c0-0.1,0.1-0.1,0.1-0.1c0,0,0,0,0,0l0,0v0c0,0,0.1,0,0.1-0.1L21,17c0-0.1,0.1-0.1,0.2-0.2c0,0,0,0,0,0v0l0,0l0,0
		c0.1,0,0.1-0.1,0.2-0.1s0.1,0,0.1,0c0,0,0,0,0.1,0l0,0c0,0,0,0,0-0.1l0,0c0.1,0,0.1-0.1,0.2-0.1c0,0,0,0,0,0c0,0,0,0,0,0v0
		c0.1,0,0.1,0,0.1-0.1s0-0.1,0.1-0.1h0c0,0,0-0.1,0,0s0,0,0,0h0c0,0,0,0,0,0l0.1,0l0,0c0.1-0.1,0.1-0.1,0.2-0.2c0,0,0,0,0.1,0l0,0
		c0,0,0,0,0-0.1s0,0,0,0s0,0,0,0s0,0,0,0c0.1,0,0,0,0,0l0,0c0.1,0,0.1,0,0.1-0.1c0,0,0,0,0,0c0.1,0,0.1,0,0-0.1l0,0l0.1,0l0,0
		c0,0,0,0,0,0l0.1-0.1l0.1,0l0,0c0,0,0,0,0,0s0,0,0.1,0l0.1-0.1c0,0,0,0,0,0l0,0c0,0,0-0.1,0,0l0,0c0,0,0-0.1,0-0.1
		c0.1-0.1,0.1-0.2,0.3-0.3c0,0,0.1,0,0.1-0.1c0.1,0,0.1,0,0.1-0.1h0c0,0,0,0,0,0c0,0,0.1,0,0.1,0c0,0,0,0,0,0c0.1,0,0.1-0.1,0.1-0.2
		c0,0,0,0,0,0c0,0,0,0,0,0c0.1,0,0-0.1,0.2-0.1l0,0c0.2,0,0-0.2,0.2-0.2l0,0l-0.1,0c0,0,0-0.1,0.1-0.1c0.1,0,0.1-0.1,0.1-0.2
		c0,0,0.1,0,0,0c0.1,0,0-0.1,0-0.1c0-0.1,0-0.2,0.1-0.3l0,0c0.1,0,0,0,0,0l0,0c0.1,0,0-0.1,0.1-0.1l0,0c0.1,0,0-0.1,0.1,0
		C24.8,13.5,24.8,13.4,24.9,13.5z M21.5,17.4L21.5,17.4L21.5,17.4L21.5,17.4z"/>
	<path class="st8" d="M21.2,11.4c0-0.2,0-0.4,0-0.6c0-2.2-1.5-3.7-3.3-3.7s-3.3,1.5-3.3,3.7v0.5h-0.1c-0.4,0.1-0.5,0.5-0.2,1
		s0.4,0.9,0.6,0.8c0,0,0.1,0,0.1,0c0.4,1.2,1.6,2.1,2.9,2c1.2-0.1,2.3-0.9,2.7-2c0,0,0,0,0.1,0c0.3,0,0.4-0.3,0.6-0.8
		C21.7,11.9,21.6,11.5,21.2,11.4z"/>
	<path class="st9" d="M14.6,10.3c-0.1,0.6,0.1,1.2,0.4,1.7L15,10.5c0-0.1,0-0.2-0.1-0.2c0-0.1-0.1-0.1-0.2,0
		C14.7,10.2,14.7,10.2,14.6,10.3"/>
	<path class="st9" d="M20.9,10c0.2,0.3,0,0.6,0,1.1c0,0.3,0,0.7-0.1,1c0.1,0,0.5-0.2,0.5-1.9c0,0,0-0.1,0-0.1
		c-0.1-0.2-0.4-0.1-0.6-0.2"/>
	<path class="st9" d="M21.5,8.2c-0.8-1.3-2.6-3.1-4.9-1.4c0.3,0.3-0.2-0.1-0.5,0c-0.2,0.2-0.5,0.3-0.7,0.5c-1.6,1.8-1.2,3.2-1.1,3.5
		c0.8,0.1,1.6,0,2.4-0.2c0.2-0.6,0.5-1.7,0.6-2c0-0.1,0.1-0.2,0-0.4c0.3,0.8,0.4,1.6,0.4,2.4c0.3-0.1,0.6-0.1,0.9-0.1
		c0,0,0.1,0,0.1-0.1c0,0,0-0.1,0-0.1c0-0.4-0.1-0.8,0-1.2c0.1,0.3,0.4,1,0.5,1.3c0,0,0,0.1,0,0.1c0.2-0.1,0.9,0,1.2,0
		c0.4-0.1,0.8-0.1,1.2-0.1C22,9.8,21.9,8.9,21.5,8.2z"/>
	<path class="st5" d="M12.8,18.1c1.3,1.4,3.3,2.2,5.3,2c3.6-0.2,5.2-2,5.2-2l-0.1-0.2L13.2,18L12.8,18.1z"/>
	<path class="st4" d="M19.7,4.2L19.7,4.2z"/>
	<path class="st4" d="M26.4,11.8L26.4,11.8L26.4,11.8L26.4,11.8z"/>
	<path class="st7" d="M12.2,15.6L12.2,15.6c-0.3,0.1-0.2,0-0.2,0c-0.1-0.1-0.1-0.3-0.2-0.4c-0.1-0.2-0.2-0.4-0.3-0.6c0,0,0,0,0-0.1
		c-0.1-0.1-0.2-0.3-0.2-0.5l0,0l0,0c0.1-0.1-0.1-0.2,0-0.3c0,0,0,0-0.1,0c0,0,0,0,0,0c0,0-0.1-0.1-0.1-0.1c0,0,0,0,0,0
		c0.1-0.1,0-0.1,0-0.1c0-0.1,0-0.3-0.1-0.3l0,0c-0.2,0,0-0.1-0.1-0.1h0c0.1-0.1-0.1-0.1,0.1-0.2h0c0.1,0,0-0.1,0-0.1l0,0
		c0,0,0,0,0,0h0c-0.1,0-0.1,0,0-0.1v0c-0.1,0-0.1-0.1,0-0.1h0c0,0,0,0,0.1,0l0,0c-0.1,0,0,0-0.1,0l0,0l0,0l0,0c0-0.1,0-0.2-0.1-0.2
		l0,0c-0.1,0-0.1-0.1,0-0.1H11c0,0-0.1,0-0.1,0c0,0,0,0,0,0c0,0,0,0,0-0.1c0.1,0,0-0.1,0-0.1v-0.2h0l0,0l-0.1,0v0
		c-0.1,0-0.1,0,0-0.1H11c0,0,0,0,0,0h0c0,0,0,0,0,0h0c0,0-0.1,0-0.1,0H11c0,0,0,0,0,0c0,0,0,0,0,0s0,0,0,0s0.1,0,0,0h0l0,0
		c0,0,0,0-0.1,0s0,0,0,0s0,0,0,0s-0.1,0,0,0l0,0c0,0,0,0,0-0.1h-0.1c0,0,0,0,0,0v0c-0.1,0-0.1-0.1,0-0.1s0,0,0-0.1c0,0,0,0,0,0v-0.1
		h0v-0.2h0c0,0,0-0.1,0-0.1l0.1,0c0-0.1,0-0.1,0-0.2v0h0c-0.1,0,0,0-0.1-0.1l0,0c-0.1-0.1-0.1-0.2,0-0.2c0,0,0,0,0,0l0,0
		c-0.1-0.1-0.1-0.1,0-0.1l0,0c0,0,0,0,0,0c-0.1,0,0-0.1,0-0.1h0c0,0,0,0,0.1,0v0c-0.1,0-0.1-0.1,0-0.1v0c0,0,0,0,0,0
		c0-0.1-0.1-0.2,0-0.2l0,0h0c-0.1-0.1,0-0.1-0.1-0.1h0c0,0,0,0,0,0h0C11,9.2,11.1,9.1,11,9l0,0c-0.1-0.1,0-0.1,0-0.1c0,0,0,0,0,0
		l0,0c0-0.1,0-0.2,0.1-0.3l0,0l-0.1,0c0,0,0-0.1,0.1-0.1c0,0,0,0-0.1-0.1l0,0c0,0,0,0,0,0h0c0.1,0,0.1,0,0-0.1l0,0l0,0
		c0,0-0.1-0.1,0-0.1h0v0c0,0,0,0,0,0s0,0,0,0v0c0,0,0,0,0,0s0,0,0,0h0c0,0,0,0,0,0c0,0,0,0,0,0l0,0v0c0,0,0,0,0,0h0.1l0,0
		c0,0,0,0,0,0c0,0,0-0.1,0-0.1v0c0-0.1,0-0.1,0.1-0.1l0,0l0,0c0,0,0,0,0.1,0l0,0c0.1,0,0.1,0,0.1,0.1l0,0l0.2-0.1
		C12,7.8,12,7.9,12,7.9l0,0C12.1,8,12,8,12,8c0,0,0,0,0,0s-0.1,0,0,0.1s0,0.1,0,0v0h0c0,0,0,0,0,0v0c0,0,0.1,0,0.1,0l0,0.1
		c0,0,0,0,0,0v0c0.1,0.1-0.1,0.1,0,0.2c0,0,0,0,0,0c0,0,0,0,0,0s0,0,0,0c0.1,0.1,0,0.1,0,0.1h0l0.1,0v0h-0.1L12,9l0,0.1
		c0,0,0,0,0,0.1c0,0,0,0.1-0.1,0l0,0c0,0,0,0,0,0.1h0c0.1,0.1,0,0.1,0.1,0.1c0,0,0,0,0,0c0,0.1,0,0.3-0.1,0.4c0,0,0,0,0,0
		c0,0,0,0,0,0.1h0c0,0,0,0,0,0s-0.1,0,0,0.1l0,0c0.1,0.1,0,0.1,0,0.1c0,0,0,0,0,0l0,0c0,0,0,0,0,0c0,0.1-0.1,0.1,0,0.2v0.1
		c0.1,0.1,0,0.2,0,0.2l-0.1,0v0h0c0,0.1,0,0.1,0,0.2s0,0.1,0,0.1c0,0,0,0-0.1,0l0,0l0.1,0l0,0c-0.1,0.1,0,0.1-0.1,0.2l0,0
		c0,0,0,0,0,0l0,0c0,0,0,0.1,0,0.1c0,0,0.1,0.1,0,0.1c0,0,0,0,0,0c-0.1,0.1,0,0,0,0s0.1,0,0,0.1s0,0,0,0c0,0,0,0,0,0c0,0,0,0,0,0
		c0,0,0,0-0.1,0l0,0v0.3l-0.1,0l0,0c0,0,0,0,0.1,0h0c0,0,0,0,0,0s0,0,0,0c-0.1,0,0,0,0,0.1l0,0c0,0-0.1,0.1,0,0.1c0,0,0,0,0,0
		c0,0-0.1,0.1,0,0.1l0,0l-0.1,0l0,0c0,0,0,0,0.1,0l0,0.1l-0.1,0h0c0,0,0,0,0,0h0c0,0,0,0,0,0.1l0,0c0,0,0.1,0,0,0l0,0c0,0,0.1,0,0,0
		c0,0.1,0.1,0.2,0.1,0.4c0,0,0,0.1,0,0.1c-0.1,0.1,0,0.1,0,0.1l0,0c0,0,0,0,0,0c0,0,0,0.1,0,0.1c0,0,0,0,0,0c0,0.1,0,0.2,0,0.2
		c0,0,0,0,0,0c0,0,0,0,0,0c-0.1,0.1,0.1,0.1,0,0.2v0.1c-0.1,0.1,0.1,0.2,0,0.3h0l0.1,0c0,0,0.1,0.1,0,0.1c0,0.1,0,0.2,0.1,0.2
		c0,0,0,0,0,0c0,0.1,0,0.1,0.1,0.1c0.1,0.1,0.2,0.2,0.1,0.3v0c0,0,0,0,0,0l0,0c-0.1,0.1,0.1,0.1,0,0.1v0.1c-0.1,0.1,0.1,0-0.1,0.1
		C12.2,15.5,12.2,15.5,12.2,15.6z"/>
	<g>
		<path class="st4" d="M28.9,12.5c0-0.1,0-0.3,0-0.4c0-0.1,0-0.2-0.1-0.4c-0.3,0.1-0.2,0.5-0.2,0.8c-0.1,1-0.3,2.1-0.7,3
			c0,0.1,0,0.1-0.1,0.2c0,0.1,0,0.2-0.1,0.3c0,0.1,0,0.1-0.1,0.2c0,0.1-0.1,0.3-0.2,0.4c0,0-0.1,0-0.1,0.1c-0.1,0.2-0.2,0.4-0.4,0.6
			c-0.1,0.1-0.1,0.1-0.1,0.2c-0.1,0.2-0.2,0.4-0.4,0.6c-0.1,0-0.1,0.1-0.1,0.2l-0.2,0.2c-0.2,0.2-0.5,0.5-0.6,0.7
			c-0.1,0.1-0.1,0.1-0.2,0.2c-0.6,0.6-1.3,1.1-2,1.5c-0.2,0.1-0.4,0.3-0.6,0.4c-0.2,0.1-0.4,0.2-0.6,0.3l-0.2,0.1
			c-0.3,0.1-0.6,0.2-0.9,0.3c-0.2,0.1-0.3,0.1-0.5,0.1c-0.2,0-0.3,0.1-0.5,0.2l0,0l0-0.1h-0.2v0c0,0.2,0.1,0.4,0.1,0.6l0,0.5
			l0.1,0.9c0,0.8,0.1,1.5,0.2,2.3v0.2c0,0.3,0,0.5,0,0.8l0,0.5c0,0.5,0,1,0.1,1.5c0,0.3,0.1,0.5,0.1,0.8c0,0.2,0,0.5-0.1,0.7
			c0,0.1,0,0.2,0,0.3c-0.1,0.5-0.4,1-0.8,1.3c-0.5,0.3-1,0.5-1.5,0.4c-0.1,0-0.1,0-0.2,0h-0.1c-0.1,0-0.2,0-0.3-0.1
			c-0.1-0.1-0.3-0.1-0.5-0.1c-0.2,0-0.3-0.1-0.4-0.2c-0.1,0-0.1-0.1-0.2-0.1l-0.3-0.2c-0.1-0.1-0.2-0.2-0.2-0.3
			c-0.1,0-0.1-0.1-0.1-0.1c0-0.1-0.1-0.2-0.1-0.3c0-0.1-0.1-0.2-0.1-0.3c-0.1-0.2-0.1-0.5,0-0.7c0-0.1,0-0.2,0-0.3c0,0,0-0.1,0-0.1
			l0-0.2c0.2-0.8,0.1-1.6,0.3-2.3c0-0.1,0-0.2,0-0.3c0-0.1,0-0.3,0-0.4l0-0.4c0-0.3,0-0.6,0.1-0.8l0-0.6c0-0.1,0-0.2,0-0.2
			c0.1-0.4,0.1-0.7,0.1-1.1l0-0.3l0.1-0.6c0-0.3,0.1-0.7-0.1-0.9c-0.1-0.1-0.3-0.1-0.4-0.2l-0.4-0.1L15,21.8l-0.3-0.1l-0.5-0.2
			c-0.2-0.1-0.3-0.1-0.5-0.2c-0.4-0.1-0.7-0.3-1-0.5c-0.2-0.1-0.3-0.2-0.5-0.3l-0.1,0L12,20.4c-0.2-0.2-0.5-0.4-0.7-0.6
			c-0.1-0.1-0.2-0.1-0.3-0.2l0,0c-0.1-0.1-0.1-0.2-0.2-0.2c-0.2-0.1-0.4-0.3-0.5-0.5C10,18.6,9.8,18.4,9.6,18l0,0
			c-0.1-0.1-0.2-0.2-0.3-0.4c0,0,0-0.1,0-0.1c-0.2-0.3-0.4-0.6-0.6-1c-0.1-0.2-0.2-0.4-0.3-0.6c-0.6-1.1-0.9-2.4-0.9-3.7
			c0-0.5,0-0.9,0-1.4c0,0,0-0.1,0-0.1c0.2-0.4,0.1-0.9,0.3-1.2l0.2-0.7c0-0.1,0.1-0.2,0.1-0.3l0.1-0.3C8.2,8,8.2,7.9,8.3,7.7
			c0.1-0.2,0.2-0.4,0.2-0.6l0.1-0.2c0.2-0.3,0.4-0.7,0.6-1l0.3-0.3C9.7,5.4,9.9,5.3,10,5.1c0.1-0.2,0.3-0.3,0.4-0.5l0.2-0.2l0.2-0.2
			l0.4-0.4c0.3-0.2,0.6-0.5,0.9-0.7c0.6-0.4,1.4-0.8,2.1-1c0.5-0.3,1.1-0.4,1.7-0.5c1.3-0.2,2.6-0.2,3.8,0c0.1,0,0.3,0,0.4,0
			c0.2,0.1,0.5,0.2,0.7,0.2c0.1,0,0.2,0,0.3,0.1C21.4,2,21.6,2,21.8,2.1c0.1,0.1,0.3,0.1,0.4,0.2l0.6,0.3c0.2,0.1,0.4,0.2,0.6,0.3
			l0.1,0c0.2,0.2,0.5,0.4,0.8,0.6l0.2,0.2c0,0.1,0.1,0.1,0.2,0.1c0,0,0,0.1,0,0.1L24.7,4h0.1l0,0.1c0.1,0.1,0.2,0.2,0.3,0.4
			c0.1,0.1,0.2,0.1,0.2,0.1l0.3,0.4C25.9,5,26,5.1,26.1,5.3l0.1,0.2c0,0,0,0.1,0.1,0.1c0,0,0,0.1,0,0.2c0.1,0.1,0.2,0.2,0.2,0.3
			c0.1,0.1,0.2,0.2,0.3,0.4c0,0,0,0,0,0.1c0.6,1,1,2,1.2,3.1c0,0.1,0,0.2,0,0.2l0.1,0.7c0.1,0.2,0.1,0.4,0.1,0.6
			c0,0.2,0,0.4,0.1,0.6c0.1,0.2,0.2,0.2,0.2-0.1v-0.1c0-0.2,0-0.4,0-0.7c0,0,0,0,0-0.1l0-0.4c0-0.2-0.1-0.4-0.1-0.7
			c-0.1-0.3-0.1-0.5-0.2-0.8C28.2,8.3,28.1,8,28,7.7c-0.1-0.3-0.3-0.6-0.4-0.9c-0.1-0.2-0.2-0.4-0.3-0.6C27.2,6,27.1,5.8,27,5.6
			c0,0-0.1-0.1-0.2-0.1l-0.1-0.1l-0.1-0.1l-0.1-0.1c0,0,0-0.1,0-0.1c-0.2-0.3-0.5-0.6-0.8-0.9c-0.1-0.2-0.3-0.3-0.4-0.5l-0.1-0.1
			l-0.1-0.1l-0.1-0.1c-0.1-0.2-0.2-0.3-0.4-0.3c-0.2-0.1-0.4-0.3-0.6-0.4c-0.1,0-0.1,0-0.1,0l-0.1,0l-0.7-0.4c0,0-0.1-0.1-0.1-0.1
			l-0.1,0l-0.1,0H23l-0.1,0h-0.1c0,0,0,0-0.1,0c0-0.1-0.1-0.1-0.1-0.1c-0.4-0.2-0.9-0.4-1.4-0.5c-0.1,0-0.2-0.1-0.2-0.1
			C20.7,1.1,20.4,1,20.1,1c-0.3-0.1-0.6,0-0.8-0.1c-0.1,0-0.2-0.1-0.2-0.1c-0.1,0-0.2,0-0.3,0c-0.2,0-0.4,0-0.5,0h-0.1l-0.1,0
			c-0.1,0-0.2,0-0.3,0c-0.2,0-0.3,0.1-0.5,0c-0.2-0.1-0.3,0-0.5,0c-0.1,0-0.2,0.1-0.3,0.1c-0.1,0-0.2,0.1-0.3,0.1
			c-0.1,0-0.3,0.1-0.4,0C15.6,1,15.5,1,15.3,1l-0.6,0.1c-0.2,0.1-0.4,0.1-0.6,0.2c-0.2,0.1-0.4,0.1-0.6,0.2
			c-0.2,0.1-0.4,0.2-0.5,0.3l-0.3,0.2l-0.3,0.2c-0.2,0.1-0.4,0.3-0.6,0.4c-0.4,0.3-0.8,0.6-1.2,0.9l-0.1,0.1l-0.1,0
			C9.6,4.5,8.8,5.3,8.3,6.3c-0.6,1-1,2-1.2,3.1c0,0.2,0,0.5-0.1,0.7c0,0.1,0,0.2-0.1,0.3c0,0.2,0,0.3,0,0.5c0,0.2,0,0.4,0,0.6
			c0,0.1,0,0.2,0,0.3c0,0.2,0,0.4,0,0.7l0,0.1c-0.1,0.2-0.1,0.4,0,0.6c0,0.2,0,0.4,0.1,0.6c0,0.2,0.1,0.4,0.1,0.5
			c0.1,0.4,0.2,0.7,0.3,1.1c0,0.1,0.1,0.2,0.2,0.3c0.1,0.2,0.2,0.4,0.3,0.7c0.4,0.9,0.9,1.7,1.6,2.4c0.2,0.2,0.3,0.3,0.5,0.5
			s0.3,0.3,0.5,0.5c0.2,0.1,0.3,0.2,0.4,0.3s0.3,0.2,0.5,0.3c0.3,0.2,0.6,0.4,0.9,0.6c0,0,0,0.1,0.1,0.1c0.2,0.1,0.5,0.2,0.7,0.3
			c0.2,0.1,0.5,0.3,0.7,0.4c0.3,0.1,0.5,0.1,0.8,0.2l0.3,0.1c0.1,0,0.3,0.1,0.4,0.1c0.1,0,0.3,0,0.4,0.1c0,0,0.1,0,0.1,0
			c0,0,0,0.1,0,0.1l0,0.2c0,0.1,0,0.3,0,0.4c0,0.3,0,0.6,0,0.8c-0.1,0.1-0.1,0.2-0.1,0.3c-0.1,0.2-0.1,0.5-0.2,0.8
			c-0.2,0.3-0.1,0.7-0.2,1c-0.1,0.1-0.1,0.3,0,0.5c0,0.2,0,0.5-0.1,0.7c0,0.1,0,0.2,0,0.2c0,0.1,0,0.3,0,0.4c0,0.4,0,0.9-0.1,1.3
			c0,0.2,0,0.5-0.1,0.7c0,0.2-0.1,0.4-0.1,0.7c-0.1,0.3,0.1,0.7,0.1,1c0.1,0.4,0.2,0.8,0.5,1.1c0,0,0,0,0.1,0.1l0,0.1
			c0.1,0.1,0.2,0.2,0.3,0.3c0.1,0.1,0.2,0.1,0.3,0.2c0.2,0.1,0.5,0.2,0.7,0.3H17l0.1,0c0.8,0.2,1.6,0.1,2.4-0.2
			c0.4-0.2,0.7-0.5,1-0.8c0.3-0.3,0.5-0.7,0.6-1.1c0-0.3,0.1-0.5,0.1-0.8c0-0.2,0.1-0.5,0-0.7c0-0.2,0-0.4-0.1-0.6
			c-0.1-0.4-0.1-0.8-0.1-1.3l0-0.4c0-0.4,0-0.8-0.1-1.2c-0.1-0.2-0.1-0.4-0.1-0.6c0,0,0-0.1,0-0.1c0-0.1,0-0.2,0-0.4V25l-0.1-1.5
			c-0.1-0.2-0.1-0.4-0.1-0.6v-0.1c0,0,0,0,0,0c0,0,0,0,0-0.1c0,0,0.1,0,0.1,0h0l0.2,0c0.1,0,0.2,0,0.3-0.1l0.6-0.2
			c0.2-0.1,0.5-0.1,0.7-0.3c0.2-0.1,0.5-0.2,0.7-0.3c0.1,0,0.1,0,0.2-0.1l0.4-0.2c0.1-0.1,0.3-0.2,0.4-0.2c0.1-0.1,0.3-0.2,0.4-0.3
			c0.1-0.1,0.3-0.2,0.4-0.3l0.6-0.6c0.1-0.1,0.2-0.2,0.3-0.3c0.1-0.1,0.2-0.2,0.3-0.3c0.1-0.1,0.2-0.2,0.3-0.3
			c0.1,0,0.1-0.1,0.2-0.2l0-0.1l0.1-0.1c0.1-0.3,0.3-0.5,0.5-0.8c0.1-0.3,0.3-0.6,0.5-0.9c0.2-0.3,0.3-0.6,0.4-0.9l0.1-0.2
			c0.1-0.1,0.1-0.2,0.2-0.4c0-0.1,0.1-0.2,0.1-0.4c0.1-0.2,0.1-0.5,0.1-0.7c0-0.1,0-0.3,0.1-0.4c0-0.1,0-0.3,0-0.4
			c0-0.1,0-0.3,0.1-0.4C28.9,13,28.9,12.8,28.9,12.5z M23.8,21.1L23.8,21.1C23.8,21.1,23.8,21.1,23.8,21.1L23.8,21.1
			C23.8,21.1,23.8,21.1,23.8,21.1C23.8,21.1,23.8,21.1,23.8,21.1L23.8,21.1C23.8,21.1,23.8,21.1,23.8,21.1
			C23.8,21.1,23.8,21.1,23.8,21.1z"/>
		<path class="st4" d="M23.8,21.1C23.8,21.1,23.8,21.1,23.8,21.1C23.8,21.1,23.8,21.1,23.8,21.1L23.8,21.1
			C23.8,21.1,23.8,21.1,23.8,21.1L23.8,21.1z"/>
		<polygon class="st4" points="23.8,21.1 23.8,21.1 23.8,21.1 		"/>
		<path class="st4" d="M9.8,14.8c0,0.2,0.1,0.3,0.2,0.4c0.4,0.7,0.8,1.4,1.3,2c0.2,0.2,0.4,0.4,0.6,0.6c0,0,0.1,0,0.1,0
			c0.1,0.3,0.4,0.4,0.5,0.6c0.2,0.2,0.5,0.4,0.7,0.5c0.2,0.2,0.4,0.3,0.7,0.4l0.1,0.1c0.2,0.1,0.4,0.2,0.7,0.3l0.2,0.1
			c0.1,0.1,0.2,0.1,0.4,0.2c0.1,0,0.3,0.1,0.4,0.1c1,0.2,2,0.3,3,0.3c0.2,0,0.4-0.1,0.6-0.1c0.2,0,0.4,0,0.6-0.1
			c0.8-0.1,1.6-0.4,2.3-0.9c0.1,0,0.2-0.1,0.2-0.2c0.2-0.1,0.3-0.1,0.4-0.2c0-0.1,0.1-0.1,0.1-0.2c0.1-0.1,0.2-0.1,0.3-0.2
			c0.1,0,0.2-0.1,0.3-0.1c0.2-0.2,0.4-0.4,0.6-0.6v-0.1c0.2-0.1,0.3-0.3,0.4-0.5c0,0,0.1-0.1,0.1-0.1c0,0,0.1-0.1,0.1-0.1
			c0,0,0.1,0,0.1,0l0,0V17l0,0c0.1-0.1,0.1-0.2,0.2-0.2c0-0.1,0-0.1,0-0.2l0.3-0.6c0,0,0-0.1,0.1-0.1c0,0,0,0,0-0.1
			c0,0,0.1,0,0.1-0.1c0-0.1,0-0.1,0.1-0.2c0-0.1,0-0.2,0.1-0.3c0,0,0.1,0,0.1,0c0.3-0.7,0.5-1.3,0.6-2c0,0,0-0.1,0-0.1
			c0-0.1,0-0.3,0-0.4c-0.1-0.2,0-0.5-0.1-0.7c-0.1-0.1-0.1-0.1-0.2,0v0l0,0c-0.1,0.1-0.1,0.3,0,0.4c0,0,0,0,0,0.1c0,0.1,0,0.2,0,0.3
			l0,0.4c0,0.2-0.1,0.3-0.1,0.5c-0.1,0.2-0.1,0.4-0.1,0.6c0,0.2-0.1,0.4-0.2,0.5c0,0.1-0.1,0.2-0.1,0.3c-0.1,0.1-0.2,0.2-0.2,0.3
			c0,0,0,0.1,0,0.1l0,0.1l0,0.1l0,0.1c0,0-0.1,0-0.1,0l-0.3,0.6c-0.1,0.1-0.2,0.2-0.2,0.3l-0.1,0l0,0.1l0,0c-0.1,0-0.2,0.1-0.2,0.2
			c-0.1,0.1-0.1,0.2-0.3,0.3c0,0,0,0.1,0,0.1l0,0c-0.1,0.1-0.2,0.2-0.3,0.3h-0.1l0,0l0,0l0-0.1c0.1-0.1-0.1-0.2-0.1-0.3
			c0,0-0.1,0,0-0.1l0-0.1c-0.1-0.2-0.3-0.4-0.5-0.6c-0.1,0-0.2,0-0.2-0.1c0,0,0,0,0,0c0,0-0.1,0-0.1-0.1c-0.2-0.1-0.3-0.2-0.5-0.3
			c0-0.1-0.1-0.1-0.2-0.1l0,0.1v0c-0.1-0.2-0.4-0.1-0.6-0.3l-0.1,0c-0.1-0.1-0.3,0-0.4-0.2c0,0,0,0,0,0c-0.1,0-0.3,0-0.4-0.1
			c0,0,0,0,0,0c0,0,0,0-0.1,0c0,0-0.1-0.1,0-0.1c0,0,0,0,0,0c0,0,0,0,0,0c0,0,0,0,0,0c0,0,0-0.1-0.1-0.1c0,0,0-0.1,0-0.1
			c-0.1,0,0-0.1,0-0.1c0-0.1,0-0.2,0-0.2c0,0,0,0,0,0c0.1-0.1,0.1-0.1,0.2-0.2c0,0,0.1,0,0.1,0c0.2-0.3,0.4-0.6,0.6-0.9c0,0,0,0,0,0
			c0.1,0,0.2-0.1,0.3-0.2c0.1-0.1,0.2-0.2,0.2-0.4l0.2-0.3l0.1-0.2c0-0.1,0.1-0.1,0.1-0.2c0.1-0.2,0.1-0.3,0.1-0.5
			c0-0.2-0.1-0.4-0.2-0.5c0,0,0.1-0.1,0.1-0.1c0,0,0,0-0.1,0c0,0,0,0-0.1-0.1c-0.1-0.1-0.1-0.1,0-0.2H22c0.1-0.3,0.2-0.6,0.3-0.9
			c0.1-0.6,0-1.2-0.4-1.7c0-0.1,0-0.3-0.3-0.2c0,0.1,0,0.1,0,0.2c-0.1,0.2,0.1,0.2,0.1,0.4c0,0.1,0,0.1,0.1,0.2c0,0.2,0.1,0.3,0,0.4
			v0.2c0,0.2,0,0.3-0.1,0.5l0,0.2c0,0,0-0.1-0.1-0.1c0,0,0-0.1,0-0.1c0-0.1-0.1-0.2-0.2-0.2c-0.1,0-0.2-0.1-0.2-0.1
			c-0.1,0-0.1,0-0.2,0c-0.1,0-0.1,0-0.2,0c0,0,0.1-0.1-0.1,0.1c-0.1,0.1-0.1,0.1-0.1,0.2c0,0.1,0,0,0,0.1l0,0c0,0.1,0.1,0,0,0.1v0
			c0,0.1,0.1,0.1,0.2,0c0,0,0.1-0.1,0.1,0c0,0,0.1,0,0,0c0,0,0,0,0.1,0c0,0,0,0.1,0,0.1c0,0,0,0,0,0c-0.1,0-0.1,0-0.2,0l0,0l0,0h0
			c0.1,0,0.1,0,0,0c-0.1,0-0.1,0-0.1-0.1c0,0,0,0,0,0c0,0,0,0-0.1,0c-0.1,0-0.1,0.1-0.2,0.1h0c-0.1,0.1-0.1,0.1-0.1,0.1l0,0
			c0,0-0.1,0-0.1,0c-0.1,0-0.2-0.1-0.4,0c0,0,0,0,0,0.1c0,0,0,0,0,0c-0.2-0.1-0.3-0.1-0.5-0.1c0,0,0,0,0,0c0,0,0-0.1,0-0.1
			c0-0.1-0.1-0.3-0.1-0.4l-0.1-0.3c0-0.2-0.1-0.4-0.2-0.5c-0.1-0.2-0.1-0.4-0.2-0.7c0,0.1,0,0-0.1-0.1l0-0.1c0,0,0,0,0,0
			c0,0,0,0,0,0c0,0.4,0,0.5-0.1,0.4c0,0.3,0,0.5,0,0.2c0-0.1,0-0.2,0,0.1c0,0,0,0,0,0.1l-0.1,0.3v0l0,0.2l0.1,0.4l0,0.2h-0.1
			c0,0-0.1,0-0.1,0c0,0-0.1,0-0.1,0c0,0,0,0,0,0c0,0-0.1,0-0.1,0c0,0-0.1,0-0.1,0c0,0,0-0.1,0-0.1l0-0.1l0-0.3c0-0.1,0-0.1-0.1-0.1
			c0-0.1,0-0.1,0-0.2c0,0,0,0,0,0C18,9,18,9,18,8.9h0c0-0.1,0-0.1,0-0.2c0,0,0,0-0.1,0v0l0.1,0c0-0.2-0.1-0.3-0.2-0.5l-0.9,0.3H17
			l-0.1,0c0,0,0.1,0,0,0c0,0,0,0,0,0s-0.1,0-0.1,0.1c0,0,0,0.1,0,0.1c0,0.1,0,0.2-0.1,0.3c0,0.1,0,0.1-0.1,0.2c0,0,0,0,0,0
			c0,0,0,0,0,0c0,0,0,0,0,0c0,0,0,0.1,0,0.1c0,0,0,0,0,0.1c0,0,0,0.1,0,0.1c0,0,0,0,0,0c0,0-0.1,0-0.1,0.1l-0.2,0.7l-0.1-0.1
			c0,0,0,0,0,0c0,0,0,0,0,0c0,0,0,0-0.1,0c-0.1,0-0.1,0-0.2,0c0,0-0.1,0-0.1,0c-0.2,0-0.3,0-0.5,0.1c0,0-0.1,0-0.1,0
			c0-0.1,0-0.1-0.1-0.2c0,0-0.1-0.1-0.1-0.1c0,0-0.1-0.1-0.2-0.1c0,0,0,0,0,0c0-0.1,0-0.3,0.1-0.4l0,0V9.4c0,0,0.1,0,0.1,0
			c0.1-0.2,0.2-0.4,0.3-0.7c0.1-0.1,0.1-0.2,0.2-0.3c0-0.2,0.2-0.3,0.3-0.5c0,0,0-0.1,0-0.1h0l0.1,0c0.1-0.1,0.2-0.1,0.3-0.3
			c0-0.1,0-0.1,0,0l0,0h0c0,0,0,0,0,0l0,0c0,0,0.1,0.1,0.2,0.1h0.2c0.1,0,0.2,0,0.3-0.1L17,7.2v0c0,0,0,0,0,0l0,0
			c0.2-0.1,0.3-0.2,0.5-0.4c0,0,0,0,0,0c0.1-0.1,0.2-0.1,0.3-0.2l0,0.1c0.1,0,0.1,0,0.2,0v0c0.1,0,0.1,0,0.2,0c0.1,0,0.1,0,0.2-0.1
			c0.1,0,0.2,0,0.2,0l0-0.1v0c0,0,0,0,0,0c0,0,0,0,0,0h0.1l0-0.1h0.1c0.1,0,0.2,0.1,0.3,0c0,0,0,0,0,0c0,0,0.1,0,0.1,0
			c0,0,0.1,0,0.1,0c0.2,0,0.4,0.2,0.6,0.3c0,0,0,0,0.1,0c0,0,0,0,0,0c0.1,0.1,0.3,0.2,0.4,0.3c0,0,0.1,0,0.1,0c0,0,0,0,0.1,0
			l0.1,0.1l0,0.1c0,0,0,0,0.1,0.1c0,0.1,0,0.1,0.1,0.1c0.1,0.1,0.2,0.2,0.3,0.3c0,0,0,0,0.1,0c0,0,0,0.1,0.1,0.1
			c0.1,0,0.1,0.1,0.2,0v0h0c0.1-0.1,0-0.1,0.1-0.2c0-0.1,0-0.1,0-0.2c0,0,0,0,0,0c0-0.2-0.1-0.3-0.3-0.4l0-0.1
			c-0.1,0-0.1-0.1-0.2-0.1l-0.1-0.1h-0.1c0,0,0-0.1,0-0.1c0,0,0,0-0.1-0.1l-0.1-0.1l0,0c0,0,0-0.1-0.1-0.1c0,0,0,0,0-0.1l0-0.1
			c0,0-0.1,0-0.1-0.1c0,0,0,0,0,0c0,0,0,0-0.1,0l-0.1,0c0,0,0,0-0.1,0c0,0-0.1,0-0.1-0.1h0v0c0-0.1-0.2-0.1-0.3-0.2h0l0,0
			c-0.1,0-0.2-0.1-0.3-0.2h0v0c0,0,0-0.1-0.1,0h0l0,0c0,0-0.1,0-0.1,0c-0.1-0.1-0.2-0.1-0.3-0.1c0,0,0,0,0,0.1
			c-0.2-0.1-0.3-0.2-0.5-0.2c-0.2,0-0.4,0-0.5,0.1l0,0h0c0,0,0,0,0,0h0c-0.1,0-0.3,0-0.4,0.1v0h0C17.2,6,17,6.1,16.7,6.1v0h0
			c-0.1,0-0.1,0-0.1,0.1v0h0c0,0.1-0.2,0.1-0.2,0.2c-0.1,0-0.2,0-0.2,0c0,0-0.1,0-0.1,0l-0.1,0h0c-0.1,0-0.1,0-0.2,0.1
			c0,0-0.1,0-0.1,0.1c0,0,0,0.1,0,0.1l-0.1,0c-0.1,0-0.1,0-0.2,0v0h0c-0.1,0.1-0.2,0-0.2,0.2c0,0,0,0.1-0.1,0.1
			c-0.2,0-0.3,0.2-0.3,0.4c-0.3,0.2-0.5,0.5-0.5,0.8c0,0.1-0.1,0.2,0,0.2h0l-0.1,0.1C14.1,8.9,14,9.1,14,9.3c0,0-0.1,0-0.1,0.1
			c0,0.2-0.1,0.3-0.1,0.5l0,0V10l0,0v0.2c0,0.1,0,0.1,0,0.2v0c0,0,0,0,0,0.1c0,0.1,0.1,0.2,0.1,0.3c0,0.1,0,0.3,0.1,0.4h0.1
			c0,0,0.1,0,0.1,0l0,0h0c0,0,0,0,0,0h0.1c0,0,0,0,0,0c0,0,0,0,0,0v0l0,0c0,0,0,0,0,0c0,0,0,0,0,0h-0.1c0,0,0,0-0.1,0l-0.1,0
			c-0.1,0.1-0.1,0.1-0.2,0.1c-0.1,0.1-0.1,0.2-0.2,0.3c0,0.1,0,0.1,0,0.2c0,0,0,0.1,0.1,0.1l-0.1,0c-0.1,0.2,0,0.4,0.2,0.5
			c0.2,0.2,0.3,0.4,0.4,0.6c0,0,0,0,0.1,0.1c0,0,0,0,0,0.1c0.1,0,0.1,0.1,0.2,0.1c0,0,0.1,0,0.1,0c0,0,0.1,0.1,0.1,0.1l0,0.1
			c0,0,0,0,0,0.1c0,0.1,0,0.1,0.1,0.1h0v0c0.1,0,0.1,0.1,0.1,0.1c0.1,0.1,0.2,0.2,0.2,0.3h0v0c0,0.2,0.2,0.2,0.2,0.4h0v0
			c0.1,0,0.2,0.1,0.2,0.2c0,0,0,0.1,0,0.1c0,0.1,0,0.1,0,0.2c0,0,0,0.1,0,0.1l0,0v0c0,0,0,0,0,0c-0.1,0-0.1,0-0.2,0.1
			c0,0.1-0.1,0.1-0.1,0.1c0-0.1,0,0,0,0l0,0c0,0-0.1,0-0.1,0c0,0,0,0,0,0.1c-0.3,0-0.6,0.1-0.9,0.3c0,0,0,0,0,0c0,0.1-0.2,0-0.2,0.2
			l0,0c0,0-0.1,0-0.1,0.1c-0.1,0-0.1,0-0.2,0c0,0,0,0.1-0.1,0.1c-0.1,0-0.1,0.1-0.2,0.1v0.1c0,0,0,0,0,0l-0.1,0l0,0.1h0
			c-0.1,0-0.2,0.1-0.2,0.2c0,0,0,0,0,0c0,0,0,0.1-0.1,0.1c0,0,0,0,0,0c0,0.2-0.3,0.2-0.3,0.4l0,0c0,0,0,0,0,0
			c-0.1,0.1-0.1,0.2-0.2,0.3c0,0,0,0,0.1,0.1v0.1l0,0.1l-0.1,0c0,0,0,0,0,0.1c-0.1,0,0,0.1,0,0.1c0,0,0,0,0,0.1c0,0,0,0-0.1,0
			c0-0.1-0.1-0.1-0.1-0.1l-0.2-0.2c-0.1-0.1-0.1-0.2-0.2-0.3c0,0-0.1-0.1-0.1-0.2c-0.1-0.1-0.1-0.2-0.2-0.3h-0.1
			c0-0.1-0.1-0.2-0.1-0.3c-0.1-0.2-0.2-0.3-0.3-0.5c-0.1-0.2-0.2-0.3-0.3-0.5c0-0.1-0.1-0.1-0.1-0.2c-0.1-0.1-0.1-0.2-0.2-0.4
			c-0.1-0.3-0.2-0.5-0.3-0.8c-0.1-0.3-0.2-0.5-0.3-0.8c-0.1-0.3-0.1-0.5-0.1-0.8c-0.1-0.4-0.1-0.9-0.1-1.3c0,0,0,0,0-0.1
			c0-0.3,0-0.6,0.1-0.9c0-0.1,0-0.2,0-0.2c0-0.1,0-0.2,0-0.2c0-0.2,0.1-0.3,0.2-0.5c0-0.1,0-0.2,0.1-0.2c0.2-0.3,0.3-0.6,0.3-0.9
			c0.1,0,0.1-0.1,0.2-0.1c0.1,0,0.1-0.3,0.3-0.3c0.2-0.1,0.2-0.3,0.4-0.4c0.1,0,0.2-0.1,0.2-0.2c0.1-0.1,0.1-0.2,0.2-0.3
			c0,0,0,0,0,0c0,0,0.1-0.1,0.1-0.1c0-0.1,0.1-0.1,0.1-0.2c0.1-0.2,0.3-0.4,0.5-0.6c0.2-0.2,0.4-0.3,0.6-0.5c0.2,0,0.3-0.3,0.5-0.3
			c0.2,0,0.4-0.2,0.6-0.2l0,0h0c0.2,0,0.4-0.2,0.7-0.3l0,0h0c0.2-0.1,0.4-0.1,0.6-0.2l0.3-0.1l0.3-0.1c0.2-0.1,0.4-0.1,0.6-0.2
			c0.2,0,0.4,0,0.6,0c0.1,0,0.3-0.1,0.4,0c0.5,0,0.9,0,1.4,0.1l0.2,0c0.2,0.1,0.4,0.1,0.7,0.1c0.1,0,0.2,0,0.3,0h0.1
			c0.1,0,0.1,0,0.2,0c0.1,0,0.1,0.1,0.2,0.1c0.3,0.1,0.5,0.2,0.7,0.3c0.1,0,0.2,0,0.3,0.1l0.1,0v0.1c0.1,0,0.2,0.1,0.3,0.2l0.3,0.2
			c0.1,0.1,0.2,0.1,0.3,0.2c0.2,0.2,0.4,0.3,0.6,0.5c0,0,0,0.1,0,0.1c0.1,0.1,0.2,0.2,0.3,0.4c0.2,0.1,0.3,0.2,0.4,0.4
			C24,7,24.1,7.1,24.2,7.2c0.1,0.1,0.2,0.3,0.2,0.4c0.1,0,0.1,0.1,0.1,0.2c0,0,0,0,0,0c0,0.1,0,0.1,0.1,0.1l0,0V8
			c0.1,0.1,0.2,0.3,0.2,0.4c0.3,0.3,0.3,0.7,0.5,0.9c0,0,0,0.1,0.1,0.1c0,0.3,0.1,0.5,0.3,0.8c0,0.1,0.1,0.1,0.1,0.2
			c0.1,0.1,0.1,0.3,0.1,0.4c0,0.2,0,0.3,0.1,0.4c0,0.1,0,0.1,0,0.2c0,0.1,0.1,0.1,0.1,0.2c0.2-0.1,0.1-0.3,0.1-0.5
			c0-0.3,0-0.6-0.1-0.9c0-0.3-0.1-0.6-0.2-0.9c0,0,0-0.1,0-0.1c-0.1,0-0.1-0.1-0.1-0.2c0,0,0-0.1,0-0.1c-0.1-0.1-0.1-0.1-0.1-0.2
			c0,0,0-0.1,0-0.1c0-0.1-0.1-0.3-0.2-0.4c0,0,0-0.1-0.1-0.1c-0.1-0.1-0.2-0.2-0.2-0.4c0-0.1,0-0.1-0.1-0.1l-0.1-0.1
			c-0.1-0.2-0.2-0.4-0.3-0.5l-0.1-0.1c-0.1-0.2-0.3-0.4-0.4-0.6l-0.5-0.5c-0.1-0.1-0.2-0.1-0.3-0.2c-0.1-0.1-0.2-0.2-0.3-0.3L23,5.2
			c-0.1-0.1-0.3-0.3-0.4-0.4c-0.2-0.1-0.3-0.2-0.5-0.3h0l0-0.1c-0.2-0.1-0.3-0.2-0.5-0.3C21.4,4.2,21.2,4.1,21,4
			c-0.2-0.1-0.4-0.2-0.6-0.3c-0.2-0.1-0.4-0.1-0.7-0.1l-0.1,0c-0.1-0.1-0.3,0-0.5-0.1l-0.3,0c-0.3-0.1-0.6-0.1-0.9-0.1
			c-0.3,0-0.6,0-0.9,0c0,0-0.1,0-0.2,0c-0.2,0-0.3,0.1-0.5,0.1l-0.3,0.1L16,3.6c-0.2,0-0.3,0.1-0.5,0.1c-0.2,0-0.3,0.1-0.5,0.1
			c-0.1,0.1-0.2,0.1-0.4,0.1c-0.2,0-0.4,0.2-0.6,0.2c0,0-0.1,0-0.1,0c-0.2,0-0.3,0.2-0.4,0.2c0,0-0.1,0.1-0.1,0.1
			c-0.3,0.1-0.5,0.4-0.8,0.5c-0.1,0.1-0.2,0.2-0.3,0.2c-0.2,0.1-0.4,0.3-0.5,0.5c-0.1,0.2-0.3,0.4-0.5,0.5c0,0.1,0,0.1-0.1,0.1
			c0,0.1-0.1,0.2-0.2,0.2l-0.1,0.2c0,0.2-0.1,0.3-0.3,0.4l-0.2,0.3c0,0.1,0,0.1,0,0.2C10.2,7.8,10.1,8,10,8.2L10,8.3
			c-0.4,0.9-0.6,1.8-0.6,2.8c0,0.1-0.1,0.2-0.1,0.4v0.1l0,0.1c0,0.2,0,0.4,0,0.6l0,0.2v0c0,0.1,0,0.1,0,0.2c0.1,0.2,0.1,0.3,0.1,0.5
			c0,0.2,0.1,0.4,0.1,0.7v0c0.1,0.1,0.1,0.2,0.1,0.3c0,0,0,0,0,0.1C9.6,14.3,9.7,14.5,9.8,14.8z M21.4,11.5
			C21.4,11.5,21.4,11.5,21.4,11.5L21.4,11.5c0.1,0,0.1,0.1,0.1,0.1c0,0,0,0,0,0C21.4,11.7,21.5,11.6,21.4,11.5
			C21.4,11.6,21.4,11.5,21.4,11.5C21.5,11.5,21.4,11.5,21.4,11.5z M16.6,6.9C16.7,7,16.6,6.8,16.6,6.9L16.6,6.9z M21.2,10.4
			C21.2,10.4,21.2,10.4,21.2,10.4C21.1,10.4,21.1,10.4,21.2,10.4L21.2,10.4z M15.7,13.6C15.7,13.5,15.7,13.5,15.7,13.6
			c0-0.1,0-0.2-0.1-0.2h0c0,0,0-0.1,0-0.1h-0.1v0l0.1,0l-0.1-0.2L15,12.9c0,0,0,0,0,0c0,0,0,0,0-0.1l0.1-0.1c0,0,0,0,0,0
			c0,0,0-0.1,0-0.1c0,0-0.1,0,0-0.1c-0.1,0-0.1-0.2-0.1-0.3c0,0-0.1-0.1-0.1-0.2c0,0,0,0,0,0c0,0,0,0,0,0c0,0,0,0,0,0c0,0,0,0,0,0h0
			c0,0,0,0,0,0c0,0,0,0,0,0l0.2-0.2l0.4-0.1c0,0,0,0-0.1,0c0,0-0.1,0,0,0l0,0c0,0,0,0,0,0c0.1-0.1-0.1,0,0-0.1l-0.1,0c0,0,0,0,0.1,0
			c0,0-0.1,0,0,0s0-0.1,0-0.1l0,0l0,0c0,0,0-0.1-0.1-0.1l0,0c0,0,0,0,0,0l0,0c0,0,0,0,0,0c0,0,0,0,0,0c0,0,0,0,0,0c0,0,0,0,0,0
			c0.1,0,0,0,0.1-0.1c-0.1,0,0,0-0.1-0.1c0,0,0-0.1,0-0.1c0,0,0-0.1,0-0.1c0,0,0,0,0,0c0,0,0,0,0.1,0c0-0.1,0.1,0,0.1,0
			c0,0,0.1,0,0.1,0c0,0,0.1,0,0.2,0c0,0,0.1,0,0.1,0v0c0,0,0,0,0,0l0,0l0,0c0,0,0.1,0,0.1,0c0,0,0-0.1,0-0.1c0,0,0.1,0,0.1,0l0,0v0
			h0c0,0,0,0,0.1,0c0,0,0,0,0,0c0,0,0,0,0,0c0,0,0,0,0,0c0.1,0,0.2,0,0.2-0.1l0.1,0l0,0h0.1c0,0,0,0,0,0h0l0-0.2
			c0.1-0.1,0-0.3,0.2-0.4c0-0.1,0.1-0.1,0.1-0.2c0-0.1,0-0.1,0-0.1c0,0,0-0.1-0.1-0.1h0.1c0,0,0.1-0.1,0.1-0.1c0,0,0,0.1,0,0.1v0.1
			c0,0.1,0,0.1,0,0.2l0,0v0c0,0.1,0.1,0.2,0,0.3c0.2,0.1,0.3,0.1,0.3,0.1c0,0,0,0,0.1,0.1c0.1,0,0.1,0,0.2,0h0.2v0.2h0.4l0.3,0
			c0,0,0.1,0,0.1,0c0,0,0,0,0,0c0,0,0,0,0,0s0,0,0-0.3v-0.1c0-0.1,0-0.1,0-0.2c0-0.1,0-0.1,0-0.2v0l0.1,0c0,0.1,0,0.2,0.1,0.2v0.1
			c0.1,0.2,0.1,0.4,0.1,0.5v0l0,0c0.1,0,0.2,0.1,0.2,0.1h0.1l0.2,0c0.2,0,0.3,0,0.4-0.1c0,0,0.1,0.1,0.1,0.1c0.1,0,0.2,0,0.3,0
			c0,0,0,0,0,0.1h0c0,0,0,0,0,0c0.1,0,0,0,0.1,0.1h0c-0.1,0,0,0.1,0,0.1c-0.1,0-0.1,0,0,0c-0.1,0,0,0-0.1,0c0,0-0.1,0,0,0
			c0,0,0,0,0,0c-0.1,0-0.1,0,0,0.1c-0.1,0-0.1,0.1,0,0.1c0.1,0,0,0,0.1,0h0v0c0,0,0,0.1,0,0.1h-0.1v0.1h0v0h0v0c0,0,0,0,0,0
			c0,0,0.1,0,0,0s-0.1,0,0,0h0.1c0,0,0,0,0,0.1v0c0,0,0,0,0,0l0.1,0.4l0.1,0c0,0,0,0,0.1,0c0,0,0.1,0,0.1,0c0,0,0,0.1,0,0
			s0.1,0,0.1-0.1c0,0,0,0,0,0c0,0,0,0,0,0l0,0l0.2,0c-0.1,0.1-0.2,0.3-0.3,0.4c0,0.1-0.1,0.1-0.1,0.2c0,0,0,0.1-0.1,0.1l0,0l-0.1,0
			c0,0.1-0.1,0.2-0.1,0.2c0,0,0,0,0,0c0,0.1,0,0.1-0.1,0.1c-0.1,0.2-0.3,0.4-0.4,0.6c-0.1,0-0.2,0.1-0.2,0.2l0,0h0
			c-0.3,0.1-0.4,0.4-0.8,0.4c0,0-0.1,0-0.1,0.1c-0.2,0-0.3,0.2-0.5,0.1c0,0,0,0-0.1,0c-0.2,0.1-0.4,0.1-0.6,0c-0.1,0-0.2,0-0.3-0.1
			c0,0-0.1-0.1-0.1,0l0,0c-0.1,0-0.2,0-0.3-0.1c-0.1,0-0.2-0.1-0.2-0.1c-0.3-0.2-0.6-0.4-0.8-0.7c0-0.1,0-0.1-0.1-0.1
			C15.8,13.6,15.8,13.6,15.7,13.6z M20.6,11.7L20.6,11.7L20.6,11.7L20.6,11.7z M19.2,15.9L19.2,15.9C19.2,15.8,19.2,15.8,19.2,15.9
			c-0.1,0-0.1,0.1-0.1,0.1c0,0-0.1,0.1-0.1,0.1c0,0.1-0.1,0.1-0.2,0.2c0,0,0,0,0,0.1c0,0,0,0-0.1,0c0,0-0.1,0-0.1,0.1
			c0,0.1-0.1,0.1-0.1,0c0,0,0,0,0,0l0,0c0,0-0.1,0-0.1,0c0,0,0,0,0,0.1c-0.2,0-0.4,0-0.6,0c0,0,0,0,0,0c-0.1,0.1-0.1,0-0.2,0.1v0
			c0,0-0.1,0-0.1,0c0-0.1-0.1,0-0.1-0.1c0,0-0.1,0-0.1,0l-0.1,0l0,0.1c0,0,0,0,0,0v0h0l0,0.1v0c0,0-0.1-0.1-0.1,0c0,0,0,0,0,0
			s0,0,0,0c0,0,0,0,0,0c-0.1,0-0.1-0.1-0.3-0.1h0c0,0,0,0,0,0c-0.1,0-0.1-0.1-0.2-0.2c0,0-0.1,0.1-0.1,0c0,0,0,0,0,0l-0.1-0.1v-0.1
			c0,0-0.1,0,0,0c0,0,0,0,0,0c0,0,0.1,0,0.1-0.1c0,0,0-0.1,0.1-0.1c0.1,0,0.2,0,0.2-0.1c0-0.1,0.1-0.1,0-0.2
			c0.1-0.1,0.2-0.2,0.2-0.3c0,0,0.1,0,0.1,0.1c0.1,0,0.2,0,0.2,0.1c0.1,0.1,0.3,0.1,0.5,0c0,0,0.1,0,0.1,0c0,0,0,0,0-0.1
			c0.3,0.1,0.6-0.1,0.8,0h0l0,0c0.1,0,0.3-0.1,0.4-0.1c0,0,0,0,0,0l0.1,0c0,0-0.1,0,0,0c0,0,0,0,0,0C19.1,15.5,19.2,15.7,19.2,15.9
			C19.3,15.8,19.3,15.8,19.2,15.9L19.2,15.9L19.2,15.9L19.2,15.9L19.2,15.9z M13.2,18.2C13.2,18.2,13.2,18.2,13.2,18.2
			C13.2,18.2,13.2,18.2,13.2,18.2c0.1-0.1,0.1-0.1,0.1-0.2v0c0,0,0-0.1,0-0.1c0,0,0,0,0,0l0,0c0,0,0.1,0,0.1,0c0,0,0,0,0,0
			c0,0,0,0,0,0c0,0,0,0,0,0c0,0,0,0,0.1,0h0c0,0,0,0,0,0c0,0,0,0,0,0v0c0,0,0,0,0,0s0,0,0,0v0h0c0.1,0,0.1-0.1,0.1-0.1v0
			c0-0.1,0-0.1,0.1-0.1v0h0c0,0,0,0,0,0v0h0c0,0,0-0.1,0-0.1c0.1,0,0.1,0,0.1,0l0-0.1c0.2,0,0.3-0.1,0.4-0.2v-0.1h0
			c0.1,0,0.1,0,0.2-0.1v0c0.1-0.1,0.3-0.2,0.4-0.1v0c0,0,0.1,0,0.1,0v0c0-0.1,0.1,0,0.1-0.1v0c0.1,0,0.2,0,0.3-0.1
			c0,0.1,0.1,0.1,0.1,0.1l0,0c0.1,0,0.1,0.1,0.1,0.1l0,0h0.1c0,0,0,0.1,0,0.1c0,0,0,0,0,0l0.1,0.1h0c0,0,0,0,0,0.1c0,0,0,0,0,0.1
			v0.1c0,0,0,0,0,0c0,0,0,0,0,0.1c0,0,0,0,0,0l0,0c0,0,0,0,0,0c0,0,0,0,0,0h0v0c0,0.1,0.1,0.1,0.1,0.1h0c0.1,0,0.2,0,0.2,0.1h0v0
			c0,0,0,0.1,0,0h0v0c0,0,0.1,0,0.1,0c0,0.1,0.1,0.1,0.1,0.1c0,0,0,0,0-0.1c0.1,0.2,0.3,0.2,0.5,0.2l0,0v0c0,0,0,0,0,0h0
			c0.1,0,0.1,0.1,0.2,0v0c0.1-0.1,0.3-0.1,0.4,0v0c0,0,0.1,0,0.1,0l-0.1-0.1c0-0.1,0.1,0,0.2-0.1v0c0.1,0,0.3,0,0.4-0.1c0,0,0,0,0,0
			h0c0.1,0,0.1,0,0.1,0h0c0,0,0.1,0,0.1,0h0c0,0,0.1,0.1,0.1-0.1c0,0,0,0,0,0c0.1,0.1,0.2,0,0.2-0.1c0.2,0,0.3-0.1,0.4-0.3
			c0-0.1,0-0.1,0-0.1l0-0.1c0.1-0.1,0.2-0.2,0.2-0.3c0,0,0,0,0,0c0.1,0.1,0.4,0.1,0.5,0.2h0v0c0.3,0.2,0.7,0.3,1.1,0.3
			c0,0,0,0.1,0,0.1c0.4,0.2,0.7,0.4,1,0.7c0.2,0.2,0.3,0.5,0.4,0.7c-0.2,0.2-0.4,0.3-0.6,0.5c0,0-0.1,0.1-0.1,0.1
			c-0.2,0.1-0.4,0.1-0.4,0.3c-0.1,0.1-0.2,0.2-0.4,0.2c-0.2,0-0.4,0.2-0.6,0.2l0,0h-0.1c0,0,0,0,0,0c-0.1,0-0.1,0-0.1,0.1
			c-0.1,0.1-0.2,0.1-0.3,0.1c-0.1,0-0.2,0-0.3,0.1c0,0-0.1,0.1-0.2,0.1c-0.1,0-0.1,0.1-0.2,0.1c-0.1,0-0.1,0.1-0.2,0.1
			c-0.1,0-0.2,0-0.3,0c-0.2,0-0.5,0-0.7,0.1c-0.2,0-0.5,0-0.7,0.1c-0.3,0-0.6,0-0.9,0c-0.3,0-0.6-0.1-0.9-0.2h0l0,0
			C15.1,19.4,14.1,18.9,13.2,18.2C13.2,18.2,13.2,18.2,13.2,18.2z M23.7,6.1C23.7,6.2,23.7,6.2,23.7,6.1L23.7,6.1L23.7,6.1z"/>
	</g>
</g>
</svg>
