<?xml version="1.0" encoding="utf-8"?>
<!-- Generator: Adobe Illustrator 25.2.1, SVG Export Plug-In . SVG Version: 6.00 Build 0)  -->
<svg version="1.1" id="Layer_1" xmlns="http://www.w3.org/2000/svg" xmlns:xlink="http://www.w3.org/1999/xlink" x="0px" y="0px"
	 width="134.6px" height="134.6px" viewBox="0 0 134.6 134.6" style="enable-background:new 0 0 134.6 134.6;" xml:space="preserve"
	>
<style type="text/css">
	.st0{fill:#132E52;}
</style>
<path class="st0" d="M67.3,0C30.2,0,0,30.2,0,67.3s30.2,67.3,67.3,67.3s67.3-30.2,67.3-67.3S104.4,0,67.3,0z M67.2,125.9
	c-12.3,0-23.2-13.6-28.2-32.8h56.4C90.4,112.3,79.5,125.9,67.2,125.9z M37.3,85.1c-0.8-5-1.3-10.2-1.3-15.6c0-5.7,0.5-11.3,1.4-16.5
	H97c0.9,5.2,1.4,10.8,1.4,16.5c0,5.4-0.5,10.6-1.3,15.6H37.3z M8,67.3c0-4.9,0.6-9.7,1.8-14.3c0.1,0,0.2,0,0.2,0h19.3
	C28.4,58.2,28,63.8,28,69.5c0,5.4,0.4,10.6,1.1,15.6H10.7C9,79.5,8,73.5,8,67.3z M67.2,13.1c12.1,0,22.8,13.2,28,31.9h-56
	C44.4,26.3,55.1,13.1,67.2,13.1z M105.1,53h19.2c0.2,0,0.4,0,0.5-0.1c1.1,4.6,1.8,9.4,1.8,14.4c0,6.2-1,12.2-2.7,17.8h-18.6
	c0.7-5,1.1-10.2,1.1-15.6C106.4,63.8,106,58.2,105.1,53z M122.2,45h-18.7c-3.9-15.9-11.5-28.5-21.2-35
	C100.5,14.7,115.3,27.9,122.2,45z M51.8,10.1c-9.6,6.5-17.1,19.1-21,34.9H12.4C19.3,28,33.9,14.9,51.8,10.1z M13.9,93.1h16.7
	c2.7,11.7,7.4,21.6,13.5,28.8C30.9,116.3,20.2,106,13.9,93.1z M90.2,122c6.1-7.2,10.9-17.1,13.6-28.9h16.9
	C114.4,106.1,103.5,116.4,90.2,122z"/>
</svg>
