<?xml version="1.0" encoding="utf-8"?>
<!-- Generator: Adobe Illustrator 25.2.1, SVG Export Plug-In . SVG Version: 6.00 Build 0)  -->
<svg version="1.1" id="Layer_1" xmlns="http://www.w3.org/2000/svg" xmlns:xlink="http://www.w3.org/1999/xlink" x="0px" y="0px"
	 width="122.2px" height="118.1px" viewBox="0 0 122.2 118.1" style="enable-background:new 0 0 122.2 118.1;" xml:space="preserve"
	>
<style type="text/css">
	.st0{fill:#0F2D52;}
</style>
<path class="st0" d="M119.6,54.1c2.2-2.1,3.1-5.1,2.3-8c-0.8-2.9-3.2-5-6.2-5.6l-32.5-5.9c0,0,0,0,0,0l-13.6-30c0,0,0,0,0,0
	c-1.3-2.8-4-4.6-7-4.6c-3-0.1-5.7,1.6-7.1,4.2l-15.7,29L7,36.8c-3,0.4-5.5,2.4-6.5,5.2c-1,2.8-0.4,5.9,1.7,8.1L25.1,74l-6.7,32.3
	c-0.6,3,0.4,6,2.8,7.8c2.4,1.9,5.6,2.2,8.4,0.9l29.8-14.4L88,117c1.2,0.7,2.6,1,3.9,1c1.5,0,3-0.4,4.4-1.3c2.5-1.7,3.8-4.6,3.5-7.6
	l-4.5-32.7c0,0,0,0,0,0L119.6,54.1z M89.8,70.5c0,0-0.1,0.1-0.1,0.1c-1.9,1.9-2.7,4.4-2.3,6.8l4.5,32.5L63.1,93.7
	c-1.2-0.7-2.5-1-3.9-1c-1.2,0-2.4,0.3-3.5,0.8l-29.5,14.3l6.6-32.2c0.6-2.6-0.2-5.3-2-7.2L8.1,44.8l32.6-3.6
	c2.6-0.2,4.9-1.7,6.1-4.1l15.6-29L75.9,38c1,2.4,3.2,4.1,5.9,4.5l32.2,5.9L89.8,70.5z"/>
</svg>
