<svg xmlns="http://www.w3.org/2000/svg" width="12.476" height="11.09" viewBox="0 0 12.476 11.09"><defs><style>.a{fill:#007ec5;}</style></defs><path class="a" d="M12.476.52V3.292a.52.52,0,0,1-.887.368l-.773-.773L5.541,8.161a.52.52,0,0,1-.735,0l-.49-.49a.52.52,0,0,1,0-.735L9.59,1.661,8.817.887A.52.52,0,0,1,9.184,0h2.772A.52.52,0,0,1,12.476.52ZM8.816,5.865l-.347.347a.52.52,0,0,0-.152.368V9.7H1.386V2.772H7.1a.52.52,0,0,0,.368-.152l.347-.347a.52.52,0,0,0-.368-.887H1.04A1.04,1.04,0,0,0,0,2.426V10.05a1.04,1.04,0,0,0,1.04,1.04H8.664A1.04,1.04,0,0,0,9.7,10.05V6.233A.52.52,0,0,0,8.816,5.865Z"/></svg>