<?xml version="1.0" encoding="utf-8"?>
<!-- Generator: Adobe Illustrator 25.2.1, SVG Export Plug-In . SVG Version: 6.00 Build 0)  -->
<svg version="1.1" id="Layer_1" xmlns="http://www.w3.org/2000/svg" xmlns:xlink="http://www.w3.org/1999/xlink" x="0px" y="0px"
	 width="122.2px" height="118.1px" viewBox="0 0 122.2 118.1" style="enable-background:new 0 0 122.2 118.1;" xml:space="preserve"
	>
<style type="text/css">
	.st0{fill:#FFC846;}
	.st1{fill:#0F2D52;}
</style>
<path class="st0" d="M66,6.3l13.6,30.1c0.5,1.2,1.6,2,2.9,2.2l32.5,5.9c3.2,0.6,4.3,4.5,1.9,6.7L92.5,73.5c-0.9,0.9-1.4,2.1-1.2,3.4
	l4.5,32.7c0.4,3.2-3,5.5-5.8,3.9L61.2,97.2c-1.1-0.6-2.5-0.7-3.6-0.1l-29.8,14.4c-2.9,1.4-6.2-1.1-5.5-4.3L29,74.8
	c0.3-1.3-0.1-2.6-1-3.5L5.1,47.4c-2.2-2.3-0.8-6.2,2.4-6.6l32.8-3.6c1.3-0.1,2.4-0.9,3-2L59,6.1C60.5,3.2,64.6,3.3,66,6.3z"/>
<path class="st1" d="M91.9,118c-1.3,0-2.7-0.3-3.9-1l-28.7-16.3l-29.8,14.4c-2.8,1.3-6,1-8.4-0.9c-2.4-1.9-3.4-4.9-2.8-7.8L25.1,74
	L2.2,50.2c-2.1-2.2-2.7-5.3-1.7-8.1c1-2.9,3.5-4.9,6.5-5.2l32.8-3.6l15.7-29c1.4-2.6,4.2-4.3,7.1-4.2c3,0.1,5.7,1.8,7,4.6
	c0,0,0,0,0,0l13.6,30c0,0,0,0,0,0l32.5,5.9c3,0.6,5.4,2.7,6.2,5.6c0.8,2.9-0.1,6-2.3,8L95.3,76.4c0,0,0,0,0,0l4.5,32.7
	c0.4,3.1-0.9,6-3.5,7.6C95,117.6,93.5,118,91.9,118z M59.3,92.7c1.3,0,2.7,0.3,3.9,1l28.7,16.2l-4.5-32.5c-0.4-2.4,0.5-4.9,2.3-6.8
	c0,0,0.1-0.1,0.1-0.1L114,48.4l-32.2-5.9c-2.7-0.4-4.9-2.1-5.9-4.5L62.4,8.1l-15.6,29c-1.3,2.3-3.6,3.9-6.1,4.1L8.1,44.8l22.8,23.8
	c1.8,1.8,2.6,4.5,2,7.2l-6.6,32.2l29.5-14.3C56.8,93,58,92.7,59.3,92.7z M25.2,74.1C25.2,74.1,25.2,74.1,25.2,74.1L25.2,74.1z
	 M83.3,34.9L83.3,34.9L83.3,34.9z"/>
</svg>
