<?xml version="1.0" encoding="utf-8"?>
<!-- Generator: Adobe Illustrator 25.2.1, SVG Export Plug-In . SVG Version: 6.00 Build 0)  -->
<svg version="1.1" id="Layer_1" xmlns="http://www.w3.org/2000/svg" xmlns:xlink="http://www.w3.org/1999/xlink" x="0px" y="0px"
	 width="129.7px" height="98.2px" viewBox="0 0 129.7 98.2" style="enable-background:new 0 0 129.7 98.2;" xml:space="preserve">
<style type="text/css">
	.st0{fill:#0F2D52;}
</style>
<path class="st0" d="M121.7,0H8C3.6,0,0,3.6,0,8v82.2c0,4.4,3.6,8,8,8h113.7c4.4,0,8-3.6,8-8V8C129.7,3.6,126.1,0,121.7,0z M116,8
	L64.4,57.9L12.7,8H116z M8,90.2V14.5l53.6,51.8c0.8,0.7,1.8,1.1,2.8,1.1c1,0,2-0.4,2.8-1.1l54.5-52.8v76.6H8z"/>
</svg>
