<?xml version="1.0" standalone="no"?>
<!DOCTYPE svg PUBLIC "-//W3C//DTD SVG 1.1//EN" "http://www.w3.org/Graphics/SVG/1.1/DTD/svg11.dtd" >
<svg xmlns="http://www.w3.org/2000/svg">
<metadata>Generated by IcoMoon</metadata>
<defs>
<font id="icomoon" horiz-adv-x="1024">
<font-face units-per-em="1024" ascent="960" descent="-64" />
<missing-glyph horiz-adv-x="1024" />
<glyph unicode="&#x20;" horiz-adv-x="512" d="" />
<glyph unicode="&#xe900;" horiz-adv-x="912" d="M374.875 760.067c0-96.254-78.030-174.284-174.284-174.284s-174.284 78.030-174.284 174.284c0 96.254 78.030 174.284 174.284 174.284s174.284-78.030 174.284-174.284z" />
<glyph unicode="&#xe901;" horiz-adv-x="912" d="M199.933 559.476c-110.489 0-199.933 90.101-199.933 200.591s90.101 199.933 200.591 199.933c110.489 0 199.933-89.444 199.933-199.933 0-111.147-90.101-200.591-200.591-200.591zM199.933 907.386c-81.552 0-147.319-66.425-147.319-147.977s66.425-147.319 147.977-147.319c81.552 0 147.319 66.425 147.319 147.319 0 82.209-66.425 147.977-147.977 147.977z" />
<glyph unicode="&#xe902;" horiz-adv-x="912" d="M287.404 760.067c0-47.946-38.868-86.813-86.813-86.813s-86.813 38.868-86.813 86.813c0 47.946 38.868 86.813 86.813 86.813s86.813-38.868 86.813-86.813z" />
<glyph unicode="&#xe903;" horiz-adv-x="912" d="M199.933 646.289c-62.479 0-113.12 50.641-113.12 113.778 0 62.479 50.641 113.12 113.778 113.12 62.479 0 113.12-50.641 113.12-113.12 0-63.137-51.299-113.778-113.778-113.778zM199.933 820.573c-33.541 0-60.506-26.965-60.506-60.506s26.965-60.506 60.506-60.506c33.541 0 60.506 26.965 60.506 60.506 0 0 0 0 0 0 0 32.884-26.965 60.506-60.506 60.506z" />
<glyph unicode="&#xe904;" horiz-adv-x="912" d="M188.753 190.52c0 0 65.11-19.73 125.616-104.57s163.761-112.462 163.761-112.462c11.838-7.234 25.649-11.18 39.461-11.18 6.577 0 13.154 0.658 19.73 3.288l303.846 107.859c28.938 10.523 47.353 39.461 44.064 69.714l-88.786 395.92c-9.207 26.307-34.199 44.064-62.479 44.064-7.234-0.658-15.127-1.973-22.361-3.946-28.28-13.154-16.442-65.11-22.361-66.425-6.577-1.973-20.388 21.046-20.388 21.046-9.865 26.965-29.595 45.38-57.218 45.38-7.892 0-15.784-1.315-23.019-3.946-30.911-11.18-46.037-34.199-41.434-78.263 0 0 1.973-22.361-5.261-24.992s-23.676 40.118-23.676 40.118c-9.865 26.965-20.388 64.452-80.894 40.118-27.622-10.523-34.199-41.434-24.334-69.056 0 0 20.388-76.29 12.496-78.921s-131.535 308.45-131.535 308.45c-9.865 26.965-28.28 44.064-55.245 44.064-9.865 0-19.073-1.973-28.28-6.577-31.568-14.469-38.145-52.614-26.307-84.84 0 0 69.056-177.572 89.444-252.547 21.046-74.317 55.245-176.257 55.245-176.257 11.18-4.604-4.604-19.073-44.722 21.703-26.965 27.622-53.272 47.353-66.425 47.353-15.127 2.631-30.911 1.973-46.037-0.658-26.307-5.261-58.533-17.1-67.083-54.587-2.631-47.353 51.956-44.722 84.182-59.848z" />
<glyph unicode="&#xe905;" horiz-adv-x="912" d="M517.59-64c-17.757 0-34.857 4.604-50.641 13.154-21.046 6.577-115.751 38.803-174.284 121.67-53.272 74.975-111.147 94.705-111.805 94.705l-3.288 1.315c-7.892 3.288-15.784 5.919-24.334 7.892-28.938 7.892-77.606 21.046-74.317 77.606l0.658 3.946c8.55 39.461 38.145 64.452 86.813 74.317 15.784 3.288 32.226 3.946 48.010 1.973 1.315 0 1.973-0.658 3.288-0.658 6.577 0 24.334 0 63.137-34.199-10.523 33.541-23.019 73.002-32.884 107.859-19.73 73.002-88.128 247.943-88.786 249.917v0.658c-17.757 49.983-1.315 98.651 40.118 117.724 12.496 5.919 25.649 8.55 38.803 8.55 36.83 0 65.768-22.361 80.236-61.164 24.334-60.506 49.983-124.301 72.344-178.23 7.892 15.127 21.046 26.965 36.83 32.884 28.938 11.18 52.614 12.496 72.344 3.946 11.838-5.919 21.703-14.469 28.28-25.649 9.865 21.703 28.28 38.145 51.299 45.38 9.865 3.946 21.046 5.919 31.568 5.919 24.334 0 46.695-10.523 62.479-28.28 5.261 11.838 14.469 21.046 26.307 26.307l2.631 1.315 2.631 0.658 4.604 1.315c7.892 1.973 15.127 3.288 23.019 3.288 39.461 0 74.317-24.992 87.471-61.821l0.658-3.288 89.444-396.578v-1.315c4.604-42.749-20.388-83.525-61.164-97.336l-303.846-107.859c-7.892-3.946-17.757-5.919-27.622-5.919zM198.618 214.854c12.496-4.604 77.606-30.253 136.796-113.778 53.929-75.633 148.635-101.94 149.292-102.597l4.604-1.315 3.946-2.631c7.234-4.604 16.442-6.577 24.992-6.577 3.946 0 7.892 0.658 11.18 1.315l303.846 107.859c17.1 5.919 27.622 23.019 26.307 40.776l-88.128 392.632c-5.919 15.127-21.046 25.649-37.487 25.649-3.946 0-7.234-1.315-11.18-1.973h-0.658c-1.973-1.973-3.946-9.207-3.946-28.938 0-11.838-0.658-31.568-20.388-38.145-26.307-8.55-45.38 22.361-51.299 32.884l-1.973 3.288-0.658 2.631c-4.604 12.496-13.811 27.622-32.226 27.622-4.604 0-9.207-0.658-13.811-2.631-15.127-5.261-28.28-13.811-24.334-50.641v-0.658c1.973-26.965-5.919-45.38-22.361-51.956-7.234-2.631-15.127-2.631-22.361 0.658-6.577 2.631-17.757 7.892-35.514 55.245l-0.658 2.631c-3.946 11.18-8.55 23.676-15.127 26.965-2.631 1.315-11.18 3.288-30.911-4.604-15.127-5.919-13.154-24.992-9.207-35.514l0.658-1.973c19.73-75.633 21.703-101.94-4.604-110.489-23.019-7.234-33.541 14.469-39.461 25.649-3.946 8.55-9.207 19.73-16.442 35.514-11.18 25.649-26.307 61.821-44.722 106.543-32.226 76.29-63.137 153.896-63.137 155.211v1.315c-9.207 26.965-24.992 26.965-30.911 26.965s-11.838-1.315-17.1-3.946c-18.415-8.55-19.73-32.884-12.496-51.956 4.604-11.838 69.714-180.861 90.101-255.178 17.1-62.479 44.064-144.031 52.614-167.707 4.604-5.261 7.234-12.496 7.234-19.073 0-11.838-7.234-22.361-18.415-26.307-13.811-5.261-38.145-3.946-74.975 33.541-27.622 28.28-44.064 38.145-48.668 39.461-3.288 0-5.919 0.658-8.55 0.658-9.865 1.315-20.388 1.315-30.253-1.315-28.28-5.919-41.434-15.127-46.037-32.226 0-8.55 3.288-12.496 35.514-21.703 9.865-3.288 20.388-6.577 30.911-11.18zM218.348 279.964v0z" />
<glyph unicode="&#xe906;" glyph-name="gsi-icon-arrow-down" d="M739.556-64h-455.111c-159.289 0-284.444 125.156-284.444 284.444v455.111c0 159.289 125.156 284.444 284.444 284.444h455.111c159.289 0 284.444-125.156 284.444-284.444v-455.111c0-159.289-125.156-284.444-284.444-284.444zM284.444 903.111c-125.156 0-227.556-102.4-227.556-227.556v-455.111c0-125.156 102.4-227.556 227.556-227.556h455.111c125.156 0 227.556 102.4 227.556 227.556v455.111c0 125.156-102.4 227.556-227.556 227.556h-455.111zM512 396.8l170.667 170.667c11.378 11.378 34.133 11.378 45.511 0v0c11.378-11.378 11.378-34.133 0-45.511l-193.422-193.422c-11.378-11.378-34.133-11.378-45.511 0l-193.422 193.422c-11.378 11.378-11.378 34.133 0 45.511s34.133 11.378 45.511 0l170.667-170.667z" />
<glyph unicode="&#xe907;" horiz-adv-x="812" d="M422.914 586.034c-153.372 114.866-381.145-9.79-395.503-235.605-18.927-286.511 233.647-416.388 356.344-370.702 116.171-60.696 383.103 35.243 401.377 321.754 14.358 225.163-195.141 379.187-362.218 284.553z" />
<glyph unicode="&#xe908;" horiz-adv-x="812" d="M398.113 596.477c-3.916 0-7.179 0.653-10.442 2.611-1.958 0.653-208.194 96.591-162.509 313.27 1.305 7.179 5.874 13.053 12.4 16.969 3.916 2.611 8.484 3.916 13.053 3.916 2.611 0 5.221-0.653 7.179-1.305 53.517-15.663 106.381-62.001 139.666-124.655 33.938-63.307 43.727-133.792 25.453-192.53-1.958-7.179-7.179-13.053-14.358-16.316-2.611-0.653-6.526-1.958-10.442-1.958z" />
<glyph unicode="&#xe909;" horiz-adv-x="812" d="M665.698 599.74c-62.001 39.159-133.14 49.601-198.404 31.98 63.959 146.845 234.3 178.172 242.131 179.477 14.358 2.611 24.148 15.663 21.537 30.022s-16.316 24.148-30.022 21.537c-7.832-1.305-155.982-28.064-244.742-146.845-5.221 35.243-16.316 71.138-34.59 104.423-38.506 68.528-96.591 120.087-156.635 137.708-4.569 1.305-10.442 1.958-15.011 1.958-9.137 0-18.927-2.611-26.758-7.179-12.4-7.832-21.537-19.579-24.148-33.938-20.232-98.549 3.916-189.267 71.138-263.016 0.653-0.653 0.653-0.653 1.305-1.305-29.369-2.611-59.391-10.442-87.454-23.495-104.423-48.296-174.256-154.677-182.088-278.679-9.137-140.319 45.033-265.627 148.15-342.639 75.054-55.475 164.467-77.665 232.342-58.085 24.148-10.442 52.212-15.663 81.581-15.663 50.254 0 105.728 15.011 157.287 43.727 112.255 63.307 181.435 179.477 190.572 319.796 7.179 124.003-48.948 239.521-146.192 300.217zM249.963 907.788c92.676-26.758 178.825-162.509 149.456-276.721-13.053 6.526-27.411 11.748-41.117 15.663-52.212 37.201-137.055 120.739-108.339 261.058zM759.026 303.439c-10.442-167.73-107.034-246.047-163.814-278.027-69.833-39.159-150.108-48.296-199.057-22.19-3.916 1.958-7.832 3.263-12.4 3.263-3.263 0-5.874-0.653-9.137-1.958-52.212-19.579-129.876-0.653-193.836 47.643-52.212 39.159-138.361 129.224-127.266 296.953 6.526 104.423 64.612 194.488 152.066 234.3 43.727 20.232 89.412 25.453 131.834 15.011 20.885-13.706 36.548-21.537 39.811-22.843 6.526-3.263 14.358-4.569 21.537-4.569 0 0 0 0 0 0 1.958-1.305 3.263-2.611 5.221-3.916 3.916-4.569 8.484-7.832 14.358-8.484 1.958-0.653 3.916-0.653 5.221-0.653 7.832 0 15.663 3.916 20.232 9.79 61.349 30.674 131.182 26.758 193.183-12.4 82.233-50.906 128.571-147.498 122.045-251.921z" />
<glyph unicode="&#xe90a;" horiz-adv-x="812" d="M157.287 302.786c-1.958 0-4.569 0-6.526 0.653-13.706 3.916-22.19 17.621-18.927 31.98 24.801 95.939 87.454 140.971 135.098 162.509 13.053 5.874 28.716 0 34.59-13.053s0-28.716-13.053-34.59c-37.201-16.316-85.496-52.212-105.076-127.266-3.916-12.4-14.358-20.232-26.106-20.232z" />
<glyph unicode="&#xe90b;" horiz-adv-x="570" d="M171.043 815.488c2.258-24.273 23.709-41.773 47.418-39.515 24.273 2.258 41.773 23.709 39.515 47.418-2.258 24.273-23.709 41.773-47.418 39.515s-41.773-23.709-39.515-47.418z" />
<glyph unicode="&#xe90c;" horiz-adv-x="570" d="M214.509 753.394c-15.241 0-29.918 5.080-41.773 15.241-13.548 11.29-22.015 27.096-23.709 45.16-3.387 36.128 23.144 68.304 59.837 72.256 17.499 1.693 34.434-3.387 48.547-14.677 13.548-11.29 22.015-27.096 23.709-45.16 1.129-18.064-4.516-35.563-15.806-49.111s-27.096-22.015-45.16-23.709c-1.693 0-3.951 0-5.645 0zM214.509 840.326c-0.564 0-1.129 0-1.693 0-11.29-1.129-20.322-11.29-19.193-22.58 0 0 0 0 0 0 0.564-5.645 3.387-10.725 7.338-14.677 4.516-3.387 9.596-5.080 15.241-4.516s10.725 3.387 14.677 7.338c3.387 4.516 5.080 9.596 4.516 15.241s-3.387 10.725-7.338 14.677c-3.951 2.822-8.467 4.516-13.548 4.516z" />
<glyph unicode="&#xe90d;" horiz-adv-x="570" d="M90.884 904.115c1.693-16.935 16.37-28.789 33.305-27.66s28.789 16.37 27.66 33.305c-1.693 16.935-16.37 28.789-33.305 27.66s-29.354-16.37-27.66-33.305z" />
<glyph unicode="&#xe90e;" horiz-adv-x="570" d="M121.932 853.874c-27.66 0-50.805 20.322-53.627 47.982v0c-1.693 14.112 2.822 28.789 12.419 39.515 9.032 10.725 22.015 17.499 36.128 18.628 29.354 1.693 54.192-19.193 57.014-47.982 0 0 0-0.564 0-0.564 1.129-14.112-3.387-27.66-11.854-38.386-9.032-11.29-22.015-18.064-36.692-19.193-1.129 0-2.258 0-3.387 0zM120.803 914.84c0 0-0.564 0-0.564 0-2.258 0-3.951-1.693-5.080-2.258-0.564-1.129-2.258-3.387-1.693-6.209 0 0 0 0 0 0 0.564-4.516 4.516-7.903 9.596-7.338 1.693 0 3.387 1.129 4.516 2.258 1.129 1.693 2.258 3.951 2.258 6.209-1.129 4.516-4.516 7.338-9.032 7.338z" />
<glyph unicode="&#xe90f;" horiz-adv-x="570" d="M327.974 479.612l-16.37 138.302 28.225 2.822-5.645 102.174-189.107-17.499 5.645-102.174 28.225 2.822 16.37-138.302c-109.513-39.515-182.897-149.592-171.607-270.959 13.548-144.512 141.125-250.637 285.636-237.089s250.637 141.125 237.089 285.636c-11.29 120.803-103.303 215.074-218.461 234.267z" />
<glyph unicode="&#xe910;" horiz-adv-x="570" d="M24.838 196.798v-0.564c12.983-143.947 139.996-249.508 283.378-236.525s248.944 140.56 235.396 284.507v0.564l-518.774-47.982z" />
<glyph unicode="&#xe911;" horiz-adv-x="570" d="M220.719 99.14c2.258-23.709 23.144-40.644 46.289-38.386 23.709 2.258 40.644 23.144 38.386 46.289-2.258 23.709-23.144 40.644-46.289 38.386-23.709-2.258-40.644-23.144-38.386-46.289z" />
<glyph unicode="&#xe912;" horiz-adv-x="570" d="M263.056 38.174c-15.241 0-29.354 5.080-41.208 14.677-13.548 11.29-22.015 26.531-23.144 44.031-1.693 17.499 3.387 33.87 14.677 47.418s26.531 22.015 44.031 23.144c16.935 1.693 33.87-3.387 47.418-14.677s22.015-26.531 23.144-44.031c1.693-16.935-3.387-33.87-14.677-47.418s-26.531-22.015-44.031-23.144c-2.258 0-4.516 0-6.209 0zM263.056 122.849c-0.564 0-1.129 0-1.693 0-5.645-0.564-10.161-2.822-13.548-7.338-3.387-3.951-5.080-9.032-4.516-14.677 0 0 0 0 0 0 0.564-5.645 2.822-10.161 7.338-13.548 3.951-3.387 9.032-5.080 14.677-4.516s10.161 2.822 13.548 7.338c3.387 3.951 5.080 9.032 4.516 14.677s-2.822 10.161-7.338 13.548c-3.951 3.387-8.467 4.516-12.983 4.516z" />
<glyph unicode="&#xe913;" horiz-adv-x="570" d="M178.946 222.201c-25.967 0-46.853 19.193-49.676 45.16-2.258 27.096 17.499 51.369 45.16 54.192 1.693 0 2.822 0 4.516 0 25.967 0 46.853-19.193 49.676-45.16 2.258-27.096-17.499-51.369-45.16-54.192-1.693 0-3.387 0-4.516 0z" />
<glyph unicode="&#xe914;" horiz-adv-x="570" d="M569.014 247.603c-11.29 123.061-101.045 224.106-220.719 251.202l-11.854 99.352 5.080 0.564c11.854 1.129 20.886 11.854 20.322 23.709l-5.645 102.174c-0.564 6.209-3.387 11.854-7.903 15.806s-10.725 6.209-16.935 5.645l-189.107-17.499c-11.854-1.129-20.886-11.854-20.322-23.709l5.645-102.174c0.564-6.209 3.387-11.854 7.903-15.806s10.725-6.209 16.935-5.080l6.209 0.564 11.854-98.787c-111.771-48.547-181.204-164.269-169.35-287.894 7.338-75.643 43.466-144.512 101.61-193.058 51.369-42.902 115.158-65.482 181.204-65.482 9.032 0 18.064 0.564 27.096 1.129 75.643 7.338 144.512 43.466 193.058 101.61 49.111 57.579 71.691 131.528 64.917 207.735zM152.415 269.619c-1.129 14.677 9.596 28.225 24.273 29.354 0.564 0 1.129 0 2.258 0 14.112 0 25.402-10.725 27.096-24.838 1.129-14.677-9.596-28.225-24.273-29.354-0.564 0-1.693 0-2.258 0-14.112 0-25.402 10.725-27.096 24.838zM522.161 219.943c0-55.885-19.193-109.513-55.321-153.544-40.644-49.111-97.658-79.030-160.882-84.675s-125.319 13.548-173.865 54.192c-43.466 36.128-71.691 85.239-81.852 139.996l471.921 44.031zM203.219 446.307c10.161 3.387 15.806 13.548 14.677 23.709l-16.37 138.302c-1.129 11.29-11.29 19.757-22.58 19.757-0.564 0-1.693 0-2.258 0l-4.516-0.564-3.387 57.014 143.947 13.548 3.387-57.014-6.774-0.564c-6.209-0.564-11.29-3.387-15.241-8.467-3.951-4.516-5.645-10.725-5.080-16.935l16.37-138.302c1.129-10.161 9.032-18.064 18.628-19.757 99.916-16.935 177.817-94.271 196.445-191.929l-277.169-25.402c5.645 11.854 8.467 25.402 7.338 38.95-3.387 37.257-34.434 65.482-71.691 65.482-2.258 0-4.516 0-6.774-0.564-19.193-1.693-36.692-10.725-49.111-25.967-12.419-14.677-18.064-33.87-16.37-53.063 1.129-13.548 6.209-25.967 13.548-36.128l-75.078-6.774c0 99.916 62.659 190.236 158.060 224.67z" />
<glyph unicode="&#xe915;" horiz-adv-x="570" d="M289.023 343.003c-18.064 0-33.305 13.548-34.999 31.612-1.693 19.193 12.419 36.128 31.612 38.386 1.129 0 2.258 0 3.387 0 18.064 0 33.305-13.548 34.999-31.612 1.129-9.596-1.693-18.628-7.903-25.402-6.209-7.338-14.677-11.854-23.709-12.419-1.693-0.564-2.258-0.564-3.387-0.564v0z" />
<glyph unicode="&#xe916;" horiz-adv-x="570" d="M289.023 390.421c6.209 0 11.854-5.080 12.419-11.29 0.564-6.774-4.516-12.983-11.29-13.548-0.564 0-0.564 0-1.129 0-6.209 0-11.854 5.080-12.419 11.29-0.564 6.774 4.516 12.983 11.29 13.548 0 0 0.564 0 1.129 0zM289.023 435.581c-1.693 0-3.387 0-5.080 0-15.241-1.693-29.354-8.467-38.95-20.322s-14.677-26.531-12.983-42.337c2.822-29.918 27.66-52.498 57.579-52.498 1.693 0 3.387 0 5.080 0 15.241 1.693 29.354 8.467 38.95 20.322s14.677 26.531 12.983 42.337c-3.387 29.918-27.66 52.498-57.579 52.498v0z" />
<glyph unicode="&#xe917;" horiz-adv-x="822" d="M519.842 821.077c0-60.225-48.822-109.047-109.047-109.047s-109.047 48.822-109.047 109.047c0 60.225 48.822 109.047 109.047 109.047s109.047-48.822 109.047-109.047z" />
<glyph unicode="&#xe918;" horiz-adv-x="822" d="M790.967 62.973c-29.876 23.901-59.005 369.716-64.98 441.418 0 0.747 0 1.494 0 1.494 0 169.546-141.164 306.229-314.445 306.229-174.028 0-314.445-137.43-314.445-306.229 0-1.494 0-2.241 0-3.735-5.228-74.69-30.623-410.048-64.98-439.924-39.586-32.864 791.714-25.395 758.85 0.747z" />
<glyph unicode="&#xe919;" horiz-adv-x="822" d="M791.714 62.973c0-54.038-170.209-97.844-380.172-97.844s-380.172 43.806-380.172 97.844c0 54.038 170.209 97.844 380.172 97.844s380.172-43.806 380.172-97.844z" />
<glyph unicode="&#xe91a;" horiz-adv-x="822" d="M519.842 157.082c-34.357 2.241-70.209 3.735-108.301 3.735s-74.69-1.494-109.794-4.481c2.241-58.258 50.042-104.566 109.047-104.566s106.807 47.055 109.047 105.313z" />
<glyph unicode="&#xe91b;" horiz-adv-x="822" d="M821.59 66.708c-0.747 13.444-5.975 25.395-15.685 35.851-11.95 47.055-30.623 170.293-50.042 402.579v0c0 137.43-85.147 256.187-206.144 307.723 0 2.241 0 4.481 0 7.469 0 77.678-61.993 139.67-138.923 139.67s-138.923-61.993-138.923-138.923c0-2.988 0-5.228 0-8.216-120.251-52.283-204.651-170.293-204.651-306.976v-2.988c-12.697-184.484-32.117-339.093-47.802-398.098-10.457-11.204-16.432-23.901-17.179-37.345-1.494-5.975-1.494-12.697 0.747-18.673 0.747-1.494 0.747-2.241 1.494-3.735 28.382-85.894 264.403-109.794 407.061-109.794 147.886 0 395.11 25.395 409.301 118.757 0.747 4.481 1.494 8.963 0.747 12.697zM410.795 900.248c39.586 0 72.449-29.129 78.425-67.221-24.648 5.975-50.789 8.963-77.678 8.963s-53.777-2.988-79.171-8.963c5.975 38.092 38.839 67.221 78.425 67.221zM126.973 499.91c0 0.747 0 1.494 0 2.241v3.735c0 152.368 127.72 276.353 284.569 276.353s284.569-123.985 284.569-276.353v-1.494c0-0.747 0-1.494 0-2.241 14.938-181.497 28.382-289.797 40.333-355.524-56.764 21.66-134.442 33.611-209.132 39.586-1.494 0.747-3.735 0.747-5.975 0.747-31.37 2.241-60.499 2.988-88.881 3.735-7.469 0-14.191 0-20.913 0-8.216 0-16.432 0-24.648 0-2.988 0-5.975 0-8.963 0-5.975 0-11.204 0-17.179-0.747-2.988 0-6.722 0-9.71-0.747-7.469 0-15.685-0.747-23.901-1.494-0.747 0-0.747 0-1.494 0-81.412-5.228-172.534-17.179-236.767-41.080 11.95 66.474 25.395 174.028 38.092 353.284zM407.061 130.941c0.747 0 1.494 0 2.988 0 11.204 0 23.154 0 35.104-0.747 0.747 0 0.747 0 1.494 0 11.204 0 22.407-0.747 33.611-1.494 1.494 0 2.988 0 3.735 0-11.95-28.382-40.333-47.802-72.449-47.802-32.864 0-60.499 19.419-72.449 47.055 21.66 2.241 44.067 2.988 67.968 2.988zM411.542-4.995c-211.373 0-338.346 43.32-350.296 67.968 8.963 18.673 85.147 48.549 215.107 61.246 15.685-59.752 69.462-102.325 134.442-102.325 64.233 0 118.010 43.32 133.695 103.072 130.708-12.697 207.638-43.32 216.601-61.993-11.204-23.901-138.177-67.968-349.549-67.968z" />
<glyph unicode="&#xe91c;" horiz-adv-x="1998" d="M911.544-0.203c-33.521 0-61.635 27.033-61.635 62.716l-1.081 65.96c0 23.789 18.382 43.252 41.090 44.334l210.855 8.65c1.081 0 1.081 0 2.163 0 10.813 0 21.626-4.325 29.195-11.894 8.65-7.569 12.976-19.464 14.057-30.277l1.081-65.96c1.081-34.602-25.951-63.797-60.553-65.96l-173.010-7.569c0 0-1.081 0-2.163 0z" />
<glyph unicode="&#xe91d;" horiz-adv-x="1998" d="M86.505-20.748c-11.894 0-23.789 5.407-32.439 14.057-9.732 10.813-12.976 24.87-9.732 38.927l143.814 581.744c2.163 6.488 5.407 12.976 9.732 18.382 109.212 120.025 264.921 180.579 463.882 180.579 180.579 0 329.799-51.903 336.287-54.065 17.301-6.488 28.114-21.626 29.195-40.008l10.813-568.769c0-21.626-15.138-41.090-36.765-43.252l-908.3-127.595c-2.163 0-4.325 0-6.488 0z" />
<glyph unicode="&#xe91e;" horiz-adv-x="1998" d="M1909.592 58.188l-911.544 49.74c-22.707 1.081-40.008 19.464-41.090 42.171l-10.813 568.769c0 17.301 9.732 33.521 25.951 40.008 7.569 3.244 195.717 85.423 407.654 85.423 164.359 0 297.36-48.659 396.841-144.895 5.407-5.407 9.732-11.894 11.894-18.382l165.44-568.769c4.325-12.976 1.081-28.114-7.569-38.927s-20.545-16.22-33.521-16.22c-2.163 1.081-3.244 1.081-3.244 1.081z" />
<glyph unicode="&#xe91f;" horiz-adv-x="1998" d="M340.612 807.535l-118.944-623.916c342.775 131.92 762.323-33.521 762.323-33.521l-10.813 645.542c0 0-245.457 189.229-632.566 11.894z" />
<glyph unicode="&#xe920;" horiz-adv-x="1998" d="M1631.696 869.17l138.408-612.021c-347.1 98.399-759.079-107.050-759.079-107.050l-10.813 645.542c0 1.081 237.888 213.018 631.485 73.529z" />
<glyph unicode="&#xe921;" horiz-adv-x="1998" d="M1993.935 125.229l-165.44 568.769c-4.325 14.057-11.894 27.033-22.707 37.846-35.683 34.602-74.61 62.716-117.863 86.505l-14.057 60.553c-3.244 14.057-14.057 25.951-28.114 31.358-347.1 123.269-583.907-15.138-647.704-60.553-4.325-3.244-8.65-6.488-12.976-9.732-59.472 38.927-303.848 170.847-662.843 6.488-12.976-5.407-21.626-17.301-24.87-31.358l-9.732-54.065c-45.415-27.033-85.423-60.553-121.107-99.48-9.732-10.813-16.22-23.789-20.545-37.846l-143.814-580.663c-6.488-28.114 0-57.309 19.464-78.936 16.22-18.382 40.008-28.114 63.797-28.114 4.325 0 7.569 0 11.894 1.081l711.502 99.48c11.894-45.415 52.984-78.936 101.643-78.936 1.081 0 3.244 0 4.325 0l173.010 7.569c49.74 2.163 90.83 40.008 99.48 88.667l723.396-38.927c25.951 0 50.822 11.894 68.122 32.439 17.301 21.626 22.707 50.822 15.138 77.854zM1594.931 835.649l117.863-521.191c-250.864 44.334-513.622-40.008-641.217-90.83l-18.382-1.081-9.732 552.549c51.903 38.927 247.62 160.034 551.468 60.553zM378.458 777.259c295.197 126.513 494.158 30.277 551.468-4.325l9.732-553.63-20.545-2.163c-86.505 25.951-233.563 60.553-395.759 60.553-80.017 0-163.278-8.65-245.457-30.277l100.562 529.842zM86.505 22.505l143.814 581.744c6.488 7.569 14.057 15.138 21.626 21.626 0 4.325 1.081 8.65 2.163 14.057 5.407 16.22 12.976 33.521 20.545 50.822l-95.155-499.565c-3.244-15.138 3.244-31.358 15.138-41.090s28.114-12.976 43.252-7.569c196.798 75.692 423.873 47.578 572.013 12.976-3.244-8.65-4.325-18.382-4.325-28.114v-5.407l-719.071-99.48zM1084.553 50.619l-173.010-7.569c0 0 0 0-1.081 0-5.407 0-9.732 2.163-12.976 6.488l104.887 15.138 96.237-5.407c-3.244-5.407-8.65-8.65-14.057-8.65zM1188.359 140.367v1.081c0 10.813-2.163 20.545-5.407 30.277 145.977 48.659 374.133 100.562 575.257 44.334 15.138-4.325 30.277 0 41.090 9.732s16.22 25.951 12.976 41.090l-97.318 429.28c10.813-8.65 20.545-17.301 31.358-27.033l165.44-568.769-723.396 40.008z" />
<glyph unicode="&#xe922;" horiz-adv-x="796" d="M694.857 930.146h-594.099c-38.81 0-70.904-32.093-70.904-70.904v-822.484c0-38.81 32.093-70.904 70.904-70.904h594.099c38.81 0 70.904 32.093 70.904 70.904v822.484c0 38.81-32.093 70.904-70.904 70.904z" />
<glyph unicode="&#xe923;" horiz-adv-x="796" d="M694.857-64h-594.099c-55.23 0-100.758 45.528-100.758 100.758v822.484c0 55.23 45.528 100.758 100.758 100.758h594.099c55.23 0 100.758-45.528 100.758-100.758v-822.484c0-55.23-45.528-100.758-100.758-100.758zM100.758 900.292c-22.391 0-41.050-18.659-41.050-41.050v-822.484c0-22.391 18.659-41.050 41.050-41.050h594.099c22.391 0 41.050 18.659 41.050 41.050v822.484c0 22.391-18.659 41.050-41.050 41.050h-594.099z" />
<glyph unicode="&#xe924;" horiz-adv-x="796" d="M631.417 816.7h-467.219c-10.449 0-19.405-10.449-19.405-23.883v-85.085c0-13.434 8.956-23.883 19.405-23.883h467.219c10.449 0 19.405 10.449 19.405 23.883v84.338c0 13.434-8.956 24.63-19.405 24.63z" />
<glyph unicode="&#xe925;" horiz-adv-x="796" d="M631.417 653.994h-467.219c-26.869 0-49.259 23.883-49.259 53.738v85.085c0 29.854 22.391 53.738 49.259 53.738h467.219c26.869 0 49.259-24.63 49.259-54.484v-84.338c0-29.854-22.391-53.738-49.259-53.738zM174.647 713.703h446.321v73.143h-446.321v-73.143zM631.417 786.845v0 0z" />
<glyph unicode="&#xe926;" horiz-adv-x="796" d="M227.638 586.076h-74.636c-4.478 0-8.21-3.732-8.21-8.21v-74.636c0-4.478 3.732-8.21 8.21-8.21h74.636c4.478 0 8.21 3.732 8.21 8.21v74.636c-0.746 4.478-3.732 8.21-8.21 8.21z" />
<glyph unicode="&#xe927;" horiz-adv-x="796" d="M365.714 586.076h-74.636c-4.478 0-8.21-3.732-8.21-8.21v-74.636c0-4.478 3.732-8.21 8.21-8.21h74.636c4.478 0 8.21 3.732 8.21 8.21v74.636c0 4.478-3.732 8.21-8.21 8.21z" />
<glyph unicode="&#xe928;" horiz-adv-x="796" d="M504.536 586.076h-74.636c-4.478 0-8.21-3.732-8.21-8.21v-74.636c0-4.478 3.732-8.21 8.21-8.21h74.636c4.478 0 8.21 3.732 8.21 8.21v74.636c-0.746 4.478-4.478 8.21-8.21 8.21z" />
<glyph unicode="&#xe929;" horiz-adv-x="796" d="M642.612 586.076h-74.636c-4.478 0-8.21-3.732-8.21-8.21v-74.636c0-4.478 3.732-8.21 8.21-8.21h74.636c4.478 0 8.21 3.732 8.21 8.21v74.636c0 4.478-3.732 8.21-8.21 8.21z" />
<glyph unicode="&#xe92a;" horiz-adv-x="796" d="M227.638 453.224h-74.636c-4.478 0-8.21-3.732-8.21-8.21v-74.636c0-4.478 3.732-8.21 8.21-8.21h74.636c4.478 0 8.21 3.732 8.21 8.21v74.636c-0.746 4.478-3.732 8.21-8.21 8.21z" />
<glyph unicode="&#xe92b;" horiz-adv-x="796" d="M365.714 453.224h-74.636c-4.478 0-8.21-3.732-8.21-8.21v-74.636c0-4.478 3.732-8.21 8.21-8.21h74.636c4.478 0 8.21 3.732 8.21 8.21v74.636c0 4.478-3.732 8.21-8.21 8.21z" />
<glyph unicode="&#xe92c;" horiz-adv-x="796" d="M504.536 453.224h-74.636c-4.478 0-8.21-3.732-8.21-8.21v-74.636c0-4.478 3.732-8.21 8.21-8.21h74.636c4.478 0 8.21 3.732 8.21 8.21v74.636c-0.746 4.478-4.478 8.21-8.21 8.21z" />
<glyph unicode="&#xe92d;" horiz-adv-x="796" d="M642.612 453.224h-74.636c-4.478 0-8.21-3.732-8.21-8.21v-74.636c0-4.478 3.732-8.21 8.21-8.21h74.636c4.478 0 8.21 3.732 8.21 8.21v74.636c0 4.478-3.732 8.21-8.21 8.21z" />
<glyph unicode="&#xe92e;" horiz-adv-x="796" d="M227.638 187.522h-74.636c-4.478 0-8.21-3.732-8.21-8.21v-74.636c0-4.478 3.732-8.21 8.21-8.21h74.636c4.478 0 8.21 3.732 8.21 8.21v74.636c-0.746 5.224-3.732 8.21-8.21 8.21z" />
<glyph unicode="&#xe92f;" horiz-adv-x="796" d="M365.714 187.522h-74.636c-4.478 0-8.21-3.732-8.21-8.21v-74.636c0-4.478 3.732-8.21 8.21-8.21h74.636c4.478 0 8.21 3.732 8.21 8.21v74.636c0 5.224-3.732 8.21-8.21 8.21z" />
<glyph unicode="&#xe930;" horiz-adv-x="796" d="M504.536 187.522h-74.636c-4.478 0-8.21-3.732-8.21-8.21v-74.636c0-4.478 3.732-8.21 8.21-8.21h74.636c4.478 0 8.21 3.732 8.21 8.21v74.636c-0.746 5.224-4.478 8.21-8.21 8.21z" />
<glyph unicode="&#xe931;" horiz-adv-x="796" d="M642.612 187.522h-74.636c-4.478 0-8.21-3.732-8.21-8.21v-74.636c0-4.478 3.732-8.21 8.21-8.21h74.636c4.478 0 8.21 3.732 8.21 8.21v74.636c0 5.224-3.732 8.21-8.21 8.21z" />
<glyph unicode="&#xe932;" horiz-adv-x="796" d="M227.638 320.373h-74.636c-4.478 0-8.21-3.732-8.21-8.21v-74.636c0-4.478 3.732-8.21 8.21-8.21h74.636c4.478 0 8.21 3.732 8.21 8.21v74.636c-0.746 4.478-3.732 8.21-8.21 8.21z" />
<glyph unicode="&#xe933;" horiz-adv-x="796" d="M365.714 320.373h-74.636c-4.478 0-8.21-3.732-8.21-8.21v-74.636c0-4.478 3.732-8.21 8.21-8.21h74.636c4.478 0 8.21 3.732 8.21 8.21v74.636c0 4.478-3.732 8.21-8.21 8.21z" />
<glyph unicode="&#xe934;" horiz-adv-x="796" d="M504.536 320.373h-74.636c-4.478 0-8.21-3.732-8.21-8.21v-74.636c0-4.478 3.732-8.21 8.21-8.21h74.636c4.478 0 8.21 3.732 8.21 8.21v74.636c-0.746 4.478-4.478 8.21-8.21 8.21z" />
<glyph unicode="&#xe935;" horiz-adv-x="796" d="M642.612 320.373h-74.636c-4.478 0-8.21-3.732-8.21-8.21v-74.636c0-4.478 3.732-8.21 8.21-8.21h74.636c4.478 0 8.21 3.732 8.21 8.21v74.636c0 4.478-3.732 8.21-8.21 8.21z" />
<glyph unicode="&#xe936;" horiz-adv-x="1013" d="M920.908 813.055h-828.586c-33.851 0-61.548-27.696-61.548-61.548v-723.955c0-33.851 27.696-61.548 61.548-61.548h828.586c33.851 0 61.548 27.696 61.548 61.548v723.955c0 33.851-27.696 61.548-61.548 61.548z" />
<glyph unicode="&#xe937;" horiz-adv-x="1013" d="M169.256 181.421h113.094v-113.094h-113.094v113.094z" />
<glyph unicode="&#xe938;" horiz-adv-x="1013" d="M356.207 181.421h113.094v-113.094h-113.094v113.094z" />
<glyph unicode="&#xe939;" horiz-adv-x="1013" d="M543.158 181.421h113.094v-113.094h-113.094v113.094z" />
<glyph unicode="&#xe93a;" horiz-adv-x="1013" d="M730.11 181.421h113.094v-113.094h-113.094v113.094z" />
<glyph unicode="&#xe93b;" horiz-adv-x="1013" d="M169.256 369.911h113.094v-113.094h-113.094v113.094z" />
<glyph unicode="&#xe93c;" horiz-adv-x="1013" d="M356.207 369.911h113.094v-113.094h-113.094v113.094z" />
<glyph unicode="&#xe93d;" horiz-adv-x="1013" d="M543.158 369.911h113.094v-113.094h-113.094v113.094z" />
<glyph unicode="&#xe93e;" horiz-adv-x="1013" d="M730.11 369.911h113.094v-113.094h-113.094v113.094z" />
<glyph unicode="&#xe93f;" horiz-adv-x="1013" d="M356.207 559.171h113.094v-113.094h-113.094v113.094z" />
<glyph unicode="&#xe940;" horiz-adv-x="1013" d="M543.158 559.171h113.094v-113.094h-113.094v113.094z" />
<glyph unicode="&#xe941;" horiz-adv-x="1013" d="M730.11 559.171h113.094v-113.094h-113.094v113.094z" />
<glyph unicode="&#xe942;" horiz-adv-x="1013" d="M982.455 636.105v115.402c0 33.851-27.696 61.548-61.548 61.548h-828.586c-33.851 0-61.548-27.696-61.548-61.548v-115.402h951.681z" />
<glyph unicode="&#xe943;" horiz-adv-x="1013" d="M920.908 843.829h-14.618v58.47c0 32.313-21.542 57.701-48.469 57.701h-13.079c-26.927 0-48.469-25.388-48.469-57.701v-58.47h-120.018v58.47c0 32.313-21.542 57.701-48.469 57.701h-13.079c-26.927 0-48.469-25.388-48.469-57.701v-58.47h-120.018v58.47c0 32.313-21.542 57.701-48.469 57.701h-13.079c-26.927 0-48.469-25.388-48.469-57.701v-58.47h-120.018v58.47c0 32.313-21.542 57.701-48.469 57.701h-13.079c-26.927 0-48.469-25.388-48.469-57.701v-58.47h-13.848c-50.777 0-92.322-41.545-92.322-92.322v-723.955c0-50.777 41.545-92.322 92.322-92.322h828.586c50.777 0 92.322 41.545 92.322 92.322v723.955c0 50.777-41.545 92.322-92.322 92.322zM61.548 751.507c0 16.926 13.848 30.774 30.774 30.774h18.464c7.693-19.234 23.85-32.313 43.853-32.313h13.079c19.234 0 36.159 13.079 43.853 32.313h130.020c7.693-19.234 23.85-32.313 43.853-32.313h13.079c19.234 0 36.159 13.079 43.853 32.313h130.020c7.693-19.234 23.85-32.313 43.853-32.313h13.079c19.234 0 36.159 13.079 43.853 32.313h130.020c7.693-19.234 23.85-32.313 43.853-32.313h13.079c19.234 0 36.159 13.079 43.853 32.313h19.234c16.926 0 30.774-13.848 30.774-30.774v-84.628h-892.442v84.628zM920.908-3.222h-828.586c-16.926 0-30.774 13.848-30.774 30.774v577.779h890.134v-577.779c0-16.926-13.848-30.774-30.774-30.774z" />
<glyph unicode="&#xe944;" horiz-adv-x="926" d="M502.42 539.188c-122.057-20.579-199.407 225.663-199.407 225.663l-14.193-124.186c161.087-337.076 325.721-515.193 422.231-649.314 26.966-37.611 85.866-7.806 72.383 36.191-70.254 220.696-281.015 511.645-281.015 511.645z" />
<glyph unicode="&#xe945;" horiz-adv-x="926" d="M317.915 567.573c-4.967 0-9.935 2.839-12.773 7.806-7.096 14.193-14.193 29.095-21.289 43.288-8.516-8.516-19.16-15.612-29.805-20.579-16.322-7.806-34.062-12.064-52.513-12.064-59.609 0-119.218 40.449-151.152 103.606-23.418 46.126-28.385 97.929-13.483 141.217 11.354 33.353 34.062 59.609 63.157 73.802 16.322 8.516 34.062 12.773 52.513 12.773 60.319 0 119.218-40.449 151.152-103.606 10.644-20.579 17.031-42.578 19.87-65.286 11.354-29.805 34.062-83.737 65.996-128.444 2.129-3.548 3.548-7.806 2.129-12.064-0.71-4.258-3.548-7.806-7.806-9.225l-60.319-29.095c-2.129-1.419-4.258-2.129-5.677-2.129zM162.506 827.299c-7.806 0-14.902-1.419-21.289-4.967-12.064-5.677-21.289-16.322-26.256-30.514-7.096-19.87-4.258-44.707 6.387-66.705 14.902-29.095 42.578-48.965 69.544-48.965 7.806 0 14.902 1.419 21.289 4.967 12.064 5.677 21.289 16.322 26.256 30.514 7.096 19.87 4.258 44.707-6.387 66.705-14.902 29.095-42.578 48.965-69.544 48.965z" />
<glyph unicode="&#xe946;" horiz-adv-x="926" d="M642.927 649.891l-19.16 123.476c0 0-66.705-249.081-189.472-233.469 0 0-195.149-300.175-255.468-522.999-12.064-44.707 48.255-71.673 73.802-32.643 90.833 136.959 244.114 322.173 390.298 665.635z" />
<glyph unicode="&#xe947;" horiz-adv-x="926" d="M504.549 457.58c6.387 14.193 0 31.224-14.902 37.611s-31.933 0-38.32-14.193 0-31.224 14.902-37.611c14.902-6.387 31.933 0 38.32 14.193z" />
<glyph unicode="&#xe948;" horiz-adv-x="926" d="M617.38 575.379c-2.129 0-3.548 0.71-5.677 1.419l-61.738 26.966c-3.548 1.419-7.096 4.967-7.806 9.225-1.419 4.258-0.71 8.516 1.419 12.064 30.514 46.126 50.384 101.477 60.319 131.282 2.129 22.708 7.806 44.707 17.031 65.996 29.805 65.286 90.833 109.283 151.861 109.283 17.031 0 32.643-3.548 48.255-9.935 29.805-12.773 53.222-38.32 65.996-70.963 16.322-42.578 14.193-94.381-7.096-141.927-29.805-65.996-90.833-109.993-151.861-109.993v0c-17.031 0-32.643 3.548-48.255 9.935-11.354 4.967-21.289 11.354-30.514 19.87-6.387-14.902-12.773-29.805-19.16-43.997-2.129-5.677-7.806-9.225-12.773-9.225zM763.565 841.491c-27.676 0-55.351-20.579-69.544-51.803-9.935-22.708-11.354-46.836-3.548-66.705 5.677-14.193 14.902-24.128 26.966-29.805 6.387-2.839 12.773-4.258 19.16-4.258 27.676 0 55.351 20.579 69.544 51.803 9.935 22.708 11.354 46.836 3.548 66.705-5.677 14.193-14.902 24.128-26.966 29.805-5.677 2.839-12.064 4.258-19.16 4.258z" />
<glyph unicode="&#xe949;" horiz-adv-x="926" d="M162.506 855.684c-12.773 0-24.128-2.839-34.062-7.806-18.45-9.225-32.643-25.547-39.739-46.126-9.225-26.966-7.096-58.9 7.806-89.414 19.87-39.030 57.48-64.577 95.091-64.577 12.773 0 24.128 2.839 34.062 7.806 18.45 9.225 32.643 25.547 39.739 46.126 9.225 26.966 7.096 58.9-7.806 89.414-20.579 39.030-57.48 64.577-95.091 64.577zM211.471 720.854c-1.419-4.967-4.967-11.354-11.354-14.193-0.71 0-1.419-0.71-1.419-0.71-0.71 0-2.839-1.419-7.806-1.419-15.612 0-34.062 13.483-43.997 32.643-7.806 15.612-9.225 32.643-4.967 44.707 1.419 4.967 4.967 11.354 11.354 14.193 0.71 0 1.419 0.71 1.419 0.71 0.71 0 2.839 1.419 7.806 1.419 15.612 0 34.062-13.483 43.997-32.643 7.806-14.902 9.225-32.643 4.967-44.707z" />
<glyph unicode="&#xe94a;" horiz-adv-x="926" d="M913.297 861.361c-15.612 40.449-44.707 70.963-81.608 86.575-19.87 7.806-39.030 12.064-58.9 12.064-71.673 0-143.346-50.384-178.118-126.315-9.935-22.708-16.322-46.836-19.16-70.963-17.031-49.674-35.482-90.833-56.061-121.347 0 0-0.71-0.71-0.71-0.71-5.677-9.225-7.096-19.87-4.967-30.514-14.902-17.741-31.224-31.933-48.965-37.611-15.612 6.387-31.224 18.45-44.707 34.062 1.419 9.935-0.71 19.87-6.387 29.805-0.71 0.71-0.71 1.419-1.419 2.129-27.676 38.32-48.255 85.156-61.738 119.218-3.548 25.547-11.354 49.674-21.999 70.963-36.191 70.254-105.735 117.089-175.989 117.089-23.418 0-44.707-5.677-65.286-15.612-36.191-17.741-63.157-49.674-77.35-90.123-17.031-50.384-12.064-109.993 14.902-163.216 36.901-72.383 105.735-119.218 176.699-119.218 22.708 0 43.997 4.967 64.577 14.902 2.129 1.419 4.967 2.129 7.096 3.548 2.129-4.258 4.258-9.225 6.387-13.483 0-0.71 0.71-0.71 0.71-1.419 5.677-10.644 15.612-17.741 26.256-20.579 14.902-28.385 29.805-55.351 43.997-81.608-62.448-107.864-158.958-286.692-199.407-435.005-9.225-33.353 7.096-66.705 38.32-80.898 9.225-4.258 19.16-6.387 29.095-6.387 22.708 0 43.997 11.354 57.48 31.224 17.741 26.256 37.611 54.642 58.9 85.156 40.449 58.19 87.994 125.605 139.088 207.922 52.513-77.35 102.187-140.507 144.055-195.149 25.547-32.643 48.965-63.867 69.544-91.543 13.483-19.16 34.062-29.095 55.351-29.095 10.644 0 21.289 2.129 31.224 7.806 31.224 15.612 46.126 49.674 35.482 83.027-46.836 148.313-153.99 323.593-222.825 427.909 13.483 26.966 26.966 55.351 41.159 84.446 12.064 3.548 22.708 12.773 27.676 24.837 2.129 4.258 3.548 8.516 5.677 12.064 2.129-1.419 4.967-2.129 7.096-3.548 19.87-7.806 39.030-12.064 58.9-12.064 72.383 0 143.346 51.094 178.118 127.024 24.128 54.642 26.966 114.251 7.806 164.635zM320.044 609.441c-3.548 7.096-7.096 14.902-10.644 21.999-4.258 7.806-12.064 14.193-20.579 15.612-1.419 0-2.839 0.71-4.258 0.71-7.806 0-14.902-2.839-19.87-8.516-5.677-5.677-13.483-11.354-21.999-14.902-12.773-6.387-26.256-9.225-40.449-9.225-49.674 0-98.639 34.772-125.605 87.994-21.289 39.030-25.547 82.317-12.773 118.509 8.516 26.256 26.256 46.126 48.965 57.48 0 0 0.71 0 0.71 0 12.064 6.387 25.547 9.225 39.030 9.225 49.674 0 98.639-34.772 125.605-87.994 8.516-17.031 14.193-35.482 17.031-56.061 0-2.129 0.71-4.258 1.419-6.387 12.773-33.353 32.643-79.479 60.319-121.347l-33.353-16.322c-0.71 3.548-2.129 6.387-3.548 9.225zM362.622 556.929l16.322 7.806c7.096-7.806 14.902-15.612 23.418-21.999-4.258-7.096-9.935-16.322-17.741-27.676-7.096 13.483-14.193 27.676-21.999 41.868zM288.821 86.442c-21.289-30.514-41.868-59.609-59.609-86.575-4.967-7.806-12.064-6.387-15.612-4.967-4.258 2.129-9.225 6.387-7.096 14.193 51.094 189.472 205.084 440.682 243.404 501.001 42.578 1.419 78.060 26.256 106.445 59.609l17.031-7.096c-103.606-218.567-206.503-365.461-284.563-476.164zM756.468 19.027c2.839-8.516-2.839-13.483-6.387-14.902-4.258-2.129-10.644-3.548-15.612 3.548-20.579 29.095-44.707 60.319-70.254 92.962-45.416 58.9-99.349 128.444-156.829 214.309 17.031 28.385 34.062 58.9 51.094 90.833 65.996-102.897 156.829-258.306 197.988-386.75zM854.398 720.144c-25.547-56.061-75.931-92.962-126.315-92.962-12.773 0-24.128 2.839-36.901 7.806-8.516 3.548-15.612 8.516-22.708 14.902s-16.322 8.516-24.837 7.096c-9.225-2.129-16.322-7.806-19.87-16.322v-0.71c-4.258-9.935-8.516-20.579-13.483-30.514l-34.062 14.902c19.87 32.643 38.32 73.092 54.642 122.766 0.71 2.129 1.419 4.258 1.419 6.387 2.129 19.87 7.096 39.030 14.902 56.771 24.837 56.061 75.221 92.962 125.605 92.962 12.773 0 24.128-2.839 36.901-7.806 22.708-9.935 40.449-29.095 50.384-55.351 14.193-35.482 12.064-79.479-5.677-119.928z" />
<glyph unicode="&#xe94b;" horiz-adv-x="926" d="M795.498 862.78c-9.935 4.967-20.579 7.096-31.933 7.096-39.030 0-76.64-26.966-95.8-68.834-12.773-29.805-14.193-61.738-3.548-88.704 8.516-20.579 22.708-36.191 41.868-45.416 9.935-4.258 20.579-6.387 30.514-6.387 39.030 0 76.64 26.966 95.8 68.834 12.773 29.805 14.193 61.738 3.548 88.704-7.806 20.579-22.708 36.191-40.449 44.707zM780.596 752.787c-9.225-20.579-27.676-35.482-43.997-35.482-2.129 0-4.967 0.71-7.096 1.419-3.548 1.419-8.516 4.967-12.773 14.193-4.967 12.773-3.548 29.095 2.839 44.707 9.225 20.579 27.676 35.482 43.997 35.482 2.839 0 4.967-0.71 7.096-1.419 3.548-1.419 8.516-4.967 12.773-14.193 4.967-12.773 3.548-29.805-2.839-44.707z" />
<glyph unicode="&#xe94c;" horiz-adv-x="976" d="M595.636 381.818h271.273v-416.727h-271.273v416.727z" />
<glyph unicode="&#xe94d;" horiz-adv-x="976" d="M320.727 490.909h271.273v-525.818h-271.273v525.818z" />
<glyph unicode="&#xe94e;" horiz-adv-x="976" d="M29.091 583.273h271.273v-618.182h-271.273v618.182z" />
<glyph unicode="&#xe94f;" horiz-adv-x="976" d="M866.909 410.909h-245.818v80c0 16-13.091 29.091-29.091 29.091h-262.545v63.273c0 16-13.091 29.091-29.091 29.091h-271.273c-16 0-29.091-13.091-29.091-29.091v-618.182c0-16 13.091-29.091 29.091-29.091h271.273c3.636 0 7.273 0.727 10.909 2.182 2.909-1.455 6.545-2.182 10.182-2.182h271.273c0.727 0 1.455 0 2.182 0s0.727 0 1.455 0h271.273c16 0 29.091 13.091 29.091 29.091v416.727c-0.727 16-13.818 29.091-29.818 29.091zM271.273-5.818h-213.091v560h213.091v-560zM562.909-5.818h-213.091v467.636h213.091v-467.636zM837.818-5.818h-213.091v358.545h213.091v-358.545z" />
<glyph unicode="&#xe950;" horiz-adv-x="976" d="M973.091 494.545c0.727 1.455 0.727 2.182 1.455 3.636 0 0.727 0.727 1.455 0.727 2.182 0 1.455 0.727 2.182 0.727 3.636 0 0.727 0 1.455 0 2.182 0 1.455 0 2.909 0 3.636s0 1.455 0 2.182-0.727 2.909-1.455 4.364c0 0.727 0 0.727-0.727 1.455l-48.727 110.545c-6.545 14.545-24 21.091-38.545 14.545s-21.091-24-14.545-38.545l12.364-27.636-209.455 123.636c-3.636 2.182-8 3.636-12.364 3.636l-257.455 21.091-280.727 228.364c-12.364 10.182-30.545 8-40.727-4.364s-8-30.545 4.364-40.727l287.273-232.727c4.364-3.636 10.182-5.818 16-6.545l259.636-21.091 214.545-127.273-48-8.727c-16-2.909-26.182-18.182-23.273-34.182 2.909-13.818 14.545-24 28.364-24 1.455 0 3.636 0 5.091 0.727l123.636 23.273c0 0 0 0 0.727 0 2.182 0.727 3.636 0.727 5.818 1.455 0 0 0.727 0 0.727 0 3.636 1.455 6.545 3.636 9.455 7.273 0 0 0.727 0.727 0.727 0.727 0.727 1.455 2.182 2.182 2.909 3.636 0 0 0 0.727 0 0.727s0 0 0.727 0.727 0.727 1.455 0.727 2.182z" />
<glyph unicode="&#xe951;" horiz-adv-x="898" d="M28.683 375.574h267.473v-410.891h-267.473v410.891z" />
<glyph unicode="&#xe952;" horiz-adv-x="898" d="M299.742 483.137h267.473v-518.454h-267.473v518.454z" />
<glyph unicode="&#xe953;" horiz-adv-x="898" d="M587.294 574.207h267.473v-609.524h-267.473v609.524z" />
<glyph unicode="&#xe954;" horiz-adv-x="898" d="M854.767 602.891h-267.473c-15.776 0-28.683-12.908-28.683-28.683v-62.387h-258.868c-15.776 0-28.683-12.908-28.683-28.683v-78.88h-242.375c-15.776 0-28.683-12.908-28.683-28.683v-410.891c0-15.776 12.908-28.683 28.683-28.683h267.473c0.717 0 1.434 0 1.434 0 0.717 0 1.434 0 1.434 0h267.473c3.585 0 7.171 0.717 10.039 2.151 2.868-1.434 6.454-2.151 10.039-2.151h267.473c15.776 0 28.683 12.908 28.683 28.683v609.524c0.717 15.776-12.19 28.683-27.966 28.683zM267.473-6.633h-210.106v353.524h210.106v-353.524zM538.532-6.633h-210.106v461.087h210.106v-461.087zM826.084-6.633h-210.106v552.157h210.106v-552.157z" />
<glyph unicode="&#xe955;" horiz-adv-x="898" d="M897.076 904.784c0 1.434 0 2.151 0 3.585 0 0.717 0 1.434 0 2.151 0 1.434 0 2.151-0.717 3.585 0 0.717 0 1.434-0.717 2.151-0.717 1.434-0.717 2.151-1.434 3.585 0 0.717-0.717 1.434-0.717 1.434s0 0-0.717 0.717c0 0 0 0.717 0 0.717-0.717 0.717-1.434 2.151-2.151 2.868s-0.717 1.434-1.434 1.434c-2.868 2.868-5.737 5.737-9.322 7.171-0.717 0-1.434 0.717-1.434 0.717-1.434 0.717-2.868 0.717-4.303 1.434 0 0-0.717 0-0.717 0l-121.905 22.947c-15.776 2.868-30.835-7.171-33.703-22.947s7.171-30.835 22.947-33.703l47.328-8.605-210.824-125.49-256-20.796c-5.737-0.717-11.473-2.868-15.776-6.454l-283.249-229.468c-12.19-10.039-14.342-27.966-4.303-40.157 5.737-7.171 13.625-10.756 22.23-10.756 6.454 0 12.908 2.151 17.927 6.454l276.078 223.731 253.849 20.796c4.303 0 8.605 1.434 12.19 3.585l206.521 121.905-12.19-27.249c-6.454-14.342 0-31.552 14.342-38.006 3.585-1.434 7.888-2.151 11.473-2.151 10.756 0 21.513 6.454 26.532 17.21l48.045 108.997c0 0.717 0 0.717 0.717 1.434 0.717 1.434 0.717 2.868 1.434 4.303 0 0.717 0 2.151 0 2.868z" />
<glyph unicode="&#xe956;" horiz-adv-x="1202" d="M1041.225 925.551h-880.175c-69.759 0-126.601-56.841-126.601-126.601v-552.908c0-69.759 56.841-126.601 126.601-126.601h480.565l134.352-134.352 134.352 134.352h130.907c69.759 0 126.601 56.841 126.601 126.601v552.908c0 69.759-56.841 126.601-126.601 126.601z" />
<glyph unicode="&#xe957;" horiz-adv-x="1202" d="M775.966-49.359c-8.612 0-17.225 3.445-24.114 10.335l-124.017 124.017h-466.786c-88.706 0-161.050 72.343-161.050 161.050v552.908c0 88.706 72.343 161.050 161.050 161.050h880.175c88.706 0 161.050-72.343 161.050-161.050v-552.908c0-88.706-72.343-161.050-161.050-161.050h-116.266l-124.878-124.017c-6.89-6.89-15.502-10.335-24.114-10.335zM161.050 891.102c-50.812 0-92.151-41.339-92.151-92.151v-552.908c0-50.812 41.339-92.151 92.151-92.151h480.565c9.474 0 18.086-3.445 24.114-10.335l110.237-110.237 110.237 110.237c6.89 6.89 15.502 10.335 24.114 10.335h130.907c50.812 0 92.151 41.339 92.151 92.151v552.908c0 50.812-41.339 92.151-92.151 92.151h-880.175z" />
<glyph unicode="&#xe958;" horiz-adv-x="761" d="M670.332-39.735h-579.943c-36.398 0-66.123 29.725-66.123 66.123v772.853c0 36.398 29.725 66.123 66.123 66.123h579.943c36.398 0 66.123-29.725 66.123-66.123v-772.853c0.607-36.398-29.118-66.123-66.123-66.123z" />
<glyph unicode="&#xe959;" horiz-adv-x="761" d="M594.502 80.379h-428.284c-18.806 0-33.972 15.166-33.972 33.972v598.142c0 18.806 15.166 33.972 33.972 33.972h428.284c18.806 0 33.972-15.166 33.972-33.972v-598.749c0-18.199-15.166-33.365-33.972-33.365z" />
<glyph unicode="&#xe95a;" horiz-adv-x="761" d="M467.109 836.853c0.607 3.033 0.607 6.066 0.607 9.1 0 49.744-40.038 89.782-89.782 89.782s-89.782-40.038-89.782-89.782c0-3.033 0-6.066 0.607-9.1-80.682-14.559-137.706-48.531-137.706-87.962h454.37c-0.607 38.825-57.024 72.796-138.313 87.962z" />
<glyph unicode="&#xe95b;" horiz-adv-x="761" d="M670.332 889.63h-186.844c-17.592 41.251-58.237 70.37-105.555 70.37s-87.962-29.118-105.555-70.37h-181.991c-49.744 0-90.389-40.645-90.389-90.389v-772.853c0-49.744 40.645-90.389 90.389-90.389h579.943c24.872 0 47.924 9.706 64.91 27.299 16.986 16.986 26.085 40.038 25.479 63.090v772.853c0 49.744-40.645 90.389-90.389 90.389zM308.777 823.507c3.64 5.46 4.853 12.133 3.64 18.199 0 0.607 0 3.033 0 4.246 0 36.398 29.118 65.517 65.517 65.517s65.517-29.118 65.517-65.517c0-1.82 0-3.64 0-4.246-1.213-6.066 0-12.739 3.64-18.199s9.1-9.1 15.773-10.313c49.137-9.1 83.716-24.265 102.521-40.038h-374.9c18.199 15.166 53.384 30.938 102.521 40.038 6.673 1.213 12.133 4.853 15.773 10.313zM604.209 712.493v-598.749c0-4.853-4.246-9.1-9.706-9.1h-428.284c-5.46 0-9.706 4.246-9.706 9.706v598.142c0 5.46 4.246 9.706 9.706 9.706h428.284c5.46 0 9.706-4.246 9.706-9.706zM700.664-2.73c-7.886-7.886-18.806-12.739-30.332-12.739h-579.943c-23.052 0-41.858 18.806-41.858 41.858v772.853c0 23.052 18.806 41.858 41.858 41.858h123.754c-52.171-20.626-83.109-50.957-86.749-85.536-11.526-10.919-19.412-26.085-19.412-43.071v-598.142c0-32.152 26.085-58.237 58.237-58.237h428.284c32.152 0 58.237 26.085 58.237 57.63v598.749c0 19.412-9.706 36.398-24.265 47.318-5.46 33.365-36.398 61.877-86.749 81.289h128.607c23.052 0 41.858-18.806 41.858-41.858v-773.46c0-10.919-3.64-20.626-11.526-28.512z" />
<glyph unicode="&#xe95c;" horiz-adv-x="761" d="M229.308 591.166c-13.346 0-24.265 10.919-24.265 24.265s10.919 24.265 24.265 24.265l299.071 0.607c0 0 0 0 0 0 13.346 0 24.265-10.919 24.265-24.265s-10.919-24.265-24.265-24.265l-299.071-0.607c0 0 0 0 0 0z" />
<glyph unicode="&#xe95d;" horiz-adv-x="761" d="M231.735 461.346c-13.346 0-24.265 10.919-24.265 24.265s10.919 24.265 24.265 24.265l299.678 0.607c0 0 0 0 0 0 13.346 0 24.265-10.919 24.265-24.265s-10.919-24.265-24.265-24.265l-299.678-0.607c0 0 0 0 0 0z" />
<glyph unicode="&#xe95e;" horiz-adv-x="761" d="M229.308 330.313c-13.346 0-24.265 10.919-24.265 24.265s10.919 24.265 24.265 24.265l299.071 0.607c0 0 0 0 0 0 13.346 0 24.265-10.919 24.265-24.265s-10.919-24.265-24.265-24.265l-299.071-0.607c0 0 0 0 0 0z" />
<glyph unicode="&#xe95f;" horiz-adv-x="761" d="M231.735 200.493c-13.346 0-24.265 10.919-24.265 24.265s10.919 24.265 24.265 24.265l299.678 0.607c0 0 0 0 0 0 13.346 0 24.265-10.919 24.265-24.265s-10.919-24.265-24.265-24.265l-299.678-0.607c0 0 0 0 0 0z" />
<glyph unicode="&#xe960;" d="M512-36.982c-267.483 0-484.982 217.499-484.982 484.982s217.499 484.982 484.982 484.982 484.982-217.499 484.982-484.982-217.499-484.982-484.982-484.982z" />
<glyph unicode="&#xe961;" d="M512-64c-282.343 0-512 229.657-512 512s229.657 512 512 512c282.343 0 512-229.657 512-512s-229.657-512-512-512zM512 905.963c-252.623 0-457.963-205.34-457.963-457.963s205.34-457.963 457.963-457.963 457.963 205.34 457.963 457.963c0 252.623-205.34 457.963-457.963 457.963z" />
<glyph unicode="&#xe962;" d="M512 79.873c-204.665 0-371.504 166.839-371.504 371.504s166.839 371.504 371.504 371.504 371.504-166.839 371.504-371.504c0-205.34-166.839-371.504-371.504-371.504z" />
<glyph unicode="&#xe963;" d="M512 52.855c-219.525 0-398.522 178.997-398.522 398.522s178.997 398.522 398.522 398.522c219.525 0 398.522-178.997 398.522-398.522s-178.997-398.522-398.522-398.522zM512 795.863c-189.805 0-344.485-154.681-344.485-344.485s154.681-344.485 344.485-344.485c189.805 0 344.485 154.681 344.485 344.485s-154.681 344.485-344.485 344.485z" />
<glyph unicode="&#xe964;" d="M512 736.422l0.675-285.72z" />
<glyph unicode="&#xe965;" d="M539.694 525.003l-0.675 211.42c0 14.86-12.158 27.018-27.018 27.018 0 0 0 0 0 0-14.86 0-27.018-12.158-27.018-27.018l0.675-211.42c-22.29-8.106-40.528-26.343-47.958-49.309l-132.391-2.702c-14.86 0-27.018-12.834-26.343-27.694 0-14.86 12.158-26.343 27.018-26.343 0 0 0.675 0 0.675 0l132.391 2.702c11.483-29.72 40.528-51.335 74.301-51.335 43.905 0 79.704 35.799 79.704 79.704-0.675 34.449-22.966 64.169-53.361 74.976z" />
<glyph unicode="&#xe966;" d="M539.694 450.026c0 14.86-12.158 27.018-27.018 27.018s-27.018-12.158-27.018-27.018 12.158-27.018 27.018-27.018c15.536 0 27.018 12.158 27.018 27.018z" />
<glyph unicode="&#xe967;" horiz-adv-x="1015" d="M963.718 309.589c13.484 44.418 19.83 91.216 19.83 138.014 0 23.796-1.586 48.384-5.552 71.387l-84.077-12.691c-8.725 59.489-30.934 114.218-63.455 161.809l70.593 47.591c-39.659 58.696-92.009 108.666-153.084 144.359l-43.625-72.973c-49.177 29.348-104.7 48.384-164.982 53.936l7.932 84.871c-14.277 1.586-29.348 2.38-44.418 2.38-72.18 0-141.187-15.864-205.435-46.005l36.486-76.939c-53.143-25.382-99.941-61.868-136.428-107.080l-65.834 53.936c-45.211-54.73-77.732-119.771-94.389-188.778l81.698-19.83c-7.932-30.934-11.898-62.662-11.898-95.975 0-26.175 2.38-52.35 7.932-77.732l-83.284-15.864c13.484-69.007 43.625-135.634 85.664-192.744l68.214 50.764c34.9-46.798 79.318-85.664 131.668-112.632l-40.452-75.352c63.455-34.107 131.668-52.35 203.055-55.523l3.966 84.871c6.345 0 12.691-0.793 18.243-0.793 53.936 0 105.493 11.105 152.291 30.141l32.521-78.525c65.041 26.968 124.53 69.007 172.121 121.357l-63.455 57.109c38.866 42.832 68.214 94.389 84.871 150.705l83.284-23.796zM266.51 447.603c0 130.875 106.287 237.162 237.162 237.162s237.162-106.287 237.162-237.162-107.080-236.369-237.955-236.369-236.369 106.287-236.369 236.369z" />
<glyph unicode="&#xe968;" horiz-adv-x="1015" d="M479.876-63.207c-0.793 0-0.793 0-1.586 0-76.939 3.173-149.912 23.002-216.539 59.489-15.070 7.932-21.416 27.761-12.691 42.832l26.175 48.384c-34.9 22.209-66.627 49.177-94.389 80.905l-43.625-32.521c-7.139-4.759-15.070-7.139-23.796-5.552s-15.864 5.552-20.623 12.691c-46.798 61.075-77.732 132.462-92.009 204.641-1.586 7.932 0 16.657 4.759 23.796s11.898 11.898 20.623 13.484l52.35 10.311c-2.38 16.657-3.173 34.107-3.173 52.35 0 24.589 2.38 49.177 6.345 72.18l-51.557 12.691c-16.657 3.966-27.761 21.416-23.002 38.073 16.657 73.766 51.557 143.566 99.941 201.469 11.105 13.484 30.934 15.070 44.418 3.966l42.039-34.107c28.555 30.141 61.868 56.316 98.355 76.939l-23.796 49.177c-3.966 7.932-3.966 16.657-1.586 24.589 3.173 7.932 8.725 14.277 16.657 18.243 69.8 32.521 143.566 49.177 219.712 49.177 16.657 0 32.521-0.793 47.591-2.38 17.45-1.586 29.348-17.45 27.761-34.107l-4.759-54.73c41.246-7.139 80.905-19.83 118.978-38.866l27.761 46.798c9.518 14.277 28.555 19.83 43.625 11.105 64.248-37.28 120.564-90.423 163.396-153.878 4.759-7.139 6.345-15.864 4.759-23.796s-6.345-15.864-13.484-20.623l-45.211-30.141c21.416-36.486 36.486-75.352 46.005-116.598l53.936 7.932c16.657 2.38 33.314-8.725 35.693-26.175 3.966-23.002 6.345-49.177 6.345-76.939 0-51.557-7.139-100.734-21.416-147.532-4.759-16.657-22.209-26.175-38.866-21.416l-53.936 15.864c-15.070-38.866-35.693-76.146-61.075-108.666l40.452-36.486c6.345-5.552 10.311-13.484 10.311-22.209 0.793-8.725-2.38-16.657-7.932-23.002-50.764-56.316-114.218-100.734-183.225-129.289-7.932-3.173-16.657-3.173-24.589 0s-14.277 9.518-17.45 17.45l-20.623 50.764c-39.659-13.484-80.905-20.623-122.943-21.416l-2.38-53.936c-0.793-17.45-15.070-30.934-31.727-30.934zM320.446 38.321c41.246-18.243 84.077-30.141 129.289-34.9l2.38 52.35c0.793 16.657 15.070 30.141 31.727 30.141 3.966 0 7.932 0 11.898-0.793 2.38 0 4.759 0 6.345 0 47.591 0 95.182 9.518 140.393 27.761 15.864 6.345 34.9-0.793 41.246-17.45l19.83-48.384c39.659 19.83 76.939 46.005 109.459 77.732l-38.866 34.9c-6.345 5.552-10.311 13.484-10.311 22.209s2.38 16.657 7.932 23.002c35.693 39.659 62.662 87.25 77.732 138.014 4.759 16.657 22.209 26.175 38.866 21.416l52.35-15.070c7.139 31.727 10.311 64.248 10.311 98.355 0 11.898-0.793 23.796-1.586 34.9l-51.557-7.932c-8.725-1.586-16.657 0.793-23.796 5.552s-11.105 12.691-12.691 20.623c-7.932 53.143-27.761 103.114-57.902 148.325-4.759 7.139-6.345 15.864-4.759 23.796s6.345 15.864 13.484 20.623l43.625 29.348c-27.761 35.693-61.075 66.627-97.562 92.009l-26.968-45.211c-8.725-15.070-28.555-19.83-43.625-11.105-46.798 27.761-97.562 44.418-151.498 49.971-8.725 0.793-15.864 4.759-21.416 11.105s-7.932 15.070-7.139 23.002l4.759 53.936c-3.173 0-6.345 0-9.518 0-56.316 0-110.253-10.311-162.603-30.141l22.209-46.798c7.139-15.864 0.793-34.9-15.070-42.039-49.177-23.796-92.009-57.109-125.323-98.355-5.552-6.345-12.691-11.105-21.416-11.898s-16.657 1.586-23.002 7.139l-40.452 33.314c-26.175-36.486-46.798-77.732-60.282-120.564l49.971-11.898c7.932-2.38 15.070-7.139 19.83-14.277s5.552-15.864 3.173-24.589c-7.139-28.555-11.105-57.109-11.105-88.043 0-25.382 2.38-49.177 7.139-70.593 1.586-8.725 0-17.45-4.759-24.589s-11.898-11.898-20.623-13.484l-50.764-9.518c11.898-42.832 30.141-84.077 54.73-122.943l42.039 30.934c14.277 10.311 34.107 7.932 44.418-6.345 33.314-44.418 73.766-79.318 120.564-103.114 7.932-3.966 13.484-10.311 15.864-19.036 2.38-7.932 1.586-16.657-2.38-24.589l-24.589-46.798zM502.878 179.507c-147.532 0-268.096 120.564-268.096 268.096 0 148.325 120.564 268.889 268.889 268.889s268.889-120.564 268.889-268.889c0-147.532-121.357-268.096-269.682-268.096zM503.672 653.038c-113.425 0-205.435-92.009-205.435-205.435 0-112.632 92.009-204.641 204.641-204.641 113.425 0 206.228 92.009 206.228 204.641 0 113.425-92.009 205.435-205.435 205.435z" />
<glyph unicode="&#xe969;" horiz-adv-x="652" d="M288.6 665.443l-52.954-0.662c-116.499-0.662-210.493-100.613-209.169-222.407l1.986-260.799c1.324-121.794 95.979-219.76 212.478-219.098l52.954 0.662c116.499 0.662 209.831 100.613 209.169 222.407l-1.986 260.799c-0.662 121.794-95.979 219.76-212.478 219.098z" />
<glyph unicode="&#xe96a;" horiz-adv-x="652" d="M270.728 556.225h-12.577c-27.801 0-49.644-23.829-49.644-52.954l0.662-62.221c0-29.125 23.167-52.292 50.306-51.63h12.577c27.801 0 49.644 23.829 49.644 52.954l-0.662 62.221c0 29.125-22.505 52.292-50.306 51.63z" />
<glyph unicode="&#xe96b;" horiz-adv-x="652" d="M426.281 835.558h1.324c78.769-0.662 155.553 27.139 215.126 78.107 11.253 9.267 12.577 26.477 3.31 37.068-9.267 11.253-26.477 12.577-37.068 3.31-50.306-42.363-114.513-65.531-180.706-64.869h-1.324c-0.662 0-0.662 0-1.324 0-49.644 0-96.641-19.196-131.723-54.94-35.744-35.744-54.94-82.741-54.94-133.709 0-1.986 0-3.972 0.662-5.295v-3.31h-3.31c-61.559-0.662-119.809-25.153-164.158-70.164-47.659-48.321-72.812-111.866-72.15-179.382l0.662-120.471c0-0.662 0-1.324 0-2.648s0-1.986 0-2.648l1.324-135.033c1.324-135.695 107.894-245.575 238.293-245.575 0.662 0 0.662 0 1.324 0l52.954 0.662c130.399 0.662 236.308 112.527 235.646 248.884l-0.662 127.090c0.662 1.986 0.662 4.633 0.662 6.619 0 2.648-0.662 4.633-1.324 7.281l-0.662 120.471c-0.662 65.531-25.153 127.752-70.164 174.087-44.349 45.673-103.261 70.826-165.482 71.488v8.605c0 1.986 0 3.31-0.662 4.633 0.662 34.42 14.562 66.855 39.054 90.684 25.153 25.153 58.911 39.716 95.317 39.054zM258.151 529.748h12.577c0 0 0.662 0 0.662 0 7.943 0 12.577-3.31 15.224-5.957 4.633-4.633 7.943-11.253 7.943-19.196l0.662-62.221c0-14.562-10.591-26.477-23.167-26.477h-6.619c0 0 0 0 0 0s0 0 0 0h-6.619c-5.957 0-11.253 1.986-15.224 6.619-5.295 4.633-7.943 11.253-7.943 19.196l-0.662 61.559c0 14.562 10.591 26.477 23.167 26.477zM52.954 442.374c-0.662 53.616 19.196 103.922 56.264 140.99 34.42 35.082 79.431 54.278 127.090 54.278h2.648v-58.25c-32.434-9.267-56.264-39.716-56.264-76.783l0.662-62.221c0-21.182 8.605-41.701 23.829-56.926 9.267-9.267 20.52-15.224 32.434-18.534v-19.858h-186.001l-0.662 97.303zM476.587 185.546c0.662-107.232-81.417-195.268-182.692-195.93l-52.954-0.662c-0.662 0-0.662 0-1.324 0-100.613 0-183.354 86.050-184.677 192.621l-0.662 111.204h210.493c0 0 0 0 0 0h211.154l0.662-107.232zM418.999 583.364c35.082-36.406 54.94-85.388 55.602-137.019l0.662-100.613h-184.016v19.858c32.434 9.267 56.264 39.716 56.264 76.783l-0.662 62.221c0 21.844-8.605 41.701-23.829 56.926-9.267 9.267-20.52 15.224-32.434 18.534v58.911c48.983 0 93.994-19.858 128.414-55.602z" />
<glyph unicode="&#xe96c;" horiz-adv-x="1404" d="M118.761 926.78h710.903c47.338 0 85.541-38.203 85.541-85.541v-373.723c0-47.338-38.203-85.541-85.541-85.541h-429.366l-73.084-73.084-73.084 73.084h-135.371c-47.338 0.83-85.541 39.033-85.541 86.371v373.723c0 46.508 38.203 84.71 85.541 84.71z" />
<glyph unicode="&#xe96d;" horiz-adv-x="1404" d="M1285.606 587.108h-710.073c-47.338 0-85.541-38.203-85.541-85.541v-373.723c0-47.338 38.203-85.541 85.541-85.541h428.535l73.084-73.084 73.084 73.084h134.54c47.338 0 85.541 38.203 85.541 85.541v373.723c0.83 47.338-37.372 85.541-84.71 85.541z" />
<glyph unicode="&#xe96e;" horiz-adv-x="1404" d="M1403.536 500.736c0.83 31.559-11.627 61.457-33.22 83.88-22.423 22.423-52.321 34.881-84.71 34.881h-337.181v221.742c0 65.609-53.152 118.761-118.761 118.761h-710.903c-65.609 0-118.761-53.152-118.761-117.93v-373.723c0-64.779 53.152-118.761 118.761-119.591h121.252l63.118-63.118c6.644-6.644 14.949-9.966 23.254-9.966s16.61 3.322 23.254 9.966l63.118 63.118h44.016v-220.912c0-65.609 53.152-118.761 118.761-118.761h414.417l63.118-63.118c6.644-6.644 14.949-9.966 23.254-9.966s16.61 3.322 23.254 9.966l63.118 63.118h120.422c65.609 0 118.761 53.152 118.761 118.761l1.661 372.892zM456.772 501.567v-86.371h-56.474c-9.135 0-17.44-3.322-23.254-9.966l-49.83-49.83-49.83 49.83c-6.644 6.644-14.949 9.966-23.254 9.966h-134.54c-29.067 0.83-53.152 24.084-53.152 53.152v373.723c0 28.237 23.254 51.491 52.321 51.491h710.903c29.067 0 52.321-23.254 52.321-52.321v-220.912h-306.453c-65.609 0-118.761-53.152-118.761-118.761zM1337.097 127.844c0-29.067-23.254-52.321-52.321-52.321h-134.54c-9.135 0-17.44-3.322-23.254-9.966l-49.83-49.83-49.83 49.83c-6.644 6.644-14.949 9.966-23.254 9.966h-428.535c-29.067 0-52.321 23.254-52.321 52.321v373.723c0 29.067 23.254 52.321 52.321 52.321h710.073c14.118 0 27.406-5.813 37.372-15.779s14.949-22.423 14.118-36.542v-373.723z" />
<glyph unicode="&#xe96f;" horiz-adv-x="1400" d="M374.283 31.010c-13.436-1.919-27.831-2.879-41.267-1.919-59.501 4.799-195.779 30.71-206.336 163.149-5.758 76.776 59.501 89.252 108.446 93.091-11.516 14.396-22.073 28.791-31.67 45.106-0.96 0.96-1.919 2.879-3.839 3.839-3.839 3.839-7.678 7.678-11.516 11.516 0 0 0 0 0 0-0.96 0-0.96 0.96-1.919 0.96s-2.879 0.96-0.96 0 0 0 0.96 0c0 0 0 0 0 0s0 0 0 0c0.96 0 0.96 0-1.919 0.96-8.637 1.919-13.436 6.718-16.315 13.436-57.582-12.476-129.56-50.864-120.922-166.028 14.396-190.021 172.746-218.812 253.361-225.53 34.549-2.879 68.139 0 95.010 2.879-6.718 20.154-14.396 38.388-21.113 58.542z" />
<glyph unicode="&#xe970;" horiz-adv-x="1400" d="M1184.27 935.048c-107.486 6.718-174.665-40.307-200.577-63.34 6.718-1.919 13.436-4.799 19.194-8.637 0 0 0.96 0 0.96-0.96 3.839 0 7.678 0 11.516-0.96 25.912-1.919 52.784-6.718 74.857-20.154 3.839-1.919 6.718-4.799 8.637-8.637 49.904 19.194 107.486 21.113 144.915-31.67 46.066-64.3 32.63-170.827-24.952-230.328 12.476-8.637 23.993-19.194 33.59-30.71 7.678-10.557 15.355-21.113 20.154-32.63 26.872 30.71 52.784 92.131 65.26 135.318 19.194 63.34-12.476 285.031-153.552 292.709z" />
<glyph unicode="&#xe971;" horiz-adv-x="1400" d="M202.497 342.913l188.101-333.976c13.436-23.993 39.348-39.348 67.179-40.307 94.051-1.919 301.346 10.557 392.517 47.985 140.116 56.622 200.577 126.68 207.295 133.398 94.051 106.527 165.068 225.53 207.295 318.62 10.557 23.033 8.637 49.904-4.799 71.018-39.348 65.26-134.358 227.449-182.343 308.064-16.315 26.872-45.106 25.912-75.816 20.154-160.27-29.751-186.182-11.516-319.58-16.315-26.872-0.96-134.358-24.952-155.471-41.267-54.703-44.146-111.325-96.93-158.351-183.303-28.791-51.824-119.963-154.512-154.512-191.94-23.993-25.912-27.831-62.381-11.516-92.131z" />
<glyph unicode="&#xe972;" horiz-adv-x="1400" d="M1306.152 882.264c-30.71 44.146-72.937 70.058-120.922 71.978-122.842 6.718-195.779-49.904-219.771-73.897-80.615-13.436-121.882-11.516-172.746-10.557-29.751 0.96-64.3 1.919-110.366 0-26.872-0.96-140.116-23.993-166.988-46.066-55.663-45.106-114.204-99.809-163.149-189.061-25.912-47.025-110.366-143.955-151.633-188.101-17.275-18.234-25.912-42.227-25.912-66.219-32.63-5.758-71.018-19.194-99.809-47.985-36.469-31.67-50.864-78.695-47.025-138.197 7.678-101.728 61.421-227.449 271.595-243.764 11.516-0.96 22.073-0.96 32.63-0.96 29.751 0 57.582 2.879 79.655 6.718-1.919 2.879-3.839 4.799-4.799 7.678 14.396-9.597 31.67-14.396 49.904-15.355 6.718 0 13.436 0 21.113 0 99.809 0 289.829 13.436 379.082 49.904 133.398 53.743 197.698 119.963 214.013 138.197 85.413 96.93 161.23 214.973 210.174 323.419 5.758 12.476 7.678 25.912 7.678 38.388 37.428 45.106 62.381 125.721 66.219 138.197 16.315 49.904 3.839 169.867-48.945 245.683zM345.492 48.285c-3.839 0-7.678 0-11.516 0-53.743 3.839-178.504 25.912-188.101 145.874-1.919 20.154 1.919 34.549 11.516 45.106 14.396 16.315 41.267 22.073 66.219 24.952l121.882-215.933zM303.265-10.257c-146.834 11.516-226.489 81.575-236.086 207.295-3.839 47.025 7.678 84.454 32.63 109.406 23.033 22.073 53.743 32.63 80.615 37.428 1.919-3.839 2.879-6.718 4.799-10.557l17.275-31.67c-26.872-4.799-55.663-14.396-74.857-35.509-16.315-19.194-23.993-44.146-21.113-74.857 12.476-154.512 175.625-178.504 224.57-181.383 12.476-0.96 23.993-0.96 35.509 0.96l6.718-11.516c1.919-2.879 2.879-4.799 4.799-7.678-22.073-2.879-47.985-3.839-74.857-1.919zM1246.65 476.311c-47.025-105.567-120.922-219.771-203.456-313.822-10.557-12.476-71.018-75.816-199.618-127.64-90.212-36.469-298.467-48.945-384.84-47.025-21.113 0.96-40.307 12.476-49.904 29.751l-189.061 334.935c-12.476 22.073-9.597 49.904 7.678 69.098 4.799 5.758 122.842 132.439 157.391 195.779 46.066 83.494 100.769 135.318 153.552 177.545 15.355 12.476 117.083 36.469 143.955 37.428 45.106 1.919 78.695 0.96 107.486 0 57.582-1.919 107.486-2.879 214.973 17.275 36.469 6.718 47.985 0.96 55.663-11.516v0c-0.96 0-0.96-0.96-1.919-0.96 0.96-0.96 1.919-0.96 1.919-1.919 0.96-0.96 0.96-1.919 1.919-1.919l179.464-302.306c11.516-17.275 12.476-37.428 4.799-54.703zM1248.57 672.090c-2.879-16.315-8.637-32.63-15.355-46.066l-115.164 193.859c17.275 5.758 35.509 8.637 52.784 6.718 23.033-2.879 42.227-14.396 57.582-35.509 20.154-30.71 27.831-74.857 20.154-119.003zM1319.588 649.057c-12.476-40.307-27.831-74.857-41.267-98.849 0 0 0 0 0 0l-22.073 36.469c14.396 23.033 25.912 48.945 31.67 77.736 10.557 55.663 0.96 109.406-26.872 148.754-21.113 29.751-49.904 47.025-84.454 51.824-25.912 2.879-52.784-1.919-77.736-10.557l-2.879 3.839c-12.476 21.113-30.71 29.751-47.985 32.63 32.63 15.355 77.736 28.791 136.277 25.912 36.469-1.919 66.219-21.113 91.172-55.663 45.106-69.098 54.703-176.585 44.146-212.094z" />
<glyph unicode="&#xe973;" horiz-adv-x="1400" d="M308.064 333.316l144.915-241.844c15.355-24.952 42.227-39.348 71.018-37.428 105.567 5.758 347.411 24.952 408.832 78.695 179.464 154.512 147.794 169.867 229.368 294.628 14.396 23.033 17.275 51.824 5.758 75.816-31.67 67.179-97.889 201.537-149.713 267.756-19.194 23.993-51.824 44.146-81.575 36.469-43.187-10.557-101.728-11.516-136.277-11.516-52.784 0-191.94-27.831-238.965-67.179-43.187-35.509-89.252-111.325-172.746-211.134-31.67-38.388-53.743-71.978-72.937-95.010-22.073-24.952-24.952-60.461-7.678-89.252z" />
<glyph unicode="&#xe974;" horiz-adv-x="1400" d="M519.198 33.889c-34.549 0-66.219 18.234-83.494 47.985l-144.915 241.844c-21.113 35.509-17.275 80.615 8.637 112.285 7.678 8.637 15.355 20.154 24.952 33.59 13.436 18.234 28.791 39.348 47.985 61.421 33.59 40.307 61.421 76.776 85.413 108.446 34.549 46.066 62.381 82.534 90.212 105.567 53.743 44.146 201.537 71.018 251.441 71.018 28.791 0 88.292 0 131.479 10.557 39.348 9.597 78.695-15.355 101.728-44.146 52.784-67.179 118.043-198.658 152.592-271.595 14.396-30.71 12.476-66.219-6.718-95.010-23.033-35.509-36.469-61.421-48.945-85.413-31.67-61.421-52.784-101.728-183.303-214.013-59.501-51.824-261.998-73.897-420.349-82.534-2.879 0-4.799 0-6.718 0zM947.224 788.214c-2.879 0-5.758 0-7.678-0.96-47.985-11.516-110.366-11.516-141.076-11.516-49.904 0-183.303-26.872-226.489-62.381-23.993-19.194-49.904-54.703-83.494-98.849-23.993-32.63-51.824-69.098-86.373-110.366-18.234-22.073-32.63-42.227-46.066-59.501-9.597-13.436-18.234-24.952-26.872-34.549-15.355-19.194-17.275-46.066-4.799-67.179l144.915-241.844c11.516-19.194 31.67-29.751 52.784-27.831 209.215 12.476 357.968 39.348 396.356 73.897 124.761 107.486 144.915 145.874 174.665 202.497 12.476 23.993 26.872 51.824 50.864 88.292 11.516 17.275 12.476 38.388 3.839 56.622-26.872 57.582-95.97 197.698-147.794 263.918-11.516 15.355-33.59 29.751-52.784 29.751z" />
<glyph unicode="&#xe975;" horiz-adv-x="1400" d="M626.684 429.286c0 0 202.497 89.252 222.65 127.64z" />
<glyph unicode="&#xe976;" horiz-adv-x="1400" d="M626.684 412.971c-6.718 0-12.476 3.839-15.355 9.597-3.839 8.637 0 18.234 8.637 21.113 95.010 41.267 203.456 99.809 214.013 119.963 3.839 7.678 13.436 11.516 22.073 7.678 7.678-3.839 11.516-13.436 7.678-22.073-20.154-41.267-181.383-114.204-230.328-135.318-1.919-0.96-4.799-0.96-6.718-0.96z" />
<glyph unicode="&#xe977;" horiz-adv-x="1400" d="M958.74 490.707c0 0-88.292-92.131-152.592-110.366z" />
<glyph unicode="&#xe978;" horiz-adv-x="1400" d="M806.148 364.026c-6.718 0-13.436 4.799-15.355 11.516-2.879 8.637 2.879 17.275 11.516 20.154 59.501 16.315 143.955 105.567 144.915 106.527 5.758 6.718 16.315 6.718 23.033 0.96s6.718-16.315 0.96-23.033c-3.839-3.839-92.131-95.97-160.27-115.164-1.919-0.96-3.839-0.96-4.799-0.96z" />
<glyph unicode="&#xe979;" horiz-adv-x="1400" d="M812.866 384.18c0 0-119.963-89.252-191.94-99.809z" />
<glyph unicode="&#xe97a;" horiz-adv-x="1400" d="M620.926 268.056c-7.678 0-14.396 5.758-16.315 13.436-0.96 8.637 4.799 17.275 13.436 18.234 67.179 10.557 183.303 95.97 184.262 96.93 7.678 5.758 17.275 3.839 23.033-2.879 5.758-7.678 3.839-17.275-2.879-23.033-4.799-3.839-123.801-91.172-198.658-102.688-0.96 0-1.919 0-2.879 0z" />
<glyph unicode="&#xe97b;" horiz-adv-x="1847" d="M46.022 37.249c0 483.236 393.492 876.728 876.728 876.728s876.728-393.492 876.728-876.728h-1753.456z" />
<glyph unicode="&#xe97c;" horiz-adv-x="1847" d="M922.751 574.562c-25.312 0-46.022 20.71-46.022 46.022v171.434c0 25.312 20.71 46.022 46.022 46.022s46.022-20.71 46.022-46.022v-171.434c0-25.312-20.71-46.022-46.022-46.022z" />
<glyph unicode="&#xe97d;" horiz-adv-x="1847" d="M663.874 618.283c-18.409 0-34.517 10.355-42.571 27.613l-29.915 70.184c-10.355 23.011 1.151 50.625 24.162 59.829 23.011 10.355 50.625-1.151 59.829-24.162l29.915-70.184c10.355-23.011-1.151-50.625-24.162-59.829-4.602-2.301-11.506-3.452-17.258-3.452z" />
<glyph unicode="&#xe97e;" horiz-adv-x="1847" d="M1550.957 250.103c-18.409 0-34.517 10.355-42.571 27.613-10.355 23.011 1.151 50.625 24.162 59.829l70.184 29.915c23.011 10.355 50.625-1.151 59.829-24.162 10.355-23.011-1.151-50.625-24.162-59.829l-70.184-29.915c-4.602-2.301-11.506-3.452-17.258-3.452z" />
<glyph unicode="&#xe97f;" horiz-adv-x="1847" d="M1182.778 618.283c-5.753 0-12.656 1.151-18.409 3.452-23.011 10.355-34.517 36.818-24.162 59.829l29.915 70.184c10.355 23.011 36.818 34.517 59.829 24.162s34.517-36.818 24.162-59.829l-29.915-70.184c-6.903-17.258-23.011-27.613-41.42-27.613z" />
<glyph unicode="&#xe980;" horiz-adv-x="1847" d="M295.694 250.103c-5.753 0-12.656 1.151-18.409 3.452l-70.184 29.915c-23.011 10.355-34.517 36.818-24.162 59.829s36.818 34.517 59.829 24.162l70.184-29.915c23.011-10.355 34.517-36.818 24.162-59.829-6.903-17.258-23.011-27.613-41.42-27.613z" />
<glyph unicode="&#xe981;" horiz-adv-x="1847" d="M1403.685 471.011c-11.506 0-23.011 4.602-32.216 13.807-18.409 18.409-18.409 47.173 0 65.582l54.076 54.076c18.409 18.409 47.173 18.409 65.582 0s18.409-47.173 0-65.582l-54.076-54.076c-10.355-9.204-21.861-13.807-33.366-13.807z" />
<glyph unicode="&#xe982;" horiz-adv-x="1847" d="M442.966 471.011c-11.506 0-23.011 4.602-32.216 13.807l-54.076 54.076c-18.409 18.409-18.409 47.173 0 65.582s47.173 18.409 65.582 0l54.076-54.076c18.409-18.409 18.409-47.173 0-65.582-10.355-9.204-21.861-13.807-33.366-13.807z" />
<glyph unicode="&#xe983;" horiz-adv-x="1847" d="M1326.598 619.434c4.602 9.204-453.321-380.836-559.173-470.58-28.764-17.258-46.022-50.625-42.571-86.292 4.602-49.474 49.474-85.142 98.948-80.539 29.915 3.452 55.227 20.71 69.034 46.022l433.762 591.389z" />
<glyph unicode="&#xe984;" horiz-adv-x="1847" d="M922.751 960c-508.548 0-922.751-414.202-922.751-922.751 0-25.312 20.71-46.022 46.022-46.022h659.272c25.312-33.366 65.582-55.227 110.454-55.227 4.602 0 9.204 0 13.807 1.151 42.571 4.602 80.539 29.915 102.4 66.733l2.301 3.452c0-4.602 0-10.355 0-14.957h865.222c25.312 0 46.022 20.71 46.022 46.022 0 507.398-414.202 921.6-922.751 921.6zM856.018 55.658c-1.151-1.151-2.301-3.452-3.452-4.602-6.903-12.656-19.56-20.71-33.366-21.861-25.312-2.301-47.173 14.957-48.324 39.119-1.151 17.258 6.903 34.517 20.71 42.571 2.301 1.151 4.602 2.301 5.753 4.602l71.335 60.98c49.474 41.42 123.11 103.551 196.746 166.831l-209.402-287.64zM990.634 83.272l372.782 508.548c1.151 2.301 3.452 4.602 4.602 6.903 10.355 19.56 4.602 43.721-12.656 57.528-28.764 23.011-56.378 1.151-72.485-11.506-9.204-8.054-23.011-18.409-40.27-32.216-33.366-27.613-78.238-65.582-130.013-108.153-100.099-87.443-222.058-189.843-303.748-260.027l-69.034-58.679c-35.667-23.011-57.528-60.98-60.98-102.4h-585.636c24.162 437.213 386.589 784.683 829.555 784.683s805.393-347.47 829.555-784.683h-761.672z" />
<glyph unicode="&#xe985;" horiz-adv-x="1020" d="M852.325 727.066h138.399v120.248c-0.756 45.377-37.814 82.434-83.191 82.434h-39.326c0 0-21.176-49.158-15.882-202.682z" />
<glyph unicode="&#xe986;" horiz-adv-x="1020" d="M902.239 929.749c-21.176 0-133.861 0-133.861 0h-545.276c-40.839 0-73.359-32.52-73.359-73.359v-890.139h642.080c42.352 0 76.384 34.789 76.384 76.384v768.378c0 0-1.513 118.736 34.032 118.736z" />
<glyph unicode="&#xe987;" horiz-adv-x="1020" d="M664.768 170.446v-120.248c0-45.377 37.058-83.191 82.434-83.191h-634.517c-45.377 0-82.434 37.814-82.434 83.191v120.248h634.517z" />
<glyph unicode="&#xe988;" horiz-adv-x="1020" d="M1020.975 848.071c-0.756 61.258-52.183 111.929-113.442 111.929h-684.431c-57.477 0-103.61-46.133-103.61-103.61v-655.693h-89.241c-16.638 0-30.251-13.613-30.251-30.251v-120.248c0-62.771 50.671-113.442 112.685-113.442h66.552c0 0 0-0.756-0.756-0.756h613.341c58.99 0 106.635 47.645 106.635 106.635v654.18h92.266c16.638 0 30.251 13.613 30.251 30.251v121.004zM60.502 50.198v89.997h574.015v-89.997c0-18.907 4.538-37.058 12.857-52.939h-534.688c-27.982 0-52.183 24.201-52.183 52.939zM837.956 811.013v-768.378c0-25.713-20.419-46.133-46.133-46.133h-37.814c-2.269 0.756-4.538 0.756-6.806 0.756-27.982 0-52.183 24.201-52.183 52.939v120.248c0 16.638-13.613 30.251-30.251 30.251h-484.774v655.693c0 24.201 18.907 43.108 43.108 43.108h623.173c-7.563-31.764-8.319-68.821-8.319-88.484zM960.473 757.318h-62.015v53.696c-0.756 35.545 4.538 74.115 11.344 87.728 27.982-0.756 50.671-24.201 50.671-52.183v-89.241z" />
<glyph unicode="&#xe989;" horiz-adv-x="1020" d="M755.521 711.185h-490.068c-16.638 0-30.251 13.613-30.251 30.251s13.613 30.251 30.251 30.251h490.068c16.638 0 30.251-13.613 30.251-30.251s-13.613-30.251-30.251-30.251z" />
<glyph unicode="&#xe98a;" horiz-adv-x="1020" d="M755.521 594.718h-490.068c-16.638 0-30.251 13.613-30.251 30.251s13.613 30.251 30.251 30.251h490.068c16.638 0 30.251-13.613 30.251-30.251s-13.613-30.251-30.251-30.251z" />
<glyph unicode="&#xe98b;" horiz-adv-x="1020" d="M755.521 478.251h-490.068c-16.638 0-30.251 13.613-30.251 30.251s13.613 30.251 30.251 30.251h490.068c16.638 0 30.251-13.613 30.251-30.251s-13.613-30.251-30.251-30.251z" />
<glyph unicode="&#xe98c;" horiz-adv-x="1020" d="M755.521 361.784h-490.068c-16.638 0-30.251 13.613-30.251 30.251s13.613 30.251 30.251 30.251h490.068c16.638 0 30.251-13.613 30.251-30.251s-13.613-30.251-30.251-30.251z" />
<glyph unicode="&#xe98d;" horiz-adv-x="1020" d="M755.521 245.318h-490.068c-16.638 0-30.251 13.613-30.251 30.251s13.613 30.251 30.251 30.251h490.068c16.638 0 30.251-13.613 30.251-30.251s-13.613-30.251-30.251-30.251z" />
<glyph unicode="&#xe98e;" horiz-adv-x="1028" d="M997.131 448c0-266.282-216.532-482.146-483.638-482.146s-483.638 215.864-483.638 482.146c0 266.282 216.532 482.146 483.638 482.146s483.638-215.864 483.638-482.146z" />
<glyph unicode="&#xe98f;" horiz-adv-x="1028" d="M513.493-64c-282.869 0-513.493 229.878-513.493 512s230.624 512 513.493 512 513.493-229.878 513.493-512-230.624-512-513.493-512zM513.493 900.292c-250.029 0-453.784-203.009-453.784-452.292s203.755-452.292 453.784-452.292c250.029 0 453.784 203.009 453.784 452.292s-203.755 452.292-453.784 452.292z" />
<glyph unicode="&#xe990;" horiz-adv-x="1028" d="M241.073 330.076c0 0 3.732 27.615 39.557 12.688 36.571-14.927 58.962-31.347 104.49-35.825s36.571-42.542 36.571-42.542 102.251-1.493 116.431-51.499c0 0 0-7.464-12.688-22.391s-19.405-23.137-20.898-42.542c-1.493-20.152-7.464-23.137-7.464-23.137s-41.796-22.391-44.035-44.035c-2.239-21.644-1.493-23.137-8.956-26.122-8.21-2.239-37.318-4.478-25.376-34.332s40.303-50.752 40.303-50.752l-26.869 3.732c0 0-87.324 81.353-104.49 156.735 0 0 2.985 22.391-13.434 35.079s-30.601 7.464-30.601 7.464-17.166-5.224-34.332 31.347c-17.913 36.571-12.688 58.962-12.688 58.962s1.493 29.854-0.746 36.571c-2.239 6.717-20.152 8.21-39.557 23.137-20.152 14.927-26.869 30.601-26.869 30.601s-13.434 2.985-32.093 7.464-39.557 11.195-50.752 26.869-14.181 27.615-14.181 27.615 3.732 23.137-2.985 26.869-9.703-22.391-9.703-22.391-20.152-12.688-29.854 13.434l6.717 97.026 11.942 52.991 14.927 43.289 21.644 46.274 28.362 47.020 35.079 44.781 44.781 45.528 52.991 41.050 54.484 30.601 51.499 21.644c0 0 24.63-10.449 17.913-20.152s-22.391-11.195-22.391-11.195-16.42 1.493-13.434-7.464 20.898-5.224 20.898-5.224-2.239-23.137 12.688-35.079 29.854-20.898 23.137-33.586-42.542-32.093-42.542-32.093-14.181 26.122-24.63 19.405 12.688-35.825 12.688-35.825 19.405 5.224 29.854-7.464 52.245-46.274 47.767-94.041c0 0 2.239-7.464-8.956-3.732s-17.913 7.464-26.122 3.732-11.942-16.42-11.942-16.42-5.224-11.942-21.644-14.927-24.63-1.493-32.093-5.971-56.723-39.557-64.187-58.962c-7.464-19.405-5.224-21.644-17.166-25.376s-24.63-5.224-24.63-5.224-6.717-4.478-8.21-10.449 17.913-44.781 4.478-61.201c0 0-11.942-4.478-29.854 48.513 0 0-37.318-21.644-48.513-21.644s-14.181-13.434-11.942-25.376c2.985-11.942 20.898-35.825 23.137-36.571s5.971-4.478 10.449 0.746 9.703 23.883 9.703 23.883 12.688 1.493 13.434-13.434 0.746-29.854 0.746-29.854-2.985-5.971 6.717-5.971 22.391 2.239 22.391-8.21c0.746-11.195-3.732-22.391-3.732-22.391s2.239-38.064 44.781-21.644z" />
<glyph unicode="&#xe991;" horiz-adv-x="1028" d="M459.009-60.268c-1.493 0-2.985 0-4.478 0l-26.869 3.732c-5.971 0.746-11.942 3.732-16.42 7.464-3.732 3.732-94.041 88.816-113.446 171.662-0.746 3.732-1.493 6.717-0.746 10.449 0 1.493-0.746 5.971-2.239 7.464-2.239 1.493-3.732 2.239-4.478 2.239-8.956-2.239-43.289-7.464-69.411 47.767-18.659 37.318-17.166 64.933-15.673 74.636 0 5.224 0 11.195 0 15.673-8.21 3.732-17.913 8.21-29.108 17.166-13.434 9.703-21.644 20.152-27.615 27.615-5.224 1.493-11.942 2.985-20.152 4.478-23.137 5.224-50.752 14.927-67.918 38.81-4.478 5.971-7.464 11.942-10.449 16.42-5.971-0.746-11.942 0-17.913 2.239-8.21 5.224-22.391 13.434-30.601 35.079-0.746 3.732-1.493 8.21-1.493 12.688l6.717 97.026c0 1.493 0 2.985 0.746 4.478l11.942 52.991c0 0.746 0.746 2.239 0.746 2.985l14.927 43.289c0 0.746 0.746 2.239 1.493 2.985l21.644 46.274c0.746 0.746 0.746 2.239 1.493 2.985l28.362 47.020c0.746 0.746 1.493 2.239 2.239 2.985l35.079 44.781c0.746 0.746 1.493 1.493 2.239 2.239l44.781 45.528c0.746 0.746 2.239 1.493 2.985 2.985l52.991 41.050c1.493 0.746 2.239 1.493 3.732 2.239l53.738 30.601c0.746 0.746 2.239 0.746 2.985 1.493l51.499 21.644c7.464 2.985 15.673 2.985 23.137 0 11.195-4.478 30.601-15.673 35.825-34.332 2.985-10.449 1.493-21.644-5.224-30.601-2.985-4.478-5.971-7.464-9.703-10.449 0-2.985 0.746-7.464 1.493-8.21 1.493-1.493 3.732-2.985 5.224-3.732 12.688-9.703 43.289-33.586 25.376-66.426-4.478-8.956-14.181-17.913-25.376-26.122 0.746-0.746 1.493-1.493 2.985-2.985 17.166-17.913 52.245-54.484 49.259-106.729 0.746-9.703-2.985-19.405-9.703-26.122-5.971-5.224-17.913-13.434-38.81-6.717-0.746 0-1.493 0.746-2.985 0.746-5.971-11.942-20.152-25.376-42.542-29.854-7.464-1.493-13.434-2.239-17.913-2.239-1.493 0-3.732-0.746-5.224-0.746-12.688-8.21-45.528-34.332-50.752-44.035-1.493-2.985-2.239-5.971-2.985-8.956-5.224-14.181-10.449-26.869-32.84-33.586-2.239-0.746-4.478-1.493-7.464-2.239 5.224-19.405 8.956-45.528-6.717-64.933-2.985-3.732-7.464-7.464-12.688-8.956-4.478-1.493-8.956-2.239-14.181-2.239 0-0.746 0-0.746 0-1.493 5.971-1.493 12.688-4.478 18.659-9.703 6.717-6.717 11.195-15.673 11.195-26.122 0-2.985 0-5.971 0-8.956 2.239 1.493 3.732 2.985 5.971 4.478 10.449 5.971 29.108 11.195 55.977 0 9.703-3.732 17.913-8.21 26.122-11.942 22.391-10.449 41.050-19.405 70.157-21.644 29.108-2.985 44.781-16.42 52.991-27.615 3.732-5.224 6.717-11.195 8.21-16.42 40.303-3.732 104.49-19.405 118.671-70.904 0.746-2.985 1.493-5.224 1.493-8.21 0-8.21-3.732-22.391-20.152-41.796-11.942-13.434-13.434-15.673-14.181-25.376-2.239-29.854-13.434-41.796-23.137-47.020-11.942-6.717-25.376-17.166-28.362-22.391l-0.746-4.478c-1.493-17.166-3.732-35.079-26.869-44.781-0.746-0.746-2.239-0.746-2.985-0.746s-1.493-0.746-2.239-0.746c9.703-17.913 26.869-31.347 27.615-31.347 11.195-8.21 14.927-22.391 9.703-35.079-4.478-11.942-15.673-19.405-27.615-19.405zM357.504 133.038c5.971-23.137 20.898-48.513 37.318-71.65 7.464 10.449 18.659 15.673 27.615 18.659l0.746 3.732c2.985 29.108 32.093 50.752 50.752 62.694 0 0.746 0 2.239 0.746 3.732 2.239 29.854 14.927 44.035 27.615 59.708 0.746 0.746 1.493 1.493 1.493 2.239-14.181 13.434-54.484 21.644-83.592 22.391-9.703 0-18.659 3.732-23.883 11.195s-7.464 16.42-4.478 24.63c0 1.493 0 2.985 0 3.732-0.746 0.746-2.985 2.239-9.703 2.985-39.557 3.732-64.933 15.673-89.563 27.615-7.464 3.732-15.673 7.464-23.883 10.449-0.746 0-1.493 0.746-1.493 0.746-0.746-2.239-2.239-3.732-3.732-5.224 0-0.746 0.746-0.746 0.746-1.493 1.493-3.732 3.732-11.942 2.239-47.767 0-2.239 0-2.985-0.746-4.478 0-2.985-0.746-17.166 10.449-39.557 3.732-7.464 6.717-11.942 8.21-14.181 13.434 1.493 31.347-1.493 47.767-14.181 23.137-17.913 26.122-44.035 25.376-55.977zM293.318 144.233c0 0 0 0 0 0s0 0 0 0zM294.064 144.233c0 0 0 0 0 0s0 0 0 0zM483.638 151.697c0 0 0 0 0 0s0 0 0 0zM483.638 151.697c0 0 0 0 0 0s0 0 0 0zM483.638 151.697c0 0 0 0 0 0s0 0 0 0zM483.638 151.697c0 0 0 0 0 0s0 0 0 0zM483.638 151.697c0 0 0 0 0 0s0 0 0 0zM483.638 151.697c0 0 0 0 0 0s0 0 0 0zM286.601 200.956v0 0zM265.703 256.187v0 0zM270.927 326.344c0 0 0 0 0 0s0 0 0 0zM67.918 471.883c5.224 0 11.195-1.493 15.673-4.478 0.746 0 0.746-0.746 1.493-0.746 1.493 5.971 4.478 11.942 8.956 16.42 7.464 8.956 17.913 14.181 29.108 14.927 5.971 1.493 22.391 9.703 35.825 17.913 4.478 2.985 9.703 4.478 14.927 3.732 5.224 9.703 13.434 16.42 16.42 17.913 3.732 2.239 8.21 4.478 13.434 4.478 0 0 6.717 0.746 14.181 2.985 0.746 2.239 2.239 5.224 2.985 8.956 12.688 32.84 76.128 73.143 76.875 73.889 10.449 5.971 20.152 7.464 29.108 8.21 3.732 0.746 8.21 0.746 13.434 1.493 0 0 0.746 0 0.746 0 3.732 8.956 11.195 22.391 26.122 29.108 4.478 2.239 8.21 2.985 11.942 3.732-6.717 14.181-18.659 26.122-26.869 35.079-2.239 2.239-4.478 5.224-6.717 6.717-0.746 0-1.493 0-1.493 0-11.942-3.732-23.137 0.746-31.347 11.195-16.42 21.644-23.137 41.050-20.152 55.977 2.239 9.703 7.464 17.913 15.673 23.137s18.659 6.717 28.362 4.478c2.985-0.746 5.224-1.493 8.21-2.985-8.21 8.21-13.434 17.913-16.42 26.869-9.703 3.732-17.166 10.449-21.644 19.405l-44.781-25.376-50.006-38.81-42.542-42.542-32.84-41.796-26.869-44.035-20.152-43.289-14.181-40.303-11.195-49.259-3.732-53.738c3.732 0.746 5.971 0.746 7.464 0.746zM125.388 498.752c0 0 0 0 0 0s0 0 0 0z" />
<glyph unicode="&#xe992;" horiz-adv-x="1028" d="M480.653 695.044c-10.449 0-20.898 4.478-28.362 11.942-1.493 1.493-20.898 20.898-33.586 43.289-4.478 8.21-17.913 32.84-6.717 52.245 1.493 3.732 2.985 6.717 4.478 9.703-1.493 2.239-2.239 3.732-3.732 5.971-2.985 7.464-3.732 14.927-2.239 22.391-5.224 2.239-10.449 4.478-14.927 7.464-8.21 5.224-13.434 14.181-15.673 23.883-2.985 16.42 5.224 36.571 23.137 61.201 3.732 5.224 9.703 8.956 15.673 11.195l28.362 8.21c8.21 2.239 16.42 1.493 23.883-2.985 4.478-2.985 8.21-6.717 10.449-11.195 2.985 0.746 5.971 1.493 8.956 2.239 23.137 3.732 38.81-0.746 42.542-2.239 5.224-2.239 8.956-5.224 12.688-8.956 2.985-3.732 6.717-8.21 9.703-11.942 2.985 0.746 7.464 0.746 11.195 0h0.746c9.703-0.746 21.644-3.732 32.84-17.913 9.703-11.942 21.644-45.528 26.122-58.962 5.971-17.166 3.732-29.854-6.717-41.796v-2.239c-7.464-8.956-17.913-12.688-48.513-21.644-3.732-1.493-8.956-2.985-12.688-3.732-0.746-0.746-0.746-2.239-1.493-2.985-2.239-5.971-4.478-11.195-8.21-16.42-2.239-2.985-10.449-11.942-23.883-12.688-8.956-23.883-14.927-29.854-17.166-32.84-8.21-7.464-17.913-11.195-26.869-11.195zM493.341 749.528c0 0 0.746 0 0 0 0.746 0 0 0 0 0zM461.994 770.426c0-0.746-0.746-0.746-1.493-1.493 0.746 0.746 1.493 1.493 1.493 1.493zM468.711 783.114c0.746-1.493 1.493-2.985 2.239-4.478s1.493-2.985 2.985-4.478c0.746 2.239 1.493 4.478 2.239 6.717 0.746 2.985 2.239 5.971 4.478 8.956 6.717 9.703 17.166 14.927 27.615 15.673 3.732 6.717 8.956 12.688 16.42 17.166 5.224 2.985 11.942 5.224 29.108 10.449 2.985 0.746 7.464 2.239 11.195 3.732-2.985 8.21-5.971 15.673-8.21 20.898-8.956-1.493-23.883-2.239-35.825 9.703-2.985 2.985-8.956 10.449-14.181 16.42-1.493 0-3.732 0-5.971-0.746-4.478-0.746-8.956-2.239-12.688-2.985-5.224-1.493-12.688-3.732-20.152-2.985 4.478-5.971 6.717-13.434 5.971-23.137 0-0.746 0-2.239-0.746-2.985 0-1.493-0.746-3.732-1.493-5.224 0-1.493-0.746-2.985-1.493-4.478 5.971-6.717 14.927-21.644 6.717-38.81 0-0.746-0.746-1.493-0.746-2.239-0.746-2.985-3.732-9.703-7.464-17.166zM469.458 833.866v0 0zM425.423 835.359v0 0zM563.499 857.749v0 0z" />
<glyph unicode="&#xe993;" horiz-adv-x="1028" d="M802.332 824.163c0 0-45.528 8.956-50.006-14.181s11.942-37.318 11.942-37.318 8.21-8.21 3.732-16.42-12.688-4.478-11.942-12.688 21.644-24.63 46.274-30.601c24.63-5.971 26.122-21.644 26.122-21.644s-44.781-0.746-52.991-41.796c0 0-19.405-9.703-19.405 14.181s-12.688 45.528-40.303 37.318-2.985-45.528-2.985-45.528 41.050-27.615 46.274-51.499c0 0-28.362 8.956-32.84-7.464s6.717-28.362 6.717-28.362-11.195-31.347 4.478-39.557 20.152-8.21 27.615 2.239c7.464 10.449 38.064 49.259 38.064 49.259s22.391 11.195 41.050-3.732 27.615-26.122 21.644-35.079-18.659-10.449-29.854-3.732-17.913 11.942-17.913 11.942-9.703 3.732-19.405-2.239c-9.703-5.971-15.673-24.63-15.673-24.63s-9.703-9.703-21.644-11.195-27.615-5.224-39.557-34.332-19.405-32.84-19.405-32.84-25.376-18.659-21.644-41.050 11.195-37.318 11.195-37.318-5.971-40.303 17.166-54.484c23.883-14.181 38.064-15.673 50.006-14.181s35.079 17.166 63.44 17.166 25.376-11.195 25.376-11.195-11.942-35.825-11.942-52.245c0-17.166 2.239-46.274-2.985-58.962s-19.405-44.035-34.332-58.216-36.571-47.020-36.571-47.020-9.703-18.659 5.971-23.137c15.673-4.478 48.513 14.181 48.513 14.181s79.114 52.245 134.344 165.691 45.528 213.458 45.528 213.458 5.971 99.265-59.708 223.907c-14.927 27.615-41.796 64.933-57.469 82.099-56.723 63.44-76.875 61.201-76.875 61.201z" />
<glyph unicode="&#xe994;" horiz-adv-x="1028" d="M773.224 33.026c-4.478 0-8.956 0.746-13.434 1.493-12.688 3.732-22.391 11.942-26.869 23.137-8.21 18.659 0 37.318 2.985 42.542 0.746 0.746 0.746 1.493 1.493 2.985 2.239 3.732 23.883 35.825 41.050 52.245 7.464 6.717 18.659 26.869 27.615 47.767 1.493 5.224 1.493 24.63 0.746 34.332 0 4.478 0 8.956 0 13.434 0 8.956 2.239 20.898 5.224 32.093-8.21-1.493-16.42-5.224-24.63-8.21s-15.673-6.717-23.883-7.464c-21.644-2.985-43.289 2.985-68.665 17.913-31.347 19.405-33.586 57.469-32.093 75.382-2.985 8.21-7.464 20.898-10.449 37.318-5.971 36.571 24.63 63.44 32.093 69.411 1.493 1.493 5.224 7.464 10.449 20.898 4.478 10.449 9.703 19.405 14.927 26.122-10.449 13.434-11.195 32.093-8.21 49.259-5.224 11.195-7.464 25.376-3.732 41.050 1.493 6.717 5.224 12.688 9.703 17.913-3.732 2.985-7.464 5.971-11.195 8.21-2.985 2.239-5.971 5.224-8.21 8.21-5.224 8.21-21.644 35.825-11.942 61.948 5.224 14.181 16.42 23.883 31.347 28.362 7.464 2.239 14.181 2.985 20.898 2.985-0.746 2.985-1.493 5.224-1.493 8.21-0.746 5.224 0 14.927 5.971 23.883-6.717 11.195-13.434 28.362-9.703 50.752 2.239 11.942 8.956 22.391 19.405 29.854 20.898 14.181 51.499 10.449 62.694 8.956 23.137-2.239 55.23-26.122 95.534-70.904 16.42-17.913 44.781-56.723 61.201-88.070 64.187-121.656 64.187-220.921 63.44-237.341 1.493-16.42 5.971-115.685-48.513-226.892-58.216-119.417-141.061-175.394-144.793-177.633-0.746 0-1.493-0.746-1.493-0.746-12.688-8.21-35.825-19.405-57.469-19.405zM822.484 344.257c8.21 0 33.586 0 47.767-17.913 6.717-8.956 8.956-20.152 6.717-30.601 0-0.746 0-1.493-0.746-1.493-5.224-14.927-10.449-35.825-10.449-42.542 0-3.732 0-7.464 0-11.942 0.746-25.376 0.746-44.035-5.224-58.216-3.732-9.703-12.688-29.108-23.883-46.274 25.376 25.376 59.708 65.679 87.324 122.402 50.752 103.743 42.542 197.038 42.542 197.784 0 1.493 0 2.985 0 4.478 0 0.746 4.478 93.294-55.977 208.233-13.434 25.376-38.81 60.455-52.991 76.128-36.571 41.050-54.484 50.006-58.216 51.499-0.746 0-1.493 0-2.239 0v0c-3.732 0.746-9.703 1.493-13.434 1.493 0-0.746 0.746-0.746 0.746-0.746 0.746-0.746 0 0 1.493-1.493 11.195-11.195 17.913-29.108 11.195-47.020 3.732-1.493 8.21-3.732 12.688-4.478 33.586-8.21 47.020-30.601 48.513-47.767 0.746-8.21-2.239-16.42-7.464-22.391s-13.434-9.703-21.644-9.703c-4.478 0-20.898-2.239-23.883-17.913-1.493-8.956-7.464-16.42-15.673-20.898-1.493-0.746-2.985-1.493-3.732-1.493 1.493-3.732 2.985-6.717 3.732-10.449 0-1.493 0.746-2.985 0.746-3.732 0 0 0.746 0 0.746 0.746 14.927 7.464 46.274 14.181 73.143-7.464 12.688-9.703 50.752-40.303 27.615-74.636-14.927-22.391-44.781-27.615-70.157-12.688-2.985 1.493-5.224 3.732-8.21 5.224-0.746-1.493-0.746-2.239-1.493-3.732-1.493-4.478-3.732-8.956-7.464-11.942-2.985-2.985-17.913-17.166-38.81-19.405-5.224-0.746-9.703-1.493-15.673-15.673-9.703-23.883-19.405-38.81-29.854-45.528-4.478-3.732-8.956-9.703-9.703-11.942 2.985-16.42 8.21-28.362 8.21-28.362 2.239-5.224 3.732-11.942 2.985-17.913-1.493-9.703 0.746-22.391 2.985-24.63 18.659-11.195 26.122-10.449 29.854-9.703 1.493 0.746 5.971 2.239 9.703 3.732 13.434 0.746 33.586 8.956 58.216 8.956zM829.948 283.802v0 0zM688.886 471.137c0 0 0 0 0 0s0 0 0 0zM688.886 471.137c0 0 0 0 0 0s0 0 0 0zM688.886 471.137c0 0 0 0 0 0s0 0 0 0zM688.886 471.137c0 0 0 0 0 0s0 0 0 0zM688.886 471.137c0 0 0 0 0 0s0 0 0 0zM688.886 471.137c0 0 0 0 0 0s0 0 0 0zM816.513 523.382v0 0zM754.566 588.315v0zM805.318 794.309c0 0 0 0 0 0s0 0 0 0zM805.318 794.309c0 0 0 0 0 0s0 0 0 0zM805.318 794.309c0 0 0 0 0 0s0 0 0 0zM805.318 794.309c0 0 0 0 0 0s0 0 0 0zM805.318 794.309c0 0 0 0 0 0s0 0 0 0zM805.318 794.309c0 0 0 0 0 0s0 0 0 0zM805.318 794.309c0 0 0 0 0 0s0 0 0 0z" />
<glyph unicode="&#xe995;" horiz-adv-x="1028" d="M997.131 448c0-266.282-216.532-482.146-483.638-482.146s-483.638 215.864-483.638 482.146c0 266.282 216.532 482.146 483.638 482.146s483.638-215.864 483.638-482.146z" />
<glyph unicode="&#xe996;" horiz-adv-x="1028" d="M241.073 330.076c0 0 3.732 27.615 39.557 12.688 36.571-14.927 58.962-31.347 104.49-35.825s36.571-42.542 36.571-42.542 102.251-1.493 116.431-51.499c0 0 0-7.464-12.688-22.391s-19.405-23.137-20.898-42.542c-1.493-20.152-7.464-23.137-7.464-23.137s-41.796-22.391-44.035-44.035c-2.239-21.644-1.493-23.137-8.956-26.122-8.21-2.239-37.318-4.478-25.376-34.332s40.303-50.752 40.303-50.752l-26.869 3.732c0 0-87.324 81.353-104.49 156.735 0 0 2.985 22.391-13.434 35.079s-30.601 7.464-30.601 7.464-17.166-5.224-34.332 31.347c-17.913 36.571-12.688 58.962-12.688 58.962s1.493 29.854-0.746 36.571c-2.239 6.717-20.152 8.21-39.557 23.137-20.152 14.927-26.869 30.601-26.869 30.601s-13.434 2.985-32.093 7.464-39.557 11.195-50.752 26.869-14.181 27.615-14.181 27.615 3.732 23.137-2.985 26.869-9.703-22.391-9.703-22.391-20.152-12.688-29.854 13.434l6.717 97.026 11.942 52.991 14.927 43.289 21.644 46.274 28.362 47.020 35.079 44.781 44.781 45.528 52.991 41.050 54.484 30.601 51.499 21.644c0 0 24.63-10.449 17.913-20.152s-22.391-11.195-22.391-11.195-16.42 1.493-13.434-7.464 20.898-5.224 20.898-5.224-2.239-23.137 12.688-35.079 29.854-20.898 23.137-33.586-42.542-32.093-42.542-32.093-14.181 26.122-24.63 19.405 12.688-35.825 12.688-35.825 19.405 5.224 29.854-7.464 52.245-46.274 47.767-94.041c0 0 2.239-7.464-8.956-3.732s-17.913 7.464-26.122 3.732-11.942-16.42-11.942-16.42-5.224-11.942-21.644-14.927-24.63-1.493-32.093-5.971-56.723-39.557-64.187-58.962c-7.464-19.405-5.224-21.644-17.166-25.376s-24.63-5.224-24.63-5.224-6.717-4.478-8.21-10.449 17.913-44.781 4.478-61.201c0 0-11.942-4.478-29.854 48.513 0 0-37.318-21.644-48.513-21.644s-14.181-13.434-11.942-25.376c2.985-11.942 20.898-35.825 23.137-36.571s5.971-4.478 10.449 0.746 9.703 23.883 9.703 23.883 12.688 1.493 13.434-13.434 0.746-29.854 0.746-29.854-2.985-5.971 6.717-5.971 22.391 2.239 22.391-8.21c0.746-11.195-3.732-22.391-3.732-22.391s2.239-38.064 44.781-21.644z" />
<glyph unicode="&#xe997;" horiz-adv-x="1028" d="M426.915 915.965c0 0-26.122-35.079-14.927-42.542s32.84-10.449 32.093-17.166c-1.493-6.717-5.971-20.898-3.732-26.122s11.942-12.688 10.449-15.673c-2.239-3.732-12.688-26.122-12.688-26.122s-3.732-4.478 6.717-23.883 28.362-36.571 28.362-36.571 6.717-6.717 13.434 0 17.913 44.035 17.913 44.035 3.732 5.224 8.21 2.239 9.703-7.464 12.688-3.732 6.717 21.644 13.434 25.376 53.738 15.673 57.469 20.152 5.224 5.224 2.239 14.181-14.927 42.542-20.898 50.006-9.703 6.717-14.927 7.464-16.42-4.478-20.898 0-19.405 23.137-19.405 23.137-9.703 3.732-26.869 0.746-25.376-8.21-31.347-4.478-8.956 17.166-8.956 17.166l-28.362-8.21z" />
<glyph unicode="&#xe998;" horiz-adv-x="1028" d="M802.332 824.163c0 0-45.528 8.956-50.006-14.181s11.942-37.318 11.942-37.318 8.21-8.21 3.732-16.42-12.688-4.478-11.942-12.688 21.644-24.63 46.274-30.601c24.63-5.971 26.122-21.644 26.122-21.644s-44.781-0.746-52.991-41.796c0 0-19.405-9.703-19.405 14.181s-12.688 45.528-40.303 37.318-2.985-45.528-2.985-45.528 41.050-27.615 46.274-51.499c0 0-28.362 8.956-32.84-7.464s6.717-28.362 6.717-28.362-11.195-31.347 4.478-39.557 20.152-8.21 27.615 2.239c7.464 10.449 38.064 49.259 38.064 49.259s22.391 11.195 41.050-3.732 27.615-26.122 21.644-35.079-18.659-10.449-29.854-3.732-17.913 11.942-17.913 11.942-9.703 3.732-19.405-2.239c-9.703-5.971-15.673-24.63-15.673-24.63s-9.703-9.703-21.644-11.195-27.615-5.224-39.557-34.332-19.405-32.84-19.405-32.84-25.376-18.659-21.644-41.050 11.195-37.318 11.195-37.318-5.971-40.303 17.166-54.484c23.883-14.181 38.064-15.673 50.006-14.181s35.079 17.166 63.44 17.166 25.376-11.195 25.376-11.195-11.942-35.825-11.942-52.245c0-17.166 2.239-46.274-2.985-58.962s-19.405-44.035-34.332-58.216-36.571-47.020-36.571-47.020-9.703-18.659 5.971-23.137c15.673-4.478 48.513 14.181 48.513 14.181s79.114 52.245 134.344 165.691 45.528 213.458 45.528 213.458 5.971 99.265-59.708 223.907c-14.927 27.615-41.796 64.933-57.469 82.099-56.723 63.44-76.875 61.201-76.875 61.201z" />
<glyph unicode="&#xe999;" horiz-adv-x="1028" d="M1026.985 443.522c0 1.493 0 2.985 0 4.478 0 10.449-0.746 20.152-0.746 30.601 0 5.971-0.746 11.942-1.493 19.405 0 1.493 0 3.732-0.746 5.224-0.746 3.732-0.746 8.21-1.493 12.688-8.956 66.426-30.601 128.373-62.694 184.35-0.746 0.746-1.493 2.239-2.239 2.985-11.195 19.405-23.883 38.81-38.064 56.723-2.985 4.478-6.717 8.21-9.703 11.942-0.746 0.746-1.493 1.493-1.493 2.239-2.239 2.985-5.224 5.971-7.464 8.21 0 0-0.746 0.746-0.746 0.746-93.294 108.222-232.117 176.886-386.612 176.886-57.469 0-113.446-9.703-164.945-26.869-2.985 0-5.224-0.746-8.21-2.239l-18.659-8.21c-5.224-2.239-9.703-3.732-14.927-5.971l-17.913-7.464c-0.746-0.746-2.239-0.746-2.985-1.493l-14.927-8.21c-4.478-2.239-8.956-5.224-12.688-7.464l-26.869-14.927c-1.493-0.746-2.239-1.493-3.732-2.239l-17.913-14.181c-8.21-5.971-15.673-11.942-23.137-17.913l-11.942-8.956c-0.746-0.746-2.239-1.493-2.985-2.985l-9.703-9.703c-10.449-9.703-20.898-20.152-30.601-31.347l-4.478-4.478c-0.746-0.746-1.493-1.493-2.239-2.239l-4.478-5.971c-7.464-8.956-14.927-18.659-21.644-28.362l-8.21-10.449c-0.746-0.746-1.493-2.239-2.239-2.985l-8.956-14.927c-3.732-5.971-7.464-11.942-11.195-17.913l-8.21-14.181c-0.746-0.746-0.746-1.493-1.493-2.985l-6.717-14.181c-0.746-2.239-2.239-4.478-2.985-6.717l-11.942-25.376c-0.746-0.746-0.746-2.239-1.493-2.985l-14.927-43.289c0-0.746-0.746-2.239-0.746-2.985l-2.985-12.688c-2.985-10.449-5.224-20.898-6.717-31.347l-2.239-8.956c0-1.493-0.746-2.985-0.746-4.478v-2.239c-4.478-26.869-6.717-54.484-6.717-82.099 0-3.732 0-6.717 0-10.449v-2.985c0-2.239 0-4.478 0.746-7.464 10.449-273.166 236.595-491.848 512.746-491.848 223.16 0 413.481 142.554 483.638 341.085 27.615 74.636 29.854 138.076 29.854 167.184zM923.988 256.933c-27.615-56.723-61.948-97.026-87.324-122.402 11.195 17.166 19.405 36.571 23.883 46.274 5.971 14.927 5.971 33.586 5.224 58.216 0 4.478 0 8.21 0 11.942 0 6.717 5.224 28.362 10.449 42.542 0 0.746 0 1.493 0.746 1.493 2.985 10.449 0 21.644-6.717 30.601-14.181 17.913-39.557 17.913-47.767 17.913-24.63 0-44.781-8.21-58.216-14.181-2.985-1.493-7.464-2.985-9.703-3.732-3.732-0.746-11.942-0.746-29.854 9.703-2.239 2.239-4.478 14.927-2.985 24.63 0.746 5.971 0 11.942-2.985 17.913 0 0-5.971 11.942-8.21 28.362 0 2.239 5.224 8.956 9.703 11.942 10.449 7.464 20.152 21.644 29.854 45.528 5.971 14.927 10.449 15.673 15.673 15.673 20.898 2.985 36.571 17.166 38.81 19.405 2.985 2.985 5.971 7.464 7.464 11.942 0 0.746 0.746 2.239 1.493 3.732 2.239-1.493 5.224-2.985 8.21-5.224 25.376-14.927 55.23-9.703 70.157 12.688 23.137 34.332-14.927 64.933-27.615 74.636-26.869 20.898-58.216 14.181-73.143 7.464 0 0-0.746 0-0.746-0.746 0 1.493 0 2.985-0.746 3.732-0.746 3.732-2.239 7.464-3.732 10.449 1.493 0.746 2.985 1.493 3.732 1.493 8.21 4.478 14.181 11.942 15.673 20.898 2.985 15.673 19.405 17.913 23.883 17.913 8.21 0 16.42 3.732 21.644 9.703s8.21 14.181 7.464 22.391c-1.493 17.166-15.673 39.557-48.513 47.767-4.478 1.493-8.956 2.985-12.688 4.478 6.717 17.913 0 35.825-11.195 47.020-0.746 0.746-0.746 0.746-1.493 1.493 0 0-0.746 0.746-0.746 0.746 3.732 0 8.956-0.746 13.434-1.493 0.746 0 1.493 0 2.239 0 3.732-1.493 21.644-10.449 58.216-51.499 0 0 0.746-0.746 0.746-0.746 0.746-1.493 2.239-2.239 2.985-3.732 1.493-1.493 2.985-2.985 3.732-5.224 1.493-2.239 3.732-4.478 5.224-6.717 13.434-17.166 29.854-41.050 39.557-59.708 40.303-76.128 51.499-142.554 55.23-178.379 0-2.985 0.746-6.717 0.746-10.449 0.746-11.942 0.746-19.405 0.746-19.405 0-1.493 0-2.985 0-4.478 0 0 0.746-4.478 0.746-11.942-0.746-50.006-9.703-98.519-25.376-143.3-5.224-8.956-11.195-23.137-17.913-37.318zM479.907 789.085c-2.239-2.985-2.985-5.971-4.478-8.956-0.746-2.239-1.493-4.478-2.239-6.717-0.746 1.493-2.239 2.985-2.985 4.478-0.746 2.239-1.493 3.732-2.239 4.478 3.732 7.464 6.717 14.181 7.464 15.673 0.746 0.746 0.746 1.493 0.746 2.239 8.21 17.166-0.746 31.347-6.717 38.81 0.746 1.493 0.746 3.732 1.493 4.478 0.746 2.239 0.746 3.732 1.493 5.224 0 0.746 0.746 2.239 0.746 2.985 0.746 9.703-1.493 17.166-5.971 23.137 7.464 0 14.927 1.493 20.152 2.985 3.732 0.746 7.464 2.239 12.688 2.985 2.239 0.746 4.478 0.746 5.971 0.746 5.224-5.971 11.195-13.434 14.181-16.42 11.942-11.942 26.869-11.195 35.825-9.703 2.239-5.224 5.224-13.434 8.21-20.898-3.732-1.493-8.21-2.239-11.195-3.732-17.166-5.224-23.883-7.464-29.108-10.449-7.464-4.478-12.688-10.449-16.42-17.166-10.449 0.746-20.152-4.478-27.615-14.181zM329.143 831.627c2.985-8.956 7.464-18.659 16.42-26.869-2.239 1.493-5.224 2.239-8.21 2.985-10.449 2.239-20.152 0.746-28.362-4.478s-14.181-13.434-15.673-23.137c-2.985-14.927 3.732-33.586 20.152-55.977 7.464-10.449 18.659-14.927 31.347-11.195 0.746 0 1.493 0 1.493 0 1.493-2.239 3.732-4.478 6.717-6.717 8.21-8.21 20.152-20.898 26.869-35.079-3.732-0.746-7.464-1.493-11.942-3.732-14.927-6.717-22.391-20.152-26.122-29.108 0 0 0 0-0.746 0-5.224-0.746-8.956-1.493-13.434-1.493-8.956-0.746-18.659-1.493-29.108-8.21-0.746-0.746-64.187-41.050-76.875-73.889-1.493-3.732-2.239-6.717-2.985-8.956-7.464-1.493-14.181-2.985-14.181-2.985-4.478-0.746-8.956-2.239-13.434-4.478-2.985-2.239-11.195-8.21-16.42-17.913-5.224 0-10.449-1.493-14.927-3.732-13.434-8.21-29.854-15.673-35.825-17.913-11.195-0.746-21.644-5.971-29.108-14.927-3.732-4.478-6.717-10.449-8.956-16.42-0.746 0-0.746 0.746-1.493 0.746-5.224 2.985-10.449 4.478-15.673 4.478-2.239 0-3.732 0-5.971-0.746l3.732 50.752c0.746 3.732 1.493 7.464 2.239 11.195l6.717 29.108c6.717 26.122 16.42 51.499 27.615 75.382l3.732 7.464c4.478 8.21 8.956 16.42 13.434 24.63l11.942 19.405c5.224 7.464 9.703 14.927 14.927 22.391l20.898 26.869c2.985 2.985 5.224 5.971 8.21 9.703l29.854 30.601c5.971 5.971 12.688 11.195 18.659 16.42l22.391 17.166c12.688 8.956 25.376 17.913 39.557 25.376l14.927 8.21c2.239 1.493 5.224 2.239 7.464 3.732 2.985-8.21 10.449-14.927 20.152-18.659zM386.612 857.003c2.239-2.985 5.224-5.971 8.956-8.956 4.478-2.985 9.703-5.971 14.927-7.464-0.746-5.224-0.746-9.703 0.746-14.927-6.717 7.464-14.181 13.434-18.659 17.166-1.493 1.493-3.732 2.985-5.224 3.732-0.746 1.493-1.493 5.224-1.493 8.21 0 1.493 0 2.239 0.746 2.239zM67.918 363.662c17.166-18.659 41.796-26.869 62.694-32.093 7.464-1.493 14.927-3.732 20.152-4.478 5.971-8.21 14.181-17.913 27.615-27.615 11.195-8.21 21.644-13.434 29.108-17.166 0-4.478 0-10.449 0-15.673-1.493-10.449-2.985-37.318 15.673-74.636 26.122-55.23 60.455-50.006 69.411-47.767 0.746 0 2.239-0.746 4.478-2.239 1.493-1.493 2.239-5.971 2.239-7.464-0.746-3.732-0.746-6.717 0.746-10.449 7.464-33.586 26.869-67.172 47.020-95.534-143.3 55.977-250.029 182.111-279.137 335.114zM292.571 304.7c24.63-11.195 50.006-23.137 89.563-27.615 6.717-0.746 9.703-2.239 9.703-2.985s0.746-2.239 0-3.732c-2.239-8.956-0.746-17.166 4.478-24.63s14.181-11.195 23.883-11.195c28.362-0.746 68.665-8.956 83.592-22.391-0.746-0.746-1.493-1.493-1.493-2.239-13.434-15.673-25.376-29.854-27.615-59.708 0-1.493 0-2.985-0.746-3.732-18.659-11.195-47.767-33.586-50.752-62.694l-0.746-3.732c-8.956-2.985-20.152-8.21-27.615-18.659-16.42 23.137-31.347 48.513-37.318 71.65 0 12.688-2.239 38.064-25.376 55.977-16.42 12.688-34.332 15.673-47.767 14.181-1.493 2.239-4.478 5.971-8.21 14.181-11.195 22.391-10.449 36.571-10.449 39.557 0.746 2.239 0.746 2.239 0.746 4.478 1.493 35.825-0.746 44.035-2.239 47.767 0 0.746 0 0.746-0.746 1.493 1.493 1.493 2.985 3.732 3.732 5.224 0.746 0 1.493-0.746 1.493-0.746 8.956-3.732 16.42-6.717 23.883-10.449zM471.697-2.052c-5.971 5.224-15.673 15.673-22.391 27.615 0.746 0 1.493 0.746 2.239 0.746s2.239 0.746 2.985 0.746c23.137 9.703 25.376 26.869 26.869 44.781l0.746 4.478c2.985 5.224 16.42 15.673 28.362 22.391 9.703 5.224 20.898 17.166 23.137 47.020 0.746 9.703 2.239 11.942 14.181 25.376 16.42 19.405 20.152 33.586 20.152 41.796 0 2.985-0.746 5.224-1.493 8.21-14.927 51.499-78.367 67.172-117.924 71.65-1.493 5.224-4.478 11.195-8.21 16.42-7.464 11.195-23.137 24.63-52.991 27.615-29.108 2.985-47.020 11.195-70.157 21.644-8.21 3.732-16.42 7.464-26.122 11.942-26.869 11.195-45.528 5.971-55.977 0-2.239-1.493-4.478-2.985-5.971-4.478 0 2.985 0 5.971 0 8.956 0 9.703-4.478 19.405-11.195 26.122-5.971 5.224-11.942 8.21-18.659 9.703 0 0.746 0 0.746 0 1.493 4.478-0.746 9.703 0 14.181 2.239 5.224 1.493 8.956 5.224 12.688 8.956 16.42 20.152 11.942 45.528 6.717 64.933 2.239 0.746 4.478 1.493 7.464 2.239 21.644 6.717 27.615 19.405 32.84 33.586 0.746 2.239 2.239 5.971 2.985 8.956 5.224 9.703 38.064 35.825 50.752 44.035 1.493 0 3.732 0.746 5.224 0.746 4.478 0.746 10.449 0.746 17.913 2.239 21.644 3.732 35.825 17.913 42.542 29.854 0.746 0 1.493-0.746 2.985-0.746 20.152-6.717 32.84 1.493 38.81 6.717 6.717 6.717 10.449 16.42 9.703 26.122 2.985 52.245-32.093 88.816-49.259 106.729-0.746 0.746-2.239 2.239-2.985 2.985 7.464 5.224 13.434 11.195 18.659 16.42 2.239-7.464 5.971-13.434 7.464-17.166 12.688-23.137 32.093-41.796 33.586-43.289 7.464-7.464 17.913-11.942 28.362-11.942 9.703 0 19.405 3.732 27.615 11.942 2.239 2.239 8.21 8.21 17.166 32.84 13.434 0.746 21.644 9.703 23.883 12.688 3.732 5.224 5.971 10.449 8.21 16.42 0 0.746 0.746 2.239 1.493 2.985 3.732 1.493 8.956 2.985 12.688 3.732 30.601 9.703 41.050 12.688 48.513 21.644l0.746 0.746c10.449 12.688 12.688 24.63 6.717 41.796-3.732 11.195-12.688 35.825-20.898 51.499 47.020-9.703 91.055-26.869 131.359-50.006-7.464-6.717-12.688-15.673-14.181-25.376-4.478-22.391 2.239-39.557 9.703-50.752-6.717-8.956-6.717-18.659-5.971-23.883 0-2.985 0.746-5.224 1.493-8.21-6.717 0-13.434-0.746-20.898-2.985-14.927-4.478-26.122-14.927-31.347-28.362-9.703-26.122 6.717-53.738 11.942-61.948 2.239-2.985 5.224-5.971 8.21-8.21 3.732-2.239 7.464-5.224 11.195-8.21-4.478-5.224-8.21-11.195-9.703-17.913-4.478-15.673-1.493-29.854 3.732-41.050-2.985-17.166-2.239-35.825 8.21-49.259-5.224-6.717-10.449-14.927-14.927-26.122-5.224-13.434-8.956-19.405-10.449-20.898-7.464-5.971-38.064-32.093-32.093-69.411 2.985-16.42 7.464-29.108 10.449-37.318-0.746-17.913 1.493-55.977 32.093-75.382 25.376-14.927 47.020-20.898 68.665-17.913 8.21 0.746 15.673 4.478 23.883 7.464 7.464 2.985 15.673 6.717 24.63 8.21-2.985-11.195-5.224-23.137-5.224-32.093 0-3.732 0-8.21 0-13.434 0-9.703 0.746-29.108-0.746-34.332-8.956-20.898-20.152-41.050-27.615-47.767-17.166-16.42-38.81-48.513-41.050-52.245-0.746-0.746-0.746-1.493-1.493-2.985-2.985-5.224-11.195-23.883-2.985-42.542 0.746-1.493 1.493-2.985 2.239-4.478-65.679-36.571-141.061-57.469-221.668-57.469-14.181-1.493-27.615-0.746-41.796 0.746z" />
<glyph unicode="&#xe99a;" horiz-adv-x="1352" d="M83.422-22.289c-22.941 0-41.711 18.77-41.711 41.711v857.157c0 22.941 18.77 41.711 41.711 41.711h1185.629c22.941 0 41.711-18.77 41.711-41.711v-857.157c0-22.941-18.77-41.711-41.711-41.711h-1185.629z" />
<glyph unicode="&#xe99b;" horiz-adv-x="1352" d="M1269.051 960h-1185.629c-45.882 0-83.422-37.54-83.422-83.422v-857.157c0-45.882 37.54-83.422 83.422-83.422h1185.629c45.882 0 83.422 37.54 83.422 83.422v857.157c0 45.882-37.54 83.422-83.422 83.422zM1269.051 876.578v-98.020c-10.428 0-20.855-4.171-29.198-11.47l-568.31-550.582-567.267 548.497c-6.257 5.214-13.556 9.385-20.855 10.428v101.149h1185.629zM83.422 19.422v649.646l558.925-540.155c8.342-7.299 18.77-11.47 29.198-11.47s20.855 4.171 29.198 11.47l568.31 549.54v-659.031h-1185.629z" />
</font>
</defs>
</svg>
