<?xml version="1.0" encoding="utf-8"?>
<!-- Generator: Adobe Illustrator 27.2.0, SVG Export Plug-In . SVG Version: 6.00 Build 0)  -->
<svg version="1.1" id="Capa_1" xmlns="http://www.w3.org/2000/svg" xmlns:xlink="http://www.w3.org/1999/xlink" x="0px" y="0px"
	 width="15.1px" height="15.3px" viewBox="0 0 15.1 15.3" style="enable-background:new 0 0 15.1 15.3;" xml:space="preserve">
<style type="text/css">
	.st0{fill:#1C2D50;}
</style>
<g>
	<path class="st0" d="M6.5,12.8C3,12.8,0.2,10,0.2,6.5C0.2,3,3,0.2,6.5,0.2s6.3,2.8,6.3,6.3C12.8,10,10,12.8,6.5,12.8z M6.5,1.7
		c-2.7,0-4.8,2.2-4.8,4.8c0,2.7,2.2,4.8,4.8,4.8s4.8-2.2,4.8-4.8C11.3,3.8,9.2,1.7,6.5,1.7z"/>
	<path class="st0" d="M13.9,15.1c-0.3,0-0.5-0.1-0.7-0.3l-2-2c-0.4-0.4-0.4-1,0-1.4s1-0.4,1.4,0l2,2c0.4,0.4,0.4,1,0,1.4
		C14.4,15,14.2,15.1,13.9,15.1z"/>
</g>
</svg>
